<svg width="317" height="75" viewBox="0 0 317 75" fill="none" xmlns="http://www.w3.org/2000/svg">
<path d="M70.49 74.2099C68.86 74.2099 67.59 74.0699 66.6 73.7799C65.37 73.4199 64.14 72.6698 62.93 71.5398C61.4 70.1798 60.43 68.8599 59.97 67.5299C59.71 66.8099 59.42 65.5398 59.12 63.6798C59.07 63.7398 59.03 63.7799 58.98 63.8199C58.95 63.8499 58.77 64.0399 58.72 64.0799C58.69 64.1099 58.64 64.1599 58.59 64.2099C58.56 64.2399 58.38 64.4299 58.33 64.4699C58.3 64.5099 58.25 64.5599 58.19 64.6099C58.16 64.6399 57.05 65.7499 57 65.7999C56.97 65.8299 56.92 65.8798 56.87 65.9298C56.84 65.9598 56.66 66.1498 56.61 66.1999C56.58 66.2299 55.47 67.3399 55.42 67.3899C55.39 67.4199 55.34 67.4699 55.29 67.5199C55.26 67.5499 55.08 67.7399 55.03 67.7799C55 67.8099 54.95 67.8599 54.9 67.9099C54.87 67.9399 54.69 68.1299 54.64 68.1699C54.61 68.1999 54.56 68.2499 54.51 68.2999C54.48 68.3299 54.3 68.5199 54.25 68.5599C54.22 68.5899 54.17 68.6399 54.12 68.6899C54.09 68.7199 54.04 68.7699 53.99 68.8199C53.96 68.8599 53.91 68.9099 53.85 68.9599C53.82 68.9899 53.64 69.1699 53.59 69.2199C53.56 69.2599 53.51 69.3099 53.45 69.3599C53.42 69.3899 53.11 69.7099 53.06 69.7499C53.02 69.7899 52.97 69.8399 52.92 69.8899C52.89 69.9199 52.84 69.9699 52.79 70.0199C52.5 70.3699 52.13 70.7198 51.72 71.0398C49.99 72.4898 47.46 73.2399 44.23 73.2399H43.94C42.09 73.2399 40.31 72.8199 38.67 71.9999L36.65 71.0199L34.78 71.6798C33.24 72.2398 30.47 72.5199 26.31 72.5199C22.87 72.5199 20.36 72.3399 18.63 71.9599C16.88 71.5799 15.1 70.7999 13.35 69.6498C12.3 68.9499 10.91 67.7699 9.21002 66.1399C7.47002 64.4799 6.28001 63.1499 5.57001 62.0799C4.05001 59.6999 2.79002 56.0699 1.71002 50.9399C1.22002 48.4899 0.969971 46.4599 0.969971 44.8799C0.969971 43.7399 0.989978 42.8299 1.03998 42.0899C1.44998 33.1699 4.53 25.6699 10.19 19.7999L16.77 13.2199C17.19 12.7799 17.57 12.3999 17.97 12.0199C21.84 8.24985 27.1 5.58986 33.59 4.11986C34.94 3.81986 36.43 3.66985 38.02 3.66985C40.77 3.66985 43.63 4.11985 46.52 4.99986C49.42 5.87986 51.92 7.08985 53.96 8.56985C55.97 10.0299 57.66 11.9799 58.98 14.3799C59.27 14.8999 59.53 15.4399 59.78 15.9999C59.82 16.0999 59.87 16.2099 59.91 16.3099C60.04 16.2099 60.17 16.1199 60.3 16.0399C60.94 15.5799 62.1 14.9399 63.8 14.0799C63.82 13.9999 63.85 13.9299 63.87 13.8499C63.93 13.6499 64 13.4499 64.07 13.2599C64.74 11.4699 65.74 10.1299 67.06 9.28986C67.22 9.16986 67.47 9.00985 67.76 8.83985C68.58 8.33985 69.8 7.69986 71.39 6.90986C72.71 6.25986 73.77 5.75986 74.54 5.42986L74.98 5.23985C75.27 5.11985 75.51 5.02986 75.7 4.96986C75.86 4.92986 76.03 4.89986 76.26 4.86986C76.57 4.82986 77.02 4.77985 77.61 4.70985C78.2 4.64985 78.93 4.56986 79.81 4.47986L80.42 4.43986C81.19 4.39986 81.97 4.36986 82.74 4.36986C84.03 4.36986 85.35 4.42985 86.65 4.55985C87.68 4.65985 88.73 4.79985 89.77 4.98985C90.29 5.07985 90.81 5.17986 91.33 5.28986C91.85 5.39986 92.37 5.51986 92.89 5.64986C93.93 5.90986 94.93 6.20985 95.87 6.52985C96.81 6.84985 97.72 7.19986 98.56 7.57986C100.26 8.33986 101.79 9.22986 103.09 10.2199C103.63 10.6199 104.22 11.1699 104.84 11.8499C105.45 12.5099 106.12 13.3099 106.82 14.2399C107.17 14.6999 107.5 15.1499 107.8 15.5899C108.22 16.1899 108.59 16.7599 108.93 17.3099C109.04 16.9799 109.16 16.6499 109.27 16.3399C109.85 14.7699 110.73 13.3199 111.88 12.0699C111.89 12.0499 118.44 5.49985 118.49 5.45985C118.86 5.04985 119.25 4.65986 119.66 4.28986C120.49 3.54986 121.37 2.94985 122.27 2.48985C123.18 2.02985 124.14 1.70986 125.12 1.53986C125.45 1.47986 125.83 1.44986 126.28 1.43986H126.55C126.9 1.43986 127.29 1.44986 127.71 1.47986C128.38 1.52986 129.06 1.59986 129.8 1.71986C130.56 1.83986 131.16 1.95985 131.7 2.09985C132.1 2.19985 132.48 2.31985 132.84 2.44985C133.13 2.54985 133.4 2.66985 133.68 2.80985C134.22 3.07985 134.76 3.41986 135.28 3.82986C135.54 4.02986 135.79 4.24985 136.05 4.48985C136.31 4.72985 136.55 4.96985 136.77 5.20985C137.46 5.95985 138.03 6.75986 138.48 7.60986L139.38 9.49986C139.44 9.62986 139.47 9.77985 139.46 9.91985L139.33 13.0899C139.38 13.0399 145.53 6.88985 145.58 6.83985C145.83 6.58985 146.02 6.38985 146.23 6.20985C146.31 6.13985 146.39 6.07986 146.47 6.00986L146.56 5.92986C146.73 5.78986 146.91 5.64985 147.09 5.51985C147.2 5.43985 147.31 5.36986 147.42 5.29986C147.66 5.14986 147.84 5.02986 148.03 4.92986C148.16 4.84986 148.31 4.77985 148.45 4.70985C148.64 4.60985 148.84 4.51986 149.04 4.42986C149.18 4.36986 149.33 4.30985 149.48 4.24986C149.69 4.16986 149.91 4.08985 150.14 4.01985C150.14 4.01985 150.47 3.91985 150.58 3.87985C150.83 3.80985 151.09 3.74986 151.35 3.68986C151.35 3.68986 151.64 3.61986 151.73 3.60986C152.12 3.53986 152.53 3.47986 152.94 3.42986C153.46 3.38986 153.95 3.35986 154.41 3.35986H154.64C155.03 3.35986 155.4 3.36986 155.76 3.39986C156.57 3.45986 157.36 3.57986 158.09 3.75986C158.46 3.84986 158.83 3.95985 159.18 4.08985C160.95 4.71985 162.48 5.77986 163.75 7.21986C164.17 7.69986 164.56 8.22986 164.9 8.79986C165.07 9.07986 165.23 9.37986 165.39 9.67986C166.05 10.9899 166.52 12.5199 166.81 14.2299C167.39 13.2099 168.07 12.3299 168.83 11.5999L175.45 4.97986C175.71 4.71986 175.99 4.46985 176.28 4.23985C177.04 3.63985 177.96 3.11986 179.02 2.68986C180.73 1.99986 182.86 1.50986 185.37 1.24986C186.4 1.14986 187.44 1.09985 188.48 1.09985H188.69C189.24 1.09985 189.8 1.11986 190.36 1.14986C190.92 1.17986 191.48 1.22986 192.04 1.28986C193.3 1.41986 194.53 1.61986 195.7 1.85986C196.29 1.97986 196.86 2.11985 197.43 2.27985C198.56 2.58985 199.65 2.94986 200.68 3.36986C202.23 3.99986 203.7 4.76986 205.04 5.65986C206.31 6.44986 207.79 7.80986 209.42 9.68986C211.04 11.5699 212.25 13.2399 212.99 14.6599C213.17 15.0399 213.33 15.4099 213.49 15.7999C213.57 15.9899 213.64 16.1899 213.71 16.3899L213.91 16.9599C213.99 17.1999 214.07 17.4399 214.15 17.6999C214.44 17.3799 214.74 17.0699 215.06 16.7599L215.78 17.3099L215.15 16.6799L221.38 10.4499L222.13 10.9599L221.49 10.3299C221.76 10.0499 222.05 9.77986 222.35 9.50986C222.7 9.18986 223.02 8.90985 223.36 8.63985C225.13 7.18985 227.01 6.03985 228.95 5.20985C229.6 4.92985 230.26 4.68986 230.93 4.47986C232.76 3.91986 235.04 3.51985 237.71 3.27985C239.09 3.15985 240.37 3.08985 241.51 3.08985H241.85C242.47 3.09985 243.06 3.11985 243.6 3.16985C244.15 3.20985 244.67 3.27986 245.15 3.35986C245.69 3.46986 246.21 3.57985 246.72 3.70985C249.26 4.36985 251.66 5.41986 253.85 6.82986C254.72 7.38986 255.58 8.01985 256.39 8.70985C256.85 9.08985 257.32 9.50985 257.78 9.95985C258.24 10.4099 258.68 10.8999 259.11 11.4099C259.97 12.4299 260.8 13.6099 261.58 14.8899C261.92 15.4599 262.23 16.0199 262.52 16.5899C262.62 16.7899 262.72 16.9899 262.82 17.1899L262.92 17.3899C263.06 17.6699 263.2 17.9499 263.33 18.2399C263.5 18.5899 263.66 18.9499 263.81 19.3099L263.86 19.4199C264.38 18.6599 264.97 17.9299 265.63 17.2299C265.64 17.2199 267.18 15.6799 267.18 15.6799C267.22 15.6299 267.23 15.6299 267.27 15.5899L269.69 13.1699C269.72 13.1399 269.75 13.1099 269.78 13.0799L270.08 12.7799C270.11 12.7499 270.14 12.7199 270.17 12.6899L270.48 12.3799C270.51 12.3399 270.54 12.3199 270.58 12.2899L272.34 10.5299C274.01 8.75985 275.73 7.40986 277.48 6.47986C279.22 5.55986 281.44 4.81985 284.1 4.27985C285.15 4.02985 286.72 3.89986 288.87 3.89986C291.9 3.89986 294.4 4.17986 296.29 4.71986C300.35 5.90986 303.9 8.08985 306.87 11.1999C309.85 14.3299 311.69 17.8599 312.34 21.6999C312.49 22.5499 312.57 23.3299 312.57 23.9999C312.57 26.0099 311.88 27.7099 310.52 29.0799C310.5 29.0999 310.48 29.1199 310.45 29.1499C310.43 29.1799 310.4 29.1999 310.39 29.2199C310.37 29.2399 310.34 29.2599 310.32 29.2799C310.3 29.2999 310.28 29.3299 310.26 29.3499C310.24 29.3699 310.22 29.3899 310.19 29.4099C310.17 29.4399 310.15 29.4599 310.13 29.4799C310.11 29.4999 310.08 29.5199 310.06 29.5399C310.04 29.5699 310.01 29.5999 309.98 29.6199C309.97 29.6299 309.95 29.6499 309.92 29.6699C309.9 29.6999 309.87 29.7199 309.86 29.7399C309.84 29.7599 309.81 29.7799 309.79 29.7999C309.77 29.8199 309.75 29.8499 309.73 29.8699C309.71 29.8899 309.69 29.9099 309.66 29.9399C309.64 29.9699 309.61 29.9899 309.6 30.0099C309.58 30.0299 309.56 30.0499 309.53 30.0699C309.51 30.0899 309.49 30.1199 309.47 30.1399C309.45 30.1599 309.43 30.1799 309.4 30.1999C309.38 30.2299 309.35 30.2499 309.34 30.2699C309.32 30.2899 309.29 30.3199 309.27 30.3399C309.25 30.3599 309.23 30.3799 309.21 30.3999C309.19 30.4199 309.16 30.4399 309.13 30.4699C309.11 30.4899 309.09 30.5199 309.08 30.5299C309.05 30.5599 309.03 30.5799 309 30.5999C308.98 30.6199 308.96 30.6499 308.94 30.6699C308.92 30.6899 308.89 30.7099 308.86 30.7399C308.84 30.7599 308.83 30.7799 308.81 30.7999C308.78 30.8299 308.76 30.8499 308.74 30.8699C308.72 30.8899 308.7 30.9099 308.68 30.9299C308.66 30.9499 308.63 30.9799 308.6 30.9999C308.58 31.0299 308.55 31.0499 308.54 31.0699C308.52 31.0899 308.49 31.1099 308.47 31.1399C308.46 31.1599 308.44 31.1799 308.42 31.1999C308.4 31.2199 308.37 31.2399 308.34 31.2699C308.32 31.2899 308.3 31.3199 308.29 31.3299C308.26 31.3599 308.24 31.3799 308.21 31.3999C308.19 31.4199 308.17 31.4499 308.15 31.4699C308.13 31.4899 308.1 31.5099 308.08 31.5399C308.06 31.5599 308.05 31.5799 308.03 31.5999C308 31.6299 307.98 31.6499 307.96 31.6699C307.94 31.6899 307.92 31.7099 307.9 31.7299C307.88 31.7499 307.85 31.7799 307.82 31.7999C307.8 31.8299 307.78 31.8499 307.76 31.8699C307.74 31.8899 307.71 31.9099 307.69 31.9299C307.67 31.9499 307.65 31.9799 307.63 31.9999C307.61 32.0199 307.59 32.0399 307.56 32.0699C307.54 32.0999 307.51 32.1299 307.49 32.1399C307.47 32.1599 307.45 32.1799 307.43 32.1999C307.41 32.2199 307.39 32.2499 307.37 32.2699C307.35 32.2899 307.32 32.3099 307.3 32.3399C307.28 32.3599 307.27 32.3799 307.25 32.3999C307.22 32.4299 307.2 32.4499 307.17 32.4699C307.15 32.4999 307.12 32.5299 307.09 32.5499C307.08 32.5599 307.06 32.5799 307.03 32.5999C307.01 32.6299 306.93 32.6999 306.92 32.7199C307.19 32.9199 307.44 33.1199 307.69 33.3199C307.96 33.5399 308.18 33.7199 308.39 33.8999C308.58 34.0599 308.76 34.2299 308.93 34.3899L309.02 34.4699C310.67 36.0199 312.04 37.8599 313.08 39.9599C314.52 42.8499 315.25 45.7799 315.25 48.6799C315.25 49.3099 315.22 49.7699 315.16 50.0699C314.96 51.2899 314.4 52.7999 313.47 54.6399C312.55 56.4399 311.61 57.9099 310.66 59.0098C310.33 59.3798 310 59.7299 309.65 60.0699L303.03 66.6899C300.75 68.9799 297.79 70.7299 294.26 71.9099C292.28 72.5699 289.45 72.8899 285.59 72.8899H283.73C281.06 72.8899 278.89 72.6099 277.27 72.0499C274.18 71.0699 271.35 69.4999 268.88 67.4099C266.41 65.3099 264.47 62.8299 263.13 60.0599C262.15 58.0399 261.49 56.1399 261.16 54.3799C260.93 54.6299 260.71 54.8599 260.49 55.0799L259.7 55.8799L258.95 55.3599L259.58 55.9899C259.58 55.9899 253.73 61.8399 253.72 61.8399C253.49 62.0699 253.25 62.2999 253 62.5299C251.18 64.1999 249.15 65.4999 246.97 66.3899C244.17 67.5199 240.36 68.3399 235.63 68.8099C233.99 68.9599 232.47 69.0299 231.11 69.0299C229.1 69.0299 227.35 68.8699 225.91 68.5599C223.42 68.0199 221.15 66.8299 219.16 65.0299C217.42 63.4399 215.96 61.5799 214.8 59.4899C213.66 57.4299 212.53 54.5699 211.43 50.9799C210.79 48.7199 210.25 45.1499 209.82 40.3599C209.8 40.1099 209.78 39.8599 209.76 39.6199C209.61 39.7999 209.46 39.9699 209.3 40.1399C209.18 40.2699 209.05 40.4099 208.92 40.5399L208.71 40.7499C208.62 40.8499 208.52 40.9499 208.42 41.0499L205.63 43.8499L204.92 43.2999L205.55 43.9299L202.68 46.7999L201.97 46.2399L202.6 46.8699L201.87 46.3399L202.5 46.9699L201.73 47.7399C200.32 49.1399 198.77 50.3899 197.08 51.4699C194.97 52.8199 192.78 53.8499 190.56 54.5299L190.54 54.5999C190.39 55.3099 190.22 55.9799 190.04 56.5899C189.95 56.8999 189.85 57.1999 189.75 57.4899C189.55 58.0699 189.32 58.6099 189.09 59.0899C188.97 59.3399 188.84 59.5698 188.71 59.7898C188.45 60.2398 188.16 60.6399 187.86 60.9899C187.83 61.0199 187.76 61.0899 187.73 61.1199C187.69 61.1698 187.65 61.2099 187.6 61.2499C187.6 61.2599 187.59 61.2598 187.59 61.2598C187.56 61.2898 187.49 61.3598 187.45 61.3998C187.39 61.4698 187.35 61.4998 187.31 61.5398C187.27 61.5798 187.19 61.6599 187.19 61.6699C187.15 61.7199 187.1 61.7699 187.04 61.8099C187.04 61.8099 186.95 61.9098 186.92 61.9298C186.87 61.9898 186.83 62.0199 186.8 62.0499C186.8 62.0599 186.79 62.0599 186.79 62.0599C186.76 62.0899 186.69 62.1599 186.65 62.1899C186.59 62.2599 186.55 62.2899 186.51 62.3299C186.47 62.3699 186.37 62.4699 186.36 62.4799C186.35 62.4999 186.29 62.5499 186.24 62.5999C186.21 62.6299 186.15 62.6899 186.12 62.7199C186.07 62.7799 186.03 62.8099 186 62.8399C185.99 62.8498 185.88 62.9599 185.86 62.9799C185.8 63.0499 185.76 63.0798 185.72 63.1199C185.68 63.1599 185.58 63.2599 185.58 63.2699C185.56 63.2899 185.51 63.3399 185.46 63.3899C185.46 63.3899 185.36 63.4899 185.33 63.5199C185.28 63.5799 185.24 63.6099 185.21 63.6399C185.2 63.6499 185.09 63.7599 185.06 63.7799C185 63.8499 184.96 63.8799 184.92 63.9199C184.92 63.9199 184.79 64.0599 184.78 64.0699C184.77 64.0899 184.72 64.1299 184.67 64.1699C184.67 64.1699 184.56 64.2799 184.52 64.3099C184.47 64.3699 184.44 64.3998 184.4 64.4298C184.39 64.4398 184.26 64.5699 184.26 64.5799C184.22 64.6199 184.17 64.6699 184.12 64.7099C184.08 64.7499 183.98 64.8499 183.97 64.8599C183.96 64.8799 183.9 64.9299 183.85 64.9799C183.85 64.9799 183.75 65.0799 183.72 65.1099C183.66 65.1799 183.62 65.2199 183.58 65.2499C183.55 65.2799 183.46 65.3699 183.46 65.3799C183.42 65.4199 183.37 65.4699 183.32 65.5199C183.32 65.5199 183.2 65.6398 183.19 65.6498C183.16 65.6798 183.12 65.7199 183.07 65.7699C183.07 65.7799 183.06 65.7799 183.06 65.7799C183.03 65.8099 182.96 65.8799 182.92 65.9199C182.87 65.9799 182.84 66.0098 182.8 66.0398C182.79 66.0499 182.66 66.1798 182.66 66.1798C182.62 66.2299 182.57 66.2799 182.51 66.3199C182.51 66.3199 182.42 66.4199 182.39 66.4399C182.34 66.4999 182.3 66.5299 182.27 66.5599L182.26 66.5699C182.23 66.5999 182.16 66.6699 182.12 66.7099C182.06 66.7799 182.02 66.8099 181.98 66.8499C181.94 66.8899 181.86 66.9698 181.86 66.9799C181.82 67.0299 181.77 67.0798 181.71 67.1199C181.71 67.1199 181.62 67.2199 181.59 67.2399C181.54 67.2999 181.5 67.3298 181.47 67.3699C181.46 67.3799 181.36 67.4899 181.33 67.5098C181.27 67.5798 181.23 67.6098 181.19 67.6498C181.15 67.6898 181.05 67.7899 181.04 67.7999C179.88 69.1399 178.04 70.1299 175.59 70.6999C174.75 70.9299 173.73 71.0398 172.59 71.0398C171.9 71.0398 171.16 70.9999 170.37 70.9099C169.16 70.7799 168.05 70.5299 167.06 70.1699C163.03 68.5699 161.05 64.7999 161.16 58.9499C161.2 57.0499 161.33 54.4699 161.58 51.2299C161.37 51.5799 161.15 51.9199 160.92 52.2599C160.84 52.3799 160.75 52.5099 160.66 52.6299C160.39 53.0099 160.15 53.3299 159.91 53.6399C159.76 53.8299 159.65 53.9699 159.54 54.0999C159.24 54.4499 158.93 54.7999 158.62 55.1399L158.12 55.6699L151.89 61.8998C151.66 62.1298 151.47 62.3199 151.27 62.4999L150.85 62.9099C150.65 63.1099 150.45 63.2999 150.24 63.4899C148.02 65.4199 145.86 66.7999 143.8 67.5899C141.75 68.3699 138.97 68.8699 135.53 69.0799C134.7 69.1299 133.92 69.1498 133.21 69.1498C132.56 69.1498 131.95 69.1299 131.39 69.0899C130.12 68.9999 128.7 68.8099 127.15 68.5098C124.17 67.9099 122.28 67.4399 121.34 67.0699C117.87 65.5399 115.02 63.4099 112.84 60.7199C112.77 60.8299 112.69 60.9398 112.61 61.0398C112.3 61.4598 111.94 61.8499 111.53 62.2499L111.43 62.3499C111.06 62.6899 110.65 63.0099 110.19 63.3099L110.08 63.3799C109.64 63.6599 109.15 63.9099 108.64 64.1199C108.23 64.2898 107.83 64.4199 107.44 64.5299C107.1 65.7399 106.57 66.8299 105.85 67.7999C104.34 69.8299 102.18 71.0999 99.45 71.5799C99.16 71.6499 98.71 71.6999 98.14 71.7299C97.98 71.7399 97.83 71.7399 97.67 71.7399C94.55 71.7399 90.95 70.0199 86.67 66.4799C86.38 66.2498 86.1 66.0299 85.85 65.8299C85.62 65.9399 85.39 66.0399 85.15 66.1299C84.94 66.2199 84.72 66.2999 84.49 66.3799C84.35 66.7799 84.19 67.2098 83.99 67.6798C82.19 71.6498 78.25 73.8199 72.29 74.1699L71.65 74.2099C71.22 74.2099 70.85 74.2099 70.49 74.2099ZM266.7 39.8099C266.62 40.7399 266.52 41.6199 266.41 42.4599L267.89 40.9799C267.47 40.5899 267.07 40.1999 266.7 39.8099ZM33.44 34.4199L33.41 34.7599L33.39 35.1099C33.38 35.3799 33.37 35.6499 33.37 35.9399C33.37 37.6899 33.6 39.1099 34.06 40.1799L37.75 36.4899C37.36 36.1999 36.98 35.8799 36.62 35.5199C35.22 33.9999 34.71 33.9199 34.67 33.9199C34.3 33.9199 33.91 33.9699 33.49 34.0799C33.47 34.1899 33.46 34.3099 33.44 34.4199ZM55.07 32.2299C55.38 32.2799 55.65 32.3399 55.91 32.3999C55.9 31.8499 55.89 31.2899 55.9 30.7099L54.47 32.1399C54.68 32.1699 54.88 32.1999 55.07 32.2299Z" fill="black"/>
<path d="M188.45 2.05996C188.52 2.05996 188.58 2.05996 188.65 2.05996C189.19 2.05996 189.73 2.07996 190.28 2.10996C190.82 2.13996 191.37 2.17996 191.92 2.23996C193.16 2.36996 194.34 2.55996 195.49 2.79996C196.06 2.91996 196.62 3.05996 197.17 3.19996C198.27 3.49996 199.32 3.84996 200.32 4.25996C201.83 4.86996 203.23 5.59996 204.52 6.45996C205.74 7.20996 207.14 8.49996 208.72 10.33C210.3 12.16 211.46 13.76 212.17 15.13C212.33 15.46 212.48 15.82 212.63 16.19C212.72 16.41 212.8 16.64 212.88 16.87C212.93 17.01 212.99 17.15 213.04 17.3C213.15 17.61 213.25 17.94 213.35 18.28C213.37 18.34 213.38 18.4 213.4 18.45C213.51 18.84 213.62 19.24 213.73 19.65C214.27 18.91 214.92 18.17 215.66 17.45C215.69 17.42 215.72 17.39 215.76 17.36C215.8 17.32 215.85 17.27 215.89 17.23C215.93 17.19 215.98 17.14 216.02 17.1C216.06 17.06 216.11 17.01 216.15 16.97C216.19 16.93 216.24 16.88 216.28 16.84C216.32 16.8 216.37 16.75 216.41 16.71C216.45 16.67 216.5 16.62 216.54 16.58C216.58 16.54 216.63 16.49 216.67 16.45C216.71 16.41 216.76 16.36 216.8 16.32C216.84 16.28 216.89 16.23 216.93 16.19C216.97 16.15 217.02 16.1 217.06 16.06C217.1 16.02 217.15 15.97 217.19 15.93C217.23 15.89 217.28 15.84 217.32 15.8C217.36 15.76 217.41 15.71 217.45 15.67C217.49 15.63 217.54 15.58 217.58 15.54C217.62 15.5 217.67 15.45 217.71 15.41C217.75 15.37 217.8 15.32 217.84 15.28C217.88 15.24 217.93 15.19 217.97 15.15C218.01 15.11 218.06 15.06 218.1 15.02C218.14 14.98 218.19 14.93 218.23 14.89C218.27 14.85 218.32 14.8 218.36 14.76C218.4 14.72 218.45 14.67 218.49 14.63C218.53 14.59 218.58 14.54 218.62 14.5C218.66 14.46 218.71 14.41 218.75 14.37C218.79 14.33 218.84 14.28 218.88 14.24C218.92 14.2 218.97 14.15 219.01 14.11C219.05 14.07 219.1 14.02 219.14 13.98C219.18 13.94 219.23 13.89 219.27 13.85C219.31 13.81 219.36 13.76 219.4 13.72C219.44 13.68 219.49 13.63 219.53 13.59C219.57 13.55 219.62 13.5 219.66 13.46C219.7 13.42 219.75 13.37 219.79 13.33C219.83 13.29 219.88 13.24 219.92 13.2C219.96 13.16 220.01 13.11 220.05 13.07C220.09 13.03 220.14 12.98 220.18 12.94C220.22 12.9 220.27 12.85 220.31 12.81C220.35 12.77 220.4 12.72 220.44 12.68C220.48 12.64 220.53 12.59 220.57 12.55C220.61 12.51 220.66 12.46 220.7 12.42C220.74 12.38 220.79 12.33 220.83 12.29C220.87 12.25 220.92 12.2 220.96 12.16C221 12.12 221.05 12.07 221.09 12.03C221.13 11.99 221.18 11.94 221.22 11.9C221.26 11.86 221.31 11.81 221.35 11.77C221.39 11.73 221.44 11.68 221.48 11.64C221.52 11.6 221.57 11.55 221.61 11.51C221.65 11.47 221.7 11.42 221.74 11.38C221.78 11.34 221.83 11.29 221.87 11.25C221.91 11.21 221.95 11.17 222 11.12C222.26 10.86 222.53 10.59 222.82 10.33C222.83 10.32 222.85 10.3 222.86 10.29C223.16 10.02 223.46 9.75996 223.79 9.48996C223.79 9.48996 223.79 9.48997 223.8 9.47997C225.51 8.08997 227.3 6.98996 229.17 6.18996C229.79 5.91996 230.43 5.68996 231.07 5.48996C232.84 4.94996 235.04 4.55996 237.66 4.32996C239.02 4.20996 240.26 4.14996 241.38 4.14996C241.49 4.14996 241.6 4.14996 241.71 4.14996C242.31 4.15996 242.87 4.17996 243.4 4.21996C243.93 4.25996 244.41 4.31996 244.86 4.39996C245.37 4.49996 245.87 4.60996 246.36 4.73996C248.82 5.37996 251.11 6.37996 253.23 7.73996C254.08 8.28996 254.89 8.88997 255.68 9.54996C256.13 9.91996 256.58 10.32 257.01 10.75C257.44 11.18 257.87 11.65 258.29 12.14C259.12 13.13 259.92 14.26 260.68 15.51C260.68 15.51 260.68 15.51 260.68 15.52C261 16.06 261.3 16.61 261.59 17.16C261.73 17.42 261.85 17.68 261.98 17.94C262.12 18.21 262.25 18.49 262.38 18.76C262.54 19.11 262.7 19.46 262.85 19.81C262.92 19.97 262.99 20.14 263.06 20.31C263.23 20.73 263.4 21.14 263.56 21.57C264.21 20.33 265.06 19.14 266.14 18C266.18 17.96 266.22 17.92 266.26 17.88L266.27 17.87C266.31 17.83 266.35 17.79 266.39 17.75L266.4 17.74C266.44 17.7 266.48 17.66 266.52 17.62L266.53 17.61C266.57 17.57 266.61 17.53 266.65 17.49L266.66 17.48C266.7 17.44 266.74 17.4 266.78 17.36L266.79 17.35C266.83 17.31 266.87 17.27 266.91 17.23L266.92 17.22C266.96 17.18 267 17.14 267.04 17.1L267.05 17.09C267.09 17.05 267.13 17.01 267.17 16.97L267.18 16.96C267.22 16.92 267.26 16.88 267.3 16.84L267.31 16.83C267.35 16.79 267.39 16.75 267.43 16.71L267.44 16.7C267.48 16.66 267.52 16.62 267.56 16.58L267.57 16.57C267.61 16.53 267.65 16.49 267.69 16.45L267.7 16.44C267.74 16.4 267.78 16.36 267.82 16.32L267.83 16.31C267.87 16.27 267.91 16.23 267.95 16.19L267.96 16.18C268 16.14 268.04 16.1 268.08 16.06L268.09 16.05C268.13 16.01 268.17 15.97 268.21 15.93L268.22 15.92C268.26 15.88 268.3 15.84 268.34 15.8L268.35 15.79C268.39 15.75 268.43 15.71 268.47 15.67L268.48 15.66C268.52 15.62 268.56 15.58 268.6 15.54L268.61 15.53C268.65 15.49 268.69 15.45 268.73 15.41L268.74 15.4C268.78 15.36 268.82 15.32 268.86 15.28L268.87 15.27C268.91 15.23 268.95 15.19 268.99 15.15L269 15.14C269.04 15.1 269.08 15.06 269.12 15.02L269.13 15.01C269.17 14.97 269.21 14.93 269.25 14.89L269.26 14.88C269.3 14.84 269.34 14.8 269.38 14.76L269.39 14.75C269.43 14.71 269.47 14.67 269.51 14.63L269.52 14.62C269.56 14.58 269.6 14.54 269.64 14.5L269.65 14.49C269.69 14.45 269.73 14.41 269.77 14.37L269.78 14.36C269.82 14.32 269.86 14.28 269.9 14.24L269.91 14.23C269.95 14.19 269.99 14.15 270.03 14.11L270.04 14.1C270.08 14.06 270.12 14.02 270.16 13.98L270.17 13.97C270.21 13.93 270.25 13.89 270.29 13.85L270.3 13.84C270.34 13.8 270.38 13.76 270.42 13.72L270.43 13.71C270.47 13.67 270.51 13.63 270.55 13.59L270.56 13.58C270.6 13.54 270.64 13.5 270.68 13.46L270.69 13.45C270.73 13.41 270.77 13.37 270.81 13.33L270.82 13.32C270.86 13.28 270.9 13.24 270.94 13.2L270.95 13.19C270.99 13.15 271.03 13.11 271.07 13.07L271.08 13.06C271.12 13.02 271.16 12.98 271.2 12.94L271.21 12.93C271.25 12.89 271.29 12.85 271.33 12.81L271.34 12.8C271.38 12.76 271.42 12.72 271.46 12.68L271.47 12.67C271.51 12.63 271.55 12.59 271.59 12.55L271.6 12.54C271.64 12.5 271.68 12.46 271.72 12.42L271.73 12.41C271.77 12.37 271.81 12.33 271.85 12.29L271.86 12.28C271.9 12.24 271.94 12.2 271.98 12.16L271.99 12.15C272.03 12.11 272.07 12.07 272.11 12.03L272.12 12.02C272.16 11.98 272.2 11.94 272.24 11.9L272.25 11.89C272.29 11.85 272.33 11.81 272.37 11.77L272.38 11.76C272.42 11.72 272.46 11.68 272.5 11.64L272.51 11.63C272.55 11.59 272.59 11.55 272.63 11.51L272.64 11.5C272.68 11.46 272.72 11.42 272.76 11.38L272.77 11.37C274.35 9.69996 275.97 8.41996 277.64 7.53996C279.31 6.65996 281.44 5.94996 284.02 5.42996C285.02 5.18996 286.55 5.06996 288.61 5.06996C291.57 5.06996 293.96 5.32996 295.78 5.85996C299.7 7.00996 303.09 9.08996 305.96 12.1C308.83 15.11 310.57 18.46 311.19 22.14C311.33 22.95 311.4 23.67 311.4 24.29C311.4 26.06 310.8 27.54 309.61 28.73C309.59 28.75 309.56 28.77 309.53 28.79C309.51 28.81 309.49 28.84 309.47 28.86C309.45 28.88 309.42 28.9 309.39 28.92C309.37 28.94 309.35 28.97 309.33 28.99C309.31 29.01 309.28 29.03 309.25 29.05C309.23 29.07 309.21 29.1 309.19 29.12C309.17 29.14 309.14 29.16 309.11 29.18C309.09 29.2 309.07 29.23 309.05 29.25C309.03 29.27 309 29.29 308.97 29.31C308.95 29.33 308.93 29.36 308.91 29.38C308.89 29.4 308.86 29.42 308.83 29.44C308.81 29.46 308.79 29.49 308.77 29.51C308.75 29.53 308.72 29.55 308.69 29.57C308.67 29.59 308.65 29.62 308.63 29.64C308.61 29.66 308.58 29.68 308.55 29.7C308.53 29.72 308.51 29.75 308.49 29.77C308.47 29.79 308.44 29.81 308.41 29.83C308.39 29.85 308.37 29.88 308.35 29.9C308.33 29.92 308.3 29.94 308.27 29.96C308.25 29.98 308.23 30.01 308.21 30.03C308.19 30.05 308.16 30.07 308.13 30.09C308.11 30.11 308.09 30.14 308.07 30.16C308.05 30.18 308.02 30.2 307.99 30.22C307.97 30.24 307.95 30.27 307.93 30.29C307.91 30.31 307.88 30.33 307.85 30.35C307.83 30.37 307.81 30.4 307.79 30.42C307.77 30.44 307.74 30.46 307.71 30.48C307.69 30.5 307.67 30.53 307.65 30.55C307.63 30.57 307.6 30.59 307.57 30.61C307.55 30.63 307.53 30.66 307.51 30.68C307.49 30.7 307.46 30.72 307.43 30.74C307.41 30.76 307.39 30.79 307.37 30.81C307.35 30.83 307.32 30.85 307.29 30.87C307.27 30.89 307.25 30.92 307.23 30.94C307.21 30.96 307.18 30.98 307.15 31C307.13 31.02 307.11 31.05 307.09 31.07C307.07 31.09 307.04 31.11 307.01 31.13C306.99 31.15 306.97 31.18 306.95 31.2C306.93 31.22 306.9 31.24 306.87 31.26C306.85 31.28 306.83 31.31 306.81 31.33C306.79 31.35 306.76 31.37 306.73 31.39C306.71 31.41 306.69 31.44 306.67 31.46C306.65 31.48 306.62 31.5 306.59 31.52C306.57 31.54 306.55 31.57 306.53 31.59C306.51 31.61 306.48 31.63 306.45 31.65C306.43 31.67 306.41 31.7 306.39 31.72C306.37 31.74 306.34 31.76 306.31 31.78C306.29 31.8 306.27 31.83 306.25 31.85C306.23 31.87 306.2 31.89 306.17 31.91C306.15 31.93 306.13 31.96 306.11 31.98C306.09 32 306.06 32.02 306.03 32.04C306.01 32.06 305.99 32.09 305.97 32.11C305.95 32.13 305.92 32.15 305.89 32.17C305.87 32.19 305.85 32.22 305.83 32.24C305.81 32.26 305.78 32.28 305.75 32.3C305.73 32.32 305.71 32.35 305.69 32.37C305.67 32.39 305.64 32.41 305.61 32.43C305.59 32.45 305.57 32.48 305.55 32.5C305.53 32.52 305.5 32.54 305.47 32.56C305.45 32.58 305.43 32.61 305.41 32.63C305.39 32.65 305.36 32.67 305.33 32.69C305.31 32.71 305.29 32.74 305.27 32.76C305.25 32.78 305.22 32.8 305.19 32.82C305.17 32.84 305.15 32.87 305.13 32.89C305.11 32.91 305.08 32.93 305.05 32.95C305.03 32.97 305.02 32.99 305 33.01L305.01 33.02C305.58 33.43 306.1 33.82 306.57 34.2C306.58 34.21 306.6 34.22 306.61 34.23C306.83 34.41 307.05 34.59 307.25 34.76C307.43 34.92 307.6 35.07 307.77 35.23C307.8 35.26 307.83 35.29 307.86 35.31C309.44 36.79 310.73 38.54 311.73 40.54C313.11 43.31 313.81 46.08 313.81 48.85C313.81 49.42 313.79 49.83 313.74 50.07C313.55 51.22 313.01 52.66 312.13 54.41C311.25 56.15 310.35 57.55 309.44 58.6C309.44 58.6 309.44 58.6 309.43 58.61C309.13 58.96 308.81 59.29 308.48 59.61C308.44 59.65 308.39 59.7 308.35 59.74C308.31 59.78 308.26 59.83 308.22 59.87C308.18 59.91 308.13 59.96 308.09 60C308.05 60.04 308 60.09 307.96 60.13C307.92 60.17 307.87 60.22 307.83 60.26C307.79 60.3 307.74 60.35 307.7 60.39C307.66 60.43 307.61 60.48 307.57 60.52C307.53 60.56 307.48 60.61 307.44 60.65C307.4 60.69 307.35 60.74 307.31 60.78C307.27 60.82 307.22 60.87 307.18 60.91C307.14 60.95 307.09 61 307.05 61.04C307.01 61.08 306.96 61.13 306.92 61.17C306.88 61.21 306.83 61.26 306.79 61.3C306.75 61.34 306.7 61.39 306.66 61.43C306.62 61.47 306.57 61.52 306.53 61.56C306.49 61.6 306.44 61.65 306.4 61.69C306.36 61.73 306.31 61.78 306.27 61.82C306.23 61.86 306.18 61.91 306.14 61.95C306.1 61.99 306.05 62.04 306.01 62.08C305.97 62.12 305.92 62.17 305.88 62.21C305.84 62.25 305.79 62.3 305.75 62.34C305.71 62.38 305.66 62.43 305.62 62.47C305.58 62.51 305.53 62.56 305.49 62.6C305.45 62.64 305.4 62.69 305.36 62.73C305.32 62.77 305.27 62.82 305.23 62.86C305.19 62.9 305.14 62.95 305.1 62.99C305.06 63.03 305.01 63.08 304.97 63.12C304.93 63.16 304.88 63.21 304.84 63.25C304.8 63.29 304.75 63.34 304.71 63.38C304.67 63.42 304.62 63.47 304.58 63.51C304.54 63.55 304.49 63.6 304.45 63.64C304.41 63.68 304.36 63.73 304.32 63.77C304.28 63.81 304.23 63.86 304.19 63.9C304.15 63.94 304.1 63.99 304.06 64.03C304.02 64.07 303.97 64.12 303.93 64.16C303.89 64.2 303.84 64.25 303.8 64.29C303.76 64.33 303.71 64.38 303.67 64.42C303.63 64.46 303.58 64.51 303.54 64.55C303.5 64.59 303.45 64.64 303.41 64.68C303.37 64.72 303.32 64.77 303.28 64.81C303.24 64.85 303.19 64.9 303.15 64.94C303.11 64.98 303.06 65.03 303.02 65.07C302.98 65.11 302.93 65.16 302.89 65.2C302.85 65.24 302.8 65.29 302.76 65.33C302.72 65.37 302.67 65.42 302.63 65.46C302.59 65.5 302.54 65.55 302.5 65.59C302.46 65.63 302.41 65.68 302.37 65.72C302.33 65.76 302.28 65.81 302.24 65.85C302.2 65.89 302.15 65.94 302.11 65.98C302.07 66.02 302.02 66.07 301.98 66.11C299.79 68.3 296.98 69.97 293.56 71.11C291.7 71.73 288.9 72.04 285.17 72.04H283.31C280.73 72.04 278.67 71.78 277.14 71.25C274.13 70.29 271.43 68.8 269.04 66.77C266.65 64.74 264.81 62.39 263.52 59.71C262.16 56.9 261.46 54.4 261.38 52.2C261.33 52.27 261.27 52.34 261.22 52.41C260.92 52.81 260.62 53.21 260.28 53.6L260.27 53.61C260 53.92 259.72 54.21 259.43 54.5C259.37 54.56 259.31 54.62 259.25 54.68C259.21 54.72 259.16 54.77 259.12 54.81C259.08 54.85 259.03 54.9 258.99 54.94C258.95 54.98 258.9 55.03 258.86 55.07C258.82 55.12 258.77 55.16 258.73 55.2C258.69 55.24 258.64 55.29 258.6 55.33C258.56 55.37 258.51 55.42 258.47 55.46C258.43 55.5 258.38 55.55 258.34 55.59C258.3 55.63 258.25 55.68 258.21 55.72C258.17 55.77 258.12 55.81 258.08 55.85C258.04 55.9 257.99 55.94 257.95 55.98C257.91 56.02 257.86 56.07 257.82 56.11C257.78 56.15 257.73 56.2 257.69 56.24C257.65 56.28 257.6 56.33 257.56 56.37C257.52 56.41 257.47 56.46 257.43 56.5C257.39 56.55 257.34 56.59 257.3 56.63C257.26 56.67 257.21 56.72 257.17 56.76C257.13 56.8 257.08 56.85 257.04 56.89C257 56.93 256.95 56.98 256.91 57.02C256.87 57.07 256.82 57.11 256.78 57.15C256.74 57.2 256.69 57.24 256.65 57.28C256.61 57.32 256.56 57.37 256.52 57.41C256.48 57.45 256.43 57.5 256.39 57.54C256.35 57.58 256.3 57.63 256.26 57.67C256.22 57.71 256.17 57.76 256.13 57.8C256.09 57.85 256.04 57.89 256 57.93C255.96 57.97 255.91 58.02 255.87 58.06C255.83 58.1 255.78 58.15 255.74 58.19C255.7 58.23 255.65 58.28 255.61 58.32C255.57 58.36 255.52 58.41 255.48 58.45C255.44 58.5 255.39 58.54 255.35 58.58C255.31 58.62 255.26 58.67 255.22 58.71C255.18 58.75 255.13 58.8 255.09 58.84C255.05 58.88 255 58.93 254.96 58.97C254.92 59.01 254.87 59.06 254.83 59.1C254.79 59.15 254.74 59.19 254.7 59.23C254.66 59.27 254.61 59.32 254.57 59.36C254.53 59.4 254.48 59.45 254.44 59.49C254.4 59.53 254.35 59.58 254.31 59.62C254.27 59.66 254.22 59.71 254.18 59.75C254.14 59.8 254.09 59.84 254.05 59.88C254.01 59.92 253.96 59.97 253.92 60.01C253.88 60.05 253.83 60.1 253.79 60.14C253.75 60.18 253.7 60.23 253.66 60.27C253.62 60.31 253.57 60.36 253.53 60.4C253.49 60.44 253.44 60.49 253.4 60.53C253.36 60.57 253.31 60.62 253.27 60.66C253.23 60.7 253.18 60.75 253.14 60.79C253.1 60.83 253.05 60.88 253.01 60.92C252.95 60.98 252.89 61.04 252.83 61.1C252.82 61.11 252.8 61.12 252.79 61.14C252.56 61.37 252.33 61.59 252.1 61.8C250.35 63.41 248.43 64.64 246.34 65.49C243.61 66.6 239.91 67.38 235.25 67.84C233.64 67.98 232.16 68.05 230.82 68.05C228.87 68.05 227.2 67.9 225.8 67.6C223.45 67.09 221.34 65.98 219.46 64.28C217.79 62.75 216.4 60.98 215.28 58.97C214.17 56.96 213.07 54.18 211.98 50.63C211.35 48.43 210.83 44.95 210.4 40.19C210.3 39.09 210.23 38.09 210.17 37.18C209.88 37.58 209.59 37.96 209.28 38.34C209.28 38.35 209.27 38.35 209.27 38.36C208.97 38.73 208.65 39.1 208.32 39.45C208.18 39.6 208.04 39.75 207.89 39.9C207.75 40.04 207.62 40.19 207.48 40.33C207.42 40.39 207.36 40.46 207.29 40.52C207.25 40.56 207.2 40.61 207.16 40.65C207.12 40.69 207.07 40.74 207.03 40.78C206.99 40.82 206.94 40.87 206.9 40.91C206.86 40.95 206.81 41 206.77 41.04C206.73 41.08 206.68 41.13 206.64 41.17C206.6 41.21 206.55 41.26 206.51 41.3C206.47 41.34 206.42 41.39 206.38 41.43C206.34 41.47 206.29 41.52 206.25 41.56C206.21 41.6 206.16 41.65 206.12 41.69C206.08 41.73 206.03 41.78 205.99 41.82C205.95 41.86 205.9 41.91 205.86 41.95C205.82 41.99 205.77 42.04 205.73 42.08C205.69 42.12 205.64 42.17 205.6 42.21C205.56 42.25 205.51 42.3 205.47 42.34C205.43 42.38 205.38 42.43 205.34 42.47C205.3 42.51 205.25 42.56 205.21 42.6C205.17 42.64 205.12 42.69 205.08 42.73C205.04 42.77 204.99 42.82 204.95 42.86C204.91 42.9 204.86 42.95 204.82 42.99C204.78 43.03 204.73 43.08 204.69 43.12C204.65 43.16 204.6 43.21 204.56 43.25C204.52 43.29 204.47 43.34 204.43 43.38C204.39 43.42 204.34 43.47 204.3 43.51C204.26 43.55 204.21 43.6 204.17 43.64C204.13 43.68 204.08 43.73 204.04 43.77C204 43.81 203.95 43.86 203.91 43.9C203.87 43.94 203.82 43.99 203.78 44.03C203.74 44.07 203.69 44.12 203.65 44.16C203.61 44.2 203.56 44.25 203.52 44.29C203.48 44.33 203.43 44.38 203.39 44.42C203.35 44.46 203.3 44.51 203.26 44.55C203.22 44.59 203.17 44.64 203.13 44.68C203.09 44.72 203.04 44.77 203 44.81C202.96 44.85 202.91 44.9 202.87 44.94C202.83 44.98 202.78 45.03 202.74 45.07C202.7 45.11 202.65 45.16 202.61 45.2C202.57 45.24 202.52 45.29 202.48 45.33C202.44 45.37 202.39 45.42 202.35 45.46C202.31 45.5 202.26 45.55 202.22 45.59C202.18 45.63 202.13 45.68 202.09 45.72C202.05 45.76 202 45.81 201.96 45.85C201.92 45.89 201.87 45.94 201.83 45.98C201.79 46.02 201.74 46.07 201.7 46.11C201.66 46.15 201.61 46.2 201.57 46.24C201.53 46.28 201.48 46.33 201.44 46.37C201.4 46.41 201.35 46.46 201.31 46.5C201.27 46.54 201.22 46.59 201.18 46.63C201.14 46.67 201.09 46.72 201.05 46.76C200.99 46.82 200.92 46.88 200.86 46.95C199.53 48.27 198.05 49.46 196.4 50.52C194.17 51.95 191.91 52.98 189.6 53.62C189.57 53.74 189.55 53.84 189.53 53.95C189.51 54.03 189.49 54.13 189.48 54.2C189.33 54.89 189.17 55.54 189 56.14C188.91 56.44 188.82 56.72 188.72 57C188.53 57.55 188.32 58.05 188.1 58.5C187.99 58.73 187.87 58.94 187.76 59.14C187.52 59.54 187.27 59.9 187 60.21C186.98 60.24 186.95 60.26 186.92 60.28C186.91 60.29 186.9 60.3 186.89 60.31C186.88 60.32 186.87 60.33 186.87 60.34C186.84 60.38 186.79 60.41 186.76 60.44C186.75 60.45 186.74 60.46 186.74 60.47C186.71 60.51 186.66 60.54 186.63 60.57C186.62 60.58 186.61 60.59 186.61 60.6C186.58 60.64 186.53 60.67 186.5 60.7C186.49 60.71 186.48 60.72 186.48 60.73C186.45 60.77 186.4 60.8 186.37 60.83C186.36 60.84 186.35 60.85 186.35 60.86C186.32 60.9 186.27 60.93 186.24 60.96C186.23 60.97 186.22 60.98 186.22 60.99C186.19 61.03 186.14 61.06 186.11 61.09C186.1 61.1 186.09 61.11 186.09 61.12C186.06 61.16 186.01 61.19 185.98 61.22C185.97 61.23 185.96 61.24 185.96 61.25C185.93 61.29 185.88 61.32 185.85 61.35C185.84 61.36 185.83 61.37 185.83 61.38C185.8 61.42 185.75 61.45 185.72 61.48C185.71 61.49 185.7 61.5 185.7 61.51C185.67 61.55 185.62 61.58 185.59 61.61C185.58 61.62 185.57 61.63 185.57 61.64C185.54 61.68 185.49 61.71 185.46 61.74C185.45 61.75 185.44 61.76 185.44 61.77C185.41 61.81 185.36 61.84 185.33 61.87C185.32 61.88 185.31 61.89 185.31 61.9C185.28 61.94 185.23 61.97 185.2 62C185.19 62.01 185.18 62.02 185.18 62.03C185.15 62.07 185.1 62.1 185.07 62.13C185.06 62.14 185.05 62.15 185.05 62.16C185.02 62.2 184.97 62.23 184.94 62.26C184.93 62.27 184.92 62.28 184.92 62.29C184.89 62.33 184.84 62.36 184.81 62.39C184.8 62.4 184.79 62.41 184.79 62.42C184.76 62.46 184.71 62.49 184.68 62.52C184.67 62.53 184.66 62.54 184.66 62.55C184.63 62.59 184.58 62.62 184.55 62.65C184.54 62.66 184.53 62.67 184.53 62.68C184.5 62.72 184.45 62.75 184.42 62.78C184.41 62.79 184.4 62.8 184.4 62.81C184.37 62.85 184.32 62.88 184.29 62.91C184.28 62.92 184.27 62.93 184.27 62.94C184.24 62.98 184.19 63.01 184.16 63.04C184.15 63.05 184.14 63.06 184.14 63.07C184.11 63.11 184.06 63.14 184.03 63.17C184.02 63.18 184.01 63.19 184.01 63.2C183.98 63.24 183.93 63.27 183.9 63.3C183.89 63.31 183.88 63.32 183.88 63.33C183.85 63.37 183.8 63.4 183.77 63.43C183.76 63.44 183.75 63.45 183.75 63.46C183.72 63.5 183.67 63.53 183.64 63.56C183.63 63.57 183.62 63.58 183.62 63.59C183.59 63.63 183.54 63.66 183.51 63.69C183.5 63.7 183.49 63.71 183.49 63.72C183.46 63.76 183.41 63.79 183.38 63.82C183.37 63.83 183.36 63.84 183.36 63.85C183.33 63.89 183.28 63.92 183.25 63.95C183.24 63.96 183.23 63.97 183.23 63.98C183.2 64.02 183.15 64.05 183.12 64.08C183.11 64.09 183.1 64.1 183.1 64.11C183.07 64.15 183.02 64.18 182.99 64.21C182.98 64.22 182.97 64.23 182.97 64.24C182.94 64.28 182.89 64.31 182.86 64.34C182.85 64.35 182.84 64.36 182.84 64.37C182.81 64.41 182.76 64.44 182.73 64.47C182.72 64.48 182.71 64.49 182.71 64.5C182.68 64.54 182.63 64.57 182.6 64.6C182.59 64.61 182.58 64.62 182.58 64.63C182.55 64.67 182.5 64.7 182.47 64.73C182.46 64.74 182.45 64.75 182.45 64.76C182.42 64.8 182.37 64.83 182.34 64.86C182.33 64.87 182.32 64.88 182.32 64.89C182.29 64.93 182.24 64.96 182.21 64.99C182.2 65 182.19 65.01 182.19 65.02C182.16 65.06 182.11 65.09 182.08 65.12C182.07 65.13 182.06 65.14 182.06 65.15C182.03 65.19 181.98 65.22 181.95 65.25C181.94 65.26 181.93 65.27 181.93 65.28C181.9 65.32 181.85 65.35 181.82 65.38C181.81 65.39 181.8 65.4 181.8 65.41C181.77 65.45 181.72 65.48 181.69 65.51C181.68 65.52 181.67 65.53 181.67 65.54C181.64 65.58 181.59 65.61 181.56 65.64C181.55 65.65 181.54 65.66 181.54 65.67C181.51 65.71 181.46 65.74 181.43 65.77C181.42 65.78 181.41 65.79 181.41 65.8C181.38 65.84 181.33 65.87 181.3 65.9C181.29 65.91 181.28 65.92 181.28 65.93C181.25 65.97 181.2 66 181.17 66.03C181.16 66.04 181.15 66.05 181.15 66.06C181.12 66.1 181.07 66.13 181.04 66.16C181.03 66.17 181.02 66.18 181.02 66.19C180.99 66.23 180.94 66.26 180.91 66.29C180.9 66.3 180.89 66.31 180.89 66.32C180.86 66.36 180.81 66.39 180.78 66.42C180.77 66.43 180.76 66.44 180.76 66.45C180.73 66.49 180.68 66.52 180.65 66.55C180.64 66.56 180.63 66.57 180.63 66.58C180.6 66.62 180.55 66.65 180.52 66.68C180.51 66.69 180.5 66.7 180.5 66.71C180.47 66.75 180.42 66.78 180.39 66.81C180.38 66.82 180.37 66.83 180.37 66.84C179.3 68.07 177.63 68.95 175.37 69.48C174.57 69.69 173.64 69.8 172.57 69.8C171.91 69.8 171.21 69.76 170.45 69.68C169.31 69.56 168.28 69.33 167.35 68.99C163.71 67.55 161.93 64.09 162.04 58.62C162.09 55.84 162.37 51.59 162.87 45.89C162.72 46.3 162.57 46.69 162.42 47.07C162.42 47.08 162.41 47.09 162.41 47.09C162.27 47.44 162.13 47.78 161.98 48.1C161.96 48.14 161.95 48.17 161.93 48.21C161.8 48.5 161.67 48.78 161.54 49.04C161.51 49.09 161.49 49.15 161.46 49.2C161.31 49.5 161.15 49.8 161 50.07C160.74 50.53 160.46 50.97 160.16 51.41C160.07 51.55 159.96 51.69 159.86 51.83C159.64 52.13 159.42 52.43 159.18 52.73C159.06 52.88 158.94 53.03 158.82 53.18C158.54 53.52 158.24 53.85 157.93 54.18C157.85 54.26 157.78 54.34 157.71 54.43C157.65 54.5 157.58 54.56 157.52 54.63C157.48 54.67 157.43 54.72 157.39 54.76C157.35 54.8 157.3 54.85 157.26 54.89C157.22 54.93 157.17 54.98 157.13 55.02C157.09 55.06 157.04 55.11 157 55.15C156.96 55.19 156.91 55.24 156.87 55.28C156.83 55.32 156.78 55.37 156.74 55.41C156.7 55.45 156.65 55.5 156.61 55.54C156.57 55.58 156.52 55.63 156.48 55.67C156.44 55.71 156.39 55.76 156.35 55.8C156.31 55.84 156.26 55.89 156.22 55.93C156.18 55.97 156.13 56.02 156.09 56.06C156.05 56.1 156 56.15 155.96 56.19C155.92 56.23 155.87 56.28 155.83 56.32C155.79 56.36 155.74 56.41 155.7 56.45C155.66 56.49 155.61 56.54 155.57 56.58C155.53 56.62 155.48 56.67 155.44 56.71C155.4 56.75 155.35 56.8 155.31 56.84C155.27 56.88 155.22 56.93 155.18 56.97C155.14 57.01 155.09 57.06 155.05 57.1C155.01 57.14 154.96 57.19 154.92 57.23C154.88 57.27 154.83 57.32 154.79 57.36C154.75 57.4 154.7 57.45 154.66 57.49C154.62 57.53 154.57 57.58 154.53 57.62C154.49 57.66 154.44 57.71 154.4 57.75C154.36 57.79 154.31 57.84 154.27 57.88C154.23 57.92 154.18 57.97 154.14 58.01C154.1 58.05 154.05 58.1 154.01 58.14C153.97 58.18 153.92 58.23 153.88 58.27C153.84 58.31 153.79 58.36 153.75 58.4C153.71 58.44 153.66 58.49 153.62 58.53C153.58 58.57 153.53 58.62 153.49 58.66C153.45 58.7 153.4 58.75 153.36 58.79C153.32 58.83 153.27 58.88 153.23 58.92C153.19 58.96 153.14 59.01 153.1 59.05C153.06 59.09 153.01 59.14 152.97 59.18C152.93 59.22 152.88 59.27 152.84 59.31C152.8 59.35 152.75 59.4 152.71 59.44C152.67 59.48 152.62 59.53 152.58 59.57C152.54 59.61 152.49 59.66 152.45 59.7C152.41 59.74 152.36 59.79 152.32 59.83C152.28 59.87 152.23 59.92 152.19 59.96C152.15 60 152.1 60.05 152.06 60.09C152.02 60.13 151.97 60.18 151.93 60.22C151.89 60.26 151.84 60.31 151.8 60.35C151.76 60.39 151.71 60.44 151.67 60.48C151.63 60.52 151.58 60.57 151.54 60.61C151.5 60.65 151.45 60.7 151.41 60.74C151.37 60.78 151.32 60.83 151.28 60.87C151.04 61.12 150.78 61.35 150.53 61.6C150.27 61.86 150.01 62.12 149.73 62.37C147.59 64.24 145.54 65.54 143.57 66.3C141.6 67.05 138.94 67.53 135.57 67.73C134.76 67.78 134 67.8 133.3 67.8C132.67 67.8 132.08 67.78 131.54 67.74C130.3 67.66 128.92 67.46 127.41 67.17C124.53 66.59 122.64 66.13 121.76 65.78C117.99 64.12 115.02 61.74 112.83 58.66C112.71 58.9 112.58 59.14 112.44 59.38C112.3 59.61 112.15 59.84 111.98 60.06C111.68 60.46 111.35 60.82 111 61.15C110.97 61.18 110.94 61.21 110.92 61.23C110.57 61.55 110.19 61.84 109.79 62.1C109.76 62.12 109.73 62.14 109.69 62.16C109.28 62.42 108.84 62.64 108.38 62.83C108.36 62.84 108.34 62.85 108.31 62.86C107.83 63.05 107.32 63.22 106.78 63.34C106.49 64.63 105.97 65.78 105.21 66.81C103.83 68.66 101.89 69.8 99.38 70.24C99.1 70.3 98.69 70.35 98.17 70.38C98.03 70.39 97.89 70.39 97.75 70.39C94.87 70.39 91.39 68.71 87.32 65.34C86.84 64.95 86.41 64.62 86.04 64.32C86 64.34 85.95 64.36 85.9 64.38C85.58 64.55 85.25 64.7 84.9 64.84C84.57 64.98 84.21 65.1 83.85 65.21C83.71 65.68 83.51 66.23 83.24 66.86C81.59 70.5 77.94 72.48 72.31 72.81L71.67 72.85C71.29 72.86 70.93 72.87 70.58 72.87C69.05 72.87 67.83 72.74 66.94 72.48C65.84 72.16 64.74 71.48 63.63 70.45C62.22 69.19 61.31 67.98 60.9 66.8C60.56 65.86 60.17 63.86 59.74 60.8C59.61 61.09 59.46 61.37 59.3 61.63C59.25 61.72 59.18 61.79 59.13 61.88C59 62.07 58.87 62.27 58.72 62.45C58.66 62.52 58.6 62.59 58.54 62.66C58.5 62.71 58.45 62.75 58.41 62.79C58.37 62.84 58.32 62.88 58.28 62.92C58.24 62.97 58.19 63.01 58.15 63.05C58.11 63.1 58.06 63.14 58.02 63.18C57.98 63.23 57.93 63.27 57.89 63.31C57.85 63.36 57.8 63.4 57.76 63.44C57.72 63.49 57.67 63.53 57.63 63.57C57.59 63.62 57.54 63.66 57.5 63.7C57.46 63.75 57.41 63.79 57.37 63.83C57.33 63.88 57.28 63.92 57.24 63.96C57.2 64.01 57.15 64.05 57.11 64.09C57.07 64.14 57.02 64.18 56.98 64.22C56.94 64.27 56.89 64.31 56.85 64.35C56.81 64.4 56.76 64.44 56.72 64.48C56.68 64.53 56.63 64.57 56.59 64.61C56.55 64.66 56.5 64.7 56.46 64.74C56.42 64.79 56.37 64.83 56.33 64.87C56.29 64.92 56.24 64.96 56.2 65C56.16 65.05 56.11 65.09 56.07 65.13C56.03 65.18 55.98 65.22 55.94 65.26C55.9 65.31 55.85 65.35 55.81 65.39C55.77 65.44 55.72 65.48 55.68 65.52C55.64 65.57 55.59 65.61 55.55 65.65C55.51 65.7 55.46 65.74 55.42 65.78C55.38 65.83 55.33 65.87 55.29 65.91C55.25 65.96 55.2 66 55.16 66.04C55.12 66.09 55.07 66.13 55.03 66.17C54.99 66.22 54.94 66.26 54.9 66.3C54.86 66.35 54.81 66.39 54.77 66.43C54.73 66.48 54.68 66.52 54.64 66.56C54.6 66.61 54.55 66.65 54.51 66.69C54.47 66.74 54.42 66.78 54.38 66.82C54.34 66.87 54.29 66.91 54.25 66.95C54.21 67 54.16 67.04 54.12 67.08C54.08 67.13 54.03 67.17 53.99 67.21C53.95 67.26 53.9 67.3 53.86 67.34C53.82 67.39 53.77 67.43 53.73 67.47C53.69 67.52 53.64 67.56 53.6 67.6C53.56 67.65 53.51 67.69 53.47 67.73C53.43 67.78 53.38 67.82 53.34 67.86C53.3 67.91 53.25 67.95 53.21 67.99C53.17 68.04 53.12 68.08 53.08 68.12C53.04 68.17 52.99 68.21 52.95 68.25C52.91 68.3 52.86 68.34 52.82 68.38C52.78 68.43 52.73 68.47 52.69 68.51C52.65 68.56 52.6 68.6 52.56 68.64C52.52 68.69 52.47 68.73 52.43 68.77C52.39 68.82 52.34 68.86 52.3 68.9C52.02 69.23 51.7 69.53 51.35 69.81C49.76 71.14 47.45 71.82 44.41 71.82H44.12C42.4 71.82 40.78 71.44 39.25 70.67L36.88 69.52L34.66 70.31C33.23 70.84 30.5 71.1 26.49 71.1C23.14 71.1 20.65 70.92 19 70.56C17.35 70.2 15.69 69.47 14.02 68.37C13.02 67.7 11.68 66.57 10.01 64.97C8.34001 63.37 7.17 62.07 6.5 61.06C5.07 58.81 3.82002 55.21 2.77002 50.24C2.29002 47.85 2.04999 45.89 2.04999 44.36C2.04999 43.26 2.07 42.35 2.12 41.64C2.53 32.88 5.50002 25.64 11.02 19.91C11.06 19.87 11.11 19.82 11.15 19.78C11.19 19.74 11.24 19.69 11.28 19.65C11.32 19.6 11.37 19.56 11.41 19.52C11.45 19.48 11.5 19.43 11.54 19.39C11.58 19.35 11.63 19.3 11.67 19.26C11.71 19.21 11.76 19.17 11.8 19.13C11.84 19.09 11.89 19.04 11.93 19C11.97 18.96 12.02 18.91 12.06 18.87C12.1 18.82 12.15 18.78 12.19 18.74C12.23 18.69 12.28 18.65 12.32 18.61C12.36 18.57 12.41 18.52 12.45 18.48C12.49 18.44 12.54 18.39 12.58 18.35C12.62 18.3 12.67 18.26 12.71 18.22C12.75 18.18 12.8 18.13 12.84 18.09C12.88 18.05 12.93 18 12.97 17.96C13.01 17.91 13.06 17.87 13.1 17.83C13.14 17.79 13.19 17.74 13.23 17.7C13.27 17.66 13.32 17.61 13.36 17.57C13.4 17.52 13.45 17.48 13.49 17.44C13.53 17.39 13.58 17.35 13.62 17.31C13.66 17.27 13.71 17.22 13.75 17.18C13.79 17.14 13.84 17.09 13.88 17.05C13.92 17.01 13.97 16.96 14.01 16.92C14.05 16.88 14.1 16.83 14.14 16.79C14.18 16.75 14.23 16.7 14.27 16.66C14.31 16.61 14.36 16.57 14.4 16.53C14.44 16.48 14.49 16.44 14.53 16.4C14.57 16.36 14.62 16.31 14.66 16.27C14.7 16.22 14.75 16.18 14.79 16.14C14.83 16.09 14.88 16.05 14.92 16.01C14.96 15.97 15.01 15.92 15.05 15.88C15.09 15.84 15.14 15.79 15.18 15.75C15.22 15.71 15.27 15.66 15.31 15.62C15.35 15.58 15.4 15.53 15.44 15.49C15.48 15.45 15.53 15.4 15.57 15.36C15.61 15.31 15.66 15.27 15.7 15.23C15.74 15.18 15.79 15.14 15.83 15.1C15.87 15.06 15.92 15.01 15.96 14.97C16 14.92 16.05 14.88 16.09 14.84C16.13 14.79 16.18 14.75 16.22 14.71C16.26 14.67 16.31 14.62 16.35 14.58C16.39 14.54 16.44 14.49 16.48 14.45C16.52 14.41 16.57 14.36 16.61 14.32C16.65 14.28 16.7 14.23 16.74 14.19C16.78 14.15 16.83 14.1 16.87 14.06C16.91 14.01 16.96 13.97 17 13.93C17.04 13.88 17.09 13.84 17.13 13.8C17.17 13.76 17.22 13.71 17.26 13.67C17.3 13.62 17.35 13.58 17.39 13.54C17.43 13.49 17.48 13.45 17.52 13.41C17.88 13.03 18.26 12.66 18.64 12.29C22.41 8.60996 27.48 6.04996 33.84 4.61996C35.13 4.32996 36.54 4.18996 38.07 4.18996C40.75 4.18996 43.49 4.61997 46.31 5.47997C49.13 6.33997 51.52 7.48996 53.48 8.91996C55.39 10.31 56.98 12.15 58.25 14.44C58.54 14.96 58.79 15.48 59.01 15.99C59.01 16 59.02 16.01 59.02 16.01C59.24 16.52 59.43 17.03 59.59 17.53C59.96 17.09 60.37 16.71 60.83 16.41C61.51 15.93 62.77 15.23 64.6 14.31C64.65 14.11 64.71 13.91 64.77 13.73C64.83 13.54 64.89 13.35 64.96 13.18C65.56 11.57 66.44 10.39 67.59 9.64996C67.77 9.51996 68 9.36996 68.27 9.20996C69.08 8.71996 70.26 8.08996 71.84 7.31996C73.15 6.67996 74.19 6.18996 74.95 5.84996C75.1 5.77996 75.25 5.71996 75.38 5.66996C75.64 5.55996 75.86 5.47996 76.04 5.41996C76.11 5.39996 76.25 5.37996 76.44 5.35996C76.74 5.31996 77.18 5.26996 77.77 5.19996C78.36 5.12996 79.09 5.05996 79.96 4.96996L80.53 4.93996C81.29 4.89996 82.04 4.86996 82.8 4.86996C84.07 4.86996 85.34 4.92996 86.62 5.05996C87.64 5.15996 88.65 5.29997 89.67 5.47997C90.18 5.56997 90.69 5.66996 91.2 5.77996C91.71 5.88996 92.22 6.00996 92.73 6.13996C93.75 6.39996 94.72 6.67996 95.64 6.99996C96.56 7.30996 97.43 7.64996 98.26 8.01996C99.91 8.75996 101.36 9.59996 102.61 10.56C103.11 10.94 103.66 11.45 104.25 12.09C104.84 12.73 105.48 13.5 106.17 14.41C106.51 14.86 106.83 15.3 107.13 15.73C107.73 16.58 108.23 17.39 108.65 18.14C108.86 18.52 109.05 18.88 109.21 19.23C109.22 19.25 109.22 19.26 109.23 19.28C109.51 18.2 109.83 17.2 110.17 16.29C110.72 14.8 111.54 13.47 112.61 12.3C112.65 12.25 112.7 12.21 112.74 12.17C112.78 12.12 112.83 12.08 112.87 12.04C112.91 11.99 112.96 11.95 113 11.91C113.04 11.86 113.09 11.82 113.13 11.78C113.17 11.73 113.22 11.69 113.26 11.65C113.3 11.6 113.35 11.56 113.39 11.52C113.43 11.47 113.48 11.43 113.52 11.39C113.56 11.34 113.61 11.3 113.65 11.26C113.69 11.21 113.74 11.17 113.78 11.13C113.82 11.08 113.87 11.04 113.91 11C113.95 10.95 114 10.91 114.04 10.87C114.08 10.82 114.13 10.78 114.17 10.74C114.21 10.69 114.26 10.65 114.3 10.61C114.34 10.56 114.39 10.52 114.43 10.48C114.47 10.43 114.52 10.39 114.56 10.35C114.6 10.3 114.65 10.26 114.69 10.22C114.73 10.17 114.78 10.13 114.82 10.09C114.86 10.04 114.91 9.99996 114.95 9.95996C114.99 9.90996 115.04 9.86996 115.08 9.82996C115.12 9.77996 115.17 9.73996 115.21 9.69996C115.25 9.64996 115.3 9.60996 115.34 9.56996C115.38 9.51996 115.43 9.47996 115.47 9.43996C115.51 9.38996 115.56 9.34996 115.6 9.30996C115.64 9.25996 115.69 9.21996 115.73 9.17996C115.77 9.12996 115.82 9.08996 115.86 9.04996C115.9 8.99996 115.95 8.95996 115.99 8.91996C116.03 8.86996 116.08 8.82996 116.12 8.78996C116.16 8.73996 116.21 8.69997 116.25 8.65997C116.29 8.60997 116.34 8.56996 116.38 8.52996C116.42 8.47996 116.47 8.43996 116.51 8.39996C116.55 8.34996 116.6 8.30996 116.64 8.26996C116.68 8.21996 116.73 8.17996 116.77 8.13996C116.81 8.08996 116.86 8.04996 116.9 8.00996C116.94 7.95996 116.99 7.91996 117.03 7.87996C117.07 7.82996 117.12 7.78996 117.16 7.74996C117.2 7.69996 117.25 7.65996 117.29 7.61996C117.33 7.56996 117.38 7.52996 117.42 7.48996C117.46 7.43996 117.51 7.39996 117.55 7.35996C117.59 7.30996 117.64 7.26997 117.68 7.22997C117.72 7.17997 117.77 7.13996 117.81 7.09996C117.85 7.04996 117.9 7.00996 117.94 6.96996C117.98 6.91996 118.03 6.87996 118.07 6.83996C118.11 6.78996 118.16 6.74996 118.2 6.70996C118.24 6.65996 118.29 6.61996 118.33 6.57996C118.37 6.52996 118.42 6.48996 118.46 6.44996C118.5 6.39996 118.55 6.35996 118.59 6.31996C118.63 6.26996 118.68 6.22996 118.72 6.18996C118.76 6.13996 118.81 6.09996 118.85 6.05996C118.89 6.00996 118.94 5.96996 118.98 5.92996C119.02 5.87996 119.07 5.83996 119.11 5.79996C119.45 5.41996 119.81 5.05996 120.2 4.70996C120.98 4.01996 121.78 3.46996 122.62 3.03996C123.46 2.61996 124.32 2.32996 125.22 2.17996C125.51 2.12996 125.85 2.09996 126.25 2.08996C126.33 2.08996 126.42 2.08996 126.5 2.08996C126.83 2.08996 127.2 2.09996 127.59 2.12996C128.3 2.17996 128.97 2.25996 129.61 2.35996C130.25 2.45996 130.86 2.56996 131.42 2.71996C131.79 2.81996 132.15 2.92996 132.49 3.03996C132.74 3.12996 132.98 3.22996 133.22 3.34996C133.71 3.58996 134.19 3.89996 134.67 4.27996C134.91 4.46996 135.15 4.66996 135.38 4.88996C135.62 5.10996 135.84 5.32996 136.05 5.55996C136.69 6.24996 137.21 6.98996 137.62 7.76996L138.5 9.62996L138.26 15.42L138.6 14.92C138.85 14.58 139.13 14.26 139.41 13.96C139.45 13.91 139.5 13.87 139.54 13.83C139.58 13.78 139.63 13.74 139.67 13.7C139.71 13.65 139.76 13.61 139.8 13.57C139.84 13.52 139.89 13.48 139.93 13.44C139.97 13.39 140.02 13.35 140.06 13.31C140.1 13.26 140.15 13.22 140.19 13.18C140.23 13.13 140.28 13.09 140.32 13.05C140.36 13 140.41 12.96 140.45 12.92C140.49 12.87 140.54 12.83 140.58 12.79C140.62 12.74 140.67 12.7 140.71 12.66C140.75 12.61 140.8 12.57 140.84 12.53C140.88 12.48 140.93 12.44 140.97 12.4C141.01 12.35 141.06 12.31 141.1 12.27C141.14 12.22 141.19 12.18 141.23 12.14C141.27 12.09 141.32 12.05 141.36 12.01C141.4 11.96 141.45 11.92 141.49 11.88C141.53 11.83 141.58 11.79 141.62 11.75C141.66 11.7 141.71 11.66 141.75 11.62C141.79 11.57 141.84 11.53 141.88 11.49C141.92 11.44 141.97 11.4 142.01 11.36C142.05 11.31 142.1 11.27 142.14 11.23C142.18 11.18 142.23 11.14 142.27 11.1C142.31 11.05 142.36 11.01 142.4 10.97C142.44 10.92 142.49 10.88 142.53 10.84C142.57 10.79 142.62 10.75 142.66 10.71C142.7 10.66 142.75 10.62 142.79 10.58C142.83 10.53 142.88 10.49 142.92 10.45C142.96 10.4 143.01 10.36 143.05 10.32C143.09 10.27 143.14 10.23 143.18 10.19C143.22 10.14 143.27 10.1 143.31 10.06C143.35 10.01 143.4 9.96996 143.44 9.92996C143.48 9.87996 143.53 9.83996 143.57 9.79996C143.61 9.74996 143.66 9.70996 143.7 9.66996C143.74 9.61996 143.79 9.57996 143.83 9.53996C143.87 9.48996 143.92 9.44997 143.96 9.40997C144 9.35997 144.05 9.31996 144.09 9.27996C144.13 9.22996 144.18 9.18996 144.22 9.14996C144.26 9.09996 144.31 9.05996 144.35 9.01996C144.39 8.96996 144.44 8.92996 144.48 8.88996C144.52 8.83996 144.57 8.79996 144.61 8.75996C144.65 8.70996 144.7 8.66996 144.74 8.62996C144.78 8.57996 144.83 8.53996 144.87 8.49996C144.91 8.44996 144.96 8.40996 145 8.36996C145.04 8.31996 145.09 8.27996 145.13 8.23996C145.17 8.18996 145.22 8.14996 145.26 8.10996C145.3 8.05996 145.35 8.01997 145.39 7.97997C145.43 7.92997 145.48 7.88996 145.52 7.84996C145.56 7.79996 145.61 7.75996 145.65 7.71996C145.69 7.66996 145.74 7.62996 145.78 7.58996C145.82 7.53996 145.87 7.49996 145.91 7.45996C145.97 7.39996 146.03 7.34996 146.08 7.28996C146.26 7.10996 146.44 6.92996 146.63 6.75996C146.73 6.66996 146.83 6.58996 146.94 6.50996C147.1 6.37996 147.26 6.24996 147.42 6.12996C147.53 6.04996 147.65 5.96996 147.77 5.89996C147.93 5.78996 148.1 5.68996 148.27 5.58996C148.4 5.51996 148.52 5.44996 148.65 5.38996C148.83 5.29996 149.01 5.21996 149.19 5.12996C149.32 5.06996 149.46 5.01996 149.59 4.95996C149.79 4.87996 149.99 4.81996 150.2 4.74996C150.33 4.70996 150.47 4.65996 150.6 4.61996C150.83 4.54996 151.08 4.49996 151.32 4.44996C151.44 4.41996 151.56 4.38996 151.68 4.36996C152.05 4.29996 152.43 4.23996 152.82 4.19996C153.3 4.15996 153.76 4.13996 154.21 4.12996C154.29 4.12996 154.36 4.12996 154.43 4.12996C154.79 4.12996 155.14 4.13997 155.48 4.15997C156.24 4.20997 156.97 4.31996 157.66 4.49996C158 4.58996 158.34 4.68996 158.67 4.79996C160.3 5.37996 161.7 6.33996 162.86 7.67996C163.25 8.12996 163.6 8.60996 163.92 9.13996C164.08 9.39996 164.23 9.66996 164.37 9.95996C165.07 11.37 165.56 13.03 165.82 14.93C165.82 14.93 165.82 14.93 165.82 14.94C165.93 15.72 166 16.61 166.06 17.61C166.82 15.26 167.87 13.44 169.24 12.14C169.28 12.1 169.33 12.05 169.37 12.01C169.41 11.97 169.46 11.92 169.5 11.88C169.54 11.84 169.59 11.79 169.63 11.75C169.67 11.71 169.72 11.66 169.76 11.62C169.8 11.58 169.85 11.53 169.89 11.49C169.93 11.45 169.98 11.4 170.02 11.36C170.06 11.32 170.11 11.27 170.15 11.23C170.19 11.19 170.24 11.14 170.28 11.1C170.32 11.06 170.37 11.01 170.41 10.97C170.45 10.93 170.5 10.88 170.54 10.84C170.58 10.8 170.63 10.75 170.67 10.71C170.71 10.67 170.76 10.62 170.8 10.58C170.84 10.54 170.89 10.49 170.93 10.45C170.97 10.41 171.02 10.36 171.06 10.32C171.1 10.28 171.15 10.23 171.19 10.19C171.23 10.15 171.28 10.1 171.32 10.06C171.36 10.02 171.41 9.96996 171.45 9.92996C171.49 9.88996 171.54 9.83996 171.58 9.79996C171.62 9.75996 171.67 9.70996 171.71 9.66996C171.75 9.62996 171.8 9.57996 171.84 9.53996C171.88 9.49996 171.93 9.44997 171.97 9.40997C172.01 9.36997 172.06 9.31996 172.1 9.27996C172.14 9.23996 172.19 9.18996 172.23 9.14996C172.27 9.10996 172.32 9.05996 172.36 9.01996C172.4 8.97996 172.45 8.92996 172.49 8.88996C172.53 8.84996 172.58 8.79996 172.62 8.75996C172.66 8.71996 172.71 8.66996 172.75 8.62996C172.79 8.58996 172.84 8.53996 172.88 8.49996C172.92 8.45996 172.97 8.40996 173.01 8.36996C173.05 8.32996 173.1 8.27996 173.14 8.23996C173.18 8.19996 173.23 8.14996 173.27 8.10996C173.31 8.06996 173.36 8.01997 173.4 7.97997C173.44 7.93997 173.49 7.88996 173.53 7.84996C173.57 7.80996 173.62 7.75996 173.66 7.71996C173.7 7.67996 173.75 7.62996 173.79 7.58996C173.83 7.54996 173.88 7.49996 173.92 7.45996C173.96 7.41996 174.01 7.36996 174.05 7.32996C174.09 7.28996 174.14 7.23996 174.18 7.19996C174.22 7.15996 174.27 7.10996 174.31 7.06996C174.35 7.02996 174.4 6.97996 174.44 6.93996C174.48 6.89996 174.53 6.84996 174.57 6.80996C174.61 6.76996 174.66 6.71996 174.7 6.67996C174.74 6.63996 174.79 6.58996 174.83 6.54996C174.87 6.50996 174.92 6.45996 174.96 6.41996C175 6.37996 175.05 6.32996 175.09 6.28996C175.13 6.24996 175.18 6.19997 175.22 6.15997C175.26 6.11997 175.31 6.06996 175.35 6.02996C175.39 5.98996 175.44 5.93996 175.48 5.89996C175.52 5.85996 175.57 5.80996 175.61 5.76996C175.65 5.72996 175.7 5.67996 175.74 5.63996C175.98 5.39996 176.24 5.16996 176.5 4.95996C177.2 4.40996 178.04 3.93996 179.02 3.53996C180.66 2.86996 182.69 2.41997 185.12 2.15997C186.43 2.10997 187.44 2.05996 188.45 2.05996ZM56.85 33.59C56.77 31.96 56.78 30.25 56.86 28.49C56.85 28.5 56.84 28.51 56.82 28.52C56.78 28.56 56.73 28.61 56.69 28.65C56.65 28.69 56.6 28.74 56.56 28.78C56.52 28.82 56.47 28.87 56.43 28.91C56.39 28.95 56.34 29 56.3 29.04C56.26 29.08 56.21 29.13 56.17 29.17C56.13 29.21 56.08 29.26 56.04 29.3C56 29.34 55.95 29.39 55.91 29.43C55.87 29.47 55.82 29.52 55.78 29.56C55.74 29.6 55.69 29.65 55.65 29.69C55.61 29.73 55.56 29.78 55.52 29.82C55.48 29.86 55.43 29.91 55.39 29.95C55.35 29.99 55.3 30.04 55.26 30.08C55.22 30.12 55.17 30.17 55.13 30.21C55.09 30.25 55.04 30.3 55 30.34C54.96 30.38 54.91 30.43 54.87 30.47C54.83 30.51 54.78 30.56 54.74 30.6C54.7 30.64 54.65 30.69 54.61 30.73C54.57 30.77 54.52 30.82 54.48 30.86C54.44 30.9 54.39 30.95 54.35 30.99C54.31 31.03 54.26 31.08 54.22 31.12C54.18 31.16 54.13 31.21 54.09 31.25C54.05 31.29 54 31.34 53.96 31.38C53.92 31.42 53.87 31.47 53.83 31.51C53.79 31.55 53.74 31.6 53.7 31.64C53.66 31.68 53.61 31.73 53.57 31.77C53.53 31.81 53.48 31.86 53.44 31.9C53.4 31.94 53.35 31.99 53.31 32.03C53.27 32.07 53.22 32.12 53.18 32.16C53.14 32.2 53.09 32.25 53.05 32.29C53.01 32.33 52.96 32.38 52.92 32.42C52.88 32.46 52.83 32.51 52.79 32.55C52.75 32.59 52.7 32.64 52.66 32.68C52.64 32.7 52.62 32.73 52.6 32.75C52.6 32.75 52.6 32.75 52.61 32.75C53.04 32.78 53.46 32.82 53.85 32.87C53.86 32.87 53.87 32.87 53.88 32.87C54.27 32.92 54.64 32.97 54.99 33.03C55 33.03 55.01 33.03 55.02 33.03C55.37 33.09 55.71 33.16 56.02 33.24H56.03C56.27 33.41 56.57 33.49 56.85 33.59ZM33.84 41.66C33.89 41.61 33.94 41.56 33.99 41.51C34.03 41.47 34.08 41.42 34.12 41.38C34.16 41.34 34.21 41.29 34.25 41.25C34.29 41.21 34.34 41.16 34.38 41.12C34.42 41.08 34.47 41.03 34.51 40.99C34.55 40.95 34.6 40.9 34.64 40.86C34.68 40.82 34.73 40.77 34.77 40.73C34.81 40.69 34.86 40.64 34.9 40.6C34.94 40.56 34.99 40.51 35.03 40.47C35.07 40.43 35.12 40.38 35.16 40.34C35.2 40.3 35.25 40.25 35.29 40.21C35.33 40.17 35.38 40.12 35.42 40.08C35.46 40.04 35.51 39.99 35.55 39.95C35.59 39.91 35.64 39.86 35.68 39.82C35.72 39.78 35.77 39.73 35.81 39.69C35.85 39.65 35.9 39.6 35.94 39.56C35.98 39.52 36.03 39.47 36.07 39.43C36.11 39.39 36.16 39.34 36.2 39.3C36.24 39.26 36.29 39.21 36.33 39.17C36.37 39.13 36.42 39.08 36.46 39.04C36.5 39 36.55 38.95 36.59 38.91C36.63 38.87 36.68 38.82 36.72 38.78C36.76 38.74 36.81 38.69 36.85 38.65C36.89 38.61 36.94 38.56 36.98 38.52C37.02 38.48 37.07 38.43 37.11 38.39C37.15 38.35 37.2 38.3 37.24 38.26C37.28 38.22 37.33 38.17 37.37 38.13C37.41 38.09 37.46 38.04 37.5 38C37.54 37.96 37.59 37.91 37.63 37.87C37.67 37.83 37.72 37.78 37.76 37.74C37.8 37.7 37.85 37.65 37.89 37.61C37.93 37.57 37.98 37.52 38.02 37.48C38.06 37.44 38.11 37.39 38.15 37.35C38.19 37.31 38.24 37.26 38.28 37.22C38.32 37.18 38.37 37.13 38.41 37.09C38.45 37.05 38.5 37 38.54 36.96C38.58 36.92 38.63 36.87 38.67 36.83C38.71 36.79 38.76 36.74 38.8 36.7C38.84 36.66 38.89 36.61 38.93 36.57C38.97 36.53 39.02 36.48 39.06 36.44C38.4 36.07 37.76 35.59 37.15 34.98C36 33.74 35.14 33.12 34.57 33.12C33.94 33.12 33.29 33.24 32.6 33.47C32.54 33.76 32.49 34.08 32.45 34.42C32.44 34.54 32.42 34.66 32.41 34.79C32.4 34.91 32.39 35.03 32.39 35.15C32.38 35.43 32.36 35.72 32.36 36.03C32.36 38.18 32.69 39.88 33.36 41.12C33.58 41.25 33.71 41.45 33.84 41.66ZM107.19 39.33C107.19 39.11 107.19 38.89 107.19 38.64C107.19 38.1 107.21 37.47 107.23 36.75L106.25 37.9L107.04 39.07C107.08 39.14 107.13 39.21 107.17 39.28C107.18 39.31 107.19 39.32 107.19 39.33ZM264.99 45.12C265 45.11 265.01 45.1 265.02 45.09C265.06 45.05 265.11 45 265.15 44.96C265.19 44.92 265.24 44.87 265.28 44.83C265.32 44.78 265.37 44.74 265.41 44.7C265.45 44.65 265.5 44.61 265.54 44.57C265.58 44.53 265.63 44.48 265.67 44.44C265.71 44.4 265.76 44.35 265.8 44.31C265.84 44.27 265.89 44.22 265.93 44.18C265.97 44.13 266.02 44.09 266.06 44.05C266.1 44.01 266.15 43.96 266.19 43.92C266.23 43.88 266.28 43.83 266.32 43.79C266.36 43.75 266.41 43.7 266.45 43.66C266.49 43.62 266.54 43.57 266.58 43.53C266.62 43.48 266.67 43.44 266.71 43.4C266.75 43.35 266.8 43.31 266.84 43.27C266.88 43.23 266.93 43.18 266.97 43.14C267.01 43.1 267.06 43.05 267.1 43.01C267.14 42.97 267.19 42.92 267.23 42.88C267.27 42.83 267.32 42.79 267.36 42.75C267.4 42.71 267.45 42.66 267.49 42.62C267.53 42.58 267.58 42.53 267.62 42.49C267.66 42.45 267.71 42.4 267.75 42.36C267.79 42.32 267.84 42.27 267.88 42.23C267.92 42.18 267.97 42.14 268.01 42.1C268.05 42.06 268.1 42.01 268.14 41.97C268.18 41.92 268.23 41.88 268.27 41.84C268.31 41.8 268.36 41.75 268.4 41.71C268.44 41.67 268.49 41.62 268.53 41.58C268.57 41.53 268.62 41.49 268.66 41.45C268.7 41.41 268.75 41.36 268.79 41.32C268.83 41.28 268.88 41.23 268.92 41.19C268.96 41.15 269.01 41.1 269.05 41.06C269.07 41.04 269.08 41.02 269.1 41.01C267.84 39.91 266.76 38.79 265.86 37.67C265.76 39.84 265.56 41.76 265.27 43.44C265.26 43.52 265.24 43.6 265.23 43.68C265.21 44.13 265.11 44.64 264.99 45.12ZM188.45 0.269958C187.38 0.269958 186.31 0.31996 185.25 0.41996C182.65 0.68996 180.43 1.18996 178.65 1.91996C177.52 2.37996 176.52 2.93996 175.7 3.58996C175.4 3.81996 175.1 4.08997 174.78 4.40997C174.76 4.41997 174.72 4.46996 174.68 4.50996C174.63 4.55996 174.59 4.59996 174.55 4.63996C174.5 4.68996 174.46 4.72996 174.42 4.76996C174.37 4.81996 174.33 4.85996 174.29 4.89996C174.24 4.94996 174.2 4.98996 174.16 5.02996C174.11 5.07996 174.07 5.11997 174.03 5.15997C173.98 5.20997 173.94 5.24996 173.9 5.28996C173.85 5.33996 173.81 5.37996 173.77 5.41996C173.72 5.46996 173.68 5.50996 173.64 5.54996L173.6 5.58996C173.58 5.59996 173.54 5.64996 173.5 5.68996C173.45 5.73996 173.41 5.77996 173.37 5.81996L173.33 5.85996C173.31 5.86996 173.27 5.91996 173.23 5.95996C173.18 6.00996 173.14 6.04996 173.1 6.08996C173.05 6.13996 173.01 6.17996 172.97 6.21996C172.92 6.26996 172.88 6.30996 172.84 6.34996C172.79 6.39996 172.75 6.43997 172.71 6.47997C172.66 6.52997 172.62 6.56996 172.58 6.60996C172.53 6.65996 172.49 6.69996 172.45 6.73996C172.4 6.78996 172.36 6.82996 172.32 6.86996C172.27 6.91996 172.23 6.95996 172.19 6.99996C172.14 7.04996 172.1 7.08996 172.06 7.12996L172 7.19996C171.98 7.20996 171.94 7.25996 171.9 7.29996C171.85 7.34997 171.81 7.38996 171.77 7.42996C171.72 7.47996 171.68 7.51996 171.64 7.55996L171.6 7.59996C171.58 7.60996 171.54 7.64996 171.5 7.69996C171.45 7.74996 171.41 7.78996 171.37 7.82996C171.32 7.87996 171.28 7.91996 171.24 7.95996C171.19 8.00996 171.15 8.04996 171.11 8.08996C171.06 8.13996 171.02 8.17996 170.98 8.21996C170.93 8.26996 170.89 8.30996 170.85 8.34996C170.8 8.39996 170.76 8.43997 170.72 8.47997L170.68 8.51996C170.67 8.52996 170.62 8.57996 170.58 8.61996C170.53 8.66996 170.49 8.70996 170.45 8.74996C170.4 8.79996 170.36 8.83996 170.32 8.87996L170.28 8.91996C170.26 8.92996 170.22 8.97996 170.18 9.01996C170.13 9.06996 170.09 9.10996 170.05 9.14996C170 9.19996 169.96 9.23996 169.92 9.27996C169.87 9.32996 169.83 9.36997 169.79 9.40997C169.74 9.45997 169.7 9.49996 169.66 9.53996C169.61 9.58996 169.57 9.62996 169.53 9.66996C169.48 9.71996 169.44 9.75996 169.4 9.79996L169.36 9.83996C169.34 9.85996 169.3 9.89996 169.26 9.93996C169.21 9.98996 169.17 10.03 169.13 10.07C169.08 10.12 169.04 10.16 169 10.2L168.96 10.24L168.86 10.34L168.82 10.38C168.8 10.39 168.76 10.44 168.72 10.48C168.67 10.53 168.63 10.57 168.59 10.61C168.54 10.66 168.5 10.7 168.46 10.74C168.41 10.79 168.37 10.83 168.33 10.87C168.28 10.92 168.24 10.96 168.2 11C167.85 11.33 167.52 11.69 167.21 12.07C166.93 11.08 166.58 10.17 166.16 9.32996C166 9.00996 165.82 8.68996 165.64 8.38996C165.27 7.77996 164.85 7.20996 164.4 6.67996C163.04 5.11996 161.37 3.97996 159.46 3.28996C159.08 3.14996 158.69 3.02996 158.29 2.92996C157.5 2.72996 156.66 2.59996 155.8 2.53996C155.43 2.50996 155.03 2.49996 154.63 2.49996H154.38C153.9 2.50996 153.39 2.52996 152.87 2.56996C152.41 2.61996 151.99 2.67996 151.54 2.75996C151.44 2.77996 151.34 2.79996 151.24 2.81996L151.13 2.83996C150.85 2.89996 150.57 2.95996 150.3 3.03996C150.17 3.07996 150.05 3.10997 149.92 3.15997L149.83 3.18996C149.59 3.26996 149.35 3.34996 149.12 3.43996C148.96 3.49996 148.8 3.56996 148.65 3.62996C148.43 3.71996 148.22 3.81996 148.01 3.92996C147.86 4.00996 147.7 4.08996 147.56 4.16996C147.36 4.28996 147.16 4.40996 146.96 4.52996L146.9 4.56996C146.78 4.64996 146.66 4.72996 146.54 4.80996C146.34 4.94996 146.15 5.09996 145.96 5.25996L145.88 5.32996C145.79 5.39996 145.69 5.47996 145.6 5.55996C145.35 5.78996 145.12 6.01996 144.95 6.18996C144.88 6.25996 144.82 6.30996 144.77 6.35996C144.72 6.40996 144.68 6.44996 144.64 6.48996C144.59 6.53996 144.55 6.57996 144.51 6.61996C144.46 6.66996 144.42 6.70996 144.38 6.74996C144.33 6.79996 144.29 6.83996 144.25 6.87996C144.2 6.92996 144.16 6.96996 144.12 7.00996C144.06 7.06996 144.01 7.11996 143.96 7.16996C143.93 7.18996 143.9 7.22996 143.86 7.26996C143.81 7.31996 143.77 7.35996 143.73 7.39996C143.68 7.44996 143.64 7.48996 143.6 7.52996C143.55 7.57996 143.51 7.61997 143.47 7.65997C143.42 7.70997 143.38 7.74996 143.34 7.78996C143.29 7.83996 143.25 7.87996 143.21 7.91996C143.16 7.96996 143.12 8.00996 143.08 8.04996C143.03 8.09997 142.99 8.13996 142.95 8.17996C142.9 8.22996 142.86 8.26996 142.82 8.30996C142.77 8.35996 142.73 8.39996 142.69 8.43996C142.64 8.48996 142.6 8.52996 142.56 8.56996C142.51 8.61996 142.47 8.65996 142.43 8.69996C142.38 8.74996 142.34 8.78996 142.3 8.82996C142.25 8.87996 142.21 8.91996 142.17 8.95996C142.12 9.00996 142.08 9.04996 142.04 9.08996C141.99 9.13996 141.95 9.17996 141.91 9.21996C141.86 9.26996 141.82 9.30996 141.78 9.34996C141.73 9.39996 141.69 9.43997 141.65 9.47997C141.6 9.52997 141.56 9.56996 141.52 9.60996C141.47 9.65996 141.43 9.69996 141.39 9.73996C141.34 9.78996 141.3 9.82996 141.26 9.86996C141.21 9.91996 141.17 9.95996 141.13 9.99996C141.08 10.05 141.04 10.09 141 10.13C140.95 10.18 140.9 10.22 140.87 10.26C140.82 10.31 140.78 10.35 140.74 10.39C140.68 10.45 140.63 10.5 140.58 10.55C140.55 10.57 140.52 10.61 140.48 10.65C140.44 10.69 140.4 10.73 140.37 10.76L140.41 9.88996C140.42 9.59996 140.36 9.30997 140.24 9.04996L139.36 7.18996C139.35 7.16996 139.34 7.13996 139.33 7.11996C138.85 6.20996 138.23 5.33996 137.49 4.53996C137.25 4.27996 136.99 4.01996 136.72 3.76996C136.45 3.51996 136.17 3.27996 135.89 3.05996C135.32 2.60996 134.73 2.23996 134.14 1.93996C133.83 1.78996 133.52 1.64996 133.21 1.53996C132.81 1.39996 132.4 1.27996 131.98 1.16996C131.42 1.01996 130.77 0.889961 129.99 0.779961C129.23 0.659961 128.52 0.579963 127.83 0.539963C127.39 0.509963 126.99 0.499962 126.62 0.499962C126.52 0.499962 126.42 0.499962 126.33 0.499962C125.84 0.509962 125.41 0.549965 125.03 0.619965C123.97 0.799965 122.93 1.14996 121.94 1.64996C120.97 2.13996 120.03 2.78996 119.14 3.57996C118.71 3.95996 118.31 4.35996 117.94 4.77996C117.89 4.81996 117.85 4.86997 117.81 4.90997C117.76 4.95997 117.72 4.99996 117.68 5.03996C117.63 5.08996 117.59 5.12996 117.55 5.16996C117.5 5.21996 117.46 5.25996 117.42 5.29996C117.37 5.34997 117.33 5.38996 117.29 5.42996C117.24 5.47996 117.2 5.51996 117.16 5.55996C117.11 5.60996 117.07 5.64996 117.03 5.68996C116.98 5.73996 116.94 5.77996 116.9 5.81996C116.85 5.86996 116.81 5.90996 116.77 5.94996C116.72 5.99996 116.68 6.03996 116.64 6.07996C116.59 6.12996 116.55 6.16996 116.51 6.20996C116.46 6.25996 116.42 6.29996 116.38 6.33996C116.33 6.38996 116.29 6.42996 116.25 6.46996C116.2 6.51996 116.16 6.55996 116.12 6.59996C116.07 6.64996 116.03 6.68997 115.99 6.72997C115.94 6.77997 115.9 6.81996 115.86 6.85996C115.81 6.90996 115.77 6.94996 115.73 6.98996C115.68 7.03996 115.64 7.07996 115.6 7.11996C115.55 7.16996 115.51 7.20996 115.47 7.24996C115.42 7.29996 115.38 7.33996 115.34 7.37996C115.29 7.42996 115.25 7.46996 115.21 7.50996C115.16 7.55996 115.12 7.59996 115.08 7.63996C115.03 7.68996 114.99 7.72996 114.95 7.76996C114.9 7.81996 114.86 7.85996 114.82 7.89996C114.77 7.94996 114.73 7.98996 114.69 8.02996C114.64 8.07996 114.6 8.11997 114.56 8.15997C114.51 8.20997 114.47 8.24996 114.43 8.28996C114.38 8.33996 114.34 8.37996 114.3 8.41996C114.25 8.46996 114.21 8.50996 114.17 8.54996C114.12 8.59997 114.08 8.63996 114.04 8.67996C113.99 8.72996 113.95 8.76996 113.91 8.80996C113.86 8.85996 113.82 8.89996 113.78 8.93996C113.73 8.98996 113.69 9.02996 113.65 9.06996C113.6 9.11996 113.56 9.15996 113.52 9.19996C113.47 9.24996 113.43 9.28996 113.39 9.32996C113.34 9.37996 113.3 9.41996 113.26 9.45996C113.21 9.50996 113.17 9.54996 113.13 9.58996C113.08 9.63996 113.04 9.67996 113 9.71996C112.95 9.76996 112.91 9.80996 112.87 9.84996C112.82 9.89996 112.78 9.93997 112.74 9.97997C112.69 10.03 112.65 10.07 112.61 10.11C112.56 10.16 112.52 10.2 112.48 10.24C112.43 10.29 112.39 10.33 112.35 10.37C112.3 10.42 112.26 10.46 112.22 10.5C112.17 10.55 112.13 10.59 112.09 10.63C112.04 10.68 112 10.72 111.96 10.76C111.91 10.81 111.87 10.85 111.83 10.89C111.78 10.94 111.74 10.98 111.7 11.02C111.65 11.07 111.61 11.11 111.57 11.15C111.5 11.21 111.45 11.27 111.39 11.33C110.35 12.47 109.51 13.77 108.9 15.18C108.84 15.09 108.78 15.01 108.72 14.92C108.41 14.47 108.07 14.02 107.72 13.54C107 12.59 106.32 11.77 105.69 11.09C105.02 10.36 104.4 9.78996 103.81 9.34996C102.46 8.31996 100.88 7.39996 99.11 6.60996C98.24 6.21996 97.31 5.85996 96.34 5.52996C95.38 5.19996 94.35 4.89996 93.29 4.62996C92.76 4.49996 92.23 4.36996 91.7 4.25996C91.17 4.14996 90.64 4.03996 90.11 3.94996C89.05 3.75996 87.98 3.61996 86.92 3.51996C85.59 3.38996 84.25 3.32996 82.93 3.32996C82.14 3.32996 81.34 3.34996 80.55 3.39996L79.98 3.42996C79.96 3.42996 79.93 3.42996 79.91 3.43996C79.03 3.52996 78.29 3.59996 77.7 3.66996C77.09 3.73996 76.64 3.78996 76.33 3.82996C76.05 3.86996 75.87 3.89996 75.77 3.91996C75.71 3.92996 75.66 3.94996 75.6 3.96996C75.39 4.03996 75.13 4.13996 74.82 4.25996C74.68 4.31996 74.53 4.37996 74.36 4.44996C73.57 4.78996 72.5 5.29996 71.17 5.94996C69.54 6.74996 68.33 7.39997 67.47 7.90997C67.18 8.08997 66.93 8.24996 66.72 8.39996C65.25 9.34996 64.14 10.83 63.41 12.79C63.35 12.95 63.29 13.12 63.24 13.3C62.05 13.91 61.14 14.41 60.48 14.82C60.32 14.48 60.14 14.14 59.96 13.81C59.96 13.81 59.96 13.8 59.95 13.8C58.56 11.29 56.79 9.22996 54.67 7.69996C52.56 6.15996 49.97 4.90996 46.97 3.99996C43.99 3.08996 41.05 2.62996 38.2 2.62996C36.55 2.62996 35 2.78996 33.58 3.09996C26.92 4.59996 21.52 7.33996 17.52 11.24C17.13 11.61 16.73 12.01 16.35 12.41C16.29 12.47 16.25 12.51 16.21 12.55C16.15 12.6 16.11 12.64 16.08 12.68C16.02 12.74 15.99 12.77 15.95 12.81C15.89 12.87 15.85 12.9 15.82 12.94C15.76 12.99 15.72 13.03 15.69 13.07C15.63 13.13 15.6 13.16 15.56 13.2C15.5 13.26 15.46 13.29 15.43 13.33C15.37 13.39 15.33 13.42 15.3 13.46C15.24 13.52 15.2 13.55 15.17 13.59C15.11 13.65 15.07 13.68 15.04 13.72C14.98 13.78 14.94 13.81 14.91 13.85C14.85 13.9 14.81 13.94 14.78 13.98C14.72 14.04 14.69 14.07 14.65 14.11C14.59 14.17 14.55 14.2 14.52 14.24C14.46 14.29 14.42 14.33 14.39 14.37C14.33 14.43 14.3 14.46 14.26 14.5C14.2 14.56 14.16 14.6 14.13 14.63C14.07 14.69 14.03 14.72 14 14.76C13.94 14.82 13.9 14.85 13.87 14.89C13.81 14.95 13.77 14.98 13.74 15.02C13.68 15.08 13.64 15.11 13.61 15.15C13.55 15.2 13.51 15.24 13.48 15.28C13.42 15.34 13.39 15.37 13.35 15.41C13.29 15.47 13.25 15.5 13.22 15.54C13.16 15.59 13.12 15.63 13.09 15.67C13.03 15.73 13 15.76 12.96 15.8C12.9 15.86 12.86 15.89 12.83 15.93C12.77 15.99 12.73 16.02 12.7 16.06C12.64 16.12 12.6 16.15 12.57 16.19C12.51 16.25 12.47 16.28 12.44 16.32C12.38 16.38 12.34 16.42 12.31 16.45C12.25 16.5 12.22 16.54 12.18 16.58C12.12 16.64 12.09 16.67 12.05 16.71C11.99 16.77 11.95 16.8 11.92 16.84C11.86 16.9 11.82 16.94 11.79 16.97C11.73 17.03 11.7 17.06 11.66 17.1C11.6 17.16 11.56 17.19 11.53 17.23C11.47 17.29 11.43 17.33 11.39 17.37C11.33 17.42 11.3 17.46 11.26 17.5C11.2 17.56 11.16 17.6 11.13 17.63C11.07 17.69 11.03 17.73 11 17.76C10.94 17.81 10.91 17.85 10.87 17.89C10.81 17.95 10.78 17.98 10.74 18.02C10.68 18.08 10.64 18.12 10.61 18.15C10.55 18.21 10.51 18.25 10.48 18.28C10.42 18.34 10.39 18.37 10.35 18.41C10.29 18.47 10.25 18.5 10.22 18.54C10.16 18.6 10.12 18.64 10.08 18.68C10.02 18.73 9.99001 18.77 9.95001 18.81C9.89001 18.87 9.85001 18.9 9.82001 18.94C4.01001 24.96 0.849993 32.66 0.429993 41.83C0.379993 42.55 0.359985 43.48 0.359985 44.64C0.359985 46.3 0.609985 48.34 1.10999 50.87C2.21999 56.12 3.52002 59.85 5.08002 62.31C5.85002 63.46 7.07999 64.84 8.85999 66.55C10.62 68.23 12.01 69.41 13.12 70.15C14.98 71.37 16.86 72.19 18.72 72.6C20.51 72.99 23.08 73.18 26.59 73.18C30.85 73.18 33.73 72.89 35.38 72.28L36.88 71.75L38.57 72.57C40.32 73.45 42.23 73.9 44.23 73.9H44.52C47.96 73.9 50.67 73.09 52.59 71.49C53.02 71.15 53.39 70.8 53.72 70.41C53.76 70.37 53.8 70.33 53.84 70.29C53.89 70.25 53.93 70.2 53.97 70.16C54.02 70.12 54.06 70.07 54.1 70.03C54.15 69.99 54.19 69.94 54.23 69.9C54.28 69.86 54.32 69.81 54.36 69.77C54.41 69.72 54.45 69.68 54.49 69.64C54.54 69.6 54.58 69.55 54.62 69.51C54.67 69.47 54.71 69.42 54.75 69.38C54.8 69.34 54.84 69.29 54.88 69.25C54.93 69.21 54.97 69.16 55.01 69.12C55.06 69.08 55.1 69.03 55.14 68.99C55.19 68.95 55.23 68.9 55.27 68.86C55.32 68.82 55.36 68.77 55.4 68.73C55.45 68.69 55.49 68.64 55.53 68.6C55.58 68.56 55.62 68.51 55.66 68.47C55.71 68.42 55.75 68.38 55.79 68.34C55.84 68.3 55.88 68.25 55.92 68.21C55.97 68.17 56.01 68.12 56.05 68.08C56.1 68.04 56.14 67.99 56.18 67.95C56.23 67.91 56.27 67.86 56.31 67.82C56.36 67.78 56.4 67.73 56.44 67.69C56.49 67.65 56.53 67.6 56.57 67.56C56.62 67.51 56.66 67.47 56.7 67.43C56.75 67.39 56.79 67.34 56.83 67.3C56.88 67.26 56.92 67.21 56.96 67.17C57.01 67.13 57.05 67.08 57.09 67.04C57.14 67 57.18 66.95 57.22 66.91C57.27 66.87 57.31 66.82 57.35 66.78C57.4 66.74 57.44 66.69 57.48 66.65C57.53 66.61 57.57 66.56 57.61 66.52C57.66 66.48 57.7 66.43 57.74 66.39C57.79 66.35 57.83 66.3 57.87 66.26C57.92 66.22 57.96 66.17 58 66.13C58.05 66.09 58.09 66.04 58.13 66C58.18 65.96 58.22 65.91 58.26 65.87C58.31 65.83 58.35 65.78 58.39 65.74C58.44 65.7 58.48 65.65 58.52 65.61C58.57 65.57 58.61 65.52 58.65 65.48C58.69 65.44 58.73 65.4 58.77 65.36C59.03 66.66 59.22 67.29 59.37 67.69C59.87 69.14 60.92 70.58 62.59 72.06C63.87 73.25 65.23 74.08 66.59 74.47C67.66 74.78 69.01 74.93 70.73 74.93C71.1 74.93 71.48 74.92 71.88 74.91L72.57 74.87C78.89 74.5 83.08 72.15 85.02 67.87C85.17 67.52 85.3 67.19 85.42 66.88C85.53 66.84 85.63 66.8 85.73 66.76C85.8 66.73 85.87 66.7 85.94 66.67C86.07 66.77 86.21 66.88 86.35 67C90.77 70.66 94.56 72.44 97.9 72.44C98.08 72.44 98.25 72.43 98.42 72.42C99.02 72.38 99.5 72.33 99.88 72.25C102.83 71.73 105.15 70.35 106.8 68.13C107.49 67.21 108.02 66.17 108.39 65.05C108.64 64.97 108.89 64.88 109.13 64.78L109.2 64.75C109.77 64.52 110.3 64.24 110.79 63.94L110.89 63.88C111.41 63.54 111.87 63.19 112.28 62.81C112.32 62.77 112.36 62.74 112.39 62.7C112.65 62.46 112.88 62.21 113.11 61.95C115.28 64.35 117.98 66.27 121.18 67.68C121.2 67.69 121.22 67.7 121.25 67.71C122.25 68.1 124.14 68.57 127.2 69.19C128.8 69.5 130.26 69.7 131.56 69.79C132.14 69.83 132.77 69.85 133.44 69.85C134.17 69.85 134.96 69.83 135.81 69.78C139.4 69.57 142.19 69.06 144.35 68.24C146.51 67.41 148.76 65.98 151.05 63.99C151.29 63.77 151.5 63.56 151.71 63.36L151.92 63.16L152.11 62.98C152.32 62.79 152.52 62.59 152.72 62.39L152.85 62.26L152.98 62.13L153.12 61.99L153.25 61.86L153.38 61.73L153.41 61.7L153.51 61.6L153.64 61.47L153.77 61.34L153.9 61.21L154.03 61.08L154.16 60.95L154.29 60.82L154.43 60.68L154.56 60.55L154.69 60.42L154.72 60.39L154.82 60.29L154.95 60.16L154.98 60.13L155.09 60.02L155.22 59.89L155.35 59.76L155.37 59.74L155.48 59.63L155.61 59.5L155.74 59.37L155.87 59.24L156 59.11L156.03 59.08L156.13 58.98L156.26 58.85L156.29 58.82L156.4 58.71L156.53 58.58L156.66 58.45L156.79 58.32L156.92 58.19L157.05 58.06L157.18 57.93L157.31 57.8L157.44 57.67L157.46 57.65L157.57 57.54L157.6 57.51L157.71 57.4L157.84 57.27L157.97 57.14L158.1 57.01L158.13 56.98L158.24 56.87L158.37 56.74L158.5 56.61L158.63 56.48L158.76 56.35L158.78 56.33L158.89 56.22L158.92 56.19L159.03 56.08L159.23 55.88C159.28 55.83 159.34 55.77 159.39 55.7L159.46 55.63C159.8 55.27 160.12 54.9 160.42 54.55C160.5 54.45 160.59 54.35 160.67 54.25C160.56 56.06 160.49 57.58 160.47 58.81C160.35 65.07 162.52 69.13 166.91 70.87C168.02 71.27 169.2 71.54 170.48 71.68C171.3 71.77 172.08 71.81 172.79 71.81C174 71.81 175.08 71.68 176.02 71.44C178.62 70.83 180.6 69.76 181.91 68.27C181.96 68.23 182 68.19 182.04 68.14C182.09 68.1 182.13 68.05 182.17 68.01C182.22 67.97 182.26 67.92 182.3 67.88C182.35 67.84 182.39 67.79 182.43 67.75C182.48 67.71 182.52 67.66 182.56 67.62C182.61 67.58 182.65 67.53 182.69 67.49C182.74 67.45 182.78 67.4 182.82 67.36C182.87 67.32 182.91 67.27 182.95 67.23C183 67.19 183.04 67.14 183.08 67.1C183.13 67.06 183.17 67.01 183.21 66.97C183.26 66.93 183.3 66.88 183.34 66.84C183.39 66.8 183.43 66.75 183.47 66.71C183.52 66.67 183.56 66.62 183.6 66.58C183.65 66.54 183.69 66.49 183.73 66.45C183.78 66.41 183.82 66.36 183.86 66.32C183.91 66.28 183.95 66.23 183.99 66.19C184.04 66.15 184.08 66.1 184.12 66.06C184.17 66.02 184.21 65.97 184.25 65.93C184.3 65.89 184.34 65.84 184.38 65.8C184.43 65.76 184.47 65.71 184.51 65.67C184.56 65.63 184.6 65.58 184.64 65.54C184.69 65.5 184.73 65.45 184.77 65.41C184.82 65.37 184.86 65.32 184.9 65.28C184.95 65.24 184.99 65.19 185.03 65.15C185.08 65.11 185.12 65.06 185.16 65.02C185.21 64.98 185.25 64.93 185.29 64.89C185.34 64.85 185.38 64.8 185.42 64.76C185.47 64.72 185.51 64.67 185.55 64.63C185.6 64.59 185.64 64.54 185.68 64.5C185.73 64.46 185.77 64.41 185.81 64.37C185.86 64.33 185.9 64.28 185.94 64.24C185.99 64.2 186.03 64.15 186.07 64.11C186.12 64.07 186.16 64.02 186.2 63.98C186.25 63.94 186.29 63.89 186.33 63.85C186.38 63.81 186.42 63.76 186.46 63.72C186.51 63.68 186.55 63.63 186.59 63.59C186.64 63.55 186.68 63.5 186.72 63.46C186.77 63.42 186.81 63.37 186.85 63.33C186.9 63.29 186.94 63.24 186.98 63.2C187.03 63.16 187.07 63.11 187.11 63.07C187.16 63.03 187.2 62.98 187.24 62.94C187.29 62.9 187.33 62.85 187.37 62.81C187.42 62.77 187.46 62.72 187.5 62.68C187.55 62.64 187.59 62.59 187.63 62.55C187.68 62.51 187.72 62.46 187.76 62.42C187.81 62.38 187.85 62.33 187.89 62.29C187.94 62.25 187.98 62.2 188.02 62.16C188.07 62.12 188.11 62.07 188.15 62.03C188.2 61.99 188.24 61.94 188.28 61.9C188.33 61.86 188.37 61.81 188.42 61.76C188.48 61.71 188.53 61.65 188.58 61.59C188.92 61.2 189.24 60.75 189.53 60.25C189.67 60.01 189.81 59.76 189.94 59.49C190.19 58.97 190.43 58.4 190.64 57.79C190.74 57.49 190.85 57.18 190.94 56.85C191.09 56.34 191.23 55.8 191.36 55.23C193.49 54.53 195.58 53.53 197.6 52.23C199.34 51.11 200.94 49.83 202.36 48.42L202.41 48.37L202.55 48.23L202.66 48.12L202.78 48L202.82 47.96L202.91 47.87L202.95 47.83L203.04 47.74L203.08 47.7L203.17 47.61L203.21 47.57L203.3 47.48L203.34 47.44L203.43 47.35L203.48 47.3L203.57 47.21L203.62 47.16L203.72 47.06L203.76 47.02L203.86 46.92L203.9 46.88L203.99 46.79L204.03 46.75L204.12 46.66L204.16 46.62L204.25 46.53L204.29 46.49L204.38 46.4L204.42 46.36L204.51 46.27L204.55 46.23L204.64 46.14L204.68 46.1L204.78 46L204.82 45.96L204.91 45.87L204.95 45.83L205.04 45.74L205.09 45.69L205.19 45.59L205.23 45.55L205.33 45.45L205.47 45.31L205.59 45.19L205.63 45.15L205.72 45.06L205.76 45.02L205.85 44.93L205.89 44.89L205.98 44.8L206.02 44.76L206.12 44.66L206.16 44.62L206.25 44.53L206.29 44.49L206.38 44.4L206.42 44.36L206.51 44.27L206.55 44.23L206.65 44.13L206.79 43.99L206.91 43.87L206.95 43.83L207.04 43.74L207.08 43.7L207.18 43.6L207.22 43.56L207.32 43.46L207.45 43.33L207.49 43.29L207.59 43.19L207.63 43.15L207.72 43.06L207.76 43.02L207.85 42.93L207.89 42.89L207.99 42.79L208.12 42.66L208.16 42.62L208.25 42.53L208.29 42.49L208.38 42.4L208.42 42.36L208.52 42.26L208.56 42.22L208.65 42.13L208.69 42.09L208.78 42L208.82 41.96L208.91 41.87L208.95 41.83L209.08 41.7L209.12 41.66C209.54 45.93 210.03 49.05 210.64 51.17C211.76 54.85 212.92 57.78 214.09 59.89C215.29 62.06 216.82 64 218.63 65.66C220.74 67.57 223.15 68.83 225.8 69.41C227.31 69.74 229.13 69.9 231.2 69.9C232.59 69.9 234.14 69.83 235.79 69.68C240.62 69.2 244.51 68.37 247.39 67.2C249.67 66.28 251.79 64.92 253.69 63.17C253.93 62.95 254.18 62.71 254.43 62.46L254.48 62.41L254.54 62.36L254.68 62.23L254.71 62.2L254.81 62.1L254.84 62.07L254.94 61.97L254.97 61.94L255.07 61.84L255.11 61.8L255.21 61.7L255.25 61.66L255.34 61.57L255.38 61.53L255.47 61.44L255.51 61.4L255.6 61.31L255.64 61.27L255.74 61.17L255.77 61.14L255.87 61.04L255.9 61.01L256 60.91L256.03 60.88L256.13 60.78L256.16 60.75L256.26 60.65L256.29 60.62L256.39 60.52L256.43 60.48L256.53 60.38L256.57 60.34L256.67 60.24L256.71 60.2L256.8 60.11L256.84 60.07L256.93 59.98L256.97 59.94L257.07 59.84L257.1 59.81L257.2 59.71L257.23 59.68L257.33 59.58L257.36 59.55L257.46 59.45L257.49 59.42L257.59 59.32L257.62 59.29L257.72 59.19L257.76 59.15L257.86 59.05L257.9 59.01L258 58.91L258.04 58.87L258.13 58.78L258.17 58.74L258.26 58.65L258.3 58.61L258.4 58.51L258.43 58.48L258.53 58.38L258.56 58.35L258.66 58.25L258.69 58.22L258.79 58.12L258.82 58.09L258.92 57.99L258.95 57.96L259.05 57.86L259.08 57.83L259.18 57.73L259.22 57.7L259.32 57.6L259.36 57.56L259.45 57.47L259.49 57.43L259.58 57.34L259.62 57.3L259.72 57.2L259.75 57.17L259.85 57.07L259.88 57.04L259.98 56.94L260.01 56.91L260.11 56.81L260.14 56.78L260.24 56.68L260.27 56.65L260.37 56.55L260.41 56.51L260.51 56.41L260.54 56.38L260.64 56.28L260.68 56.24L260.76 56.16C261.15 57.52 261.7 58.95 262.42 60.44C263.81 63.33 265.82 65.9 268.39 68.08C270.95 70.26 273.88 71.88 277.11 72.9C278.81 73.48 281.01 73.77 283.82 73.77H285.68C289.64 73.77 292.56 73.44 294.63 72.75C298.3 71.53 301.37 69.7 303.76 67.31L303.85 67.22L303.89 67.18L303.99 67.09L304.03 67.05L304.12 66.96L304.16 66.92L304.25 66.83L304.29 66.79L304.38 66.7L304.42 66.66L304.51 66.57L304.55 66.53L304.64 66.44L304.68 66.4L304.77 66.31L304.81 66.27L304.91 66.17L304.95 66.13L305.04 66.04L305.08 66L305.18 65.9L305.3 65.78L305.34 65.74L305.44 65.64L305.48 65.6L305.57 65.51L305.61 65.47L305.7 65.38L305.74 65.34L305.83 65.25L305.87 65.21L305.96 65.12L306 65.08L306.09 64.99L306.13 64.95L306.23 64.85L306.27 64.81L306.36 64.72L306.4 64.68L306.5 64.58L306.54 64.54L306.63 64.45L306.67 64.41L306.77 64.31L306.81 64.27L306.9 64.18L306.94 64.14L307.03 64.05L307.07 64.01L307.16 63.92L307.2 63.88L307.29 63.79L307.33 63.75L307.42 63.66L307.46 63.62L307.55 63.53L307.59 63.49L307.68 63.4L307.72 63.36L307.82 63.26L307.86 63.22L307.95 63.13L307.99 63.09L308.08 63L308.12 62.96L308.22 62.86L308.35 62.73L308.39 62.69L308.48 62.6L308.52 62.56L308.61 62.47L308.65 62.43L308.74 62.34L308.78 62.3L308.87 62.21L308.91 62.17L309 62.08L309.04 62.04L309.14 61.94L309.18 61.9L309.27 61.81L309.31 61.77L309.4 61.68L309.44 61.64L309.54 61.54L309.67 61.41L309.71 61.37L309.8 61.28L309.84 61.24L309.93 61.15L309.97 61.11L310.06 61.02L310.1 60.98L310.19 60.89L310.23 60.85L310.32 60.76L310.36 60.72C310.72 60.37 311.06 60.01 311.37 59.65C311.37 59.65 311.37 59.65 311.38 59.64L311.39 59.63C312.41 58.45 313.39 56.92 314.33 55.06C315.3 53.14 315.88 51.56 316.11 50.23C316.18 49.87 316.21 49.38 316.21 48.69C316.21 45.65 315.45 42.59 313.94 39.57C312.85 37.38 311.42 35.45 309.69 33.83L309.6 33.75C309.41 33.57 309.22 33.4 309.02 33.23C308.81 33.05 308.58 32.86 308.34 32.66L308.32 32.64C308.34 32.62 308.36 32.6 308.38 32.58C308.4 32.56 308.43 32.53 308.45 32.51C308.47 32.49 308.49 32.47 308.51 32.45C308.53 32.43 308.56 32.41 308.58 32.38C308.6 32.36 308.62 32.34 308.64 32.31C308.66 32.29 308.69 32.27 308.71 32.24C308.73 32.22 308.75 32.2 308.77 32.18C308.8 32.16 308.82 32.13 308.85 32.11C308.87 32.09 308.89 32.07 308.91 32.05C308.93 32.03 308.96 32.01 308.98 31.98C309 31.96 309.02 31.94 309.04 31.92C309.07 31.9 309.09 31.87 309.11 31.85C309.13 31.83 309.15 31.81 309.17 31.79C309.2 31.77 309.22 31.74 309.25 31.72C309.27 31.7 309.29 31.68 309.31 31.66C309.34 31.64 309.36 31.61 309.39 31.59C309.41 31.57 309.43 31.55 309.45 31.53C309.47 31.51 309.5 31.49 309.52 31.46C309.54 31.44 309.56 31.42 309.58 31.39C309.61 31.37 309.63 31.34 309.65 31.32C309.67 31.3 309.69 31.28 309.71 31.26C309.73 31.24 309.76 31.21 309.78 31.19C309.8 31.17 309.82 31.15 309.84 31.13C309.86 31.11 309.89 31.09 309.91 31.06C309.93 31.04 309.95 31.02 309.97 30.99C309.99 30.97 310.02 30.95 310.04 30.92C310.06 30.9 310.08 30.88 310.1 30.86C310.13 30.84 310.15 30.81 310.18 30.79C310.2 30.77 310.22 30.75 310.24 30.73C310.26 30.71 310.29 30.69 310.31 30.66C310.33 30.64 310.35 30.62 310.37 30.6C310.4 30.58 310.42 30.55 310.44 30.53C310.46 30.51 310.48 30.49 310.5 30.47C310.53 30.45 310.55 30.42 310.58 30.4C310.6 30.38 310.62 30.36 310.64 30.34C310.66 30.32 310.69 30.29 310.71 30.27C310.73 30.25 310.75 30.23 310.77 30.21C310.79 30.19 310.82 30.17 310.84 30.14C310.86 30.12 310.88 30.1 310.9 30.07C310.93 30.05 310.95 30.02 310.97 30C310.99 29.98 311.01 29.96 311.03 29.94C311.05 29.92 311.08 29.9 311.1 29.87C311.12 29.85 311.14 29.83 311.16 29.81C311.18 29.79 311.21 29.77 311.23 29.74C312.77 28.2 313.55 26.28 313.55 24.03C313.55 23.31 313.47 22.48 313.31 21.57C312.63 17.56 310.72 13.87 307.61 10.61C304.54 7.37996 300.84 5.11996 296.64 3.88996C294.64 3.30996 292.13 3.02996 288.97 3.02996C286.77 3.02996 285.15 3.15996 284 3.42996C281.28 3.98996 278.98 4.74996 277.17 5.70996C275.33 6.67996 273.53 8.08996 271.83 9.89996C271.78 9.94996 271.74 9.98996 271.7 10.03C271.7 10.03 271.7 10.03 271.69 10.04C271.64 10.08 271.6 10.12 271.56 10.17L271.55 10.18C271.51 10.22 271.47 10.26 271.43 10.3L271.42 10.31C271.38 10.35 271.34 10.38 271.3 10.43C271.24 10.49 271.21 10.52 271.17 10.56C271.11 10.62 271.07 10.66 271.03 10.7C271.03 10.7 271.03 10.7 271.02 10.71C270.98 10.75 270.93 10.79 270.89 10.84C270.84 10.89 270.8 10.93 270.76 10.97C270.7 11.03 270.66 11.07 270.62 11.11C270.57 11.16 270.53 11.2 270.49 11.24C270.48 11.25 270.48 11.25 270.47 11.26C270.44 11.29 270.4 11.33 270.36 11.37C270.35 11.38 270.35 11.39 270.34 11.39C270.31 11.41 270.27 11.46 270.23 11.5L270.22 11.51C270.18 11.55 270.14 11.59 270.1 11.63L270.09 11.64C270.05 11.68 270.01 11.72 269.97 11.76C269.92 11.81 269.88 11.85 269.84 11.89C269.78 11.95 269.74 11.99 269.7 12.03C269.7 12.03 269.7 12.03 269.69 12.04C269.65 12.08 269.61 12.12 269.57 12.16C269.51 12.22 269.47 12.26 269.43 12.3C269.38 12.35 269.34 12.39 269.3 12.43C269.25 12.48 269.21 12.52 269.17 12.56C269.16 12.57 269.16 12.57 269.15 12.58C269.12 12.61 269.08 12.65 269.04 12.69C269.03 12.7 269.03 12.71 269.02 12.71C268.99 12.73 268.95 12.78 268.91 12.82L268.9 12.83C268.86 12.87 268.82 12.91 268.78 12.95L268.77 12.96C268.73 13 268.69 13.04 268.65 13.08C268.6 13.13 268.56 13.17 268.52 13.21C268.46 13.27 268.42 13.31 268.38 13.35L268.37 13.36C268.33 13.4 268.29 13.44 268.25 13.48C268.24 13.49 268.24 13.49 268.23 13.5C268.2 13.52 268.16 13.57 268.12 13.61C268.07 13.66 268.03 13.7 267.99 13.74C267.94 13.79 267.9 13.83 267.86 13.87C267.85 13.88 267.85 13.88 267.84 13.89C267.81 13.92 267.77 13.95 267.73 14C267.67 14.06 267.63 14.09 267.59 14.14L267.58 14.15C267.53 14.19 267.49 14.23 267.45 14.28L267.44 14.29C267.4 14.33 267.36 14.37 267.32 14.41C267.27 14.46 267.23 14.5 267.19 14.54C267.13 14.6 267.09 14.64 267.05 14.68L267.04 14.69C267 14.73 266.96 14.77 266.92 14.81C266.91 14.82 266.91 14.82 266.9 14.83C266.87 14.85 266.83 14.89 266.79 14.94C266.73 15 266.69 15.04 266.65 15.08C266.6 15.13 266.56 15.17 266.52 15.21L266.51 15.22C266.47 15.26 266.43 15.3 266.39 15.34C266.39 15.34 266.39 15.34 266.38 15.35C266.34 15.39 266.3 15.43 266.26 15.47L266.25 15.48C266.21 15.52 266.16 15.56 266.12 15.61L266.11 15.62C266.07 15.65 266.03 15.69 265.99 15.73C265.93 15.79 265.89 15.82 265.85 15.87L265.84 15.88C265.8 15.92 265.76 15.96 265.72 16L265.71 16.01C265.67 16.05 265.63 16.09 265.59 16.13C265.58 16.14 265.58 16.14 265.57 16.15C265.54 16.17 265.5 16.21 265.46 16.26C265.4 16.32 265.36 16.36 265.32 16.4C265.31 16.41 265.31 16.41 265.3 16.42C265.27 16.45 265.23 16.49 265.19 16.53L265.18 16.54C265.14 16.58 265.1 16.62 265.06 16.66C264.73 17 264.43 17.35 264.13 17.71C264.02 17.49 263.91 17.26 263.8 17.04L263.7 16.84C263.6 16.63 263.49 16.42 263.38 16.22C263.06 15.6 262.75 15.04 262.44 14.52C262.44 14.52 262.44 14.51 262.43 14.51C261.61 13.16 260.75 11.95 259.87 10.89C259.42 10.35 258.95 9.84996 258.48 9.37996C258.01 8.90996 257.51 8.45996 257.02 8.05996C256.2 7.36996 255.31 6.71996 254.41 6.13996C252.14 4.67996 249.66 3.58997 247.02 2.90997C246.5 2.76997 245.96 2.64996 245.41 2.54996C244.88 2.45996 244.33 2.38996 243.75 2.33996C243.18 2.28996 242.57 2.26996 241.93 2.25996H241.58C240.41 2.25996 239.11 2.31996 237.7 2.44996C234.97 2.68996 232.63 3.10996 230.75 3.67996C230.04 3.89996 229.35 4.15996 228.67 4.44996C226.65 5.30996 224.7 6.50996 222.87 7.99996C222.86 8.00996 222.85 8.01996 222.84 8.01996C222.49 8.30996 222.17 8.57996 221.87 8.85996C221.86 8.86996 221.83 8.89997 221.82 8.90997C221.52 9.17997 221.23 9.45996 220.93 9.75996L220.85 9.83996L220.81 9.87996L220.72 9.96996L220.68 10.01L220.59 10.1L220.55 10.14L220.46 10.23L220.42 10.27L220.33 10.36L220.29 10.4L220.2 10.49L220.16 10.53L220.07 10.62L220.03 10.66L219.94 10.75L219.9 10.79L219.81 10.88L219.77 10.92L219.68 11.01L219.64 11.05L219.55 11.14L219.51 11.19L219.42 11.28L219.38 11.32L219.29 11.41L219.25 11.45L219.16 11.54L219.12 11.58L219.03 11.67L218.99 11.71L218.9 11.8L218.86 11.84L218.77 11.93L218.73 11.97L218.64 12.06L218.6 12.1L218.51 12.19L218.47 12.23L218.38 12.32L218.34 12.36L218.25 12.45L218.21 12.5L218.12 12.59L218.08 12.63L217.99 12.72L217.95 12.76L217.86 12.85L217.82 12.89L217.73 12.98L217.69 13.02L217.6 13.11L217.56 13.15L217.47 13.24L217.43 13.28L217.34 13.37L217.3 13.41L217.21 13.5L217.17 13.54L217.08 13.63L217.04 13.67L216.95 13.76L216.91 13.8L216.82 13.89L216.78 13.93L216.69 14.02L216.65 14.06L216.56 14.15L216.52 14.19L216.43 14.28L216.39 14.32L216.3 14.41L216.26 14.45L216.17 14.54L216.13 14.58L216.04 14.67L216 14.71L215.91 14.8L215.87 14.84L215.78 14.93L215.74 14.97L215.65 15.06L215.61 15.1L215.52 15.19L215.48 15.23L215.39 15.32L215.35 15.36L215.26 15.45L215.22 15.49L215.13 15.58L215.09 15.62L215 15.71L214.96 15.75L214.87 15.84L214.83 15.88L214.74 15.97L214.71 16C214.64 15.81 214.57 15.62 214.5 15.44C214.33 15.01 214.16 14.63 213.99 14.28C213.98 14.26 213.97 14.24 213.96 14.23C213.17 12.72 211.96 11.04 210.27 9.08996C208.56 7.11996 207.06 5.73996 205.68 4.88996C204.3 3.97996 202.78 3.17996 201.18 2.53996C200.11 2.10996 198.98 1.72996 197.83 1.41996C197.25 1.25996 196.66 1.11996 196.05 0.98996C194.85 0.73996 193.59 0.539963 192.3 0.399963C191.73 0.339963 191.15 0.289964 190.58 0.259964C190.01 0.229964 189.43 0.209961 188.86 0.209961L188.45 0.269958ZM34.3 34.83C34.37 34.82 34.44 34.82 34.51 34.81C34.67 34.9 35.11 35.2 35.93 36.09C35.95 36.11 35.96 36.12 35.98 36.14C36.12 36.28 36.26 36.42 36.41 36.55C36.36 36.6 36.32 36.63 36.29 36.67C36.23 36.72 36.19 36.77 36.16 36.8C36.1 36.85 36.06 36.89 36.03 36.93C35.97 36.99 35.93 37.03 35.9 37.06C35.84 37.12 35.8 37.16 35.77 37.19C35.71 37.24 35.67 37.28 35.64 37.32C35.58 37.38 35.54 37.42 35.51 37.45C35.45 37.5 35.41 37.55 35.38 37.58C35.32 37.63 35.28 37.67 35.25 37.71C35.19 37.76 35.15 37.8 35.12 37.84C35.06 37.89 35.02 37.94 34.99 37.97C34.93 38.02 34.89 38.07 34.86 38.1C34.8 38.15 34.76 38.19 34.73 38.23C34.67 38.29 34.63 38.33 34.6 38.36C34.56 38.4 34.53 38.43 34.51 38.45C34.36 37.72 34.29 36.86 34.29 35.9C34.29 35.62 34.3 35.36 34.31 35.11C34.28 35.05 34.29 34.94 34.3 34.83C34.3 34.84 34.3 34.84 34.3 34.83Z" fill="black"/>
<path d="M33.7501 5.04987C35.0401 4.75987 36.45 4.61987 37.98 4.61987C40.66 4.61987 43.4 5.04987 46.22 5.90987C49.04 6.76987 51.4301 7.91987 53.3901 9.34987C55.3001 10.7399 56.89 12.5799 58.16 14.8699C59.43 17.1599 60.0601 19.3399 60.0601 21.3899C60.0601 21.4899 60.0501 21.6299 60.0201 21.8199C60.0001 22.0099 59.98 22.1499 59.98 22.2499C59.55 26.8399 56.92 29.4699 52.1 30.1299C50.48 30.3199 49.4701 30.4199 49.0901 30.4199C47.2301 30.4199 45.5301 29.6599 44.0001 28.1299C42.8501 26.8899 41.99 26.2699 41.42 26.2699C39.94 26.2699 38.3001 26.9199 36.5101 28.2099C34.7201 29.4999 33.5401 30.9099 32.9601 32.4399C32.6301 33.2999 32.4601 34.4699 32.4601 35.9499C32.4601 38.0999 32.7901 39.7999 33.4601 41.0399C34.1801 42.4299 35.1701 43.5499 36.4301 44.4099C37.7001 45.2699 38.9301 45.6999 40.1201 45.6999C40.7901 45.6999 41.3401 45.5799 41.7701 45.3399C42.2501 45.0499 42.4901 44.7399 42.4901 44.4099C42.4901 43.8399 41.99 43.3599 40.98 42.9799C39.59 42.4099 38.9001 41.4299 38.9001 40.0399C38.9001 39.7499 38.95 39.2299 39.04 38.4599C39.23 37.1699 39.5801 36.1799 40.0801 35.4899C40.5801 34.7999 41.36 34.1899 42.41 33.6599C43.84 33.0399 46.16 32.7299 49.36 32.7299C53.33 32.7299 56.1701 33.1599 57.8901 34.0199C58.6501 34.4499 59.2501 35.1699 59.6801 36.1699C60.6401 38.2299 61.11 42.3599 61.11 48.5699C61.11 54.2099 60.7001 58.2499 59.8901 60.6799C58.6901 63.9799 55.7101 65.6299 50.9301 65.6299H50.6401C48.9201 65.6299 47.3001 65.2499 45.7701 64.4799L43.4001 63.3299L41.1801 64.1199C39.7501 64.6499 37.0201 64.9099 33.0101 64.9099C29.6601 64.9099 27.1701 64.7299 25.5201 64.3699C23.8701 64.0099 22.21 63.2799 20.54 62.1799C19.54 61.5099 18.2001 60.3799 16.5301 58.7799C14.8601 57.1799 13.6901 55.8799 13.0201 54.8699C11.5901 52.6199 10.34 49.0199 9.29004 44.0499C8.81004 41.6599 8.57007 39.6999 8.57007 38.1699C8.57007 37.0699 8.59008 36.1599 8.64008 35.4499C9.07008 26.1799 12.3701 18.6099 18.5301 12.7299C22.3301 9.03987 27.4001 6.47987 33.7501 5.04987Z" fill="white" stroke="black" stroke-miterlimit="10" stroke-linecap="round" stroke-linejoin="round"/>
<path d="M75.94 5.87009C76.22 5.81009 77.53 5.66008 79.86 5.43008L80.43 5.40009C84.48 5.16009 88.55 5.56008 92.63 6.59008C96.71 7.62008 100 9.09008 102.51 11.0001C103.51 11.7601 104.7 13.0401 106.07 14.8501C107.44 16.6601 108.46 18.2601 109.12 19.6601C109.78 21.1101 110.22 23.3501 110.45 26.4001C110.6 29.0201 110.51 30.9301 110.17 32.1201C109.83 33.3101 108.99 34.6901 107.65 36.2501L106.24 37.9101L107.03 39.0801C108.24 40.8801 109.47 42.9501 110.73 45.2901C111.99 47.6301 112.77 49.2301 113.06 50.0701C113.42 51.2501 113.63 52.4301 113.7 53.6201C113.86 56.3401 113.25 58.6201 111.87 60.4801C110.49 62.3301 108.55 63.4701 106.04 63.9101C105.76 63.9701 105.35 64.0201 104.83 64.0501C101.87 64.2201 98.26 62.5401 93.98 59.0101C92.02 57.4501 90.9901 56.6701 90.9001 56.6801C90.7601 56.6901 90.7 56.9801 90.74 57.5501C90.78 58.1701 90.5 59.1701 89.91 60.5401C88.26 64.1801 84.61 66.1601 78.98 66.4901L78.3401 66.5301C76.2901 66.6001 74.71 66.4801 73.62 66.1601C72.52 65.8401 71.42 65.1601 70.31 64.1301C68.9 62.8701 67.9901 61.6601 67.5801 60.4801C66.9001 58.6101 66.04 52.5501 65.01 42.3201C64.9 41.2301 64.72 39.3901 64.47 36.8201V36.7501C64.05 32.7501 63.76 29.5601 63.62 27.1801C63.5 25.0801 63.51 22.8801 63.67 20.5701C63.88 17.5401 64.28 15.2201 64.88 13.6101C65.48 12.0001 66.36 10.8201 67.51 10.0801C68.24 9.56009 69.66 8.78008 71.75 7.75008C73.84 6.73008 75.24 6.10009 75.94 5.87009ZM88.0201 24.5501C87.4601 23.9601 86.9601 23.6801 86.5301 23.7001C85.7701 23.7401 85.16 24.0901 84.72 24.7401C84.28 25.3901 84.08 26.1401 84.13 27.0001C84.21 28.3801 84.82 29.3501 85.95 29.9101L87.35 30.5501L88.22 29.4901C88.75 28.7401 88.99 27.8901 88.93 26.9401C88.89 25.9801 88.5801 25.1901 88.0201 24.5501Z" fill="white" stroke="black" stroke-miterlimit="10" stroke-linecap="round" stroke-linejoin="round"/>
<path d="M125.26 2.48988C125.84 2.38988 126.63 2.36988 127.63 2.43988C129.54 2.56988 131.17 2.86988 132.53 3.34988C133.51 3.69988 134.48 4.31988 135.42 5.19988C136.37 6.07987 137.11 7.03988 137.67 8.07988L138.55 9.93988L138.1 20.7599C137.71 27.8699 137.72 31.9399 138.13 32.9799C138.54 33.9699 139.06 34.4799 139.68 34.5199C140.35 34.5699 140.95 34.1299 141.49 33.2099C142.03 32.2399 142.6 28.1799 143.18 21.0399L144.2 10.2599L145.4 8.46988C147.14 6.09988 149.68 4.73988 153.01 4.38988C153.97 4.30988 154.86 4.29988 155.67 4.35988C158.72 4.56988 161.18 5.73988 163.05 7.87988C164.6 9.65987 165.59 12.0799 166 15.1199C166.41 18.1699 166.43 22.8599 166.04 29.2099C165.65 34.9299 165.08 39.1099 164.32 41.7399C163.25 45.4999 162.14 48.3899 161 50.4199C159.86 52.4499 158.31 54.3299 156.37 56.0699C154.23 57.9399 152.18 59.2399 150.21 59.9999C148.24 60.7499 145.58 61.2299 142.21 61.4299C140.67 61.5199 139.33 61.5199 138.19 61.4399C136.95 61.3599 135.57 61.1599 134.06 60.8699C131.18 60.2899 129.29 59.8299 128.41 59.4799C124.55 57.7799 121.52 55.3299 119.32 52.1399C117.12 48.9499 115.66 44.8599 114.95 39.8799C114.82 38.9599 114.65 37.9199 114.44 36.7599C114.23 35.5999 114.1 34.7899 114.03 34.3299C113.96 33.8699 113.94 33.0699 113.94 31.9199C113.95 30.7699 113.99 29.2399 114.07 27.3299C114.09 26.9999 114.11 26.5399 114.13 25.9699C114.14 25.3999 114.16 24.9699 114.18 24.6799C114.61 18.4399 115.49 13.5399 116.84 9.98988C117.55 8.06988 118.67 6.42988 120.23 5.04988C121.79 3.63988 123.47 2.78988 125.26 2.48988Z" fill="white" stroke="black" stroke-miterlimit="10" stroke-linecap="round" stroke-linejoin="round"/>
<path d="M185.43 2.20997C187.57 1.99997 189.73 2.01998 191.91 2.24998C196.85 2.76998 201.05 4.17998 204.51 6.46998C205.73 7.21998 207.13 8.50997 208.71 10.34C210.29 12.17 211.45 13.77 212.16 15.14C212.87 16.61 213.47 18.44 213.96 20.63C214.45 22.82 214.66 24.66 214.6 26.14C214.61 26.48 214.58 26.98 214.51 27.64C214.23 30.25 213.14 33.07 211.23 36.09C209.21 39.24 206.57 41.87 203.29 43.97C200.01 46.07 196.65 47.33 193.2 47.73C193 47.76 192.78 47.78 192.54 47.8C191.76 47.86 191.26 48.12 191.02 48.58C190.78 49.04 190.41 50.49 189.91 52.93C189.8 53.54 189.7 54.04 189.61 54.41C189.03 57.18 188.2 59.19 187.13 60.42C186.06 61.65 184.39 62.53 182.13 63.06C180.84 63.4 179.2 63.47 177.21 63.26C176.07 63.14 175.04 62.91 174.11 62.57C170.47 61.13 168.69 57.67 168.8 52.2C168.89 47.26 169.69 37.73 171.18 23.62C171.89 16.92 172.4 13.03 172.71 11.96C173.58 8.77997 174.94 6.46998 176.8 5.00998C178.66 3.53998 181.54 2.60997 185.43 2.20997ZM193.94 21.13C193.49 20.84 193.15 20.69 192.91 20.66C192.53 20.62 192.02 20.88 191.39 21.44C190.71 21.94 190.33 22.58 190.25 23.34C190.17 24.1 190.39 24.77 190.9 25.36C191.32 25.89 191.77 26.17 192.25 26.22C192.91 26.29 193.74 25.8 194.71 24.75C195.08 24.45 195.27 24.19 195.3 23.95C195.33 23.71 195.25 23.32 195.06 22.77C194.71 22.01 194.34 21.46 193.94 21.13Z" fill="white" stroke="black" stroke-miterlimit="10" stroke-linecap="round" stroke-linejoin="round"/>
<path d="M231.17 5.39005C232.94 4.85005 235.14 4.46005 237.76 4.23005C240.76 3.96005 243.16 3.99004 244.96 4.31004C249.01 5.10004 252.62 6.82004 255.78 9.46004C257.59 10.93 259.25 12.92 260.77 15.42C263.65 20.3 265.34 25.52 265.83 31.09C265.96 32.52 266.01 33.95 266 35.39C265.93 39.96 265.48 43.59 264.67 46.3C263.86 49.01 262.51 51.43 260.64 53.57C258.5 55.97 256.07 57.72 253.34 58.83C250.61 59.94 246.91 60.72 242.25 61.18C238.3 61.53 235.15 61.45 232.8 60.94C230.45 60.43 228.34 59.32 226.46 57.62C224.79 56.09 223.4 54.32 222.28 52.31C221.17 50.3 220.07 47.52 218.98 43.97C218.35 41.77 217.83 38.29 217.4 33.53C217.08 29.96 217 27.38 217.14 25.78C217.71 20.36 218.38 16.82 219.15 15.17C220.03 13.17 221.61 11.25 223.89 9.39005C226.18 7.52005 228.61 6.19005 231.17 5.39005ZM241.73 25.39C240.95 24.69 240.39 24.36 240.06 24.39C239.73 24.42 239.22 24.68 238.55 25.17C236.84 26.47 236.09 28.24 236.29 30.48C236.37 31.43 236.62 32.25 237.01 32.93C237.7 34.21 238.77 34.91 240.22 35.02C240.41 35.05 240.65 35.05 240.94 35.03C241.46 34.98 242.07 34.55 242.77 33.72C243.72 32.58 244.13 31.27 244 29.8C243.86 28.22 243.1 26.75 241.73 25.39Z" fill="white" stroke="black" stroke-miterlimit="10" stroke-linecap="round" stroke-linejoin="round"/>
<path d="M284.26 5.19008C285.26 4.95008 286.79 4.83008 288.85 4.83008C291.81 4.83008 294.2 5.09008 296.02 5.62008C299.94 6.77008 303.33 8.85008 306.2 11.8601C309.07 14.8701 310.81 18.2201 311.43 21.9001C311.57 22.7101 311.64 23.4301 311.64 24.0501C311.64 25.8201 311.04 27.3001 309.85 28.4901C308.8 29.5401 307.58 30.0701 306.19 30.0701C304.57 30.0701 302.41 29.2801 299.74 27.7001C296.35 25.6901 294.41 24.6901 293.93 24.6901C293.83 24.6901 293.79 24.7101 293.79 24.7601C293.79 25.2901 296.23 27.0301 301.1 29.9901C304.35 31.9501 306.76 33.6701 308.34 35.1501C309.92 36.6301 311.21 38.3801 312.21 40.3801C313.59 43.1501 314.29 45.9201 314.29 48.6901C314.29 49.2601 314.27 49.6701 314.22 49.9101C314.03 51.0601 313.49 52.5001 312.61 54.2501C311.73 55.9901 310.83 57.3901 309.92 58.4401C307.63 61.0701 304.54 63.0301 300.67 64.3201C298.81 64.9401 296.01 65.2501 292.28 65.2501H290.42C287.84 65.2501 285.78 64.9901 284.25 64.4601C281.24 63.5001 278.54 62.0101 276.15 59.9801C273.76 57.9501 271.92 55.6001 270.63 52.9201C269.2 49.9601 268.48 47.3301 268.48 45.0401C268.48 42.0301 269.67 39.8101 272.06 38.3701C273.02 37.8001 274 37.5101 275 37.5101C277.01 37.5101 280.04 38.7801 284.1 41.3101C286.01 42.5101 287.16 43.1001 287.54 43.1001C287.73 43.1001 287.83 43.0001 287.83 42.8101C287.83 42.2401 286.4 41.1101 283.53 39.4401C278.51 36.5701 274.83 33.6201 272.49 30.5901C270.15 27.5601 268.98 24.1701 268.98 20.4501C268.98 17.0601 270.32 13.9501 272.99 11.1301C274.57 9.46007 276.19 8.18008 277.86 7.30008C279.55 6.42008 281.68 5.72008 284.26 5.19008Z" fill="white" stroke="black" stroke-miterlimit="10" stroke-linecap="round" stroke-linejoin="round"/>
</svg>
