<svg width="272" height="83" viewBox="0 0 272 83" fill="none" xmlns="http://www.w3.org/2000/svg">
<path d="M193.591 81.1102L192.641 81.0201C189.771 80.7301 187.271 79.4702 185.201 77.2802C183.461 75.4402 182.381 73.0401 181.991 70.1401C181.861 68.9501 182.041 65.5602 182.511 59.8002C181.811 60.5902 181.161 61.2802 180.571 61.8602L171.871 70.5602C170.961 71.5002 170.181 72.1902 169.491 72.6802C164.571 76.2802 159.121 78.1102 153.311 78.1102C152.521 78.1102 151.441 78.0102 149.991 77.8002C148.241 77.4902 145.981 76.8802 143.231 75.9802C140.421 75.0602 138.541 74.3002 137.481 73.6702C136.131 72.8902 134.541 71.5802 132.631 69.6802C130.771 67.8202 129.311 66.1302 128.301 64.6602C127.661 63.7002 127.081 62.7102 126.541 61.7002C126.511 61.7802 126.481 61.8502 126.461 61.9202C125.931 63.3702 125.111 64.6002 124.031 65.5702L123.901 65.7002C123.761 65.8402 123.671 65.9301 123.581 66.0101C123.501 66.1001 123.411 66.1902 123.311 66.2802C123.211 66.3801 123.131 66.4702 123.041 66.5502C122.961 66.6302 122.871 66.7302 122.771 66.8202C122.681 66.9102 122.591 67.0002 122.501 67.0902C122.411 67.1802 122.321 67.2702 122.231 67.3602C122.141 67.4602 122.051 67.5501 121.961 67.6301C121.871 67.7301 121.781 67.8201 121.691 67.9001C121.601 68.0001 121.511 68.0802 121.421 68.1702C121.331 68.2702 121.241 68.3602 121.151 68.4402C121.061 68.5402 120.971 68.6202 120.881 68.7102C120.801 68.8002 120.701 68.8902 120.611 68.9802C120.531 69.0702 120.441 69.1601 120.341 69.2501C120.251 69.3501 120.161 69.4401 120.071 69.5201C119.991 69.6001 119.901 69.7002 119.811 69.7902C119.721 69.8902 119.631 69.9802 119.541 70.0602C119.461 70.1502 119.371 70.2402 119.271 70.3302C119.211 70.4002 119.111 70.5002 119.001 70.6002C118.921 70.6802 118.831 70.7801 118.731 70.8701C118.641 70.9701 118.551 71.0601 118.461 71.1401C118.371 71.2401 118.281 71.3302 118.191 71.4102C118.101 71.5102 118.011 71.5902 117.921 71.6802C117.831 71.7802 117.741 71.8702 117.651 71.9502C117.561 72.0502 117.471 72.1302 117.381 72.2202C117.291 72.3202 117.201 72.4101 117.111 72.4901C117.021 72.5901 116.931 72.6701 116.841 72.7601C116.751 72.8601 116.661 72.9501 116.571 73.0302C116.491 73.1102 116.401 73.2102 116.301 73.3002C116.211 73.4002 116.121 73.4902 116.031 73.5702C115.951 73.6502 115.861 73.7502 115.771 73.8402C115.681 73.9402 115.591 74.0302 115.501 74.1102C115.451 74.1802 115.391 74.2402 115.341 74.2902C113.761 75.9702 111.481 76.9502 108.601 77.1602H107.641C104.761 77.1602 102.141 76.1602 99.8614 74.2002C97.9414 72.5502 96.6214 70.2702 95.9414 67.4202C95.7514 66.5002 95.6014 64.2502 95.4914 60.5502C95.4114 60.6302 95.0913 60.9502 95.0014 61.0402C94.9014 61.1402 94.8114 61.2302 94.7114 61.3302C94.6314 61.4102 94.2614 61.7801 94.1714 61.8701C94.0914 61.9501 94.0114 62.0401 93.9214 62.1201C93.8114 62.2301 93.7113 62.3302 93.6114 62.4302C93.5613 62.4902 93.4714 62.5802 93.3814 62.6602C93.2714 62.7702 93.1713 62.8702 93.0714 62.9702C93.0213 63.0302 92.9314 63.1102 92.8414 63.2002C92.7514 63.3002 92.6613 63.3802 92.5714 63.4702C92.4714 63.5802 92.3814 63.6601 92.3014 63.7401C92.2114 63.8401 92.1214 63.9201 92.0314 64.0101C91.9214 64.1301 91.8214 64.2202 91.7214 64.3202C91.6514 64.3902 91.5613 64.4802 91.4714 64.5702C91.3814 64.6702 91.2813 64.7602 91.1914 64.8502C91.1114 64.9302 91.0313 65.0202 90.9414 65.1002C90.8414 65.2102 90.7413 65.3001 90.6514 65.3901C90.5714 65.4701 90.4913 65.5601 90.4014 65.6401C90.2914 65.7501 90.1914 65.8502 90.0914 65.9502C90.0314 66.0102 89.9513 66.1002 89.8614 66.1802C89.7514 66.2902 89.6514 66.3901 89.5514 66.4901C89.5014 66.5501 89.4113 66.6402 89.3214 66.7202C89.2113 66.8302 89.1114 66.9302 89.0114 67.0302C88.9613 67.0901 88.8714 67.1801 88.7814 67.2601C88.6814 67.3601 88.3314 67.7202 88.2414 67.8002C88.1414 67.9102 88.0514 68.0002 87.9514 68.0802C87.1614 68.9202 86.1214 69.6902 84.8214 70.4102C83.0313 71.3902 80.7714 72.0201 78.0914 72.2601L76.7214 72.3302C76.3014 72.3502 75.8914 72.3602 75.4914 72.3602C72.6714 72.3602 70.2914 71.8102 68.4214 70.7202C66.4014 69.5402 64.3013 67.3602 62.1813 64.2302C62.1413 64.2702 61.9713 64.4402 61.9713 64.4402C61.9313 64.4902 61.8613 64.5501 61.7913 64.6201L61.7014 64.7102C61.6514 64.7602 61.5813 64.8301 61.5113 64.9001L61.4214 64.9901C61.3814 65.0401 61.3114 65.1002 61.2414 65.1702L61.1513 65.2601C61.1013 65.3201 61.0314 65.3802 60.9614 65.4502L60.8713 65.5402C60.8313 65.5902 60.7613 65.6502 60.6913 65.7202L60.6014 65.8102C60.5514 65.8602 60.4814 65.9301 60.4214 65.9901L60.3313 66.0802C60.2813 66.1302 60.2113 66.2001 60.1513 66.2601L60.0614 66.3502C60.0214 66.4002 59.9514 66.4702 59.8814 66.5302L59.7913 66.6201C59.7413 66.6701 59.6713 66.7402 59.6113 66.8002L59.5214 66.8901C59.4813 66.9401 59.4114 67.0102 59.3414 67.0702L59.2513 67.1602C59.2013 67.2102 59.1413 67.2802 59.0713 67.3402L58.9813 67.4302C58.9413 67.4802 58.8713 67.5402 58.8013 67.6102L58.7114 67.7002C58.6614 67.7502 58.5914 67.8201 58.5314 67.8901L58.4413 67.9802C58.4013 68.0302 58.3313 68.0902 58.2613 68.1602L58.1714 68.2501C58.1214 68.3001 58.0514 68.3702 57.9914 68.4402L57.9013 68.5302C57.8613 68.5802 57.7913 68.6402 57.7213 68.7102L57.6314 68.8002C57.5814 68.8502 57.5113 68.9201 57.4413 68.9901C57.4413 68.9901 57.2614 69.1702 57.2014 69.2302C56.4114 70.1202 55.5913 70.8301 54.7213 71.4001C53.7913 72.0401 52.4214 72.6202 50.5614 73.1602C48.7414 73.6902 47.1413 73.9902 45.7913 74.0602C45.5813 74.0702 45.3714 74.0802 45.1714 74.0802C41.4514 74.0802 38.5313 72.2901 36.4813 68.7601C36.4714 68.7701 36.3614 68.8701 36.3614 68.8701C36.3314 68.9101 36.2514 68.9902 36.1713 69.0602L36.0914 69.1401C36.0513 69.1901 35.9713 69.2602 35.9013 69.3402L35.8214 69.4202C35.7813 69.4602 35.7114 69.5402 35.6314 69.6102L35.5513 69.6902C35.5113 69.7302 35.4414 69.8101 35.3614 69.8801L35.2813 69.9602C35.2413 70.0002 35.1714 70.0801 35.0914 70.1501L35.0113 70.2302C34.9713 70.2702 34.9014 70.3502 34.8214 70.4202L34.7413 70.5001C34.7013 70.5501 34.6314 70.6202 34.5513 70.6902L34.4714 70.7701C34.4314 70.8101 34.3614 70.8902 34.2813 70.9602L34.2014 71.0402C34.1614 71.0902 34.0813 71.1601 34.0113 71.2401L33.9314 71.3202C33.8913 71.3602 33.8214 71.4401 33.7413 71.5101L33.6614 71.5902C33.6213 71.6402 33.5414 71.7102 33.4714 71.7902L33.3914 71.8701C33.3514 71.9101 33.2814 71.9902 33.2014 72.0602L33.1214 72.1401C33.0814 72.1901 33.0014 72.2602 32.9314 72.3402L32.8514 72.4202C32.8214 72.4602 32.7414 72.5402 32.6614 72.6102L32.5814 72.6902C32.5413 72.7402 32.4614 72.8101 32.3914 72.8901L32.3114 72.9702C32.2814 73.0102 32.2014 73.0902 32.1214 73.1602L32.0414 73.2401C32.0014 73.2901 31.9214 73.3602 31.8514 73.4402L31.7714 73.5201C31.7314 73.5601 31.6614 73.6402 31.5814 73.7102L31.5014 73.7902C31.4614 73.8402 31.3914 73.9102 31.3114 73.9802L31.1114 74.1802C29.8514 75.5902 28.1314 76.6201 25.9614 77.2601L25.0314 77.4702C24.1914 77.6502 23.3514 77.7401 22.5314 77.7401C20.5814 77.7401 18.6514 77.2302 16.8014 76.2202C14.5714 75.0102 12.8014 73.0602 11.5314 70.4302C10.6014 68.3502 8.11135 57.9202 3.90135 38.5302C1.81135 28.9102 1.53135 26.9801 1.50135 26.3701C1.49135 24.4801 2.05135 22.7402 3.16135 21.1602C3.46135 20.7302 3.83135 20.3002 4.29135 19.8402C4.33135 19.7902 4.84135 19.2902 4.84135 19.2902C4.88135 19.2402 4.95135 19.1702 5.03135 19.1002L5.12135 19.0201C5.16135 18.9801 5.23135 18.9102 5.30135 18.8402L5.66135 18.4802C5.70135 18.4402 5.77135 18.3702 5.84135 18.3002L6.20135 17.9402C6.24135 17.9002 6.31135 17.8301 6.38135 17.7601L6.47135 17.6702C6.51135 17.6202 6.58135 17.5501 6.65135 17.4901L6.74135 17.4001C6.78135 17.3601 6.85135 17.2902 6.92135 17.2202L7.01135 17.1301C7.06135 17.0801 7.13135 17.0102 7.20135 16.9402L7.29135 16.8502C7.33135 16.8102 7.40135 16.7402 7.47135 16.6702L7.56135 16.5802C7.60135 16.5302 7.68135 16.4601 7.75135 16.3901L8.10135 16.0402C8.15135 15.9902 8.22135 15.9202 8.29135 15.8502L8.91135 15.2302C8.95135 15.1802 9.02135 15.1102 9.10135 15.0402L9.19135 14.9602C9.23135 14.9202 9.30135 14.8502 9.37135 14.7802L9.73135 14.4202C9.77135 14.3802 9.84135 14.3101 9.91135 14.2401L10.2714 13.8801C10.3114 13.8401 10.3814 13.7702 10.4514 13.7002L10.8114 13.3402C10.8514 13.3002 10.9214 13.2302 10.9914 13.1602L11.0814 13.0702C11.1214 13.0202 11.2014 12.9501 11.2714 12.8801L11.3614 12.8002C11.4014 12.7602 11.4714 12.6901 11.5414 12.6201L11.6314 12.5302C11.6714 12.4802 11.7514 12.4102 11.8214 12.3402L11.9114 12.2601C11.9514 12.2201 12.0214 12.1502 12.0914 12.0802L12.1814 11.9901C12.2314 11.9401 12.3014 11.8702 12.3714 11.8002L12.9914 11.1802C13.0314 11.1302 13.1014 11.0601 13.1814 10.9901L13.2714 10.9001C14.2414 9.84015 15.4814 8.95013 16.9414 8.26013C18.0814 7.74013 19.0414 7.40021 19.8814 7.22021C20.6714 7.05021 21.5514 6.96021 22.4714 6.96021C23.0514 6.96021 23.6814 7.00018 24.3114 7.06018C26.9114 7.31018 29.1214 8.21012 30.8914 9.75012C32.4314 11.1001 33.8414 13.1302 35.1114 15.8202C35.3114 15.5702 35.5114 15.3401 35.7214 15.1201C35.7714 15.0601 35.8214 15.0202 35.8814 14.9702C35.9414 14.9102 35.9714 14.8802 36.0014 14.8402C36.0513 14.7902 36.0914 14.7502 36.1413 14.7002C36.1513 14.6902 36.2514 14.5902 36.2613 14.5702C36.3113 14.5202 36.3614 14.4702 36.4114 14.4202C36.4314 14.4002 36.5314 14.3002 36.5414 14.2802C36.5814 14.2402 36.6314 14.1901 36.6814 14.1501C36.6913 14.1301 36.7914 14.0402 36.8013 14.0302C36.8513 13.9802 36.9014 13.9301 36.9514 13.8801C36.9714 13.8601 37.0614 13.7701 37.0714 13.7501C37.1213 13.7001 37.1614 13.6602 37.2113 13.6102C37.2213 13.6002 37.3214 13.5002 37.3313 13.4802C37.3813 13.4302 37.4314 13.3802 37.4813 13.3302C37.5014 13.3102 37.5914 13.2202 37.6013 13.2002C37.6513 13.1502 37.7013 13.1102 37.7413 13.0602C37.7513 13.0502 37.8514 12.9502 37.8614 12.9402C37.9114 12.8902 37.9613 12.8402 38.0113 12.7902C38.0313 12.7702 38.1213 12.6802 38.1413 12.6602C38.1814 12.6202 38.2313 12.5702 38.2813 12.5302C38.2913 12.5202 38.3913 12.4202 38.4013 12.4102C38.4513 12.3602 38.5014 12.3101 38.5513 12.2601C38.5714 12.2401 38.6614 12.1501 38.6814 12.1301C38.7214 12.0901 38.7714 12.0401 38.8214 12.0001C38.8313 11.9901 38.9214 11.9001 38.9314 11.8801C38.9914 11.8201 39.0414 11.7702 39.0914 11.7302C39.1114 11.7102 39.2014 11.6102 39.2214 11.5902C39.2614 11.5502 39.3114 11.5002 39.3614 11.4602C39.3713 11.4402 39.4613 11.3502 39.4813 11.3402C39.5414 11.2802 39.5814 11.2402 39.6314 11.1902C39.6413 11.1702 39.7313 11.0802 39.7514 11.0702C39.8013 11.0202 39.8513 10.9702 39.9013 10.9202C39.9113 10.9002 40.0014 10.8102 40.0214 10.8002C40.0814 10.7402 40.1213 10.7001 40.1713 10.6501C40.1813 10.6301 40.2714 10.5402 40.2914 10.5302C40.3414 10.4802 40.3913 10.4301 40.4413 10.3801C40.4613 10.3601 40.8214 10.0002 40.8313 9.98022C40.8813 9.93022 40.9314 9.8802 40.9813 9.8302C41.0014 9.8102 41.0914 9.7202 41.1013 9.7002C41.1513 9.6502 41.1913 9.61018 41.2413 9.56018C41.2513 9.55018 41.3514 9.45018 41.3614 9.43018C41.4114 9.38018 41.4613 9.33015 41.5113 9.28015C41.5313 9.26015 41.6214 9.17015 41.6314 9.15015C41.6814 9.10015 41.7313 9.06013 41.7714 9.01013C41.7813 9.00013 41.8713 8.90014 41.8913 8.89014C41.9413 8.84014 41.9913 8.79011 42.0413 8.74011C42.0613 8.72011 42.1514 8.63022 42.1714 8.60022C42.2114 8.56022 42.2614 8.51021 42.3114 8.47021C42.3214 8.46021 42.4114 8.37022 42.4214 8.35022C42.4814 8.29022 42.5313 8.24019 42.5813 8.19019C42.6013 8.17019 42.6914 8.08018 42.7114 8.06018C42.7514 8.02018 42.8014 7.97018 42.8514 7.93018C42.8614 7.92018 42.9514 7.83018 42.9614 7.81018C43.0214 7.75018 43.0714 7.70015 43.1213 7.65015C43.1313 7.63015 43.2214 7.54015 43.2414 7.53015C43.2914 7.48015 43.3414 7.43013 43.3914 7.38013C43.4014 7.36013 43.4913 7.27013 43.5113 7.26013C43.5714 7.20013 43.6114 7.16023 43.6614 7.11023C43.6713 7.09023 43.7614 7.00011 43.7814 6.99011C43.8314 6.94011 43.8813 6.89021 43.9313 6.84021C43.9413 6.82021 44.0313 6.73022 44.0513 6.72021C44.1013 6.66021 44.1514 6.62019 44.2114 6.57019C44.2214 6.55019 44.3113 6.4602 44.3313 6.4502C44.3813 6.4002 44.4314 6.35017 44.4813 6.30017C44.5014 6.28017 44.6013 6.18016 44.6113 6.16016C44.6513 6.12016 44.7013 6.07015 44.7513 6.03015C44.7613 6.01015 44.8513 5.92016 44.8713 5.91016C46.1814 4.57016 47.4914 3.63013 48.7714 3.13013C50.0214 2.64013 51.9413 2.28016 54.6113 2.04016L54.8713 2.03015C55.2714 2.01015 55.6714 2.00012 56.0614 2.00012C62.1413 2.00012 67.1413 4.52011 70.9314 9.49011C70.9414 9.48011 75.0714 5.36023 75.0714 5.36023C75.1313 5.30023 75.2113 5.22014 75.2914 5.14014C75.4014 5.03014 76.0014 4.43023 76.0714 4.36023C76.9213 3.46023 77.7413 2.83019 78.5414 2.44019C79.5814 1.94019 80.9414 1.65018 82.7114 1.56018C83.0614 1.54018 83.7014 1.53015 84.6414 1.53015L86.0414 1.54016C89.1713 1.64016 91.4614 2.14018 93.0614 3.06018C94.6914 4.00018 96.1114 5.72019 97.4214 8.32019C98.5014 10.4602 99.3014 12.8202 99.7814 15.3502C99.8214 15.5302 99.8514 15.7302 99.8914 15.9302C99.9114 15.9202 99.9213 15.9101 99.9314 15.9001C99.9814 15.8301 100.041 15.7702 100.101 15.7102C100.121 15.6902 100.181 15.6401 100.201 15.6301C100.251 15.5701 100.301 15.5002 100.371 15.4402C100.391 15.4202 100.451 15.3702 100.471 15.3602C100.521 15.2902 100.581 15.2302 100.641 15.1702C100.661 15.1502 100.721 15.1002 100.741 15.0902C100.791 15.0302 100.841 14.9601 100.911 14.9001C100.931 14.8801 100.991 14.8302 101.011 14.8202C101.061 14.7502 101.121 14.6901 101.181 14.6301C101.201 14.6101 101.261 14.5602 101.281 14.5502C101.331 14.4802 101.391 14.4202 101.451 14.3602C101.471 14.3402 101.531 14.3002 101.551 14.2802C101.601 14.2102 101.661 14.1502 101.721 14.0902C101.741 14.0702 101.801 14.0201 101.821 14.0101C101.871 13.9401 101.921 13.8802 101.991 13.8302C102.011 13.8102 102.071 13.7601 102.091 13.7401C102.141 13.6801 102.191 13.6102 102.261 13.5602C102.281 13.5402 102.341 13.4902 102.361 13.4802C102.411 13.4102 102.461 13.3502 102.521 13.3002C102.541 13.2802 102.601 13.2302 102.631 13.2102C102.681 13.1502 102.731 13.0801 102.801 13.0201C102.821 13.0001 102.881 12.9502 102.901 12.9402C102.941 12.8802 103.001 12.8201 103.061 12.7601C103.081 12.7401 103.141 12.6902 103.161 12.6802C103.211 12.6102 103.271 12.5501 103.331 12.4901C103.351 12.4701 103.411 12.4202 103.431 12.4102C103.471 12.3502 103.531 12.2902 103.601 12.2302C103.621 12.2102 103.681 12.1701 103.701 12.1501C103.751 12.0801 103.811 12.0202 103.871 11.9602C103.891 11.9402 103.951 11.9001 103.971 11.8801C104.021 11.8101 104.081 11.7502 104.141 11.6902C104.161 11.6702 104.221 11.6202 104.241 11.6102C104.281 11.5502 104.341 11.4802 104.411 11.4202C104.431 11.4002 104.491 11.3502 104.511 11.3402C104.561 11.2702 104.621 11.2101 104.681 11.1501C104.701 11.1301 104.761 11.0802 104.781 11.0702C104.831 11.0102 104.881 10.9401 104.951 10.8801C104.971 10.8601 105.031 10.8102 105.061 10.7902C105.101 10.7302 105.161 10.6702 105.221 10.6102C105.241 10.5902 105.301 10.5402 105.321 10.5302C105.371 10.4602 105.431 10.4002 105.491 10.3402C105.511 10.3202 105.571 10.2701 105.601 10.2501C105.641 10.1901 105.701 10.1302 105.761 10.0702C105.781 10.0502 105.841 10.0001 105.861 9.99011C105.911 9.92011 105.961 9.86018 106.031 9.81018C106.051 9.79018 106.111 9.74022 106.131 9.72021C106.181 9.66021 106.231 9.59015 106.301 9.53015C106.321 9.51015 106.381 9.4602 106.401 9.4502C106.451 9.3802 106.501 9.32014 106.561 9.27014C106.581 9.25014 106.641 9.20018 106.671 9.18018C106.721 9.12018 106.771 9.05011 106.841 8.99011C106.861 8.97011 106.921 8.92016 106.941 8.91016C106.981 8.85016 107.041 8.79022 107.101 8.73022C107.121 8.71022 107.181 8.66015 107.201 8.65015C107.251 8.58015 107.311 8.52021 107.371 8.46021C108.761 7.17021 110.521 6.28017 112.601 5.80017C113.811 5.54017 114.851 5.41016 115.701 5.41016C117.031 5.41016 118.491 5.6802 120.071 6.2002C122.551 6.9902 124.531 8.35022 125.921 10.2302C127.281 12.0602 128.311 14.7102 128.971 18.0902C129.191 19.1802 129.351 20.7601 129.431 22.9001C130.241 21.9001 131.121 20.9102 132.061 19.9702L132.521 19.5101L133.231 20.0602L132.601 19.4302L132.791 19.2401L133.061 18.9702L133.771 19.5201L133.141 18.8901L133.331 18.7002L133.601 18.4302L134.311 18.9802L133.681 18.3502L133.871 18.1602L135.491 16.5402L136.201 17.0902L135.571 16.4602L136.031 16.0001L136.741 16.5502L136.111 15.9202L136.571 15.4602L137.281 16.0101L136.651 15.3801L137.111 14.9202L137.821 15.4702L137.191 14.8402L137.381 14.6501L137.651 14.3801L138.361 14.9302L137.731 14.3002L137.921 14.1102L139.261 12.7701L139.981 13.3202L139.351 12.6902L140.081 11.9602L140.791 12.5101L140.161 11.8801L140.621 11.4202L141.331 11.9702L140.701 11.3402L140.891 11.1501L141.161 10.8801L141.871 11.4302L141.241 10.8002C142.771 9.27017 143.961 8.20017 144.881 7.55017C145.801 6.90017 147.161 6.13021 149.051 5.21021C151.671 3.90021 153.491 3.06015 154.631 2.65015C155.781 2.23015 157.221 1.92021 158.911 1.71021C160.121 1.56021 161.491 1.48022 162.951 1.48022C168.411 1.48022 172.851 2.34015 176.131 4.03015C178.331 5.16015 180.451 6.74021 182.411 8.72021C184.371 10.7102 185.891 12.7901 186.921 14.8901C187.771 16.7001 188.201 18.8001 188.201 21.1501C188.201 21.4101 188.201 21.6601 188.191 21.9001C188.271 21.8101 188.361 21.7201 188.451 21.6401C188.521 21.5701 188.621 21.4701 188.721 21.3701C188.781 21.3001 188.891 21.2002 188.991 21.1002C189.061 21.0202 189.161 20.9202 189.261 20.8302C189.331 20.7602 189.431 20.6602 189.531 20.5602C189.601 20.4802 189.701 20.3902 189.801 20.2902C189.871 20.2202 189.971 20.1201 190.071 20.0201C190.131 19.9501 190.231 19.8501 190.331 19.7501C190.401 19.6801 190.501 19.5702 190.611 19.4802C190.671 19.4102 190.771 19.3102 190.881 19.2102C190.951 19.1402 191.051 19.0402 191.151 18.9402C191.211 18.8702 191.311 18.7702 191.421 18.6702C191.491 18.6002 191.591 18.5001 191.691 18.4001C191.761 18.3301 191.861 18.2301 191.961 18.1301C192.031 18.0501 192.131 17.9602 192.231 17.8602C192.301 17.7902 192.401 17.6902 192.501 17.5902C192.571 17.5102 192.671 17.4202 192.771 17.3202C192.831 17.2502 192.941 17.1502 193.041 17.0502C193.111 16.9702 193.211 16.8702 193.311 16.7802C193.381 16.7102 193.481 16.6101 193.581 16.5101C193.651 16.4301 193.751 16.3401 193.851 16.2401C193.921 16.1701 194.021 16.0702 194.121 15.9702C194.181 15.9002 194.281 15.8002 194.381 15.7002C194.451 15.6302 194.551 15.5202 194.661 15.4302C194.721 15.3602 194.821 15.2602 194.931 15.1602C195.001 15.0902 195.101 14.9901 195.201 14.8901C195.271 14.8201 195.371 14.7201 195.471 14.6201C195.541 14.5401 195.641 14.4502 195.741 14.3502C195.811 14.2802 195.911 14.1802 196.011 14.0802C196.081 14.0002 196.181 13.9102 196.281 13.8102C196.351 13.7402 196.451 13.6402 196.551 13.5402C196.621 13.4602 196.721 13.3701 196.821 13.2701C196.881 13.2001 196.991 13.1001 197.091 13.0001C197.161 12.9201 197.261 12.8202 197.361 12.7302C197.731 12.3402 198.121 11.9902 198.531 11.6802C200.051 10.5402 201.891 9.83018 204.011 9.56018C204.771 9.47018 205.451 9.43018 206.061 9.43018C206.451 9.43018 206.801 9.45022 207.131 9.48022C208.451 9.61022 209.881 10.0302 211.391 10.7102C213.781 11.7502 215.611 13.3002 216.811 15.3102C217.461 16.4002 217.981 17.7302 218.371 19.2802L226.401 11.2401C227.781 9.76011 229.581 8.46021 231.781 7.34021C234.581 5.91021 237.461 5.05015 240.331 4.78015C240.991 4.72015 241.701 4.7002 242.441 4.7002C243.931 4.7002 245.611 4.81016 247.451 5.04016C250.601 5.43016 253.131 6.00011 254.951 6.74011C259.021 8.48011 262.451 11.1102 265.161 14.5802C266.721 16.5202 268.041 19.0102 269.061 21.9602C270.961 27.6302 271.551 33.4702 270.831 39.3302C270.651 40.8202 270.381 42.3302 270.051 43.8102C268.971 48.4802 267.691 52.1802 266.251 54.8102C265.151 56.8102 263.751 58.6001 262.091 60.1301L261.991 60.2302C261.921 60.3002 261.861 60.3702 261.781 60.4302L261.701 60.5101C261.641 60.5701 261.581 60.6302 261.511 60.6902L261.431 60.7802C261.371 60.8402 261.311 60.9102 261.241 60.9702L261.161 61.0502C261.101 61.1102 261.041 61.1702 260.971 61.2302L260.891 61.3202C260.831 61.3802 260.771 61.4501 260.701 61.5101L260.621 61.5902C260.561 61.6502 260.501 61.7201 260.431 61.7802L260.351 61.8602C260.291 61.9202 260.231 61.9902 260.161 62.0502L260.081 62.1401C260.021 62.2001 259.961 62.2702 259.891 62.3302L259.811 62.4102C259.751 62.4702 259.681 62.5402 259.621 62.6002L259.541 62.6902C259.481 62.7502 259.421 62.8101 259.351 62.8701L259.271 62.9502C259.211 63.0102 259.151 63.0801 259.081 63.1401L259.001 63.2202C258.941 63.2802 258.881 63.3502 258.811 63.4102L258.731 63.4901C258.671 63.5501 258.611 63.6202 258.541 63.6702L258.461 63.7601C258.401 63.8201 258.341 63.8902 258.271 63.9502L258.191 64.0302C258.131 64.0902 258.071 64.1602 258.001 64.2102L257.921 64.3002C257.861 64.3602 257.801 64.4301 257.731 64.4901L257.651 64.5702C257.591 64.6302 257.531 64.6901 257.461 64.7501L257.381 64.8402C257.321 64.9002 257.261 64.9701 257.191 65.0302L257.111 65.1102C257.051 65.1702 256.991 65.2302 256.921 65.2902L256.841 65.3801C256.781 65.4401 256.721 65.5102 256.651 65.5702L256.571 65.6501C256.511 65.7101 256.451 65.7802 256.381 65.8402L256.301 65.9202C256.241 65.9802 256.181 66.0502 256.111 66.1102L256.031 66.2002C255.971 66.2602 255.911 66.3301 255.841 66.3901L255.761 66.4702C255.701 66.5302 255.631 66.6002 255.571 66.6602L255.491 66.7401C255.431 66.8001 255.371 66.8702 255.301 66.9302L255.221 67.0101C255.161 67.0701 255.101 67.1402 255.031 67.2002L254.951 67.2802C254.891 67.3401 254.831 67.4102 254.761 67.4702L254.681 67.5502C254.621 67.6102 254.561 67.6802 254.491 67.7302L254.411 67.8202C254.351 67.8802 254.291 67.9501 254.221 68.0101L254.141 68.0902C254.081 68.1502 254.021 68.2201 253.951 68.2701L253.871 68.3602C253.811 68.4202 253.751 68.4902 253.681 68.5502L253.601 68.6301C253.541 68.6901 253.481 68.7602 253.411 68.8102C253.411 68.8102 253.171 69.0502 253.101 69.1102C252.431 69.7402 251.791 70.2901 251.151 70.7701C248.361 72.8101 245.361 74.1202 242.241 74.6702C240.711 74.9402 238.941 75.0702 236.971 75.0702C234.971 75.0702 232.711 74.9301 230.251 74.6501C226.091 74.1401 222.801 73.3402 220.461 72.2902C218.061 71.2002 216.021 69.5101 214.401 67.2601C213.861 66.5001 213.371 65.7001 212.921 64.8701C212.631 65.7501 212.351 66.4502 212.071 66.9702C211.541 68.0502 210.821 69.0102 209.941 69.8002C209.941 69.8102 209.871 69.8702 209.801 69.9402L209.721 70.0101C209.681 70.0601 209.611 70.1302 209.531 70.2002L209.451 70.2802C209.411 70.3202 209.341 70.3902 209.271 70.4702L209.191 70.5502C209.151 70.6002 209.071 70.6701 209.001 70.7401L208.921 70.8202C208.881 70.8602 208.811 70.9301 208.741 71.0101L208.661 71.0902C208.621 71.1402 208.541 71.2102 208.471 71.2802L208.391 71.3602C208.351 71.4002 208.281 71.4802 208.201 71.5502L208.121 71.6301C208.081 71.6801 208.011 71.7502 207.931 71.8202L207.851 71.9001C207.811 71.9501 207.741 72.0202 207.661 72.0902L207.581 72.1702C207.541 72.2202 207.471 72.2902 207.391 72.3602L207.311 72.4402C207.271 72.4902 207.201 72.5601 207.121 72.6301L207.041 72.7102C207.001 72.7602 206.931 72.8301 206.851 72.9001L206.771 72.9802C206.731 73.0302 206.651 73.1002 206.581 73.1702L206.501 73.2501C206.461 73.3001 206.391 73.3702 206.321 73.4402L206.241 73.5201C206.201 73.5701 206.121 73.6402 206.051 73.7102L205.971 73.7902C205.931 73.8402 205.861 73.9102 205.791 73.9802L205.711 74.0602C205.671 74.1102 205.591 74.1801 205.521 74.2501L205.441 74.3302C205.401 74.3702 205.331 74.4501 205.251 74.5201L205.171 74.6002C205.131 74.6502 205.061 74.7202 204.981 74.7902L204.901 74.8701C204.861 74.9201 204.791 74.9902 204.711 75.0602L204.631 75.1401C204.591 75.1901 204.511 75.2602 204.441 75.3302L204.361 75.4102C204.321 75.4502 204.251 75.5302 204.171 75.6002L204.091 75.6802C204.051 75.7302 203.981 75.8001 203.901 75.8701L203.821 75.9502C203.781 76.0002 203.711 76.0701 203.631 76.1401L203.551 76.2202C203.511 76.2702 203.441 76.3402 203.361 76.4102L203.281 76.4901C203.241 76.5401 203.171 76.6102 203.091 76.6802L203.011 76.7601C202.971 76.8101 202.901 76.8802 202.821 76.9502L202.741 77.0302C202.701 77.0802 202.621 77.1502 202.551 77.2202L202.471 77.3002C202.431 77.3502 202.361 77.4201 202.291 77.4901L202.211 77.5702C202.171 77.6202 202.091 77.6901 202.021 77.7601L201.941 77.8402C201.901 77.8902 201.831 77.9602 201.761 78.0302C201.761 78.0302 201.601 78.1901 201.551 78.2501C199.791 80.2701 197.291 81.2902 194.111 81.2902C193.891 81.1102 193.741 81.1102 193.591 81.1102ZM157.861 38.0201C158.381 39.1601 158.911 39.9902 159.441 40.4502C159.911 40.8702 160.581 41.1202 161.451 41.2202C160.881 40.7602 160.231 40.1802 159.511 39.4802C158.921 38.9202 158.371 38.4301 157.861 38.0201ZM179.621 35.2002C180.701 35.5702 181.751 36.1002 182.761 36.7802C183.391 37.2102 183.991 37.6902 184.541 38.2202L184.621 37.4302C185.011 33.6502 185.291 31.0402 185.511 29.2302C185.051 29.8002 184.551 30.3202 184.011 30.7902L183.951 30.8602C183.881 30.9302 183.821 31.0002 183.741 31.0602L183.681 31.1301C183.611 31.2001 183.541 31.2702 183.471 31.3402L183.411 31.4102C183.341 31.4802 183.281 31.5502 183.201 31.6102L183.141 31.6702C183.071 31.7402 183.001 31.8101 182.931 31.8801L182.871 31.9502C182.801 32.0202 182.731 32.0901 182.661 32.1501L182.601 32.2102C182.531 32.2802 182.461 32.3502 182.391 32.4202L182.331 32.4901C182.261 32.5601 182.191 32.6302 182.121 32.6902L182.061 32.7501C181.991 32.8201 181.921 32.8902 181.851 32.9602L181.791 33.0201C181.721 33.0901 181.651 33.1602 181.581 33.2302L181.521 33.2902C181.451 33.3602 181.381 33.4301 181.311 33.5001L181.251 33.5602C181.181 33.6302 181.121 33.7001 181.041 33.7601L180.981 33.8302C180.911 33.9002 180.841 33.9702 180.771 34.0402L180.711 34.1002C180.641 34.1702 180.581 34.2402 180.501 34.3002L180.441 34.3701C180.371 34.4401 180.301 34.5102 180.231 34.5802L180.171 34.6501C180.101 34.7201 180.041 34.7902 179.961 34.8502L179.901 34.9202C179.831 34.9902 179.771 35.0601 179.691 35.1201C179.701 35.1201 179.631 35.2002 179.621 35.2002Z" fill="black"/>
<path d="M162.931 2.2002C168.271 2.2002 172.531 3.02015 175.701 4.65015C177.831 5.74015 179.841 7.25018 181.751 9.18018C183.651 11.1102 185.101 13.0901 186.091 15.1201C186.881 16.8001 187.281 18.7602 187.281 20.9802C187.281 23.0602 186.981 24.7902 186.391 26.1802C185.641 27.7502 184.661 29.0601 183.441 30.1401C183.351 30.2301 183.271 30.3302 183.171 30.4102C183.081 30.5002 183.001 30.6002 182.901 30.6802C182.811 30.7702 182.731 30.8702 182.631 30.9502C182.541 31.0402 182.461 31.1402 182.361 31.2202C182.271 31.3102 182.191 31.4101 182.091 31.4901C182.001 31.5801 181.921 31.6801 181.821 31.7601C181.731 31.8501 181.651 31.9502 181.551 32.0302C181.461 32.1202 181.381 32.2202 181.281 32.3002C181.191 32.3902 181.111 32.4902 181.011 32.5702C180.921 32.6602 180.841 32.7602 180.741 32.8402C180.651 32.9302 180.571 33.0302 180.471 33.1102C180.381 33.2002 180.301 33.3001 180.201 33.3801C180.111 33.4701 180.031 33.5701 179.931 33.6501C179.841 33.7401 179.761 33.8402 179.661 33.9202C179.571 34.0102 179.491 34.1102 179.391 34.1902C179.301 34.2802 179.221 34.3802 179.121 34.4602C179.031 34.5502 178.951 34.6502 178.851 34.7302C178.761 34.8202 178.681 34.9201 178.581 35.0001C178.491 35.0901 178.411 35.1901 178.311 35.2701C178.221 35.3601 178.141 35.4602 178.041 35.5402C178.001 35.5802 177.961 35.6302 177.911 35.6702C179.401 35.9702 180.861 36.5802 182.271 37.5402C183.441 38.3302 184.421 39.2702 185.241 40.3302C185.331 39.4102 185.431 38.5002 185.521 37.5402C186.261 30.3002 186.751 26.2501 186.991 25.3801C187.391 24.1301 188.081 23.0501 189.041 22.1301C189.131 22.0401 189.221 21.9502 189.311 21.8602C189.401 21.7702 189.491 21.6802 189.581 21.5902C189.671 21.5002 189.761 21.4102 189.851 21.3202C189.941 21.2302 190.031 21.1402 190.121 21.0502C190.211 20.9602 190.301 20.8702 190.391 20.7802C190.481 20.6902 190.571 20.6001 190.661 20.5101C190.751 20.4201 190.841 20.3301 190.931 20.2401C191.021 20.1501 191.111 20.0602 191.201 19.9702C191.291 19.8802 191.381 19.7902 191.471 19.7002C191.561 19.6102 191.651 19.5202 191.741 19.4302C191.831 19.3402 191.921 19.2502 192.011 19.1602C192.101 19.0702 192.191 18.9801 192.281 18.8901C192.371 18.8001 192.461 18.7101 192.551 18.6201C192.641 18.5301 192.731 18.4402 192.821 18.3502C192.911 18.2602 193.001 18.1702 193.091 18.0802C193.181 17.9902 193.271 17.9002 193.361 17.8102C193.451 17.7202 193.541 17.6302 193.631 17.5402C193.721 17.4502 193.811 17.3601 193.901 17.2701C193.991 17.1801 194.081 17.0901 194.171 17.0001C194.261 16.9101 194.351 16.8202 194.441 16.7302C194.531 16.6402 194.621 16.5502 194.711 16.4602C194.801 16.3702 194.891 16.2802 194.981 16.1902C195.071 16.1002 195.161 16.0102 195.251 15.9202C195.341 15.8302 195.431 15.7401 195.521 15.6501C195.611 15.5601 195.701 15.4701 195.791 15.3801C195.881 15.2901 195.971 15.2002 196.061 15.1102C196.151 15.0202 196.241 14.9302 196.331 14.8402C196.421 14.7502 196.511 14.6602 196.601 14.5702C196.691 14.4802 196.781 14.3902 196.871 14.3002C196.961 14.2102 197.051 14.1202 197.141 14.0302C197.231 13.9402 197.321 13.8501 197.411 13.7601C197.501 13.6701 197.591 13.5801 197.681 13.4901C197.771 13.4001 197.861 13.3102 197.951 13.2202C198.281 12.8702 198.631 12.5501 199.031 12.2401C200.431 11.1901 202.111 10.5402 204.081 10.2902C204.801 10.2102 205.441 10.1702 206.021 10.1702C206.371 10.1702 206.701 10.1902 207.001 10.2202C208.231 10.3502 209.561 10.7301 210.991 11.3701C213.231 12.3401 214.901 13.7602 216.001 15.6102C216.821 16.9802 217.411 18.7502 217.791 20.9202C218.021 20.6702 218.271 20.4202 218.531 20.1802C218.611 20.1002 218.691 20.0202 218.781 19.9402C218.871 19.8502 218.961 19.7602 219.051 19.6702C219.141 19.5802 219.231 19.4901 219.321 19.4001C219.411 19.3101 219.501 19.2201 219.591 19.1301C219.681 19.0401 219.771 18.9502 219.861 18.8602C219.951 18.7702 220.041 18.6802 220.131 18.5902C220.221 18.5002 220.311 18.4102 220.401 18.3202C220.491 18.2302 220.581 18.1402 220.671 18.0502C220.761 17.9602 220.851 17.8702 220.941 17.7802C221.031 17.6902 221.121 17.6001 221.211 17.5101C221.301 17.4201 221.391 17.3301 221.481 17.2401C221.571 17.1501 221.661 17.0602 221.751 16.9702C221.841 16.8802 221.931 16.7902 222.021 16.7002C222.111 16.6102 222.201 16.5202 222.291 16.4302C222.381 16.3402 222.471 16.2502 222.561 16.1602C222.651 16.0702 222.741 15.9801 222.831 15.8901C222.921 15.8001 223.011 15.7101 223.101 15.6201C223.191 15.5301 223.281 15.4402 223.371 15.3502C223.461 15.2602 223.551 15.1702 223.641 15.0802C223.731 14.9902 223.821 14.9002 223.911 14.8102C224.001 14.7202 224.091 14.6302 224.181 14.5402C224.271 14.4502 224.361 14.3601 224.451 14.2701C224.541 14.1801 224.631 14.0901 224.721 14.0001C224.811 13.9101 224.901 13.8202 224.991 13.7302C225.081 13.6402 225.171 13.5502 225.261 13.4602C225.351 13.3702 225.441 13.2802 225.531 13.1902C225.621 13.1002 225.711 13.0102 225.801 12.9202C225.891 12.8302 225.981 12.7401 226.071 12.6501C226.161 12.5601 226.251 12.4701 226.341 12.3801C226.431 12.2901 226.521 12.2002 226.611 12.1102C226.701 12.0202 226.791 11.9302 226.881 11.8402C226.941 11.7802 227.001 11.7202 227.061 11.6602C228.331 10.3002 230.031 9.07011 232.151 7.99011C234.861 6.60011 237.611 5.78014 240.381 5.52014C241.011 5.47014 241.691 5.44019 242.411 5.44019C243.871 5.44019 245.501 5.55014 247.311 5.77014C250.401 6.15014 252.831 6.70016 254.591 7.41016C258.521 9.09016 261.801 11.6102 264.431 14.9702C265.941 16.8502 267.201 19.2202 268.191 22.0902C270.051 27.6502 270.631 33.3102 269.921 39.0502C269.741 40.5202 269.481 41.9902 269.161 43.4402C268.101 48.0502 266.861 51.6302 265.451 54.2002C264.391 56.1302 263.061 57.8302 261.471 59.2902C261.371 59.3902 261.271 59.5002 261.171 59.5902C261.081 59.6802 260.991 59.7702 260.901 59.8602C260.811 59.9502 260.721 60.0401 260.631 60.1301C260.541 60.2201 260.451 60.3101 260.361 60.4001C260.271 60.4901 260.181 60.5802 260.091 60.6702C260.001 60.7602 259.911 60.8502 259.821 60.9402C259.731 61.0302 259.641 61.1202 259.551 61.2102C259.461 61.3002 259.371 61.3902 259.281 61.4802C259.191 61.5702 259.101 61.6601 259.011 61.7501C258.921 61.8401 258.831 61.9301 258.741 62.0201C258.651 62.1101 258.561 62.2002 258.471 62.2902C258.381 62.3802 258.291 62.4702 258.201 62.5602C258.111 62.6502 258.021 62.7402 257.931 62.8302C257.841 62.9202 257.751 63.0102 257.661 63.1002C257.571 63.1902 257.481 63.2801 257.391 63.3701C257.301 63.4601 257.211 63.5501 257.121 63.6401C257.031 63.7301 256.941 63.8202 256.851 63.9102C256.761 64.0002 256.671 64.0902 256.581 64.1802C256.491 64.2702 256.401 64.3602 256.311 64.4502C256.221 64.5402 256.131 64.6302 256.041 64.7202C255.951 64.8102 255.861 64.9001 255.771 64.9901C255.681 65.0801 255.591 65.1701 255.501 65.2601C255.411 65.3501 255.321 65.4402 255.231 65.5302C255.141 65.6201 255.051 65.7102 254.961 65.8002C254.871 65.8902 254.781 65.9802 254.691 66.0702C254.601 66.1602 254.511 66.2502 254.421 66.3402C254.331 66.4302 254.241 66.5202 254.151 66.6102C254.061 66.7002 253.971 66.7901 253.881 66.8801C253.791 66.9701 253.701 67.0602 253.611 67.1501C253.521 67.2401 253.431 67.3302 253.341 67.4202C253.251 67.5102 253.161 67.6002 253.071 67.6902C252.981 67.7802 252.891 67.8702 252.801 67.9602C252.701 68.0602 252.601 68.1601 252.501 68.2601C251.911 68.8201 251.291 69.3602 250.621 69.8602C247.941 71.8202 245.091 73.0702 242.091 73.6002C240.611 73.8602 238.901 73.9901 236.981 73.9901C235.001 73.9901 232.801 73.8502 230.361 73.5802C226.281 73.0802 223.111 72.3202 220.841 71.2902C218.571 70.2602 216.671 68.6802 215.141 66.5502C214.171 65.1802 213.371 63.7202 212.741 62.1702C212.221 64.1202 211.741 65.5201 211.291 66.3801C210.781 67.4201 210.131 68.2702 209.361 68.9602C209.281 69.0502 209.191 69.1202 209.111 69.2002C209.021 69.3002 208.931 69.3802 208.841 69.4702C208.751 69.5702 208.661 69.6501 208.571 69.7401C208.481 69.8401 208.391 69.9201 208.301 70.0101C208.211 70.1101 208.121 70.1902 208.031 70.2802C207.941 70.3801 207.851 70.4602 207.761 70.5502C207.671 70.6502 207.581 70.7302 207.491 70.8202C207.401 70.9202 207.311 71.0002 207.221 71.0902C207.131 71.1902 207.041 71.2702 206.951 71.3602C206.861 71.4602 206.771 71.5401 206.681 71.6301C206.591 71.7301 206.501 71.8102 206.411 71.9001C206.321 72.0001 206.231 72.0802 206.141 72.1702C206.051 72.2702 205.961 72.3502 205.871 72.4402C205.781 72.5402 205.691 72.6202 205.601 72.7102C205.511 72.8102 205.421 72.8902 205.331 72.9802C205.241 73.0802 205.151 73.1601 205.061 73.2501C204.971 73.3501 204.881 73.4301 204.791 73.5201C204.701 73.6201 204.611 73.7002 204.521 73.7902C204.431 73.8902 204.341 73.9702 204.251 74.0602C204.161 74.1602 204.071 74.2402 203.981 74.3302C203.891 74.4302 203.801 74.5102 203.711 74.6002C203.621 74.7002 203.531 74.7801 203.441 74.8701C203.351 74.9701 203.261 75.0501 203.171 75.1401C203.081 75.2401 202.991 75.3202 202.901 75.4102C202.811 75.5102 202.721 75.5902 202.631 75.6802C202.541 75.7802 202.451 75.8602 202.361 75.9502C202.271 76.0502 202.181 76.1302 202.091 76.2202C202.001 76.3202 201.911 76.4001 201.821 76.4901C201.731 76.5901 201.641 76.6701 201.551 76.7601C201.461 76.8601 201.371 76.9402 201.281 77.0302C201.191 77.1301 201.101 77.2102 201.011 77.3002C200.951 77.3602 200.891 77.4202 200.831 77.4802C199.251 79.2902 197.001 80.2102 194.071 80.2102C193.931 80.2102 193.791 80.2102 193.651 80.2002L192.761 80.1102C190.101 79.8402 187.811 78.6801 185.881 76.6501C184.261 74.9401 183.271 72.7301 182.901 70.0001C182.771 68.7201 183.021 64.3902 183.671 57.0502C183.411 57.3702 183.141 57.7002 182.861 58.0402C181.781 59.3302 180.821 60.3802 179.981 61.2102C179.931 61.2602 179.891 61.2902 179.851 61.3402C179.841 61.3502 179.831 61.3601 179.821 61.3701C179.731 61.4601 179.641 61.5501 179.551 61.6401C179.461 61.7301 179.371 61.8202 179.281 61.9102C179.191 62.0002 179.101 62.0902 179.011 62.1802C178.921 62.2702 178.831 62.3602 178.741 62.4502C178.651 62.5402 178.561 62.6302 178.471 62.7202C178.381 62.8102 178.291 62.9001 178.201 62.9901C178.111 63.0801 178.021 63.1701 177.931 63.2601C177.841 63.3501 177.751 63.4402 177.661 63.5302C177.571 63.6202 177.481 63.7102 177.391 63.8002C177.301 63.8902 177.211 63.9802 177.121 64.0702C177.031 64.1602 176.941 64.2502 176.851 64.3402C176.761 64.4302 176.671 64.5202 176.581 64.6102C176.491 64.7002 176.401 64.7901 176.311 64.8801C176.221 64.9701 176.131 65.0602 176.041 65.1501C175.951 65.2401 175.861 65.3302 175.771 65.4202C175.681 65.5102 175.591 65.6002 175.501 65.6902C175.411 65.7802 175.321 65.8702 175.231 65.9602C175.141 66.0502 175.051 66.1402 174.961 66.2302C174.871 66.3202 174.781 66.4101 174.691 66.5001C174.601 66.5901 174.511 66.6801 174.421 66.7701C174.331 66.8601 174.241 66.9502 174.151 67.0402C174.061 67.1302 173.971 67.2202 173.881 67.3102C173.791 67.4002 173.701 67.4902 173.611 67.5802C173.521 67.6702 173.431 67.7602 173.341 67.8502C173.251 67.9402 173.161 68.0301 173.071 68.1201C172.981 68.2101 172.891 68.3001 172.801 68.3901C172.711 68.4801 172.621 68.5702 172.531 68.6602C172.441 68.7502 172.351 68.8402 172.261 68.9302C172.171 69.0202 172.081 69.1102 171.991 69.2002C171.901 69.2902 171.811 69.3802 171.721 69.4702C171.631 69.5602 171.541 69.6501 171.451 69.7401C171.391 69.8001 171.331 69.8602 171.271 69.9202C170.411 70.8002 169.651 71.4802 169.011 71.9402C164.211 75.4502 158.991 77.2102 153.351 77.2102C152.611 77.2102 151.541 77.1102 150.161 76.9102C148.481 76.6102 146.281 76.0201 143.551 75.1301C140.831 74.2401 138.971 73.5001 137.981 72.9001C136.691 72.1601 135.131 70.8702 133.301 69.0402C131.471 67.2102 130.061 65.5801 129.071 64.1401C127.971 62.4801 127.071 60.8202 126.321 59.1602C126.111 60.1902 125.881 61.0002 125.651 61.5802C125.151 62.9402 124.411 64.0301 123.451 64.8901C123.391 64.9501 123.321 65.0102 123.261 65.0702C123.171 65.1602 123.081 65.2502 122.991 65.3402C122.901 65.4302 122.811 65.5202 122.721 65.6102C122.631 65.7002 122.541 65.7901 122.451 65.8801C122.361 65.9701 122.271 66.0602 122.181 66.1501C122.091 66.2401 122.001 66.3302 121.911 66.4202C121.821 66.5102 121.731 66.6002 121.641 66.6902C121.551 66.7802 121.461 66.8702 121.371 66.9602C121.281 67.0502 121.191 67.1402 121.101 67.2302C121.011 67.3202 120.921 67.4101 120.831 67.5001C120.741 67.5901 120.651 67.6801 120.561 67.7701C120.471 67.8601 120.381 67.9502 120.291 68.0402C120.201 68.1302 120.111 68.2202 120.021 68.3102C119.931 68.4002 119.841 68.4902 119.751 68.5802C119.661 68.6702 119.571 68.7602 119.481 68.8502C119.391 68.9402 119.301 69.0301 119.211 69.1201C119.121 69.2101 119.031 69.3001 118.941 69.3901C118.851 69.4801 118.761 69.5702 118.671 69.6602C118.581 69.7502 118.491 69.8402 118.401 69.9302C118.311 70.0202 118.221 70.1102 118.131 70.2002C118.041 70.2902 117.951 70.3802 117.861 70.4702C117.771 70.5602 117.681 70.6501 117.591 70.7401C117.501 70.8301 117.411 70.9201 117.321 71.0101C117.231 71.1001 117.141 71.1902 117.051 71.2802C116.961 71.3701 116.871 71.4602 116.781 71.5502C116.691 71.6402 116.601 71.7302 116.511 71.8202C116.421 71.9102 116.331 72.0002 116.241 72.0902C116.151 72.1802 116.061 72.2702 115.971 72.3602C115.881 72.4502 115.791 72.5401 115.701 72.6301C115.611 72.7201 115.521 72.8102 115.431 72.9001C115.341 72.9901 115.251 73.0802 115.161 73.1702C115.071 73.2602 114.981 73.3502 114.891 73.4402C114.831 73.5002 114.781 73.5701 114.721 73.6301C113.271 75.1701 111.221 76.0501 108.531 76.2501H107.641C104.971 76.2501 102.571 75.3301 100.441 73.5001C98.6614 71.9701 97.4414 69.8602 96.8014 67.1902C96.5914 66.1902 96.4314 63.2502 96.3214 58.4202C96.2914 58.4502 96.2614 58.4701 96.2314 58.5001C96.1414 58.6001 96.0414 58.7002 95.9414 58.7902C95.8614 58.8802 95.7614 58.9702 95.6714 59.0602C95.5914 59.1502 95.4914 59.2402 95.4014 59.3302C95.3214 59.4202 95.2214 59.5102 95.1314 59.6002C95.0514 59.6902 94.9514 59.7801 94.8614 59.8701C94.7814 59.9601 94.6814 60.0501 94.5914 60.1401C94.5114 60.2301 94.4114 60.3202 94.3214 60.4102C94.2414 60.5002 94.1414 60.5902 94.0514 60.6802C93.9714 60.7702 93.8714 60.8602 93.7814 60.9502C93.7014 61.0402 93.6014 61.1302 93.5114 61.2202C93.4314 61.3102 93.3314 61.4001 93.2414 61.4901C93.1614 61.5801 93.0614 61.6701 92.9714 61.7601C92.8914 61.8501 92.7914 61.9402 92.7014 62.0302C92.6214 62.1202 92.5214 62.2102 92.4314 62.3002C92.3514 62.3902 92.2514 62.4802 92.1614 62.5702C92.0814 62.6602 91.9814 62.7502 91.8914 62.8402C91.8114 62.9302 91.7114 63.0202 91.6214 63.1102C91.5414 63.2002 91.4414 63.2901 91.3514 63.3801C91.2714 63.4701 91.1714 63.5601 91.0814 63.6501C91.0014 63.7401 90.9014 63.8302 90.8114 63.9202C90.7314 64.0102 90.6314 64.1002 90.5414 64.1902C90.4614 64.2802 90.3614 64.3702 90.2714 64.4602C90.1914 64.5502 90.0914 64.6402 90.0014 64.7302C89.9214 64.8202 89.8214 64.9101 89.7314 65.0001C89.6514 65.0901 89.5514 65.1801 89.4614 65.2701C89.3814 65.3601 89.2814 65.4502 89.1914 65.5402C89.1114 65.6302 89.0114 65.7202 88.9214 65.8102C88.8414 65.9002 88.7414 65.9902 88.6514 66.0802C88.5714 66.1702 88.4714 66.2602 88.3814 66.3502C88.3014 66.4402 88.2014 66.5301 88.1114 66.6201C88.0314 66.7101 87.9314 66.8001 87.8414 66.8901C87.7614 66.9801 87.6614 67.0702 87.5714 67.1602C87.4814 67.2602 87.3814 67.3502 87.2814 67.4502C86.5914 68.1902 85.6314 68.9002 84.4014 69.5802C82.7114 70.5102 80.5914 71.0902 78.0214 71.3202L76.6914 71.3901C76.2914 71.4101 75.8914 71.4202 75.5114 71.4202C72.8414 71.4202 70.6314 70.9101 68.8914 69.9001C66.9014 68.7401 64.8214 66.5301 62.6714 63.2701C62.5514 63.1001 62.4414 62.9402 62.3314 62.7802C62.2714 62.8402 62.2114 62.9002 62.1514 62.9602C62.0614 63.0602 61.9714 63.1402 61.8814 63.2302C61.7914 63.3302 61.7014 63.4101 61.6114 63.5001C61.5214 63.6001 61.4314 63.6801 61.3414 63.7701C61.2514 63.8701 61.1614 63.9502 61.0714 64.0402C60.9814 64.1402 60.8914 64.2202 60.8014 64.3102C60.7114 64.4102 60.6214 64.4902 60.5314 64.5802C60.4414 64.6802 60.3514 64.7602 60.2614 64.8502C60.1714 64.9502 60.0814 65.0301 59.9914 65.1201C59.9014 65.2201 59.8114 65.3001 59.7214 65.3901C59.6314 65.4901 59.5414 65.5702 59.4514 65.6602C59.3614 65.7602 59.2714 65.8402 59.1814 65.9302C59.0914 66.0302 59.0014 66.1102 58.9114 66.2002C58.8214 66.3002 58.7314 66.3802 58.6414 66.4702C58.5514 66.5702 58.4614 66.6501 58.3714 66.7401C58.2814 66.8401 58.1914 66.9201 58.1014 67.0101C58.0114 67.1101 57.9214 67.1902 57.8314 67.2802C57.7414 67.3801 57.6514 67.4602 57.5614 67.5502C57.4714 67.6502 57.3814 67.7302 57.2914 67.8202C57.2014 67.9202 57.1114 68.0002 57.0214 68.0902C56.9314 68.1902 56.8414 68.2702 56.7514 68.3602C56.6814 68.4402 56.6014 68.5102 56.5314 68.5802C55.8514 69.3602 55.1014 70.0202 54.2814 70.5402C53.4214 71.1302 52.1114 71.6802 50.3514 72.1902C48.5914 72.7002 47.0714 72.9902 45.7914 73.0602C45.6014 73.0702 45.4114 73.0802 45.2214 73.0802C41.4814 73.0802 38.6614 71.1102 36.7514 67.1802C36.7014 67.2302 36.6414 67.2802 36.5914 67.3302C36.5114 67.4202 36.4114 67.5102 36.3214 67.6002C36.2414 67.6902 36.1414 67.7801 36.0514 67.8701C35.9714 67.9601 35.8714 68.0501 35.7814 68.1401C35.7014 68.2301 35.6014 68.3202 35.5114 68.4102C35.4314 68.5002 35.3314 68.5902 35.2414 68.6802C35.1614 68.7702 35.0614 68.8602 34.9714 68.9502C34.8914 69.0402 34.7914 69.1302 34.7014 69.2202C34.6214 69.3102 34.5214 69.4001 34.4314 69.4901C34.3514 69.5801 34.2514 69.6701 34.1614 69.7601C34.0814 69.8501 33.9814 69.9402 33.8914 70.0302C33.8114 70.1201 33.7114 70.2102 33.6214 70.3002C33.5414 70.3902 33.4414 70.4802 33.3514 70.5702C33.2714 70.6602 33.1714 70.7502 33.0814 70.8402C33.0014 70.9302 32.9014 71.0202 32.8114 71.1102C32.7314 71.2002 32.6314 71.2901 32.5414 71.3801C32.4614 71.4701 32.3614 71.5602 32.2714 71.6501C32.1914 71.7401 32.0914 71.8302 32.0014 71.9202C31.9214 72.0102 31.8214 72.1002 31.7314 72.1902C31.6514 72.2802 31.5514 72.3702 31.4614 72.4602C31.3814 72.5502 31.2814 72.6402 31.1914 72.7302C31.1114 72.8202 31.0114 72.9101 30.9214 73.0001C30.8414 73.0901 30.7414 73.1801 30.6514 73.2701C30.5914 73.3401 30.5214 73.4002 30.4614 73.4702C29.3514 74.7202 27.7914 75.6501 25.7614 76.2501L24.8914 76.4402C24.1114 76.6102 23.3414 76.6902 22.5814 76.6902C20.7814 76.6902 19.0114 76.2202 17.2714 75.2802C15.2014 74.1601 13.5714 72.3601 12.3814 69.8901C11.4914 67.9101 8.97143 57.3402 4.81143 38.1902C3.27143 31.0802 2.47143 27.0802 2.43143 26.1702C2.42143 24.5002 2.92143 22.9501 3.93143 21.5201C4.23143 21.0901 4.58143 20.6902 4.96143 20.3102C5.05143 20.2102 5.15143 20.1202 5.24143 20.0302C5.33143 19.9402 5.42143 19.8501 5.51143 19.7601C5.60143 19.6701 5.69143 19.5801 5.78143 19.4901C5.87143 19.4001 5.96143 19.3102 6.05143 19.2202C6.14143 19.1302 6.23143 19.0402 6.32143 18.9502C6.41143 18.8602 6.50143 18.7702 6.59143 18.6802C6.68143 18.5902 6.77143 18.5002 6.86143 18.4102C6.95143 18.3202 7.04143 18.2301 7.13143 18.1401C7.22143 18.0501 7.31143 17.9601 7.40143 17.8701C7.49143 17.7801 7.58143 17.6902 7.67143 17.6002C7.76143 17.5102 7.85143 17.4202 7.94143 17.3302C8.03143 17.2402 8.12143 17.1502 8.21143 17.0602C8.30143 16.9702 8.39143 16.8802 8.48143 16.7902C8.57143 16.7002 8.66143 16.6101 8.75143 16.5201C8.84143 16.4301 8.93143 16.3401 9.02143 16.2501C9.11143 16.1601 9.20143 16.0702 9.29143 15.9802C9.38143 15.8902 9.47143 15.8002 9.56143 15.7102C9.65143 15.6202 9.74143 15.5302 9.83143 15.4402C9.92143 15.3502 10.0114 15.2602 10.1014 15.1702C10.1914 15.0802 10.2814 14.9901 10.3714 14.9001C10.4614 14.8101 10.5514 14.7201 10.6414 14.6301C10.7314 14.5401 10.8214 14.4502 10.9114 14.3602C11.0014 14.2702 11.0914 14.1802 11.1814 14.0902C11.2714 14.0002 11.3614 13.9102 11.4514 13.8202C11.5414 13.7302 11.6314 13.6402 11.7214 13.5502C11.8114 13.4602 11.9014 13.3702 11.9914 13.2802C12.0814 13.1902 12.1714 13.1001 12.2614 13.0101C12.3514 12.9201 12.4414 12.8301 12.5314 12.7401C12.6214 12.6501 12.7114 12.5602 12.8014 12.4702C12.8914 12.3802 12.9814 12.2902 13.0714 12.2002C13.1614 12.1102 13.2514 12.0202 13.3414 11.9302C13.4314 11.8402 13.5214 11.7502 13.6114 11.6602C13.7014 11.5602 13.8014 11.4801 13.8914 11.3801C14.8014 10.3901 15.9414 9.57017 17.3114 8.92017C18.3714 8.44017 19.2914 8.11019 20.0614 7.94019C20.8014 7.78019 21.6014 7.7002 22.4614 7.7002C23.0214 7.7002 23.6014 7.73017 24.2114 7.80017C26.6414 8.03017 28.6714 8.86015 30.2914 10.2802C31.9114 11.7002 33.3914 13.9401 34.7114 16.9901C34.7814 17.1601 34.8614 17.3502 34.9314 17.5402C35.3414 16.8002 35.8114 16.1402 36.3414 15.5802C36.4114 15.5102 36.4714 15.4601 36.5414 15.3901C36.5614 15.3601 36.5914 15.3302 36.6114 15.3102C36.6814 15.2402 36.7514 15.1802 36.8114 15.1102C36.8314 15.0902 36.8514 15.0602 36.8814 15.0402C36.9514 14.9702 37.0214 14.9102 37.0814 14.8402C37.1014 14.8202 37.1214 14.7901 37.1514 14.7601C37.2214 14.6901 37.2914 14.6302 37.3514 14.5602C37.3714 14.5402 37.3914 14.5101 37.4214 14.4901C37.4914 14.4201 37.5614 14.3602 37.6214 14.2902C37.6414 14.2702 37.6614 14.2402 37.6914 14.2102C37.7614 14.1402 37.8314 14.0801 37.8914 14.0101C37.9114 13.9901 37.9314 13.9602 37.9614 13.9402C38.0314 13.8702 38.1014 13.8101 38.1614 13.7401C38.1814 13.7201 38.2014 13.6902 38.2314 13.6702C38.3014 13.6002 38.3714 13.5402 38.4314 13.4702C38.4514 13.4502 38.4714 13.4201 38.5014 13.4001C38.5714 13.3301 38.6414 13.2702 38.7014 13.2002C38.7214 13.1802 38.7414 13.1501 38.7714 13.1301C38.8414 13.0601 38.9114 13.0002 38.9714 12.9302C38.9914 12.9102 39.0114 12.8802 39.0414 12.8602C39.1114 12.7902 39.1814 12.7302 39.2414 12.6602C39.2614 12.6402 39.2814 12.6102 39.3114 12.5802C39.3814 12.5102 39.4514 12.4501 39.5114 12.3901C39.5314 12.3701 39.5514 12.3402 39.5814 12.3102C39.6514 12.2402 39.7214 12.1802 39.7814 12.1102C39.8014 12.0902 39.8214 12.0602 39.8514 12.0302C39.9214 11.9602 39.9914 11.9002 40.0514 11.8302C40.0714 11.8102 40.0914 11.7801 40.1214 11.7601C40.1914 11.6901 40.2614 11.6302 40.3214 11.5602C40.3414 11.5402 40.3614 11.5101 40.3914 11.4901C40.4614 11.4201 40.5314 11.3602 40.5914 11.2902C40.6114 11.2702 40.6314 11.2402 40.6614 11.2202C40.7314 11.1502 40.8014 11.0901 40.8614 11.0201C40.8814 11.0001 40.9014 10.9702 40.9314 10.9502C41.0014 10.8802 41.0714 10.8201 41.1314 10.7501C41.1514 10.7301 41.1714 10.7002 41.2014 10.6702C41.2714 10.6002 41.3414 10.5402 41.4014 10.4702C41.4214 10.4502 41.4414 10.4201 41.4714 10.4001C41.5414 10.3301 41.6114 10.2702 41.6714 10.2002C41.6914 10.1802 41.7114 10.1501 41.7414 10.1201C41.8114 10.0501 41.8814 9.99018 41.9414 9.93018C41.9614 9.91018 41.9814 9.88022 42.0114 9.85022C42.0814 9.78022 42.1514 9.72015 42.2114 9.65015C42.2314 9.63015 42.2514 9.6002 42.2814 9.5802C42.3514 9.5102 42.4214 9.45013 42.4814 9.38013C42.5014 9.36013 42.5214 9.33018 42.5514 9.31018C42.6214 9.24018 42.6914 9.18023 42.7514 9.11023C42.7714 9.09023 42.7914 9.06016 42.8214 9.04016C42.8914 8.97016 42.9614 8.91021 43.0214 8.84021C43.0414 8.82021 43.0614 8.79013 43.0914 8.76013C43.1614 8.69013 43.2314 8.63018 43.2914 8.56018C43.3114 8.54018 43.3314 8.51011 43.3614 8.49011C43.4314 8.42011 43.5014 8.36016 43.5614 8.29016C43.5814 8.27016 43.6014 8.24021 43.6314 8.21021C43.7014 8.1402 43.7714 8.08013 43.8314 8.01013C43.8514 7.99013 43.8714 7.96019 43.9014 7.94019C43.9714 7.87019 44.0414 7.81011 44.1014 7.74011C44.1214 7.72011 44.1414 7.69017 44.1714 7.67017C44.2414 7.60017 44.3114 7.54022 44.3714 7.47021C44.3914 7.45021 44.4114 7.42015 44.4414 7.40015C44.5114 7.33015 44.5814 7.2702 44.6414 7.2002C44.6614 7.1802 44.6814 7.15013 44.7114 7.13013C44.7814 7.06013 44.8514 7.00018 44.9114 6.93018C44.9314 6.91018 44.9514 6.88023 44.9814 6.86023C45.0514 6.79023 45.1214 6.73016 45.1814 6.66016C45.2014 6.64016 45.2214 6.6102 45.2514 6.5802C45.3214 6.5102 45.3914 6.45013 45.4614 6.38013C45.4814 6.36013 45.5014 6.33018 45.5214 6.31018C46.7414 5.06018 47.9414 4.20012 49.1014 3.75012C50.2714 3.29012 52.1314 2.95021 54.6914 2.72021L54.9114 2.71021C55.3014 2.69021 55.6814 2.68018 56.0614 2.68018C62.2014 2.68018 67.1214 5.34015 70.8314 10.6501L70.8414 10.6401C70.9314 10.5401 71.0214 10.4601 71.1114 10.3701C71.2014 10.2701 71.2914 10.1902 71.3814 10.1002C71.4714 10.0002 71.5614 9.9202 71.6514 9.8302C71.7414 9.7302 71.8314 9.65018 71.9214 9.56018C72.0114 9.46018 72.1014 9.38016 72.1914 9.29016C72.2814 9.19016 72.3714 9.11014 72.4614 9.02014C72.5514 8.92014 72.6414 8.84012 72.7314 8.75012C72.8214 8.65012 72.9114 8.57022 73.0014 8.48022C73.0914 8.38022 73.1814 8.30021 73.2714 8.21021C73.3614 8.11021 73.4514 8.03019 73.5414 7.94019C73.6314 7.84019 73.7214 7.76017 73.8114 7.67017C73.9014 7.57017 73.9914 7.49015 74.0814 7.40015C74.1714 7.30015 74.2614 7.22013 74.3514 7.13013C74.4414 7.03013 74.5314 6.95023 74.6214 6.86023C74.7114 6.76023 74.8014 6.68021 74.8914 6.59021C74.9814 6.49021 75.0714 6.41019 75.1614 6.32019C75.2514 6.22019 75.3414 6.14017 75.4314 6.05017C75.5214 5.95017 75.6114 5.87015 75.7014 5.78015C75.7914 5.68015 75.8814 5.60013 75.9714 5.51013C76.0614 5.41013 76.1514 5.33011 76.2414 5.24011C76.3314 5.14011 76.4214 5.06021 76.5114 4.97021C76.6014 4.88021 76.6814 4.80021 76.7714 4.71021C77.5014 3.94021 78.2214 3.37014 78.9414 3.02014C79.8614 2.58014 81.1314 2.31022 82.7614 2.23022C83.1014 2.21022 83.7314 2.2002 84.6414 2.2002C85.0514 2.2002 85.5114 2.20021 86.0314 2.21021C88.9614 2.31021 91.1514 2.77012 92.6114 3.62012C94.0714 4.46012 95.4014 6.09012 96.6214 8.50012C97.6714 10.5801 98.4314 12.8402 98.9114 15.2902C99.0414 15.9602 99.1614 16.7302 99.2714 17.5802C99.3014 17.5502 99.3214 17.5201 99.3614 17.4901C99.3814 17.4701 99.4014 17.4602 99.4314 17.4402C99.5014 17.3702 99.5614 17.2902 99.6314 17.2202C99.6514 17.2002 99.6714 17.1902 99.7014 17.1702C99.7714 17.1002 99.8314 17.0202 99.9014 16.9502C99.9214 16.9302 99.9414 16.9201 99.9714 16.9001C100.041 16.8301 100.101 16.7502 100.171 16.6802C100.191 16.6602 100.211 16.6501 100.241 16.6301C100.311 16.5601 100.371 16.4802 100.441 16.4102C100.461 16.3902 100.481 16.3802 100.511 16.3602C100.581 16.2902 100.641 16.2101 100.711 16.1401C100.731 16.1201 100.751 16.1102 100.781 16.0902C100.851 16.0202 100.911 15.9401 100.981 15.8701C101.001 15.8501 101.021 15.8402 101.051 15.8202C101.121 15.7502 101.181 15.6702 101.251 15.6002C101.271 15.5802 101.291 15.5702 101.321 15.5502C101.391 15.4802 101.451 15.4002 101.521 15.3302C101.541 15.3102 101.561 15.3002 101.591 15.2802C101.661 15.2102 101.721 15.1302 101.791 15.0602C101.811 15.0402 101.831 15.0301 101.861 15.0101C101.931 14.9401 101.991 14.8602 102.061 14.7902C102.081 14.7702 102.101 14.7601 102.131 14.7401C102.201 14.6701 102.261 14.5901 102.331 14.5201C102.351 14.5001 102.371 14.4902 102.401 14.4702C102.471 14.4002 102.531 14.3201 102.601 14.2501C102.621 14.2301 102.641 14.2202 102.671 14.2002C102.741 14.1302 102.801 14.0502 102.871 13.9802C102.891 13.9602 102.911 13.9502 102.941 13.9302C103.011 13.8602 103.071 13.7802 103.141 13.7102C103.161 13.6902 103.181 13.6802 103.211 13.6602C103.281 13.5902 103.341 13.5102 103.411 13.4402C103.431 13.4202 103.451 13.4101 103.481 13.3901C103.551 13.3201 103.611 13.2402 103.681 13.1702C103.701 13.1502 103.721 13.1401 103.751 13.1201C103.821 13.0501 103.881 12.9701 103.951 12.9001C103.971 12.8801 103.991 12.8702 104.021 12.8502C104.091 12.7802 104.151 12.7001 104.221 12.6301C104.241 12.6101 104.261 12.6002 104.291 12.5802C104.361 12.5102 104.421 12.4302 104.491 12.3602C104.511 12.3402 104.531 12.3302 104.561 12.3102C104.631 12.2402 104.691 12.1602 104.761 12.0902C104.781 12.0702 104.801 12.0602 104.831 12.0402C104.901 11.9702 104.961 11.8902 105.031 11.8202C105.051 11.8002 105.071 11.7901 105.101 11.7701C105.171 11.7001 105.231 11.6202 105.301 11.5502C105.321 11.5302 105.341 11.5201 105.371 11.5001C105.441 11.4301 105.501 11.3502 105.571 11.2802C105.591 11.2602 105.611 11.2502 105.641 11.2302C105.711 11.1602 105.771 11.0801 105.841 11.0101C105.861 10.9901 105.881 10.9802 105.911 10.9602C105.981 10.8902 106.041 10.8101 106.111 10.7401C106.131 10.7201 106.151 10.7102 106.181 10.6902C106.251 10.6202 106.311 10.5402 106.381 10.4702C106.401 10.4502 106.421 10.4402 106.451 10.4202C106.521 10.3502 106.581 10.2702 106.651 10.2002C106.671 10.1802 106.691 10.1701 106.721 10.1501C106.791 10.0801 106.851 10.0002 106.921 9.93018C106.941 9.91018 106.961 9.90013 106.991 9.88013C107.061 9.81013 107.121 9.73016 107.191 9.66016C107.211 9.64016 107.231 9.63023 107.261 9.61023C107.331 9.54023 107.391 9.46014 107.461 9.39014C107.481 9.37014 107.501 9.36021 107.531 9.34021C107.601 9.27021 107.661 9.19012 107.731 9.12012C107.751 9.10012 107.771 9.09019 107.801 9.07019C107.871 9.00019 107.931 8.92022 108.001 8.85022C109.291 7.66022 110.901 6.85015 112.831 6.40015C113.971 6.15015 114.931 6.03015 115.721 6.03015C116.961 6.03015 118.321 6.28014 119.801 6.77014C122.131 7.51014 123.931 8.75023 125.221 10.4802C126.511 12.2102 127.471 14.7102 128.111 17.9802C128.401 19.4102 128.571 21.8302 128.621 25.2202C129.791 23.5202 131.161 21.8802 132.721 20.3102C132.791 20.2402 132.841 20.1901 132.911 20.1301C132.941 20.1001 132.961 20.0702 132.991 20.0402C133.061 19.9702 133.111 19.9202 133.181 19.8602C133.211 19.8302 133.231 19.8001 133.261 19.7701C133.331 19.7001 133.381 19.6502 133.451 19.5902C133.481 19.5602 133.501 19.5301 133.531 19.5001C133.601 19.4301 133.651 19.3802 133.721 19.3202C133.751 19.2902 133.771 19.2602 133.801 19.2302C133.871 19.1602 133.921 19.1102 133.991 19.0502C134.021 19.0202 134.041 18.9902 134.071 18.9602C134.141 18.8902 134.191 18.8402 134.261 18.7802C134.291 18.7502 134.311 18.7202 134.341 18.6902C134.411 18.6202 134.461 18.5701 134.531 18.5101C134.561 18.4801 134.581 18.4502 134.611 18.4202C134.681 18.3502 134.731 18.3001 134.801 18.2401C134.831 18.2101 134.851 18.1801 134.881 18.1501C134.951 18.0801 135.001 18.0302 135.071 17.9702C135.101 17.9402 135.121 17.9101 135.151 17.8801C135.221 17.8101 135.271 17.7602 135.341 17.7002C135.371 17.6702 135.391 17.6402 135.421 17.6102C135.491 17.5402 135.541 17.4902 135.611 17.4302C135.641 17.4002 135.661 17.3702 135.691 17.3402C135.761 17.2702 135.811 17.2202 135.881 17.1602C135.911 17.1302 135.931 17.1002 135.961 17.0702C136.031 17.0002 136.081 16.9501 136.151 16.8901C136.181 16.8601 136.201 16.8302 136.231 16.8002C136.301 16.7302 136.351 16.6801 136.421 16.6201C136.451 16.5901 136.471 16.5602 136.501 16.5302C136.571 16.4602 136.621 16.4102 136.691 16.3502C136.721 16.3202 136.741 16.2901 136.771 16.2601C136.841 16.1901 136.891 16.1402 136.961 16.0802C136.991 16.0502 137.011 16.0201 137.041 15.9901C137.111 15.9201 137.161 15.8702 137.231 15.8102C137.261 15.7802 137.281 15.7502 137.311 15.7202C137.381 15.6502 137.431 15.6002 137.501 15.5402C137.531 15.5102 137.551 15.4802 137.581 15.4502C137.651 15.3802 137.701 15.3301 137.771 15.2701C137.801 15.2401 137.821 15.2102 137.851 15.1802C137.921 15.1102 137.971 15.0601 138.041 15.0001C138.071 14.9701 138.091 14.9402 138.121 14.9102C138.191 14.8402 138.241 14.7902 138.311 14.7302C138.341 14.7002 138.361 14.6701 138.391 14.6401C138.461 14.5701 138.511 14.5202 138.581 14.4602C138.611 14.4302 138.631 14.4001 138.661 14.3701C138.731 14.3001 138.781 14.2502 138.851 14.1902C138.881 14.1602 138.901 14.1302 138.931 14.1002C139.001 14.0302 139.051 13.9802 139.121 13.9202C139.151 13.8902 139.171 13.8602 139.201 13.8302C139.271 13.7602 139.321 13.7101 139.391 13.6501C139.421 13.6201 139.441 13.5902 139.471 13.5602C139.541 13.4902 139.591 13.4401 139.661 13.3801C139.691 13.3501 139.711 13.3202 139.741 13.2902C139.811 13.2202 139.861 13.1702 139.931 13.1102C139.961 13.0802 139.981 13.0501 140.011 13.0201C140.081 12.9501 140.131 12.9002 140.201 12.8402C140.231 12.8102 140.251 12.7801 140.281 12.7501C140.351 12.6801 140.401 12.6302 140.471 12.5702C140.501 12.5402 140.521 12.5102 140.551 12.4802C140.621 12.4102 140.671 12.3602 140.741 12.3002C140.771 12.2702 140.791 12.2402 140.821 12.2102C140.891 12.1402 140.941 12.0902 141.011 12.0302C141.041 12.0002 141.061 11.9702 141.091 11.9402C141.161 11.8702 141.211 11.8201 141.281 11.7601C141.311 11.7301 141.331 11.7002 141.361 11.6702C141.431 11.6002 141.481 11.5501 141.551 11.4901C141.581 11.4601 141.601 11.4301 141.631 11.4001C141.701 11.3301 141.751 11.2802 141.821 11.2202C141.851 11.1902 141.871 11.1601 141.901 11.1301C143.381 9.65013 144.561 8.59022 145.431 7.98022C146.301 7.36022 147.641 6.61021 149.471 5.72021C152.041 4.43021 153.871 3.5902 154.961 3.2002C156.051 2.8002 157.411 2.51018 159.041 2.31018C160.181 2.27018 161.491 2.2002 162.931 2.2002ZM161.511 42.1301H162.181C162.781 42.1301 163.411 41.9901 164.081 41.7501C163.891 41.6901 163.701 41.6202 163.531 41.5502C162.741 41.1802 161.601 40.2802 160.121 38.8402C158.701 37.4502 157.461 36.5202 156.391 36.0402C156.491 36.7902 156.681 37.5401 156.981 38.2701C157.571 39.6101 158.191 40.5601 158.841 41.1301C159.491 41.7001 160.381 42.0301 161.511 42.1301ZM162.931 0.410156C161.431 0.410156 160.031 0.490146 158.771 0.650146C157.021 0.860146 155.511 1.19013 154.301 1.63013C153.131 2.06013 151.271 2.91022 148.621 4.23022C146.701 5.16022 145.291 5.95014 144.331 6.64014C143.371 7.32014 142.151 8.42011 140.581 9.99011L140.491 10.0802L140.431 10.1401L140.311 10.2601L140.231 10.3502L140.161 10.4102L140.041 10.5302L139.961 10.6201L139.901 10.6802L139.781 10.8002L139.691 10.8901L139.631 10.9502L139.511 11.0702L139.421 11.1602L139.361 11.2202L139.241 11.3402L139.151 11.4302L139.091 11.4901L138.971 11.6102L138.881 11.7002L138.821 11.7601L138.701 11.8801L138.611 11.9702L138.551 12.0302L138.431 12.1501L138.351 12.2401L138.291 12.3002L138.171 12.4202L138.091 12.5101L138.031 12.5702L137.911 12.6902L137.821 12.7802L137.761 12.8402L137.641 12.9602L137.551 13.0502L137.491 13.1102L137.371 13.2302L137.281 13.3202L137.221 13.3801L137.101 13.5001L137.011 13.5902L136.951 13.6501L136.831 13.7701L136.741 13.8602L136.681 13.9202L136.561 14.0402L136.481 14.1301L136.421 14.1902L136.301 14.3102L136.221 14.4001L136.161 14.4602L136.041 14.5802L135.951 14.6702L135.891 14.7302L135.771 14.8502L135.691 14.9402L135.631 15.0001L135.511 15.1201L135.421 15.2102L135.361 15.2701L135.241 15.3901L135.151 15.4802L135.091 15.5402L134.971 15.6602L134.891 15.7501L134.831 15.8102L134.711 15.9302L134.631 16.0201L134.571 16.0802L134.451 16.2002L134.371 16.2902L134.311 16.3502L134.191 16.4702L134.111 16.5602L134.051 16.6201L133.931 16.7401L133.841 16.8302L133.781 16.8901L133.661 17.0101L133.571 17.1002L133.511 17.1602L133.391 17.2802L133.301 17.3701L133.241 17.4302L133.121 17.5502L133.031 17.6401L132.971 17.7002L132.851 17.8202L132.771 17.9102L132.711 17.9702L132.591 18.0902L132.511 18.1802L132.451 18.2401L132.331 18.3602L132.251 18.4502L132.191 18.5101L132.071 18.6301L131.981 18.7202L131.921 18.7802L131.801 18.9001L131.721 18.9901L131.661 19.0502L131.541 19.1702C131.121 19.6002 130.701 20.0302 130.311 20.4702C130.221 19.3602 130.111 18.4501 129.961 17.7401C129.261 14.1901 128.211 11.5002 126.751 9.54016C125.241 7.51016 123.111 6.04019 120.441 5.19019C118.801 4.64019 117.241 4.36023 115.811 4.36023C114.881 4.36023 113.811 4.49014 112.541 4.77014C110.291 5.29014 108.391 6.26015 106.881 7.65015C106.801 7.72015 106.731 7.80012 106.661 7.87012C106.641 7.89012 106.621 7.90017 106.611 7.92017C106.531 7.99017 106.461 8.07014 106.391 8.14014C106.371 8.16014 106.351 8.17019 106.341 8.19019C106.261 8.26019 106.191 8.34016 106.121 8.41016C106.101 8.43016 106.081 8.4402 106.071 8.46021C105.991 8.5302 105.921 8.61018 105.851 8.68018C105.831 8.70018 105.811 8.71022 105.801 8.73022C105.721 8.80022 105.651 8.8802 105.581 8.9502C105.561 8.9702 105.541 8.98012 105.531 9.00012C105.451 9.07012 105.381 9.15022 105.311 9.22021C105.291 9.24022 105.271 9.25014 105.261 9.27014C105.181 9.34014 105.111 9.42011 105.041 9.49011C105.021 9.51011 105.001 9.52016 104.991 9.54016C104.911 9.61016 104.841 9.69013 104.771 9.76013C104.751 9.78013 104.731 9.79018 104.721 9.81018C104.641 9.88018 104.571 9.96015 104.501 10.0302C104.481 10.0502 104.461 10.0602 104.451 10.0802C104.371 10.1502 104.301 10.2302 104.231 10.3002C104.211 10.3202 104.191 10.3302 104.181 10.3502C104.101 10.4202 104.031 10.5002 103.961 10.5702C103.941 10.5902 103.921 10.6001 103.911 10.6201C103.831 10.6901 103.761 10.7702 103.691 10.8402C103.671 10.8602 103.651 10.8701 103.641 10.8901C103.561 10.9601 103.491 11.0402 103.421 11.1102C103.401 11.1302 103.381 11.1402 103.371 11.1602C103.291 11.2302 103.221 11.3101 103.151 11.3801C103.131 11.4001 103.111 11.4102 103.101 11.4302C103.021 11.5002 102.951 11.5701 102.881 11.6501C102.861 11.6701 102.841 11.6802 102.831 11.7002C102.751 11.7702 102.681 11.8502 102.611 11.9202C102.591 11.9402 102.571 11.9502 102.561 11.9702C102.481 12.0402 102.411 12.1202 102.341 12.1902C102.321 12.2102 102.301 12.2201 102.291 12.2401C102.211 12.3101 102.141 12.3902 102.071 12.4602C102.051 12.4802 102.031 12.4901 102.021 12.5101C101.941 12.5801 101.871 12.6602 101.801 12.7302C101.781 12.7502 101.761 12.7602 101.751 12.7802C101.671 12.8502 101.601 12.9301 101.531 13.0001C101.511 13.0201 101.491 13.0302 101.481 13.0502C101.401 13.1202 101.331 13.2001 101.261 13.2701C101.241 13.2901 101.221 13.3002 101.211 13.3202C101.131 13.3902 101.061 13.4602 100.991 13.5402C100.971 13.5602 100.951 13.5702 100.941 13.5902C100.861 13.6602 100.791 13.7402 100.721 13.8102C100.701 13.8302 100.681 13.8402 100.671 13.8602C100.621 13.9002 100.581 13.9501 100.541 13.9901C100.031 11.7901 99.2914 9.71017 98.3214 7.80017C96.9314 5.04017 95.3914 3.20017 93.6114 2.17017C91.8814 1.17017 89.4614 0.630151 86.2014 0.530151C85.6314 0.530151 85.1614 0.520142 84.7514 0.520142C83.8014 0.520142 83.1514 0.530171 82.7814 0.550171C80.8914 0.650171 79.4214 0.970142 78.2714 1.52014C77.3714 1.96014 76.4714 2.64019 75.6014 3.57019L75.5614 3.61023C75.4914 3.68023 75.4214 3.75019 75.3514 3.82019L75.3114 3.86023C75.2314 3.93023 75.1614 4.01021 75.0814 4.09021L75.0314 4.14014C74.9614 4.21014 74.8814 4.29023 74.8114 4.36023L74.7714 4.40015C74.6914 4.47015 74.6214 4.55013 74.5414 4.63013L74.4914 4.67017C74.4214 4.74017 74.3414 4.82015 74.2714 4.90015L74.2214 4.94019C74.1514 5.01019 74.0714 5.09016 74.0014 5.16016L73.9514 5.21021C73.8814 5.28021 73.8014 5.36018 73.7314 5.43018L73.6914 5.47021C73.6114 5.54022 73.5414 5.6202 73.4614 5.7002L73.4214 5.74011C73.3414 5.81011 73.2714 5.89021 73.1914 5.97021L73.1414 6.01013C73.0714 6.08013 72.9914 6.16011 72.9214 6.24011L72.8814 6.28015C72.8014 6.35015 72.7314 6.43013 72.6514 6.51013L72.6114 6.55017C72.5314 6.62017 72.4614 6.70015 72.3814 6.78015L72.3414 6.82019C72.2614 6.89019 72.1914 6.97017 72.1114 7.05017L72.0714 7.09021C71.9914 7.16021 71.9214 7.24019 71.8414 7.32019L71.7914 7.36023C71.7114 7.43023 71.6414 7.51021 71.5614 7.59021L71.5214 7.63013C71.4414 7.70013 71.3714 7.78023 71.2914 7.86023L71.2414 7.90015C71.2014 7.94015 71.1514 7.98015 71.1114 8.03015C67.2214 3.35015 62.2014 0.980225 56.1614 0.980225C55.7514 0.980225 55.3414 0.990132 54.9214 1.01013L54.7014 1.02014C54.6814 1.02014 54.6514 1.02014 54.6314 1.02014C51.8714 1.27014 49.8814 1.65017 48.5414 2.17017C47.1414 2.72017 45.7214 3.72015 44.3314 5.15015C44.3014 5.18015 44.2714 5.21011 44.2514 5.24011L44.2414 5.25012C44.1814 5.31012 44.1214 5.37018 44.0514 5.43018C44.0214 5.46018 44.0014 5.49013 43.9714 5.51013L43.9614 5.52014C43.9014 5.58014 43.8414 5.6402 43.7714 5.7002C43.7414 5.7302 43.7214 5.75015 43.6914 5.78015L43.6814 5.79016C43.6214 5.85016 43.5614 5.91021 43.4914 5.97021C43.4714 5.99021 43.4414 6.02017 43.4114 6.05017L43.4014 6.06018C43.3414 6.12018 43.2814 6.18011 43.2114 6.24011C43.1814 6.27011 43.1614 6.29019 43.1314 6.32019L43.1214 6.3302C43.0614 6.3902 43.0014 6.45013 42.9314 6.51013C42.9014 6.54013 42.8814 6.56021 42.8514 6.59021L42.8414 6.60022C42.7814 6.66022 42.7214 6.71015 42.6614 6.78015C42.6314 6.81015 42.6114 6.84023 42.5814 6.86023L42.5714 6.87012C42.5114 6.93012 42.4514 6.98017 42.3814 7.05017C42.3514 7.08017 42.3314 7.11013 42.3014 7.13013L42.2914 7.14014C42.2314 7.20014 42.1714 7.25019 42.1114 7.32019C42.0814 7.35019 42.0614 7.38015 42.0314 7.40015L42.0214 7.41016C41.9614 7.47016 41.9014 7.52021 41.8414 7.59021C41.8114 7.62021 41.7914 7.65017 41.7614 7.67017L41.7514 7.68018C41.6914 7.74018 41.6314 7.80023 41.5614 7.86023C41.5414 7.89023 41.5114 7.91019 41.4814 7.94019L41.4714 7.9502C41.4114 8.0102 41.3514 8.07013 41.2814 8.13013C41.2514 8.16013 41.2314 8.1802 41.2014 8.21021L41.1914 8.22021C41.1314 8.28021 41.0714 8.34015 41.0014 8.40015C40.9714 8.43015 40.9514 8.45022 40.9214 8.48022L40.9114 8.49011C40.8514 8.55011 40.7914 8.60017 40.7314 8.67017C40.7014 8.70017 40.6814 8.73012 40.6514 8.75012L40.6414 8.76013C40.5814 8.82013 40.5214 8.87019 40.4514 8.94019C40.4214 8.97019 40.4014 9.00014 40.3714 9.02014L40.3614 9.03015C40.3014 9.09015 40.2414 9.14021 40.1814 9.21021C40.1514 9.2402 40.1214 9.27017 40.1014 9.30017C40.0414 9.36017 39.9814 9.41022 39.9214 9.48022C39.8914 9.51022 39.8714 9.54019 39.8414 9.57019L39.8314 9.5802C39.7714 9.6402 39.7114 9.70013 39.6414 9.76013C39.6114 9.79013 39.5914 9.81021 39.5614 9.84021L39.5514 9.85022C39.4914 9.91022 39.4314 9.97015 39.3614 10.0302C39.3414 10.0602 39.3114 10.0802 39.2814 10.1102L39.2714 10.1201C39.2114 10.1801 39.1514 10.2402 39.0814 10.3002C39.0514 10.3302 39.0314 10.3601 39.0014 10.3801L38.9914 10.3901C38.9314 10.4501 38.8714 10.5102 38.8014 10.5702C38.7714 10.6002 38.7514 10.6201 38.7214 10.6501L38.7114 10.6602C38.6514 10.7202 38.5914 10.7702 38.5314 10.8402C38.5014 10.8702 38.4814 10.9002 38.4514 10.9202L38.4414 10.9302C38.3814 10.9902 38.3214 11.0402 38.2614 11.1102C38.2314 11.1402 38.2114 11.1702 38.1814 11.1902L38.1714 11.2002C38.1114 11.2602 38.0514 11.3101 37.9814 11.3801C37.9514 11.4101 37.9314 11.4402 37.9014 11.4602L37.8914 11.4702C37.8314 11.5302 37.7714 11.5801 37.7014 11.6501C37.6714 11.6801 37.6514 11.7002 37.6214 11.7302L37.6114 11.7401C37.5514 11.8001 37.4914 11.8602 37.4214 11.9202C37.4014 11.9402 37.3714 11.9701 37.3414 12.0001L37.3314 12.0101C37.2714 12.0701 37.2114 12.1302 37.1414 12.1902C37.1114 12.2202 37.0914 12.2401 37.0614 12.2701L37.0514 12.2802C36.9914 12.3402 36.9314 12.4002 36.8614 12.4602C36.8314 12.4902 36.8114 12.5102 36.7814 12.5402L36.7714 12.5502C36.7114 12.6102 36.6514 12.6602 36.5914 12.7302C36.5614 12.7602 36.5314 12.7902 36.5114 12.8202C36.4514 12.8802 36.3914 12.9301 36.3314 13.0001C36.3014 13.0301 36.2814 13.0602 36.2514 13.0802L36.2414 13.0902C36.1814 13.1502 36.1214 13.2001 36.0614 13.2701C36.0314 13.3001 36.0014 13.3302 35.9814 13.3602C35.9214 13.4202 35.8614 13.4702 35.8014 13.5402C35.7714 13.5702 35.7514 13.6001 35.7214 13.6201L35.7114 13.6301C35.6514 13.6901 35.5914 13.7502 35.5214 13.8102C35.4914 13.8402 35.4714 13.8701 35.4414 13.9001C35.3814 13.9601 35.3214 14.0102 35.2614 14.0802C35.2514 14.0902 35.2514 14.0902 35.2414 14.1002C34.0814 11.8802 32.8114 10.1802 31.4014 8.94019C29.4914 7.27019 27.1114 6.30015 24.3114 6.03015C23.6614 5.96015 23.0114 5.92017 22.3914 5.92017C21.4014 5.92017 20.4714 6.0102 19.6114 6.2002C18.7014 6.4002 17.6914 6.76017 16.5014 7.30017C14.9314 8.04017 13.6014 8.99014 12.5414 10.1401L12.4814 10.2002C12.4114 10.2702 12.3314 10.3402 12.2614 10.4202L12.2014 10.4802C12.1314 10.5502 12.0614 10.6202 11.9914 10.6902L11.9314 10.7501C11.8614 10.8201 11.7914 10.8902 11.7214 10.9602L11.6614 11.0201C11.5914 11.0901 11.5214 11.1602 11.4514 11.2302L11.3914 11.2902C11.3214 11.3602 11.2514 11.4301 11.1814 11.5001L11.1214 11.5602C11.0514 11.6302 10.9814 11.7001 10.9114 11.7701L10.8514 11.8302C10.7814 11.9002 10.7114 11.9702 10.6414 12.0402L10.5814 12.1002C10.5114 12.1702 10.4414 12.2402 10.3714 12.3102L10.3114 12.3701C10.2414 12.4401 10.1714 12.5102 10.1014 12.5802L10.0414 12.6401C9.97143 12.7101 9.90143 12.7802 9.83143 12.8502L9.77143 12.9102C9.70143 12.9802 9.63143 13.0501 9.56143 13.1201L9.50143 13.1802C9.43143 13.2502 9.36143 13.3201 9.29143 13.3901L9.23143 13.4502C9.16143 13.5202 9.09143 13.5902 9.02143 13.6602L8.96143 13.7202C8.89143 13.7902 8.82143 13.8602 8.75143 13.9302L8.69143 13.9901C8.62143 14.0601 8.55143 14.1302 8.48143 14.2002L8.42143 14.2601C8.35143 14.3301 8.28143 14.4002 8.21143 14.4702L8.15143 14.5302C8.08143 14.6002 8.01143 14.6701 7.94143 14.7401L7.88143 14.8002C7.81143 14.8702 7.74143 14.9401 7.67143 15.0101L7.61143 15.0702C7.54143 15.1402 7.47143 15.2102 7.40143 15.2802L7.34143 15.3402C7.27143 15.4102 7.20143 15.4802 7.13143 15.5502L7.07143 15.6102C7.00143 15.6802 6.93143 15.7502 6.86143 15.8202L6.80143 15.8801C6.73143 15.9501 6.66143 16.0202 6.59143 16.0902L6.53143 16.1501C6.46143 16.2201 6.39143 16.2902 6.32143 16.3602L6.26143 16.4202C6.19143 16.4902 6.12143 16.5601 6.05143 16.6301L5.99143 16.6902C5.92143 16.7602 5.85143 16.8301 5.78143 16.9001L5.72143 16.9602C5.65143 17.0302 5.58143 17.1002 5.51143 17.1702L5.45143 17.2302C5.38143 17.3002 5.31143 17.3702 5.24143 17.4402L5.18143 17.5001C5.11143 17.5701 5.04143 17.6402 4.97143 17.7102L4.91143 17.7701C4.84143 17.8401 4.77143 17.9102 4.70143 17.9802L4.64143 18.0402C4.57143 18.1102 4.50143 18.1801 4.43143 18.2501L4.37143 18.3102C4.30143 18.3802 4.23143 18.4501 4.16143 18.5201L4.10143 18.5802C4.03143 18.6502 3.96143 18.7202 3.89143 18.7902L3.83143 18.8502C3.75143 18.9202 3.68143 19.0002 3.61143 19.0802C3.13143 19.5702 2.73143 20.0301 2.41143 20.5001C1.19143 22.2401 0.58143 24.1502 0.59143 26.1902C0.59143 26.2202 0.59143 26.2401 0.59143 26.2701C0.62143 26.9701 0.93143 29.0002 3.01143 38.5802C8.63143 64.4902 10.0914 69.2801 10.6914 70.6301C10.7014 70.6501 10.7014 70.6602 10.7114 70.6802C12.0714 73.4902 13.9714 75.5701 16.3614 76.8701C18.3514 77.9501 20.4214 78.5001 22.5214 78.5001C23.4114 78.5001 24.3114 78.4002 25.2114 78.2102L26.0814 78.0201C26.1214 78.0101 26.1614 78.0001 26.2114 77.9901C28.5214 77.3101 30.3714 76.2102 31.7114 74.7202L31.7414 74.6902C31.7914 74.6402 31.8414 74.5902 31.8814 74.5402L31.9314 74.4901C32.0014 74.4201 32.0814 74.3401 32.1514 74.2701L32.2014 74.2202C32.2714 74.1502 32.3514 74.0801 32.4214 74.0001L32.4714 73.9502C32.5414 73.8802 32.6214 73.8102 32.6914 73.7302L32.7414 73.6802C32.8214 73.6102 32.8914 73.5302 32.9614 73.4602L33.0114 73.4102C33.0814 73.3402 33.1614 73.2702 33.2314 73.1902L33.2814 73.1401C33.3614 73.0701 33.4314 72.9902 33.5014 72.9202L33.5514 72.8701C33.6214 72.8001 33.7014 72.7201 33.7714 72.6501L33.8214 72.6002C33.8914 72.5302 33.9714 72.4601 34.0414 72.3801L34.0914 72.3302C34.1614 72.2602 34.2414 72.1802 34.3114 72.1102L34.3614 72.0602C34.4314 71.9902 34.5114 71.9202 34.5814 71.8402L34.6314 71.7902C34.7014 71.7202 34.7814 71.6402 34.8514 71.5702L34.9014 71.5201C34.9714 71.4501 35.0514 71.3702 35.1214 71.3002L35.1714 71.2501C35.2414 71.1801 35.3214 71.1002 35.3914 71.0302L35.4414 70.9802C35.5114 70.9102 35.5914 70.8301 35.6614 70.7601L35.7114 70.7102C35.7814 70.6402 35.8614 70.5701 35.9314 70.4901L35.9814 70.4402C36.0514 70.3702 36.1314 70.2902 36.2014 70.2202L36.2514 70.1702C36.2714 70.1502 36.3014 70.1302 36.3214 70.1002C38.0614 72.6002 40.8314 74.8901 45.1714 74.8901C45.3914 74.8901 45.6114 74.8801 45.8414 74.8701C47.2514 74.8001 48.9314 74.4802 50.8114 73.9302C52.7714 73.3602 54.2214 72.7402 55.2514 72.0402C56.1414 71.4702 57.0114 70.7102 57.8014 69.8202L57.8314 69.7902C57.8914 69.7302 57.9514 69.6702 58.0114 69.6102L58.0714 69.5602C58.1414 69.4902 58.2214 69.4202 58.2814 69.3402L58.3414 69.2902C58.4114 69.2202 58.4814 69.1502 58.5514 69.0702L58.6014 69.0201C58.6714 68.9501 58.7514 68.8802 58.8114 68.8002L58.8714 68.7501C58.9414 68.6801 59.0114 68.6102 59.0814 68.5302L59.1414 68.4802C59.2114 68.4102 59.2814 68.3401 59.3514 68.2601L59.4114 68.2102C59.4814 68.1402 59.5614 68.0701 59.6314 67.9901L59.6914 67.9402C59.7614 67.8702 59.8414 67.8002 59.9114 67.7202L59.9614 67.6702C60.0314 67.6002 60.1114 67.5302 60.1714 67.4502L60.2314 67.4001C60.3014 67.3301 60.3814 67.2602 60.4514 67.1802L60.5014 67.1301C60.5714 67.0601 60.6414 66.9902 60.7114 66.9102L60.7714 66.8602C60.8414 66.7902 60.9114 66.7201 60.9814 66.6401L61.0414 66.5902C61.1114 66.5202 61.1814 66.4501 61.2514 66.3701L61.3114 66.3202C61.3814 66.2502 61.4514 66.1802 61.5214 66.1002L61.5814 66.0502C61.6514 65.9802 61.7314 65.9102 61.8014 65.8302L61.8614 65.7802C61.9214 65.7202 61.9914 65.6602 62.0514 65.5902C64.0414 68.3802 65.9914 70.3202 67.9614 71.4702C69.9714 72.6402 72.5014 73.2302 75.4814 73.2302C75.9014 73.2302 76.3214 73.2202 76.7614 73.2002L78.0914 73.1301C78.1114 73.1301 78.1414 73.1301 78.1614 73.1301C80.9614 72.8801 83.3414 72.2202 85.2414 71.1702C86.6014 70.4202 87.7114 69.6002 88.5314 68.7302L88.5414 68.7202C88.6414 68.6302 88.7314 68.5402 88.8214 68.4402L88.8414 68.4302C88.9314 68.3502 89.0114 68.2602 89.0914 68.1802L89.1014 68.1702C89.1914 68.0802 89.2814 68.0002 89.3614 67.9102L89.3714 67.9001C89.4614 67.8102 89.5414 67.7301 89.6314 67.6401L89.6414 67.6301C89.7314 67.5401 89.8214 67.4601 89.9014 67.3701L89.9114 67.3602C90.0014 67.2702 90.0914 67.1902 90.1714 67.1002C90.2814 67.0002 90.3614 66.9102 90.4414 66.8302L90.4514 66.8202C90.5414 66.7302 90.6314 66.6502 90.7114 66.5602C90.8214 66.4602 90.9014 66.3702 90.9814 66.2902L90.9914 66.2802C91.0814 66.2001 91.1614 66.1101 91.2414 66.0201L91.2514 66.0101C91.3414 65.9201 91.4314 65.8401 91.5114 65.7501L91.5214 65.7401C91.6114 65.6501 91.6914 65.5702 91.7814 65.4802L91.7914 65.4702C91.8814 65.3802 91.9714 65.3002 92.0514 65.2102C92.1614 65.1102 92.2414 65.0202 92.3214 64.9402L92.3314 64.9302C92.4214 64.8402 92.5114 64.7602 92.5914 64.6702C92.7014 64.5702 92.7814 64.4801 92.8614 64.4001L92.8814 64.3901C92.9714 64.3101 93.0514 64.2201 93.1314 64.1401L93.1414 64.1301C93.2314 64.0401 93.3214 63.9601 93.4014 63.8701L93.4114 63.8602C93.5014 63.7702 93.5914 63.6902 93.6714 63.6002L93.6814 63.5902C93.7714 63.5002 93.8614 63.4202 93.9414 63.3302L93.9514 63.3202C94.0414 63.2302 94.1314 63.1502 94.2114 63.0602L94.2214 63.0502C94.3114 62.9602 94.4014 62.8802 94.4814 62.7902L94.4914 62.7802C94.5314 62.7402 94.5714 62.7002 94.6114 62.6602C94.7414 65.9702 94.8914 67.0702 95.0014 67.6002C95.0014 67.6202 95.0114 67.6301 95.0114 67.6501C95.7414 70.6801 97.1614 73.1201 99.2214 74.9001C101.671 77.0101 104.491 78.0802 107.591 78.0802H108.481C108.521 78.0802 108.571 78.0802 108.611 78.0802C111.711 77.8502 114.181 76.7902 115.951 74.9302C116.011 74.8702 116.071 74.8101 116.121 74.7401C116.201 74.6601 116.281 74.5801 116.361 74.5001C116.431 74.4301 116.531 74.3302 116.631 74.2302C116.701 74.1602 116.801 74.0602 116.911 73.9502C117.001 73.8602 117.091 73.7702 117.181 73.6802C117.251 73.6202 117.351 73.5102 117.451 73.4102C117.541 73.3202 117.631 73.2401 117.711 73.1501C117.781 73.0801 117.881 72.9801 117.981 72.8801C118.051 72.8101 118.151 72.7102 118.251 72.6102L118.261 72.6002C118.351 72.5102 118.441 72.4302 118.521 72.3402C118.591 72.2702 118.691 72.1702 118.791 72.0702C118.861 72.0002 118.961 71.9002 119.061 71.8002C119.131 71.7402 119.231 71.6301 119.331 71.5302C119.401 71.4702 119.501 71.3601 119.601 71.2601C119.671 71.2001 119.771 71.0901 119.871 70.9901C119.941 70.9301 120.041 70.8202 120.141 70.7202C120.211 70.6502 120.311 70.5502 120.411 70.4502C120.481 70.3802 120.581 70.2802 120.681 70.1802C120.751 70.1102 120.851 70.0102 120.951 69.9102C121.041 69.8202 121.131 69.7401 121.211 69.6501C121.281 69.5801 121.381 69.4801 121.481 69.3801C121.551 69.3201 121.651 69.2202 121.751 69.1102C121.821 69.0402 121.921 68.9402 122.021 68.8402C122.091 68.7702 122.191 68.6702 122.291 68.5702C122.361 68.5002 122.461 68.4002 122.561 68.3002C122.631 68.2302 122.731 68.1301 122.831 68.0302C122.901 67.9602 123.001 67.8601 123.101 67.7601C123.191 67.6701 123.281 67.5801 123.371 67.4901C123.441 67.4301 123.541 67.3202 123.641 67.2202C123.711 67.1602 123.811 67.0602 123.911 66.9502C123.981 66.8802 124.081 66.7802 124.181 66.6802L124.191 66.6702C124.281 66.5802 124.371 66.5002 124.451 66.4102C124.511 66.3602 124.561 66.3001 124.621 66.2501C125.411 65.5301 126.081 64.6902 126.601 63.7302C126.891 64.2202 127.201 64.7002 127.511 65.1802C128.581 66.7302 130.071 68.4602 131.971 70.3602C133.931 72.3202 135.581 73.6801 137.021 74.5001C138.111 75.1501 140.051 75.9401 142.931 76.8801C145.721 77.7901 148.021 78.4102 149.781 78.7202C149.801 78.7202 149.821 78.7302 149.841 78.7302C151.331 78.9402 152.451 79.0402 153.281 79.0402C159.281 79.0402 164.911 77.1502 170.001 73.4202C170.711 72.9202 171.531 72.1902 172.491 71.2102L172.631 71.0702C172.731 70.9702 172.831 70.8701 172.931 70.7701L173.201 70.5001C173.281 70.4201 173.371 70.3302 173.471 70.2302L173.741 69.9602C173.821 69.8802 173.911 69.7902 174.011 69.6902C174.091 69.6102 174.181 69.5202 174.281 69.4202C174.361 69.3402 174.451 69.2501 174.551 69.1501C174.631 69.0701 174.721 68.9801 174.821 68.8801C174.901 68.8001 174.991 68.7102 175.091 68.6102C175.171 68.5302 175.261 68.4402 175.361 68.3402L175.631 68.0702C175.711 67.9902 175.801 67.9002 175.901 67.8002C175.981 67.7202 176.071 67.6301 176.171 67.5302C176.251 67.4501 176.341 67.3601 176.441 67.2601L176.711 66.9901C176.791 66.9101 176.881 66.8202 176.981 66.7202L177.251 66.4502C177.331 66.3702 177.421 66.2802 177.521 66.1802C177.601 66.1002 177.691 66.0102 177.791 65.9102C177.871 65.8302 177.961 65.7401 178.061 65.6401C178.141 65.5601 178.231 65.4701 178.331 65.3701C178.411 65.2901 178.501 65.2002 178.601 65.1002C178.681 65.0202 178.771 64.9302 178.871 64.8302L179.141 64.5602C179.221 64.4802 179.311 64.3902 179.411 64.2902C179.491 64.2102 179.581 64.1201 179.681 64.0201C179.761 63.9401 179.851 63.8501 179.951 63.7501C180.031 63.6701 180.121 63.5802 180.221 63.4802C180.301 63.4002 180.391 63.3102 180.491 63.2102C180.571 63.1302 180.661 63.0402 180.761 62.9402C180.831 62.8702 180.921 62.7802 181.021 62.6802L181.031 62.6702L181.101 62.6102L181.201 62.5101C181.271 62.4401 181.331 62.3802 181.401 62.3102C180.981 67.9102 181.011 69.5202 181.081 70.2302C181.081 70.2502 181.081 70.2701 181.091 70.2802C181.511 73.3701 182.671 75.9402 184.541 77.9202C186.771 80.2702 189.461 81.6202 192.541 81.9302L193.431 82.0201C193.471 82.0201 193.521 82.0302 193.561 82.0302C193.721 82.0302 193.881 82.0402 194.031 82.0402C197.461 82.0402 200.181 80.9302 202.111 78.7302L202.131 78.7102C202.171 78.6702 202.221 78.6202 202.261 78.5802L202.311 78.5302C202.381 78.4602 202.461 78.3902 202.531 78.3102L202.581 78.2601C202.651 78.1901 202.731 78.1202 202.801 78.0402L202.851 77.9901C202.921 77.9201 203.001 77.8501 203.071 77.7701L203.121 77.7202C203.191 77.6502 203.271 77.5801 203.341 77.5001L203.391 77.4502C203.461 77.3802 203.541 77.3102 203.611 77.2302L203.661 77.1802C203.731 77.1102 203.811 77.0402 203.881 76.9602L203.931 76.9102C204.001 76.8402 204.081 76.7702 204.151 76.6902L204.201 76.6401C204.271 76.5701 204.351 76.5002 204.421 76.4202L204.471 76.3701C204.541 76.3001 204.621 76.2301 204.691 76.1501L204.741 76.1002C204.811 76.0302 204.891 75.9601 204.961 75.8801L205.011 75.8302C205.081 75.7602 205.161 75.6902 205.231 75.6102L205.281 75.5602C205.351 75.4902 205.431 75.4202 205.501 75.3402L205.551 75.2902C205.621 75.2202 205.701 75.1502 205.771 75.0702L205.821 75.0201C205.891 74.9501 205.971 74.8802 206.041 74.8002L206.091 74.7501C206.161 74.6801 206.241 74.6102 206.311 74.5302L206.361 74.4802C206.431 74.4102 206.511 74.3401 206.581 74.2601L206.631 74.2102C206.701 74.1402 206.781 74.0701 206.851 73.9901L206.901 73.9402C206.971 73.8702 207.051 73.8002 207.121 73.7202L207.171 73.6702C207.241 73.6002 207.321 73.5302 207.391 73.4502L207.441 73.4001C207.511 73.3301 207.591 73.2602 207.661 73.1802L207.711 73.1301C207.781 73.0601 207.861 72.9902 207.931 72.9102L207.981 72.8602C208.051 72.7902 208.131 72.7201 208.201 72.6401L208.251 72.5902C208.321 72.5202 208.401 72.4501 208.471 72.3701L208.521 72.3202C208.591 72.2502 208.671 72.1802 208.741 72.1002L208.791 72.0502C208.861 71.9802 208.941 71.9102 209.011 71.8302L209.061 71.7802C209.131 71.7102 209.211 71.6402 209.281 71.5602L209.331 71.5101C209.401 71.4401 209.481 71.3702 209.551 71.2902L209.601 71.2401C209.671 71.1701 209.751 71.1001 209.821 71.0201L209.871 70.9702C209.941 70.9002 210.021 70.8301 210.091 70.7501L210.141 70.7002C210.211 70.6302 210.281 70.5601 210.351 70.4901L210.391 70.4502C210.451 70.3902 210.511 70.3401 210.571 70.2802C211.511 69.4202 212.281 68.3802 212.861 67.2002C212.931 67.0702 213.001 66.9302 213.061 66.7802C213.251 67.0702 213.441 67.3501 213.641 67.6301C215.361 70.0201 217.511 71.8102 220.061 72.9602C222.521 74.0702 225.801 74.8701 230.101 75.4001C232.611 75.6801 234.911 75.8202 236.941 75.8202C238.961 75.8202 240.781 75.6801 242.361 75.4001C245.621 74.8301 248.751 73.4602 251.641 71.3402C252.321 70.8302 252.991 70.2602 253.701 69.5902C253.761 69.5402 253.831 69.4601 253.911 69.3801L254.001 69.2902C254.051 69.2402 254.131 69.1702 254.201 69.0902L254.271 69.0201C254.321 68.9701 254.401 68.9002 254.471 68.8202L254.541 68.7501C254.591 68.7001 254.671 68.6302 254.741 68.5502L254.811 68.4802C254.861 68.4302 254.941 68.3602 255.011 68.2802L255.081 68.2102C255.131 68.1602 255.211 68.0901 255.281 68.0101L255.351 67.9402C255.401 67.8902 255.481 67.8201 255.551 67.7401L255.621 67.6702C255.671 67.6202 255.751 67.5502 255.821 67.4702L255.891 67.4001C255.941 67.3501 256.021 67.2802 256.091 67.2002L256.161 67.1301C256.211 67.0801 256.291 67.0102 256.361 66.9302L256.431 66.8602C256.481 66.8102 256.561 66.7402 256.631 66.6602L256.701 66.5902C256.751 66.5402 256.831 66.4701 256.901 66.3901L256.971 66.3202C257.021 66.2702 257.101 66.2001 257.171 66.1201L257.241 66.0502C257.291 66.0002 257.371 65.9302 257.441 65.8502L257.511 65.7802C257.561 65.7301 257.641 65.6602 257.711 65.5802L257.781 65.5101C257.831 65.4601 257.911 65.3902 257.981 65.3102L258.051 65.2401C258.101 65.1901 258.181 65.1202 258.251 65.0402L258.321 64.9702C258.371 64.9202 258.451 64.8501 258.521 64.7701L258.591 64.7002C258.641 64.6502 258.721 64.5801 258.791 64.5001L258.861 64.4302C258.911 64.3802 258.991 64.3102 259.061 64.2302L259.131 64.1602C259.181 64.1102 259.261 64.0402 259.331 63.9602L259.401 63.8901C259.451 63.8401 259.531 63.7702 259.601 63.6902L259.671 63.6201C259.721 63.5701 259.801 63.5002 259.871 63.4202L259.941 63.3502C259.991 63.3002 260.071 63.2301 260.141 63.1501L260.211 63.0802C260.261 63.0302 260.341 62.9601 260.411 62.8801L260.481 62.8102C260.531 62.7602 260.611 62.6902 260.681 62.6102L260.751 62.5402C260.801 62.4902 260.881 62.4202 260.951 62.3402L261.021 62.2701C261.071 62.2201 261.151 62.1502 261.221 62.0702L261.291 62.0001C261.341 61.9501 261.421 61.8802 261.491 61.8002L261.561 61.7302C261.611 61.6802 261.691 61.6102 261.761 61.5302L261.831 61.4602C261.881 61.4102 261.961 61.3401 262.031 61.2601L262.101 61.1902C262.151 61.1402 262.231 61.0701 262.301 60.9901L262.371 60.9202C262.431 60.8702 262.511 60.7802 262.591 60.7002L262.671 60.6201C264.371 59.0501 265.831 57.1802 266.981 55.0902C268.461 52.3902 269.771 48.6101 270.871 43.8701C271.211 42.3601 271.481 40.8202 271.671 39.2902C272.401 33.3002 271.801 27.3302 269.861 21.5402C268.801 18.4802 267.431 15.9001 265.791 13.8701C263.001 10.3001 259.451 7.57015 255.261 5.78015C253.311 4.99015 250.781 4.41013 247.501 4.01013C245.631 3.78013 243.911 3.66016 242.391 3.66016C241.621 3.66016 240.891 3.69012 240.211 3.75012C237.211 4.03012 234.221 4.92016 231.321 6.41016C229.041 7.58016 227.161 8.93019 225.751 10.4402L225.581 10.6201L225.561 10.6401C225.481 10.7201 225.391 10.8001 225.311 10.8901L225.291 10.9102C225.211 10.9902 225.121 11.0802 225.041 11.1602L225.021 11.1802C224.941 11.2602 224.851 11.3502 224.771 11.4302L224.751 11.4502C224.671 11.5302 224.591 11.6002 224.521 11.6802L224.481 11.7202C224.391 11.8002 224.311 11.8902 224.231 11.9702L224.211 11.9901C224.131 12.0701 224.041 12.1601 223.961 12.2401L223.941 12.2601C223.861 12.3401 223.771 12.4301 223.691 12.5101L223.671 12.5302C223.591 12.6102 223.501 12.7002 223.421 12.7802L223.401 12.8002C223.321 12.8802 223.231 12.9702 223.151 13.0502L223.131 13.0702C223.051 13.1502 222.961 13.2302 222.881 13.3202L222.861 13.3402C222.781 13.4202 222.701 13.4902 222.631 13.5702L222.591 13.6002C222.501 13.6802 222.421 13.7702 222.341 13.8502L222.321 13.8701C222.241 13.9501 222.151 14.0401 222.071 14.1201L222.051 14.1401C221.971 14.2201 221.881 14.3101 221.801 14.3901L221.781 14.4102C221.701 14.4902 221.611 14.5802 221.531 14.6602L221.511 14.6802C221.431 14.7602 221.341 14.8402 221.261 14.9302L221.241 14.9502C221.161 15.0302 221.071 15.1202 220.991 15.2002L220.971 15.2202C220.891 15.3002 220.801 15.3902 220.721 15.4702L220.701 15.4901C220.621 15.5701 220.541 15.6402 220.471 15.7202L220.431 15.7501C220.351 15.8301 220.271 15.9101 220.201 15.9901L220.171 16.0201C220.081 16.1001 220.001 16.1902 219.911 16.2802L219.891 16.3002C219.811 16.3802 219.721 16.4602 219.641 16.5502L219.621 16.5702C219.541 16.6502 219.461 16.7302 219.391 16.8002L219.351 16.8402C219.271 16.9202 219.181 17.0102 219.101 17.0902L219.081 17.1102C219.001 17.1902 218.911 17.2802 218.831 17.3602L218.811 17.3801C218.791 17.4001 218.781 17.4102 218.761 17.4302C218.421 16.4102 218.011 15.5002 217.541 14.7102C216.241 12.5302 214.281 10.8601 211.701 9.74011C210.121 9.03011 208.601 8.5902 207.181 8.4502C206.821 8.4102 206.431 8.39014 206.021 8.39014C205.381 8.39014 204.661 8.43014 203.881 8.52014C201.591 8.81014 199.601 9.58018 197.961 10.8102C197.521 11.1402 197.101 11.5102 196.681 11.9602C196.591 12.0502 196.501 12.1402 196.411 12.2302C196.321 12.3202 196.231 12.4101 196.141 12.5001C196.051 12.5901 195.961 12.6801 195.871 12.7701C195.781 12.8601 195.691 12.9502 195.601 13.0402C195.511 13.1302 195.421 13.2202 195.331 13.3102C195.241 13.4002 195.151 13.4902 195.061 13.5802C194.971 13.6702 194.881 13.7602 194.791 13.8502C194.701 13.9402 194.611 14.0301 194.521 14.1201C194.431 14.2101 194.341 14.3001 194.251 14.3901C194.161 14.4801 194.071 14.5702 193.981 14.6602C193.891 14.7502 193.801 14.8402 193.711 14.9302C193.621 15.0202 193.531 15.1102 193.441 15.2002C193.351 15.2902 193.261 15.3802 193.171 15.4702C193.081 15.5602 192.991 15.6501 192.901 15.7401C192.811 15.8301 192.721 15.9201 192.631 16.0101C192.541 16.1001 192.451 16.1902 192.361 16.2802C192.271 16.3702 192.181 16.4602 192.091 16.5502C192.001 16.6402 191.911 16.7302 191.821 16.8202C191.731 16.9102 191.641 17.0002 191.551 17.0902C191.461 17.1802 191.371 17.2702 191.281 17.3602C191.191 17.4502 191.101 17.5401 191.011 17.6301C190.921 17.7201 190.831 17.8101 190.741 17.9001C190.651 17.9901 190.561 18.0802 190.471 18.1702C190.381 18.2602 190.291 18.3502 190.201 18.4402C190.111 18.5302 190.021 18.6202 189.931 18.7102C189.841 18.8002 189.751 18.8902 189.661 18.9802C189.571 19.0702 189.481 19.1601 189.391 19.2501C189.301 19.3401 189.211 19.4301 189.121 19.5201C189.091 19.5501 189.051 19.5901 189.021 19.6201C188.881 17.6901 188.441 15.9201 187.711 14.3701C186.631 12.1501 185.051 10.0002 183.021 7.94019C180.991 5.88019 178.801 4.2502 176.511 3.0802C173.101 1.3002 168.531 0.410156 162.931 0.410156ZM184.111 31.9802C184.181 31.9102 184.251 31.8401 184.321 31.7701C184.181 33.0701 184.011 34.6102 183.821 36.4502C183.641 36.3102 183.451 36.1802 183.261 36.0502C182.591 35.6002 181.911 35.2101 181.211 34.8901C181.261 34.8401 181.311 34.7902 181.361 34.7302L181.401 34.6802C181.481 34.6102 181.551 34.5302 181.631 34.4602L181.671 34.4102C181.751 34.3402 181.821 34.2602 181.891 34.1902L181.941 34.1401C182.021 34.0701 182.091 33.9902 182.171 33.9202L182.211 33.8701C182.291 33.8001 182.361 33.7201 182.441 33.6501L182.481 33.6002C182.561 33.5302 182.631 33.4501 182.711 33.3801L182.751 33.3302C182.831 33.2602 182.901 33.1802 182.981 33.1102L183.021 33.0602C183.101 32.9902 183.171 32.9102 183.241 32.8402L183.281 32.7902C183.361 32.7202 183.431 32.6402 183.511 32.5702L183.551 32.5201C183.631 32.4501 183.701 32.3702 183.771 32.3002L183.821 32.2501C183.901 32.1801 183.971 32.1002 184.041 32.0302L184.111 31.9802Z" fill="black"/>
<path d="M16.4814 9.92027C17.5414 9.44027 18.4614 9.11029 19.2314 8.94029C20.4414 8.68029 21.8214 8.63027 23.3814 8.80027C25.8114 9.03027 27.8414 9.86025 29.4614 11.2803C31.0814 12.7003 32.5614 14.9402 33.8814 17.9902C34.5714 19.5602 35.3914 22.5003 36.3214 26.8003C37.6514 32.9403 38.8114 39.6503 39.7814 46.9403C40.7514 54.2203 41.0614 58.9202 40.7114 61.0202C40.2114 64.5702 38.0114 66.9203 34.1114 68.0703L33.2414 68.2602C30.6314 68.8302 28.0914 68.4403 25.6214 67.1003C23.5514 65.9803 21.9214 64.1803 20.7314 61.7103C19.8414 59.7303 17.3214 49.1602 13.1614 30.0102C11.6214 22.9002 10.8214 18.9002 10.7814 17.9902C10.7714 16.3202 11.2714 14.7703 12.2814 13.3403C13.2914 11.9003 14.6914 10.7703 16.4814 9.92027Z" fill="#FFCC03" stroke="black" stroke-miterlimit="10" stroke-linecap="round" stroke-linejoin="round"/>
<path d="M44.7015 7.41015C45.9215 6.16015 47.1215 5.30021 48.2815 4.85021C49.4515 4.39021 51.3115 4.05018 53.8715 3.82018L54.0915 3.81017C61.2115 3.44017 66.7615 6.47014 70.7715 12.9001C72.1215 15.0101 72.8715 16.0602 73.0215 16.0502C73.1715 16.0402 73.2115 15.4702 73.1515 14.3302C72.9815 11.0702 73.7115 8.45011 75.3415 6.49011C76.2715 5.35011 77.2015 4.56011 78.1215 4.12011C79.0415 3.68011 80.3115 3.41019 81.9415 3.33019C82.4315 3.30019 83.5215 3.30017 85.2115 3.31017C88.1415 3.41017 90.3315 3.87021 91.7915 4.72021C93.2515 5.56021 94.5815 7.19021 95.8015 9.60021C96.8515 11.6802 97.6115 13.9401 98.0915 16.3901C98.5615 18.8401 98.9315 22.5702 99.1915 27.5602C99.5515 34.4302 99.4415 40.8902 98.8615 46.9402C98.2815 52.9902 97.3915 56.8901 96.2015 58.6401C95.5115 59.6201 94.3715 60.5402 92.7815 61.4202C91.0915 62.3502 88.9715 62.9301 86.4015 63.1601L85.0715 63.2302C81.8615 63.4002 79.2615 62.9001 77.2615 61.7401C75.2715 60.5801 73.1915 58.3702 71.0415 55.1102C69.4315 52.8102 68.5515 51.6201 68.4015 51.5301C68.3515 51.4801 68.2815 51.5402 68.1915 51.6902C68.1515 51.8902 68.1415 52.1601 68.1615 52.5101C68.2415 54.1401 67.7415 55.9401 66.6615 57.9001C65.5715 59.8601 64.2415 61.3601 62.6615 62.3801C61.8015 62.9701 60.4915 63.5201 58.7315 64.0301C56.9715 64.5401 55.4515 64.8301 54.1715 64.9001C49.0315 65.1701 45.5415 61.9002 43.7015 55.1102C42.6515 51.0502 41.8715 44.1302 41.3615 34.3502C41.3315 33.8102 41.3015 33.0301 41.2815 32.0101C41.2515 31.0001 41.2315 30.2401 41.2015 29.7501C40.9915 22.8201 41.1415 17.7802 41.6415 14.6002C42.1215 11.4202 43.1415 9.02015 44.7015 7.41015Z" fill="#FFCC03" stroke="black" stroke-miterlimit="10" stroke-linecap="round" stroke-linejoin="round"/>
<path d="M111.991 7.48035C113.131 7.23035 114.091 7.11035 114.881 7.11035C116.121 7.11035 117.481 7.36034 118.961 7.85034C121.291 8.59034 123.091 9.8303 124.381 11.5603C125.671 13.2903 126.631 15.7903 127.271 19.0603C127.621 20.7403 127.791 23.7903 127.791 28.1903C127.791 34.4703 127.491 41.2803 126.901 48.6003C126.311 55.9203 125.611 60.5803 124.821 62.5503C123.581 65.9103 120.931 67.7503 116.881 68.0403H115.991C113.321 68.0403 110.921 67.1203 108.791 65.2903C107.011 63.7603 105.791 61.6503 105.151 58.9803C104.701 56.8503 104.481 45.9903 104.481 26.4003C104.481 19.1303 104.551 15.0403 104.701 14.1503C105.051 12.5203 105.861 11.1103 107.151 9.92029C108.461 8.75029 110.061 7.93035 111.991 7.48035Z" fill="#FFCC03" stroke="black" stroke-miterlimit="10" stroke-linecap="round" stroke-linejoin="round"/>
<path d="M158.222 3.38013C159.412 3.23013 160.722 3.16016 162.152 3.16016C167.492 3.16016 171.752 3.98023 174.922 5.61023C177.052 6.70023 179.062 8.21014 180.972 10.1401C182.872 12.0701 184.322 14.0502 185.312 16.0802C186.102 17.7602 186.502 19.7202 186.502 21.9402C186.502 24.0202 186.202 25.7501 185.612 27.1401C184.622 29.2201 183.212 30.8602 181.382 32.0802C179.552 33.2902 177.522 33.9001 175.292 33.9001C173.852 33.9001 172.742 33.7102 171.952 33.3402C171.162 32.9702 170.022 32.0701 168.542 30.6301C166.362 28.5001 164.612 27.4402 163.272 27.4402C162.872 27.4402 162.552 27.4701 162.302 27.5101C160.322 27.8601 158.702 28.8302 157.442 30.4402C156.182 32.0502 155.552 33.8701 155.552 35.9001C155.552 37.0401 155.772 38.1501 156.222 39.2401C156.812 40.5801 157.432 41.5302 158.082 42.1002C158.722 42.6702 159.612 43.0002 160.752 43.1002H161.422C163.352 43.1002 165.682 41.8402 168.402 39.3102C170.082 37.8302 171.592 36.9301 172.932 36.6401C173.672 36.4901 174.392 36.4202 175.082 36.4202C177.312 36.4202 179.452 37.1101 181.502 38.5001C183.552 39.8901 185.072 41.6902 186.062 43.9202C186.652 45.2102 186.952 46.7202 186.952 48.4502C186.952 50.3802 186.582 52.1402 185.842 53.7202C185.252 54.9602 183.982 56.7302 182.052 59.0302C180.122 61.3302 178.562 62.9001 177.372 63.7401C172.572 67.2501 167.352 69.0101 161.712 69.0101C160.972 69.0101 159.902 68.9102 158.522 68.7102C156.842 68.4102 154.642 67.8202 151.912 66.9302C149.192 66.0402 147.332 65.3002 146.342 64.7002C145.052 63.9602 143.492 62.6702 141.662 60.8402C139.832 59.0102 138.422 57.3802 137.432 55.9402C135.702 53.3202 134.402 50.7002 133.532 48.0702C132.662 45.4502 132.082 42.3302 131.792 38.7202C131.642 37.2902 131.572 35.9301 131.572 34.6401C131.572 26.0801 134.742 18.6102 141.072 12.2202C142.552 10.7402 143.732 9.68019 144.602 9.07019C145.472 8.45019 146.812 7.70018 148.642 6.81018C151.212 5.52018 153.042 4.68016 154.132 4.29016C155.222 3.88016 156.582 3.58013 158.222 3.38013Z" fill="#FFCC03" stroke="black" stroke-miterlimit="10" stroke-linecap="round" stroke-linejoin="round"/>
<path d="M203.302 11.2501C204.462 11.1201 205.432 11.0902 206.222 11.1802C207.452 11.3102 208.782 11.6902 210.212 12.3302C212.452 13.3002 214.122 14.7202 215.222 16.5702C216.322 18.4202 217.032 21.0102 217.342 24.3202C217.512 26.0302 217.382 29.0702 216.932 33.4502C216.292 39.7002 215.302 46.4402 213.972 53.6702C212.632 60.9002 211.472 65.4502 210.482 67.3402C208.912 70.5602 206.092 72.1101 202.022 72.0001L201.132 71.9101C198.472 71.6401 196.182 70.4802 194.252 68.4502C192.632 66.7402 191.642 64.5302 191.272 61.8002C191.042 59.6402 191.932 48.8102 193.922 29.3202C194.662 22.0802 195.152 18.0301 195.392 17.1601C195.902 15.5701 196.862 14.2502 198.262 13.2002C199.652 12.1402 201.342 11.4901 203.302 11.2501Z" fill="#FFCC03" stroke="black" stroke-miterlimit="10" stroke-linecap="round" stroke-linejoin="round"/>
<path d="M239.602 6.47026C241.522 6.31026 243.822 6.39026 246.522 6.72026C249.612 7.10026 252.042 7.65027 253.802 8.36027C257.732 10.0403 261.012 12.5602 263.642 15.9202C265.152 17.8002 266.412 20.1702 267.402 23.0402C269.262 28.6002 269.842 34.2602 269.132 40.0002C268.952 41.4702 268.692 42.9402 268.372 44.3902C267.312 49.0002 266.072 52.5802 264.662 55.1502C263.252 57.7202 261.361 59.8802 259.001 61.6302C256.321 63.5902 253.472 64.8402 250.472 65.3702C247.462 65.9002 243.552 65.8903 238.732 65.3503C234.652 64.8503 231.482 64.0902 229.212 63.0602C226.942 62.0302 225.042 60.4502 223.512 58.3202C222.152 56.4102 221.122 54.3102 220.432 52.0302C219.742 49.7502 219.232 46.7002 218.902 42.8702C218.742 40.5102 218.962 36.8702 219.572 31.9602C220.022 28.2802 220.502 25.6402 220.992 24.0602C222.752 18.6902 224.192 15.2502 225.322 13.7502C226.642 11.9202 228.662 10.3102 231.372 8.92021C234.082 7.55021 236.822 6.72026 239.602 6.47026ZM245.952 29.0102C245.312 28.1302 244.822 27.6702 244.472 27.6302C244.132 27.5902 243.562 27.7403 242.772 28.0903C240.762 29.0403 239.612 30.6703 239.332 32.9803C239.212 33.9603 239.281 34.8402 239.531 35.6202C239.951 37.0702 240.882 38.0002 242.332 38.4302C242.522 38.5002 242.761 38.5603 243.061 38.5903C243.601 38.6603 244.312 38.3502 245.192 37.6602C246.402 36.7102 247.102 35.4802 247.292 33.9502C247.492 32.3402 247.042 30.6902 245.952 29.0102Z" fill="#FFCC03" stroke="black" stroke-miterlimit="10" stroke-linecap="round" stroke-linejoin="round"/>
</svg>
