<svg width="273" height="83" viewBox="0 0 273 83" fill="none" xmlns="http://www.w3.org/2000/svg">
<path d="M193.661 81.1102L192.711 81.0201C189.851 80.7301 187.341 79.4702 185.271 77.2802C183.531 75.4402 182.452 73.0401 182.062 70.1401C181.942 68.9501 182.111 65.5702 182.581 59.8002C181.891 60.5902 181.241 61.2802 180.641 61.8602L171.932 70.5702C171.021 71.5002 170.242 72.2002 169.562 72.6802C164.642 76.2802 159.192 78.1102 153.382 78.1102C152.592 78.1102 151.512 78.0102 150.062 77.8002C148.312 77.4902 146.051 76.8802 143.301 75.9802C140.492 75.0602 138.611 74.3002 137.551 73.6702C136.201 72.8902 134.611 71.5802 132.701 69.6802C130.841 67.8202 129.382 66.1302 128.371 64.6602C127.742 63.7002 127.151 62.7102 126.611 61.7002C126.581 61.7802 126.551 61.8502 126.531 61.9202C126.001 63.3602 125.181 64.6002 124.101 65.5702C124.071 65.6002 124.001 65.6602 123.931 65.7302C123.811 65.8502 123.731 65.9401 123.641 66.0201C123.561 66.1001 123.472 66.2001 123.382 66.2802C123.282 66.3902 123.191 66.4702 123.101 66.5602C123.021 66.6402 122.931 66.7402 122.841 66.8202C122.741 66.9202 122.661 67.0102 122.562 67.0902C122.472 67.1802 122.391 67.2702 122.301 67.3602C122.211 67.4602 122.121 67.5501 122.021 67.6301C121.931 67.7301 121.841 67.8102 121.752 67.9001C121.662 68.0001 121.571 68.0902 121.481 68.1702C121.391 68.2702 121.301 68.3502 121.211 68.4402C121.121 68.5402 121.032 68.6302 120.942 68.7102C120.852 68.8102 120.761 68.8902 120.671 68.9802C120.601 69.0502 120.501 69.1501 120.401 69.2501C120.311 69.3501 120.222 69.4401 120.132 69.5201C120.062 69.5901 119.961 69.6902 119.861 69.7902C119.761 69.9002 119.671 69.9802 119.581 70.0602C119.521 70.1202 119.422 70.2302 119.322 70.3302C119.222 70.4302 119.141 70.5202 119.041 70.6102C118.961 70.6902 118.871 70.7801 118.781 70.8701C118.681 70.9701 118.602 71.0601 118.502 71.1401C118.412 71.2401 118.321 71.3202 118.231 71.4102C118.141 71.5102 118.051 71.6002 117.961 71.6802C117.871 71.7802 117.782 71.8602 117.692 71.9502C117.602 72.0502 117.511 72.1402 117.421 72.2202C117.331 72.3202 117.241 72.4001 117.151 72.4901C117.061 72.5901 116.972 72.6801 116.882 72.7601C116.792 72.8601 116.701 72.9402 116.611 73.0302C116.541 73.1002 116.441 73.2002 116.341 73.3002C116.251 73.4002 116.162 73.4902 116.072 73.5702C116.002 73.6402 115.901 73.7402 115.801 73.8402C115.701 73.9402 115.611 74.0302 115.521 74.1102C115.471 74.1802 115.421 74.2302 115.361 74.2902C113.781 75.9702 111.501 76.9401 108.621 77.1501H107.661C104.781 77.1501 102.162 76.1502 99.8815 74.1902C97.9615 72.5402 96.6415 70.2602 95.9615 67.4102C95.7715 66.4902 95.6215 64.2402 95.5115 60.5402C95.4515 60.6102 95.3715 60.6801 95.3015 60.7501C95.1915 60.8601 95.1015 60.9502 95.0015 61.0502C94.9315 61.1202 94.8415 61.2102 94.7615 61.2902C94.6615 61.4002 94.5615 61.4902 94.4715 61.5802C94.3915 61.6602 94.3115 61.7502 94.2215 61.8302C94.1315 61.9302 94.0415 62.0102 93.9615 62.0902C93.8515 62.2102 93.7615 62.3001 93.6615 62.3901C93.5815 62.4701 93.5015 62.5501 93.4215 62.6301C93.3115 62.7501 93.2215 62.8402 93.1215 62.9302C93.0415 63.0102 92.9615 63.0902 92.8815 63.1702C92.7715 63.2902 92.6715 63.3802 92.5715 63.4802C92.5115 63.5502 92.4215 63.6302 92.3415 63.7102C92.2315 63.8302 92.1315 63.9201 92.0315 64.0201C91.9615 64.0901 91.8715 64.1801 91.7815 64.2701C91.6915 64.3701 91.5915 64.4602 91.4915 64.5602C91.4215 64.6302 91.3415 64.7202 91.2515 64.8002C91.1515 64.9102 91.0515 65.0002 90.9615 65.0902C90.8815 65.1702 90.8015 65.2602 90.7115 65.3402C90.6115 65.4502 90.5115 65.5401 90.4215 65.6301C90.3415 65.7201 90.2515 65.8102 90.1515 65.9001C90.0715 65.9801 89.9915 66.0601 89.9115 66.1401C89.8015 66.2601 89.7115 66.3502 89.6115 66.4402C89.5315 66.5202 89.4515 66.6002 89.3715 66.6802C89.2615 66.8002 89.1715 66.8902 89.0715 66.9802C88.9915 67.0602 88.9115 67.1402 88.8315 67.2202C88.7115 67.3402 88.6215 67.4402 88.5215 67.5302C88.4615 67.6002 88.3715 67.6801 88.2915 67.7601C88.1715 67.8801 88.0715 67.9802 87.9715 68.0802C87.2115 68.8902 86.1715 69.6701 84.8715 70.3801C83.0815 71.3601 80.8215 71.9902 78.1415 72.2302L76.7715 72.3002C76.3515 72.3202 75.9415 72.3302 75.5415 72.3302C72.7215 72.3302 70.3415 71.7802 68.4715 70.6902C66.4515 69.5202 64.3515 67.3302 62.2315 64.2002C62.1915 64.2402 62.0215 64.4102 62.0215 64.4102C61.9715 64.4602 61.9015 64.5302 61.8415 64.6002L61.7515 64.6902C61.7115 64.7402 61.6415 64.8101 61.5715 64.8701L61.4915 64.9502C61.4415 65.0002 61.3715 65.0701 61.3115 65.1301L61.2215 65.2202C61.1715 65.2702 61.1115 65.3401 61.0415 65.4001L60.9515 65.4901C60.9015 65.5401 60.8315 65.6102 60.7715 65.6802L60.6815 65.7701C60.6415 65.8201 60.5715 65.8902 60.5015 65.9502L60.4115 66.0402C60.3715 66.0902 60.3015 66.1602 60.2315 66.2302L60.1415 66.3202C60.1015 66.3702 60.0315 66.4401 59.9615 66.5001L59.8715 66.5902C59.8315 66.6402 59.7615 66.7101 59.6915 66.7701L59.6015 66.8602C59.5515 66.9102 59.4815 66.9802 59.4215 67.0502L59.3315 67.1401C59.2915 67.1901 59.2215 67.2502 59.1515 67.3202L59.0615 67.4102C59.0115 67.4602 58.9415 67.5302 58.8815 67.6002L58.7915 67.6902C58.7515 67.7402 58.6815 67.8001 58.6115 67.8701L58.5215 67.9602C58.4715 68.0102 58.4015 68.0801 58.3415 68.1501L58.2515 68.2401C58.2115 68.2901 58.1415 68.3502 58.0715 68.4202L57.9815 68.5101C57.9315 68.5601 57.8615 68.6302 57.8015 68.7002L57.7115 68.7902C57.6715 68.8402 57.6015 68.9102 57.5315 68.9702C57.5315 68.9702 57.3515 69.1502 57.2915 69.2102C56.5015 70.1002 55.6815 70.8201 54.8115 71.3801C53.8815 72.0201 52.5115 72.6001 50.6515 73.1401C48.8315 73.6701 47.2315 73.9702 45.8815 74.0402C45.6715 74.0502 45.4615 74.0602 45.2615 74.0602C41.5415 74.0602 38.6215 72.2701 36.5715 68.7401C36.5615 68.7501 36.4615 68.8502 36.4615 68.8502C36.4215 68.9002 36.3415 68.9702 36.2715 69.0402L36.1915 69.1201C36.1515 69.1601 36.0815 69.2402 36.0015 69.3102L35.9215 69.3901C35.8815 69.4401 35.8015 69.5102 35.7315 69.5802L35.6515 69.6602C35.6115 69.7102 35.5315 69.7802 35.4615 69.8502L35.3815 69.9302C35.3415 69.9702 35.2715 70.0501 35.1915 70.1201L35.1115 70.2002C35.0715 70.2502 34.9915 70.3301 34.9115 70.4001L34.8415 70.4702C34.8115 70.5102 34.7315 70.5802 34.6515 70.6602L34.5715 70.7401C34.5315 70.7901 34.4515 70.8602 34.3815 70.9302L34.3015 71.0101C34.2615 71.0501 34.1915 71.1302 34.1215 71.2002L34.0415 71.2802C34.0015 71.3302 33.9215 71.4002 33.8515 71.4702L33.7715 71.5502C33.7315 71.5902 33.6615 71.6701 33.5915 71.7401L33.5115 71.8202C33.4715 71.8702 33.3915 71.9401 33.3215 72.0101L33.2415 72.0902C33.2015 72.1302 33.1315 72.2102 33.0615 72.2802L32.9815 72.3602C32.9415 72.4102 32.8615 72.4802 32.7815 72.5602L32.7015 72.6301C32.6715 72.6701 32.5915 72.7402 32.5215 72.8202L32.4415 72.9001C32.4015 72.9501 32.3215 73.0202 32.2515 73.0902L32.1715 73.1702C32.1315 73.2102 32.0615 73.2902 31.9815 73.3602L31.9015 73.4402C31.8615 73.4902 31.7815 73.5601 31.7115 73.6301L31.6315 73.7102C31.5915 73.7602 31.5115 73.8301 31.4415 73.9001C31.4415 73.9001 31.2815 74.0602 31.2315 74.1102C29.9815 75.5102 28.2615 76.5402 26.0915 77.1802L25.1615 77.3901C24.3215 77.5701 23.4815 77.6602 22.6615 77.6602C20.7115 77.6602 18.7815 77.1501 16.9315 76.1401C14.7015 74.9301 12.9315 72.9802 11.6615 70.3502C10.7315 68.2602 8.23147 57.8402 4.03147 38.4502C1.94147 28.8302 1.66148 26.9002 1.63148 26.2902C1.62148 24.4002 2.18148 22.6602 3.29148 21.0802C3.59148 20.6502 3.95148 20.2301 4.41148 19.7601C4.45148 19.7101 4.8015 19.3602 4.8715 19.3002L5.23149 18.9402C5.27149 18.8902 5.34149 18.8201 5.42149 18.7501L5.50147 18.6702C5.54147 18.6302 5.6115 18.5601 5.6815 18.4901L5.77149 18.4001C5.81149 18.3501 5.8815 18.2802 5.9615 18.2102L6.31147 17.8602C6.35147 17.8102 6.43147 17.7402 6.50147 17.6702L6.85148 17.3202C6.90148 17.2702 6.97148 17.2001 7.04148 17.1301L7.13148 17.0502C7.17148 17.0102 7.24147 16.9401 7.31147 16.8701L7.4015 16.7802C7.4415 16.7302 7.52147 16.6602 7.59147 16.5902L7.6815 16.5101C7.7215 16.4701 7.79149 16.4002 7.86149 16.3302L7.95149 16.2401C7.99149 16.1901 8.06148 16.1202 8.13148 16.0502L8.4915 15.7002C8.5315 15.6502 8.60149 15.5801 8.67149 15.5101L9.30149 14.8801C9.34149 14.8301 9.4115 14.7602 9.4915 14.6902L9.84147 14.3402C9.88147 14.2902 9.95147 14.2201 10.0315 14.1501L10.3815 13.8002C10.4215 13.7502 10.5015 13.6802 10.5715 13.6102L10.9215 13.2601C10.9615 13.2101 11.0415 13.1402 11.1115 13.0702L11.2015 12.9901C11.2415 12.9501 11.3115 12.8802 11.3815 12.8102L11.4715 12.7202C11.5115 12.6702 11.5915 12.6002 11.6615 12.5302L11.7515 12.4502C11.7915 12.4102 11.8615 12.3401 11.9315 12.2701L12.5615 11.6401C12.6015 11.5901 12.6715 11.5202 12.7415 11.4502L13.1015 11.1002C13.1415 11.0502 13.2115 10.9802 13.2915 10.9102L13.3815 10.8202C14.3515 9.76019 15.5915 8.87018 17.0515 8.18018C18.1715 7.67018 19.1615 7.32014 19.9915 7.14014C20.7915 6.97014 21.6615 6.88013 22.5815 6.88013C23.1615 6.88013 23.7815 6.92022 24.4215 6.98022C27.0215 7.23022 29.2315 8.13017 31.0015 9.67017C32.5415 11.0202 33.9615 13.0501 35.2215 15.7401C35.4215 15.4901 35.6215 15.2602 35.8315 15.0402C35.8815 14.9802 35.9315 14.9401 35.9815 14.9001C36.0515 14.8301 36.0815 14.8001 36.1115 14.7701C36.1515 14.7201 36.2015 14.6801 36.2515 14.6301C36.2615 14.6201 36.3615 14.5201 36.3715 14.5101C36.4215 14.4601 36.4715 14.4102 36.5215 14.3602C36.5315 14.3402 36.6215 14.2501 36.6415 14.2401C36.6915 14.1901 36.7415 14.1402 36.7915 14.0902C36.8015 14.0702 36.8915 13.9802 36.9115 13.9702L37.0615 13.8302C37.0715 13.8202 37.1615 13.7202 37.1815 13.7102C37.2415 13.6502 37.2915 13.6002 37.3415 13.5602C37.3515 13.5402 37.4515 13.4502 37.4615 13.4302L37.6115 13.2902C37.6215 13.2802 38.1015 12.7901 38.1515 12.7501C38.1615 12.7301 38.2515 12.6401 38.2715 12.6301C38.3215 12.5701 38.3715 12.5302 38.4215 12.4802C38.4415 12.4602 38.7915 12.1002 38.8115 12.0902C38.8615 12.0302 38.9115 11.9902 38.9615 11.9402C38.9815 11.9202 39.0715 11.8302 39.0815 11.8102C39.1315 11.7602 39.1715 11.7202 39.2215 11.6702C39.2315 11.6502 39.3215 11.5602 39.3415 11.5502C39.3915 11.5002 39.4415 11.4501 39.4915 11.4001C39.5115 11.3801 39.6015 11.2801 39.6215 11.2601C39.6615 11.2201 39.7115 11.1701 39.7615 11.1301C39.7715 11.1101 39.8615 11.0201 39.8815 11.0101C39.9315 10.9601 39.9815 10.9102 40.0315 10.8602C40.0515 10.8402 40.1415 10.7402 40.1615 10.7202C40.2015 10.6802 40.2515 10.6302 40.3015 10.5902C40.3115 10.5702 40.4015 10.4802 40.4215 10.4702C40.4715 10.4202 40.5215 10.3702 40.5715 10.3202C40.5815 10.3002 40.6715 10.2102 40.6915 10.2002C40.7415 10.1502 40.7915 10.1002 40.8415 10.0502C40.8515 10.0302 40.9415 9.94018 40.9615 9.93018L41.1115 9.79016C41.1215 9.78016 41.2115 9.68017 41.2315 9.67017C41.2915 9.61017 41.3415 9.56014 41.3915 9.52014C41.4015 9.50014 41.5015 9.41014 41.5115 9.39014L41.6615 9.25012C41.6715 9.24012 42.1515 8.75021 42.2015 8.71021C42.2115 8.69021 42.3015 8.60021 42.3215 8.59021C42.3715 8.53021 42.4215 8.49019 42.4715 8.44019C42.4915 8.42019 42.5815 8.33018 42.5915 8.31018C42.6415 8.26018 42.6915 8.22017 42.7415 8.17017C42.7515 8.15017 42.8415 8.06017 42.8615 8.05017C42.9115 7.99017 42.9615 7.95015 43.0115 7.90015C43.0315 7.88015 43.1215 7.79014 43.1315 7.77014C43.1815 7.72014 43.2315 7.68013 43.2815 7.63013C43.2915 7.61013 43.3815 7.52013 43.4015 7.51013C43.4515 7.46013 43.5015 7.41023 43.5515 7.36023C43.5715 7.34023 43.6615 7.24021 43.6815 7.22021C43.7215 7.18021 43.7715 7.13021 43.8215 7.09021C43.8315 7.07021 43.9215 6.98022 43.9415 6.97021C43.9915 6.92021 44.0415 6.87019 44.0915 6.82019C44.1115 6.80019 44.2015 6.70018 44.2215 6.68018C44.2615 6.64018 44.3115 6.59017 44.3615 6.55017C44.3715 6.53017 44.4615 6.44018 44.4815 6.43018C44.5315 6.38018 44.5815 6.33015 44.6315 6.28015C44.6415 6.26015 44.7315 6.17016 44.7515 6.16016C44.8015 6.10016 44.8515 6.06013 44.9115 6.01013C44.9215 5.99013 45.0115 5.91014 45.0215 5.89014C46.3315 4.55014 47.6415 3.61023 48.9215 3.11023C50.1715 2.62023 52.0915 2.26014 54.7615 2.02014L55.0215 2.01013C55.4215 1.99013 55.8215 1.98022 56.2115 1.98022C62.2915 1.98022 67.2915 4.50022 71.0815 9.47021C71.0915 9.46021 74.4115 6.15015 74.4115 6.15015C74.4615 6.09015 74.5415 6.01019 74.6215 5.94019C74.6215 5.94019 76.1515 4.41021 76.2215 4.34021C77.0715 3.44021 77.8915 2.81017 78.6915 2.42017C79.7315 1.92017 81.0915 1.63016 82.8615 1.54016C83.2115 1.52016 83.8515 1.51013 84.7915 1.51013L86.1915 1.52014C89.3215 1.62014 91.6115 2.12017 93.2115 3.05017C94.8415 3.99017 96.2615 5.71017 97.5715 8.30017C98.6515 10.4402 99.4515 12.8102 99.9315 15.3302C99.9715 15.5102 100.001 15.7102 100.041 15.9102C100.051 15.9002 100.071 15.8901 100.081 15.8801C100.131 15.8201 100.182 15.7502 100.252 15.6902C100.271 15.6702 100.331 15.6202 100.351 15.6102C100.401 15.5402 100.452 15.4902 100.512 15.4302C100.532 15.4102 100.591 15.3602 100.621 15.3402C100.672 15.2802 100.721 15.2101 100.791 15.1501C100.811 15.1301 100.871 15.0802 100.891 15.0702C100.941 15.0002 101.002 14.9401 101.062 14.8801C101.081 14.8601 101.141 14.8102 101.161 14.8002C101.211 14.7402 101.261 14.6702 101.331 14.6102C101.351 14.5902 101.411 14.5402 101.431 14.5302C101.481 14.4602 101.541 14.4002 101.601 14.3402C101.621 14.3202 101.681 14.2801 101.701 14.2601C101.741 14.2001 101.801 14.1302 101.871 14.0702C101.891 14.0502 101.951 14.0001 101.971 13.9901C102.021 13.9201 102.081 13.8602 102.141 13.8002C102.161 13.7802 102.211 13.7402 102.231 13.7202C102.281 13.6502 102.341 13.5902 102.401 13.5302C102.421 13.5102 102.482 13.4602 102.512 13.4402C102.552 13.3802 102.611 13.3201 102.671 13.2601C102.691 13.2401 102.751 13.2002 102.771 13.1802C102.821 13.1102 102.882 13.0501 102.942 12.9901C102.962 12.9701 103.031 12.9201 103.051 12.9001C103.091 12.8401 103.141 12.7802 103.211 12.7202C103.231 12.7002 103.292 12.6601 103.312 12.6401C103.362 12.5701 103.421 12.5102 103.481 12.4502C103.501 12.4302 103.571 12.3802 103.591 12.3602C103.631 12.3002 103.682 12.2402 103.752 12.1802C103.771 12.1602 103.831 12.1202 103.851 12.1002C103.901 12.0302 103.961 11.9702 104.021 11.9102C104.041 11.8902 104.102 11.8402 104.121 11.8202C104.172 11.7602 104.221 11.6901 104.291 11.6301C104.311 11.6101 104.371 11.5602 104.391 11.5502C104.441 11.4802 104.491 11.4301 104.551 11.3701C104.571 11.3501 104.631 11.3002 104.661 11.2802C104.711 11.2202 104.761 11.1502 104.831 11.0902C104.851 11.0702 104.911 11.0201 104.931 11.0101C104.981 10.9401 105.041 10.8802 105.101 10.8202C105.121 10.8002 105.181 10.7501 105.201 10.7401C105.251 10.6801 105.301 10.6102 105.371 10.5502C105.391 10.5302 105.451 10.4802 105.471 10.4702C105.521 10.4002 105.581 10.3402 105.641 10.2802C105.661 10.2602 105.721 10.2202 105.741 10.2002C105.791 10.1402 105.841 10.0701 105.911 10.0101C105.931 9.99013 105.992 9.94018 106.012 9.93018C106.062 9.86018 106.121 9.80011 106.181 9.74011C106.201 9.72011 106.251 9.68016 106.271 9.66016C106.321 9.59016 106.382 9.53022 106.442 9.47021C106.462 9.45021 106.521 9.40013 106.551 9.38013C106.591 9.32013 106.651 9.2602 106.711 9.2002C106.731 9.1802 106.792 9.14012 106.812 9.12012C106.862 9.05012 106.921 8.99018 106.981 8.93018C107.001 8.91018 107.071 8.86021 107.091 8.84021C107.131 8.78021 107.182 8.72016 107.252 8.66016C107.271 8.64016 107.331 8.6002 107.351 8.5802C107.401 8.5102 107.461 8.45014 107.521 8.39014C108.921 7.10014 110.682 6.20021 112.752 5.72021C113.962 5.46021 115.001 5.3302 115.851 5.3302C117.181 5.3302 118.641 5.60012 120.221 6.12012C122.701 6.91012 124.682 8.27015 126.072 10.1501C127.432 11.9801 128.461 14.6301 129.121 18.0101C129.341 19.1001 129.501 20.6802 129.581 22.8202C130.391 21.8102 131.271 20.8301 132.211 19.8801L132.671 19.4202L132.942 19.1501L133.651 19.7002L133.021 19.0702L133.211 18.8801L133.481 18.6102L134.192 19.1602L133.562 18.5302L133.752 18.3402L134.461 18.8901L133.831 18.2601L134.021 18.0702L134.731 18.6201L134.101 17.9901L134.291 17.8002L135.002 18.3502L134.372 17.7202L134.562 17.5302L135.271 18.0802L134.641 17.4502L134.831 17.2601L135.541 17.8102L134.911 17.1802L135.101 17.0001L135.822 17.5502L135.182 16.9202L136.932 15.1802L137.632 15.7501L137.021 15.0902L137.541 14.5702L138.252 15.1201L137.622 14.4901L137.812 14.3002L138.521 14.8502L137.891 14.2202L138.081 14.0302L138.791 14.5802L138.161 13.9502L138.351 13.7601L139.062 14.3102L138.432 13.6802L138.622 13.4901L139.331 14.0402L138.701 13.4102L140.981 11.1301L141.682 11.7002L141.072 11.0402L141.401 10.7102C142.931 9.18021 144.121 8.11021 145.041 7.46021C145.961 6.8102 147.321 6.04012 149.211 5.12012C151.831 3.81012 153.651 2.97018 154.791 2.56018C155.941 2.14018 157.382 1.83012 159.072 1.62012C160.282 1.47012 161.651 1.39014 163.111 1.39014C168.572 1.39014 173.011 2.25019 176.291 3.94019C178.491 5.07019 180.612 6.65013 182.572 8.63013C184.532 10.6201 186.051 12.7002 187.081 14.8002C187.931 16.6102 188.361 18.7102 188.361 21.0602C188.361 21.3202 188.361 21.5702 188.351 21.8102C188.431 21.7202 188.521 21.6302 188.611 21.5502C188.682 21.4802 188.782 21.3802 188.882 21.2802C188.952 21.2002 189.051 21.1001 189.151 21.0101C189.221 20.9401 189.321 20.8401 189.421 20.7401C189.492 20.6601 189.591 20.5602 189.701 20.4702C189.761 20.4002 189.861 20.3002 189.961 20.2002C190.031 20.1202 190.132 20.0202 190.242 19.9302C190.301 19.8602 190.402 19.7602 190.502 19.6602C190.572 19.5802 190.671 19.4801 190.781 19.3901C190.841 19.3201 190.951 19.2201 191.051 19.1201C191.111 19.0501 191.212 18.9502 191.322 18.8502C191.392 18.7802 191.491 18.6802 191.591 18.5802C191.651 18.5102 191.751 18.4102 191.851 18.3102C191.921 18.2302 192.022 18.1302 192.132 18.0402C192.192 17.9702 192.291 17.8701 192.391 17.7701C192.461 17.6901 192.561 17.5901 192.671 17.5001C192.731 17.4301 192.831 17.3302 192.932 17.2302C193.002 17.1502 193.101 17.0502 193.201 16.9602C193.271 16.8902 193.371 16.7902 193.471 16.6902C193.541 16.6102 193.642 16.5102 193.752 16.4102C193.812 16.3402 193.912 16.2401 194.012 16.1501C194.082 16.0701 194.181 15.9701 194.291 15.8801C194.351 15.8101 194.451 15.7102 194.551 15.6102C194.622 15.5302 194.721 15.4302 194.831 15.3402C194.891 15.2702 195.001 15.1702 195.101 15.0702C195.161 15.0002 195.261 14.9002 195.361 14.8002C195.432 14.7202 195.531 14.6202 195.641 14.5302C195.701 14.4602 195.801 14.3601 195.901 14.2601C195.971 14.1801 196.072 14.0801 196.182 13.9901C196.242 13.9201 196.342 13.8202 196.442 13.7202C196.512 13.6402 196.611 13.5402 196.721 13.4502C196.781 13.3802 196.881 13.2802 196.981 13.1802C197.051 13.1002 197.152 13.0002 197.252 12.9102C197.322 12.8402 197.421 12.7401 197.521 12.6401C197.891 12.2501 198.292 11.9002 198.692 11.5902C200.212 10.4502 202.051 9.74022 204.161 9.47021C204.921 9.38021 205.601 9.34021 206.211 9.34021C206.601 9.34021 206.951 9.36014 207.281 9.39014C208.601 9.52014 210.031 9.94012 211.541 10.6201C213.931 11.6601 215.751 13.2102 216.951 15.2202C217.601 16.3102 218.122 17.6402 218.512 19.1802C218.542 19.1602 226.611 11.0802 226.611 11.0802C227.932 9.6602 229.732 8.37011 231.932 7.24011C234.732 5.81011 237.611 4.95018 240.481 4.68018C241.141 4.62018 241.851 4.60022 242.591 4.60022C244.081 4.60022 245.761 4.71019 247.601 4.94019C250.751 5.33019 253.281 5.90014 255.101 6.64014C259.171 8.38014 262.602 11.0102 265.311 14.4802C266.882 16.4302 268.191 18.9102 269.211 21.8602C271.111 27.5402 271.701 33.3802 270.981 39.2302C270.801 40.7202 270.531 42.2302 270.201 43.7102C269.121 48.3802 267.841 52.0802 266.401 54.7102C265.301 56.7102 263.901 58.5002 262.241 60.0302L262.151 60.1301C262.081 60.2001 262.012 60.2702 261.941 60.3402L261.861 60.4302C261.801 60.4902 261.741 60.5601 261.671 60.6201L261.591 60.7002C261.531 60.7602 261.471 60.8201 261.401 60.8801C261.401 60.8801 261.191 61.0901 261.132 61.1501L261.051 61.2401C260.991 61.3001 260.931 61.3702 260.861 61.4302L260.781 61.5101C260.721 61.5701 260.661 61.6402 260.591 61.6902L260.512 61.7802C260.452 61.8402 260.392 61.9102 260.322 61.9702L260.241 62.0502C260.181 62.1102 260.121 62.1802 260.051 62.2302L259.971 62.3102C259.911 62.3702 259.841 62.4401 259.781 62.5001L259.701 62.5802C259.641 62.6402 259.581 62.7001 259.521 62.7601L259.431 62.8502C259.371 62.9102 259.311 62.9802 259.241 63.0402C259.241 63.0402 259.041 63.2402 258.981 63.3002L258.891 63.3901C258.831 63.4501 258.771 63.5202 258.701 63.5802L258.621 63.6602C258.561 63.7202 258.501 63.7902 258.431 63.8402L258.351 63.9302C258.291 63.9902 258.231 64.0601 258.161 64.1201L258.081 64.2002C258.021 64.2602 257.961 64.3301 257.891 64.3801L257.801 64.4702C257.741 64.5302 257.681 64.6002 257.611 64.6602L257.531 64.7401C257.471 64.8001 257.411 64.8702 257.341 64.9202C257.341 64.9202 257.132 65.1302 257.072 65.1902L256.992 65.2802C256.932 65.3402 256.872 65.4102 256.801 65.4702L256.721 65.5502C256.661 65.6102 256.601 65.6702 256.531 65.7302L256.451 65.8202C256.391 65.8802 256.332 65.9501 256.262 66.0101L256.182 66.0902C256.122 66.1502 256.062 66.2101 255.992 66.2701L255.911 66.3502C255.851 66.4102 255.781 66.4802 255.721 66.5402C255.721 66.5402 255.521 66.7402 255.461 66.8002L255.372 66.8901C255.312 66.9501 255.252 67.0202 255.182 67.0802C255.182 67.0802 254.981 67.2802 254.921 67.3402L254.831 67.4302C254.771 67.4902 254.711 67.5601 254.641 67.6201L254.562 67.7002C254.502 67.7602 254.442 67.8301 254.372 67.8801L254.291 67.9702C254.231 68.0302 254.171 68.1002 254.101 68.1602L254.021 68.2401C253.961 68.3001 253.901 68.3702 253.831 68.4202L253.752 68.5101C253.692 68.5701 253.632 68.6402 253.562 68.7002C253.562 68.7002 253.332 68.9301 253.262 69.0001C252.592 69.6301 251.952 70.1802 251.312 70.6602C248.522 72.7002 245.521 74.0102 242.401 74.5602C240.871 74.8302 239.102 74.9602 237.132 74.9602C235.132 74.9602 232.871 74.8202 230.411 74.5402C226.251 74.0302 222.962 73.2302 220.622 72.1802C218.222 71.0902 216.182 69.4001 214.562 67.1501C214.022 66.3901 213.531 65.5901 213.081 64.7601C212.791 65.6401 212.511 66.3402 212.231 66.8602C211.701 67.9402 210.981 68.9002 210.101 69.6902C210.101 69.7002 210.031 69.7602 209.961 69.8302L209.882 69.9001C209.842 69.9501 209.772 70.0202 209.692 70.0902L209.611 70.1702C209.572 70.2102 209.502 70.2802 209.432 70.3602L209.351 70.4402C209.311 70.4902 209.231 70.5601 209.161 70.6301L209.081 70.7102C209.041 70.7502 208.971 70.8201 208.901 70.9001L208.822 70.9802C208.782 71.0302 208.702 71.1002 208.632 71.1802L208.551 71.2601C208.512 71.3001 208.441 71.3802 208.361 71.4502L208.281 71.5302C208.241 71.5802 208.171 71.6502 208.091 71.7202L208.012 71.8002C207.972 71.8502 207.902 71.9201 207.822 71.9901L207.742 72.0702C207.702 72.1202 207.632 72.1901 207.551 72.2601L207.471 72.3402C207.431 72.3902 207.361 72.4602 207.281 72.5302L207.201 72.6102C207.161 72.6602 207.092 72.7302 207.012 72.8002L206.932 72.8801C206.892 72.9301 206.812 73.0002 206.742 73.0702L206.661 73.1501C206.621 73.1901 206.551 73.2702 206.471 73.3402L206.391 73.4202C206.351 73.4702 206.271 73.5402 206.201 73.6102L206.122 73.6902C206.082 73.7302 206.012 73.8101 205.932 73.8801L205.851 73.9602C205.811 74.0102 205.731 74.0801 205.661 74.1501L205.581 74.2302C205.541 74.2702 205.471 74.3402 205.401 74.4102L205.322 74.4901C205.282 74.5401 205.202 74.6102 205.132 74.6802L205.051 74.7601C205.012 74.8101 204.941 74.8802 204.861 74.9502L204.781 75.0302C204.741 75.0802 204.661 75.1502 204.591 75.2202L204.512 75.3002C204.472 75.3402 204.402 75.4201 204.322 75.4901L204.242 75.5702C204.202 75.6202 204.132 75.6901 204.051 75.7601L203.971 75.8402C203.931 75.8902 203.861 75.9602 203.781 76.0302L203.701 76.1102C203.661 76.1602 203.592 76.2302 203.512 76.3002L203.432 76.3801C203.392 76.4301 203.322 76.5002 203.242 76.5702L203.161 76.6501C203.121 76.7001 203.051 76.7702 202.971 76.8402L202.891 76.9202C202.851 76.9702 202.771 77.0402 202.701 77.1102L202.622 77.1902C202.582 77.2302 202.512 77.3101 202.432 77.3801L202.351 77.4602C202.311 77.5102 202.231 77.5801 202.161 77.6501L202.081 77.7302C202.041 77.7702 201.971 77.8502 201.891 77.9202L201.701 78.1102C199.921 80.1502 197.421 81.1702 194.242 81.1702C193.962 81.1102 193.811 81.1102 193.661 81.1102ZM157.932 38.0201C158.452 39.1601 158.982 39.9902 159.512 40.4502C159.982 40.8702 160.651 41.1202 161.521 41.2202C160.951 40.7602 160.301 40.1802 159.581 39.4802C159.001 38.9202 158.452 38.4301 157.932 38.0201ZM179.701 35.2002C180.781 35.5702 181.831 36.1002 182.841 36.7802C183.471 37.2102 184.072 37.6902 184.622 38.2202L184.701 37.4302C185.091 33.6502 185.371 31.0402 185.591 29.2302C185.131 29.8002 184.631 30.3202 184.091 30.7902L184.031 30.8602C183.961 30.9302 183.902 31.0002 183.822 31.0602L183.762 31.1301C183.692 31.2001 183.632 31.2702 183.551 31.3302L183.492 31.4001C183.421 31.4701 183.361 31.5402 183.281 31.6002L183.221 31.6702C183.151 31.7402 183.082 31.8101 183.012 31.8801L182.951 31.9402C182.881 32.0102 182.812 32.0801 182.742 32.1501L182.682 32.2102C182.611 32.2802 182.541 32.3502 182.471 32.4202L182.411 32.4802C182.341 32.5502 182.271 32.6202 182.201 32.6902L182.141 32.7501C182.071 32.8201 182.002 32.8902 181.932 32.9602L181.872 33.0201C181.801 33.0901 181.731 33.1602 181.661 33.2302L181.601 33.2902C181.531 33.3602 181.461 33.4301 181.391 33.5001L181.331 33.5602C181.261 33.6302 181.202 33.7001 181.122 33.7701L181.051 33.8402C180.981 33.9102 180.921 33.9802 180.841 34.0402L180.781 34.1002C180.711 34.1702 180.652 34.2402 180.572 34.3002L180.512 34.3701C180.442 34.4401 180.372 34.5102 180.301 34.5802L180.242 34.6401C180.171 34.7101 180.101 34.7802 180.031 34.8502L179.971 34.9202C179.901 34.9902 179.842 35.0601 179.762 35.1201C179.782 35.1201 179.701 35.2002 179.701 35.2002Z" fill="black"/>
<path d="M163.002 2.2002C168.342 2.2002 172.601 3.02015 175.771 4.65015C177.901 5.74015 179.912 7.25018 181.822 9.18018C183.722 11.1102 185.171 13.0901 186.161 15.1201C186.951 16.8001 187.352 18.7602 187.352 20.9802C187.352 23.0602 187.051 24.7902 186.461 26.1802C185.711 27.7502 184.732 29.0601 183.512 30.1401C183.422 30.2301 183.342 30.3302 183.242 30.4102C183.152 30.5002 183.072 30.6002 182.971 30.6802C182.882 30.7702 182.801 30.8702 182.701 30.9502C182.611 31.0402 182.532 31.1402 182.432 31.2202C182.342 31.3102 182.262 31.4101 182.161 31.4901C182.072 31.5801 181.991 31.6801 181.891 31.7601C181.801 31.8501 181.722 31.9502 181.622 32.0302C181.532 32.1202 181.452 32.2202 181.352 32.3002C181.262 32.3902 181.181 32.4902 181.081 32.5702C180.991 32.6602 180.912 32.7602 180.812 32.8402C180.722 32.9302 180.642 33.0302 180.542 33.1102C180.452 33.2002 180.371 33.3001 180.271 33.3801C180.181 33.4701 180.102 33.5701 180.002 33.6501C179.912 33.7401 179.832 33.8402 179.732 33.9202C179.642 34.0102 179.561 34.1102 179.461 34.1902C179.371 34.2802 179.292 34.3802 179.192 34.4602C179.102 34.5502 179.022 34.6502 178.922 34.7302C178.832 34.8202 178.751 34.9201 178.651 35.0001C178.561 35.0901 178.482 35.1901 178.382 35.2701C178.292 35.3601 178.212 35.4602 178.112 35.5402C178.072 35.5802 178.032 35.6302 177.982 35.6702C179.472 35.9702 180.931 36.5802 182.341 37.5402C183.511 38.3302 184.492 39.2702 185.312 40.3302C185.402 39.4102 185.501 38.5002 185.591 37.5402C186.331 30.3002 186.822 26.2501 187.062 25.3801C187.462 24.1301 188.152 23.0501 189.112 22.1301C189.202 22.0401 189.292 21.9502 189.382 21.8602C189.472 21.7702 189.561 21.6802 189.651 21.5902C189.741 21.5002 189.832 21.4102 189.922 21.3202C190.012 21.2302 190.102 21.1402 190.192 21.0502C190.282 20.9602 190.371 20.8702 190.461 20.7802C190.551 20.6902 190.642 20.6001 190.732 20.5101C190.822 20.4201 190.912 20.3301 191.002 20.2401C191.092 20.1501 191.181 20.0602 191.271 19.9702C191.361 19.8802 191.452 19.7902 191.542 19.7002C191.632 19.6102 191.722 19.5202 191.812 19.4302C191.902 19.3402 191.991 19.2502 192.081 19.1602C192.171 19.0702 192.262 18.9801 192.352 18.8901C192.441 18.8001 192.532 18.7101 192.622 18.6201C192.712 18.5301 192.801 18.4402 192.891 18.3502C192.981 18.2602 193.072 18.1702 193.161 18.0802C193.251 17.9902 193.342 17.9002 193.432 17.8102C193.522 17.7202 193.611 17.6302 193.701 17.5402C193.791 17.4502 193.882 17.3601 193.971 17.2701C194.061 17.1801 194.152 17.0901 194.242 17.0001C194.332 16.9101 194.422 16.8202 194.512 16.7302C194.602 16.6402 194.691 16.5502 194.781 16.4602C194.871 16.3702 194.962 16.2802 195.052 16.1902C195.142 16.1002 195.232 16.0102 195.322 15.9202C195.412 15.8302 195.501 15.7401 195.591 15.6501C195.681 15.5601 195.772 15.4701 195.862 15.3801C195.952 15.2901 196.042 15.2002 196.132 15.1102C196.222 15.0202 196.311 14.9302 196.401 14.8402C196.491 14.7502 196.582 14.6602 196.672 14.5702C196.762 14.4802 196.852 14.3902 196.942 14.3002C197.032 14.2102 197.121 14.1202 197.211 14.0302C197.301 13.9402 197.392 13.8501 197.482 13.7601C197.572 13.6701 197.662 13.5801 197.752 13.4901C197.842 13.4001 197.931 13.3102 198.021 13.2202C198.351 12.8702 198.702 12.5501 199.102 12.2401C200.501 11.1901 202.181 10.5402 204.151 10.2902C204.871 10.2102 205.511 10.1702 206.091 10.1702C206.441 10.1702 206.772 10.1902 207.072 10.2202C208.302 10.3502 209.632 10.7301 211.062 11.3701C213.302 12.3401 214.972 13.7602 216.072 15.6102C216.892 16.9802 217.482 18.7502 217.862 20.9202C218.092 20.6702 218.342 20.4202 218.602 20.1802C218.682 20.1002 218.762 20.0202 218.852 19.9402C218.941 19.8502 219.032 19.7602 219.122 19.6702C219.212 19.5802 219.301 19.4901 219.391 19.4001C219.481 19.3101 219.572 19.2201 219.661 19.1301C219.751 19.0401 219.842 18.9502 219.932 18.8602C220.022 18.7702 220.111 18.6802 220.201 18.5902C220.291 18.5002 220.382 18.4102 220.471 18.3202C220.561 18.2302 220.652 18.1402 220.742 18.0502C220.832 17.9602 220.922 17.8702 221.012 17.7802C221.102 17.6902 221.191 17.6001 221.281 17.5101C221.371 17.4201 221.462 17.3301 221.552 17.2401C221.642 17.1501 221.732 17.0602 221.822 16.9702C221.912 16.8802 222.001 16.7902 222.091 16.7002C222.181 16.6102 222.272 16.5202 222.362 16.4302C222.452 16.3402 222.542 16.2502 222.632 16.1602C222.722 16.0702 222.811 15.9801 222.901 15.8901C222.991 15.8001 223.082 15.7101 223.172 15.6201C223.262 15.5301 223.352 15.4402 223.442 15.3502C223.532 15.2602 223.621 15.1702 223.711 15.0802C223.801 14.9902 223.892 14.9002 223.982 14.8102C224.072 14.7202 224.162 14.6302 224.252 14.5402C224.342 14.4502 224.431 14.3601 224.521 14.2701C224.611 14.1801 224.702 14.0901 224.792 14.0001C224.882 13.9101 224.972 13.8202 225.062 13.7302C225.152 13.6402 225.241 13.5502 225.331 13.4602C225.421 13.3702 225.512 13.2802 225.602 13.1902C225.691 13.1002 225.782 13.0102 225.872 12.9202C225.962 12.8302 226.051 12.7401 226.141 12.6501C226.231 12.5601 226.322 12.4701 226.411 12.3801C226.501 12.2901 226.592 12.2002 226.682 12.1102C226.772 12.0202 226.861 11.9302 226.951 11.8402C227.011 11.7802 227.072 11.7202 227.132 11.6602C228.402 10.3002 230.102 9.07011 232.221 7.99011C234.932 6.60011 237.681 5.78014 240.451 5.52014C241.081 5.47014 241.762 5.44019 242.482 5.44019C243.942 5.44019 245.572 5.55014 247.382 5.77014C250.472 6.15014 252.902 6.70016 254.661 7.41016C258.591 9.09016 261.872 11.6102 264.502 14.9702C266.012 16.8502 267.272 19.2202 268.262 22.0902C270.122 27.6502 270.702 33.3102 269.992 39.0502C269.812 40.5202 269.552 41.9902 269.232 43.4402C268.172 48.0502 266.931 51.6302 265.521 54.2002C264.461 56.1302 263.132 57.8302 261.542 59.2902C261.441 59.3902 261.342 59.5002 261.242 59.5902C261.152 59.6802 261.061 59.7702 260.971 59.8602C260.882 59.9502 260.791 60.0401 260.701 60.1301C260.611 60.2201 260.522 60.3101 260.432 60.4001C260.342 60.4901 260.251 60.5802 260.161 60.6702C260.072 60.7602 259.981 60.8502 259.891 60.9402C259.801 61.0302 259.712 61.1202 259.622 61.2102C259.532 61.3002 259.441 61.3902 259.352 61.4802C259.262 61.5702 259.171 61.6601 259.081 61.7501C258.991 61.8401 258.902 61.9301 258.812 62.0201C258.722 62.1101 258.632 62.2002 258.542 62.2902C258.452 62.3802 258.361 62.4702 258.271 62.5602C258.181 62.6502 258.092 62.7402 258.002 62.8302C257.912 62.9202 257.822 63.0102 257.732 63.1002C257.642 63.1902 257.551 63.2801 257.461 63.3701C257.371 63.4601 257.282 63.5501 257.192 63.6401C257.102 63.7301 257.012 63.8202 256.922 63.9102C256.832 64.0002 256.741 64.0902 256.651 64.1802C256.561 64.2702 256.472 64.3602 256.382 64.4502C256.292 64.5402 256.202 64.6302 256.112 64.7202C256.022 64.8102 255.931 64.9001 255.841 64.9901C255.751 65.0801 255.662 65.1701 255.572 65.2601C255.482 65.3501 255.392 65.4402 255.302 65.5302C255.212 65.6201 255.121 65.7102 255.031 65.8002C254.941 65.8902 254.852 65.9802 254.762 66.0702C254.672 66.1602 254.582 66.2502 254.492 66.3402C254.402 66.4302 254.311 66.5202 254.221 66.6102C254.132 66.7002 254.041 66.7901 253.951 66.8801C253.861 66.9701 253.772 67.0602 253.682 67.1501C253.592 67.2401 253.501 67.3302 253.411 67.4202C253.322 67.5102 253.231 67.6002 253.141 67.6902C253.051 67.7802 252.962 67.8702 252.872 67.9602C252.772 68.0602 252.672 68.1601 252.572 68.2601C251.982 68.8201 251.362 69.3602 250.692 69.8602C248.012 71.8202 245.161 73.0702 242.161 73.6002C240.682 73.8602 238.972 73.9901 237.052 73.9901C235.072 73.9901 232.872 73.8502 230.432 73.5802C226.352 73.0802 223.182 72.3202 220.911 71.2902C218.641 70.2602 216.741 68.6802 215.211 66.5502C214.241 65.1802 213.442 63.7202 212.812 62.1702C212.292 64.1202 211.812 65.5201 211.362 66.3801C210.852 67.4201 210.202 68.2702 209.432 68.9602C209.352 69.0502 209.262 69.1202 209.182 69.2002C209.092 69.3002 209.001 69.3802 208.911 69.4702C208.822 69.5702 208.731 69.6501 208.641 69.7401C208.551 69.8401 208.462 69.9201 208.372 70.0101C208.282 70.1101 208.191 70.1902 208.102 70.2802C208.012 70.3801 207.921 70.4602 207.831 70.5502C207.741 70.6502 207.652 70.7302 207.562 70.8202C207.472 70.9202 207.382 71.0002 207.292 71.0902C207.202 71.1902 207.111 71.2702 207.021 71.3602C206.931 71.4602 206.842 71.5401 206.752 71.6301C206.662 71.7301 206.572 71.8102 206.482 71.9001C206.392 72.0001 206.301 72.0802 206.211 72.1702C206.121 72.2702 206.032 72.3502 205.942 72.4402C205.852 72.5402 205.762 72.6202 205.672 72.7102C205.582 72.8102 205.491 72.8902 205.401 72.9802C205.311 73.0802 205.222 73.1601 205.132 73.2501C205.042 73.3501 204.952 73.4301 204.862 73.5201C204.772 73.6201 204.681 73.7002 204.591 73.7902C204.501 73.8902 204.412 73.9702 204.322 74.0602C204.232 74.1602 204.142 74.2402 204.052 74.3302C203.962 74.4302 203.871 74.5102 203.781 74.6002C203.691 74.7002 203.602 74.7801 203.512 74.8701C203.422 74.9701 203.332 75.0501 203.242 75.1401C203.152 75.2401 203.061 75.3202 202.971 75.4102C202.882 75.5102 202.791 75.5902 202.701 75.6802C202.611 75.7802 202.522 75.8602 202.432 75.9502C202.342 76.0502 202.251 76.1302 202.161 76.2202C202.072 76.3202 201.981 76.4001 201.891 76.4901C201.801 76.5901 201.712 76.6701 201.622 76.7601C201.532 76.8601 201.441 76.9402 201.352 77.0302C201.262 77.1301 201.171 77.2102 201.081 77.3002C201.021 77.3602 200.961 77.4202 200.901 77.4802C199.321 79.2902 197.071 80.2102 194.141 80.2102C194.001 80.2102 193.861 80.2102 193.721 80.2002L192.831 80.1102C190.171 79.8402 187.881 78.6801 185.951 76.6501C184.331 74.9401 183.341 72.7301 182.971 70.0001C182.841 68.7201 183.092 64.3902 183.742 57.0502C183.482 57.3702 183.212 57.7002 182.932 58.0402C181.852 59.3302 180.892 60.3802 180.052 61.2102C180.002 61.2602 179.962 61.2902 179.922 61.3402C179.912 61.3502 179.901 61.3601 179.891 61.3701C179.801 61.4601 179.712 61.5501 179.622 61.6401C179.532 61.7301 179.441 61.8202 179.352 61.9102C179.262 62.0002 179.171 62.0902 179.081 62.1802C178.991 62.2702 178.902 62.3602 178.812 62.4502C178.722 62.5402 178.632 62.6302 178.542 62.7202C178.452 62.8102 178.361 62.9001 178.271 62.9901C178.181 63.0801 178.092 63.1701 178.002 63.2601C177.912 63.3501 177.822 63.4402 177.732 63.5302C177.642 63.6202 177.551 63.7102 177.461 63.8002C177.371 63.8902 177.282 63.9802 177.192 64.0702C177.102 64.1602 177.012 64.2502 176.922 64.3402C176.832 64.4302 176.741 64.5202 176.651 64.6102C176.561 64.7002 176.472 64.7901 176.382 64.8801C176.292 64.9701 176.202 65.0602 176.112 65.1501C176.022 65.2401 175.931 65.3302 175.841 65.4202C175.751 65.5102 175.662 65.6002 175.572 65.6902C175.482 65.7802 175.392 65.8702 175.302 65.9602C175.212 66.0502 175.121 66.1402 175.031 66.2302C174.941 66.3202 174.852 66.4101 174.762 66.5001C174.672 66.5901 174.582 66.6801 174.492 66.7701C174.402 66.8601 174.311 66.9502 174.221 67.0402C174.132 67.1302 174.041 67.2202 173.951 67.3102C173.861 67.4002 173.772 67.4902 173.682 67.5802C173.592 67.6702 173.501 67.7602 173.411 67.8502C173.322 67.9402 173.231 68.0301 173.141 68.1201C173.051 68.2101 172.962 68.3001 172.872 68.3901C172.782 68.4801 172.691 68.5702 172.602 68.6602C172.512 68.7502 172.421 68.8402 172.331 68.9302C172.241 69.0202 172.152 69.1102 172.062 69.2002C171.972 69.2902 171.882 69.3802 171.792 69.4702C171.702 69.5602 171.611 69.6501 171.521 69.7401C171.461 69.8001 171.401 69.8602 171.341 69.9202C170.481 70.8002 169.721 71.4802 169.081 71.9402C164.281 75.4502 159.062 77.2102 153.422 77.2102C152.682 77.2102 151.612 77.1102 150.232 76.9102C148.552 76.6102 146.352 76.0201 143.622 75.1301C140.902 74.2401 139.042 73.5001 138.052 72.9001C136.762 72.1601 135.202 70.8702 133.372 69.0402C131.542 67.2102 130.131 65.5801 129.141 64.1401C128.041 62.4801 127.141 60.8202 126.391 59.1602C126.181 60.1902 125.951 61.0002 125.721 61.5802C125.221 62.9402 124.481 64.0301 123.521 64.8901C123.461 64.9501 123.391 65.0102 123.331 65.0702C123.241 65.1602 123.152 65.2502 123.062 65.3402C122.972 65.4302 122.882 65.5202 122.792 65.6102C122.702 65.7002 122.611 65.7901 122.521 65.8801C122.431 65.9701 122.342 66.0602 122.252 66.1501C122.162 66.2401 122.072 66.3302 121.982 66.4202C121.892 66.5102 121.801 66.6002 121.711 66.6902C121.621 66.7802 121.532 66.8702 121.442 66.9602C121.352 67.0502 121.262 67.1402 121.172 67.2302C121.082 67.3202 120.991 67.4101 120.901 67.5001C120.811 67.5901 120.722 67.6801 120.632 67.7701C120.542 67.8601 120.452 67.9502 120.362 68.0402C120.272 68.1302 120.181 68.2202 120.091 68.3102C120.001 68.4002 119.912 68.4902 119.822 68.5802C119.732 68.6702 119.642 68.7602 119.552 68.8502C119.462 68.9402 119.371 69.0301 119.281 69.1201C119.191 69.2101 119.102 69.3001 119.012 69.3901C118.922 69.4801 118.832 69.5702 118.742 69.6602C118.652 69.7502 118.561 69.8402 118.471 69.9302C118.382 70.0202 118.291 70.1102 118.201 70.2002C118.111 70.2902 118.022 70.3802 117.932 70.4702C117.842 70.5602 117.751 70.6501 117.661 70.7401C117.572 70.8301 117.481 70.9201 117.391 71.0101C117.301 71.1001 117.212 71.1902 117.122 71.2802C117.032 71.3701 116.941 71.4602 116.852 71.5502C116.762 71.6402 116.671 71.7302 116.581 71.8202C116.491 71.9102 116.402 72.0002 116.312 72.0902C116.222 72.1802 116.132 72.2702 116.042 72.3602C115.952 72.4502 115.861 72.5401 115.771 72.6301C115.681 72.7201 115.592 72.8102 115.502 72.9001C115.412 72.9901 115.322 73.0802 115.232 73.1702C115.142 73.2602 115.051 73.3502 114.961 73.4402C114.901 73.5002 114.852 73.5701 114.792 73.6301C113.342 75.1701 111.292 76.0501 108.602 76.2501H107.711C105.041 76.2501 102.642 75.3301 100.512 73.5001C98.7315 71.9701 97.5115 69.8602 96.8715 67.1902C96.6615 66.1902 96.5015 63.2502 96.3915 58.4202C96.3615 58.4502 96.3315 58.4701 96.3015 58.5001C96.2115 58.6001 96.1115 58.7002 96.0115 58.7902C95.9315 58.8802 95.8315 58.9702 95.7415 59.0602C95.6615 59.1502 95.5615 59.2402 95.4715 59.3302C95.3915 59.4202 95.2915 59.5102 95.2015 59.6002C95.1215 59.6902 95.0215 59.7801 94.9315 59.8701C94.8515 59.9601 94.7515 60.0501 94.6615 60.1401C94.5815 60.2301 94.4815 60.3202 94.3915 60.4102C94.3115 60.5002 94.2115 60.5902 94.1215 60.6802C94.0415 60.7702 93.9415 60.8602 93.8515 60.9502C93.7715 61.0402 93.6715 61.1302 93.5815 61.2202C93.5015 61.3102 93.4015 61.4001 93.3115 61.4901C93.2315 61.5801 93.1315 61.6701 93.0415 61.7601C92.9615 61.8501 92.8615 61.9402 92.7715 62.0302C92.6915 62.1202 92.5915 62.2102 92.5015 62.3002C92.4215 62.3902 92.3215 62.4802 92.2315 62.5702C92.1515 62.6602 92.0515 62.7502 91.9615 62.8402C91.8815 62.9302 91.7815 63.0202 91.6915 63.1102C91.6115 63.2002 91.5115 63.2901 91.4215 63.3801C91.3415 63.4701 91.2415 63.5601 91.1515 63.6501C91.0715 63.7401 90.9715 63.8302 90.8815 63.9202C90.8015 64.0102 90.7015 64.1002 90.6115 64.1902C90.5315 64.2802 90.4315 64.3702 90.3415 64.4602C90.2615 64.5502 90.1615 64.6402 90.0715 64.7302C89.9915 64.8202 89.8915 64.9101 89.8015 65.0001C89.7215 65.0901 89.6215 65.1801 89.5315 65.2701C89.4515 65.3601 89.3515 65.4502 89.2615 65.5402C89.1815 65.6302 89.0815 65.7202 88.9915 65.8102C88.9115 65.9002 88.8115 65.9902 88.7215 66.0802C88.6415 66.1702 88.5415 66.2602 88.4515 66.3502C88.3715 66.4402 88.2715 66.5301 88.1815 66.6201C88.1015 66.7101 88.0015 66.8001 87.9115 66.8901C87.8315 66.9801 87.7315 67.0702 87.6415 67.1602C87.5515 67.2602 87.4515 67.3502 87.3515 67.4502C86.6615 68.1902 85.7015 68.9002 84.4715 69.5802C82.7815 70.5102 80.6615 71.0902 78.0915 71.3202L76.7615 71.3901C76.3615 71.4101 75.9615 71.4202 75.5815 71.4202C72.9115 71.4202 70.7015 70.9101 68.9615 69.9001C66.9715 68.7401 64.8915 66.5301 62.7415 63.2701C62.6215 63.1001 62.5115 62.9402 62.4015 62.7802C62.3415 62.8402 62.2815 62.9002 62.2215 62.9602C62.1315 63.0602 62.0415 63.1402 61.9515 63.2302C61.8615 63.3302 61.7715 63.4101 61.6815 63.5001C61.5915 63.6001 61.5015 63.6801 61.4115 63.7701C61.3215 63.8701 61.2315 63.9502 61.1415 64.0402C61.0515 64.1402 60.9615 64.2202 60.8715 64.3102C60.7815 64.4102 60.6915 64.4902 60.6015 64.5802C60.5115 64.6802 60.4215 64.7602 60.3315 64.8502C60.2415 64.9502 60.1515 65.0301 60.0615 65.1201C59.9715 65.2201 59.8815 65.3001 59.7915 65.3901C59.7015 65.4901 59.6115 65.5702 59.5215 65.6602C59.4315 65.7602 59.3415 65.8402 59.2515 65.9302C59.1615 66.0302 59.0715 66.1102 58.9815 66.2002C58.8915 66.3002 58.8015 66.3802 58.7115 66.4702C58.6215 66.5702 58.5315 66.6501 58.4415 66.7401C58.3515 66.8401 58.2615 66.9201 58.1715 67.0101C58.0815 67.1101 57.9915 67.1902 57.9015 67.2802C57.8115 67.3801 57.7215 67.4602 57.6315 67.5502C57.5415 67.6502 57.4515 67.7302 57.3615 67.8202C57.2715 67.9202 57.1815 68.0002 57.0915 68.0902C57.0015 68.1902 56.9115 68.2702 56.8215 68.3602C56.7515 68.4402 56.6715 68.5102 56.6015 68.5802C55.9215 69.3602 55.1715 70.0202 54.3515 70.5402C53.4915 71.1302 52.1815 71.6802 50.4215 72.1902C48.6615 72.7002 47.1415 72.9902 45.8615 73.0602C45.6715 73.0702 45.4815 73.0802 45.2915 73.0802C41.5515 73.0802 38.7315 71.1102 36.8215 67.1802C36.7715 67.2302 36.7115 67.2802 36.6615 67.3302C36.5815 67.4202 36.4815 67.5102 36.3915 67.6002C36.3115 67.6902 36.2115 67.7801 36.1215 67.8701C36.0415 67.9601 35.9415 68.0501 35.8515 68.1401C35.7715 68.2301 35.6715 68.3202 35.5815 68.4102C35.5015 68.5002 35.4015 68.5902 35.3115 68.6802C35.2315 68.7702 35.1315 68.8602 35.0415 68.9502C34.9615 69.0402 34.8615 69.1302 34.7715 69.2202C34.6915 69.3102 34.5915 69.4001 34.5015 69.4901C34.4215 69.5801 34.3215 69.6701 34.2315 69.7601C34.1515 69.8501 34.0515 69.9402 33.9615 70.0302C33.8815 70.1201 33.7815 70.2102 33.6915 70.3002C33.6115 70.3902 33.5115 70.4802 33.4215 70.5702C33.3415 70.6602 33.2415 70.7502 33.1515 70.8402C33.0715 70.9302 32.9715 71.0202 32.8815 71.1102C32.8015 71.2002 32.7015 71.2901 32.6115 71.3801C32.5315 71.4701 32.4315 71.5602 32.3415 71.6501C32.2615 71.7401 32.1615 71.8302 32.0715 71.9202C31.9915 72.0102 31.8915 72.1002 31.8015 72.1902C31.7215 72.2802 31.6215 72.3702 31.5315 72.4602C31.4515 72.5502 31.3515 72.6402 31.2615 72.7302C31.1815 72.8202 31.0815 72.9101 30.9915 73.0001C30.9115 73.0901 30.8115 73.1801 30.7215 73.2701C30.6615 73.3401 30.5915 73.4002 30.5315 73.4702C29.4215 74.7202 27.8615 75.6501 25.8315 76.2501L24.9615 76.4402C24.1815 76.6102 23.4115 76.6902 22.6515 76.6902C20.8515 76.6902 19.0815 76.2202 17.3415 75.2802C15.2715 74.1601 13.6415 72.3601 12.4515 69.8901C11.5615 67.9101 9.0415 57.3402 4.8815 38.1902C3.3415 31.0802 2.54149 27.0802 2.50149 26.1702C2.49149 24.5002 2.99149 22.9501 4.00149 21.5201C4.30149 21.0901 4.65149 20.6902 5.03149 20.3102C5.12149 20.2102 5.22149 20.1202 5.31149 20.0302C5.40149 19.9402 5.49151 19.8501 5.58151 19.7601C5.67151 19.6701 5.7615 19.5801 5.8515 19.4901C5.9415 19.4001 6.03152 19.3102 6.12152 19.2202C6.21152 19.1302 6.30151 19.0402 6.39151 18.9502C6.48151 18.8602 6.5715 18.7702 6.6615 18.6802C6.7515 18.5902 6.84152 18.5002 6.93152 18.4102C7.02152 18.3202 7.11151 18.2301 7.20151 18.1401C7.29151 18.0501 7.3815 17.9601 7.4715 17.8701C7.5615 17.7801 7.65152 17.6902 7.74152 17.6002C7.83152 17.5102 7.9215 17.4202 8.0115 17.3302C8.1015 17.2402 8.19149 17.1502 8.28149 17.0602C8.37149 16.9702 8.46151 16.8802 8.55151 16.7902C8.64151 16.7002 8.7315 16.6101 8.8215 16.5201C8.9115 16.4301 9.00149 16.3401 9.09149 16.2501C9.18149 16.1601 9.27151 16.0702 9.36151 15.9802C9.45151 15.8902 9.5415 15.8002 9.6315 15.7102C9.7215 15.6202 9.81152 15.5302 9.90152 15.4402C9.99152 15.3502 10.0815 15.2602 10.1715 15.1702C10.2615 15.0802 10.3515 14.9901 10.4415 14.9001C10.5315 14.8101 10.6215 14.7201 10.7115 14.6301C10.8015 14.5401 10.8915 14.4502 10.9815 14.3602C11.0715 14.2702 11.1615 14.1802 11.2515 14.0902C11.3415 14.0002 11.4315 13.9102 11.5215 13.8202C11.6115 13.7302 11.7015 13.6402 11.7915 13.5502C11.8815 13.4602 11.9715 13.3702 12.0615 13.2802C12.1515 13.1902 12.2415 13.1001 12.3315 13.0101C12.4215 12.9201 12.5115 12.8301 12.6015 12.7401C12.6915 12.6501 12.7815 12.5602 12.8715 12.4702C12.9615 12.3802 13.0515 12.2902 13.1415 12.2002C13.2315 12.1102 13.3215 12.0202 13.4115 11.9302C13.5015 11.8402 13.5915 11.7502 13.6815 11.6602C13.7715 11.5602 13.8715 11.4801 13.9615 11.3801C14.8715 10.3901 16.0115 9.57017 17.3815 8.92017C18.4415 8.44017 19.3615 8.11019 20.1315 7.94019C20.8715 7.78019 21.6715 7.7002 22.5315 7.7002C23.0915 7.7002 23.6715 7.73017 24.2815 7.80017C26.7115 8.03017 28.7415 8.86015 30.3615 10.2802C31.9815 11.7002 33.4615 13.9401 34.7815 16.9901C34.8515 17.1601 34.9315 17.3502 35.0015 17.5402C35.4115 16.8002 35.8815 16.1402 36.4115 15.5802C36.4815 15.5102 36.5415 15.4601 36.6115 15.3901C36.6315 15.3601 36.6615 15.3302 36.6815 15.3102C36.7515 15.2402 36.8215 15.1802 36.8815 15.1102C36.9015 15.0902 36.9215 15.0602 36.9515 15.0402C37.0215 14.9702 37.0915 14.9102 37.1515 14.8402C37.1715 14.8202 37.1915 14.7901 37.2215 14.7601C37.2915 14.6901 37.3615 14.6302 37.4215 14.5602C37.4415 14.5402 37.4615 14.5101 37.4915 14.4901C37.5615 14.4201 37.6315 14.3602 37.6915 14.2902C37.7115 14.2702 37.7315 14.2402 37.7615 14.2102C37.8315 14.1402 37.9015 14.0801 37.9615 14.0101C37.9815 13.9901 38.0015 13.9602 38.0315 13.9402C38.1015 13.8702 38.1715 13.8101 38.2315 13.7401C38.2515 13.7201 38.2715 13.6902 38.3015 13.6702C38.3715 13.6002 38.4415 13.5402 38.5015 13.4702C38.5215 13.4502 38.5415 13.4201 38.5715 13.4001C38.6415 13.3301 38.7115 13.2702 38.7715 13.2002C38.7915 13.1802 38.8115 13.1501 38.8415 13.1301C38.9115 13.0601 38.9815 13.0002 39.0415 12.9302C39.0615 12.9102 39.0815 12.8802 39.1115 12.8602C39.1815 12.7902 39.2515 12.7302 39.3115 12.6602C39.3315 12.6402 39.3515 12.6102 39.3815 12.5802C39.4515 12.5102 39.5215 12.4501 39.5815 12.3901C39.6015 12.3701 39.6215 12.3402 39.6515 12.3102C39.7215 12.2402 39.7915 12.1802 39.8515 12.1102C39.8715 12.0902 39.8915 12.0602 39.9215 12.0302C39.9915 11.9602 40.0615 11.9002 40.1215 11.8302C40.1415 11.8102 40.1615 11.7801 40.1915 11.7601C40.2615 11.6901 40.3315 11.6302 40.3915 11.5602C40.4115 11.5402 40.4315 11.5101 40.4615 11.4901C40.5315 11.4201 40.6015 11.3602 40.6615 11.2902C40.6815 11.2702 40.7015 11.2402 40.7315 11.2202C40.8015 11.1502 40.8715 11.0901 40.9315 11.0201C40.9515 11.0001 40.9715 10.9702 41.0015 10.9502C41.0715 10.8802 41.1415 10.8201 41.2015 10.7501C41.2215 10.7301 41.2415 10.7002 41.2715 10.6702C41.3415 10.6002 41.4115 10.5402 41.4715 10.4702C41.4915 10.4502 41.5115 10.4201 41.5415 10.4001C41.6115 10.3301 41.6815 10.2702 41.7415 10.2002C41.7615 10.1802 41.7815 10.1501 41.8115 10.1201C41.8815 10.0501 41.9515 9.99018 42.0115 9.93018C42.0315 9.91018 42.0515 9.88022 42.0815 9.85022C42.1515 9.78022 42.2215 9.72015 42.2815 9.65015C42.3015 9.63015 42.3215 9.6002 42.3515 9.5802C42.4215 9.5102 42.4915 9.45013 42.5515 9.38013C42.5715 9.36013 42.5915 9.33018 42.6215 9.31018C42.6915 9.24018 42.7615 9.18023 42.8215 9.11023C42.8415 9.09023 42.8615 9.06016 42.8915 9.04016C42.9615 8.97016 43.0315 8.91021 43.0915 8.84021C43.1115 8.82021 43.1315 8.79013 43.1615 8.76013C43.2315 8.69013 43.3015 8.63018 43.3615 8.56018C43.3815 8.54018 43.4015 8.51011 43.4315 8.49011C43.5015 8.42011 43.5715 8.36016 43.6315 8.29016C43.6515 8.27016 43.6715 8.24021 43.7015 8.21021C43.7715 8.1402 43.8415 8.08013 43.9015 8.01013C43.9215 7.99013 43.9415 7.96019 43.9715 7.94019C44.0415 7.87019 44.1115 7.81011 44.1715 7.74011C44.1915 7.72011 44.2115 7.69017 44.2415 7.67017C44.3115 7.60017 44.3815 7.54022 44.4415 7.47021C44.4615 7.45021 44.4815 7.42015 44.5115 7.40015C44.5815 7.33015 44.6515 7.2702 44.7115 7.2002C44.7315 7.1802 44.7515 7.15013 44.7815 7.13013C44.8515 7.06013 44.9215 7.00018 44.9815 6.93018C45.0015 6.91018 45.0215 6.88023 45.0515 6.86023C45.1215 6.79023 45.1915 6.73016 45.2515 6.66016C45.2715 6.64016 45.2915 6.6102 45.3215 6.5802C45.3915 6.5102 45.4615 6.45013 45.5315 6.38013C45.5515 6.36013 45.5715 6.33018 45.5915 6.31018C46.8115 5.06018 48.0115 4.20012 49.1715 3.75012C50.3415 3.29012 52.2015 2.95021 54.7615 2.72021L54.9815 2.71021C55.3715 2.69021 55.7515 2.68018 56.1315 2.68018C62.2715 2.68018 67.1915 5.34015 70.9015 10.6501L70.9115 10.6401C71.0015 10.5401 71.0915 10.4601 71.1815 10.3701C71.2715 10.2701 71.3615 10.1902 71.4515 10.1002C71.5415 10.0002 71.6315 9.9202 71.7215 9.8302C71.8115 9.7302 71.9015 9.65018 71.9915 9.56018C72.0815 9.46018 72.1715 9.38016 72.2615 9.29016C72.3515 9.19016 72.4415 9.11014 72.5315 9.02014C72.6215 8.92014 72.7115 8.84012 72.8015 8.75012C72.8915 8.65012 72.9815 8.57022 73.0715 8.48022C73.1615 8.38022 73.2515 8.30021 73.3415 8.21021C73.4315 8.11021 73.5215 8.03019 73.6115 7.94019C73.7015 7.84019 73.7915 7.76017 73.8815 7.67017C73.9715 7.57017 74.0615 7.49015 74.1515 7.40015C74.2415 7.30015 74.3315 7.22013 74.4215 7.13013C74.5115 7.03013 74.6015 6.95023 74.6915 6.86023C74.7815 6.76023 74.8715 6.68021 74.9615 6.59021C75.0515 6.49021 75.1415 6.41019 75.2315 6.32019C75.3215 6.22019 75.4115 6.14017 75.5015 6.05017C75.5915 5.95017 75.6815 5.87015 75.7715 5.78015C75.8615 5.68015 75.9515 5.60013 76.0415 5.51013C76.1315 5.41013 76.2215 5.33011 76.3115 5.24011C76.4015 5.14011 76.4915 5.06021 76.5815 4.97021C76.6715 4.88021 76.7515 4.80021 76.8415 4.71021C77.5715 3.94021 78.2915 3.37014 79.0115 3.02014C79.9315 2.58014 81.2015 2.31022 82.8315 2.23022C83.1715 2.21022 83.8015 2.2002 84.7115 2.2002C85.1215 2.2002 85.5815 2.20021 86.1015 2.21021C89.0315 2.31021 91.2215 2.77012 92.6815 3.62012C94.1415 4.46012 95.4715 6.09012 96.6915 8.50012C97.7415 10.5801 98.5015 12.8402 98.9815 15.2902C99.1115 15.9602 99.2315 16.7302 99.3415 17.5802C99.3715 17.5502 99.3915 17.5201 99.4315 17.4901C99.4515 17.4701 99.4715 17.4602 99.5015 17.4402C99.5715 17.3702 99.6315 17.2902 99.7015 17.2202C99.7215 17.2002 99.7415 17.1902 99.7715 17.1702C99.8415 17.1002 99.9015 17.0202 99.9715 16.9502C99.9915 16.9302 100.012 16.9201 100.042 16.9001C100.112 16.8301 100.172 16.7502 100.242 16.6802C100.262 16.6602 100.282 16.6501 100.312 16.6301C100.382 16.5601 100.442 16.4802 100.512 16.4102C100.532 16.3902 100.551 16.3802 100.581 16.3602C100.651 16.2902 100.711 16.2101 100.781 16.1401C100.801 16.1201 100.822 16.1102 100.852 16.0902C100.922 16.0202 100.982 15.9401 101.052 15.8701C101.072 15.8501 101.092 15.8402 101.122 15.8202C101.192 15.7502 101.252 15.6702 101.322 15.6002C101.342 15.5802 101.361 15.5702 101.391 15.5502C101.461 15.4802 101.521 15.4002 101.591 15.3302C101.611 15.3102 101.632 15.3002 101.661 15.2802C101.731 15.2102 101.792 15.1302 101.862 15.0602C101.882 15.0402 101.902 15.0301 101.932 15.0101C102.002 14.9401 102.062 14.8602 102.132 14.7902C102.152 14.7702 102.171 14.7601 102.201 14.7401C102.271 14.6701 102.331 14.5901 102.401 14.5201C102.421 14.5001 102.441 14.4902 102.471 14.4702C102.541 14.4002 102.602 14.3201 102.672 14.2501C102.692 14.2301 102.712 14.2202 102.742 14.2002C102.812 14.1302 102.872 14.0502 102.942 13.9802C102.962 13.9602 102.982 13.9502 103.012 13.9302C103.082 13.8602 103.141 13.7802 103.211 13.7102C103.231 13.6902 103.251 13.6802 103.281 13.6602C103.351 13.5902 103.412 13.5102 103.482 13.4402C103.502 13.4202 103.522 13.4101 103.552 13.3901C103.622 13.3201 103.682 13.2402 103.752 13.1702C103.772 13.1502 103.792 13.1401 103.822 13.1201C103.892 13.0501 103.951 12.9701 104.021 12.9001C104.041 12.8801 104.061 12.8702 104.091 12.8502C104.161 12.7802 104.222 12.7001 104.292 12.6301C104.312 12.6101 104.332 12.6002 104.362 12.5802C104.432 12.5102 104.492 12.4302 104.562 12.3602C104.582 12.3402 104.602 12.3302 104.632 12.3102C104.702 12.2402 104.761 12.1602 104.831 12.0902C104.851 12.0702 104.871 12.0602 104.901 12.0402C104.971 11.9702 105.032 11.8902 105.102 11.8202C105.121 11.8002 105.142 11.7901 105.172 11.7701C105.242 11.7001 105.302 11.6202 105.372 11.5502C105.392 11.5302 105.412 11.5201 105.442 11.5001C105.512 11.4301 105.571 11.3502 105.641 11.2802C105.661 11.2602 105.681 11.2502 105.711 11.2302C105.781 11.1602 105.841 11.0801 105.911 11.0101C105.931 10.9901 105.952 10.9802 105.982 10.9602C106.052 10.8902 106.112 10.8101 106.182 10.7401C106.202 10.7201 106.222 10.7102 106.252 10.6902C106.322 10.6202 106.381 10.5402 106.451 10.4702C106.471 10.4502 106.491 10.4402 106.521 10.4202C106.591 10.3502 106.651 10.2702 106.721 10.2002C106.741 10.1802 106.762 10.1701 106.792 10.1501C106.862 10.0801 106.922 10.0002 106.992 9.93018C107.012 9.91018 107.032 9.90013 107.062 9.88013C107.132 9.81013 107.192 9.73016 107.262 9.66016C107.282 9.64016 107.301 9.63023 107.331 9.61023C107.401 9.54023 107.461 9.46014 107.531 9.39014C107.551 9.37014 107.572 9.36021 107.602 9.34021C107.672 9.27021 107.732 9.19012 107.802 9.12012C107.822 9.10012 107.842 9.09019 107.872 9.07019C107.942 9.00019 108.002 8.92022 108.072 8.85022C109.362 7.66022 110.971 6.85015 112.901 6.40015C114.041 6.15015 115.002 6.03015 115.792 6.03015C117.032 6.03015 118.392 6.28014 119.872 6.77014C122.202 7.51014 124.002 8.75023 125.292 10.4802C126.582 12.2102 127.542 14.7102 128.182 17.9802C128.472 19.4102 128.642 21.8302 128.692 25.2202C129.862 23.5202 131.232 21.8802 132.792 20.3102C132.862 20.2402 132.911 20.1901 132.982 20.1301C133.012 20.1001 133.032 20.0702 133.062 20.0402C133.132 19.9702 133.182 19.9202 133.252 19.8602C133.282 19.8302 133.301 19.8001 133.331 19.7701C133.401 19.7001 133.451 19.6502 133.521 19.5902C133.551 19.5602 133.572 19.5301 133.602 19.5001C133.672 19.4301 133.721 19.3802 133.792 19.3202C133.822 19.2902 133.842 19.2602 133.872 19.2302C133.942 19.1602 133.992 19.1102 134.062 19.0502C134.092 19.0202 134.111 18.9902 134.141 18.9602C134.211 18.8902 134.261 18.8402 134.331 18.7802C134.361 18.7502 134.382 18.7202 134.411 18.6902C134.482 18.6202 134.531 18.5701 134.602 18.5101C134.632 18.4801 134.652 18.4502 134.682 18.4202C134.752 18.3502 134.802 18.3001 134.872 18.2401C134.902 18.2101 134.921 18.1801 134.951 18.1501C135.021 18.0801 135.071 18.0302 135.141 17.9702C135.171 17.9402 135.191 17.9101 135.221 17.8801C135.292 17.8101 135.341 17.7602 135.411 17.7002C135.441 17.6702 135.462 17.6402 135.492 17.6102C135.562 17.5402 135.612 17.4902 135.682 17.4302C135.712 17.4002 135.732 17.3702 135.762 17.3402C135.832 17.2702 135.881 17.2202 135.951 17.1602C135.981 17.1302 136.001 17.1002 136.031 17.0702C136.102 17.0002 136.151 16.9501 136.221 16.8901C136.251 16.8601 136.272 16.8302 136.302 16.8002C136.372 16.7302 136.422 16.6801 136.492 16.6201C136.522 16.5901 136.542 16.5602 136.572 16.5302C136.642 16.4602 136.692 16.4102 136.762 16.3502C136.792 16.3202 136.811 16.2901 136.841 16.2601C136.911 16.1901 136.961 16.1402 137.031 16.0802C137.061 16.0502 137.082 16.0201 137.112 15.9901C137.182 15.9201 137.232 15.8702 137.302 15.8102C137.332 15.7802 137.352 15.7502 137.382 15.7202C137.452 15.6502 137.502 15.6002 137.572 15.5402C137.602 15.5102 137.621 15.4802 137.651 15.4502C137.721 15.3802 137.771 15.3301 137.841 15.2701C137.871 15.2401 137.892 15.2102 137.922 15.1802C137.992 15.1102 138.042 15.0601 138.112 15.0001C138.142 14.9701 138.162 14.9402 138.192 14.9102C138.262 14.8402 138.312 14.7902 138.382 14.7302C138.412 14.7002 138.431 14.6701 138.461 14.6401C138.531 14.5701 138.581 14.5202 138.651 14.4602C138.681 14.4302 138.702 14.4001 138.732 14.3701C138.802 14.3001 138.852 14.2502 138.922 14.1902C138.952 14.1602 138.972 14.1302 139.002 14.1002C139.072 14.0302 139.122 13.9802 139.192 13.9202C139.222 13.8902 139.241 13.8602 139.271 13.8302C139.341 13.7602 139.391 13.7101 139.461 13.6501C139.491 13.6201 139.512 13.5902 139.542 13.5602C139.612 13.4902 139.661 13.4401 139.732 13.3801C139.762 13.3501 139.782 13.3202 139.812 13.2902C139.882 13.2202 139.932 13.1702 140.002 13.1102C140.032 13.0802 140.051 13.0501 140.081 13.0201C140.151 12.9501 140.201 12.9002 140.271 12.8402C140.301 12.8102 140.322 12.7801 140.352 12.7501C140.422 12.6801 140.471 12.6302 140.542 12.5702C140.572 12.5402 140.592 12.5102 140.622 12.4802C140.692 12.4102 140.742 12.3602 140.812 12.3002C140.842 12.2702 140.861 12.2402 140.891 12.2102C140.961 12.1402 141.011 12.0902 141.081 12.0302C141.111 12.0002 141.132 11.9702 141.161 11.9402C141.232 11.8702 141.281 11.8201 141.352 11.7601C141.382 11.7301 141.402 11.7002 141.432 11.6702C141.502 11.6002 141.552 11.5501 141.622 11.4901C141.652 11.4601 141.671 11.4301 141.701 11.4001C141.771 11.3301 141.821 11.2802 141.891 11.2202C141.921 11.1902 141.941 11.1601 141.971 11.1301C143.451 9.65013 144.632 8.59022 145.502 7.98022C146.372 7.36022 147.712 6.61021 149.542 5.72021C152.112 4.43021 153.941 3.5902 155.031 3.2002C156.121 2.8002 157.482 2.51018 159.112 2.31018C160.262 2.27018 161.572 2.2002 163.002 2.2002ZM161.591 42.1301H162.262C162.862 42.1301 163.492 41.9901 164.161 41.7501C163.971 41.6901 163.782 41.6202 163.612 41.5502C162.822 41.1802 161.681 40.2802 160.201 38.8402C158.781 37.4502 157.542 36.5202 156.471 36.0402C156.572 36.7902 156.762 37.5401 157.062 38.2701C157.652 39.6101 158.272 40.5601 158.922 41.1301C159.562 41.7001 160.451 42.0301 161.591 42.1301ZM163.002 0.410156C161.502 0.410156 160.101 0.490146 158.841 0.650146C157.091 0.860146 155.582 1.19013 154.372 1.63013C153.202 2.06013 151.342 2.91022 148.692 4.23022C146.772 5.16022 145.361 5.95014 144.401 6.64014C143.441 7.32014 142.221 8.42011 140.651 9.99011L140.562 10.0802L140.502 10.1401L140.382 10.2601L140.302 10.3502L140.232 10.4102L140.112 10.5302L140.031 10.6201L139.971 10.6802L139.852 10.8002L139.762 10.8901L139.701 10.9502L139.581 11.0702L139.492 11.1602L139.432 11.2202L139.312 11.3402L139.221 11.4302L139.161 11.4901L139.042 11.6102L138.951 11.7002L138.891 11.7601L138.771 11.8801L138.682 11.9702L138.622 12.0302L138.502 12.1501L138.422 12.2401L138.362 12.3002L138.242 12.4202L138.161 12.5101L138.102 12.5702L137.982 12.6902L137.891 12.7802L137.831 12.8402L137.711 12.9602L137.622 13.0502L137.562 13.1102L137.442 13.2302L137.352 13.3202L137.292 13.3801L137.172 13.5001L137.081 13.5902L137.021 13.6501L136.901 13.7701L136.812 13.8602L136.752 13.9202L136.632 14.0402L136.552 14.1301L136.492 14.1902L136.372 14.3102L136.292 14.4001L136.232 14.4602L136.112 14.5802L136.021 14.6702L135.961 14.7302L135.841 14.8502L135.762 14.9402L135.701 15.0001L135.581 15.1201L135.492 15.2102L135.432 15.2701L135.312 15.3901L135.221 15.4802L135.161 15.5402L135.042 15.6602L134.961 15.7501L134.901 15.8102L134.781 15.9302L134.701 16.0201L134.641 16.0802L134.521 16.2002L134.442 16.2902L134.382 16.3502L134.262 16.4702L134.182 16.5602L134.122 16.6201L134.002 16.7401L133.911 16.8302L133.852 16.8901L133.732 17.0101L133.641 17.1002L133.581 17.1602L133.461 17.2802L133.372 17.3701L133.312 17.4302L133.192 17.5502L133.102 17.6401L133.042 17.7002L132.922 17.8202L132.841 17.9102L132.781 17.9702L132.661 18.0902L132.581 18.1802L132.521 18.2401L132.401 18.3602L132.322 18.4502L132.262 18.5101L132.141 18.6301L132.052 18.7202L131.992 18.7802L131.872 18.9001L131.792 18.9901L131.732 19.0502L131.612 19.1702C131.192 19.6002 130.772 20.0302 130.382 20.4702C130.292 19.3602 130.181 18.4501 130.031 17.7401C129.331 14.1901 128.282 11.5002 126.822 9.54016C125.312 7.51016 123.182 6.04019 120.512 5.19019C118.872 4.64019 117.312 4.36023 115.882 4.36023C114.952 4.36023 113.882 4.49014 112.612 4.77014C110.362 5.29014 108.461 6.26015 106.951 7.65015C106.871 7.72015 106.802 7.80012 106.732 7.87012C106.712 7.89012 106.702 7.90017 106.682 7.92017C106.602 7.99017 106.531 8.07014 106.461 8.14014C106.441 8.16014 106.422 8.17019 106.411 8.19019C106.331 8.26019 106.262 8.34016 106.192 8.41016C106.172 8.43016 106.151 8.4402 106.141 8.46021C106.061 8.5302 105.992 8.61018 105.922 8.68018C105.902 8.70018 105.882 8.71022 105.872 8.73022C105.792 8.80022 105.721 8.8802 105.651 8.9502C105.631 8.9702 105.612 8.98012 105.602 9.00012C105.521 9.07012 105.452 9.15022 105.382 9.22021C105.362 9.24022 105.341 9.25014 105.331 9.27014C105.251 9.34014 105.182 9.42011 105.112 9.49011C105.092 9.51011 105.072 9.52016 105.062 9.54016C104.982 9.61016 104.911 9.69013 104.841 9.76013C104.821 9.78013 104.802 9.79018 104.792 9.81018C104.712 9.88018 104.642 9.96015 104.572 10.0302C104.552 10.0502 104.531 10.0602 104.521 10.0802C104.441 10.1502 104.372 10.2302 104.302 10.3002C104.282 10.3202 104.262 10.3302 104.252 10.3502C104.172 10.4202 104.101 10.5002 104.031 10.5702C104.011 10.5902 103.992 10.6001 103.982 10.6201C103.902 10.6901 103.832 10.7702 103.762 10.8402C103.742 10.8602 103.721 10.8701 103.711 10.8901C103.631 10.9601 103.562 11.0402 103.492 11.1102C103.472 11.1302 103.462 11.1402 103.442 11.1602C103.362 11.2302 103.291 11.3101 103.221 11.3801C103.201 11.4001 103.182 11.4102 103.172 11.4302C103.092 11.5002 103.021 11.5701 102.951 11.6501C102.931 11.6701 102.911 11.6802 102.901 11.7002C102.821 11.7702 102.752 11.8502 102.682 11.9202C102.662 11.9402 102.642 11.9502 102.632 11.9702C102.552 12.0402 102.481 12.1202 102.411 12.1902C102.392 12.2102 102.372 12.2201 102.362 12.2401C102.282 12.3101 102.211 12.3902 102.141 12.4602C102.121 12.4802 102.101 12.4901 102.091 12.5101C102.011 12.5801 101.942 12.6602 101.872 12.7302C101.852 12.7502 101.832 12.7602 101.822 12.7802C101.742 12.8502 101.672 12.9301 101.602 13.0001C101.582 13.0201 101.562 13.0302 101.552 13.0502C101.472 13.1202 101.401 13.2001 101.331 13.2701C101.311 13.2901 101.291 13.3002 101.281 13.3202C101.201 13.3902 101.132 13.4602 101.062 13.5402C101.042 13.5602 101.022 13.5702 101.012 13.5902C100.932 13.6602 100.862 13.7402 100.792 13.8102C100.772 13.8302 100.752 13.8402 100.742 13.8602C100.692 13.9002 100.652 13.9501 100.612 13.9901C100.102 11.7901 99.3615 9.71017 98.3915 7.80017C97.0015 5.04017 95.4615 3.20017 93.6815 2.17017C91.9515 1.17017 89.5315 0.630151 86.2715 0.530151C85.7015 0.530151 85.2315 0.520142 84.8215 0.520142C83.8715 0.520142 83.2215 0.530171 82.8515 0.550171C80.9615 0.650171 79.4915 0.970142 78.3415 1.52014C77.4415 1.96014 76.5415 2.64019 75.6715 3.57019L75.6315 3.61023C75.5615 3.68023 75.4915 3.75019 75.4215 3.82019L75.3815 3.86023C75.3015 3.93023 75.2315 4.01021 75.1515 4.09021L75.1015 4.14014C75.0315 4.21014 74.9515 4.29023 74.8815 4.36023L74.8415 4.40015C74.7615 4.47015 74.6915 4.55013 74.6115 4.63013L74.5615 4.67017C74.4915 4.74017 74.4115 4.82015 74.3415 4.90015L74.2915 4.94019C74.2215 5.01019 74.1415 5.09016 74.0715 5.16016L74.0215 5.21021C73.9515 5.28021 73.8715 5.36018 73.8015 5.43018L73.7615 5.47021C73.6815 5.54022 73.6115 5.6202 73.5315 5.7002L73.4915 5.74011C73.4115 5.81011 73.3415 5.89021 73.2615 5.97021L73.2115 6.01013C73.1415 6.08013 73.0615 6.16011 72.9915 6.24011L72.9515 6.28015C72.8715 6.35015 72.8015 6.43013 72.7215 6.51013L72.6815 6.55017C72.6015 6.62017 72.5315 6.70015 72.4515 6.78015L72.4115 6.82019C72.3315 6.89019 72.2615 6.97017 72.1815 7.05017L72.1415 7.09021C72.0615 7.16021 71.9915 7.24019 71.9115 7.32019L71.8615 7.36023C71.7815 7.43023 71.7115 7.51021 71.6315 7.59021L71.5915 7.63013C71.5115 7.70013 71.4415 7.78023 71.3615 7.86023L71.3115 7.90015C71.2715 7.94015 71.2215 7.98015 71.1815 8.03015C67.2915 3.35015 62.2715 0.980225 56.2315 0.980225C55.8215 0.980225 55.4115 0.990132 54.9915 1.01013L54.7715 1.02014C54.7515 1.02014 54.7215 1.02014 54.7015 1.02014C51.9415 1.27014 49.9515 1.65017 48.6115 2.17017C47.2115 2.72017 45.7915 3.72015 44.4015 5.15015C44.3715 5.18015 44.3415 5.21011 44.3215 5.24011L44.3115 5.25012C44.2515 5.31012 44.1915 5.37018 44.1215 5.43018C44.0915 5.46018 44.0715 5.49013 44.0415 5.51013L44.0315 5.52014C43.9715 5.58014 43.9115 5.6402 43.8415 5.7002C43.8115 5.7302 43.7915 5.75015 43.7615 5.78015L43.7515 5.79016C43.6915 5.85016 43.6315 5.91021 43.5615 5.97021C43.5415 5.99021 43.5115 6.02017 43.4815 6.05017L43.4715 6.06018C43.4115 6.12018 43.3515 6.18011 43.2815 6.24011C43.2515 6.27011 43.2315 6.29019 43.2015 6.32019L43.1915 6.3302C43.1315 6.3902 43.0715 6.45013 43.0015 6.51013C42.9715 6.54013 42.9515 6.56021 42.9215 6.59021L42.9115 6.60022C42.8515 6.66022 42.7915 6.71015 42.7315 6.78015C42.7015 6.81015 42.6815 6.84023 42.6515 6.86023L42.6415 6.87012C42.5815 6.93012 42.5215 6.98017 42.4515 7.05017C42.4215 7.08017 42.4015 7.11013 42.3715 7.13013L42.3615 7.14014C42.3015 7.20014 42.2415 7.25019 42.1815 7.32019C42.1515 7.35019 42.1315 7.38015 42.1015 7.40015L42.0915 7.41016C42.0315 7.47016 41.9715 7.52021 41.9115 7.59021C41.8815 7.62021 41.8615 7.65017 41.8315 7.67017L41.8215 7.68018C41.7615 7.74018 41.7015 7.80023 41.6315 7.86023C41.6115 7.89023 41.5815 7.91019 41.5515 7.94019L41.5415 7.9502C41.4815 8.0102 41.4215 8.07013 41.3515 8.13013C41.3215 8.16013 41.3015 8.1802 41.2715 8.21021L41.2615 8.22021C41.2015 8.28021 41.1415 8.34015 41.0715 8.40015C41.0415 8.43015 41.0215 8.45022 40.9915 8.48022L40.9815 8.49011C40.9215 8.55011 40.8615 8.60017 40.8015 8.67017C40.7715 8.70017 40.7515 8.73012 40.7215 8.75012L40.7115 8.76013C40.6515 8.82013 40.5915 8.87019 40.5215 8.94019C40.4915 8.97019 40.4715 9.00014 40.4415 9.02014L40.4315 9.03015C40.3715 9.09015 40.3115 9.14021 40.2515 9.21021C40.2215 9.2402 40.1915 9.27017 40.1715 9.30017C40.1115 9.36017 40.0515 9.41022 39.9915 9.48022C39.9615 9.51022 39.9415 9.54019 39.9115 9.57019L39.9015 9.5802C39.8415 9.6402 39.7815 9.70013 39.7115 9.76013C39.6815 9.79013 39.6615 9.81021 39.6315 9.84021L39.6215 9.85022C39.5615 9.91022 39.5015 9.97015 39.4315 10.0302C39.4115 10.0602 39.3815 10.0802 39.3515 10.1102L39.3415 10.1201C39.2815 10.1801 39.2215 10.2402 39.1515 10.3002C39.1215 10.3302 39.1015 10.3601 39.0715 10.3801L39.0615 10.3901C39.0015 10.4501 38.9415 10.5102 38.8715 10.5702C38.8415 10.6002 38.8215 10.6201 38.7915 10.6501L38.7815 10.6602C38.7215 10.7202 38.6615 10.7702 38.6015 10.8402C38.5715 10.8702 38.5515 10.9002 38.5215 10.9202L38.5115 10.9302C38.4515 10.9902 38.3915 11.0402 38.3315 11.1102C38.3015 11.1402 38.2815 11.1702 38.2515 11.1902L38.2415 11.2002C38.1815 11.2602 38.1215 11.3101 38.0515 11.3801C38.0215 11.4101 38.0015 11.4402 37.9715 11.4602L37.9615 11.4702C37.9015 11.5302 37.8415 11.5801 37.7715 11.6501C37.7415 11.6801 37.7215 11.7002 37.6915 11.7302L37.6815 11.7401C37.6215 11.8001 37.5615 11.8602 37.4915 11.9202C37.4715 11.9402 37.4415 11.9701 37.4115 12.0001L37.4015 12.0101C37.3415 12.0701 37.2815 12.1302 37.2115 12.1902C37.1815 12.2202 37.1615 12.2401 37.1315 12.2701L37.1215 12.2802C37.0615 12.3402 37.0015 12.4002 36.9315 12.4602C36.9015 12.4902 36.8815 12.5102 36.8515 12.5402L36.8415 12.5502C36.7815 12.6102 36.7215 12.6602 36.6615 12.7302C36.6315 12.7602 36.6015 12.7902 36.5815 12.8202C36.5215 12.8802 36.4615 12.9301 36.4015 13.0001C36.3715 13.0301 36.3515 13.0602 36.3215 13.0802L36.3115 13.0902C36.2515 13.1502 36.1915 13.2001 36.1315 13.2701C36.1015 13.3001 36.0715 13.3302 36.0515 13.3602C35.9915 13.4202 35.9315 13.4702 35.8715 13.5402C35.8415 13.5702 35.8215 13.6001 35.7915 13.6201L35.7815 13.6301C35.7215 13.6901 35.6615 13.7502 35.5915 13.8102C35.5615 13.8402 35.5415 13.8701 35.5115 13.9001C35.4515 13.9601 35.3915 14.0102 35.3315 14.0802C35.3215 14.0902 35.3215 14.0902 35.3115 14.1002C34.1515 11.8802 32.8815 10.1802 31.4715 8.94019C29.5615 7.27019 27.1815 6.30015 24.3815 6.03015C23.7315 5.96015 23.0815 5.92017 22.4615 5.92017C21.4715 5.92017 20.5415 6.0102 19.6815 6.2002C18.7715 6.4002 17.7615 6.76017 16.5715 7.30017C15.0015 8.04017 13.6715 8.99014 12.6115 10.1401L12.5515 10.2002C12.4815 10.2702 12.4015 10.3402 12.3315 10.4202L12.2715 10.4802C12.2015 10.5502 12.1315 10.6202 12.0615 10.6902L12.0015 10.7501C11.9315 10.8201 11.8615 10.8902 11.7915 10.9602L11.7315 11.0201C11.6615 11.0901 11.5915 11.1602 11.5215 11.2302L11.4615 11.2902C11.3915 11.3602 11.3215 11.4301 11.2515 11.5001L11.1915 11.5602C11.1215 11.6302 11.0515 11.7001 10.9815 11.7701L10.9215 11.8302C10.8515 11.9002 10.7815 11.9702 10.7115 12.0402L10.6515 12.1002C10.5815 12.1702 10.5115 12.2402 10.4415 12.3102L10.3815 12.3701C10.3115 12.4401 10.2415 12.5102 10.1715 12.5802L10.1115 12.6401C10.0415 12.7101 9.97152 12.7802 9.90152 12.8502L9.84149 12.9102C9.77149 12.9802 9.7015 13.0501 9.6315 13.1201L9.5715 13.1802C9.5015 13.2502 9.43151 13.3201 9.36151 13.3901L9.30151 13.4502C9.23151 13.5202 9.16149 13.5902 9.09149 13.6602L9.03149 13.7202C8.96149 13.7902 8.8915 13.8602 8.8215 13.9302L8.7615 13.9901C8.6915 14.0601 8.62151 14.1302 8.55151 14.2002L8.49152 14.2601C8.42151 14.3301 8.35149 14.4002 8.28149 14.4702L8.2215 14.5302C8.1515 14.6002 8.0815 14.6701 8.0115 14.7401L7.95151 14.8002C7.88151 14.8702 7.81152 14.9401 7.74152 15.0101L7.68152 15.0702C7.61152 15.1402 7.5415 15.2102 7.4715 15.2802L7.4115 15.3402C7.3415 15.4102 7.27151 15.4802 7.20151 15.5502L7.14151 15.6102C7.07151 15.6802 7.00152 15.7502 6.93152 15.8202L6.87152 15.8801C6.80152 15.9501 6.7315 16.0202 6.6615 16.0902L6.6015 16.1501C6.5315 16.2201 6.46151 16.2902 6.39151 16.3602L6.33151 16.4202C6.26151 16.4902 6.19152 16.5601 6.12152 16.6301L6.06149 16.6902C5.99149 16.7602 5.9215 16.8301 5.8515 16.9001L5.7915 16.9602C5.7215 17.0302 5.65151 17.1002 5.58151 17.1702L5.52151 17.2302C5.45151 17.3002 5.38149 17.3702 5.31149 17.4402L5.25149 17.5001C5.18149 17.5701 5.1115 17.6402 5.0415 17.7102L4.98151 17.7701C4.91151 17.8401 4.84151 17.9102 4.77151 17.9802L4.71152 18.0402C4.64152 18.1102 4.57149 18.1801 4.50149 18.2501L4.4415 18.3102C4.3715 18.3802 4.30151 18.4501 4.23151 18.5201L4.17151 18.5802C4.10151 18.6502 4.03152 18.7202 3.96152 18.7902L3.90152 18.8502C3.82152 18.9202 3.75152 19.0002 3.68152 19.0802C3.20152 19.5702 2.80151 20.0301 2.48151 20.5001C1.26151 22.2401 0.651498 24.1502 0.661498 26.1902C0.661498 26.2202 0.661498 26.2401 0.661498 26.2701C0.691498 26.9701 1.00151 29.0002 3.08151 38.5802C8.70151 64.4902 10.1615 69.2801 10.7615 70.6301C10.7715 70.6501 10.7715 70.6602 10.7815 70.6802C12.1415 73.4902 14.0415 75.5701 16.4315 76.8701C18.4215 77.9501 20.4915 78.5001 22.5915 78.5001C23.4815 78.5001 24.3815 78.4002 25.2815 78.2102L26.1515 78.0201C26.1915 78.0101 26.2415 78.0001 26.2815 77.9901C28.5915 77.3101 30.4415 76.2102 31.7815 74.7202L31.8115 74.6902C31.8615 74.6402 31.9115 74.5902 31.9515 74.5402L32.0015 74.4901C32.0715 74.4201 32.1515 74.3401 32.2215 74.2701L32.2715 74.2202C32.3415 74.1502 32.4215 74.0801 32.4915 74.0001L32.5415 73.9502C32.6115 73.8802 32.6915 73.8102 32.7615 73.7302L32.8115 73.6802C32.8915 73.6102 32.9615 73.5302 33.0315 73.4602L33.0815 73.4102C33.1515 73.3402 33.2315 73.2702 33.3015 73.1902L33.3515 73.1401C33.4215 73.0701 33.5015 72.9902 33.5715 72.9202L33.6215 72.8701C33.6915 72.8001 33.7715 72.7201 33.8415 72.6501L33.8915 72.6002C33.9615 72.5302 34.0415 72.4601 34.1115 72.3801L34.1615 72.3302C34.2315 72.2602 34.3115 72.1802 34.3815 72.1102L34.4315 72.0602C34.5015 71.9902 34.5815 71.9202 34.6515 71.8402L34.7015 71.7902C34.7715 71.7202 34.8515 71.6402 34.9215 71.5702L34.9715 71.5201C35.0415 71.4501 35.1215 71.3702 35.1915 71.3002L35.2415 71.2501C35.3115 71.1801 35.3915 71.1002 35.4615 71.0302L35.5115 70.9802C35.5815 70.9102 35.6615 70.8301 35.7315 70.7601L35.7815 70.7102C35.8515 70.6402 35.9315 70.5701 36.0015 70.4901L36.0515 70.4402C36.1215 70.3702 36.2015 70.2902 36.2715 70.2202L36.3215 70.1702C36.3415 70.1502 36.3715 70.1302 36.3915 70.1002C38.1315 72.6002 40.9015 74.8901 45.2415 74.8901C45.4615 74.8901 45.6815 74.8801 45.9115 74.8701C47.3215 74.8001 49.0015 74.4802 50.8815 73.9302C52.8415 73.3602 54.2915 72.7402 55.3215 72.0402C56.2115 71.4702 57.0815 70.7102 57.8715 69.8202L57.9015 69.7902C57.9615 69.7302 58.0215 69.6702 58.0815 69.6102L58.1415 69.5602C58.2115 69.4902 58.2915 69.4202 58.3515 69.3402L58.4115 69.2902C58.4815 69.2202 58.5515 69.1502 58.6215 69.0702L58.6715 69.0201C58.7415 68.9501 58.8215 68.8802 58.8815 68.8002L58.9415 68.7501C59.0115 68.6801 59.0815 68.6102 59.1515 68.5302L59.2115 68.4802C59.2815 68.4102 59.3515 68.3401 59.4215 68.2601L59.4815 68.2102C59.5515 68.1402 59.6315 68.0701 59.7015 67.9901L59.7615 67.9402C59.8315 67.8702 59.9115 67.8002 59.9815 67.7202L60.0315 67.6702C60.1015 67.6002 60.1815 67.5302 60.2415 67.4502L60.3015 67.4001C60.3715 67.3301 60.4515 67.2602 60.5215 67.1802L60.5715 67.1301C60.6415 67.0601 60.7115 66.9902 60.7815 66.9102L60.8415 66.8602C60.9115 66.7902 60.9815 66.7201 61.0515 66.6401L61.1115 66.5902C61.1815 66.5202 61.2515 66.4501 61.3215 66.3701L61.3815 66.3202C61.4515 66.2502 61.5215 66.1802 61.5915 66.1002L61.6515 66.0502C61.7215 65.9802 61.8015 65.9102 61.8715 65.8302L61.9315 65.7802C61.9915 65.7202 62.0615 65.6602 62.1215 65.5902C64.1115 68.3802 66.0615 70.3202 68.0315 71.4702C70.0415 72.6402 72.5715 73.2302 75.5515 73.2302C75.9715 73.2302 76.3915 73.2202 76.8315 73.2002L78.1615 73.1301C78.1815 73.1301 78.2115 73.1301 78.2315 73.1301C81.0315 72.8801 83.4115 72.2202 85.3115 71.1702C86.6715 70.4202 87.7815 69.6002 88.6015 68.7302L88.6115 68.7202C88.7115 68.6302 88.8015 68.5402 88.8915 68.4402L88.9115 68.4302C89.0015 68.3502 89.0815 68.2602 89.1615 68.1802L89.1715 68.1702C89.2615 68.0802 89.3515 68.0002 89.4315 67.9102L89.4415 67.9001C89.5315 67.8102 89.6115 67.7301 89.7015 67.6401L89.7115 67.6301C89.8015 67.5401 89.8915 67.4601 89.9715 67.3701L89.9815 67.3602C90.0715 67.2702 90.1615 67.1902 90.2415 67.1002C90.3515 67.0002 90.4315 66.9102 90.5115 66.8302L90.5215 66.8202C90.6115 66.7302 90.7015 66.6502 90.7815 66.5602C90.8915 66.4602 90.9715 66.3702 91.0515 66.2902L91.0615 66.2802C91.1515 66.2001 91.2315 66.1101 91.3115 66.0201L91.3215 66.0101C91.4115 65.9201 91.5015 65.8401 91.5815 65.7501L91.5915 65.7401C91.6815 65.6501 91.7615 65.5702 91.8515 65.4802L91.8615 65.4702C91.9515 65.3802 92.0415 65.3002 92.1215 65.2102C92.2315 65.1102 92.3115 65.0202 92.3915 64.9402L92.4015 64.9302C92.4915 64.8402 92.5815 64.7602 92.6615 64.6702C92.7715 64.5702 92.8515 64.4801 92.9315 64.4001L92.9515 64.3901C93.0415 64.3101 93.1215 64.2201 93.2015 64.1401L93.2115 64.1301C93.3015 64.0401 93.3915 63.9601 93.4715 63.8701L93.4815 63.8602C93.5715 63.7702 93.6615 63.6902 93.7415 63.6002L93.7515 63.5902C93.8415 63.5002 93.9315 63.4202 94.0115 63.3302L94.0215 63.3202C94.1115 63.2302 94.2015 63.1502 94.2815 63.0602L94.2915 63.0502C94.3815 62.9602 94.4715 62.8802 94.5515 62.7902L94.5615 62.7802C94.6015 62.7402 94.6415 62.7002 94.6815 62.6602C94.8115 65.9702 94.9615 67.0702 95.0715 67.6002C95.0715 67.6202 95.0815 67.6301 95.0815 67.6501C95.8115 70.6801 97.2315 73.1201 99.2915 74.9001C101.742 77.0101 104.562 78.0802 107.661 78.0802H108.552C108.592 78.0802 108.642 78.0802 108.682 78.0802C111.782 77.8502 114.251 76.7902 116.021 74.9302C116.081 74.8702 116.142 74.8101 116.192 74.7401C116.272 74.6601 116.352 74.5801 116.432 74.5001C116.502 74.4301 116.601 74.3302 116.701 74.2302C116.771 74.1602 116.872 74.0602 116.982 73.9502C117.072 73.8602 117.162 73.7702 117.252 73.6802C117.322 73.6202 117.421 73.5102 117.521 73.4102C117.611 73.3202 117.701 73.2401 117.781 73.1501C117.851 73.0801 117.952 72.9801 118.052 72.8801C118.122 72.8101 118.222 72.7102 118.322 72.6102L118.331 72.6002C118.421 72.5102 118.511 72.4302 118.591 72.3402C118.661 72.2702 118.762 72.1702 118.862 72.0702C118.932 72.0002 119.032 71.9002 119.132 71.8002C119.202 71.7402 119.301 71.6301 119.401 71.5302C119.471 71.4702 119.572 71.3601 119.672 71.2601C119.742 71.2001 119.842 71.0901 119.942 70.9901C120.012 70.9301 120.111 70.8202 120.211 70.7202C120.281 70.6502 120.382 70.5502 120.482 70.4502C120.552 70.3802 120.652 70.2802 120.752 70.1802C120.822 70.1102 120.921 70.0102 121.021 69.9102C121.111 69.8202 121.201 69.7401 121.281 69.6501C121.351 69.5801 121.452 69.4801 121.552 69.3801C121.622 69.3201 121.722 69.2202 121.822 69.1102C121.892 69.0402 121.991 68.9402 122.091 68.8402C122.161 68.7702 122.262 68.6702 122.362 68.5702C122.432 68.5002 122.532 68.4002 122.632 68.3002C122.702 68.2302 122.801 68.1301 122.901 68.0302C122.971 67.9602 123.072 67.8601 123.172 67.7601C123.262 67.6701 123.352 67.5801 123.442 67.4901C123.512 67.4301 123.611 67.3202 123.711 67.2202C123.781 67.1602 123.882 67.0602 123.982 66.9502C124.052 66.8802 124.152 66.7802 124.252 66.6802L124.262 66.6702C124.352 66.5802 124.441 66.5002 124.521 66.4102C124.581 66.3602 124.632 66.3001 124.692 66.2501C125.482 65.5301 126.152 64.6902 126.672 63.7302C126.962 64.2202 127.271 64.7002 127.581 65.1802C128.651 66.7302 130.142 68.4602 132.042 70.3602C134.002 72.3202 135.651 73.6801 137.091 74.5001C138.181 75.1501 140.122 75.9401 143.002 76.8801C145.792 77.7901 148.092 78.4102 149.852 78.7202C149.872 78.7202 149.891 78.7302 149.911 78.7302C151.402 78.9402 152.521 79.0402 153.352 79.0402C159.352 79.0402 164.982 77.1502 170.072 73.4202C170.782 72.9202 171.602 72.1902 172.562 71.2102L172.701 71.0702C172.801 70.9702 172.902 70.8701 173.002 70.7701L173.271 70.5001C173.351 70.4201 173.441 70.3302 173.542 70.2302L173.812 69.9602C173.892 69.8802 173.981 69.7902 174.081 69.6902C174.161 69.6102 174.251 69.5202 174.352 69.4202C174.432 69.3402 174.522 69.2501 174.622 69.1501C174.702 69.0701 174.791 68.9801 174.891 68.8801C174.971 68.8001 175.061 68.7102 175.161 68.6102C175.242 68.5302 175.332 68.4402 175.432 68.3402L175.701 68.0702C175.781 67.9902 175.871 67.9002 175.971 67.8002C176.051 67.7202 176.142 67.6301 176.242 67.5302C176.322 67.4501 176.412 67.3601 176.512 67.2601L176.781 66.9901C176.861 66.9101 176.952 66.8202 177.052 66.7202L177.322 66.4502C177.402 66.3702 177.491 66.2802 177.591 66.1802C177.671 66.1002 177.762 66.0102 177.862 65.9102C177.942 65.8302 178.032 65.7401 178.132 65.6401C178.212 65.5601 178.301 65.4701 178.401 65.3701C178.481 65.2901 178.572 65.2002 178.672 65.1002C178.752 65.0202 178.842 64.9302 178.942 64.8302L179.211 64.5602C179.291 64.4802 179.382 64.3902 179.482 64.2902C179.562 64.2102 179.652 64.1201 179.752 64.0201C179.832 63.9401 179.921 63.8501 180.021 63.7501C180.101 63.6701 180.191 63.5802 180.292 63.4802C180.372 63.4002 180.462 63.3102 180.562 63.2102C180.642 63.1302 180.731 63.0402 180.831 62.9402C180.901 62.8702 180.991 62.7802 181.091 62.6802L181.102 62.6702L181.172 62.6102L181.271 62.5101C181.341 62.4401 181.401 62.3802 181.471 62.3102C181.051 67.9102 181.081 69.5202 181.151 70.2302C181.151 70.2502 181.152 70.2701 181.161 70.2802C181.581 73.3701 182.742 75.9402 184.612 77.9202C186.842 80.2702 189.532 81.6202 192.612 81.9302L193.502 82.0201C193.542 82.0201 193.592 82.0302 193.632 82.0302C193.792 82.0302 193.952 82.0402 194.102 82.0402C197.531 82.0402 200.252 80.9302 202.182 78.7302L202.201 78.7102C202.241 78.6702 202.291 78.6202 202.331 78.5802L202.382 78.5302C202.452 78.4602 202.531 78.3902 202.602 78.3102L202.651 78.2601C202.721 78.1901 202.802 78.1202 202.872 78.0402L202.922 77.9901C202.992 77.9201 203.071 77.8501 203.141 77.7701L203.192 77.7202C203.262 77.6502 203.341 77.5801 203.411 77.5001L203.461 77.4502C203.531 77.3802 203.612 77.3102 203.682 77.2302L203.732 77.1802C203.802 77.1102 203.881 77.0402 203.951 76.9602L204.002 76.9102C204.072 76.8402 204.151 76.7702 204.221 76.6902L204.271 76.6401C204.341 76.5701 204.422 76.5002 204.492 76.4202L204.542 76.3701C204.612 76.3001 204.692 76.2301 204.762 76.1501L204.812 76.1002C204.882 76.0302 204.961 75.9601 205.031 75.8801L205.081 75.8302C205.151 75.7602 205.232 75.6902 205.302 75.6102L205.352 75.5602C205.422 75.4902 205.502 75.4202 205.572 75.3402L205.622 75.2902C205.692 75.2202 205.771 75.1502 205.841 75.0702L205.891 75.0201C205.961 74.9501 206.042 74.8802 206.112 74.8002L206.161 74.7501C206.232 74.6801 206.312 74.6102 206.382 74.5302L206.432 74.4802C206.502 74.4102 206.581 74.3401 206.651 74.2601L206.701 74.2102C206.771 74.1402 206.852 74.0701 206.922 73.9901L206.971 73.9402C207.042 73.8702 207.122 73.8002 207.192 73.7202L207.242 73.6702C207.312 73.6002 207.391 73.5302 207.461 73.4502L207.512 73.4001C207.582 73.3301 207.661 73.2602 207.732 73.1802L207.781 73.1301C207.852 73.0601 207.932 72.9902 208.002 72.9102L208.052 72.8602C208.122 72.7902 208.201 72.7201 208.271 72.6401L208.322 72.5902C208.392 72.5202 208.471 72.4501 208.542 72.3701L208.591 72.3202C208.661 72.2502 208.742 72.1802 208.812 72.1002L208.862 72.0502C208.932 71.9802 209.011 71.9102 209.081 71.8302L209.132 71.7802C209.202 71.7102 209.281 71.6402 209.352 71.5602L209.401 71.5101C209.471 71.4401 209.552 71.3702 209.622 71.2902L209.672 71.2401C209.742 71.1701 209.821 71.1001 209.891 71.0201L209.942 70.9702C210.012 70.9002 210.091 70.8301 210.161 70.7501L210.211 70.7002C210.281 70.6302 210.352 70.5601 210.422 70.4901L210.461 70.4502C210.521 70.3902 210.581 70.3401 210.641 70.2802C211.581 69.4302 212.342 68.4002 212.922 67.2202C212.992 67.0802 213.062 66.9402 213.132 66.7802C213.322 67.0702 213.511 67.3501 213.711 67.6301C215.431 70.0201 217.582 71.8102 220.132 72.9602C222.592 74.0702 225.872 74.8701 230.172 75.4001C232.682 75.6801 234.982 75.8202 237.012 75.8202C239.032 75.8202 240.852 75.6801 242.432 75.4001C245.692 74.8301 248.821 73.4602 251.711 71.3402C252.391 70.8302 253.061 70.2602 253.771 69.5902C253.831 69.5402 253.911 69.4601 253.982 69.3801L254.072 69.2902C254.122 69.2402 254.201 69.1702 254.271 69.0902L254.341 69.0201C254.391 68.9701 254.471 68.9002 254.542 68.8202L254.612 68.7501C254.662 68.7001 254.742 68.6302 254.812 68.5502L254.882 68.4802C254.932 68.4302 255.011 68.3602 255.081 68.2802L255.151 68.2102C255.201 68.1602 255.281 68.0901 255.352 68.0101L255.422 67.9402C255.472 67.8902 255.552 67.8201 255.622 67.7401L255.692 67.6702C255.742 67.6202 255.821 67.5502 255.891 67.4702L255.961 67.4001C256.011 67.3501 256.091 67.2802 256.161 67.2002L256.232 67.1301C256.282 67.0801 256.362 67.0102 256.432 66.9302L256.502 66.8602C256.552 66.8102 256.631 66.7402 256.701 66.6602L256.771 66.5902C256.821 66.5402 256.901 66.4701 256.971 66.3901L257.042 66.3202C257.091 66.2702 257.172 66.2001 257.242 66.1201L257.312 66.0502C257.362 66.0002 257.442 65.9302 257.512 65.8502L257.581 65.7802C257.631 65.7301 257.711 65.6602 257.781 65.5802L257.852 65.5101C257.901 65.4601 257.982 65.3902 258.052 65.3102L258.122 65.2401C258.172 65.1901 258.252 65.1202 258.322 65.0402L258.391 64.9702C258.441 64.9202 258.521 64.8501 258.591 64.7701L258.661 64.7002C258.711 64.6502 258.792 64.5801 258.862 64.5001L258.932 64.4302C258.982 64.3802 259.062 64.3102 259.132 64.2302L259.201 64.1602C259.251 64.1102 259.331 64.0402 259.401 63.9602L259.471 63.8901C259.521 63.8401 259.602 63.7702 259.672 63.6902L259.742 63.6201C259.792 63.5701 259.872 63.5002 259.942 63.4202L260.012 63.3502C260.062 63.3002 260.141 63.2301 260.211 63.1501L260.281 63.0802C260.331 63.0302 260.411 62.9601 260.482 62.8801L260.552 62.8102C260.602 62.7602 260.682 62.6902 260.752 62.6102L260.822 62.5402C260.872 62.4902 260.951 62.4202 261.021 62.3402L261.091 62.2701C261.141 62.2201 261.221 62.1502 261.292 62.0702L261.362 62.0001C261.411 61.9501 261.492 61.8802 261.562 61.8002L261.632 61.7302C261.682 61.6802 261.761 61.6102 261.831 61.5302L261.901 61.4602C261.951 61.4102 262.031 61.3401 262.102 61.2601L262.172 61.1902C262.221 61.1402 262.302 61.0701 262.372 60.9901L262.442 60.9202C262.502 60.8602 262.582 60.7802 262.661 60.7002L262.742 60.6201C264.442 59.0501 265.902 57.1802 267.052 55.0902C268.532 52.3902 269.842 48.6101 270.942 43.8701C271.282 42.3601 271.552 40.8202 271.742 39.2902C272.472 33.3002 271.872 27.3302 269.932 21.5402C268.872 18.4802 267.502 15.9001 265.862 13.8701C263.072 10.3001 259.521 7.57015 255.331 5.78015C253.381 4.99015 250.852 4.41013 247.572 4.01013C245.702 3.78013 243.981 3.66016 242.461 3.66016C241.691 3.66016 240.961 3.69012 240.281 3.75012C237.281 4.03012 234.291 4.92016 231.391 6.41016C229.111 7.58016 227.232 8.93019 225.822 10.4402L225.641 10.6201L225.622 10.6401C225.542 10.7201 225.452 10.8101 225.372 10.8901L225.352 10.9102C225.271 10.9902 225.182 11.0802 225.102 11.1602L225.081 11.1802C225.001 11.2602 224.911 11.3402 224.831 11.4302L224.812 11.4502C224.732 11.5302 224.661 11.6002 224.581 11.6802L224.552 11.7102C224.462 11.8002 224.382 11.8802 224.292 11.9702L224.271 11.9901C224.181 12.0701 224.101 12.1601 224.021 12.2401L224.002 12.2601C223.922 12.3401 223.832 12.4201 223.752 12.5101L223.721 12.5302C223.641 12.6102 223.551 12.6902 223.471 12.7802L223.451 12.8002C223.371 12.8802 223.281 12.9602 223.201 13.0502L223.182 13.0702C223.102 13.1502 223.012 13.2402 222.932 13.3202L222.911 13.3402C222.831 13.4202 222.762 13.4902 222.682 13.5702L222.651 13.6002C222.561 13.6902 222.481 13.7702 222.391 13.8602L222.372 13.8801C222.282 13.9601 222.202 14.0501 222.122 14.1301L222.102 14.1501C222.021 14.2301 221.932 14.3101 221.852 14.4001L221.822 14.4202C221.742 14.5002 221.652 14.5802 221.572 14.6702L221.552 14.6902C221.472 14.7702 221.382 14.8602 221.302 14.9402L221.281 14.9602C221.191 15.0402 221.111 15.1302 221.031 15.2102L221.012 15.2302C220.932 15.3102 220.842 15.3902 220.762 15.4802L220.742 15.5001C220.662 15.5801 220.592 15.6502 220.512 15.7302L220.471 15.7701C220.391 15.8501 220.312 15.9301 220.242 16.0001L220.211 16.0302C220.121 16.1202 220.041 16.2002 219.951 16.2902L219.932 16.3102C219.852 16.3902 219.762 16.4702 219.682 16.5602L219.661 16.5802C219.581 16.6602 219.502 16.7402 219.432 16.8102L219.391 16.8502C219.311 16.9302 219.221 17.0202 219.141 17.1002L219.122 17.1201C219.042 17.2001 218.952 17.2801 218.872 17.3701L218.852 17.3901C218.831 17.4101 218.822 17.4202 218.802 17.4402C218.462 16.4202 218.051 15.5102 217.581 14.7202C216.281 12.5402 214.322 10.8701 211.742 9.75012C210.162 9.04012 208.641 8.60021 207.221 8.46021C206.861 8.42021 206.472 8.40015 206.062 8.40015C205.422 8.40015 204.702 8.44015 203.922 8.53015C201.632 8.82015 199.642 9.59019 198.002 10.8202C197.562 11.1502 197.141 11.5202 196.721 11.9602C196.632 12.0502 196.541 12.1402 196.451 12.2302C196.361 12.3202 196.272 12.4101 196.182 12.5001C196.092 12.5901 196.001 12.6801 195.911 12.7701C195.822 12.8601 195.731 12.9502 195.641 13.0402C195.551 13.1302 195.462 13.2202 195.372 13.3102C195.282 13.4002 195.191 13.4902 195.102 13.5802C195.012 13.6702 194.921 13.7602 194.831 13.8502C194.741 13.9402 194.652 14.0301 194.562 14.1201C194.472 14.2101 194.382 14.3001 194.292 14.3901C194.202 14.4801 194.111 14.5702 194.021 14.6602C193.931 14.7502 193.842 14.8402 193.752 14.9302C193.662 15.0202 193.572 15.1102 193.482 15.2002C193.392 15.2902 193.301 15.3802 193.211 15.4702C193.121 15.5602 193.032 15.6501 192.942 15.7401C192.852 15.8301 192.762 15.9201 192.672 16.0101C192.582 16.1001 192.491 16.1902 192.401 16.2802C192.311 16.3702 192.222 16.4602 192.132 16.5502C192.042 16.6402 191.952 16.7302 191.862 16.8202C191.772 16.9102 191.681 17.0002 191.591 17.0902C191.501 17.1802 191.412 17.2702 191.322 17.3602C191.232 17.4502 191.142 17.5401 191.052 17.6301C190.962 17.7201 190.871 17.8101 190.781 17.9001C190.691 17.9901 190.602 18.0802 190.512 18.1702C190.422 18.2602 190.332 18.3502 190.242 18.4402C190.152 18.5302 190.061 18.6202 189.971 18.7102C189.882 18.8002 189.791 18.8902 189.701 18.9802C189.611 19.0702 189.522 19.1601 189.432 19.2501C189.342 19.3401 189.251 19.4301 189.161 19.5201C189.132 19.5501 189.092 19.5901 189.062 19.6201C188.922 17.6901 188.482 15.9201 187.752 14.3701C186.672 12.1501 185.092 10.0002 183.062 7.94019C181.032 5.88019 178.842 4.2502 176.552 3.0802C173.182 1.3002 168.612 0.410156 163.002 0.410156ZM184.192 31.9802C184.262 31.9102 184.331 31.8401 184.401 31.7701C184.261 33.0701 184.091 34.6102 183.901 36.4502C183.721 36.3102 183.531 36.1802 183.341 36.0502C182.671 35.6002 181.992 35.2101 181.292 34.8901C181.342 34.8401 181.392 34.7902 181.442 34.7302L181.482 34.6802C181.562 34.6102 181.631 34.5302 181.711 34.4602L181.752 34.4102C181.832 34.3402 181.901 34.2602 181.971 34.1902L182.021 34.1401C182.101 34.0701 182.172 33.9902 182.252 33.9202L182.292 33.8701C182.372 33.8001 182.441 33.7201 182.521 33.6501L182.562 33.6002C182.642 33.5302 182.712 33.4501 182.792 33.3801L182.831 33.3302C182.911 33.2602 182.982 33.1802 183.062 33.1102L183.102 33.0602C183.182 32.9902 183.252 32.9102 183.322 32.8402L183.362 32.7902C183.442 32.7202 183.511 32.6402 183.591 32.5702L183.632 32.5201C183.712 32.4501 183.781 32.3702 183.852 32.3002L183.901 32.2501C183.981 32.1801 184.052 32.1002 184.122 32.0302L184.192 31.9802Z" fill="black"/>
<path d="M16.5515 9.92027C17.6115 9.44027 18.5315 9.11029 19.3015 8.94029C20.5115 8.68029 21.8915 8.63027 23.4515 8.80027C25.8815 9.03027 27.9115 9.86025 29.5315 11.2803C31.1515 12.7003 32.6314 14.9402 33.9514 17.9902C34.6414 19.5602 35.4614 22.5003 36.3914 26.8003C37.7214 32.9403 38.8815 39.6503 39.8515 46.9403C40.8215 54.2203 41.1315 58.9202 40.7815 61.0202C40.2815 64.5702 38.0815 66.9203 34.1815 68.0703L33.3115 68.2602C30.7015 68.8302 28.1615 68.4403 25.6915 67.1003C23.6215 65.9803 21.9915 64.1803 20.8015 61.7103C19.9115 59.7303 17.3915 49.1602 13.2315 30.0102C11.6915 22.9002 10.8915 18.9002 10.8515 17.9902C10.8415 16.3202 11.3415 14.7703 12.3515 13.3403C13.3615 11.9003 14.7615 10.7703 16.5515 9.92027Z" fill="white" stroke="black" stroke-miterlimit="10" stroke-linecap="round" stroke-linejoin="round"/>
<path d="M44.7716 7.41015C45.9916 6.16015 47.1916 5.30021 48.3516 4.85021C49.5216 4.39021 51.3816 4.05018 53.9416 3.82018L54.1616 3.81017C61.2816 3.44017 66.8316 6.47014 70.8416 12.9001C72.1916 15.0101 72.9416 16.0602 73.0916 16.0502C73.2416 16.0402 73.2816 15.4702 73.2216 14.3302C73.0516 11.0702 73.7816 8.45011 75.4116 6.49011C76.3416 5.35011 77.2716 4.56011 78.1916 4.12011C79.1116 3.68011 80.3816 3.41019 82.0116 3.33019C82.5016 3.30019 83.5916 3.30017 85.2816 3.31017C88.2116 3.41017 90.4016 3.87021 91.8616 4.72021C93.3216 5.56021 94.6516 7.19021 95.8716 9.60021C96.9216 11.6802 97.6816 13.9401 98.1616 16.3901C98.6316 18.8401 99.0016 22.5702 99.2616 27.5602C99.6216 34.4302 99.5116 40.8902 98.9316 46.9402C98.3516 52.9902 97.4616 56.8901 96.2716 58.6401C95.5816 59.6201 94.4416 60.5402 92.8516 61.4202C91.1616 62.3502 89.0416 62.9301 86.4716 63.1601L85.1416 63.2302C81.9316 63.4002 79.3316 62.9001 77.3316 61.7401C75.3316 60.5801 73.2616 58.3702 71.1116 55.1102C69.5016 52.8102 68.6216 51.6201 68.4716 51.5301C68.4216 51.4801 68.3516 51.5402 68.2616 51.6902C68.2216 51.8902 68.2116 52.1601 68.2316 52.5101C68.3116 54.1401 67.8116 55.9401 66.7316 57.9001C65.6416 59.8601 64.3116 61.3601 62.7316 62.3801C61.8716 62.9701 60.5616 63.5201 58.8016 64.0301C57.0416 64.5401 55.5216 64.8301 54.2416 64.9001C49.1016 65.1701 45.6116 61.9002 43.7716 55.1102C42.7216 51.0502 41.9416 44.1302 41.4316 34.3502C41.4016 33.8102 41.3716 33.0301 41.3516 32.0101C41.3216 31.0001 41.3016 30.2401 41.2716 29.7501C41.0616 22.8201 41.2116 17.7802 41.7116 14.6002C42.1916 11.4202 43.2216 9.02015 44.7716 7.41015Z" fill="white" stroke="black" stroke-miterlimit="10" stroke-linecap="round" stroke-linejoin="round"/>
<path d="M112.072 7.48035C113.212 7.23035 114.171 7.11035 114.961 7.11035C116.201 7.11035 117.562 7.36034 119.042 7.85034C121.372 8.59034 123.171 9.8303 124.461 11.5603C125.751 13.2903 126.712 15.7903 127.352 19.0603C127.702 20.7403 127.872 23.7903 127.872 28.1903C127.872 34.4703 127.572 41.2803 126.982 48.6003C126.392 55.9203 125.691 60.5803 124.901 62.5503C123.661 65.9103 121.011 67.7503 116.961 68.0403H116.072C113.402 68.0403 111.002 67.1203 108.872 65.2903C107.092 63.7603 105.872 61.6503 105.232 58.9803C104.782 56.8503 104.562 45.9903 104.562 26.4003C104.562 19.1303 104.631 15.0403 104.781 14.1503C105.131 12.5203 105.942 11.1103 107.232 9.92029C108.532 8.75029 110.142 7.93035 112.072 7.48035Z" fill="white" stroke="black" stroke-miterlimit="10" stroke-linecap="round" stroke-linejoin="round"/>
<path d="M158.292 3.38013C159.482 3.23013 160.791 3.16016 162.221 3.16016C167.561 3.16016 171.822 3.98023 174.992 5.61023C177.122 6.70023 179.132 8.21014 181.042 10.1401C182.942 12.0701 184.392 14.0502 185.382 16.0802C186.172 17.7602 186.572 19.7202 186.572 21.9402C186.572 24.0202 186.272 25.7501 185.682 27.1401C184.692 29.2201 183.281 30.8602 181.451 32.0802C179.621 33.2902 177.592 33.9001 175.362 33.9001C173.922 33.9001 172.811 33.7102 172.021 33.3402C171.231 32.9702 170.092 32.0701 168.612 30.6301C166.432 28.5001 164.681 27.4402 163.341 27.4402C162.941 27.4402 162.622 27.4701 162.372 27.5101C160.392 27.8601 158.772 28.8302 157.512 30.4402C156.252 32.0502 155.622 33.8701 155.622 35.9001C155.622 37.0401 155.842 38.1501 156.292 39.2401C156.882 40.5801 157.501 41.5302 158.151 42.1002C158.791 42.6702 159.682 43.0002 160.822 43.1002H161.492C163.422 43.1002 165.751 41.8402 168.471 39.3102C170.151 37.8302 171.662 36.9301 173.002 36.6401C173.742 36.4901 174.461 36.4202 175.151 36.4202C177.381 36.4202 179.522 37.1101 181.572 38.5001C183.622 39.8901 185.142 41.6902 186.132 43.9202C186.722 45.2102 187.021 46.7202 187.021 48.4502C187.021 50.3802 186.652 52.1402 185.911 53.7202C185.321 54.9602 184.052 56.7302 182.122 59.0302C180.192 61.3302 178.632 62.9001 177.442 63.7401C172.642 67.2501 167.421 69.0101 161.781 69.0101C161.041 69.0101 159.971 68.9102 158.591 68.7102C156.911 68.4102 154.712 67.8202 151.982 66.9302C149.262 66.0402 147.401 65.3002 146.411 64.7002C145.121 63.9602 143.562 62.6702 141.732 60.8402C139.902 59.0102 138.492 57.3802 137.502 55.9402C135.772 53.3202 134.472 50.7002 133.602 48.0702C132.732 45.4502 132.152 42.3302 131.862 38.7202C131.712 37.2902 131.641 35.9301 131.641 34.6401C131.641 26.0801 134.811 18.6102 141.141 12.2202C142.621 10.7402 143.802 9.68019 144.672 9.07019C145.542 8.45019 146.881 7.70018 148.711 6.81018C151.281 5.52018 153.111 4.68016 154.201 4.29016C155.301 3.88016 156.662 3.58013 158.292 3.38013Z" fill="white" stroke="black" stroke-miterlimit="10" stroke-linecap="round" stroke-linejoin="round"/>
<path d="M203.382 11.2501C204.542 11.1201 205.511 11.0902 206.301 11.1802C207.531 11.3102 208.861 11.6902 210.291 12.3302C212.531 13.3002 214.201 14.7202 215.301 16.5702C216.401 18.4202 217.111 21.0102 217.421 24.3202C217.591 26.0302 217.462 29.0702 217.012 33.4502C216.372 39.7002 215.381 46.4402 214.051 53.6702C212.711 60.9002 211.552 65.4502 210.562 67.3402C208.992 70.5602 206.171 72.1101 202.101 72.0001L201.211 71.9101C198.551 71.6401 196.261 70.4802 194.331 68.4502C192.711 66.7402 191.721 64.5302 191.351 61.8002C191.121 59.6402 192.012 48.8102 194.002 29.3202C194.742 22.0802 195.231 18.0301 195.471 17.1601C195.981 15.5701 196.941 14.2502 198.341 13.2002C199.731 12.1402 201.422 11.4901 203.382 11.2501Z" fill="white" stroke="black" stroke-miterlimit="10" stroke-linecap="round" stroke-linejoin="round"/>
<path d="M239.672 6.47026C241.592 6.31026 243.892 6.39026 246.592 6.72026C249.682 7.10026 252.112 7.65027 253.872 8.36027C257.802 10.0403 261.082 12.5602 263.712 15.9202C265.222 17.8002 266.482 20.1702 267.472 23.0402C269.332 28.6002 269.912 34.2602 269.202 40.0002C269.022 41.4702 268.762 42.9402 268.442 44.3902C267.382 49.0002 266.142 52.5802 264.732 55.1502C263.322 57.7202 261.432 59.8802 259.072 61.6302C256.392 63.5902 253.542 64.8402 250.542 65.3702C247.532 65.9002 243.622 65.8903 238.802 65.3503C234.722 64.8503 231.552 64.0902 229.282 63.0602C227.012 62.0302 225.112 60.4502 223.582 58.3202C222.222 56.4102 221.192 54.3102 220.502 52.0302C219.812 49.7502 219.302 46.7002 218.972 42.8702C218.812 40.5102 219.032 36.8702 219.642 31.9602C220.092 28.2802 220.572 25.6402 221.062 24.0602C222.822 18.6902 224.262 15.2502 225.392 13.7502C226.712 11.9202 228.732 10.3102 231.442 8.92021C234.162 7.55021 236.902 6.72026 239.672 6.47026ZM246.032 29.0102C245.392 28.1302 244.902 27.6702 244.552 27.6302C244.212 27.5902 243.642 27.7403 242.852 28.0903C240.842 29.0403 239.692 30.6703 239.412 32.9803C239.292 33.9603 239.362 34.8402 239.612 35.6202C240.032 37.0702 240.962 38.0002 242.412 38.4302C242.602 38.5002 242.842 38.5603 243.142 38.5903C243.682 38.6603 244.392 38.3502 245.272 37.6602C246.482 36.7102 247.182 35.4802 247.372 33.9502C247.562 32.3402 247.122 30.6902 246.032 29.0102Z" fill="white" stroke="black" stroke-miterlimit="10" stroke-linecap="round" stroke-linejoin="round"/>
</svg>
