<svg width="146" height="146" viewBox="0 0 146 146" fill="none" xmlns="http://www.w3.org/2000/svg">
<path d="M138.811 63.1601L137.341 62.9701L138.681 62.3401C144.801 59.4501 142.421 50.2301 135.671 50.6601L133.661 50.7901L135.281 49.5901C140.711 45.5401 136.561 36.9801 130.021 38.7301L128.591 39.1101L129.591 38.01C134.141 32.99 128.411 25.39 122.331 28.37L120.521 29.26L121.551 27.5301C125.021 21.7101 117.901 15.39 112.531 19.51L111.351 20.4101L111.851 19.01C114.131 12.63 105.931 7.80004 101.461 12.88L100.131 14.39L100.421 12.4001C101.401 5.70006 92.4115 2.5801 89.0215 8.4401L88.2815 9.73014L88.2115 8.25004C87.8815 1.49004 78.4515 0.160094 76.2615 6.56009L75.6115 8.47013L75.1215 6.52005C73.4615 -0.0399451 63.9615 0.510128 63.0715 7.22013L62.8815 8.6901L62.2515 7.35013C59.3615 1.23013 50.1415 3.61014 50.5715 10.3601L50.7015 12.37L49.5015 10.75C45.4515 5.32004 36.8915 9.47005 38.6415 16.01L39.0215 17.4401L37.9215 16.4401C32.9015 11.8901 25.3015 17.6201 28.2815 23.7001L29.1715 25.51L27.4415 24.4801C21.6215 21.0101 15.3015 28.13 19.4215 33.5L20.3215 34.6801L18.9215 34.1801C12.5415 31.9001 7.71147 40.1001 12.7915 44.5701L14.3015 45.9001L12.3115 45.6101C5.61147 44.6301 2.49147 53.62 8.35147 57.01L9.64147 57.75L8.16146 57.8201C1.40146 58.1501 0.0714755 67.5801 6.47148 69.7701L8.38146 70.4201L6.43147 70.9101C-0.128533 72.5701 0.421464 82.0701 7.13146 82.9601L8.60147 83.1501L7.26147 83.7801C1.14147 86.6701 3.52146 95.8901 10.2715 95.4601L12.2815 95.3301L10.6615 96.5301C5.23146 100.58 9.38147 109.14 15.9215 107.39L17.3515 107.01L16.3515 108.11C11.8015 113.13 17.5315 120.73 23.6115 117.75L25.4215 116.86L24.3915 118.59C20.9215 124.41 28.0415 130.73 33.4115 126.61L34.5915 125.71L34.0915 127.11C31.8115 133.49 40.0115 138.32 44.4815 133.24L45.8115 131.73L45.5215 133.72C44.5415 140.42 53.5315 143.54 56.9215 137.68L57.6615 136.39L57.7315 137.87C58.0615 144.63 67.4915 145.96 69.6815 139.56L70.3315 137.65L70.8215 139.6C72.4815 146.16 81.9815 145.61 82.8715 138.9L83.0615 137.43L83.6915 138.77C86.5815 144.89 95.8015 142.51 95.3715 135.76L95.2415 133.75L96.4415 135.37C100.491 140.8 109.051 136.65 107.301 130.11L106.921 128.68L108.021 129.68C113.041 134.23 120.641 128.5 117.661 122.42L116.771 120.61L118.501 121.64C124.321 125.11 130.641 117.99 126.521 112.62L125.621 111.44L127.021 111.94C133.401 114.22 138.231 106.02 133.151 101.55L131.641 100.22L133.631 100.51C140.331 101.49 143.451 92.5001 137.591 89.1101L136.301 88.37L137.781 88.3001C144.541 87.9701 145.871 78.5401 139.471 76.3501L137.561 75.7001L139.511 75.2101C146.081 73.5401 145.521 64.0401 138.811 63.1601Z" fill="#FFCC03" stroke="black" stroke-width="2" stroke-miterlimit="10" stroke-linecap="round" stroke-linejoin="round"/>
<path d="M79.8713 81.6401C78.9313 81.0501 77.6813 80.7501 76.1513 80.7501C74.7413 80.7501 73.6713 80.9902 72.9613 81.4702C72.5413 81.6902 72.2113 81.9501 71.9513 82.2501H72.1613C73.6913 82.2501 74.9213 82.5501 75.8713 83.1401C77.1613 83.9101 77.8113 85.0201 77.8113 86.4901C77.8113 86.5501 77.8013 86.6802 77.7713 86.8602C77.7413 87.0402 77.7313 87.1802 77.7313 87.3102C77.6613 87.8302 77.4213 88.3102 77.0213 88.7202C78.1413 88.6802 79.1313 88.4202 80.0513 87.9302C81.0413 87.4002 81.6113 86.7002 81.7313 85.8102C81.7313 85.7002 81.7413 85.5501 81.7713 85.3701C81.8013 85.1901 81.8213 85.0801 81.8213 85.0101C81.8313 83.5301 81.1713 82.4001 79.8713 81.6401ZM78.2713 56.2302C77.2113 55.0602 75.9813 54.4602 74.5613 54.4602C73.1913 54.4602 72.0813 54.9801 71.2913 56.0101C72.4013 56.1901 73.3813 56.7802 74.2813 57.7202C75.0913 58.5702 75.5113 59.2002 75.5113 59.6802C75.5113 60.3302 75.1113 61.0201 74.3213 61.7601C74.2413 61.8201 74.1513 61.9102 74.0713 61.9802C74.1113 61.9902 74.1613 61.9901 74.2113 61.9901C74.7413 61.9901 75.2713 61.9002 75.8013 61.7302C76.6913 61.4902 77.5313 61.0001 78.3313 60.2601C79.1213 59.5301 79.5213 58.8402 79.5213 58.1802C79.5213 57.7102 79.1013 57.0702 78.2713 56.2302Z" fill="white" stroke="black" stroke-width="2" stroke-miterlimit="10" stroke-linecap="round" stroke-linejoin="round"/>
<path d="M84.7413 109.96C84.5013 110.03 84.2313 110.09 83.9713 110.15C83.3513 110.49 82.7013 110.8 82.0313 111.09C83.4813 110.65 84.8413 110.14 86.1313 109.56C85.6713 109.71 85.2113 109.84 84.7413 109.96ZM51.8313 39.2703C52.5813 39.0803 53.3913 38.9103 54.2313 38.7703C54.6813 38.4303 55.1913 38.1003 55.7513 37.8203C54.2613 38.2103 52.9613 38.6903 51.8313 39.2703ZM78.2713 56.2303C77.2113 55.0603 75.9813 54.4603 74.5613 54.4603C73.1913 54.4603 72.0813 54.9803 71.2913 56.0103C72.4013 56.1903 73.3813 56.7803 74.2813 57.7203C75.0913 58.5703 75.5113 59.2003 75.5113 59.6803C75.5113 60.3303 75.1113 61.0203 74.3213 61.7603C74.2413 61.8203 74.1513 61.9103 74.0713 61.9803C74.1113 61.9903 74.1613 61.9902 74.2113 61.9902C74.7413 61.9902 75.2713 61.9003 75.8013 61.7303C76.6913 61.4903 77.5313 61.0003 78.3313 60.2603C79.1213 59.5303 79.5213 58.8403 79.5213 58.1803C79.5213 57.7103 79.1013 57.0703 78.2713 56.2303ZM79.8713 81.6403C78.9313 81.0503 77.6813 80.7502 76.1513 80.7502C74.7413 80.7502 73.6713 80.9903 72.9613 81.4703C72.5413 81.6903 72.2113 81.9502 71.9513 82.2502H72.1613C73.6913 82.2502 74.9213 82.5503 75.8713 83.1403C77.1613 83.9103 77.8113 85.0202 77.8113 86.4902C77.8113 86.5502 77.8013 86.6804 77.7713 86.8604C77.7413 87.0404 77.7313 87.1803 77.7313 87.3103C77.6613 87.8303 77.4213 88.3103 77.0213 88.7203C78.1413 88.6803 79.1313 88.4203 80.0513 87.9303C81.0413 87.4003 81.6113 86.7003 81.7313 85.8103C81.7313 85.7003 81.7413 85.5502 81.7713 85.3702C81.8013 85.1902 81.8213 85.0803 81.8213 85.0103C81.8313 83.5303 81.1713 82.4003 79.8713 81.6403Z" fill="white" stroke="black" stroke-width="2" stroke-miterlimit="10" stroke-linecap="round" stroke-linejoin="round"/>
<path d="M83.9614 110.16C83.3414 110.49 82.6814 110.81 82.0314 111.1C80.3914 111.83 78.6214 112.44 76.7414 112.95C74.3914 113.61 71.3114 113.93 67.5314 113.93C61.3414 113.93 56.0614 113.09 51.6914 111.44C45.9114 109.32 42.2514 104.51 40.7114 97.0103C40.0014 93.7703 39.6514 88.8803 39.6514 82.3203C39.6514 79.8403 39.7614 77.1203 40.0014 74.1803C40.2914 71.9403 40.5614 66.8603 40.7914 58.9503C41.0414 51.6903 41.2414 47.8304 41.4214 47.3604C41.9014 45.6604 43.4914 43.7903 46.2014 41.7903C47.6314 40.7203 49.4914 39.8803 51.8414 39.2803C52.5914 39.0903 53.4014 38.9203 54.2414 38.7803C54.2314 38.7903 54.2214 38.7903 54.2114 38.8003C51.4914 40.8103 49.8914 42.6702 49.4214 44.3802C49.2514 44.8602 49.0314 48.7203 48.8014 55.9703C48.5614 63.8703 48.3014 68.9603 48.0114 71.2003C47.7714 74.1403 47.6514 76.8603 47.6514 79.3303C47.6514 85.8903 48.0114 90.7803 48.7214 94.0303C50.2514 101.53 53.9114 106.32 59.6914 108.46C64.0614 110.11 69.3414 110.94 75.5414 110.94C78.9114 110.94 81.7214 110.68 83.9614 110.16Z" fill="black" stroke="black" stroke-width="2" stroke-miterlimit="10" stroke-linecap="round" stroke-linejoin="round"/>
<path d="M99.6914 71.6401L97.6614 69.8602L98.9914 67.8302C99.6314 66.8202 100.261 65.2702 100.841 63.1802C101.441 61.0902 101.731 59.3202 101.731 57.9102C101.731 55.4302 100.871 52.4802 99.1614 49.0502C97.6314 46.0502 95.0014 43.2901 91.2514 40.7701C87.5114 38.2801 83.5914 36.6401 79.5214 35.8701C76.6914 35.4001 73.7614 35.1602 70.7514 35.1602C64.0614 35.1602 59.0614 36.0502 55.7614 37.8202C55.2114 38.1002 54.6914 38.4301 54.2414 38.7701C54.2314 38.7801 54.2214 38.7802 54.2114 38.7902C51.4914 40.8002 49.8914 42.6601 49.4214 44.3701C49.2514 44.8501 49.0314 48.7102 48.8014 55.9602C48.5614 63.8602 48.3014 68.9502 48.0114 71.1902C47.7714 74.1302 47.6514 76.8502 47.6514 79.3202C47.6514 85.8802 48.0114 90.7701 48.7214 94.0201C50.2514 101.52 53.9114 106.31 59.6914 108.45C64.0614 110.1 69.3414 110.93 75.5414 110.93C78.9214 110.93 81.7314 110.67 83.9714 110.15C84.2414 110.09 84.5014 110.02 84.7414 109.95C85.2114 109.84 85.6714 109.7 86.1314 109.55C94.0114 107.15 99.5614 102.67 102.811 96.1501C103.751 94.3201 104.321 92.9801 104.491 92.1201C104.661 91.2601 104.811 89.7502 104.921 87.5602C104.921 87.3202 104.941 87.0002 104.971 86.5802C105.001 86.1702 105.011 85.8501 105.011 85.6201C105.001 79.4301 103.251 74.7701 99.6914 71.6401ZM70.4014 58.1802C70.4014 57.7702 70.5214 57.3302 70.7514 56.8502C70.9214 56.5502 71.1014 56.2601 71.2914 56.0101C72.4014 56.1901 73.3814 56.7802 74.2814 57.7202C75.0914 58.5702 75.5114 59.2002 75.5114 59.6802C75.5114 60.3302 75.1114 61.0201 74.3214 61.7601C74.2414 61.8201 74.1514 61.9102 74.0714 61.9802C72.7814 61.9402 71.7314 61.1802 70.9314 59.6902C70.5814 58.9802 70.4014 58.4802 70.4014 58.1802ZM76.6814 88.7302C75.5514 88.7302 74.5914 88.5401 73.8014 88.1401C73.5714 88.0401 73.3414 87.9001 73.1414 87.7401C71.8314 86.8101 71.1814 85.6602 71.1814 84.3002C71.1814 84.2902 71.1814 84.2901 71.1814 84.2802C71.1814 83.4902 71.4414 82.8001 71.9314 82.2501H72.1414C73.6714 82.2501 74.9014 82.5501 75.8514 83.1401C77.1414 83.9101 77.7914 85.0201 77.7914 86.4901C77.7914 86.5501 77.7814 86.6802 77.7514 86.8602C77.7214 87.0402 77.7114 87.1802 77.7114 87.3102C77.6414 87.8302 77.4014 88.3102 77.0014 88.7202C76.9014 88.7302 76.8014 88.7302 76.6814 88.7302Z" fill="#705485" stroke="black" stroke-width="2" stroke-miterlimit="10" stroke-linecap="round" stroke-linejoin="round"/>
<path d="M78.2713 56.2302C77.2113 55.0602 75.9813 54.4602 74.5613 54.4602C73.1913 54.4602 72.0813 54.9801 71.2913 56.0101C72.4013 56.1901 73.3813 56.7802 74.2813 57.7202C75.0913 58.5702 75.5113 59.2002 75.5113 59.6802C75.5113 60.3302 75.1113 61.0201 74.3213 61.7601C74.2413 61.8201 74.1513 61.9102 74.0713 61.9802C74.1113 61.9902 74.1613 61.9901 74.2113 61.9901C74.7413 61.9901 75.2713 61.9002 75.8013 61.7302C76.6913 61.4902 77.5313 61.0001 78.3313 60.2601C79.1213 59.5301 79.5213 58.8402 79.5213 58.1802C79.5213 57.7102 79.1013 57.0702 78.2713 56.2302ZM79.8713 81.6401C78.9313 81.0501 77.6813 80.7501 76.1513 80.7501C74.7413 80.7501 73.6713 80.9902 72.9613 81.4702C72.5413 81.6902 72.2113 81.9501 71.9513 82.2501H72.1613C73.6913 82.2501 74.9213 82.5501 75.8713 83.1401C77.1613 83.9101 77.8113 85.0201 77.8113 86.4901C77.8113 86.5501 77.8013 86.6802 77.7713 86.8602C77.7413 87.0402 77.7313 87.1802 77.7313 87.3102C77.6613 87.8302 77.4213 88.3102 77.0213 88.7202C78.1413 88.6802 79.1313 88.4202 80.0513 87.9302C81.0413 87.4002 81.6113 86.7002 81.7313 85.8102C81.7313 85.7002 81.7413 85.5501 81.7713 85.3701C81.8013 85.1901 81.8213 85.0801 81.8213 85.0101C81.8313 83.5301 81.1713 82.4001 79.8713 81.6401Z" fill="black" stroke="black" stroke-width="2" stroke-miterlimit="10" stroke-linecap="round" stroke-linejoin="round"/>
</svg>
