<svg width="99" height="106" viewBox="0 0 99 106" fill="none" xmlns="http://www.w3.org/2000/svg">
<path d="M74.9288 92.42C74.9288 92.42 79.7088 103 82.6488 102.07C84.9488 101.34 83.2488 92.42 83.2488 92.42C83.2488 92.42 91.8388 96.77 93.2688 94.64C94.6188 92.63 87.7588 86.68 87.7588 86.68C87.7588 86.68 95.3788 88.65 95.9488 86.68C97.1388 82.56 81.4488 77.54 81.4488 77.54L74.9288 92.42Z" fill="#63B44E" stroke="black" stroke-miterlimit="10" stroke-linecap="round" stroke-linejoin="round"/>
<path d="M85.0689 64.1C85.3889 87.34 75.5489 105.38 50.8189 105.38C34.8689 105.38 28.6289 93.79 26.2089 85.56C26.4489 84.07 26.6489 82.61 26.7389 81.61C27.5389 73.55 28.7489 49.27 28.7489 49.27C28.7489 49.27 58.9589 50.4 65.4489 36.56C65.4489 36.56 75.7089 46.38 84.8489 47.21C85.1389 51.79 84.9789 57.39 85.0689 64.1Z" fill="#A6C721" stroke="black" stroke-miterlimit="10" stroke-linecap="round" stroke-linejoin="round"/>
<path d="M51.8088 45.59C48.9588 45.6 44.1888 45.29 44.0488 53.96C43.9188 62.18 52.5188 62.21 52.5188 62.21C52.5188 62.21 59.1988 63.1 60.1688 54.18C61.1588 45.17 54.7988 45.58 51.8088 45.59Z" fill="white" stroke="black" stroke-miterlimit="10" stroke-linecap="round" stroke-linejoin="round"/>
<path d="M56.4888 49.24C54.7988 49.17 55.2988 52.5 55.1988 53.63C55.1088 54.78 54.4988 58.14 55.7588 58.29C57.7588 58.52 58.0588 54.8 58.1088 53.51C58.1588 52.44 58.0888 49.3 56.4888 49.24Z" fill="black" stroke="black" stroke-miterlimit="10" stroke-linecap="round" stroke-linejoin="round"/>
<path d="M56.8788 50.73C56.1188 50.7 56.3588 52.2 56.3688 52.71C56.3788 53.13 56.2488 54.34 56.8788 54.39C57.5688 54.44 57.5388 52.64 57.5388 52.64C57.5388 52.64 57.5888 50.76 56.8788 50.73Z" fill="white"/>
<path d="M40.8588 57.66C40.8588 57.66 47.8388 57.33 48.7688 59.05C49.4488 60.3 44.6388 64.1 44.6388 64.1" fill="#A6C721"/>
<path d="M40.8588 57.66C40.8588 57.66 47.8388 57.33 48.7688 59.05C49.4488 60.3 44.6388 64.1 44.6388 64.1" stroke="black" stroke-miterlimit="10" stroke-linecap="round" stroke-linejoin="round"/>
<path d="M73.6888 46.88C76.5388 46.89 81.3088 46.58 81.4488 55.25C81.5788 63.47 72.9788 63.5 72.9788 63.5C72.9788 63.5 66.2988 64.39 65.3288 55.47C64.3388 46.46 70.6888 46.88 73.6888 46.88Z" fill="white" stroke="black" stroke-miterlimit="10" stroke-linecap="round" stroke-linejoin="round"/>
<path d="M76.4388 50.53C74.7488 50.46 75.2488 53.79 75.1488 54.92C75.0588 56.07 74.4488 59.43 75.7088 59.58C77.7088 59.81 78.0088 56.09 78.0588 54.8C78.1188 53.73 78.0388 50.59 76.4388 50.53Z" fill="black" stroke="black" stroke-miterlimit="10" stroke-linecap="round" stroke-linejoin="round"/>
<path d="M76.8288 52.02C76.0688 51.99 76.3089 53.49 76.3189 54C76.3289 54.42 76.1988 55.63 76.8288 55.68C77.5188 55.73 77.4888 53.93 77.4888 53.93C77.4888 53.93 77.5388 52.05 76.8288 52.02Z" fill="white"/>
<path d="M83.4888 58.93C81.3488 58.97 78.1688 59.22 77.5588 60.34C76.8788 61.59 81.6888 65.39 81.6888 65.39" fill="#A6C721"/>
<path d="M83.4888 58.93C81.3488 58.97 78.1688 59.22 77.5588 60.34C76.8788 61.59 81.6888 65.39 81.6888 65.39" stroke="black" stroke-miterlimit="10" stroke-linecap="round" stroke-linejoin="round"/>
<path d="M51.8088 63.54C48.9588 63.55 44.1888 63.24 44.0488 71.91C43.9188 80.13 52.5188 80.16 52.5188 80.16C52.5188 80.16 59.1988 81.05 60.1688 72.13C61.1588 63.12 54.7988 63.53 51.8088 63.54Z" fill="white" stroke="black" stroke-miterlimit="10" stroke-linecap="round" stroke-linejoin="round"/>
<path d="M56.4888 67.18C54.7988 67.11 55.2988 70.44 55.1988 71.57C55.1088 72.72 54.4988 76.08 55.7588 76.23C57.7588 76.46 58.0588 72.74 58.1088 71.45C58.1588 70.38 58.0888 67.25 56.4888 67.18Z" fill="black" stroke="black" stroke-miterlimit="10" stroke-linecap="round" stroke-linejoin="round"/>
<path d="M56.8788 68.67C56.1188 68.64 56.3588 70.14 56.3688 70.65C56.3788 71.07 56.2488 72.28 56.8788 72.33C57.5688 72.38 57.5388 70.58 57.5388 70.58C57.5388 70.58 57.5888 68.7 56.8788 68.67Z" fill="white"/>
<path d="M40.8588 75.61C40.8588 75.61 47.8388 75.28 48.7688 77C49.4488 78.25 44.6388 82.05 44.6388 82.05" fill="#A6C721"/>
<path d="M40.8588 75.61C40.8588 75.61 47.8388 75.28 48.7688 77C49.4488 78.25 44.6388 82.05 44.6388 82.05" stroke="black" stroke-miterlimit="10" stroke-linecap="round" stroke-linejoin="round"/>
<path d="M73.6888 64.83C76.5388 64.84 81.3088 64.53 81.4488 73.2C81.5788 81.42 72.9788 81.45 72.9788 81.45C72.9788 81.45 66.2988 82.34 65.3288 73.42C64.3388 64.41 70.6888 64.82 73.6888 64.83Z" fill="white" stroke="black" stroke-miterlimit="10" stroke-linecap="round" stroke-linejoin="round"/>
<path d="M76.4388 68.47C74.7488 68.4 75.2488 71.73 75.1488 72.86C75.0588 74.01 74.4488 77.37 75.7088 77.52C77.7088 77.75 78.0088 74.03 78.0588 72.74C78.1188 71.67 78.0388 68.54 76.4388 68.47Z" fill="black" stroke="black" stroke-miterlimit="10" stroke-linecap="round" stroke-linejoin="round"/>
<path d="M76.8288 69.96C76.0688 69.93 76.3089 71.43 76.3189 71.94C76.3289 72.36 76.1988 73.57 76.8288 73.62C77.5188 73.67 77.4888 71.87 77.4888 71.87C77.4888 71.87 77.5388 69.99 76.8288 69.96Z" fill="white"/>
<path d="M64.3489 74.15C64.3489 74.15 69.7889 82.34 82.0789 76.25C83.5889 75.5 87.7289 72.94 88.7689 76.93C89.8089 80.93 82.2989 87.6 65.5689 80.58" fill="#A6C721"/>
<path d="M64.3489 74.15C64.3489 74.15 69.7889 82.34 82.0789 76.25C83.5889 75.5 87.7289 72.94 88.7689 76.93C89.8089 80.93 82.2989 87.6 65.5689 80.58" stroke="black" stroke-miterlimit="10" stroke-linecap="round" stroke-linejoin="round"/>
<path d="M70.4688 91.62C62.7288 97.45 55.0188 93.54 52.0188 90.65C50.4488 89.14 50.4088 86.65 51.9088 85.09C53.4088 83.53 55.8788 83.48 57.4488 84.96C58.1188 85.58 61.6288 88.44 65.7388 85.34C67.4688 84.03 69.9388 84.38 71.2488 86.11C72.5488 87.85 72.2088 90.31 70.4688 91.62Z" fill="#8F80BB" stroke="black" stroke-miterlimit="10" stroke-linecap="round" stroke-linejoin="round"/>
<path d="M54.7488 87.82C54.7488 87.82 61.0088 93.84 68.1088 88.48" stroke="black" stroke-miterlimit="10" stroke-linecap="round" stroke-linejoin="round"/>
<path d="M0.808779 77.65C2.09878 79.52 9.63878 76.24 9.96878 76.1C9.78878 76.44 6.32878 82.83 7.85878 84.15C9.12878 85.21 13.8088 81.58 14.0588 81.38C13.9088 81.67 10.2988 88.63 11.9488 90.07C13.3588 91.31 19.0088 87.4 19.0088 87.4C19.0088 87.4 17.4388 93.02 19.1188 93.75C22.0388 95.03 24.6488 92.01 25.2188 90.23C25.5588 89.12 25.9288 87.33 26.2188 85.58C26.4588 84.09 26.6488 82.63 26.7488 81.63C27.5488 73.57 28.7588 49.28 28.7588 49.28C28.7588 49.28 58.9688 50.41 65.4588 36.58C65.4588 36.58 75.7188 46.4 84.8488 47.23C87.7888 47.49 90.5988 46.83 92.9288 44.61C95.5788 42.07 99.9588 36.08 97.9288 33.47C96.9088 32.15 91.5788 34.87 91.2988 35.01C91.3988 34.76 93.4188 29.49 92.1388 28.52C90.4488 27.23 84.3888 31.69 84.0988 31.9C84.2288 31.57 86.9588 25.12 85.5088 23.93C83.4288 22.23 76.8988 29.65 76.8988 29.65C76.8988 29.65 65.8188 17.36 48.8288 13.71C46.8488 13.29 44.7988 12.98 42.6688 12.82C34.9488 12.26 26.2888 13.66 17.0788 18.62L14.7888 13.89C17.3088 12.94 19.0888 10.51 19.0888 7.67C19.0888 3.98 16.1088 1 12.4288 1C8.74878 1 5.75878 3.98 5.75878 7.67C5.75878 11.24 8.57878 14.16 12.1188 14.32L11.1588 22.16C11.1588 22.16 8.33878 24.26 6.00878 29.96C5.66878 30.8 5.34878 31.71 5.03878 32.7C4.58878 34.13 4.18878 35.73 3.86878 37.51C3.42878 39.91 3.12878 42.66 3.03878 45.77C2.85878 52.03 3.55878 59.79 5.74878 69.33C5.73878 69.32 -0.571221 75.65 0.808779 77.65Z" fill="#63B44E" stroke="black" stroke-miterlimit="10" stroke-linecap="round" stroke-linejoin="round"/>
<path d="M28.7488 49.27H22.2488" stroke="black" stroke-miterlimit="10" stroke-linecap="round" stroke-linejoin="round"/>
<path d="M21.0988 63.53C21.0988 63.53 18.4288 63.32 17.9588 63.95C17.6388 64.37 18.2688 66.03 18.2688 66.03C18.2688 66.03 16.3788 66.1 16.0388 66.56C15.8488 66.82 15.7988 67.28 15.8188 67.81C13.1188 67.24 10.5288 64.52 9.43882 60.78C8.02882 55.93 9.66882 51.2 13.0788 50.21C16.5088 49.22 20.4188 52.33 21.8288 57.17C21.8888 57.39 21.9488 57.6 21.9988 57.82C21.0488 58.39 20.1688 59.03 19.9588 59.59C19.5988 60.55 21.0988 63.53 21.0988 63.53Z" fill="#A6C721" stroke="black" stroke-miterlimit="10" stroke-linecap="round" stroke-linejoin="round"/>
<path d="M12.9489 59.59C12.9489 59.59 12.8489 55.46 16.6189 55.46" stroke="black" stroke-miterlimit="10" stroke-linecap="round" stroke-linejoin="round"/>
<path d="M14.0789 56.44C14.0789 56.44 16.1089 57.6 15.8089 59.97" stroke="black" stroke-miterlimit="10" stroke-linecap="round" stroke-linejoin="round"/>
<path d="M46.2988 60.32L47.0588 64.38" stroke="black" stroke-miterlimit="10" stroke-linecap="round" stroke-linejoin="round"/>
<path d="M42.4188 62.35L45.7288 65.56" stroke="black" stroke-miterlimit="10" stroke-linecap="round" stroke-linejoin="round"/>
<path d="M40.0488 65.9L44.5888 67.86" stroke="black" stroke-miterlimit="10" stroke-linecap="round" stroke-linejoin="round"/>
<path d="M78.6288 47.85L80.6388 43.96" stroke="black" stroke-miterlimit="10" stroke-linecap="round" stroke-linejoin="round"/>
<path d="M80.0388 49.28L84.0688 47.88" stroke="black" stroke-miterlimit="10" stroke-linecap="round" stroke-linejoin="round"/>
<path d="M76.4988 47.04L76.8888 43.11" stroke="black" stroke-miterlimit="10" stroke-linecap="round" stroke-linejoin="round"/>
<path d="M78.2688 65.51L78.9988 61.83" stroke="black" stroke-miterlimit="10" stroke-linecap="round" stroke-linejoin="round"/>
<path d="M79.6888 66.75L82.0588 63.63" stroke="black" stroke-miterlimit="10" stroke-linecap="round" stroke-linejoin="round"/>
<path d="M80.5889 67.92L83.5389 66.43" stroke="black" stroke-miterlimit="10" stroke-linecap="round" stroke-linejoin="round"/>
<path d="M44.5489 50.05L42.3188 48.47" stroke="black" stroke-miterlimit="10" stroke-linecap="round" stroke-linejoin="round"/>
<path d="M44.0788 52.02L40.8588 50.94" stroke="black" stroke-miterlimit="10" stroke-linecap="round" stroke-linejoin="round"/>
<path d="M24.7788 56.44C24.7788 56.44 20.4488 58.24 19.9488 59.59C19.5888 60.55 21.0988 63.53 21.0988 63.53C21.0988 63.53 18.4288 63.32 17.9588 63.95C17.6488 64.37 18.2688 66.02 18.2688 66.02C18.2688 66.02 16.3788 66.09 16.0488 66.56C15.3688 67.51 16.4288 71.21 16.4288 71.21" fill="#5EB673"/>
<path d="M24.7788 56.44C24.7788 56.44 20.4488 58.24 19.9488 59.59C19.5888 60.55 21.0988 63.53 21.0988 63.53C21.0988 63.53 18.4288 63.32 17.9588 63.95C17.6488 64.37 18.2688 66.02 18.2688 66.02C18.2688 66.02 16.3788 66.09 16.0488 66.56C15.3688 67.51 16.4288 71.21 16.4288 71.21" stroke="black" stroke-miterlimit="10" stroke-linecap="round" stroke-linejoin="round"/>
</svg>
