<svg width="299" height="337" viewBox="0 0 299 337" fill="none" xmlns="http://www.w3.org/2000/svg">
<path opacity="0.33" d="M296.6 276.597C297.925 265.739 264.441 252.718 221.809 247.512C179.178 242.307 143.544 246.889 142.218 257.746C140.893 268.603 174.377 281.625 217.009 286.83C259.64 292.036 295.274 287.454 296.6 276.597Z" fill="black" fill-opacity="0.5"/>
<path d="M238.944 280.887C238.874 280.887 238.812 280.878 238.751 280.861L165.062 263.835C164.615 263.73 164.325 263.309 164.387 262.853L172.128 209.083C172.163 208.846 172.286 208.636 172.479 208.495L179.58 203.323L181.956 186.516C182 186.183 182.228 185.911 182.544 185.806L197.378 180.861C197.466 180.835 197.562 180.817 197.659 180.817C197.702 180.817 197.746 180.817 197.79 180.826L270.375 191.689C270.831 191.759 271.155 192.162 271.12 192.627L269.84 209.118L269.831 209.346L276.328 210.845C276.757 210.942 277.047 211.354 277.003 211.792L271.076 266.526C271.041 266.842 270.839 267.114 270.55 267.236L239.295 280.799C239.181 280.87 239.067 280.887 238.944 280.887Z" fill="black" fill-opacity="0.5"/>
<path d="M197.659 181.711L270.243 192.574L268.963 209.065L268.919 210.047L276.126 211.713L270.199 266.447L238.944 280.01L165.255 262.993L172.996 209.223L180.141 204.024L180.369 204.068L182.833 186.656L197.659 181.711ZM197.659 179.958C197.474 179.958 197.282 179.984 197.106 180.045L182.272 184.99C181.641 185.201 181.185 185.753 181.088 186.41L178.765 202.849L171.962 207.803C171.576 208.083 171.322 208.504 171.26 208.969L163.519 262.739C163.387 263.642 163.975 264.492 164.86 264.694L238.549 281.711C238.681 281.738 238.812 281.755 238.944 281.755C239.181 281.755 239.417 281.702 239.645 281.606L270.901 268.043C271.479 267.789 271.883 267.254 271.944 266.623L277.871 211.888C277.967 211.003 277.389 210.187 276.521 209.995L270.752 208.662L271.997 192.697C272.067 191.776 271.418 190.961 270.506 190.829L197.922 179.966C197.834 179.966 197.746 179.958 197.659 179.958Z" fill="black" fill-opacity="0.5"/>
<path d="M238.944 280.01L270.199 266.456L276.126 211.722L245.773 222.576L238.944 280.01Z" fill="#4F4131" stroke="black" stroke-miterlimit="10" stroke-linecap="round" stroke-linejoin="round"/>
<path d="M165.254 262.993L238.943 280.01L245.773 222.576L172.996 209.214L165.254 262.993Z" fill="#4F4131" stroke="black" stroke-miterlimit="10" stroke-linecap="round" stroke-linejoin="round"/>
<path d="M172.996 209.214L245.773 222.576L276.126 211.722L268.919 210.056L268.893 210.722L248.754 218.078L180.141 204.024L172.996 209.214Z" fill="#4F4131" stroke="black" stroke-miterlimit="10" stroke-linecap="round" stroke-linejoin="round"/>
<path d="M248.754 218.078L268.893 210.722L268.963 209.074L270.243 192.574L251.604 197.773L250.411 206.269L248.754 218.078Z" fill="#4F4131" stroke="black" stroke-miterlimit="10" stroke-linecap="round" stroke-linejoin="round"/>
<path d="M180.238 204.98L248.754 218.078L250.411 206.268L251.604 197.773L182.833 186.656L180.238 204.98Z" fill="#4A4246" stroke="black" stroke-miterlimit="10" stroke-linecap="round" stroke-linejoin="round"/>
<path d="M182.833 186.656L251.604 197.773L270.243 192.574L197.658 181.711L182.833 186.656Z" fill="white" stroke="black" stroke-miterlimit="10" stroke-linecap="round" stroke-linejoin="round"/>
<path d="M182.833 186.656L251.604 197.773L270.243 192.574L197.658 181.711L182.833 186.656Z" fill="#4F4131" stroke="black" stroke-miterlimit="10" stroke-linecap="round" stroke-linejoin="round"/>
<path d="M247.492 201.701L245.554 214.755L184.314 202.735L186.024 191.311L247.492 201.701Z" fill="#F7AD39" stroke="black" stroke-miterlimit="10" stroke-linecap="round" stroke-linejoin="round"/>
<path d="M240.688 210.714L241.889 210.819C243.459 210.959 244.87 209.574 245.037 207.706C245.203 205.856 244.064 204.234 242.494 204.085L241.293 203.98C242.871 204.121 244.011 205.742 243.844 207.601C243.669 209.469 242.258 210.854 240.688 210.714Z" fill="#8F80BB" stroke="black" stroke-miterlimit="10" stroke-linecap="round" stroke-linejoin="round"/>
<path d="M238.146 207.093C237.979 208.951 239.119 210.573 240.688 210.713C242.266 210.854 243.678 209.469 243.845 207.61C244.011 205.76 242.871 204.138 241.293 203.989C239.724 203.849 238.312 205.243 238.146 207.093Z" fill="#8F80BB" stroke="black" stroke-miterlimit="10" stroke-linecap="round" stroke-linejoin="round"/>
<path d="M232.026 209.056L233.227 209.162C234.797 209.302 236.208 207.917 236.375 206.049C236.541 204.199 235.402 202.577 233.832 202.428L232.631 202.323C234.209 202.463 235.349 204.085 235.182 205.944C235.016 207.811 233.595 209.206 232.026 209.056Z" fill="#8F80BB" stroke="black" stroke-miterlimit="10" stroke-linecap="round" stroke-linejoin="round"/>
<path d="M229.483 205.436C229.317 207.294 230.457 208.916 232.026 209.057C233.604 209.197 235.016 207.812 235.182 205.953C235.349 204.103 234.209 202.481 232.631 202.332C231.062 202.192 229.65 203.586 229.483 205.436Z" fill="#8F80BB" stroke="black" stroke-miterlimit="10" stroke-linecap="round" stroke-linejoin="round"/>
<path d="M223.364 207.408L224.565 207.513C226.134 207.654 227.546 206.268 227.713 204.401C227.879 202.551 226.739 200.929 225.17 200.78L223.969 200.675C225.547 200.815 226.687 202.437 226.52 204.296C226.354 206.154 224.942 207.548 223.364 207.408Z" fill="#8F80BB" stroke="black" stroke-miterlimit="10" stroke-linecap="round" stroke-linejoin="round"/>
<path d="M220.822 203.787C220.655 205.646 221.795 207.268 223.364 207.408C224.942 207.549 226.354 206.163 226.52 204.305C226.687 202.455 225.547 200.833 223.969 200.684C222.4 200.543 220.988 201.929 220.822 203.787Z" fill="#8F80BB" stroke="black" stroke-miterlimit="10" stroke-linecap="round" stroke-linejoin="round"/>
<path d="M214.702 205.751L215.903 205.856C217.472 205.997 218.884 204.611 219.051 202.744C219.217 200.894 218.077 199.272 216.508 199.123L215.307 199.018C216.885 199.158 218.025 200.78 217.858 202.639C217.692 204.506 216.28 205.892 214.702 205.751Z" fill="#8F80BB" stroke="black" stroke-miterlimit="10" stroke-linecap="round" stroke-linejoin="round"/>
<path d="M212.159 202.13C211.993 203.989 213.133 205.611 214.702 205.751C216.28 205.891 217.692 204.506 217.858 202.648C218.025 200.798 216.885 199.176 215.307 199.027C213.738 198.886 212.326 200.28 212.159 202.13Z" fill="#8F80BB" stroke="black" stroke-miterlimit="10" stroke-linecap="round" stroke-linejoin="round"/>
<path d="M206.04 204.103L207.241 204.208C208.81 204.348 210.222 202.963 210.388 201.096C210.555 199.246 209.415 197.624 207.846 197.475L206.645 197.37C208.223 197.51 209.363 199.132 209.196 200.991C209.029 202.849 207.618 204.243 206.04 204.103Z" fill="#8F80BB" stroke="black" stroke-miterlimit="10" stroke-linecap="round" stroke-linejoin="round"/>
<path d="M203.497 200.473C203.331 202.332 204.471 203.954 206.04 204.094C207.618 204.235 209.03 202.849 209.196 200.991C209.363 199.141 208.223 197.519 206.645 197.37C205.084 197.229 203.664 198.623 203.497 200.473Z" fill="#8F80BB" stroke="black" stroke-miterlimit="10" stroke-linecap="round" stroke-linejoin="round"/>
<path d="M197.378 202.446L198.579 202.551C200.148 202.691 201.56 201.306 201.726 199.439C201.893 197.589 200.753 195.967 199.184 195.818L197.983 195.713C199.561 195.853 200.7 197.475 200.534 199.334C200.367 201.192 198.956 202.586 197.378 202.446Z" fill="#8F80BB" stroke="black" stroke-miterlimit="10" stroke-linecap="round" stroke-linejoin="round"/>
<path d="M194.835 198.825C194.668 200.684 195.808 202.306 197.378 202.446C198.956 202.586 200.367 201.201 200.534 199.342C200.7 197.492 199.561 195.87 197.983 195.721C196.422 195.581 195.002 196.966 194.835 198.825Z" fill="#8F80BB" stroke="black" stroke-miterlimit="10" stroke-linecap="round" stroke-linejoin="round"/>
<path d="M188.716 200.789L189.917 200.894C191.486 201.034 192.898 199.649 193.064 197.782C193.231 195.932 192.091 194.31 190.522 194.161L189.321 194.056C190.899 194.196 192.038 195.818 191.872 197.677C191.705 199.544 190.294 200.929 188.716 200.789Z" fill="#8F80BB" stroke="black" stroke-miterlimit="10" stroke-linecap="round" stroke-linejoin="round"/>
<path d="M186.182 197.168C186.015 199.027 187.155 200.649 188.724 200.789C190.303 200.929 191.714 199.544 191.881 197.685C192.047 195.835 190.908 194.213 189.329 194.064C187.76 193.924 186.349 195.318 186.182 197.168Z" fill="#8F80BB" stroke="black" stroke-miterlimit="10" stroke-linecap="round" stroke-linejoin="round"/>
<path d="M272.277 216.158L266.955 263.896L242.31 274.241L248.614 225.109L272.277 216.158Z" fill="#2D241C" stroke="black" stroke-miterlimit="10" stroke-linecap="round" stroke-linejoin="round"/>
<path d="M239.496 229.256L233.955 270.059C233.718 271.787 232.035 272.926 230.343 272.497L170.927 259.433C169.506 259.074 168.577 257.724 168.744 256.268L174.416 217.456C174.609 215.737 176.248 214.571 177.932 214.931L237.208 226.004C238.716 226.328 239.706 227.748 239.496 229.256Z" fill="#775755" stroke="black" stroke-miterlimit="10" stroke-linecap="round" stroke-linejoin="round"/>
<path d="M264.557 196.616C263.619 196.616 262.847 197.352 262.803 198.299L262.777 198.965C262.733 199.93 263.487 200.754 264.452 200.789C264.478 200.789 264.504 200.789 264.522 200.789C265.46 200.789 266.231 200.053 266.275 199.106L266.301 198.439C266.345 197.475 265.591 196.651 264.627 196.616C264.609 196.616 264.583 196.616 264.557 196.616Z" fill="black"/>
<path d="M273.499 141.329C273.684 141.329 273.85 141.469 273.859 141.662C273.876 141.829 273.762 141.969 273.613 142.022C270.545 142.986 267.994 144.95 266.021 147.291C264.066 149.658 262.61 152.384 261.795 155.278C261.357 156.707 261.059 158.18 260.918 159.661C260.822 160.398 260.813 161.143 260.778 161.879C260.769 162.248 260.796 162.633 260.804 162.993C260.813 163.361 260.813 163.738 260.848 164.106C260.91 165.588 261.181 167.052 261.479 168.508C261.839 169.954 262.26 171.374 262.803 172.768C263.847 175.565 265.276 178.239 266.985 180.756C267.836 182.009 268.721 183.254 269.694 184.438L271.246 186.402C271.807 187.086 272.281 187.848 272.798 188.576C274.788 191.557 276.349 194.853 277.418 198.308C277.927 200.052 278.313 201.832 278.567 203.629C278.795 205.436 278.9 207.25 278.839 209.065C278.611 216.325 275.963 223.584 270.896 228.949C269.624 230.282 268.222 231.483 266.67 232.518C265.907 233.044 265.092 233.5 264.267 233.921C263.838 234.122 263.443 234.333 262.987 234.517C262.514 234.683 262.058 234.885 261.567 235.025C260.471 235.358 259.279 235.551 258.069 235.551C257.631 235.551 257.192 235.525 256.754 235.472C254.58 237.901 252.02 240.066 249.021 241.566C247.285 242.381 245.435 242.951 243.533 243.17C242.945 243.24 242.358 243.275 241.771 243.275C240.455 243.275 239.14 243.1 237.878 242.802C234.213 241.908 230.978 239.988 228.19 237.69C225.393 235.367 222.956 232.711 220.887 229.747C220.782 229.589 220.817 229.379 220.974 229.265C221.036 229.221 221.106 229.204 221.176 229.204C221.281 229.204 221.378 229.248 221.448 229.326L221.465 229.344C223.648 232.079 226.217 234.561 229.032 236.612C231.837 238.646 234.976 240.286 238.29 240.891C239.193 241.057 240.105 241.154 241.017 241.154C241.762 241.154 242.507 241.092 243.235 240.961C244.857 240.68 246.408 240.11 247.864 239.339C250.003 238.12 251.897 236.472 253.563 234.578C252.204 233.956 251.002 233.053 250.012 232.053C248.618 230.606 247.583 228.941 246.856 227.17C246.154 225.381 245.707 223.496 245.768 221.462C245.803 220.445 245.935 219.393 246.356 218.332C246.759 217.271 247.443 216.193 248.469 215.413C248.732 215.229 248.986 215.036 249.267 214.887C249.547 214.755 249.828 214.624 250.117 214.501C250.696 214.334 251.283 214.177 251.844 214.15C252.072 214.124 252.274 214.115 252.467 214.115C252.782 214.115 253.072 214.141 253.378 214.141C253.869 214.177 254.387 214.255 254.895 214.352C255.912 214.58 256.991 215.018 257.911 215.728C258.849 216.438 259.551 217.429 259.963 218.42C260.796 220.428 260.804 222.365 260.655 224.154C260.489 225.951 260.103 227.643 259.621 229.291C259.524 229.589 259.437 229.896 259.331 230.194C259.551 230.142 259.761 230.08 259.963 230.01C260.261 229.914 260.541 229.765 260.839 229.651C261.138 229.519 261.471 229.335 261.778 229.177C262.391 228.827 262.996 228.458 263.566 228.029C264.715 227.205 265.775 226.232 266.705 225.144C267.801 223.882 268.712 222.462 269.484 220.962L271.395 203.323C271.167 202.358 270.913 201.403 270.606 200.456C270.466 200.061 270.326 199.675 270.177 199.29C270.106 199.106 270.036 198.93 269.966 198.746C270.036 198.921 270.106 199.106 270.177 199.29C270.229 199.421 270.273 199.553 270.326 199.693L264.548 198.36L264.592 197.378L265.144 190.259L265.486 190.715C265.942 191.311 266.328 191.934 266.757 192.548C267.161 193.17 267.546 193.801 267.906 194.45C267.923 194.485 267.95 194.52 267.967 194.555C268.309 195.16 268.634 195.783 268.932 196.414C269.028 196.607 269.125 196.8 269.221 196.993C269.361 197.299 269.502 197.598 269.633 197.913C269.502 197.606 269.37 197.299 269.221 196.993C269.133 196.8 269.037 196.607 268.932 196.414C268.634 195.783 268.309 195.169 267.967 194.555C267.95 194.52 267.923 194.485 267.906 194.45C267.546 193.81 267.161 193.17 266.757 192.548C266.328 191.934 265.942 191.311 265.486 190.715L264.066 188.778C263.549 188.076 263.014 187.392 262.54 186.647C262.067 185.911 261.55 185.209 261.129 184.429C259.34 181.413 257.867 178.169 256.824 174.759C255.807 171.348 255.325 167.745 255.43 164.159C255.483 162.37 255.728 160.582 256.123 158.837C256.517 157.093 257.069 155.383 257.806 153.77C259.279 150.526 261.392 147.589 264.101 145.353C266.757 143.1 270.071 141.539 273.473 141.329C273.491 141.329 273.499 141.329 273.499 141.329ZM255.939 230.124C256.552 228.064 256.964 225.942 257.078 223.926C257.148 222.462 256.982 221.024 256.491 220.016C256.009 218.999 255.255 218.569 254.097 218.332C253.799 218.297 253.501 218.253 253.177 218.253C252.87 218.271 252.484 218.245 252.274 218.297C251.757 218.359 251.388 218.525 251.125 218.771C250.608 219.209 250.222 220.252 250.275 221.515C250.336 224.031 251.625 226.828 253.466 228.581C254.22 229.283 255.053 229.826 255.939 230.124ZM269.957 220.042C269.914 220.13 269.87 220.226 269.826 220.314C269.87 220.226 269.914 220.138 269.957 220.042ZM273.499 139.575C273.473 139.575 273.438 139.575 273.412 139.575C269.782 139.795 266.091 141.373 262.979 144.012C260.199 146.309 257.85 149.439 256.219 153.042C255.465 154.69 254.869 156.514 254.431 158.443C254.001 160.328 253.747 162.23 253.694 164.098C253.58 167.868 254.071 171.62 255.158 175.258C256.193 178.669 257.692 182.044 259.612 185.288C259.936 185.893 260.296 186.437 260.647 186.954C260.787 187.164 260.927 187.375 261.067 187.594C261.462 188.217 261.883 188.786 262.295 189.33L262.654 189.812L263.356 190.759L262.856 197.229C262.856 197.247 262.856 197.273 262.856 197.291L262.812 198.273C262.777 199.114 263.347 199.868 264.171 200.052L269.011 201.175C269.23 201.876 269.44 202.621 269.633 203.437L267.792 220.445C267.073 221.787 266.266 222.979 265.39 223.996C264.548 224.969 263.601 225.846 262.549 226.609C262.382 226.731 262.207 226.854 262.023 226.977C262.207 226.056 262.339 225.179 262.418 224.303C262.575 222.4 262.593 220.156 261.593 217.736C261.032 216.386 260.112 215.176 258.99 214.317C257.955 213.519 256.666 212.923 255.29 212.625C255.272 212.616 255.246 212.616 255.228 212.616C254.685 212.52 254.097 212.423 253.51 212.379C253.484 212.379 253.457 212.379 253.422 212.379C253.3 212.379 253.186 212.37 253.063 212.37C252.87 212.362 252.677 212.353 252.475 212.353C252.212 212.353 251.958 212.362 251.713 212.397C250.959 212.441 250.249 212.633 249.635 212.809C249.565 212.826 249.495 212.853 249.433 212.879C249.126 213.01 248.828 213.151 248.53 213.291C248.504 213.3 248.486 213.317 248.46 213.326C248.127 213.501 247.846 213.703 247.601 213.878L247.469 213.966C247.452 213.975 247.434 213.992 247.417 214.01C245.917 215.158 245.128 216.649 244.734 217.701C244.182 219.121 244.068 220.489 244.032 221.392C243.98 223.505 244.374 225.6 245.242 227.81C246.093 229.896 247.276 231.72 248.767 233.263C249.407 233.903 250.073 234.473 250.775 234.964C249.573 236.104 248.32 237.059 247.031 237.796C245.672 238.515 244.304 238.997 242.954 239.225C242.332 239.339 241.683 239.391 241.034 239.391C240.254 239.391 239.447 239.312 238.632 239.163C235.914 238.672 233.038 237.331 230.084 235.192C227.401 233.237 224.972 230.905 222.859 228.257C222.824 228.213 222.789 228.169 222.745 228.125C222.351 227.696 221.79 227.45 221.202 227.45C220.773 227.45 220.352 227.582 219.993 227.836C219.046 228.502 218.809 229.809 219.475 230.756C221.65 233.859 224.218 236.647 227.094 239.041C230.452 241.811 233.95 243.652 237.492 244.511C238.93 244.862 240.377 245.037 241.797 245.037C242.463 245.037 243.129 244.994 243.769 244.915C245.76 244.687 247.785 244.099 249.784 243.161C249.801 243.153 249.81 243.144 249.828 243.144C252.537 241.785 255.106 239.821 257.482 237.296C257.683 237.305 257.885 237.313 258.078 237.313C259.437 237.313 260.787 237.112 262.093 236.709C262.461 236.603 262.838 236.463 263.163 236.332C263.303 236.279 263.452 236.218 263.592 236.165C263.619 236.156 263.636 236.147 263.663 236.139C264.04 235.99 264.355 235.832 264.671 235.674C264.785 235.613 264.907 235.56 265.03 235.499C265.048 235.49 265.056 235.49 265.074 235.481C266.074 234.973 266.933 234.482 267.687 233.964C269.265 232.912 270.79 231.632 272.184 230.159C277.366 224.671 280.356 217.201 280.619 209.118C280.68 207.277 280.583 205.348 280.338 203.402C280.084 201.534 279.68 199.658 279.137 197.808C278.006 194.152 276.384 190.724 274.297 187.594C274.289 187.576 274.28 187.568 274.271 187.55C274.113 187.322 273.955 187.094 273.798 186.866C273.438 186.34 273.07 185.797 272.64 185.279L271.115 183.342C270.098 182.106 269.212 180.843 268.485 179.765C266.801 177.284 265.46 174.724 264.495 172.155C264.013 170.919 263.61 169.603 263.242 168.113C262.926 166.579 262.698 165.299 262.646 164.027C262.646 163.992 262.646 163.957 262.637 163.922C262.61 163.686 262.61 163.423 262.602 163.142V162.949C262.602 162.818 262.593 162.695 262.593 162.563C262.584 162.344 262.575 162.125 262.584 161.906L262.602 161.485C262.619 160.924 262.637 160.389 262.707 159.889C262.707 159.863 262.716 159.837 262.716 159.819C262.847 158.46 263.11 157.101 263.522 155.786C263.522 155.769 263.531 155.76 263.531 155.742C264.267 153.13 265.609 150.587 267.415 148.404C269.353 146.107 271.702 144.468 274.183 143.687C275.104 143.416 275.726 142.512 275.656 141.548C275.542 140.443 274.622 139.575 273.499 139.575ZM252.616 220.024C252.686 220.016 252.773 220.024 252.861 220.024C252.975 220.024 253.089 220.024 253.203 220.016C253.343 220.016 253.501 220.033 253.685 220.059L253.817 220.077C254.597 220.244 254.746 220.454 254.904 220.77C255.237 221.445 255.386 222.558 255.325 223.847C255.263 224.978 255.097 226.188 254.816 227.459C254.764 227.406 254.702 227.363 254.65 227.31C253.142 225.881 252.081 223.531 252.028 221.497C251.993 220.638 252.23 220.182 252.291 220.103C252.318 220.094 252.37 220.077 252.475 220.068C252.528 220.042 252.572 220.033 252.616 220.024Z" fill="black"/>
<path d="M81.0391 131.133C79.2857 124.075 76.0418 117.14 70.9655 111.441C68.4756 108.574 65.5385 106.067 62.4086 103.901C59.2787 101.736 55.9208 100 52.633 98.3956C49.354 96.8262 46.1014 95.3971 43.3046 93.7927C41.9281 92.9686 40.6656 92.1269 39.6399 91.1625C38.6141 90.1981 37.7549 89.1723 37.1675 87.9274C36.5538 86.7 36.1592 85.3673 35.8612 83.7278C35.6069 82.1673 35.4579 80.5891 35.5017 79.0198C35.5894 76.6438 36.0803 74.303 37.0009 72.1374C37.3604 72.2777 37.7286 72.4005 38.1056 72.4969C40.1133 73.0668 42.2876 73.2158 44.4443 72.7599C46.5748 72.3303 48.828 71.2081 50.3097 69.0689C51.0374 68.008 51.4845 66.7192 51.5985 65.4392L51.6336 64.4923C51.6073 64.1592 51.5722 63.8173 51.5284 63.4753C51.4845 63.1422 51.353 62.7652 51.239 62.4057C51.1338 62.055 50.8971 61.678 50.7042 61.3273C50.485 60.9767 50.1782 60.6435 49.8889 60.3366C49.5557 60.0824 49.205 59.7843 48.8543 59.6002C48.1178 59.2144 47.3639 59.004 46.6625 58.9251C45.2597 58.7761 44.0498 59.004 42.9539 59.3372C40.7884 60.0385 38.9736 61.1695 37.3954 62.5197C36.1856 63.5455 35.1159 64.694 34.169 65.9389C33.871 66.3247 33.5992 66.728 33.3274 67.1313C32.8978 67.7801 32.5033 68.4464 32.1438 69.1303C30.6008 72.0585 29.6802 75.3024 29.347 78.5814C29.1629 80.5979 29.198 82.6319 29.3996 84.6221C29.6013 86.5421 30.0397 88.7427 30.8989 90.7855C31.7581 92.8546 33.117 94.7396 34.66 96.2826C36.2206 97.8081 37.9215 99.0356 39.6399 100.044C41.3758 101.035 43.0766 101.859 44.7775 102.621L49.7661 104.734C53.0276 106.093 56.1838 107.47 59.1471 109.118C62.1193 110.766 64.9073 112.686 67.4936 114.896C70.0888 117.114 72.4121 119.674 74.5338 122.444C76.6642 125.232 78.5843 128.24 80.3816 131.369C80.4605 131.501 80.6095 131.58 80.7674 131.536C80.9778 131.501 81.0917 131.317 81.0391 131.133ZM40.9287 66.5351C42.0246 65.4918 43.3222 64.6589 44.5496 64.1943C45.1721 63.9575 45.7595 63.8699 46.154 63.8962C46.3556 63.8962 46.4696 63.94 46.5397 63.9575C46.5748 63.9663 46.5748 63.9926 46.6099 63.9838C46.6099 64.0189 46.6362 64.0014 46.6537 64.0189C46.7326 64.0978 46.8992 64.5186 46.8729 65.1061C46.8378 65.6233 46.7063 66.088 46.4433 66.5264C45.9348 67.4119 44.8213 68.1922 43.4624 68.5253C42.1122 68.8935 40.5867 68.8935 39.1314 68.5604C39.1226 68.5604 39.1051 68.5516 39.0963 68.5516C39.6574 67.8239 40.2711 67.1488 40.9287 66.5351Z" fill="#E9408F" stroke="black" stroke-miterlimit="10" stroke-linecap="round" stroke-linejoin="round"/>
<path d="M38.956 26.4947C38.9736 27.4153 38.921 28.3359 38.7982 29.2477C38.5703 31.08 38.1319 32.8861 37.5094 34.622C36.8606 36.3492 36.0891 38.0325 35.1598 39.6282C34.7302 40.4435 34.1866 41.1888 33.6957 41.9778C33.2047 42.723 32.7137 43.4507 32.2754 44.1959C30.4693 47.1768 29.2682 50.4207 29.2594 53.7348C29.2419 55.383 29.4873 57.0225 29.952 58.6357C30.4079 60.2489 31.0479 61.7744 31.8983 63.1509C32.5384 64.1854 33.3099 65.1411 34.1778 65.9477C33.8798 66.3334 33.608 66.7367 33.3362 67.14C32.9066 67.7888 32.5121 68.4551 32.1526 69.139C30.8112 67.9115 29.724 66.4474 28.8824 64.8956C27.9355 63.1509 27.3043 61.2747 26.8922 59.3985C26.4801 57.5223 26.3048 55.5496 26.4538 53.612C26.7081 49.6931 28.3739 46.0634 30.478 43.0387C30.9953 42.2759 31.5564 41.5395 32.1 40.8205C32.5997 40.1104 33.1608 39.4178 33.6255 38.6813C34.6074 37.2347 35.4228 35.6829 36.1505 34.0872C36.8519 32.4828 37.3867 30.8083 37.7374 29.0899C37.904 28.2219 38.0179 27.3539 38.0705 26.486C38.1231 25.6092 38.1056 24.715 37.9829 23.8821L37.9741 23.847C37.939 23.6629 38.0705 23.4875 38.2722 23.4525C38.4475 23.4174 38.6229 23.5489 38.658 23.7155C38.8684 24.6536 38.9385 25.5654 38.956 26.4947Z" fill="#E9408F" stroke="black" stroke-miterlimit="10" stroke-linecap="round" stroke-linejoin="round"/>
<path d="M39.1314 68.5603C39.1314 68.5603 37.6498 70.3839 37.0098 72.1286" stroke="#010202" stroke-miterlimit="10" stroke-linecap="round" stroke-linejoin="round"/>
<path d="M108.718 126.311H90.3501V160.407H108.718V126.311Z" fill="#685461" stroke="black" stroke-miterlimit="10" stroke-linecap="round" stroke-linejoin="round"/>
<path d="M158.165 66.4649C160.524 67.0523 162.347 68.762 163.513 70.7872C164.688 72.8388 165.135 75.1621 165.346 77.4504C165.618 82.062 164.715 86.5859 163.557 90.952C162.891 93.1 162.216 95.3094 161.541 97.3697C161.208 98.4218 160.918 99.4826 160.603 100.543L159.744 103.744C158.648 108.031 157.718 112.362 156.885 116.719C155.193 125.416 153.966 134.201 153.107 143.004C152.265 151.806 151.765 160.643 151.888 169.437C151.941 171.638 151.976 173.838 152.116 176.021C152.204 178.213 152.396 180.396 152.572 182.579C153.001 186.928 153.563 191.259 154.439 195.494C155.228 199.754 156.289 203.919 157.578 207.969C158.832 212.037 160.445 215.939 162.435 219.577C164.381 223.242 166.784 226.644 169.765 229.414C172.737 232.29 176.147 234.789 179.873 236.367C181.732 237.191 183.705 237.664 185.712 238.006C187.729 238.252 189.798 238.252 191.867 237.954C193.936 237.638 195.988 237.042 198.013 236.27C200.012 235.446 201.967 234.429 203.896 233.307H203.904C204.071 233.211 204.29 233.263 204.387 233.43C204.474 233.57 204.439 233.754 204.325 233.859C202.695 235.429 200.906 236.849 198.96 238.103C196.996 239.321 194.857 240.303 192.595 241.057C190.306 241.741 187.904 242.074 185.458 242.118C184.248 242.048 183.012 242.039 181.82 241.794C181.223 241.68 180.601 241.618 180.014 241.461L178.251 240.987C177.655 240.847 177.094 240.619 176.524 240.408L174.815 239.76L173.193 238.962C172.658 238.69 172.097 238.436 171.597 238.111C169.519 236.893 167.555 235.569 165.705 234.035C161.918 230.984 158.902 227.117 156.412 223.075L155.491 221.541C155.202 221.024 154.957 220.489 154.685 219.963C154.167 218.902 153.58 217.859 153.133 216.772C152.677 215.693 152.247 214.597 151.809 213.502C151.388 212.406 151.055 211.292 150.678 210.188C150.494 209.635 150.31 209.083 150.143 208.522L149.705 206.838C149.424 205.716 149.1 204.594 148.863 203.463C148.407 201.201 147.943 198.939 147.645 196.66C146.97 192.109 146.636 187.559 146.417 183.009C146.329 180.738 146.233 178.467 146.251 176.205C146.216 173.935 146.268 171.673 146.321 169.42C146.514 160.38 147.347 151.394 148.513 142.478C149.775 133.57 151.397 124.732 153.484 115.991C154.544 111.625 155.702 107.286 157.034 102.99L158.069 99.772C158.446 98.7111 158.797 97.6415 159.191 96.5806C160.015 94.4414 160.743 92.4074 161.506 90.3383C162.847 86.1738 163.908 81.8691 163.873 77.538C163.803 75.3988 163.513 73.2245 162.558 71.322C162.058 70.3927 161.488 69.4809 160.69 68.7795C159.936 68.0606 158.99 67.4644 158.025 67.1751L157.973 67.1575C157.788 67.1049 157.683 66.9121 157.745 66.7279C157.806 66.5263 157.99 66.4211 158.165 66.4649Z" fill="#E9408F" stroke="black" stroke-miterlimit="10" stroke-linecap="round" stroke-linejoin="round"/>
<path d="M99.5908 199.86C100.836 201.657 102.3 203.331 103.834 204.883C105.368 206.453 107.017 207.89 108.753 209.197C112.216 211.809 116.038 213.896 120.08 215.194C122.097 215.842 124.166 216.307 126.243 216.588C128.33 216.868 130.434 216.903 132.521 216.824C133.564 216.745 134.607 216.702 135.642 216.535C136.685 216.421 137.711 216.219 138.737 216.009C139.763 215.816 140.78 215.5 141.797 215.264C142.831 214.939 143.875 214.65 144.892 214.308C149.003 212.984 152.914 211.231 156.666 209.179C158.56 208.18 160.418 207.101 162.391 206.058C164.355 205.015 166.424 203.954 168.782 203.112C169.949 202.691 171.202 202.349 172.465 202.095C173.745 201.885 175.051 201.709 176.34 201.736C178.926 201.727 181.399 202.209 183.669 202.928C188.22 204.41 192.217 206.663 195.917 209.337C196.075 209.451 196.11 209.679 195.996 209.837C195.909 209.951 195.777 210.003 195.646 209.977H195.637C191.174 209.144 186.834 208.118 182.67 207.75C180.592 207.575 178.593 207.566 176.734 207.873C174.876 208.162 173.149 208.732 171.369 209.574C169.589 210.389 167.739 211.441 165.766 212.476C163.803 213.519 161.725 214.51 159.594 215.413C157.455 216.29 155.263 217.087 153.063 217.798C150.853 218.481 148.635 219.13 146.408 219.674C145.295 219.963 144.173 220.191 143.059 220.454C141.893 220.656 140.753 220.919 139.579 221.05C138.412 221.199 137.246 221.348 136.063 221.392C134.888 221.489 133.704 221.462 132.53 221.462C130.171 221.348 127.822 221.112 125.516 220.594C123.219 220.077 120.974 219.367 118.826 218.464C114.539 216.614 110.655 213.992 107.315 210.88C103.983 207.75 101.125 204.199 98.9596 200.21C98.8719 200.044 98.9332 199.833 99.0998 199.737C99.2576 199.649 99.4505 199.702 99.547 199.842L99.5908 199.86Z" fill="#E9408F" stroke="black" stroke-miterlimit="10" stroke-linecap="round" stroke-linejoin="round"/>
<path d="M186.817 98.0798C186.712 96.6683 186.387 95.2217 185.712 93.7751C185.125 92.5213 184.195 91.2851 182.907 90.3909C181.627 89.4791 180.022 89.0232 178.523 89.0319C177.085 88.9969 175.507 89.444 174.218 90.2681C172.929 91.101 171.947 92.2934 171.351 93.5997C170.746 94.906 170.466 96.3351 170.58 97.7817C170.667 99.2196 171.202 100.675 172.079 101.876C172.964 103.077 174.201 103.936 175.446 104.454C176.664 104.953 177.874 105.164 179.04 105.234C178.295 106.777 177.374 108.294 176.375 109.732C175.358 111.213 174.192 112.66 173.008 114.01C171.921 115.29 170.694 116.29 169.352 117.157C166.696 118.876 163.312 119.796 159.498 120.673C157.613 121.138 155.631 121.603 153.641 122.181C151.66 122.777 149.652 123.452 147.723 124.32C143.848 126.048 140.245 128.362 137.159 131.141C130.934 136.665 126.463 143.503 122.973 150.631C122.903 150.771 122.938 150.938 123.07 151.052C123.219 151.175 123.429 151.157 123.561 151.017V151.008C128.681 145.011 134.002 139.242 140.183 135.008C143.269 132.895 146.54 131.22 149.976 130.045C153.431 128.853 157.034 128.187 160.944 127.494C162.891 127.117 164.934 126.714 167.038 126.074C169.124 125.451 171.272 124.522 173.254 123.277C175.235 122.015 176.997 120.41 178.435 118.657C179.794 117.008 181.004 115.316 182.144 113.502C183.897 110.608 185.458 107.47 186.282 103.963C186.501 103.068 186.668 102.148 186.773 101.192C186.861 100.193 186.896 99.1494 186.817 98.0798ZM179.452 100.386C177.9 100.254 176.717 99.6667 176.2 98.8776C175.665 98.1061 175.63 96.8699 176.147 95.9318C176.384 95.4584 176.743 95.1077 177.12 94.8885C177.506 94.6869 177.9 94.5729 178.426 94.608C178.9 94.643 179.251 94.7745 179.575 95.0376C179.891 95.283 180.18 95.6776 180.399 96.2211C180.846 97.2995 180.908 98.8338 180.645 100.394C180.645 100.403 180.645 100.421 180.636 100.429C180.232 100.429 179.829 100.421 179.452 100.386Z" fill="#E9408F" stroke="black" stroke-miterlimit="10" stroke-linecap="round" stroke-linejoin="round"/>
<path d="M215.048 49.7896C215.057 49.9737 214.916 50.1315 214.741 50.149H214.715C210.857 50.5085 207.008 51.4378 203.44 52.8669C199.872 54.3047 196.54 56.3563 194.111 59.1706C192.893 60.5734 191.92 62.1603 191.245 63.8524C190.569 65.5532 190.21 67.368 190.07 69.2004C189.903 71.0328 190.096 72.909 190.35 74.7326C190.666 76.565 191.139 78.5025 191.551 80.4314C192.367 84.324 193.121 88.3307 192.945 92.6179C192.884 93.6963 192.761 94.7834 192.516 95.8794C192.262 96.984 191.893 98.0887 191.35 99.1759C190.789 100.254 190.026 101.262 189.097 102.113C188.272 102.911 187.282 103.481 186.282 103.945C186.501 103.051 186.668 102.13 186.773 101.175C186.87 100.175 186.905 99.1408 186.817 98.0712C187.08 97.7731 187.308 97.4487 187.527 97.0893C187.904 96.4317 188.202 95.6777 188.43 94.8799C188.649 94.0645 188.79 93.2053 188.886 92.3198C189.219 88.734 188.728 84.8939 188.123 81.0626C187.825 79.1338 187.466 77.2137 187.229 75.1534C187.063 73.0756 186.975 70.9977 187.273 68.9199C187.536 66.842 188.08 64.7817 188.965 62.8617C189.851 60.9591 191.078 59.2057 192.525 57.724C195.444 54.7256 199.144 52.7617 202.931 51.4817C206.754 50.2367 210.699 49.5616 214.697 49.4564C214.89 49.4477 215.048 49.5967 215.048 49.7896Z" fill="#E9408F" stroke="black" stroke-miterlimit="10" stroke-linecap="round" stroke-linejoin="round"/>
<path d="M180.636 100.421C180.636 100.421 180.18 103.095 179.023 105.234" stroke="#010202" stroke-miterlimit="10" stroke-linecap="round" stroke-linejoin="round"/>
<path d="M32.2754 277.468C32.1439 277.538 32.0212 277.599 31.8896 277.661" stroke="black" stroke-miterlimit="10" stroke-linecap="round" stroke-linejoin="round"/>
<path d="M23.0433 255.436L22.8767 255.523C23.0082 255.707 23.131 255.909 23.2274 256.137C23.131 255.909 23.0696 255.672 23.0433 255.436Z" fill="white" stroke="black" stroke-miterlimit="10" stroke-linecap="round" stroke-linejoin="round"/>
<path d="M15.8541 259.109L11.0583 261.634" stroke="black" stroke-miterlimit="10" stroke-linecap="round" stroke-linejoin="round"/>
<path d="M100.626 39.2862C99.3193 39.5229 97.9165 39.8386 96.4436 40.2243C96.2332 40.2769 96.0228 40.3471 95.7948 40.3997C94.5762 40.7416 93.4452 41.1361 92.3843 41.5833C92.2178 39.7947 92.5158 37.3574 95.0058 36.4632C95.1986 36.393 95.3828 36.3404 95.5581 36.3053C98.1006 35.7442 99.8015 37.8659 100.626 39.2862Z" fill="#4A4246" stroke="black" stroke-miterlimit="10" stroke-linecap="round" stroke-linejoin="round"/>
<path d="M122.289 132.895C122.289 132.895 127.436 132.439 128.383 144.95L119.563 144.029L111.129 138.927L122.289 132.895Z" fill="#685461" stroke="black" stroke-miterlimit="10" stroke-linecap="round" stroke-linejoin="round"/>
<path d="M119.563 144.029L118.257 144.95L101.818 156.558L105.412 130.002L120.282 132.158L122.973 132.474C122.973 132.465 118.423 134.263 119.563 144.029Z" fill="#F59C3F" stroke="black" stroke-miterlimit="10" stroke-linecap="round" stroke-linejoin="round"/>
<path d="M119.563 144.029L118.257 144.95C117.371 138.558 119.063 134.28 120.282 132.158L122.973 132.474C122.973 132.465 118.423 134.262 119.563 144.029Z" fill="#F59C3F" stroke="black" stroke-miterlimit="10" stroke-linecap="round" stroke-linejoin="round"/>
<path d="M71.8686 146.475C71.8073 146.563 71.7372 146.651 71.667 146.739C71.4303 147.028 70.7464 147.826 70.0977 148.448V145.485C78.2162 135.332 72.7278 126.407 72.3158 125.75L72.2895 125.714C72.2895 125.714 73.1925 125.671 74.5339 125.618C75.0337 126.6 75.7263 128.248 76.1383 130.379C76.9362 134.464 76.6731 140.303 71.8686 146.475Z" fill="#F59C3F" stroke="black" stroke-miterlimit="10" stroke-linecap="round" stroke-linejoin="round"/>
<path d="M94.5762 162.02L94.2781 161.976L93.8924 161.643C94.8918 136.191 82.6088 133.386 82.6088 133.386C82.451 128.748 83.9152 125.407 84.0028 125.206C85.1864 125.153 85.993 125.118 86.0807 125.118L90.9378 127.608C98.9862 135.35 94.5762 162.02 94.5762 162.02Z" fill="#F59C3F" stroke="black" stroke-miterlimit="10" stroke-linecap="round" stroke-linejoin="round"/>
<path d="M94.2779 161.976L70.0977 158.469V148.439C70.7464 147.826 71.4303 147.019 71.667 146.73C71.7372 146.642 71.8073 146.554 71.8686 146.467C76.6731 140.294 76.9362 134.455 76.1296 130.37C75.7175 128.248 75.0249 126.591 74.5251 125.609C77.1466 125.495 81.4426 125.302 83.9939 125.197C83.9062 125.399 82.442 128.739 82.5999 133.377C82.5999 133.377 94.8829 136.183 93.8834 161.634L94.2779 161.976Z" fill="#F59C3F" stroke="black" stroke-miterlimit="10" stroke-linecap="round" stroke-linejoin="round"/>
<path d="M101.818 156.558L109.349 140.251L110.568 130.747L105.412 130.002L101.818 156.558Z" fill="#F59C3F" stroke="black" stroke-miterlimit="10" stroke-linecap="round" stroke-linejoin="round"/>
<path d="M205.018 200.219C201.423 209.346 197.092 219.428 192.928 228.748C192.577 229.537 192.235 230.326 191.876 231.097C185.844 244.564 180.382 256.067 178.409 260.179H148.293L166.749 223.996L168.87 219.831L178.725 200.508C179.698 200.464 180.689 200.473 181.697 200.561L182.986 200.666L184.45 200.824C185.441 200.92 186.431 201.017 187.422 201.087C189.412 201.227 191.411 201.315 193.41 201.315C197.241 201.271 201.125 200.982 205.018 200.219Z" fill="#23B4BF" stroke="black" stroke-miterlimit="10" stroke-linecap="round" stroke-linejoin="round"/>
<path d="M208.183 191.864C206.842 192.364 205.43 192.767 203.992 193.091C200.573 193.872 196.952 194.24 193.305 194.345C191.481 194.406 189.64 194.389 187.799 194.327C186.878 194.292 185.958 194.231 185.037 194.17L183.635 194.073L182.056 194.003C182.048 194.003 182.048 194.003 182.039 194.003L188.132 182.062L137.957 187.542L137.501 175.855C137.501 175.855 210.077 160.924 213.014 171.638C213.794 174.513 211.699 182.167 208.183 191.864Z" fill="#23B4BF" stroke="black" stroke-miterlimit="10" stroke-linecap="round" stroke-linejoin="round"/>
<path d="M175.323 182.5C175.323 182.5 181.32 180.607 181.145 178.643C181.004 177.073 176.419 176.363 176.419 176.363C176.419 176.363 180.996 175.697 181.039 174.04C181.083 172.286 176.252 171.348 176.252 171.348C176.252 171.348 181.004 169.946 180.206 168.271C178.777 165.281 168.976 167.596 168.976 167.596L135.747 174.768L133.301 168.552C133.301 168.552 117.546 173.295 117.073 173.575C116.6 173.856 115.556 188.927 115.153 189.348C115.013 189.488 117.687 188.62 121.264 187.419L121.273 194.143L147.408 189.628C147.408 189.628 179.952 191.504 181.311 184.236C181.636 182.439 175.323 182.5 175.323 182.5Z" fill="#685461"/>
<mask id="mask0_363_613" style="mask-type:luminance" maskUnits="userSpaceOnUse" x="115" y="166" width="67" height="29">
<path d="M175.323 182.5C175.323 182.5 181.32 180.607 181.145 178.643C181.004 177.073 176.419 176.363 176.419 176.363C176.419 176.363 180.996 175.697 181.039 174.04C181.083 172.286 176.252 171.348 176.252 171.348C176.252 171.348 181.004 169.946 180.206 168.271C178.777 165.281 168.976 167.596 168.976 167.596L135.747 174.768L133.301 168.552C133.301 168.552 117.546 173.295 117.073 173.575C116.6 173.856 115.556 188.927 115.153 189.348C115.013 189.488 117.687 188.62 121.264 187.419L121.273 194.143L147.408 189.628C147.408 189.628 179.952 191.504 181.311 184.236C181.636 182.439 175.323 182.5 175.323 182.5Z" fill="white"/>
</mask>
<g mask="url(#mask0_363_613)">
<path d="M135.011 169.279H120.492V190.698H135.011V169.279Z" fill="#4698AC" stroke="black" stroke-miterlimit="10" stroke-linecap="round" stroke-linejoin="round"/>
</g>
<path d="M175.323 182.5C175.323 182.5 181.32 180.607 181.145 178.643C181.004 177.073 176.419 176.363 176.419 176.363C176.419 176.363 180.996 175.697 181.039 174.04C181.083 172.286 176.252 171.348 176.252 171.348C176.252 171.348 181.004 169.946 180.206 168.271C178.777 165.281 168.976 167.596 168.976 167.596L135.747 174.768L133.301 168.552C133.301 168.552 117.546 173.295 117.073 173.575C116.6 173.856 115.556 188.927 115.153 189.348C115.013 189.488 117.687 188.62 121.264 187.419L121.273 194.143L147.408 189.628C147.408 189.628 179.952 191.504 181.311 184.236C181.636 182.439 175.323 182.5 175.323 182.5Z" stroke="black" stroke-miterlimit="10" stroke-linecap="round" stroke-linejoin="round"/>
<path d="M166.836 156.558L164.276 157.759V157.75C164.215 157.513 162.768 151.578 160.822 147.825C159.744 145.756 158.516 144.354 157.28 144.941C156.395 145.362 156.491 147.308 156.929 149.483C157.473 152.244 158.569 155.392 158.902 156.295C158.516 155.348 157.061 152.043 155.079 152.814C153.037 153.603 154.29 157.943 154.606 158.951C154.229 157.952 152.502 153.629 150.459 154.331C148.881 154.883 149.503 158.25 150.056 160.319C149.346 158.311 147.952 155.304 146.233 156.54C144.69 157.662 146.882 161.906 148.793 165.001C149.986 166.921 151.055 168.394 151.055 168.394L150.047 190.514L139.026 169.586L127.454 175.013C134.766 189.514 145.295 206.461 153.966 204.796C164.285 202.814 164.04 163.984 164.04 163.984C168.678 161.169 166.836 156.558 166.836 156.558ZM150.52 161.941C150.468 161.792 150.275 161.204 150.056 160.415C150.336 161.187 150.485 161.801 150.52 161.941Z" fill="#23B4BF" stroke="black" stroke-miterlimit="10" stroke-linecap="round" stroke-linejoin="round"/>
<path d="M133.635 159.39L139.018 169.604L127.445 175.031C125.472 171.103 123.727 167.35 122.325 164.203C119.975 158.951 118.572 155.348 118.572 155.348L129.128 150.824L133.635 159.39Z" fill="#23B4BF" stroke="black" stroke-miterlimit="10" stroke-linecap="round" stroke-linejoin="round"/>
<path d="M150.52 161.941C150.468 161.792 150.275 161.204 150.056 160.415C150.336 161.187 150.485 161.801 150.52 161.941Z" fill="white" stroke="black" stroke-miterlimit="10" stroke-linecap="round" stroke-linejoin="round"/>
<path d="M267.012 299.737C247.285 290.68 223.692 292.907 202.063 298.588C197.566 299.772 193.156 301.096 188.886 302.507C189.798 299.921 191.779 295.625 195.795 291.338C201.932 284.78 212.838 278.257 231.995 277.95C255.132 277.582 263.785 289.768 267.012 299.737Z" fill="white" stroke="black" stroke-miterlimit="10" stroke-linecap="round" stroke-linejoin="round"/>
<path d="M268.87 312.353C267.266 320.147 198.074 333.272 181.986 335.499C168.879 337.314 140.254 334.368 130.093 333.21C128.137 332.991 126.822 331.106 127.287 329.195C134.95 330.291 143.708 329.721 152.528 325.346C159.761 321.76 167.792 318.736 175.981 316.184C185.353 313.256 194.936 310.95 203.782 309.144C214.233 307.022 223.657 305.585 230.505 304.682C248.206 302.332 268.87 312.353 268.87 312.353Z" fill="#FEEEDB" stroke="black" stroke-miterlimit="10" stroke-linecap="round" stroke-linejoin="round"/>
<path d="M268.87 312.353C268.87 312.353 248.206 302.332 230.505 304.682C223.666 305.585 214.233 307.022 203.782 309.144C194.936 310.95 185.353 313.256 175.981 316.184C167.783 318.736 159.752 321.769 152.528 325.346C143.708 329.712 134.95 330.291 127.287 329.195L129.084 321.778C132.17 322.295 136.3 322.155 141.762 320.647C147.987 318.928 160.077 313.186 175.069 307.435C178.804 306.005 182.714 304.576 186.765 303.2C187.466 302.963 188.167 302.735 188.878 302.499C193.147 301.087 197.557 299.763 202.055 298.58C223.684 292.898 247.285 290.671 267.003 299.728C269.221 306.558 268.87 312.353 268.87 312.353Z" fill="white" stroke="black" stroke-miterlimit="10" stroke-linecap="round" stroke-linejoin="round"/>
<path d="M44.3218 214.58C44.3218 214.58 -9.69363 275.758 2.905 294.371C12.0055 307.812 67.5113 288.015 67.5113 288.015L67.0993 276.959L21.3076 278.117L57.201 224.978L44.3218 214.58Z" fill="#23B4BF" stroke="black" stroke-miterlimit="10" stroke-linecap="round" stroke-linejoin="round"/>
<path d="M130.136 126.705C127.497 134.955 110.664 138.629 93.9098 132.071C70.8255 123.023 85.8614 110.363 85.8614 110.363L86.8083 91.3641L86.8784 90.8643C86.3875 91.2063 85.8614 91.4781 85.274 91.6534C84.8181 91.7849 84.3534 91.8551 83.8888 91.8551C83.8975 91.8375 83.9063 91.8375 83.9063 91.82C84.5901 89.3213 83.6257 86.6999 81.6005 85.5864C80.9166 85.2094 80.0487 85.4549 79.6717 86.1475C79.2947 86.8314 79.5402 87.6906 80.2328 88.0763C81.1007 88.5498 81.504 89.8386 81.1709 91.0748C81.1534 91.1361 81.1358 91.2063 81.1095 91.2676C79.9347 90.7328 78.8125 89.8736 77.8481 88.7427C77.2344 88.0413 76.6908 87.2522 76.2174 86.3667C75.7439 85.4987 75.3494 84.5343 75.0513 83.5086C74.9987 83.3332 74.9548 83.1579 74.911 82.9825C73.7099 78.2569 74.9724 73.7155 77.8393 71.8305C78.2952 71.5324 78.7774 71.3045 79.3122 71.1467C80.6712 70.7521 82.0915 70.9099 83.4504 71.5149C83.9063 71.7165 84.3534 71.9708 84.783 72.2689C85.3529 72.6546 85.8877 73.1193 86.3874 73.6541C87.3255 74.636 88.1409 75.8459 88.7809 77.2399L89.2894 80.1507L92.3404 78.6602C92.3404 78.6602 92.358 73.1018 93.1733 71.4886C93.7871 70.2261 96.6101 68.8759 97.2063 67.6047C97.7499 66.4649 97.6271 62.5722 97.6271 62.5722C97.6271 62.5722 99.2403 61.7393 101.204 60.959C101.318 60.9152 101.432 60.8626 101.546 60.8275C101.914 60.6785 102.291 60.5382 102.668 60.4067C104.343 59.8105 106.044 59.3897 107.07 59.6001C107.245 59.6352 107.42 59.6878 107.604 59.7579C109.463 60.4418 111.506 62.6511 113.47 64.4221C113.996 64.9043 114.522 65.3427 115.03 65.7197C115.416 66.0002 115.828 66.2983 116.284 66.6227C118.765 68.3762 122.237 70.5855 125.911 72.2338C128.576 73.4349 131.346 74.3204 133.924 74.5133L130.224 102.525L126.822 117.491C126.822 117.464 133.398 116.509 130.136 126.705Z" fill="#23B4BF" stroke="black" stroke-miterlimit="10" stroke-linecap="round" stroke-linejoin="round"/>
<path d="M83.9151 91.8112C83.9151 91.8287 83.9064 91.8287 83.8976 91.8462C82.9595 91.8813 82.0214 91.6709 81.1184 91.25C81.1447 91.1887 81.171 91.1185 81.1797 91.0572C81.5217 89.821 81.1184 88.5322 80.2416 88.0587C79.5578 87.673 79.3035 86.8226 79.6805 86.1299C80.0575 85.4461 80.9167 85.1918 81.6093 85.5688C83.6346 86.691 84.599 89.3125 83.9151 91.8112Z" fill="white" stroke="black" stroke-miterlimit="10" stroke-linecap="round" stroke-linejoin="round"/>
<path d="M139.211 73.619C137.641 74.3993 135.835 74.636 133.924 74.487C131.346 74.2941 128.576 73.3998 125.911 72.2075C122.237 70.568 118.765 68.3498 116.284 66.5964C115.828 66.2808 115.416 65.9739 115.03 65.6934C114.522 65.3164 113.996 64.878 113.47 64.3958C111.506 62.6248 109.472 60.4154 107.604 59.7316C107.42 59.6614 107.245 59.6088 107.07 59.5738C106.035 59.3634 104.334 59.7842 102.668 60.3804C102.283 60.5119 101.914 60.6521 101.546 60.8012C101.432 60.845 101.318 60.8976 101.204 60.9327C99.2404 61.7218 97.6272 62.5459 97.6272 62.5459C97.6272 62.5459 97.7587 66.4386 97.2064 67.5783C96.6014 68.8496 93.7871 70.1998 93.1734 71.4622C92.3668 73.0754 92.3405 78.6339 92.3405 78.6339L89.2895 80.1244L88.781 77.2136C88.1409 75.8284 87.3256 74.6185 86.3875 73.6278C85.8877 73.093 85.3442 72.6195 84.7831 72.2425C84.3535 71.9445 83.9063 71.6902 83.4504 71.4885C85.1864 69.6299 87.5711 67.3065 90.473 65.0533C90.6747 64.8868 90.8939 64.7289 91.1131 64.5711C92.1914 63.747 93.34 62.9317 94.5499 62.1689C96.2157 61.1168 97.9954 60.1349 99.8629 59.3107C99.8629 59.3107 99.8628 59.3107 99.8716 59.302C101.143 58.7321 102.449 58.2324 103.799 57.8203H103.808C105.562 57.2855 107.385 56.8822 109.261 56.6893C109.261 56.6893 115.837 52.3583 121.807 49.9999C125.428 48.562 128.821 47.8519 130.391 49.2722C131.846 50.5785 128.909 56.5227 128.462 57.417C128.839 56.777 130.829 53.384 133.152 50.4821C135.143 47.9921 137.369 45.8792 139.053 46.1335C140.473 46.3527 142.796 49.1407 144.471 52.9369C147.355 59.5299 148.302 69.1126 139.211 73.619Z" fill="#34669A" stroke="black" stroke-miterlimit="10" stroke-linecap="round" stroke-linejoin="round"/>
<path d="M116.775 40.7241C116.494 40.9082 116.231 41.1011 115.96 41.294C115.688 41.4781 115.425 41.6798 115.162 41.8814C114.96 42.0392 114.758 42.1883 114.557 42.3461C114.39 42.4776 114.206 42.6179 114.039 42.7494C113.759 42.9686 113.487 43.2053 113.215 43.4332C112.935 43.6699 112.645 43.9154 112.374 44.1609C112.172 44.345 111.962 44.5291 111.76 44.722C111.418 45.0289 111.085 45.3357 110.761 45.6514C110.734 45.6777 110.708 45.704 110.673 45.739C110.401 45.9933 110.138 46.2563 109.893 46.5105C109.638 46.7736 109.384 47.0278 109.139 47.2821C108.884 47.5451 108.639 47.7993 108.402 48.0624C107.683 48.8427 106.991 49.6142 106.351 50.3682C105.491 51.3852 104.711 52.3671 104.01 53.2877C103.896 53.428 103.799 53.5682 103.694 53.6997C103.589 53.84 103.492 53.9715 103.387 54.103C103.343 54.1644 103.291 54.2346 103.247 54.2959C103.142 54.4537 103.028 54.6028 102.923 54.7431C102.773 54.9447 102.624 55.1551 102.493 55.348C102.142 55.8477 101.818 56.3036 101.529 56.7332C101.432 56.8735 101.344 57.0138 101.248 57.1453C101.02 57.4872 100.827 57.7941 100.652 58.0571C100.573 58.1798 100.494 58.2938 100.424 58.4078C100.398 58.4604 100.371 58.4955 100.336 58.5393C100.31 58.5919 100.275 58.6357 100.249 58.6884C100.213 58.741 100.178 58.8023 100.152 58.8549C100.108 58.9251 100.064 58.9864 100.029 59.0478C100.021 59.0653 100.012 59.0741 100.012 59.0829C99.9942 59.1179 99.9679 59.153 99.9504 59.1793C99.9504 59.1969 99.9416 59.2056 99.9329 59.2144C99.9153 59.2582 99.889 59.2845 99.8803 59.3108C99.8715 59.3284 99.8628 59.3284 99.8628 59.3371C99.854 59.3459 99.854 59.3459 99.854 59.3459C97.9865 60.1788 96.2068 61.152 94.541 62.204C93.3399 62.9668 92.1826 63.7822 91.1042 64.6063C88.4126 53.726 91.0604 47.0015 93.5854 43.3718C94.7426 41.7148 95.8648 40.6978 96.4435 40.2419C97.9164 39.8562 99.3104 39.5318 100.626 39.3038C108.674 37.7783 113.689 38.9531 116.775 40.7241Z" fill="#FEEEDB" stroke="black" stroke-miterlimit="10" stroke-linecap="round" stroke-linejoin="round"/>
<path d="M91.1129 64.5975C90.8849 64.7553 90.6833 64.9131 90.4729 65.0797C87.5709 67.3416 85.1862 69.6562 83.4503 71.5149C82.1001 70.9012 80.6798 70.7521 79.3208 71.1466C78.786 71.3045 78.295 71.5324 77.8391 71.8305C77.7427 70.8222 77.6726 69.5159 77.6638 67.9729C77.6638 67.2802 77.6813 66.535 77.7076 65.7547C77.9093 61.5026 78.7948 56.2247 81.4075 51.4903C81.6091 51.3851 81.8195 51.2711 82.03 51.1835C82.5297 50.9467 83.0206 50.6925 83.5555 50.4821C84.5725 50.0174 85.6333 49.5878 86.6854 49.167C88.1408 48.6322 89.8416 47.9746 91.5249 47.2908C89.9907 51.1835 89.1928 56.8296 91.1129 64.5975Z" fill="#4A4246" stroke="black" stroke-miterlimit="10" stroke-linecap="round" stroke-linejoin="round"/>
<path d="M96.4436 40.2244C95.8737 40.689 94.7428 41.6973 93.5855 43.3543C92.8666 44.3888 92.1301 45.6864 91.5164 47.2645C89.8331 47.9571 88.1234 48.6147 86.6768 49.1407C85.616 49.5616 84.5551 49.9912 83.5469 50.4558C83.0121 50.6662 82.5211 50.9205 82.0214 51.1572C81.811 51.2537 81.6006 51.3589 81.3989 51.4641C83.6083 47.4574 87.0538 43.8453 92.3756 41.5745C93.4452 41.1274 94.5762 40.7329 95.7948 40.3909C96.0228 40.3559 96.2244 40.2857 96.4436 40.2244Z" fill="white" stroke="black" stroke-miterlimit="10" stroke-linecap="round" stroke-linejoin="round"/>
<path d="M144.462 52.9544C144.41 46.3702 139.745 37.2697 127.515 38.9355C124.587 39.33 121.702 40.6188 119.002 42.3635C110.436 47.8694 103.799 57.8378 103.799 57.8378V57.8466H103.791C102.44 58.2586 101.134 58.7584 99.8628 59.3283C99.8628 59.3195 99.8716 59.3107 99.8803 59.3019C99.8979 59.2844 99.9154 59.2493 99.9329 59.2055C99.9417 59.1967 99.9504 59.188 99.9504 59.1704C99.968 59.1441 99.9943 59.1091 100.012 59.074C100.021 59.0652 100.029 59.0565 100.029 59.0389C100.064 58.9863 100.108 58.9162 100.152 58.846C100.178 58.7934 100.213 58.7408 100.249 58.6795C100.275 58.6269 100.31 58.583 100.336 58.5304C100.363 58.4866 100.389 58.4427 100.424 58.3989C100.494 58.2937 100.573 58.171 100.652 58.0482C100.818 57.7764 101.02 57.4783 101.248 57.1364C101.344 57.0049 101.432 56.8646 101.529 56.7244C101.818 56.3035 102.134 55.8389 102.493 55.3391C102.624 55.1462 102.774 54.9446 102.923 54.7342C103.028 54.5939 103.142 54.4449 103.247 54.287C103.3 54.2257 103.343 54.1555 103.387 54.0942C103.484 53.9626 103.589 53.8311 103.694 53.6909C103.791 53.5594 103.896 53.4191 104.01 53.2788C104.711 52.3582 105.5 51.3763 106.351 50.3593C106.999 49.6053 107.683 48.8338 108.402 48.0535C108.639 47.7992 108.893 47.5362 109.139 47.2732C109.384 47.0189 109.638 46.7647 109.893 46.5017C110.147 46.2386 110.41 45.9844 110.673 45.7301C110.699 45.7038 110.725 45.6775 110.761 45.6425C111.085 45.3268 111.418 45.02 111.76 44.7131C111.962 44.5203 112.172 44.3361 112.374 44.152C112.654 43.9065 112.935 43.6611 113.215 43.4243C113.487 43.1964 113.759 42.9597 114.04 42.7405C114.206 42.609 114.39 42.4599 114.557 42.3372C114.758 42.1706 114.951 42.0216 115.162 41.8725C115.425 41.6709 115.697 41.478 115.96 41.2851C116.231 41.0835 116.494 40.8993 116.775 40.7152C121.693 37.3749 127.357 35.2181 133.345 36.2088C145.681 38.2604 145.725 47.2995 144.462 52.9544Z" fill="#4A4246" stroke="black" stroke-miterlimit="10" stroke-linecap="round" stroke-linejoin="round"/>
<path d="M144.462 52.9544C142.788 49.1582 140.464 46.3702 139.044 46.151C137.369 45.8967 135.134 48.0097 133.144 50.4996C130.82 53.3928 128.83 56.7945 128.453 57.4345C128.9 56.5403 131.837 50.596 130.382 49.2897C128.812 47.8694 125.42 48.5795 121.799 50.0174C115.837 52.3846 109.253 56.7068 109.253 56.7068C107.376 56.9085 105.553 57.303 103.799 57.8378V57.8291C103.799 57.8291 110.436 47.8606 119.002 42.3548C121.702 40.6101 124.587 39.3213 127.515 38.9267C139.745 37.2697 144.41 46.3702 144.462 52.9544Z" fill="#4A4246" stroke="black" stroke-miterlimit="10" stroke-linecap="round" stroke-linejoin="round"/>
<path d="M127.269 75.6443C124.306 75.5303 119.361 75.0043 118.844 84.0171C118.353 92.5564 127.296 92.9597 127.296 92.9597C127.296 92.9597 134.204 94.1696 135.598 84.9376C137.01 75.6092 130.382 75.767 127.269 75.6443Z" fill="white" stroke="black" stroke-miterlimit="10" stroke-linecap="round" stroke-linejoin="round"/>
<path d="M131.977 79.6334C130.224 79.4844 130.592 82.9738 130.452 84.1486C130.303 85.3409 129.531 88.8128 130.838 89.0144C132.907 89.3388 133.38 85.49 133.494 84.1486C133.582 83.0351 133.643 79.7737 131.977 79.6334Z" fill="black" stroke="black" stroke-miterlimit="10" stroke-linecap="round" stroke-linejoin="round"/>
<path d="M132.319 81.2027C131.53 81.1413 131.714 82.7019 131.706 83.2367C131.697 83.6751 131.513 84.9288 132.162 85.0077C132.872 85.0954 132.924 83.2104 132.924 83.2104C132.924 83.2104 133.056 81.2641 132.319 81.2027Z" fill="white"/>
<path d="M107.736 71.9445C104.773 71.8305 99.8278 71.3044 99.3105 80.3172C98.8195 88.8566 107.762 89.2599 107.762 89.2599C107.762 89.2599 114.671 90.4698 116.065 81.2378C117.476 71.9181 110.857 72.0672 107.736 71.9445Z" fill="white" stroke="black" stroke-miterlimit="10" stroke-linecap="round" stroke-linejoin="round"/>
<path d="M112.444 75.9424C110.69 75.7933 111.059 79.2827 110.918 80.4575C110.769 81.6499 109.998 85.1218 111.304 85.3234C113.373 85.6478 113.847 81.7989 113.961 80.4575C114.048 79.3353 114.11 76.0739 112.444 75.9424Z" fill="black" stroke="black" stroke-miterlimit="10" stroke-linecap="round" stroke-linejoin="round"/>
<path d="M112.786 77.5116C111.997 77.4503 112.181 79.0109 112.172 79.5457C112.163 79.984 111.979 81.2378 112.628 81.3167C113.338 81.4043 113.391 79.5194 113.391 79.5194C113.391 79.5194 113.531 77.573 112.786 77.5116Z" fill="white"/>
<path d="M104.308 93.2052C101.345 93.0912 96.3998 92.5652 95.8825 101.578C95.3916 110.117 104.334 110.521 104.334 110.521C104.334 110.521 111.243 111.731 112.637 102.499C114.048 93.1789 107.42 93.3279 104.308 93.2052Z" fill="white" stroke="black" stroke-miterlimit="10" stroke-linecap="round" stroke-linejoin="round"/>
<path d="M109.016 97.2031C107.263 97.0541 107.631 100.543 107.49 101.718C107.341 102.911 106.57 106.382 107.876 106.584C109.945 106.909 110.419 103.06 110.533 101.718C110.62 100.596 110.682 97.3346 109.016 97.2031Z" fill="black" stroke="black" stroke-miterlimit="10" stroke-linecap="round" stroke-linejoin="round"/>
<path d="M109.358 98.7724C108.569 98.711 108.753 100.272 108.744 100.806C108.735 101.245 108.551 102.498 109.2 102.577C109.91 102.665 109.963 100.78 109.963 100.78C109.963 100.78 110.094 98.8338 109.358 98.7724Z" fill="white"/>
<path d="M123.841 96.9664C120.878 96.8524 115.933 96.3264 115.416 105.339C114.925 113.879 123.868 114.282 123.868 114.282C123.868 114.282 130.776 115.492 132.17 106.26C133.582 96.9314 126.954 97.0892 123.841 96.9664Z" fill="white" stroke="black" stroke-miterlimit="10" stroke-linecap="round" stroke-linejoin="round"/>
<path d="M128.549 100.956C126.796 100.807 127.164 104.296 127.024 105.471C126.875 106.663 126.103 110.135 127.41 110.337C129.479 110.661 129.952 106.812 130.066 105.471C130.154 104.357 130.215 101.096 128.549 100.956Z" fill="black" stroke="black" stroke-miterlimit="10" stroke-linecap="round" stroke-linejoin="round"/>
<path d="M128.891 102.525C128.102 102.463 128.287 104.024 128.278 104.559C128.269 104.997 128.085 106.251 128.734 106.33C129.444 106.418 129.496 104.533 129.496 104.533C129.496 104.533 129.628 102.586 128.891 102.525Z" fill="white"/>
<path d="M113.934 109.451C113.934 109.451 123.21 112.546 133.634 111.625C141.13 110.959 143.252 103.673 147.417 102.884C148.767 102.63 151.52 102.814 152.712 105.024C155.167 109.565 151.195 112.537 149.074 114.334C141.244 120.98 125.998 118.481 118.107 116.579C115.065 115.842 113.11 115.194 113.11 115.194" fill="#23B4BF"/>
<path d="M113.934 109.451C113.934 109.451 123.21 112.546 133.634 111.625C141.13 110.959 143.252 103.673 147.417 102.884C148.767 102.63 151.52 102.814 152.712 105.024C155.167 109.565 151.195 112.537 149.074 114.334C141.244 120.98 125.998 118.481 118.107 116.579C115.065 115.842 113.11 115.194 113.11 115.194" stroke="black" stroke-miterlimit="10" stroke-linecap="round" stroke-linejoin="round"/>
<path d="M116.415 127.748C112.961 128.897 109.945 128.792 107.411 127.442C102.572 124.855 101.897 118.937 101.835 118.271C101.686 116.605 102.905 115.132 104.571 114.983C106.228 114.834 107.701 116.044 107.858 117.701C107.867 117.789 108.279 121.068 110.278 122.111C111.777 122.9 114.329 122.392 117.459 120.691C118.923 119.893 120.764 120.437 121.562 121.901C122.36 123.365 121.816 125.206 120.352 126.004C118.984 126.749 117.669 127.336 116.415 127.748Z" fill="#EA556E" stroke="black" stroke-miterlimit="10" stroke-linecap="round" stroke-linejoin="round"/>
<path d="M104.851 117.999C104.851 117.999 105.991 130.379 118.914 123.356" stroke="black" stroke-miterlimit="10" stroke-linecap="round" stroke-linejoin="round"/>
<path d="M93.594 105.348C93.594 105.348 100.871 105.304 101.765 107.137C102.414 108.469 97.25 112.204 97.25 112.204" fill="#23B4BF"/>
<path d="M93.594 105.348C93.594 105.348 100.871 105.304 101.765 107.137C102.414 108.469 97.25 112.204 97.25 112.204" stroke="black" stroke-miterlimit="10" stroke-linecap="round" stroke-linejoin="round"/>
<path d="M95.8298 84.0258C95.8298 84.0258 103.107 83.982 104.001 85.8144C104.65 87.147 99.4858 90.8819 99.4858 90.8819" fill="#23B4BF"/>
<path d="M95.8298 84.0258C95.8298 84.0258 103.107 83.982 104.001 85.8144C104.65 87.147 99.4858 90.8819 99.4858 90.8819" stroke="black" stroke-miterlimit="10" stroke-linecap="round" stroke-linejoin="round"/>
<path d="M83.9152 91.8111C83.9152 91.8287 83.9064 91.8287 83.8976 91.8462C83.5206 93.2139 82.7053 94.38 81.6006 95.1339C80.7677 95.7038 79.8296 96.0019 78.9003 96.0019C78.5145 96.0019 78.1112 95.9493 77.7342 95.8441C75.1303 95.1252 73.6662 92.1618 74.464 89.2248C74.7796 88.085 75.3933 87.0768 76.2175 86.3491C76.6821 87.2346 77.2344 88.0236 77.8482 88.725C77.5501 89.0757 77.3309 89.4966 77.1994 89.97C76.8136 91.3728 77.401 92.8106 78.4794 93.1087C78.9704 93.2402 79.5052 93.1262 79.9962 92.7931C80.5134 92.4424 80.8992 91.89 81.1184 91.2413C81.1447 91.1799 81.171 91.1097 81.1798 91.0484C81.5217 89.8122 81.1184 88.5234 80.2416 88.0499C79.5578 87.6642 79.3035 86.8138 79.6805 86.1211C80.0575 85.4373 80.9167 85.183 81.6093 85.56C83.6346 86.691 84.599 89.3124 83.9152 91.8111Z" fill="#FFCC03" stroke="black" stroke-miterlimit="10" stroke-linecap="round" stroke-linejoin="round"/>
<path d="M81.618 152.165C82.7366 152.165 83.6433 151.259 83.6433 150.14C83.6433 149.022 82.7366 148.115 81.618 148.115C80.4995 148.115 79.5928 149.022 79.5928 150.14C79.5928 151.259 80.4995 152.165 81.618 152.165Z" fill="white" stroke="black" stroke-miterlimit="10" stroke-linecap="round" stroke-linejoin="round"/>
<path d="M52.528 197.992L40.5519 214.492C39.4296 216.044 38.6055 216.956 36.8696 218.893C36.1507 219.691 35.4931 220.568 35.8175 221.015C36.8608 222.409 42.3755 218.666 42.3755 218.666C42.3755 218.666 39.605 222.83 40.5168 223.865C41.8933 225.408 48.5652 222.006 48.5652 222.006C48.5652 222.006 46.4435 228.476 47.9427 229.677C49.4858 230.913 55.4914 227.328 55.4914 227.328C55.4914 227.328 53.282 233.482 54.8689 234.008C55.3073 234.157 55.7807 233.482 56.1752 232.676C57.35 230.291 58.5599 227.933 59.9364 225.662L64.2675 218.534L52.528 197.992Z" fill="#685461" stroke="black" stroke-miterlimit="10" stroke-linecap="round" stroke-linejoin="round"/>
<path d="M25.3405 272.137L18.8965 281.667" stroke="black" stroke-miterlimit="10" stroke-linecap="round" stroke-linejoin="round"/>
<path d="M95.5053 307.417C95.5053 307.417 83.459 313.528 81.7844 303.787C81.0743 299.693 82.6173 297.273 84.6426 295.844C87.4481 293.863 91.1742 293.766 91.1742 293.766L84.7215 268.806C84.7215 268.806 87.2202 268.718 87.8777 269.156C89.2367 270.051 95.2861 290.435 95.5053 307.417Z" fill="white" stroke="black" stroke-miterlimit="10" stroke-linecap="round" stroke-linejoin="round"/>
<path d="M76.7256 274.417L84.7127 268.806L91.1654 293.766C91.1654 293.766 87.4393 293.863 84.6337 295.844L83.1082 287.314H75.0949L74.2795 274.917L76.7256 274.417Z" fill="#4A4246" stroke="black" stroke-miterlimit="10" stroke-linecap="round" stroke-linejoin="round"/>
<path d="M78.269 287.314L76.7259 274.417L74.2798 274.917L74.2272 274.066C74.1483 272.918 73.1576 272.05 72.0091 272.12C70.8606 272.199 69.9926 273.189 70.0627 274.338C69.9838 273.189 68.9931 272.321 67.8446 272.392C66.6961 272.471 65.8281 273.461 65.8983 274.61L66.8101 288.497C66.889 289.646 67.8797 290.514 69.0282 290.443C70.1767 290.365 71.0447 289.374 70.9745 288.225C71.0534 289.374 72.0442 290.242 73.1927 290.172C74.3412 290.093 75.2092 289.102 75.139 287.954L75.0952 287.314H78.269Z" fill="#FEEEDB" stroke="black" stroke-miterlimit="10" stroke-linecap="round" stroke-linejoin="round"/>
<path d="M182.109 182.632L191.709 181.729" stroke="black" stroke-miterlimit="10" stroke-linecap="round" stroke-linejoin="round"/>
<path d="M125.104 141.478L133.301 155.243L129.505 152.288L130.101 156.558L126.664 153.533V157.759L122.868 152.823L125.104 141.478Z" fill="#685461" stroke="black" stroke-miterlimit="10" stroke-linecap="round" stroke-linejoin="round"/>
<path d="M150.038 190.531C150.038 190.531 149.968 192.565 148.934 193.082Z" fill="white"/>
<path d="M150.038 190.531C150.038 190.531 149.968 192.565 148.934 193.082" stroke="black" stroke-miterlimit="10" stroke-linecap="round" stroke-linejoin="round"/>
<path d="M210.094 126.872C210.094 126.872 209.823 122.278 213.601 121.331C218.607 120.086 235.458 116.36 242.218 118.779C244.585 119.63 249.179 125.635 246.128 128.064C243.077 130.493 239.044 126.872 235.616 127.503C232.109 128.152 226.893 135.604 222.781 136.472C219.37 137.2 216.161 133.421 213.601 134.622L210.094 126.872Z" fill="#F5C734" stroke="black" stroke-miterlimit="10" stroke-linecap="round" stroke-linejoin="round"/>
<path d="M167.722 222.856L174.122 235.06C174.762 236.288 176.34 236.656 177.462 235.849C178.401 235.183 178.681 233.921 178.138 232.912L170.966 219.77C170.65 219.192 169.887 218.99 169.353 219.376C169.046 219.595 168.713 219.919 168.415 220.366C167.626 221.559 167.722 222.856 167.722 222.856Z" fill="#EA7F5E" stroke="black" stroke-miterlimit="10" stroke-linecap="round" stroke-linejoin="round"/>
<path d="M178.953 223.645L167.389 230.878C166.635 231.352 166.337 232.307 166.705 233.123L166.863 233.474C167.31 234.491 168.572 234.85 169.493 234.236L180.899 226.653C181.758 226.083 181.96 224.899 181.329 224.075C180.768 223.339 179.742 223.154 178.953 223.645Z" fill="#EA7F5E" stroke="black" stroke-miterlimit="10" stroke-linecap="round" stroke-linejoin="round"/>
<path d="M79.5137 81.7025C79.5137 81.7025 80.1449 78.3709 84.5374 79.6246" stroke="black" stroke-miterlimit="10" stroke-linecap="round" stroke-linejoin="round"/>
<path d="M81.2322 79.6333C81.2322 79.6333 81.1884 82.9736 84.5287 83.64" stroke="black" stroke-miterlimit="10" stroke-linecap="round" stroke-linejoin="round"/>
<path d="M47.2063 195.029C47.2063 195.029 53.2294 226.468 72.4561 226.714C91.6829 226.959 101.09 218.218 105.456 208.566C109.831 198.913 113.873 200.394 118.327 200.07C122.781 199.737 143.656 196.774 141.516 189.26C141.516 189.26 141.595 185.963 135.572 186.7C129.549 187.445 122.123 185.63 124.017 175.399L135.239 163.931L133.012 160.214C133.012 160.214 126.91 161.45 124.841 157.487C122.781 153.524 125.586 149.395 127.725 148.448C129.873 147.501 137.878 142.548 134.906 138.594C131.934 134.64 122.097 136.121 115.267 141.478C108.437 146.844 105.281 160.372 76.4716 155.672C65.6615 153.91 42.656 162.029 45.6281 186.367C45.9087 188.55 47.2063 195.029 47.2063 195.029Z" fill="#F5C734" stroke="black" stroke-miterlimit="10" stroke-linecap="round" stroke-linejoin="round"/>
<path d="M88.5882 169.2C88.5882 169.2 99.0037 170.051 106.921 165.728C114.837 161.406 115.679 159.188 115.679 159.188C115.679 159.188 121.36 156.023 118.572 166.789L119.44 178.792C119.44 178.792 120.063 188.287 127.392 189.479C134.722 190.671 137.378 186.954 138.369 190.54C139.36 194.126 125.481 196.861 118.572 197.282C111.664 197.703 107.131 196.335 99.3193 207.522C91.5077 218.709 75.6827 227.468 84.4412 210.266C84.4412 210.266 83.81 205.62 80.7502 199.921C77.6904 194.222 66.0737 178.581 74.5166 173.426C82.9683 168.262 84.336 173.54 84.336 173.54L88.5882 169.2Z" fill="white" stroke="black" stroke-miterlimit="10" stroke-linecap="round" stroke-linejoin="round"/>
<path d="M107.403 170.515L112.4 182.597L115.153 181.527L110.006 169.279L107.403 170.515Z" fill="#4A4246" stroke="black" stroke-miterlimit="10" stroke-linecap="round" stroke-linejoin="round"/>
<path d="M102.528 171.646L107.938 184.675L103.931 186.209L98.6968 173.049L102.528 171.646Z" fill="#4A4246" stroke="black" stroke-miterlimit="10" stroke-linecap="round" stroke-linejoin="round"/>
<path d="M91.376 209.644C92.8867 209.644 94.1114 208.419 94.1114 206.909C94.1114 205.398 92.8867 204.173 91.376 204.173C89.8653 204.173 88.6406 205.398 88.6406 206.909C88.6406 208.419 89.8653 209.644 91.376 209.644Z" fill="#4698AC" stroke="black" stroke-miterlimit="10" stroke-linecap="round" stroke-linejoin="round"/>
<path d="M95.7771 203.472C97.2879 203.472 98.5125 202.247 98.5125 200.736C98.5125 199.226 97.2879 198.001 95.7771 198.001C94.2664 198.001 93.0417 199.226 93.0417 200.736C93.0417 202.247 94.2664 203.472 95.7771 203.472Z" fill="#4698AC" stroke="black" stroke-miterlimit="10" stroke-linecap="round" stroke-linejoin="round"/>
<path d="M150.064 160.415C150.336 161.187 150.485 161.801 150.529 161.941C150.477 161.792 150.275 161.204 150.064 160.415Z" fill="white" stroke="black" stroke-miterlimit="10" stroke-linecap="round" stroke-linejoin="round"/>
<path d="M156.92 149.483C157.464 152.244 158.56 155.392 158.893 156.295C158.507 155.348 157.052 152.043 155.071 152.814C153.028 153.603 154.281 157.943 154.597 158.951C154.22 157.952 152.493 153.63 150.45 154.331C148.872 154.883 149.495 158.25 150.047 160.319C149.337 158.311 147.943 155.304 146.224 156.54C144.681 157.663 146.873 161.906 148.784 165.001L139.026 169.586L127.454 175.013L119.44 178.765C119.44 178.765 111.874 173.181 115.407 167.131L122.333 164.185L133.643 159.381L156.92 149.483Z" fill="#F7AD39" stroke="black" stroke-miterlimit="10" stroke-linecap="round" stroke-linejoin="round"/>
<path d="M205.334 138.497L199.372 141.294L197.82 142.022L195.225 143.24C195.216 142.416 195.128 141.583 194.944 140.75C194.9 140.452 194.804 140.18 194.716 139.891C194.629 139.602 194.55 139.312 194.445 139.076L193.857 137.612C193.401 136.656 192.945 135.709 192.375 134.815C192.305 134.71 192.244 134.596 192.165 134.49L195.032 133.272L196.417 132.684L200.976 130.747C202.537 132.755 203.834 135.043 204.878 137.41C205.018 137.769 205.176 138.138 205.334 138.497Z" fill="#F7AD39" stroke="black" stroke-miterlimit="10" stroke-linecap="round" stroke-linejoin="round"/>
<path d="M190.683 145.371L183.731 148.632L180.189 150.289L179.067 150.815L174.008 153.191L166.845 156.549L164.276 157.75C164.215 157.513 162.768 151.578 160.822 147.834L169.852 143.994L174.788 141.89L178.181 140.452L181.811 138.9L187.913 136.305C188.132 136.603 188.343 136.91 188.535 137.217C189.026 137.927 189.403 138.699 189.798 139.47L190.307 140.654C190.403 140.864 190.456 141.031 190.508 141.206C190.561 141.373 190.631 141.548 190.657 141.723C190.938 142.872 190.938 144.135 190.683 145.371Z" fill="#F7AD39" stroke="black" stroke-miterlimit="10" stroke-linecap="round" stroke-linejoin="round"/>
<path d="M213.601 134.622L207.552 137.463C207.429 137.121 207.298 136.779 207.157 136.446C206.193 134.087 205.009 131.79 203.528 129.66L210.094 126.863L213.601 134.622Z" fill="#F7AD39" stroke="black" stroke-miterlimit="10" stroke-linecap="round" stroke-linejoin="round"/>
<path d="M85.1689 144.362C86.7619 144.362 88.0533 143.071 88.0533 141.478C88.0533 139.885 86.7619 138.594 85.1689 138.594C83.5758 138.594 82.2844 139.885 82.2844 141.478C82.2844 143.071 83.5758 144.362 85.1689 144.362Z" fill="white" stroke="black" stroke-miterlimit="10" stroke-linecap="round" stroke-linejoin="round"/>
<path d="M68.5634 124.356C65.9595 122.444 62.9173 120.287 59.7523 118.218C48.7756 111.02 37.7288 105.234 31.2848 111.546C29.9872 112.818 28.4529 115.071 28.4968 118.622C28.5406 121.839 27.7691 130.387 55.807 156.909C68.7563 169.157 80.11 177.898 80.6185 178.371L87.3956 194.196C87.3956 194.196 88.3513 196.274 89.3157 195.59C90.0433 195.073 89.3157 193.319 89.3157 193.319L87.2729 187.691C87.2729 187.691 91.3935 195.423 93.524 194.24C95.6544 193.056 89.8943 185.437 89.8943 185.437C89.8943 185.437 96.3909 193.24 98.2408 191.329C100.091 189.418 93.3486 183.211 93.3486 183.211C93.3486 183.211 102.212 185.692 102.055 179.318C102.055 179.318 102.133 177.258 100.696 177.757C99.2665 178.257 97.9339 180.028 97.9339 180.028C97.9339 180.028 94.69 179.677 94.9004 177.021C95.1021 174.356 97.4517 173.584 98.609 175.092C99.7575 176.6 100.599 177.117 101.336 176.591C102.072 176.065 102.458 173.786 100.187 171.822C100.187 171.822 96.3821 168.429 92.3491 168.674C88.3162 168.92 85.7824 170.051 85.7824 170.051C81.4251 165.913 73.0961 157.855 64.7759 149.062C52.1598 135.736 46.3032 127.898 43.5941 123.479C48.0917 125.723 54.4919 129.8 61.0674 134.631L68.5634 124.356Z" fill="#23B4BF" stroke="black" stroke-miterlimit="10" stroke-linecap="round" stroke-linejoin="round"/>
<path d="M70.0976 145.485L53.729 132.895L58.665 132.527L55.386 127.389L61.4793 128.441L57.7971 122.935H63.864L61.4793 117.052L72.2894 125.723L72.3157 125.758C72.7366 126.407 78.2161 135.332 70.0976 145.485Z" fill="#685461" stroke="black" stroke-miterlimit="10" stroke-linecap="round" stroke-linejoin="round"/>
<path d="M98.6968 176.591L104.843 175.863L104.922 176.714L98.6968 178.073V176.591Z" fill="#F29699" stroke="black" stroke-miterlimit="10" stroke-linecap="round" stroke-linejoin="round"/>
<path d="M186.642 266.632C186.247 268.674 184.608 270.2 182.556 270.682C184.283 271.901 185.239 273.917 184.844 275.969C184.467 277.941 182.942 279.423 180.995 279.958C180.461 282.272 179.847 284.666 179.847 284.666C162.882 276.986 142.559 285.288 142.121 285.464L142.112 285.472L137.404 287.48L141.99 272.427C140.429 271.199 139.579 269.279 139.956 267.324C140.35 265.273 141.99 263.756 144.041 263.274C142.314 262.055 141.358 260.03 141.753 257.987C142.314 255.102 145.33 253.261 148.504 253.866L181.898 260.293C185.081 260.906 187.203 263.747 186.642 266.632Z" fill="#FEEEDB" stroke="black" stroke-miterlimit="10" stroke-linecap="round" stroke-linejoin="round"/>
<path d="M195.786 291.338C191.771 295.625 189.798 299.921 188.886 302.507C188.176 302.735 187.475 302.981 186.773 303.209C182.731 304.576 178.812 306.006 175.078 307.443C160.085 313.195 147.995 318.937 141.771 320.656C136.308 322.164 132.179 322.304 129.084 321.795L137.422 287.498L142.13 285.49L142.139 285.481C142.568 285.306 162.9 277.003 179.865 284.683L178.602 292.67L195.786 291.338Z" fill="#4A4246" stroke="black" stroke-miterlimit="10" stroke-linecap="round" stroke-linejoin="round"/>
<path d="M121.141 6.40001C121.386 6.777 121.562 7.26797 121.588 7.6625C121.614 7.86415 121.562 8.02196 121.553 8.04826C121.553 8.04826 121.632 8.05703 121.491 8.08333C121.369 8.10087 121.132 8.03073 120.93 7.96059C120.746 7.87292 120.597 7.77648 120.492 7.65373C120.264 7.40825 120.185 6.93481 120.247 6.41754C120.282 6.18959 120.325 5.95288 120.396 5.71616C120.623 5.79506 120.922 6.05808 121.141 6.40001ZM124.534 16.0967C124.192 15.3164 123.745 14.6764 123.28 14.1065C122.324 13.0018 121.316 12.204 120.413 11.4149C119.528 10.6522 118.695 9.87186 118.362 9.17925C118.195 8.82855 118.134 8.53923 118.186 8.17977C118.221 7.82031 118.414 7.40825 118.677 6.96988C118.756 6.84714 118.835 6.73317 118.905 6.61042C118.835 7.19783 118.87 7.86415 119.273 8.48663C119.51 8.85486 119.861 9.14418 120.22 9.34583C120.58 9.52117 120.922 9.68775 121.421 9.72282C121.667 9.73159 121.947 9.71405 122.237 9.60008C122.535 9.4861 122.789 9.27569 122.964 9.03897C123.306 8.548 123.376 8.08333 123.394 7.67127C123.412 6.83837 123.201 6.11945 122.859 5.42684C122.508 4.79559 122.026 4.12927 121.176 3.72598C121.535 3.01582 121.956 2.31444 122.403 1.65689L122.412 1.63936C122.508 1.49031 122.482 1.29743 122.351 1.18346C122.202 1.05195 121.982 1.07825 121.86 1.21852C121.255 1.91991 120.702 2.65636 120.203 3.45419C120.001 3.43666 119.791 3.44542 119.589 3.48049C119.089 3.54186 118.677 3.75228 118.3 3.96269C117.572 4.40983 117.082 4.97094 116.652 5.52328C116.222 6.09315 115.793 6.76824 115.591 7.61867C115.372 8.45156 115.442 9.4335 115.749 10.2226C116.371 11.8094 117.388 12.7651 118.248 13.6944C119.124 14.5887 119.966 15.4216 120.527 16.2457C120.816 16.649 121.027 17.0435 121.15 17.403C121.264 17.7624 121.281 18.0956 121.246 18.4288C121.202 18.7619 121.088 19.1214 120.887 19.5159C120.79 19.7088 120.667 19.9017 120.536 20.0946C120.474 20.191 120.422 20.2699 120.352 20.3663L120.097 20.6907C118.66 22.4617 116.985 24.1626 115.249 25.7407C111.786 28.9583 107.911 31.72 103.852 34.131C99.7748 36.5333 95.4262 38.4445 90.9724 40.0051C89.8678 40.3997 88.7368 40.7416 87.6233 41.1273C86.5712 41.5043 85.2824 41.9252 84.0638 42.3723C82.8539 42.872 81.6352 43.3542 80.4517 43.968C79.8555 44.2573 79.2681 44.5904 78.6894 44.9236C78.102 45.2392 77.5322 45.6074 76.9535 45.9669C74.6915 47.4749 72.5085 49.2371 70.7375 51.6131C69.852 52.7703 69.0717 54.103 68.5632 55.6022C68.0371 57.0839 67.8004 58.7672 68.0459 60.4417C68.2826 62.1075 69.0015 63.7119 70.0975 64.9043C71.1934 66.0879 72.5348 66.9032 73.8937 67.3767C75.1562 67.8063 76.4275 67.9816 77.6549 67.9553C77.6549 67.2627 77.6724 66.5175 77.6987 65.7372C76.8045 65.4391 75.9803 65.0358 75.2789 64.5185C74.4461 63.9399 73.7797 63.221 73.394 62.4407C73.017 61.6692 72.8592 60.8889 72.9381 60.0998C73.1046 58.548 74.0252 56.9524 75.4543 55.5671C76.8308 54.1556 78.6456 52.9632 80.5569 51.9199C80.8374 51.7621 81.118 51.6131 81.3985 51.464C81.6002 51.3588 81.8106 51.2448 82.021 51.1572C82.5208 50.9204 83.0117 50.6662 83.5465 50.4558C84.5635 49.9911 85.6244 49.5615 86.6765 49.1407C88.1318 48.6059 89.8327 47.9483 91.516 47.2645C92.2086 46.9751 92.8925 46.6946 93.5588 46.4053C98.1967 44.266 102.615 41.6885 106.833 38.8478C111.023 35.9809 114.986 32.7546 118.493 29.0548C120.238 27.1961 121.886 25.2585 123.368 23.093C124.148 21.9357 124.955 20.4628 125.007 18.6567C125.051 17.78 124.867 16.8682 124.534 16.0967Z" fill="#E9408F" stroke="black" stroke-miterlimit="10" stroke-linecap="round" stroke-linejoin="round"/>
<path d="M208.84 234.201C207.385 234.455 205.895 234.99 204.658 236.016C203.44 237.042 202.572 238.48 202.055 239.935C201.02 242.898 200.976 245.967 200.845 248.816C200.81 250.245 200.696 251.552 200.441 252.841C200.213 254.121 199.801 255.313 199.223 256.251C198.635 257.198 197.934 257.864 197.048 258.268C196.163 258.653 195.102 258.802 193.936 258.75C191.595 258.627 189.053 257.777 186.607 256.742C184.143 255.664 181.741 254.34 179.4 252.876C178.199 252.13 177.164 251.42 175.753 250.552C174.411 249.754 173.061 249.027 171.693 248.369C168.949 247.054 166.144 245.941 163.294 244.994C157.56 243.17 151.599 241.934 145.4 241.794C142.305 241.732 139.158 241.978 136.01 242.67C132.88 243.372 129.724 244.59 126.91 246.528C124.113 248.457 121.737 251.14 120.22 254.156C118.669 257.172 117.923 260.407 117.608 263.545C117.546 264.317 117.432 265.141 117.432 265.886L117.389 268.139C117.353 268.885 117.389 269.647 117.424 270.41C117.459 271.173 117.459 271.927 117.529 272.699L117.564 272.997L117.774 275.013C117.888 275.793 118.055 276.582 118.204 277.363C118.23 277.459 118.248 277.573 118.274 277.67C118.441 278.362 118.677 279.055 118.861 279.747C118.993 280.142 119.186 280.554 119.352 280.949C119.537 281.352 119.651 281.755 119.914 282.15C120.738 283.745 122.14 285.359 124.034 286.332C125.928 287.322 128.076 287.445 129.856 287.156L130.531 287.042L131.171 286.875C131.6 286.779 132.012 286.647 132.407 286.498C132.617 286.428 132.801 286.367 133.021 286.279L133.678 285.981C134.108 285.762 134.537 285.534 134.932 285.262C136.536 284.184 137.808 282.667 138.588 280.905C139.359 279.151 139.614 277.117 139.21 275.197C139.026 274.233 138.676 273.33 138.176 272.453C137.676 271.568 136.948 270.735 136.072 270.121C135.642 269.788 135.177 269.56 134.713 269.332C134.248 269.157 133.757 268.964 133.292 268.858C132.819 268.762 132.337 268.657 131.898 268.639C131.434 268.595 130.987 268.56 130.557 268.595C128.812 268.639 127.217 268.955 125.717 269.42C124.955 269.621 124.245 269.91 123.508 270.147C123.464 270.165 123.412 270.182 123.368 270.2C123.359 269.56 123.35 268.911 123.403 268.262L123.517 266.211C123.543 265.509 123.675 264.913 123.736 264.256C124.096 261.713 124.806 259.285 125.981 257.233C127.147 255.173 128.769 253.498 130.75 252.253C132.723 250.982 135.046 250.149 137.518 249.649C139.991 249.132 142.621 248.983 145.26 249.036C147.916 249.079 150.599 249.386 153.273 249.825C155.947 250.254 158.621 250.868 161.243 251.639C163.882 252.385 166.477 253.27 168.967 254.331C170.212 254.857 171.422 255.444 172.579 256.067C173.648 256.646 175.025 257.505 176.322 258.189C178.961 259.6 181.688 260.88 184.572 261.915C187.466 262.932 190.534 263.756 193.971 263.642C195.663 263.572 197.504 263.203 199.179 262.248C200.853 261.292 202.142 259.74 202.87 258.136C203.615 256.523 203.939 254.892 204.053 253.323C204.194 251.762 204.15 250.184 204.018 248.746C203.773 245.879 203.519 243.109 204.027 240.496C204.281 239.207 204.79 237.997 205.64 237.024C206.482 236.042 207.674 235.341 208.989 234.876L209.007 234.868C209.165 234.815 209.261 234.648 209.235 234.482C209.217 234.289 209.042 234.166 208.84 234.201ZM125.016 274.356C125.647 274.171 126.296 273.926 126.919 273.794C128.19 273.435 129.444 273.268 130.575 273.268C131.706 273.277 132.67 273.514 133.222 273.987C133.52 274.215 133.757 274.478 133.95 274.864C134.134 275.232 134.309 275.688 134.38 276.144C134.537 277.038 134.388 277.994 133.976 278.853C133.564 279.704 132.898 280.449 132.091 280.949C131.898 281.071 131.679 281.177 131.469 281.282L131.144 281.413C131.022 281.457 130.873 281.501 130.732 281.545C130.452 281.641 130.171 281.72 129.908 281.773L129.505 281.869L129.11 281.913C128.067 282.044 127.208 281.904 126.568 281.527C125.919 281.15 125.314 280.528 124.85 279.555C124.7 279.362 124.639 279.055 124.534 278.801C124.437 278.538 124.315 278.301 124.236 278.003C124.104 277.407 123.911 276.845 123.806 276.223C123.745 275.785 123.675 275.337 123.613 274.899C124.069 274.706 124.543 274.531 125.016 274.356Z" fill="#E9408F" stroke="black" stroke-miterlimit="10" stroke-linecap="round" stroke-linejoin="round"/>
<path d="M118.256 277.678C116.687 278.888 115.389 280.414 114.372 282.185C113.092 284.438 112.303 287.042 111.725 289.733C111.146 292.434 110.787 295.248 110.436 298.089C109.691 303.761 109.024 309.705 106.631 315.281C105.43 318.052 103.755 320.664 101.581 322.812C99.4242 324.96 96.8115 326.6 94.0761 327.775C91.367 328.932 88.6053 329.87 85.7471 330.563C82.889 331.247 79.9432 331.667 76.9711 331.518C74.0165 331.369 71.0181 330.615 68.4931 328.993C65.9856 327.371 63.9779 325.004 62.9872 322.164C62.9258 321.98 63.0223 321.787 63.2064 321.725C63.3817 321.664 63.5746 321.752 63.636 321.927L63.6535 321.962C64.6705 324.513 66.6782 326.696 69.0542 328.064C71.4564 329.449 74.2444 330.028 77.0149 330.037C79.8029 330.072 82.5821 329.572 85.2825 328.818C87.9828 328.055 90.6481 327.021 93.1731 325.82C95.663 324.645 97.9512 323.067 99.7924 321.085C101.642 319.113 103.028 316.754 104.018 314.212C105.991 309.1 106.447 303.437 106.955 297.72C107.227 294.854 107.508 291.952 108.042 289.006C108.595 286.077 109.366 283.088 110.839 280.273C112.312 277.477 114.548 274.934 117.257 273.189C117.353 273.128 117.441 273.067 117.546 273.005L117.757 275.022C117.871 275.802 118.037 276.591 118.186 277.371C118.213 277.468 118.23 277.582 118.256 277.678Z" fill="#E9408F" stroke="black" stroke-miterlimit="10" stroke-linecap="round" stroke-linejoin="round"/>
<path d="M278.567 203.647C278.321 201.841 277.936 200.061 277.418 198.325C276.349 194.862 274.788 191.575 272.798 188.594C272.281 187.866 271.807 187.103 271.246 186.419L269.694 184.455C268.721 183.272 267.836 182.027 266.985 180.773C265.276 178.257 263.855 175.592 262.803 172.786C262.26 171.392 261.839 169.972 261.479 168.525C261.181 167.07 260.91 165.597 260.848 164.124C260.813 163.756 260.813 163.379 260.804 163.011C260.796 162.651 260.769 162.265 260.778 161.897C260.813 161.161 260.813 160.415 260.918 159.679C261.059 158.197 261.348 156.724 261.795 155.295C262.61 152.402 264.066 149.675 266.021 147.308C267.994 144.967 270.536 143.004 273.613 142.039C273.771 141.995 273.876 141.846 273.859 141.68C273.85 141.487 273.684 141.338 273.491 141.347C270.098 141.557 266.775 143.118 264.118 145.371C261.409 147.606 259.288 150.543 257.824 153.787C257.087 155.401 256.535 157.119 256.14 158.855C255.737 160.6 255.5 162.388 255.448 164.177C255.342 167.771 255.816 171.366 256.842 174.776C257.876 178.187 259.358 181.431 261.146 184.447C261.567 185.227 262.084 185.928 262.558 186.665C263.031 187.41 263.566 188.085 264.083 188.795L265.504 190.733C265.96 191.329 266.345 191.952 266.775 192.565C267.582 193.81 268.318 195.099 268.949 196.423C269.633 197.729 270.142 199.097 270.633 200.473C271.08 201.867 271.465 203.27 271.72 204.708C271.948 206.146 272.149 207.592 272.176 209.048C272.246 211.959 271.851 214.878 270.939 217.649C270.019 220.401 268.607 222.997 266.731 225.171C265.793 226.258 264.732 227.231 263.592 228.055C263.023 228.485 262.418 228.853 261.804 229.204C261.497 229.362 261.173 229.546 260.866 229.677C260.568 229.791 260.287 229.94 259.989 230.037C259.779 230.107 259.568 230.168 259.358 230.221C259.454 229.923 259.551 229.616 259.647 229.318C260.138 227.67 260.524 225.977 260.682 224.18C260.831 222.392 260.822 220.454 259.989 218.446C259.577 217.456 258.876 216.465 257.938 215.755C257.017 215.045 255.939 214.597 254.922 214.378C254.413 214.282 253.896 214.203 253.405 214.168C252.905 214.159 252.458 214.107 251.862 214.177C251.301 214.203 250.713 214.352 250.135 214.527C249.845 214.65 249.565 214.782 249.284 214.913C249.004 215.062 248.749 215.255 248.486 215.439C247.469 216.219 246.777 217.298 246.373 218.359C245.953 219.428 245.821 220.48 245.786 221.489C245.733 223.523 246.172 225.408 246.873 227.196C247.601 228.967 248.635 230.633 250.029 232.08C251.02 233.079 252.221 233.973 253.58 234.604C254.141 234.868 254.72 235.078 255.325 235.227C255.798 235.35 256.28 235.446 256.763 235.499C258.411 235.692 260.085 235.508 261.576 235.052C262.067 234.911 262.523 234.71 262.996 234.543C263.452 234.359 263.847 234.149 264.276 233.947C265.1 233.526 265.916 233.07 266.679 232.544C268.23 231.518 269.633 230.309 270.904 228.976C275.972 223.602 278.62 216.351 278.848 209.092C278.9 207.268 278.804 205.444 278.567 203.647ZM257.078 223.926C256.973 225.942 256.552 228.064 255.939 230.124C255.053 229.826 254.22 229.292 253.466 228.59C251.625 226.845 250.336 224.04 250.275 221.524C250.222 220.252 250.608 219.218 251.125 218.779C251.388 218.534 251.748 218.367 252.274 218.306C252.493 218.253 252.87 218.271 253.177 218.262C253.501 218.262 253.799 218.306 254.097 218.341C255.255 218.569 256.009 219.007 256.491 220.024C256.982 221.024 257.14 222.462 257.078 223.926Z" fill="#E9408F" stroke="black" stroke-miterlimit="10" stroke-linecap="round" stroke-linejoin="round"/>
<path d="M256.754 235.49C254.579 237.919 252.019 240.084 249.021 241.583C247.285 242.399 245.435 242.969 243.533 243.188C241.639 243.416 239.701 243.258 237.886 242.819C234.222 241.934 230.987 240.005 228.199 237.708C225.402 235.385 222.964 232.728 220.895 229.765C220.79 229.607 220.825 229.397 220.983 229.283C221.141 229.178 221.342 229.204 221.456 229.344L221.474 229.362C223.657 232.097 226.226 234.578 229.04 236.63C231.846 238.664 234.984 240.303 238.298 240.908C239.947 241.215 241.63 241.268 243.243 240.978C244.865 240.698 246.417 240.128 247.872 239.356C250.012 238.138 251.905 236.489 253.571 234.596C254.132 234.859 254.711 235.069 255.316 235.218C255.789 235.341 256.28 235.437 256.754 235.49Z" fill="#E9408F" stroke="black" stroke-miterlimit="10" stroke-linecap="round" stroke-linejoin="round"/>
<path d="M209.428 148.229C209.331 148.781 209.209 149.36 208.84 149.974C208.639 150.272 208.393 150.596 208.016 150.824C207.648 151.07 207.192 151.166 206.798 151.175C205.982 151.166 205.43 150.868 204.921 150.587C204.422 150.298 204.018 149.965 203.624 149.632C202.081 148.238 200.889 146.703 199.758 145.099C199.056 144.126 198.407 143.091 197.82 142.03L199.372 141.303C199.933 142.25 200.547 143.153 201.222 144.029C202.318 145.52 203.563 146.984 204.895 148.124C205.237 148.396 205.588 148.667 205.912 148.834C206.245 149.018 206.596 149.132 206.745 149.114C206.894 149.079 206.885 149.106 207.034 148.887C207.157 148.676 207.262 148.308 207.306 147.913C207.482 146.3 207.148 144.415 206.701 142.653C206.342 141.25 205.877 139.856 205.334 138.506C205.176 138.147 205.027 137.778 204.869 137.419C203.826 135.052 202.528 132.772 200.967 130.756C200.301 129.897 199.591 129.081 198.828 128.345C198.267 127.81 197.68 127.319 197.075 126.881C197.355 125.925 197.723 124.996 198.171 124.101C199.135 124.768 200.012 125.53 200.81 126.346C201.818 127.389 202.721 128.503 203.536 129.669C205.018 131.799 206.201 134.096 207.166 136.454C207.306 136.788 207.438 137.13 207.56 137.471C208.122 138.988 208.595 140.54 208.963 142.118C209.182 143.091 209.358 144.073 209.454 145.09C209.542 146.09 209.594 147.116 209.428 148.229Z" fill="#E9408F" stroke="black" stroke-miterlimit="10" stroke-linecap="round" stroke-linejoin="round"/>
<path d="M207.245 227.599C207.166 227.424 206.964 227.345 206.789 227.415L206.78 227.424C205.07 228.178 203.212 228.546 201.362 228.757C199.503 228.976 197.627 229.02 195.751 228.932C194.804 228.897 193.866 228.836 192.928 228.748C192.577 229.537 192.235 230.326 191.875 231.098C193.173 231.124 194.479 231.089 195.786 231.001C197.741 230.87 199.696 230.607 201.616 230.159C203.518 229.695 205.403 229.064 207.113 228.038C207.253 227.95 207.315 227.766 207.245 227.599Z" fill="#E9408F" stroke="black" stroke-miterlimit="10" stroke-linecap="round" stroke-linejoin="round"/>
<path d="M224.587 183.105C224.297 185.446 223.517 187.822 222.254 189.926C220.992 192.022 219.282 193.766 217.432 195.116C213.698 197.834 209.559 199.237 205.526 200.114C205.36 200.149 205.176 200.184 205.009 200.21C201.117 200.973 197.241 201.271 193.401 201.306C191.394 201.306 189.403 201.218 187.413 201.078C186.422 201.008 185.432 200.912 184.441 200.815L182.977 200.657L181.688 200.552C180.68 200.456 179.689 200.456 178.716 200.5C178.023 200.535 177.331 200.596 176.647 200.666C175.043 200.955 173.447 201.297 172.035 201.999C170.615 202.656 169.3 203.516 168.204 204.603C167.134 205.699 166.258 207.005 165.697 208.434C164.522 211.318 164.68 214.352 166.433 217.008C167.082 218.025 167.915 218.955 168.853 219.814L166.731 223.978C165.162 222.839 163.671 221.489 162.418 219.814C161.067 218.017 160.059 215.799 159.726 213.431C159.375 211.055 159.726 208.679 160.462 206.514C161.216 204.34 162.409 202.332 163.926 200.614C165.469 198.913 167.319 197.527 169.326 196.484C171.325 195.388 173.491 194.827 175.63 194.38C177.769 194.047 179.935 193.88 182.03 194.003C182.039 194.003 182.039 194.003 182.048 194.003L183.626 194.073L185.028 194.17C185.949 194.231 186.87 194.292 187.79 194.327C189.623 194.389 191.464 194.406 193.296 194.345C196.943 194.24 200.564 193.871 203.983 193.091C205.421 192.767 206.842 192.364 208.174 191.864C210.007 191.197 211.699 190.356 213.128 189.286C214.346 188.366 215.39 187.34 216.109 186.156C216.836 184.973 217.301 183.649 217.503 182.193C217.696 180.747 217.66 179.116 217.38 177.669C217.099 176.197 216.538 174.82 215.732 173.558C214.154 170.998 211.488 168.937 208.446 167.412C205.386 165.921 201.923 164.887 198.469 164.431C197.61 164.317 196.742 164.238 195.935 164.212H194.559C194.041 164.22 193.515 164.194 192.98 164.177C190.859 164.071 188.693 163.747 186.589 163.081C184.485 162.432 182.468 161.441 180.662 160.179C178.856 158.916 177.261 157.408 175.902 155.769C175.551 155.357 175.253 154.927 174.929 154.506L174.455 153.875L174.026 153.217L174.008 153.191L179.067 150.815L179.347 151.166C179.619 151.499 179.865 151.859 180.154 152.165C182.39 154.725 185.142 156.593 188.281 157.461C189.851 157.908 191.508 158.127 193.208 158.162C193.638 158.171 194.059 158.18 194.497 158.153L195.988 158.118C197.092 158.118 198.136 158.188 199.188 158.294C203.335 158.741 207.359 159.767 211.243 161.511C213.18 162.397 215.057 163.484 216.819 164.834C218.572 166.184 220.194 167.841 221.501 169.77C222.798 171.699 223.771 173.908 224.253 176.197C224.736 178.502 224.867 180.756 224.587 183.105Z" fill="#E9408F" stroke="black" stroke-miterlimit="10" stroke-linecap="round" stroke-linejoin="round"/>
<path d="M206.245 115.255L206.219 115.273C203.098 117.35 200.389 120.156 198.539 123.382C198.407 123.619 198.285 123.856 198.162 124.101C197.715 124.987 197.338 125.925 197.066 126.881C196.496 128.766 196.251 130.738 196.408 132.693L195.023 133.281C194.9 131.615 195.014 129.94 195.383 128.318C195.549 127.599 195.751 126.889 196.005 126.188C195.532 125.899 195.049 125.662 194.541 125.469C192.989 124.855 191.35 124.697 189.763 125.004C188.281 125.267 186.791 126.214 185.607 127.328C185.519 127.407 185.44 127.485 185.37 127.564C186.466 128.239 187.466 129.029 188.377 129.888C189.859 131.264 191.113 132.816 192.165 134.499C192.244 134.605 192.305 134.719 192.375 134.824C192.945 135.709 193.401 136.665 193.857 137.62L194.444 139.085C194.541 139.313 194.629 139.611 194.716 139.9C194.804 140.189 194.892 140.461 194.944 140.759C195.128 141.592 195.216 142.425 195.225 143.249C195.242 144.731 194.988 146.186 194.541 147.554C193.839 149.684 192.726 151.683 190.92 153.305C190.008 154.094 188.886 154.822 187.457 155.12C186.738 155.234 185.966 155.278 185.221 155.094L184.66 154.962C184.494 154.901 184.318 154.822 184.152 154.752C183.792 154.612 183.494 154.427 183.196 154.226C182.039 153.419 181.302 152.402 180.724 151.411C180.531 151.043 180.347 150.675 180.189 150.307L183.731 148.65C183.854 148.93 183.994 149.193 184.134 149.448C184.529 150.088 184.985 150.622 185.423 150.894C185.852 151.166 186.186 151.21 186.642 151.131C187.097 151.026 187.659 150.701 188.167 150.228C189.21 149.272 190.034 147.799 190.482 146.291C190.569 145.993 190.648 145.686 190.701 145.388C190.955 144.152 190.955 142.89 190.666 141.741C190.639 141.566 190.569 141.39 190.517 141.224C190.464 141.057 190.42 140.882 190.315 140.672L189.807 139.488C189.412 138.725 189.035 137.945 188.544 137.235C188.342 136.928 188.132 136.612 187.922 136.323C187.141 135.227 186.238 134.219 185.256 133.333C184.52 132.667 183.722 132.071 182.898 131.589C182.828 131.755 182.758 131.922 182.687 132.088L182.521 132.711C182.424 133.132 182.275 133.535 182.197 133.965L181.995 135.253C181.96 135.472 181.916 135.683 181.898 135.902L181.863 136.568L181.793 137.901C181.767 138.234 181.802 138.576 181.819 138.909L178.19 140.461L178.155 139.348C178.155 138.839 178.102 138.331 178.146 137.822L178.251 136.279L178.313 135.508C178.339 135.253 178.4 134.999 178.435 134.745L178.716 133.202C178.821 132.693 179.014 132.185 179.145 131.685L179.373 130.931C179.461 130.729 179.54 130.528 179.628 130.335L179.549 130.317L179.058 130.282C178.716 130.221 178.444 130.317 178.146 130.309C178.014 130.344 177.892 130.396 177.769 130.414C177.708 130.431 177.637 130.44 177.576 130.458L177.418 130.545C177.322 130.607 177.182 130.642 177.12 130.703C177.059 130.773 177.006 130.764 176.901 130.896C176.708 131.063 176.507 131.334 176.296 131.606C175.902 132.194 175.542 132.886 175.27 133.614C174.288 136.165 174.166 139.093 174.779 141.899L169.843 144.003C168.87 140.049 168.958 135.683 170.58 131.729C171.009 130.686 171.544 129.66 172.254 128.687C172.631 128.196 173.017 127.713 173.543 127.24C173.762 127.012 174.131 126.758 174.446 126.539C174.771 126.319 175.086 126.205 175.419 126.048L175.91 125.828C176.077 125.776 176.252 125.732 176.41 125.688C176.752 125.609 177.094 125.522 177.436 125.469C178.085 125.434 178.777 125.337 179.382 125.434C179.689 125.469 180.005 125.495 180.32 125.53L181.206 125.732C181.565 125.811 181.89 125.916 182.214 126.039C182.565 125.636 182.942 125.25 183.345 124.89C184.169 124.18 185.037 123.505 186.01 123.014C186.501 122.751 187.001 122.523 187.536 122.322C187.799 122.225 188.079 122.137 188.413 122.059L189.21 121.901C191.385 121.532 193.699 121.839 195.681 122.707C196.224 122.935 196.741 123.198 197.232 123.488C197.346 123.26 197.469 123.049 197.601 122.83C199.679 119.481 202.537 116.719 205.868 114.668C206.035 114.562 206.236 114.615 206.342 114.773C206.447 114.948 206.403 115.15 206.245 115.255Z" fill="#E9408F" stroke="black" stroke-miterlimit="10" stroke-linecap="round" stroke-linejoin="round"/>
<path d="M197.241 123.496C197.241 123.496 196.452 124.794 196.014 126.188" stroke="#010202" stroke-miterlimit="10" stroke-linecap="round" stroke-linejoin="round"/>
<path d="M182.223 126.039C182.223 126.039 184.108 126.512 185.37 127.564" stroke="#010202" stroke-miterlimit="10" stroke-linecap="round" stroke-linejoin="round"/>
<path d="M179.549 130.308C179.549 130.308 181.215 130.3 182.88 131.589" stroke="#010202" stroke-miterlimit="10" stroke-linecap="round" stroke-linejoin="round"/>
<path d="M123.508 270.156C123.508 270.156 123.236 270.831 123.605 274.882" stroke="#010202" stroke-miterlimit="10" stroke-linecap="round" stroke-linejoin="round"/>
<path d="M255.938 230.124C255.938 230.124 257.49 230.931 259.34 230.221" stroke="#010202" stroke-miterlimit="10" stroke-linecap="round" stroke-linejoin="round"/>
<path d="M121.185 3.72603L120.211 3.46301" stroke="black" stroke-miterlimit="10" stroke-linecap="round" stroke-linejoin="round"/>
<path d="M120.396 5.7074C120.396 5.7074 119.335 5.93535 118.914 6.6192" stroke="black" stroke-miterlimit="10" stroke-linecap="round" stroke-linejoin="round"/>
</svg>
