<svg width="256" height="344" viewBox="0 0 256 344" fill="none" xmlns="http://www.w3.org/2000/svg">
<path d="M62.0361 339.14C61.8961 339.14 61.7661 339.11 61.6361 339.06L25.9861 323.59C25.6561 323.45 25.4261 323.14 25.3861 322.78L18.6261 260.35C18.5761 259.85 18.9061 259.38 19.3961 259.27L26.8061 257.56L26.7961 257.27L25.3361 238.49C25.2961 237.97 25.6661 237.5 26.1861 237.42L108.976 225.03C109.026 225.02 109.076 225.02 109.126 225.02C109.236 225.02 109.336 225.04 109.446 225.07L126.366 230.71C126.726 230.83 126.986 231.14 127.036 231.52L129.746 250.69L137.846 256.58C138.066 256.74 138.206 256.98 138.246 257.25L147.076 318.58C147.146 319.09 146.816 319.58 146.306 319.7L62.2561 339.11C62.1861 339.14 62.1061 339.14 62.0361 339.14Z" fill="black" fill-opacity="0.5"/>
<path d="M109.126 226.02L126.046 231.66L128.856 251.52L129.116 251.47L137.266 257.4L146.096 318.73L62.046 338.14L26.396 322.67L19.636 260.24L27.856 258.34L27.806 257.22L26.346 238.41L109.126 226.02ZM109.126 224.02C109.026 224.02 108.926 224.03 108.826 224.04L26.036 236.43C24.996 236.59 24.256 237.52 24.336 238.56L25.756 256.77L19.176 258.29C18.186 258.52 17.526 259.45 17.636 260.45L24.396 322.88C24.476 323.59 24.926 324.21 25.586 324.5L61.236 339.97C61.486 340.08 61.756 340.14 62.036 340.14C62.186 340.14 62.336 340.12 62.486 340.09L146.536 320.68C147.546 320.45 148.216 319.48 148.066 318.45L139.236 257.12C139.156 256.59 138.866 256.11 138.436 255.79L130.676 250.14L128.026 231.39C127.916 230.64 127.396 230.01 126.676 229.77L109.756 224.13C109.556 224.06 109.336 224.02 109.126 224.02Z" fill="black" fill-opacity="0.5"/>
<path d="M62.036 338.14L26.386 322.68L19.626 260.25L54.236 272.63L62.036 338.14Z" fill="#4F4131" stroke="black" stroke-miterlimit="10" stroke-linecap="round" stroke-linejoin="round"/>
<path d="M146.086 318.73L62.0361 338.14L54.2361 272.63L137.256 257.4L146.086 318.73Z" fill="#4F4131" stroke="black" stroke-miterlimit="10" stroke-linecap="round" stroke-linejoin="round"/>
<path d="M137.256 257.4L54.236 272.63L19.626 260.25L27.846 258.35L27.876 259.11L50.846 267.5L129.106 251.47L137.256 257.4Z" fill="#4F4131" stroke="black" stroke-miterlimit="10" stroke-linecap="round" stroke-linejoin="round"/>
<path d="M50.8459 267.5L27.8759 259.11L27.7959 257.23L26.3359 238.41L47.5959 244.34L48.9559 254.03L50.8459 267.5Z" fill="#4F4131" stroke="black" stroke-miterlimit="10" stroke-linecap="round" stroke-linejoin="round"/>
<path d="M128.996 252.56L50.8459 267.5L48.9559 254.03L47.5959 244.34L126.036 231.67L128.996 252.56Z" fill="#4A4246" stroke="black" stroke-miterlimit="10" stroke-linecap="round" stroke-linejoin="round"/>
<path d="M126.036 231.67L47.5959 244.34L26.3359 238.41L109.126 226.02L126.036 231.67Z" fill="white" stroke="black" stroke-miterlimit="10" stroke-linecap="round" stroke-linejoin="round"/>
<path d="M126.036 231.67L47.5959 244.34L26.3359 238.41L109.126 226.02L126.036 231.67Z" fill="#4F4131" stroke="black" stroke-miterlimit="10" stroke-linecap="round" stroke-linejoin="round"/>
<path d="M52.2859 248.82L54.4959 263.71L124.346 250L122.396 236.97L52.2859 248.82Z" fill="#F7AD39" stroke="black" stroke-miterlimit="10" stroke-linecap="round" stroke-linejoin="round"/>
<path d="M60.0461 259.1L58.6761 259.22C56.8861 259.38 55.2761 257.8 55.0861 255.67C54.8961 253.56 56.1961 251.71 57.9861 251.54L59.3561 251.42C57.5561 251.58 56.2561 253.43 56.4461 255.55C56.6361 257.68 58.2561 259.26 60.0461 259.1Z" fill="#8F80BB" stroke="black" stroke-miterlimit="10" stroke-linecap="round" stroke-linejoin="round"/>
<path d="M62.9459 254.97C63.1359 257.09 61.8359 258.94 60.0459 259.1C58.2459 259.26 56.6359 257.68 56.4459 255.56C56.2559 253.45 57.5559 251.6 59.3559 251.43C61.1459 251.27 62.7559 252.86 62.9459 254.97Z" fill="#8F80BB" stroke="black" stroke-miterlimit="10" stroke-linecap="round" stroke-linejoin="round"/>
<path d="M69.9259 257.22L68.556 257.34C66.766 257.5 65.1559 255.92 64.9659 253.79C64.7759 251.68 66.076 249.83 67.866 249.66L69.236 249.54C67.436 249.7 66.1359 251.55 66.3259 253.67C66.5159 255.79 68.1259 257.38 69.9259 257.22Z" fill="#8F80BB" stroke="black" stroke-miterlimit="10" stroke-linecap="round" stroke-linejoin="round"/>
<path d="M72.8261 253.08C73.0161 255.2 71.7161 257.05 69.9261 257.21C68.1261 257.37 66.5161 255.79 66.3261 253.67C66.1361 251.56 67.4361 249.71 69.2361 249.54C71.0261 249.38 72.6361 250.97 72.8261 253.08Z" fill="#8F80BB" stroke="black" stroke-miterlimit="10" stroke-linecap="round" stroke-linejoin="round"/>
<path d="M79.8061 255.33L78.4361 255.45C76.6461 255.61 75.0361 254.03 74.8461 251.9C74.6561 249.79 75.9561 247.94 77.7461 247.77L79.1161 247.65C77.3161 247.81 76.0161 249.66 76.2061 251.78C76.3961 253.9 78.0061 255.49 79.8061 255.33Z" fill="white" stroke="black" stroke-miterlimit="10" stroke-linecap="round" stroke-linejoin="round"/>
<path d="M82.7059 251.2C82.8959 253.32 81.5959 255.17 79.8059 255.33C78.0059 255.49 76.3959 253.91 76.2059 251.79C76.0159 249.68 77.3159 247.83 79.1159 247.66C80.9059 247.5 82.5159 249.08 82.7059 251.2Z" fill="white" stroke="black" stroke-miterlimit="10" stroke-linecap="round" stroke-linejoin="round"/>
<path d="M89.686 253.44L88.316 253.56C86.526 253.72 84.916 252.14 84.726 250.01C84.536 247.9 85.836 246.05 87.626 245.88L88.996 245.76C87.196 245.92 85.896 247.77 86.086 249.89C86.276 252.02 87.886 253.61 89.686 253.44Z" fill="white" stroke="black" stroke-miterlimit="10" stroke-linecap="round" stroke-linejoin="round"/>
<path d="M92.5861 249.31C92.7761 251.43 91.4761 253.28 89.6861 253.44C87.8861 253.6 86.2761 252.02 86.0861 249.9C85.8961 247.79 87.1961 245.94 88.9961 245.77C90.7861 245.61 92.3961 247.2 92.5861 249.31Z" fill="white" stroke="black" stroke-miterlimit="10" stroke-linecap="round" stroke-linejoin="round"/>
<path d="M99.5661 251.56L98.1961 251.68C96.4061 251.84 94.7961 250.26 94.6061 248.13C94.4161 246.02 95.7161 244.17 97.5061 244L98.8761 243.88C97.0761 244.04 95.7761 245.89 95.9661 248.01C96.1561 250.13 97.7661 251.72 99.5661 251.56Z" fill="white" stroke="black" stroke-miterlimit="10" stroke-linecap="round" stroke-linejoin="round"/>
<path d="M102.466 247.42C102.656 249.54 101.356 251.39 99.5659 251.55C97.7659 251.71 96.1559 250.13 95.9659 248.01C95.7759 245.9 97.0759 244.05 98.8759 243.88C100.656 243.72 102.276 245.31 102.466 247.42Z" fill="#8F80BB" stroke="black" stroke-miterlimit="10" stroke-linecap="round" stroke-linejoin="round"/>
<path d="M109.446 249.67L108.076 249.79C106.286 249.95 104.676 248.37 104.486 246.24C104.296 244.13 105.596 242.28 107.386 242.11L108.756 241.99C106.956 242.15 105.656 244 105.846 246.12C106.036 248.25 107.646 249.83 109.446 249.67Z" fill="white" stroke="black" stroke-miterlimit="10" stroke-linecap="round" stroke-linejoin="round"/>
<path d="M112.346 245.54C112.536 247.66 111.236 249.51 109.446 249.67C107.646 249.83 106.036 248.25 105.846 246.13C105.656 244.02 106.956 242.17 108.756 242C110.536 241.84 112.146 243.42 112.346 245.54Z" fill="white" stroke="black" stroke-miterlimit="10" stroke-linecap="round" stroke-linejoin="round"/>
<path d="M119.316 247.78L117.946 247.9C116.156 248.06 114.546 246.48 114.356 244.35C114.166 242.24 115.466 240.39 117.256 240.22L118.626 240.1C116.826 240.26 115.526 242.11 115.716 244.23C115.916 246.36 117.526 247.95 119.316 247.78Z" fill="white" stroke="black" stroke-miterlimit="10" stroke-linecap="round" stroke-linejoin="round"/>
<path d="M122.216 243.65C122.406 245.77 121.106 247.62 119.316 247.78C117.516 247.94 115.906 246.36 115.716 244.24C115.526 242.13 116.826 240.28 118.626 240.11C120.416 239.95 122.026 241.54 122.216 243.65Z" fill="white" stroke="black" stroke-miterlimit="10" stroke-linecap="round" stroke-linejoin="round"/>
<path d="M24.0159 265.32L30.0859 319.76L58.1959 331.57L51.0059 275.52L24.0159 265.32Z" fill="#2D241C" stroke="black" stroke-miterlimit="10" stroke-linecap="round" stroke-linejoin="round"/>
<path d="M61.4061 280.25L67.7261 326.79C67.9961 328.76 69.9161 330.06 71.8461 329.57L139.616 314.67C141.236 314.26 142.296 312.72 142.106 311.06L135.636 266.79C135.416 264.83 133.546 263.5 131.626 263.91L64.0161 276.54C62.2961 276.91 61.1661 278.53 61.4061 280.25Z" fill="#775755" stroke="black" stroke-miterlimit="10" stroke-linecap="round" stroke-linejoin="round"/>
<path d="M139.23 292.35L144.21 297.54L140.77 303.05L139.23 292.35ZM139.23 290.35C138.93 290.35 138.63 290.42 138.35 290.55C137.57 290.93 137.12 291.77 137.25 292.63L138.79 303.33C138.91 304.16 139.54 304.83 140.36 305C140.5 305.03 140.64 305.04 140.77 305.04C141.45 305.04 142.1 304.69 142.47 304.1L145.91 298.59C146.4 297.81 146.29 296.81 145.66 296.14L140.68 290.95C140.28 290.56 139.76 290.35 139.23 290.35Z" fill="black"/>
<path d="M10.6801 180.19C10.7801 180.19 10.8701 180.22 10.9501 180.29C12.7901 181.97 14.4801 183.77 15.9801 185.78C16.6701 186.73 17.3301 187.73 17.8501 188.83C18.3501 188.85 18.8501 188.91 19.3401 189.05C19.7101 189.16 20.0801 189.29 20.4201 189.46L20.9301 189.73C21.1201 189.85 21.3601 190 21.5501 190.2C21.9701 190.58 22.2701 191.16 22.3901 191.68C22.5201 192.22 22.4901 192.68 22.4501 193.11C22.3401 193.95 22.1001 194.61 21.8501 195.25C21.3401 196.51 20.7401 197.62 20.1401 198.72C17.7101 203.06 15.2501 207.19 13.2501 211.55C11.2201 215.88 9.60011 220.36 8.56011 224.96C7.51011 229.55 7.08011 234.25 7.25011 238.91C7.42011 243.57 8.20011 248.21 9.51011 252.7C10.1601 254.95 10.9401 257.15 11.8401 259.33C12.7601 261.53 13.7001 263.72 14.7601 265.83C16.8701 270.03 19.3001 274.08 22.2701 277.29C23.7501 278.88 25.3701 280.24 27.0401 281.07C28.3801 281.78 29.7201 282.11 31.0001 282.11C31.3101 282.11 31.6101 282.09 31.9201 282.05C32.9901 281.92 34.0801 281.53 35.1301 280.94C33.2601 279.11 31.8901 276.67 31.4001 274.1C31.0601 272.5 31.0101 270.86 31.2701 269.24C31.5201 267.62 32.0201 265.99 32.9901 264.41C33.2101 264.01 33.5101 263.62 33.8301 263.24C34.1201 262.85 34.5201 262.48 34.9201 262.13C35.2801 261.77 35.8401 261.46 36.3301 261.15C36.8401 260.87 37.5001 260.64 38.0401 260.47C38.8501 260.28 39.6901 260.11 40.6501 260.11C40.7401 260.11 40.8401 260.11 40.9401 260.12C42.0001 260.15 43.1601 260.36 44.2601 260.86C45.3501 261.37 46.3101 262.13 47.0401 262.97C47.7801 263.82 48.2901 264.72 48.6601 265.61C49.4101 267.39 49.6201 269.09 49.6701 270.71C49.7001 273.94 48.8801 276.93 47.4701 279.7C47.4601 279.71 47.4601 279.72 47.4501 279.73C48.2901 279.82 49.1501 279.86 50.0201 279.86C50.7801 279.86 51.5501 279.83 52.3201 279.77C52.8901 279.75 53.4701 279.7 54.0501 279.62L55.7901 279.41C56.9501 279.19 58.1201 279.02 59.2901 278.76C63.9801 277.8 68.6201 276.32 73.2901 274.78C73.3301 274.77 73.3801 274.76 73.4201 274.76C73.5901 274.76 73.7401 274.86 73.8001 275.03C73.8601 275.21 73.7901 275.4 73.6301 275.5C69.4401 278.14 65.0101 280.41 60.3101 282.24C59.1401 282.71 57.9101 283.06 56.7101 283.47L54.8501 283.97C54.2301 284.15 53.6001 284.3 52.9601 284.41C51.0201 284.84 48.9901 285.07 46.9001 285.07C46.2601 285.07 45.6101 285.05 44.9601 285C44.4701 284.96 43.9701 284.9 43.4701 284.83C42.8201 285.43 42.1501 286.01 41.4201 286.54C38.9801 288.31 35.9401 289.64 32.6101 289.89C32.2801 289.91 31.9601 289.92 31.6301 289.92C28.6401 289.92 25.7201 288.99 23.4001 287.58C20.7701 286.04 18.7401 284.03 16.9801 281.96C13.4801 277.78 11.0801 273.18 9.01011 268.55C7.96011 266.24 7.04011 263.89 6.16011 261.54C5.28011 259.15 4.52011 256.71 3.89011 254.23C2.64011 249.27 1.96011 244.14 1.97011 239.01C2.00011 233.88 2.72011 228.76 4.07011 223.86C5.41011 218.95 7.36011 214.25 9.69011 209.81C12.0101 205.37 14.7901 201.21 17.3701 197.13C18.0001 196.11 18.6101 195.09 19.0701 194.1C19.3001 193.61 19.4901 193.11 19.5501 192.74C19.5801 192.56 19.5901 192.4 19.5801 192.34C19.5601 192.28 19.5901 192.27 19.5501 192.24C19.5301 192.21 19.5101 192.2 19.4501 192.15L19.1601 191.98C19.0101 191.89 18.8601 191.83 18.7001 191.77C18.7401 192.2 18.7401 192.63 18.6701 193.09C18.5501 193.83 18.2001 194.56 17.7201 195.15C17.2301 195.74 16.6201 196.16 16.0001 196.49C15.3701 196.81 14.7301 197.04 14.1201 197.23C13.4801 197.39 12.8501 197.58 12.0701 197.58C12.0601 197.58 12.0401 197.58 12.0301 197.58C12.0201 197.58 12.0101 197.58 11.9901 197.58C11.8001 197.58 11.5901 197.55 11.4001 197.53C11.1701 197.48 10.9301 197.42 10.6901 197.3C10.1701 197.08 9.68011 196.48 9.57011 195.89C9.37011 194.72 9.79011 194 10.1301 193.35C10.8801 192.07 11.8901 191.13 13.0401 190.34C14.0001 189.7 15.1101 189.22 16.3301 188.99C15.9501 188.14 15.4801 187.32 14.9601 186.52C13.6601 184.51 12.0901 182.63 10.4101 180.9L10.4001 180.89C10.2501 180.73 10.2501 180.48 10.4101 180.33C10.4801 180.22 10.5801 180.19 10.6801 180.19ZM17.0201 192.75C16.9101 193.21 16.6901 193.61 16.3801 193.95C16.6901 193.6 16.9101 193.21 17.0201 192.75ZM12.0601 194.48C12.1601 194.32 12.2801 194.17 12.4101 194.02C12.2901 194.17 12.1601 194.32 12.0601 194.48ZM13.4701 195.32C13.0301 195.42 12.5901 195.47 12.2201 195.48C12.5901 195.48 13.0201 195.42 13.4701 195.32C14.0601 195.19 14.6701 194.99 15.1701 194.77C15.4001 194.66 15.6301 194.54 15.8301 194.4C15.6201 194.54 15.4001 194.66 15.1701 194.77C14.6701 195 14.0601 195.19 13.4701 195.32ZM39.8601 267.96C39.8701 267.95 39.8801 267.94 39.8601 267.94C39.8601 267.95 39.8501 267.96 39.8401 267.96C39.8301 267.96 39.8201 267.96 39.8101 267.96C39.7901 267.96 39.7701 267.97 39.7501 268C39.6901 268.05 39.6201 268.06 39.5401 268.18C39.4601 268.26 39.3701 268.34 39.2801 268.48C38.9301 268.96 38.6101 269.69 38.4301 270.47C38.2401 271.26 38.2301 272.11 38.3101 272.92C38.4401 274.23 38.9401 275.44 39.7901 276.44C39.9001 276.25 40.0201 276.08 40.1201 275.88C40.9601 274.3 41.4301 272.42 41.4601 270.75C41.4701 269.93 41.3701 269.15 41.1801 268.67C40.9901 268.13 40.8301 268.08 40.8401 268.03C40.8301 268 40.7601 267.97 40.6101 267.94C40.5601 267.93 40.5001 267.92 40.4301 267.92C40.2701 267.9 40.0701 267.93 39.8601 267.96ZM10.6801 178.19C10.0501 178.19 9.46011 178.43 9.01011 178.87C8.06011 179.79 8.04011 181.31 8.96011 182.26C10.7001 184.05 12.1501 185.84 13.2801 187.59C13.3301 187.67 13.3801 187.74 13.4201 187.81C12.9101 188.05 12.4101 188.32 11.9301 188.64C10.3601 189.72 9.22011 190.91 8.40011 192.3C8.38011 192.33 8.37011 192.36 8.35011 192.39L8.31011 192.48C7.93011 193.2 7.30011 194.41 7.60011 196.19C7.60011 196.21 7.61011 196.23 7.61011 196.24C7.85011 197.46 8.76011 198.61 9.88011 199.1C10.2301 199.26 10.6001 199.38 11.0101 199.46C11.0701 199.47 11.1401 199.48 11.2001 199.49L11.3301 199.5C11.5201 199.52 11.7501 199.55 12.0101 199.55C12.0201 199.55 12.0401 199.55 12.0601 199.55H12.0901C12.6401 199.55 13.1401 199.48 13.5701 199.4C11.6301 202.44 9.67011 205.57 7.94011 208.87C5.41011 213.7 3.46011 218.56 2.17011 223.32C0.770109 228.42 0.0301103 233.69 0.000110302 238.99C-0.0098897 244.19 0.660108 249.47 1.99011 254.72C2.61011 257.19 3.40011 259.72 4.32011 262.23C5.17011 264.5 6.11011 266.93 7.23011 269.38C9.13011 273.62 11.6101 278.6 15.4901 283.24C16.9401 284.95 19.2401 287.44 22.4401 289.31C25.2001 290.99 28.4901 291.93 31.6801 291.93C32.0501 291.93 32.4301 291.92 32.7901 291.89C36.2201 291.63 39.6201 290.35 42.6301 288.17C43.1301 287.81 43.6301 287.4 44.1601 286.94C44.3901 286.97 44.6201 286.99 44.8301 287.01C45.5501 287.06 46.2501 287.08 46.9301 287.08C49.1001 287.08 51.2701 286.84 53.3801 286.38C54.0201 286.26 54.6901 286.11 55.4201 285.9L57.2501 285.41C57.2901 285.4 57.3401 285.38 57.3801 285.37C57.7801 285.23 58.1901 285.1 58.6001 284.97C59.4101 284.71 60.2501 284.44 61.0801 284.11C65.7101 282.31 70.3101 279.98 74.7301 277.2C75.6801 276.59 76.0801 275.44 75.7201 274.39C75.3901 273.42 74.4801 272.76 73.4501 272.76C73.1901 272.76 72.9301 272.8 72.6801 272.89C68.0401 274.42 63.4901 275.87 58.9201 276.8C58.1901 276.96 57.4901 277.09 56.7401 277.21C56.3301 277.28 55.9201 277.35 55.5201 277.43L53.8401 277.63C53.2401 277.71 52.7401 277.75 52.2901 277.77C52.2601 277.77 52.2201 277.77 52.1901 277.78C51.6001 277.82 51.0201 277.85 50.4601 277.86C51.2901 275.52 51.7101 273.12 51.6901 270.7C51.6401 269.13 51.4701 267.09 50.5201 264.84C50.0101 263.62 49.3701 262.58 48.5601 261.66C47.6101 260.57 46.4201 259.66 45.1301 259.06C43.8801 258.48 42.5001 258.17 41.0301 258.13C40.9201 258.13 40.8001 258.12 40.6801 258.12C39.5101 258.12 38.5101 258.32 37.6001 258.54C37.5601 258.55 37.5201 258.56 37.4801 258.57C36.6301 258.83 35.9301 259.11 35.3901 259.41C35.3601 259.43 35.3301 259.45 35.3001 259.46L35.0601 259.61C34.5801 259.9 34.0501 260.23 33.5901 260.67C33.1401 261.07 32.6801 261.5 32.3001 262C31.8701 262.52 31.5501 262.97 31.3101 263.4C30.3101 265.05 29.6701 266.86 29.3401 268.94C29.0501 270.8 29.1001 272.68 29.4901 274.52C29.8601 276.47 30.6701 278.37 31.8301 280.06C31.7901 280.07 31.7601 280.07 31.7201 280.07C31.4901 280.1 31.2701 280.11 31.0401 280.11C30.0501 280.11 29.0201 279.84 28.0101 279.3C26.6501 278.62 25.2001 277.46 23.7801 275.93C21.3001 273.25 19.0201 269.76 16.6001 264.93C15.5401 262.81 14.6001 260.62 13.7401 258.56C12.8601 256.42 12.1001 254.25 11.4901 252.14C10.2001 247.71 9.46011 243.24 9.31011 238.84C9.14011 234.33 9.56011 229.81 10.5701 225.41C11.5201 221.19 13.0501 216.81 15.1201 212.41C16.7001 208.95 18.5601 205.68 20.5301 202.21C21.0001 201.38 21.4701 200.55 21.9501 199.71C22.6001 198.51 23.2301 197.35 23.7701 196.02C24.0701 195.25 24.3701 194.44 24.5001 193.38C24.5001 193.36 24.5001 193.35 24.5101 193.33C24.5701 192.75 24.6001 192.05 24.4001 191.23C24.1701 190.27 23.6501 189.37 22.9801 188.76C22.6501 188.44 22.2901 188.2 22.0401 188.05C22.0001 188.02 21.9501 188 21.9101 187.98L21.4001 187.71C20.9101 187.46 20.4301 187.3 19.9801 187.16C19.7101 187.08 19.4501 187.02 19.1801 186.98C18.7601 186.24 18.2601 185.47 17.6501 184.62C16.1801 182.64 14.4501 180.75 12.3601 178.83C11.8501 178.41 11.2701 178.19 10.6801 178.19Z" fill="black"/>
<path d="M171.67 0.83007C171.55 0.65007 171.3 0.600071 171.12 0.720071C170.96 0.820071 170.9 1.02007 170.97 1.19007C171.83 3.55007 171.95 6.05007 171.31 8.30007C170.67 10.5501 169.4 12.5601 167.73 14.1401C166.08 15.7401 164.08 16.9601 161.95 17.8001C160.9 18.2601 159.77 18.5201 158.67 18.8201C157.53 19.0101 156.42 19.2501 155.26 19.2701C154.12 19.4101 152.96 19.2801 151.82 19.2601L147.94 19.0401C145.32 18.9101 142.66 18.8501 139.96 18.9301C134.58 19.1501 128.9 20.0101 123.53 22.6301C120.88 23.9601 118.37 25.7601 116.27 27.9401C114.15 30.1101 112.47 32.6601 111.2 35.2901C109.92 37.9401 109.06 40.6601 108.43 43.4501C108.08 45.0401 107.87 46.6801 107.78 48.3401C106.34 48.8401 104.94 49.5201 103.63 50.4201C101.09 52.1301 98.9701 54.7701 98.0501 57.7901C97.1401 60.8001 97.2701 63.9001 97.9301 66.6601C98.0701 67.3601 98.3201 68.0201 98.5101 68.7001C98.6201 69.0301 98.7101 69.3801 98.8301 69.7001L99.2201 70.6601C99.4901 71.2901 99.7301 71.9501 100.03 72.5601L100.96 74.3701L101.43 75.2701L101.96 76.1301L103.01 77.8401C103.73 78.9701 104.53 80.0201 105.29 81.1101C108.46 85.3201 112 89.2701 116.1 92.6301C117.13 93.4701 118.16 94.3001 119.26 95.0401C120.32 95.8301 121.47 96.5101 122.59 97.2101C124.9 98.5201 127.29 99.6901 129.8 100.56C134.82 102.3 140.19 102.98 145.42 102.45C150.65 101.9 155.74 100.37 160.25 97.6801C160.44 97.5701 160.5 97.3201 160.39 97.1401C160.28 96.9601 160.05 96.8901 159.87 96.9901L159.84 97.0101C155.37 99.3301 150.3 100.55 145.3 100.78C140.28 101.03 135.27 100.13 130.66 98.2701C128.35 97.3401 126.17 96.1301 124.07 94.8001C123.05 94.0901 122.01 93.4101 121.05 92.6201C120.05 91.8801 119.13 91.0401 118.2 90.2101C114.51 86.8701 111.33 82.9501 108.52 78.8101C105.73 74.7001 103.37 70.2501 102.46 65.7301C102.01 63.4801 102.1 61.2601 102.75 59.3601C103.44 57.4701 104.78 55.9501 106.53 54.8501C107.01 54.5401 107.52 54.2701 108.06 54.0401C108.93 59.4301 111.52 64.7201 116.22 68.2501C117.51 69.2201 119.01 70.0301 120.73 70.5501C122.43 71.0401 124.47 71.2701 126.58 70.5601C127.61 70.1901 128.62 69.6301 129.41 68.8601C129.61 68.6701 129.81 68.4801 129.99 68.2801L130.47 67.6501C130.8 67.2301 131.03 66.7901 131.25 66.3501C132.1 64.5801 132.33 62.8701 132.39 61.2801C132.4 60.8901 132.38 60.5101 132.37 60.1201C132.36 59.7401 132.35 59.3601 132.27 58.9001L132.06 57.5901C131.97 57.1601 131.79 56.7401 131.65 56.3201C131.4 55.4601 130.9 54.7201 130.47 53.9501C130.23 53.5901 129.95 53.2701 129.68 52.9301C129.41 52.5901 129.14 52.2701 128.83 52.0001C126.41 49.6801 123.52 48.4101 120.66 47.7501C119.12 47.4001 117.56 47.2101 116 47.1601C116.11 46.5401 116.23 45.9101 116.39 45.2901C116.92 43.0701 117.7 40.8901 118.65 38.9201C119.59 36.9201 120.8 35.1401 122.23 33.5901C123.64 32.0201 125.32 30.7201 127.23 29.6801C129.11 28.5901 131.23 27.8101 133.46 27.1901C135.71 26.6001 138.06 26.2201 140.49 25.9401C142.91 25.6601 145.39 25.5001 147.91 25.4101L151.73 25.2901C153.15 25.1601 154.57 25.1401 155.97 24.8201C157.38 24.6201 158.75 24.1901 160.11 23.7901C161.44 23.2701 162.78 22.7801 164.01 22.0301C166.49 20.6301 168.75 18.8001 170.49 16.5301C172.21 14.2601 173.39 11.5301 173.65 8.71007C173.89 5.88007 173.15 3.05007 171.67 0.83007ZM118.5 60.5101C117.93 59.6801 117.41 58.8001 117 57.8501C116.31 56.2801 115.92 54.5701 115.75 52.8301C116.93 52.9101 118.1 53.0901 119.21 53.3901C121.32 53.9301 123.23 54.9801 124.48 56.2801C124.66 56.4301 124.79 56.6101 124.9 56.7801C125.02 56.9601 125.17 57.1201 125.28 57.2901C125.43 57.6701 125.7 57.9901 125.76 58.3901C125.81 58.5801 125.9 58.7601 125.93 58.9501C125.94 59.1501 125.97 59.3501 125.99 59.5501C126 59.6601 126.03 59.7301 126.03 59.8601L126.02 60.2501C126.01 60.5001 126.02 60.7701 126.01 61.0101C125.93 61.9801 125.71 62.8501 125.4 63.3801C125.08 63.9201 124.82 64.0601 124.48 64.1701C124.13 64.2801 123.48 64.2301 122.75 63.9701C122.02 63.7101 121.22 63.2601 120.5 62.6501C119.77 62.0501 119.1 61.3101 118.5 60.5101Z" fill="#E9408F" stroke="black" stroke-miterlimit="10" stroke-linecap="round" stroke-linejoin="round"/>
<path d="M108.05 54.0401C108.05 54.0401 107.48 51.2901 107.77 48.3601" stroke="black" stroke-miterlimit="10" stroke-linecap="round" stroke-linejoin="round"/>
<path d="M115.75 52.82C115.75 52.82 115.23 50.36 115.97 47.15" stroke="black" stroke-miterlimit="10" stroke-linecap="round" stroke-linejoin="round"/>
<path d="M136.75 159.5L131.07 171.45L143.27 179.45L150.84 164.63L145.98 153.89L137.03 155.9L136.75 159.5Z" fill="#AB3E82" stroke="black" stroke-miterlimit="10" stroke-linecap="round" stroke-linejoin="round"/>
<path d="M119.05 162.62C120.09 164.76 121.51 166.75 123.04 168.54C124.59 170.33 126.29 171.95 128.15 173.33C129.99 174.73 131.97 175.9 134.03 176.86C136.08 177.84 138.22 178.58 140.41 179.14C142.59 179.73 144.87 179.91 147.13 180L148.82 180.1C149.38 180.13 149.95 180.14 150.51 180.19C151.63 180.31 152.77 180.37 153.9 180.53C154.47 180.63 155.04 180.66 155.62 180.73C156.2 180.81 156.77 180.87 157.36 180.96C158.53 181.08 159.71 181.22 160.9 181.42C162.1 181.56 163.31 181.75 164.55 181.98C165.79 182.2 167.05 182.4 168.36 182.79H168.38C168.61 182.86 168.74 183.1 168.67 183.33C168.64 183.43 168.58 183.51 168.51 183.56C167.41 184.35 166.25 184.95 165.07 185.56C163.88 186.11 162.67 186.56 161.43 187C160.19 187.38 158.93 187.69 157.65 187.97C156.36 188.18 155.07 188.39 153.76 188.48C152.45 188.54 151.14 188.6 149.82 188.45C149.16 188.39 148.51 188.32 147.85 188.21L145.9 187.78C143.32 187.1 140.81 186.21 138.37 185.17C135.92 184.15 133.57 182.92 131.38 181.44C129.22 179.92 127.22 178.18 125.46 176.26C123.72 174.32 122.22 172.2 120.99 169.96C119.78 167.71 118.81 165.36 118.29 162.86C118.25 162.64 118.38 162.43 118.6 162.39C118.78 162.35 118.96 162.45 119.04 162.61L119.05 162.62Z" fill="#E9408F" stroke="black" stroke-miterlimit="10" stroke-linecap="round" stroke-linejoin="round"/>
<path d="M126.74 112.3C120.56 117.49 114.35 122.47 107.67 126.35C101.03 130.2 93.85 132.93 86.87 132.86C85.13 132.86 83.42 132.69 81.75 132.33C80.08 131.98 78.44 131.5 76.86 130.82C75.28 130.15 73.74 129.34 72.28 128.37C70.81 127.42 69.4 126.34 68.08 125.12C65.42 122.73 63.08 119.84 61.28 116.72C60.78 115.85 60.33 114.95 59.95 114.06C62.2 114.58 64.66 114.85 67.33 113.99C68.65 113.53 70.11 112.77 71.17 111.21C71.44 110.84 71.66 110.39 71.84 109.89C71.92 109.62 72.01 109.36 72.06 109.06C72.1 108.75 72.13 108.44 72.13 108.12C72.11 107.8 72.07 107.47 72 107.15C71.91 106.85 71.81 106.53 71.68 106.25C71.55 105.99 71.4 105.72 71.24 105.49C71.08 105.28 70.91 105.07 70.74 104.87C70.05 104.15 69.34 103.73 68.67 103.39C67.99 103.05 67.34 102.85 66.69 102.67C65.4 102.35 64.14 102.22 62.87 102.25C61.6 102.29 60.33 102.49 59.05 102.9C57.78 103.31 56.49 103.96 55.35 104.95C55 105.24 54.68 105.58 54.38 105.94C53.44 105.32 52.52 104.63 51.64 103.9C48.76 101.48 46.23 98.55 43.99 95.39C42.87 93.81 41.8 92.17 40.81 90.48C40.3 89.64 39.89 88.77 39.42 87.91L38.74 86.62L38.4 85.97L38.11 85.3L36.97 82.61C36.76 82.17 36.61 81.71 36.47 81.24L36.02 79.85L35.57 78.46C35.43 77.99 35.34 77.52 35.23 77.04C35.03 76.09 34.75 75.15 34.61 74.19C33.9 70.35 33.85 66.4 34.31 62.51C34.46 61.54 34.59 60.57 34.79 59.6C35.01 58.64 35.21 57.68 35.51 56.74C36.06 54.86 36.77 52.98 37.7 51.28L37.72 51.24C37.82 51.06 37.76 50.82 37.58 50.71C37.39 50.6 37.15 50.65 37.04 50.84C32.74 57.84 31.27 66.33 32.19 74.52C32.27 75.55 32.5 76.56 32.65 77.58C32.74 78.09 32.8 78.6 32.92 79.11L33.3 80.61L33.68 82.11C33.8 82.61 33.93 83.11 34.12 83.6L35.14 86.53L35.4 87.26L35.72 87.97L36.35 89.38C36.79 90.31 37.17 91.29 37.65 92.19C38.58 94.02 39.59 95.82 40.68 97.58C42.89 101.08 45.45 104.42 48.56 107.34C49.76 108.46 51.05 109.52 52.43 110.48C52.42 110.65 52.42 110.83 52.42 111L52.45 111.56C52.51 112.28 52.61 112.92 52.74 113.52C53.28 115.91 54.1 117.97 55.06 119.97C57.01 123.93 59.52 127.55 62.61 130.75C65.7 133.93 69.43 136.62 73.65 138.43C75.77 139.3 77.98 139.99 80.25 140.38C82.52 140.76 84.82 140.9 87.09 140.79C91.64 140.54 96 139.37 99.97 137.6C103.93 135.83 107.56 133.56 110.84 130.96C117.43 125.8 122.85 119.56 127.36 112.82C127.46 112.67 127.45 112.48 127.33 112.34C127.16 112.18 126.91 112.16 126.74 112.3ZM62.98 108.11C64.16 108.02 65.37 108.1 66.44 108.31C66.74 108.36 67.02 108.44 67.28 108.53C67.12 108.62 66.94 108.7 66.74 108.78C64.94 109.52 62.23 109.53 59.63 109C59.55 108.98 59.47 108.96 59.39 108.94C60.45 108.51 61.7 108.21 62.98 108.11ZM52.4 110.5C52.4 110.5 55.8 113.24 59.93 114.06ZM54.35 105.95C54.35 105.95 56.57 107.96 59.64 109Z" fill="#E9408F"/>
<path d="M52.4 110.5C52.4 110.5 55.8 113.24 59.93 114.06M54.35 105.95C54.35 105.95 56.57 107.96 59.64 109M126.74 112.3C120.56 117.49 114.35 122.47 107.67 126.35C101.03 130.2 93.85 132.93 86.87 132.86C85.13 132.86 83.42 132.69 81.75 132.33C80.08 131.98 78.44 131.5 76.86 130.82C75.28 130.15 73.74 129.34 72.28 128.37C70.81 127.42 69.4 126.34 68.08 125.12C65.42 122.73 63.08 119.84 61.28 116.72C60.78 115.85 60.33 114.95 59.95 114.06C62.2 114.58 64.66 114.85 67.33 113.99C68.65 113.53 70.11 112.77 71.17 111.21C71.44 110.84 71.66 110.39 71.84 109.89C71.92 109.62 72.01 109.36 72.06 109.06C72.1 108.75 72.13 108.44 72.13 108.12C72.11 107.8 72.07 107.47 72 107.15C71.91 106.85 71.81 106.53 71.68 106.25C71.55 105.99 71.4 105.72 71.24 105.49C71.08 105.28 70.91 105.07 70.74 104.87C70.05 104.15 69.34 103.73 68.67 103.39C67.99 103.05 67.34 102.85 66.69 102.67C65.4 102.35 64.14 102.22 62.87 102.25C61.6 102.29 60.33 102.49 59.05 102.9C57.78 103.31 56.49 103.96 55.35 104.95C55 105.24 54.68 105.58 54.38 105.94C53.44 105.32 52.52 104.63 51.64 103.9C48.76 101.48 46.23 98.55 43.99 95.39C42.87 93.81 41.8 92.17 40.81 90.48C40.3 89.64 39.89 88.77 39.42 87.91L38.74 86.62L38.4 85.97L38.11 85.3L36.97 82.61C36.76 82.17 36.61 81.71 36.47 81.24L36.02 79.85L35.57 78.46C35.43 77.99 35.34 77.52 35.23 77.04C35.03 76.09 34.75 75.15 34.61 74.19C33.9 70.35 33.85 66.4 34.31 62.51C34.46 61.54 34.59 60.57 34.79 59.6C35.01 58.64 35.21 57.68 35.51 56.74C36.06 54.86 36.77 52.98 37.7 51.28L37.72 51.24C37.82 51.06 37.76 50.82 37.58 50.71C37.39 50.6 37.15 50.65 37.04 50.84C32.74 57.84 31.27 66.33 32.19 74.52C32.27 75.55 32.5 76.56 32.65 77.58C32.74 78.09 32.8 78.6 32.92 79.11L33.3 80.61L33.68 82.11C33.8 82.61 33.93 83.11 34.12 83.6L35.14 86.53L35.4 87.26L35.72 87.97L36.35 89.38C36.79 90.31 37.17 91.29 37.65 92.19C38.58 94.02 39.59 95.82 40.68 97.58C42.89 101.08 45.45 104.42 48.56 107.34C49.76 108.46 51.05 109.52 52.43 110.48C52.42 110.65 52.42 110.83 52.42 111L52.45 111.56C52.51 112.28 52.61 112.92 52.74 113.52C53.28 115.91 54.1 117.97 55.06 119.97C57.01 123.93 59.52 127.55 62.61 130.75C65.7 133.93 69.43 136.62 73.65 138.43C75.77 139.3 77.98 139.99 80.25 140.38C82.52 140.76 84.82 140.9 87.09 140.79C91.64 140.54 96 139.37 99.97 137.6C103.93 135.83 107.56 133.56 110.84 130.96C117.43 125.8 122.85 119.56 127.36 112.82C127.46 112.67 127.45 112.48 127.33 112.34C127.16 112.18 126.91 112.16 126.74 112.3ZM62.98 108.11C64.16 108.02 65.37 108.1 66.44 108.31C66.74 108.36 67.02 108.44 67.28 108.53C67.12 108.62 66.94 108.7 66.74 108.78C64.94 109.52 62.23 109.53 59.63 109C59.55 108.98 59.47 108.96 59.39 108.94C60.45 108.51 61.7 108.21 62.98 108.11Z" stroke="black" stroke-miterlimit="10" stroke-linecap="round" stroke-linejoin="round"/>
<path d="M143.69 163.32L141.8 161.33L128.83 164.32L138.55 151.26L138.36 150.67L147.65 144.88L149.56 145.42L152.52 146.26C152.5 146.26 157.03 158.98 143.69 163.32Z" fill="#A6C721" stroke="black" stroke-miterlimit="10" stroke-linecap="round" stroke-linejoin="round"/>
<path d="M171.8 181.4C171.45 182.85 171.42 184.32 171.6 185.74C171.96 188.59 173.24 191.22 175.08 193.37C175.22 193.53 175.36 193.69 175.52 193.85C175.29 194.63 175.13 195.42 174.95 196.22C174.85 197.04 174.78 197.86 174.71 198.69C174.73 199.5 174.75 200.32 174.8 201.14C175.11 204.39 176.25 207.36 177.68 210L178.21 211L178.81 211.93L179.43 212.86C179.63 213.17 179.83 213.48 180.1 213.8C181.09 215.13 182.22 216.2 183.37 217.24C185.57 219.13 188 220.57 190.55 221.71L150.15 213.17C150.15 213.17 141.25 197.06 157.21 192.91C157.21 192.91 147.38 176.17 143.7 163.33C157.04 158.99 152.52 146.27 152.52 146.27L149.56 145.43C155.05 140.71 161.87 134.75 161.87 134.75C161.87 134.75 183.11 141.61 199.38 161.14C199.55 161.34 199.72 161.55 199.88 161.75C201.79 164.09 203.62 166.6 205.34 169.3C202.29 171.14 198.91 172.45 195.45 173.18C193.23 173.65 190.97 173.88 188.72 173.85L187.04 173.78L185.34 173.62C184.04 173.5 182.73 173.43 181.37 173.58C180.03 173.69 178.64 174.07 177.32 174.67C176 175.25 174.77 176.21 173.81 177.38C172.83 178.55 172.16 179.96 171.8 181.4Z" fill="#4B4145" stroke="black" stroke-miterlimit="10" stroke-linecap="round" stroke-linejoin="round"/>
<path d="M213.94 229.42L202.65 262.47L165.22 250.82L175.12 225.17L213.94 229.42Z" fill="#AB3E82" stroke="black" stroke-miterlimit="10" stroke-linecap="round" stroke-linejoin="round"/>
<path d="M90.7901 215.29C89.9901 215.62 89.2001 215.98 88.4301 216.37C86.8801 217.26 85.3901 218.25 84.1101 219.41C81.4901 221.7 79.4301 224.4 77.8101 227.23C74.9301 232.31 73.2101 237.76 72.2401 243.27C65.0801 235.8 60.7701 228.49 62.7101 222.63C64.7701 216.37 78.2801 215.09 90.7901 215.29Z" fill="#A6C721" stroke="black" stroke-miterlimit="10" stroke-linecap="round" stroke-linejoin="round"/>
<path d="M101.58 235.75L91.1301 235.33L99.4901 239.37C98.7901 240.67 98.14 242 97.53 243.35C96.23 246.39 95.09 249.52 94.22 252.75C93.57 255.28 93.0801 257.87 92.7701 260.52C87.16 256.47 81.6 252.1 76.8 247.7C76.89 247.2 76.9901 246.69 77.1001 246.2C78.3001 240.61 80.3301 235.19 83.3501 230.65C86.3201 226.12 90.49 222.58 95.11 221.86C95.67 221.72 96.2801 221.72 96.8501 221.66C97.4101 221.64 97.78 221.72 98.25 221.75C99.15 221.99 100.07 222.26 100.99 222.89C102.83 224.04 104.58 225.9 106.09 228.03C106.27 228.28 106.43 228.52 106.61 228.77C104.78 230.97 103.1 233.31 101.58 235.75Z" fill="#A6C721" stroke="black" stroke-miterlimit="10" stroke-linecap="round" stroke-linejoin="round"/>
<path d="M114.37 220.85C113.96 221.2 113.55 221.56 113.15 221.92C112.97 222.08 112.81 222.23 112.64 222.39L112.14 222.87L111.55 221.13C109.87 219.27 107.93 217.53 105.53 216.13C107.28 216.29 108.8 216.45 110 216.59C110.52 216.65 110.98 216.7 111.39 216.75C112.52 216.89 113.16 216.98 113.16 216.98L114.37 220.85Z" fill="#FFCC03" stroke="black" stroke-miterlimit="10" stroke-linecap="round" stroke-linejoin="round"/>
<path d="M140.25 259.06L126.21 281.72C126.21 281.72 124.82 280.96 122.44 279.59C120.02 278.19 116.57 276.16 112.54 273.67C110.5 272.41 108.31 271.03 106.04 269.57C105.88 267.7 105.91 265.71 106.06 263.71C106.46 258.58 107.68 253.34 109.56 248.33C109.99 247.17 110.46 246.04 110.96 244.91L113.85 246.3L125.09 251.74L140.25 259.06Z" fill="#A6C721" stroke="black" stroke-miterlimit="10" stroke-linecap="round" stroke-linejoin="round"/>
<path d="M125.23 281.51L139.57 258.68C140.47 257.25 142.35 256.82 143.78 257.72C145.21 258.62 145.64 260.5 144.74 261.93C145.64 260.5 147.52 260.07 148.95 260.97C150.38 261.87 150.81 263.75 149.91 265.18L148.8 266.95L151.19 268.77L137.61 290.69L135.28 288.4C134.31 289.52 132.65 289.8 131.36 288.99C129.93 288.09 129.5 286.21 130.4 284.78C129.5 286.21 127.62 286.64 126.19 285.74C124.77 284.82 124.34 282.94 125.23 281.51Z" fill="#FEEEDB" stroke="black" stroke-miterlimit="10" stroke-linecap="round" stroke-linejoin="round"/>
<path d="M132.77 315.84L132.83 316.17C139.92 314.45 147.65 319.3 151.02 321.79L171.92 295.91L165.22 279.55L151.2 268.75L137.62 290.67L144.21 297.54L132.77 315.84Z" fill="#4A4246" stroke="black" stroke-miterlimit="10" stroke-linecap="round" stroke-linejoin="round"/>
<path d="M134.91 341.75L137.41 338.66L151.02 321.79C147.65 319.3 139.92 314.45 132.83 316.17C130.29 316.78 127.85 318.23 125.7 320.93C118.18 330.4 128.96 338.34 134.91 341.75Z" fill="white" stroke="black" stroke-miterlimit="10" stroke-linecap="round" stroke-linejoin="round"/>
<path d="M134.91 341.75L134.97 341.78L136.89 342.77C137.83 343.25 138.97 343.12 139.76 342.41C150.36 332.79 173.98 297.9 173.98 297.9L171.92 295.91L151.02 321.79L137.41 338.66L134.91 341.75Z" fill="white" stroke="black" stroke-miterlimit="10" stroke-linecap="round" stroke-linejoin="round"/>
<path d="M160.87 316.52C168.44 322.75 190.4 314.07 205.29 306.99C204.85 306.66 204.49 306.21 204.26 305.66L194.64 282.36C194.6 282.27 194.57 282.18 194.54 282.09L188.53 285.17L200.53 259.07L164.11 249.59L165.22 266.11C165.22 266.1 151.09 308.49 160.87 316.52Z" fill="#A6C721" stroke="black" stroke-miterlimit="10" stroke-linecap="round" stroke-linejoin="round"/>
<path d="M194.39 281.12C194.39 281.44 194.44 281.77 194.54 282.08C194.56 282.18 194.6 282.27 194.64 282.35L204.26 305.65C204.49 306.2 204.85 306.65 205.29 306.98C206.18 307.66 207.38 307.85 208.48 307.4C209.72 306.89 210.48 305.7 210.48 304.44C210.48 304.02 210.4 303.6 210.23 303.19C210.39 303.59 210.63 303.93 210.92 304.22C211.81 305.12 213.2 305.46 214.45 304.94C215.88 304.35 216.66 302.84 216.4 301.38C218.6 300.2 219.88 299.47 219.88 299.47L211.73 277.47L211.33 276.4V276.39L210.43 273.95L205.82 276.31C204.92 275.45 203.57 275.16 202.36 275.66C201.12 276.18 200.36 277.39 200.36 278.66C200.36 278.81 200.37 278.95 200.39 279.09C200.42 279.36 200.49 279.62 200.6 279.89C200.49 279.63 200.36 279.4 200.2 279.19C199.34 278.03 197.77 277.56 196.38 278.14C195.14 278.65 194.39 279.85 194.39 281.12Z" fill="#FEEEDB" stroke="black" stroke-miterlimit="10" stroke-linecap="round" stroke-linejoin="round"/>
<path d="M210.42 273.96L211.32 276.4V276.41L211.72 277.48L219.87 299.48L226.15 297.06L232.25 316.82C235.8 310.24 246.33 306.83 246.33 306.83L233.18 266.55L232.98 265.81L232.53 264.11L210.42 273.96Z" fill="#4A4246" stroke="black" stroke-miterlimit="10" stroke-linecap="round" stroke-linejoin="round"/>
<path d="M205.42 258.82L203.76 264.22L160.87 250.82L163.04 246.28L205.42 258.82Z" fill="#AB3E82" stroke="black" stroke-miterlimit="10" stroke-linecap="round" stroke-linejoin="round"/>
<path d="M210.92 304.22C210.63 303.93 210.39 303.58 210.23 303.19C210.4 303.6 210.48 304.02 210.48 304.44C210.63 304.37 210.77 304.3 210.92 304.22Z" fill="white" stroke="black" stroke-miterlimit="10" stroke-linecap="round" stroke-linejoin="round"/>
<path d="M200.39 279.09L200.2 279.19C200.35 279.4 200.49 279.63 200.6 279.89C200.49 279.63 200.42 279.36 200.39 279.09Z" fill="white" stroke="black" stroke-miterlimit="10" stroke-linecap="round" stroke-linejoin="round"/>
<path d="M119.64 216.79C118.11 217.84 116.63 218.96 115.2 220.15C114.92 220.38 114.64 220.62 114.36 220.86C113.95 221.21 113.54 221.57 113.14 221.93L111.37 216.76L111.16 216.14L113.82 216.34L119.64 216.79Z" fill="white" stroke="black" stroke-miterlimit="10" stroke-linecap="round" stroke-linejoin="round"/>
<path d="M141.24 236.88L135.49 237.39L121.89 238.59L121.53 238.63C120.71 236.4 119.78 234.19 118.72 232.03C118.9 231.8 119.07 231.58 119.26 231.36C121.19 228.94 123.32 226.65 125.62 224.5C126.53 223.65 127.46 222.83 128.43 222.03C129.29 221.37 130.06 220.75 130.94 220.08L141.24 236.88Z" fill="#AB3E82" stroke="black" stroke-miterlimit="10" stroke-linecap="round" stroke-linejoin="round"/>
<path d="M231.44 323.7C234.49 334.76 254.61 327.21 254.61 327.21L248.55 305.92L236.18 262.46L232.53 264.1L232.98 265.8L233.18 266.54L246.33 306.82C246.33 306.82 235.8 310.24 232.25 316.81C231.16 318.81 230.72 321.11 231.44 323.7Z" fill="white" stroke="black" stroke-miterlimit="10" stroke-linecap="round" stroke-linejoin="round"/>
<path d="M115.2 220.15C114.92 220.38 114.64 220.62 114.36 220.86C113.95 221.21 113.54 221.57 113.14 221.93C112.96 222.09 112.8 222.24 112.63 222.4L112.13 222.88L111.54 221.14L110 216.6L109.33 214.63L113.29 214.87L113.83 216.34L115.2 220.15Z" fill="#AB3E82" stroke="black" stroke-miterlimit="10" stroke-linecap="round" stroke-linejoin="round"/>
<path d="M122.4 239.99L122.04 240.02C122.04 240 122.03 239.98 122.02 239.96C121.86 239.52 121.7 239.08 121.53 238.64C120.71 236.41 119.78 234.2 118.72 232.04C118.9 231.81 119.07 231.59 119.26 231.37L121.89 238.61L122.4 239.99Z" fill="white" stroke="black" stroke-miterlimit="10" stroke-linecap="round" stroke-linejoin="round"/>
<path d="M61.6901 182.32C61.6901 182.32 58.4901 204.85 82.3801 212.21C94.4201 215.92 104.91 213.54 113.58 208.67L100.78 201.12C96.2101 203.34 91.6801 204.38 87.6301 203.35C70.5501 199 75.5901 186.28 75.5901 186.28C75.5901 186.28 78.0001 181.64 78.7201 178.25C79.0901 176.51 79.0201 175.09 77.9301 174.83C76.3301 174.44 75.3601 175.18 74.8001 176C74.7101 176.12 74.6401 176.23 74.5701 176.36C74.6201 176.23 74.6701 176.09 74.7201 175.96C75.3101 174.13 75.8901 171.55 74.4601 171.45C73.2501 171.37 72.1501 172.77 71.3901 174.06C70.8801 174.93 70.5301 175.76 70.4101 176.05C70.5101 175.74 70.8001 174.87 71.0201 173.85C71.4401 172.03 71.6701 169.75 70.3701 169.42C69.0401 169.09 67.9701 170.53 67.3401 171.74C67.2701 171.89 67.1901 172.02 67.1301 172.15C67.1801 172 67.2301 171.85 67.2801 171.7C67.8101 170.14 68.2601 167.94 66.6901 167.9C65.9501 167.88 65.2401 168.83 64.5801 170.16C63.0901 173.21 62.0001 178.28 62.0001 178.28L58.9701 176.49C58.9601 176.49 58.9201 181.28 61.6901 182.32ZM74.0501 177.71C74.0801 177.57 74.2201 176.99 74.5601 176.38C74.3301 177.07 74.1101 177.59 74.0501 177.71ZM66.7201 173.16C66.7601 173.03 66.8701 172.72 67.0501 172.34C66.9101 172.73 66.7801 173.03 66.7201 173.16Z" fill="#A6C721" stroke="black" stroke-miterlimit="10" stroke-linecap="round" stroke-linejoin="round"/>
<path d="M100.77 201.12L113.57 208.67C116.55 207.01 119.31 205.03 121.84 202.92C134.44 192.43 141.45 178.26 141.45 178.26L132.42 172.34C132.42 172.34 121.72 186.46 109.33 195.77C106.53 197.87 103.64 199.73 100.77 201.12Z" fill="#A6C721" stroke="black" stroke-miterlimit="10" stroke-linecap="round" stroke-linejoin="round"/>
<path d="M74.05 177.71C74.11 177.58 74.32 177.06 74.56 176.38C74.22 177 74.08 177.58 74.05 177.71Z" fill="white" stroke="black" stroke-miterlimit="10" stroke-linecap="round" stroke-linejoin="round"/>
<path d="M66.72 173.16C66.78 173.03 66.91 172.73 67.05 172.34C66.87 172.72 66.76 173.03 66.72 173.16Z" fill="white" stroke="black" stroke-miterlimit="10" stroke-linecap="round" stroke-linejoin="round"/>
<path d="M92.53 158.49C92.53 158.49 87.75 169.07 84.81 168.14C82.51 167.41 84.21 158.49 84.21 158.49C84.21 158.49 75.62 162.84 74.19 160.71C72.84 158.7 79.7 152.75 79.7 152.75C79.7 152.75 72.08 154.72 71.51 152.75C70.32 148.63 86.01 143.61 86.01 143.61L92.53 158.49Z" fill="#63B44E" stroke="black" stroke-miterlimit="10" stroke-linecap="round" stroke-linejoin="round"/>
<path d="M82.3901 130.17C82.0701 153.41 91.9101 171.45 116.64 171.45C132.59 171.45 138.83 159.86 141.25 151.63C141.01 150.14 140.81 148.68 140.72 147.68C139.92 139.62 138.71 115.34 138.71 115.34C138.71 115.34 108.5 116.47 102.01 102.63C102.01 102.63 91.7501 112.45 82.6101 113.28C82.3201 117.86 82.4801 123.45 82.3901 130.17Z" fill="#A6C721" stroke="black" stroke-miterlimit="10" stroke-linecap="round" stroke-linejoin="round"/>
<path d="M115.65 111.66C118.5 111.67 123.27 111.36 123.41 120.03C123.54 128.25 114.94 128.28 114.94 128.28C114.94 128.28 108.26 129.17 107.29 120.25C106.3 111.24 112.65 111.65 115.65 111.66Z" fill="white" stroke="black" stroke-miterlimit="10" stroke-linecap="round" stroke-linejoin="round"/>
<path d="M110.97 115.31C112.66 115.24 112.16 118.57 112.26 119.7C112.35 120.85 112.96 124.21 111.69 124.36C109.69 124.59 109.39 120.87 109.34 119.58C109.29 118.51 109.37 115.37 110.97 115.31Z" fill="black" stroke="black" stroke-miterlimit="10" stroke-linecap="round" stroke-linejoin="round"/>
<path d="M110.58 116.8C111.34 116.77 111.1 118.27 111.09 118.78C111.08 119.2 111.21 120.41 110.58 120.46C109.89 120.51 109.92 118.71 109.92 118.71C109.92 118.71 109.86 116.83 110.58 116.8Z" fill="white"/>
<path d="M126.59 123.73C126.59 123.73 119.61 123.4 118.68 125.12C118 126.37 122.81 130.17 122.81 130.17" fill="#A6C721"/>
<path d="M126.59 123.73C126.59 123.73 119.61 123.4 118.68 125.12C118 126.37 122.81 130.17 122.81 130.17" stroke="black" stroke-miterlimit="10" stroke-linecap="round" stroke-linejoin="round"/>
<path d="M93.77 112.95C90.92 112.96 86.15 112.65 86.01 121.32C85.88 129.54 94.48 129.57 94.48 129.57C94.48 129.57 101.16 130.46 102.13 121.54C103.12 112.53 96.77 112.94 93.77 112.95Z" fill="white" stroke="black" stroke-miterlimit="10" stroke-linecap="round" stroke-linejoin="round"/>
<path d="M91.0101 116.6C92.7001 116.53 92.2001 119.86 92.3001 120.99C92.3901 122.14 93.0001 125.5 91.7401 125.65C89.7401 125.88 89.4401 122.16 89.3901 120.87C89.3401 119.8 89.4201 116.66 91.0101 116.6Z" fill="black" stroke="black" stroke-miterlimit="10" stroke-linecap="round" stroke-linejoin="round"/>
<path d="M90.62 118.09C91.38 118.06 91.14 119.56 91.13 120.07C91.12 120.49 91.25 121.7 90.62 121.75C89.93 121.8 89.96 120 89.96 120C89.96 120 89.91 118.12 90.62 118.09Z" fill="white"/>
<path d="M83.97 125C86.11 125.04 89.29 125.29 89.9 126.41C90.58 127.66 85.77 131.46 85.77 131.46" fill="#A6C721"/>
<path d="M83.97 125C86.11 125.04 89.29 125.29 89.9 126.41C90.58 127.66 85.77 131.46 85.77 131.46" stroke="black" stroke-miterlimit="10" stroke-linecap="round" stroke-linejoin="round"/>
<path d="M115.65 129.61C118.5 129.62 123.27 129.31 123.41 137.98C123.54 146.2 114.94 146.23 114.94 146.23C114.94 146.23 108.26 147.12 107.29 138.2C106.3 129.19 112.65 129.6 115.65 129.61Z" fill="white" stroke="black" stroke-miterlimit="10" stroke-linecap="round" stroke-linejoin="round"/>
<path d="M110.97 133.25C112.66 133.18 112.16 136.51 112.26 137.64C112.35 138.79 112.96 142.15 111.69 142.3C109.69 142.53 109.39 138.81 109.34 137.52C109.29 136.45 109.37 133.32 110.97 133.25Z" fill="black" stroke="black" stroke-miterlimit="10" stroke-linecap="round" stroke-linejoin="round"/>
<path d="M110.58 134.74C111.34 134.71 111.1 136.21 111.09 136.72C111.08 137.14 111.21 138.35 110.58 138.4C109.89 138.45 109.92 136.65 109.92 136.65C109.92 136.65 109.86 134.77 110.58 134.74Z" fill="white"/>
<path d="M126.59 141.67C126.59 141.67 119.61 141.34 118.68 143.06C118 144.31 122.81 148.11 122.81 148.11" fill="#A6C721"/>
<path d="M126.59 141.67C126.59 141.67 119.61 141.34 118.68 143.06C118 144.31 122.81 148.11 122.81 148.11" stroke="black" stroke-miterlimit="10" stroke-linecap="round" stroke-linejoin="round"/>
<path d="M93.77 130.9C90.92 130.91 86.15 130.6 86.01 139.27C85.88 147.49 94.48 147.52 94.48 147.52C94.48 147.52 101.16 148.41 102.13 139.49C103.12 130.48 96.77 130.89 93.77 130.9Z" fill="white" stroke="black" stroke-miterlimit="10" stroke-linecap="round" stroke-linejoin="round"/>
<path d="M91.0101 134.54C92.7001 134.47 92.2001 137.8 92.3001 138.93C92.3901 140.08 93.0001 143.44 91.7401 143.59C89.7401 143.82 89.4401 140.1 89.3901 138.81C89.3401 137.74 89.4201 134.61 91.0101 134.54Z" fill="black" stroke="black" stroke-miterlimit="10" stroke-linecap="round" stroke-linejoin="round"/>
<path d="M90.62 136.03C91.38 136 91.14 137.5 91.13 138.01C91.12 138.43 91.25 139.64 90.62 139.69C89.93 139.74 89.96 137.94 89.96 137.94C89.96 137.94 89.91 136.06 90.62 136.03Z" fill="white"/>
<path d="M103.1 140.22C103.1 140.22 97.6602 148.41 85.3702 142.32C83.8602 141.57 79.7202 139.01 78.6802 143C77.6402 146.99 85.1502 153.67 101.88 146.65" fill="#A6C721"/>
<path d="M103.1 140.22C103.1 140.22 97.6602 148.41 85.3702 142.32C83.8602 141.57 79.7202 139.01 78.6802 143C77.6402 146.99 85.1502 153.67 101.88 146.65" stroke="black" stroke-miterlimit="10" stroke-linecap="round" stroke-linejoin="round"/>
<path d="M96.99 157.69C104.73 163.52 112.44 159.61 115.44 156.72C117.01 155.21 117.05 152.72 115.55 151.16C114.05 149.6 111.58 149.55 110.01 151.03C109.34 151.65 105.83 154.51 101.72 151.41C99.99 150.1 97.52 150.45 96.21 152.18C94.9 153.91 95.25 156.38 96.99 157.69Z" fill="#8F80BB" stroke="black" stroke-miterlimit="10" stroke-linecap="round" stroke-linejoin="round"/>
<path d="M112.71 153.89C112.71 153.89 106.45 159.91 99.3501 154.55" stroke="black" stroke-miterlimit="10" stroke-linecap="round" stroke-linejoin="round"/>
<path d="M226.79 224.15H202.09L190.53 221.71C187.99 220.56 185.55 219.12 183.35 217.24C182.2 216.2 181.07 215.13 180.08 213.8C179.81 213.47 179.61 213.16 179.41 212.86L178.79 211.93L178.19 211L177.66 210C176.23 207.36 175.09 204.39 174.78 201.14C174.74 200.32 174.71 199.5 174.69 198.69C174.76 197.86 174.83 197.04 174.93 196.22C175.12 195.43 175.27 194.63 175.5 193.85C175.34 193.69 175.2 193.53 175.06 193.37C173.22 191.23 171.94 188.6 171.58 185.74C171.4 184.32 171.43 182.85 171.78 181.4C172.13 179.95 172.8 178.55 173.77 177.38C174.73 176.21 175.96 175.25 177.28 174.67C178.6 174.08 179.99 173.69 181.33 173.58C182.69 173.42 184 173.49 185.3 173.62L187 173.78L188.68 173.85C190.93 173.88 193.19 173.65 195.41 173.18C198.87 172.45 202.25 171.14 205.3 169.3C205.76 170.01 206.2 170.74 206.63 171.47C213.1 182.41 217.62 196.25 217.6 213.54C217.6 215.4 217.55 217.3 217.44 219.24L218.91 220.02L226.79 224.15Z" fill="#4B4145" stroke="black" stroke-miterlimit="10" stroke-linecap="round" stroke-linejoin="round"/>
<path d="M192.06 167.57L178.37 173.64C178.37 173.64 165.38 155.74 174.7 151.9C184.01 148.06 192.06 167.57 192.06 167.57Z" fill="#AB3E82" stroke="black" stroke-miterlimit="10" stroke-linecap="round" stroke-linejoin="round"/>
<path d="M135.99 206.14C134.98 207.19 133.83 208.17 132.59 209.06C132.03 209.46 131.46 209.85 130.88 210.22C129.84 210.86 128.78 211.49 127.69 212.06L131.01 205.42L135.99 206.14Z" fill="white" stroke="black" stroke-miterlimit="10" stroke-linecap="round" stroke-linejoin="round"/>
<path d="M229.58 228.58C218 232 178.74 241.18 178.74 241.18L186.73 286.16C186.73 286.16 188.23 294.32 184.96 296.9C182.2 299.06 179.63 295.04 179.63 295.04L135.5 237.4L125.63 224.51C126.54 223.66 127.47 222.84 128.44 222.04C129.3 221.38 130.07 220.76 130.95 220.09C131.22 219.87 131.52 219.65 131.82 219.42C131.83 219.42 131.83 219.42 131.84 219.41C133.17 218.45 134.44 217.41 135.64 216.27C136.8 215.17 137.93 214 138.97 212.73C140.07 211.39 141.07 209.93 141.92 208.33C142.13 207.94 142.31 207.52 142.48 207.09L148.19 207.92L179.12 212.4C179.12 212.4 226.5 217.5 231.45 219.98C237.515 223.019 232.876 227.607 229.58 228.58Z" fill="white" stroke="black" stroke-miterlimit="10" stroke-linecap="round" stroke-linejoin="round"/>
<path d="M172.44 270.05C173.92 270.05 175.12 268.85 175.12 267.37C175.12 265.89 173.92 264.69 172.44 264.69C170.96 264.69 169.76 265.89 169.76 267.37C169.76 268.85 170.96 270.05 172.44 270.05Z" fill="#EC671B" stroke="black" stroke-miterlimit="10" stroke-linecap="round" stroke-linejoin="round"/>
<path d="M167.91 261.74C169.39 261.74 170.59 260.54 170.59 259.06C170.59 257.58 169.39 256.38 167.91 256.38C166.43 256.38 165.23 257.58 165.23 259.06C165.23 260.54 166.43 261.74 167.91 261.74Z" fill="#EC671B" stroke="black" stroke-miterlimit="10" stroke-linecap="round" stroke-linejoin="round"/>
<path d="M132.59 209.06C132.03 209.46 131.46 209.85 130.88 210.22C129.84 210.86 128.78 211.49 127.69 212.06C127.58 212.12 127.45 212.18 127.34 212.25C126.13 212.89 124.68 213.7 123.36 214.44L113.58 208.68L100.77 201.13L75.5801 186.29C75.5801 186.29 77.9901 181.65 78.7101 178.26L109.33 195.78L121.84 202.94L129.93 207.57L132.59 209.06Z" fill="#F7AD39" stroke="black" stroke-miterlimit="10" stroke-linecap="round" stroke-linejoin="round"/>
<path d="M141.82 214.35L137.99 223.05L131.81 219.4C131.82 219.4 131.82 219.4 131.83 219.39C133.16 218.43 134.43 217.39 135.63 216.25C136.79 215.15 137.92 213.98 138.96 212.71L141.82 214.35Z" fill="#F7AD39" stroke="black" stroke-miterlimit="10" stroke-linecap="round" stroke-linejoin="round"/>
<path d="M74.5701 176.36C74.6301 176.24 74.7101 176.13 74.8001 176L74.7201 175.95C74.6701 176.09 74.6201 176.23 74.5701 176.36Z" fill="white" stroke="black" stroke-miterlimit="10" stroke-linecap="round" stroke-linejoin="round"/>
<path d="M74.05 177.71C74.11 177.58 74.32 177.06 74.56 176.38C74.22 177 74.08 177.58 74.05 177.71Z" fill="white" stroke="black" stroke-miterlimit="10" stroke-linecap="round" stroke-linejoin="round"/>
<path d="M70.4102 176.04C70.5302 175.76 70.8802 174.93 71.3902 174.05L71.0302 173.84C70.8002 174.86 70.5102 175.74 70.4102 176.04Z" fill="white" stroke="black" stroke-miterlimit="10" stroke-linecap="round" stroke-linejoin="round"/>
<path d="M67.1301 172.15C67.1901 172.02 67.2701 171.88 67.3401 171.74L67.2801 171.7C67.2301 171.85 67.1801 172 67.1301 172.15Z" fill="white" stroke="black" stroke-miterlimit="10" stroke-linecap="round" stroke-linejoin="round"/>
<path d="M66.72 173.16C66.78 173.03 66.91 172.73 67.05 172.34C66.87 172.72 66.76 173.03 66.72 173.16Z" fill="white" stroke="black" stroke-miterlimit="10" stroke-linecap="round" stroke-linejoin="round"/>
<path d="M46.9402 169.4L58.9602 176.48L61.9902 178.27C61.9902 178.27 63.0902 173.21 64.5702 170.15L51.1702 162.48L46.9402 169.4Z" fill="#F7AD39" stroke="black" stroke-miterlimit="10" stroke-linecap="round" stroke-linejoin="round"/>
<path d="M151.22 217.21L144.58 230.68L141.24 228.32L147.31 215.47L151.22 217.21Z" fill="#4A4246" stroke="black" stroke-miterlimit="10" stroke-linecap="round" stroke-linejoin="round"/>
<path d="M156.96 219.24L148.72 232.51L153.38 236.22L161.43 221.21L156.96 219.24Z" fill="#4A4246" stroke="black" stroke-miterlimit="10" stroke-linecap="round" stroke-linejoin="round"/>
<path d="M51.1801 162.49C51.1801 162.49 49.3501 160.72 49.3001 158.77C49.2501 156.81 48.0601 156.08 46.9501 155.93L21.5901 151.82C21.5901 151.82 18.4101 152.1 17.0901 154.29C16.3101 155.58 16.9801 157.28 18.4001 157.8C21.6301 158.99 28.1701 161.61 30.1001 163.89C32.2001 166.37 37.6601 171.39 46.9601 169.4L51.1801 162.49Z" fill="white" stroke="black" stroke-miterlimit="10" stroke-linecap="round" stroke-linejoin="round"/>
<path d="M147.94 168.18C147.94 168.18 141.25 176.58 147.94 181.75C151.81 184.74 159.23 179.78 159.23 179.78" fill="#4B4145"/>
<path d="M147.94 168.18C147.94 168.18 141.25 176.58 147.94 181.75C151.81 184.74 159.23 179.78 159.23 179.78" stroke="black" stroke-miterlimit="10" stroke-linecap="round" stroke-linejoin="round"/>
<path d="M160.05 163.72C160.05 163.72 153.36 172.12 160.05 177.29C163.92 180.28 171.34 175.32 171.34 175.32" fill="#4B4145"/>
<path d="M160.05 163.72C160.05 163.72 153.36 172.12 160.05 177.29C163.92 180.28 171.34 175.32 171.34 175.32" stroke="black" stroke-miterlimit="10" stroke-linecap="round" stroke-linejoin="round"/>
<path d="M166.87 228.99L159.87 228.16L159.78 229.12L166.87 230.68V228.99Z" fill="#E83F32" stroke="black" stroke-miterlimit="10" stroke-linecap="round" stroke-linejoin="round"/>
<path d="M166.65 143.72C165.36 145.59 157.82 142.31 157.49 142.17C157.67 142.51 161.13 148.9 159.6 150.22C158.33 151.28 153.65 147.65 153.4 147.45C153.55 147.74 157.16 154.7 155.51 156.14C154.1 157.38 148.45 153.47 148.45 153.47C148.45 153.47 150.02 159.09 148.34 159.82C145.42 161.1 142.81 158.08 142.24 156.3C141.9 155.19 141.53 153.4 141.24 151.65C141 150.16 140.81 148.7 140.71 147.7C139.91 139.64 138.7 115.35 138.7 115.35C138.7 115.35 108.49 116.48 102 102.65C102 102.65 91.7402 112.47 82.6102 113.3C79.6702 113.56 76.8602 112.9 74.5302 110.68C71.8802 108.14 67.5002 102.15 69.5302 99.5401C70.5502 98.2201 75.8802 100.94 76.1602 101.08C76.0602 100.83 74.0402 95.5601 75.3202 94.5901C77.0102 93.3001 83.0702 97.7601 83.3602 97.9701C83.2302 97.6401 80.5002 91.1901 81.9502 90.0001C84.0302 88.3001 90.5602 95.7201 90.5602 95.7201C90.5602 95.7201 101.64 83.4301 118.63 79.7801C120.61 79.3601 122.66 79.0501 124.79 78.8901C132.51 78.3301 141.17 79.7301 150.38 84.6901L152.67 79.9601C150.15 79.0101 148.37 76.5801 148.37 73.7401C148.37 70.0501 151.35 67.0701 155.03 67.0701C158.71 67.0701 161.7 70.0501 161.7 73.7401C161.7 77.3101 158.88 80.2301 155.34 80.3901L156.3 88.2301C156.3 88.2301 159.12 90.3301 161.45 96.0301C161.79 96.8701 162.11 97.7801 162.42 98.7701C162.87 100.2 163.27 101.8 163.58 103.58C164.02 105.98 164.32 108.73 164.41 111.84C164.59 118.1 163.89 125.86 161.7 135.4C161.72 135.39 168.03 141.72 166.65 143.72Z" fill="#63B44E" stroke="black" stroke-miterlimit="10" stroke-linecap="round" stroke-linejoin="round"/>
<path d="M138.7 115.34H145.21" stroke="black" stroke-miterlimit="10" stroke-linecap="round" stroke-linejoin="round"/>
<path d="M146.36 129.6C146.36 129.6 149.03 129.39 149.5 130.02C149.82 130.44 149.19 132.1 149.19 132.1C149.19 132.1 151.08 132.17 151.42 132.63C151.61 132.89 151.66 133.35 151.64 133.88C154.34 133.31 156.93 130.59 158.02 126.85C159.43 122 157.79 117.27 154.38 116.28C150.95 115.29 147.04 118.4 145.63 123.24C145.57 123.46 145.51 123.67 145.46 123.89C146.41 124.46 147.29 125.1 147.5 125.66C147.86 126.62 146.36 129.6 146.36 129.6Z" fill="#A6C721" stroke="black" stroke-miterlimit="10" stroke-linecap="round" stroke-linejoin="round"/>
<path d="M154.51 125.66C154.51 125.66 154.61 121.53 150.84 121.53" stroke="black" stroke-miterlimit="10" stroke-linecap="round" stroke-linejoin="round"/>
<path d="M153.38 122.51C153.38 122.51 151.35 123.67 151.65 126.04" stroke="black" stroke-miterlimit="10" stroke-linecap="round" stroke-linejoin="round"/>
<path d="M121.15 126.38L120.4 130.45" stroke="black" stroke-miterlimit="10" stroke-linecap="round" stroke-linejoin="round"/>
<path d="M125.03 128.42L121.73 131.63" stroke="black" stroke-miterlimit="10" stroke-linecap="round" stroke-linejoin="round"/>
<path d="M127.41 131.96L122.87 133.92" stroke="black" stroke-miterlimit="10" stroke-linecap="round" stroke-linejoin="round"/>
<path d="M88.8301 113.92L86.8101 110.03" stroke="black" stroke-miterlimit="10" stroke-linecap="round" stroke-linejoin="round"/>
<path d="M87.4201 115.35L83.3801 113.95" stroke="black" stroke-miterlimit="10" stroke-linecap="round" stroke-linejoin="round"/>
<path d="M90.9501 113.11L90.5701 109.18" stroke="black" stroke-miterlimit="10" stroke-linecap="round" stroke-linejoin="round"/>
<path d="M89.1802 131.58L88.4502 127.9" stroke="black" stroke-miterlimit="10" stroke-linecap="round" stroke-linejoin="round"/>
<path d="M87.7601 132.82L85.4001 129.7" stroke="black" stroke-miterlimit="10" stroke-linecap="round" stroke-linejoin="round"/>
<path d="M86.8602 133.99L83.9202 132.5" stroke="black" stroke-miterlimit="10" stroke-linecap="round" stroke-linejoin="round"/>
<path d="M122.91 116.12L125.14 114.54" stroke="black" stroke-miterlimit="10" stroke-linecap="round" stroke-linejoin="round"/>
<path d="M123.38 118.09L126.59 117.01" stroke="black" stroke-miterlimit="10" stroke-linecap="round" stroke-linejoin="round"/>
<path d="M193.55 173.51C191.94 173.75 190.32 173.86 188.7 173.85L187.02 173.78L185.32 173.62C184.02 173.5 182.71 173.43 181.35 173.58C180.98 173.61 180.6 173.66 180.22 173.74C180.1 173.48 179.97 173.22 179.86 172.97L190.69 168.18C190.69 168.18 191.93 170.18 193.55 173.51Z" fill="#A6C721" stroke="black" stroke-miterlimit="10" stroke-linecap="round" stroke-linejoin="round"/>
<path d="M186.56 193.5C186.49 193.5 186.42 193.49 186.35 193.49C186.21 193.48 186.08 193.47 185.94 193.46C185.74 193.44 185.53 193.42 185.33 193.4C184.92 193.36 184.52 193.29 184.12 193.19C184.63 192.31 185.28 191.46 186.03 190.67C186.02 190.67 186.27 191.96 186.56 193.5Z" fill="#4A4246" stroke="black" stroke-miterlimit="10" stroke-linecap="round" stroke-linejoin="round"/>
<path d="M199.08 216.34C198.17 218.78 196.95 221.16 195.36 223.44C193.3 226.39 190.63 229.16 187.21 231.66L179.75 249.07C179.75 249.07 178.66 251.44 177.56 250.66C176.73 250.07 177.56 248.07 177.56 248.07L179.88 241.67C179.62 242.16 175.12 250.43 172.76 249.12C170.39 247.8 176.56 239.53 176.88 239.09C176.49 239.56 169.43 247.92 167.37 245.79C165.26 243.61 172.95 236.53 172.95 236.53C172.95 236.53 162.84 239.36 163.02 232.09C163.02 232.09 162.93 229.74 164.56 230.32C166.19 230.88 167.7 232.91 167.7 232.91C167.7 232.91 171.4 232.51 171.17 229.48C170.94 226.45 168.26 225.55 166.94 227.27C165.62 229 164.66 229.58 163.83 228.98C162.99 228.37 162.55 225.78 165.15 223.54C165.15 223.54 169.48 219.67 174.08 219.95C177.43 220.15 179.87 220.89 180.95 221.28C181.74 220.79 183.04 219.79 184.31 218.02C185.63 216.2 186.9 213.56 187.52 209.82C188.01 206.87 188.09 203.24 187.49 198.79C187.74 198.8 187.98 198.8 188.22 198.79C188.88 198.74 189.61 198.72 190.22 198.63C190.69 198.56 191.15 198.5 191.61 198.44C191.95 198.39 192.29 198.34 192.63 198.29C193.06 198.23 193.49 198.16 193.92 198.08C195.16 197.8 196.41 197.61 197.66 197.2C198.67 196.91 199.71 196.57 200.73 196.15C201.71 202.74 201.52 209.76 199.08 216.34Z" fill="#A6C721" stroke="black" stroke-miterlimit="10" stroke-linecap="round" stroke-linejoin="round"/>
<path d="M96.5302 237.94L85.9001 232.8" stroke="black" stroke-miterlimit="10" stroke-linecap="round" stroke-linejoin="round"/>
<path d="M192.19 283.28L186.72 286.16" stroke="black" stroke-miterlimit="10" stroke-linecap="round" stroke-linejoin="round"/>
<path d="M142.68 122.51C142.68 122.51 147.01 124.31 147.51 125.66C147.87 126.62 146.36 129.6 146.36 129.6C146.36 129.6 149.03 129.39 149.5 130.02C149.81 130.44 149.19 132.09 149.19 132.09C149.19 132.09 151.08 132.16 151.41 132.63C152.09 133.58 151.03 137.28 151.03 137.28" fill="#5EB673"/>
<path d="M142.68 122.51C142.68 122.51 147.01 124.31 147.51 125.66C147.87 126.62 146.36 129.6 146.36 129.6C146.36 129.6 149.03 129.39 149.5 130.02C149.81 130.44 149.19 132.09 149.19 132.09C149.19 132.09 151.08 132.16 151.41 132.63C152.09 133.58 151.03 137.28 151.03 137.28" stroke="black" stroke-miterlimit="10" stroke-linecap="round" stroke-linejoin="round"/>
<path d="M199.66 190.26C198.61 190.88 197.35 191.39 196.05 191.8C195.05 192.18 193.93 192.38 192.87 192.67C192.68 192.71 192.5 192.75 192.31 192.78C192.22 192.8 192.13 192.82 192.05 192.83C191.68 192.9 191.3 192.96 190.93 193.03C190.47 193.11 190 193.19 189.54 193.28C188.55 193.44 187.58 193.52 186.64 193.49H186.56C186.27 191.95 186.02 190.66 186.02 190.66C185.38 187.9 184.66 185.36 183.91 183.05C183.22 180.95 182.52 179.05 181.83 177.38C181.84 177.38 181.84 177.38 181.85 177.38C182.86 177.2 183.93 177.2 185.01 177.25L186.87 177.33L188.75 177.32C190.84 177.24 192.92 176.96 194.95 176.5C195.2 177.05 195.44 177.62 195.69 178.22H195.7C196.49 180.14 197.3 182.25 198.04 184.53C198.63 186.35 199.19 188.27 199.66 190.26Z" fill="#A6C721" stroke="black" stroke-miterlimit="10" stroke-linecap="round" stroke-linejoin="round"/>
<path d="M143.57 203.21C143.45 204.11 143.19 204.98 142.95 205.87C142.78 206.27 142.63 206.67 142.46 207.08C142.29 207.51 142.12 207.94 141.9 208.32C141.05 209.92 140.06 211.37 138.95 212.72C137.91 213.99 136.78 215.16 135.62 216.26C134.42 217.4 133.15 218.44 131.82 219.4C131.81 219.41 131.81 219.41 131.8 219.41C131.5 219.64 131.2 219.86 130.93 220.08C130.06 220.75 129.28 221.37 128.42 222.03C127.46 222.83 126.52 223.65 125.61 224.5C123.31 226.64 121.18 228.94 119.25 231.36C119.06 231.58 118.89 231.8 118.71 232.03C118.51 232.29 118.3 232.55 118.1 232.82C117.81 233.2 117.53 233.59 117.25 233.98C116.93 234.41 116.63 234.84 116.34 235.29C116.1 235.63 115.87 235.98 115.64 236.32C114.51 238.04 113.47 239.81 112.53 241.62C111.97 242.71 111.43 243.8 110.92 244.9C110.42 246.03 109.95 247.17 109.52 248.32C107.64 253.33 106.42 258.58 106.02 263.7C105.87 265.7 105.84 267.69 106 269.56C106.04 270.07 106.1 270.57 106.18 271.06C106.44 273.35 107.23 275.37 107.84 276.23C108.13 276.61 108.17 276.64 108.07 276.69C107.95 276.78 108.2 276.8 108.8 276.66C110.19 276.23 111.41 275.31 112.51 273.66C116.54 276.15 119.99 278.18 122.41 279.58L121.83 280.63C121.54 281.06 121.22 281.49 120.92 281.91C120.59 282.33 120.31 282.77 119.95 283.16L118.8 284.33C117.26 285.88 115.29 287.12 113.23 288.02C111.05 288.88 108.25 289.59 105.18 288.88C102.15 288.22 99.67 286.42 98 284.55C97.22 283.61 96.48 282.63 95.98 281.67C95.37 280.7 95.01 279.76 94.59 278.81C94.19 277.86 93.95 276.94 93.63 275.99C93.41 275.08 93.18 274.16 93.01 273.25C92.38 269.62 92.24 266.12 92.51 262.7C92.57 261.96 92.64 261.22 92.74 260.48C93.05 257.83 93.53 255.25 94.19 252.71C95.06 249.48 96.2 246.36 97.5 243.31C98.11 241.96 98.76 240.63 99.46 239.33C100.11 238.09 100.81 236.89 101.55 235.71C103.07 233.27 104.75 230.93 106.58 228.72C108.29 226.63 110.15 224.66 112.1 222.82L112.6 222.34C112.77 222.18 112.94 222.03 113.11 221.87C113.51 221.51 113.91 221.16 114.33 220.8C114.6 220.56 114.89 220.32 115.17 220.09C116.6 218.9 118.08 217.78 119.61 216.73C120.77 215.93 121.96 215.17 123.18 214.45C123.23 214.42 123.28 214.4 123.33 214.37C124.65 213.63 126.1 212.82 127.31 212.18C127.42 212.12 127.55 212.06 127.66 211.99C128.75 211.43 129.8 210.79 130.85 210.15C131.43 209.78 132.01 209.39 132.56 208.99C133.8 208.1 134.95 207.12 135.96 206.07C136.28 205.75 136.57 205.42 136.85 205.08C138.52 203.16 139.44 200.97 139.3 198.52C139.18 196.06 137.79 193.49 136.03 191.12L136.01 191.09C135.79 190.8 135.85 190.38 136.14 190.17C136.37 189.99 136.69 190 136.91 190.15C139.43 191.92 141.91 194.27 143.06 197.7C143.75 199.48 143.77 201.38 143.57 203.21Z" fill="#E9408F" stroke="black" stroke-miterlimit="10" stroke-linecap="round" stroke-linejoin="round"/>
<path d="M111.54 221.13C109.86 219.27 107.92 217.53 105.52 216.13C105.33 216.02 105.15 215.92 104.96 215.81C103.32 214.87 101.33 214.26 99.2901 213.96C98.2801 213.9 97.1401 213.87 96.2101 213.97C95.3001 214.1 94.3901 214.19 93.5101 214.45C92.5701 214.65 91.6701 214.94 90.7901 215.3C89.9901 215.63 89.2001 215.99 88.4301 216.38C86.8801 217.27 85.3901 218.26 84.1101 219.42C81.4901 221.71 79.4301 224.41 77.8101 227.24C74.9301 232.32 73.2101 237.77 72.2401 243.28C72.1201 243.95 72.0101 244.62 71.9101 245.29C71.0401 251.48 71.0501 257.75 72.0401 263.89C72.5301 266.95 73.2901 269.99 74.3601 272.92L75.8801 277.09C76.3001 278.48 76.7601 279.88 77.0901 281.29C77.8201 284.1 78.1901 286.98 78.0101 289.81C77.8401 291.2 77.6101 292.61 77.0001 293.83C76.4401 295.05 75.4701 296.19 74.4101 296.72L74.3001 296.77C74.0001 296.92 73.8701 297.27 73.9901 297.59C74.1201 297.92 74.5001 298.08 74.8301 297.94C76.5301 297.26 77.6401 296.01 78.4801 294.59C79.3201 293.18 79.7101 291.61 80.0201 290.05C80.4901 286.92 80.3201 283.75 79.7901 280.72C79.5501 279.18 79.1701 277.7 78.8301 276.2L77.5901 271.82C76.7901 269.07 76.2801 266.22 76.0201 263.35C75.5401 258.12 75.8301 252.8 76.8001 247.68C76.8901 247.18 76.9901 246.67 77.1001 246.18C78.3001 240.59 80.3301 235.17 83.3501 230.63C86.3201 226.1 90.4901 222.56 95.1101 221.84C95.6701 221.7 96.2801 221.7 96.8501 221.64C97.4101 221.62 97.7801 221.7 98.2501 221.73C99.1501 221.97 100.07 222.24 100.99 222.87C102.83 224.02 104.58 225.88 106.09 228.01C106.27 228.26 106.43 228.5 106.61 228.75C108.32 226.66 110.18 224.69 112.13 222.85L112.63 222.37C112.28 221.97 111.92 221.54 111.54 221.13Z" fill="#E9408F" stroke="black" stroke-miterlimit="10" stroke-linecap="round" stroke-linejoin="round"/>
<path d="M125.09 251.74L113.85 246.3C113.58 245.15 113.28 244.01 112.95 242.88C112.83 242.46 112.69 242.04 112.56 241.63C113.5 239.81 114.54 238.05 115.67 236.33C115.9 235.99 116.13 235.64 116.37 235.3C116.66 234.86 116.96 234.43 117.28 233.99C117.55 233.59 117.84 233.2 118.13 232.83C118.33 232.57 118.54 232.3 118.74 232.04C119.8 234.2 120.73 236.41 121.55 238.64C121.72 239.08 121.88 239.52 122.04 239.96C122.05 239.98 122.06 240 122.06 240.02C123.34 243.84 124.38 247.73 125.09 251.74Z" fill="#E9408F" stroke="black" stroke-miterlimit="10" stroke-linecap="round" stroke-linejoin="round"/>
<path d="M73.8001 275.02C73.7301 274.81 73.5001 274.7 73.2901 274.77C68.6201 276.31 63.9701 277.79 59.2901 278.75C58.1201 279.01 56.9501 279.18 55.7901 279.4L54.0401 279.61C53.4601 279.69 52.8801 279.74 52.3101 279.76C50.6501 279.89 49.0001 279.88 47.4401 279.72C47.4501 279.71 47.4501 279.7 47.4601 279.69C48.8701 276.92 49.6801 273.94 49.6601 270.7C49.6101 269.08 49.4001 267.39 48.6501 265.6C48.2801 264.72 47.7701 263.81 47.0301 262.96C46.3001 262.12 45.3401 261.36 44.2501 260.85C43.1501 260.34 41.9901 260.14 40.9301 260.11C39.8501 260.07 38.9201 260.25 38.0301 260.47C37.4901 260.64 36.8301 260.87 36.3201 261.15C35.8401 261.45 35.2801 261.76 34.9101 262.13C34.5101 262.49 34.1101 262.86 33.8201 263.24C33.5001 263.62 33.2001 264.02 32.9801 264.41C32.0101 266 31.5201 267.62 31.2601 269.24C31.0101 270.86 31.0601 272.5 31.3901 274.1C31.8801 276.67 33.2401 279.12 35.1201 280.94C34.0701 281.53 32.9801 281.93 31.9101 282.05C30.3401 282.24 28.6901 281.95 27.0301 281.07C25.3601 280.24 23.7401 278.88 22.2601 277.29C19.2901 274.09 16.8601 270.03 14.7501 265.83C13.6901 263.72 12.7501 261.53 11.8301 259.33C10.9401 257.15 10.1601 254.94 9.50007 252.7C8.19007 248.21 7.41007 243.58 7.24007 238.91C7.06007 234.25 7.50007 229.55 8.55007 224.96C9.58007 220.36 11.2101 215.88 13.2401 211.55C15.2401 207.19 17.7001 203.06 20.1301 198.72C20.7301 197.62 21.3301 196.51 21.8401 195.25C22.0901 194.61 22.3301 193.95 22.4401 193.11C22.4801 192.68 22.5101 192.22 22.3801 191.68C22.2501 191.16 21.9601 190.58 21.5401 190.2C21.3501 190.01 21.1001 189.85 20.9201 189.73L20.4101 189.46C20.0701 189.29 19.6901 189.16 19.3301 189.05C18.8401 188.91 18.3401 188.85 17.8401 188.83C17.3201 187.73 16.6701 186.73 15.9701 185.78C14.4801 183.76 12.7801 181.96 10.9401 180.29C10.7901 180.15 10.5501 180.15 10.4001 180.3C10.2401 180.45 10.2401 180.7 10.3901 180.86L10.4001 180.87C12.0801 182.6 13.6501 184.48 14.9501 186.49C15.4601 187.29 15.9401 188.11 16.3201 188.96C15.1101 189.18 14.0001 189.67 13.0301 190.31C11.8801 191.1 10.8701 192.04 10.1201 193.32C9.78007 193.97 9.37007 194.69 9.56007 195.86C9.67007 196.45 10.1701 197.05 10.6801 197.27C10.9201 197.38 11.1701 197.45 11.3901 197.5C11.6001 197.52 11.8301 197.56 12.0201 197.55C12.8201 197.56 13.4601 197.37 14.1101 197.2C14.7301 197.01 15.3701 196.78 15.9901 196.46C16.6101 196.13 17.2201 195.71 17.7101 195.12C18.1901 194.53 18.5401 193.81 18.6601 193.06C18.7301 192.61 18.7301 192.17 18.6901 191.74C18.8501 191.8 19.0001 191.86 19.1501 191.95L19.4401 192.12C19.5101 192.17 19.5301 192.19 19.5401 192.21C19.5801 192.24 19.5401 192.25 19.5701 192.31C19.5801 192.37 19.5701 192.53 19.5401 192.71C19.4801 193.08 19.2901 193.58 19.0601 194.07C18.6001 195.06 17.9901 196.09 17.3601 197.1C14.7901 201.18 12.0001 205.34 9.68007 209.78C7.35007 214.22 5.40007 218.92 4.06007 223.83C2.71007 228.74 1.99007 233.85 1.96007 238.98C1.95007 244.11 2.63007 249.24 3.88007 254.2C4.50007 256.68 5.27007 259.13 6.15007 261.51C7.03007 263.86 7.94007 266.21 9.00007 268.52C11.0801 273.15 13.4701 277.74 16.9701 281.93C18.7301 284 20.7601 286.02 23.3901 287.55C25.9601 289.12 29.2701 290.09 32.5901 289.86C35.9101 289.61 38.9501 288.28 41.4001 286.51C42.1301 285.98 42.8001 285.4 43.4501 284.8C43.9501 284.87 44.4501 284.93 44.9401 284.97C47.7201 285.16 50.4001 284.94 52.9401 284.37C53.5801 284.26 54.2101 284.1 54.8301 283.93L56.6901 283.43C57.9001 283.02 59.1201 282.67 60.2901 282.2C65.0001 280.37 69.4301 278.09 73.6101 275.46C73.7901 275.39 73.8601 275.2 73.8001 275.02ZM11.6601 195.39C11.6501 195.39 11.6401 195.38 11.6401 195.38C11.6101 195.35 11.6401 195.37 11.6601 195.39ZM17.0201 192.75C16.9101 193.21 16.6801 193.61 16.3801 193.95C16.0701 194.29 15.6401 194.56 15.1701 194.78C14.2501 195.19 12.9601 195.51 12.0801 195.48C11.9701 195.48 11.8901 195.45 11.8001 195.44C11.7501 195.42 11.7101 195.41 11.6801 195.39C11.6601 195.33 11.7801 194.85 12.0601 194.47C12.5901 193.65 13.4501 192.91 14.3401 192.37C15.2101 191.86 16.1601 191.54 17.0601 191.49C17.1101 191.93 17.1101 192.36 17.0201 192.75ZM38.4401 270.45C38.6101 269.67 38.9301 268.93 39.2901 268.46C39.3701 268.32 39.4601 268.24 39.5501 268.16C39.6301 268.05 39.7101 268.03 39.7601 267.98C39.8201 267.9 39.8501 267.97 39.8701 267.93C39.9001 267.93 39.8301 267.99 39.8701 267.95C40.1801 267.91 40.4601 267.87 40.6101 267.92C40.7701 267.95 40.8301 267.98 40.8401 268.01C40.8401 268.05 40.9901 268.11 41.1801 268.65C41.3701 269.13 41.4801 269.92 41.4601 270.73C41.4301 272.4 40.9701 274.28 40.1201 275.86C40.0201 276.06 39.9001 276.23 39.7901 276.42C38.9401 275.42 38.4401 274.21 38.3101 272.9C38.2401 272.09 38.2501 271.24 38.4401 270.45Z" fill="#E9408F" stroke="black" stroke-miterlimit="10" stroke-linecap="round" stroke-linejoin="round"/>
<path d="M190.13 96.8701C190 98.1201 189.68 99.3401 189.34 100.32C189.02 101.28 188.63 102.24 188.18 103.18C187.25 105.06 186.02 106.92 184.37 108.52C182.74 110.13 180.66 111.38 178.49 112.15C176.32 112.92 174.07 113.17 171.95 113.15C169.83 113.09 167.83 112.74 165.9 112.28C165.4 112.14 164.91 112 164.43 111.84C164.34 108.72 164.04 105.98 163.6 103.58C164.96 104.01 166.31 104.36 167.64 104.61C170.62 105.15 173.52 105.18 175.74 104.35C176.87 103.97 177.84 103.36 178.75 102.57C179.65 101.78 180.46 100.73 181.14 99.5201C181.48 98.9101 181.81 98.2801 182.09 97.6001C182.38 96.9501 182.52 96.4701 182.65 95.9901C182.72 95.5701 182.73 95.2501 182.72 95.0501C182.69 94.8801 182.66 94.7701 182.47 94.5401C182.39 94.4301 182.21 94.3301 182.06 94.2001C181.85 94.1101 181.66 93.9701 181.39 93.8901C180.89 93.6901 180.24 93.5601 179.58 93.4701C178.22 93.3301 176.69 93.3801 175.16 93.6101C173.62 93.8301 172.07 94.2501 170.53 94.7601C168.99 95.2601 167.47 95.9201 166 96.6801C164.77 97.2901 163.59 97.9901 162.43 98.7701C162.12 97.7701 161.79 96.8601 161.46 96.0301C162.25 95.2001 163.09 94.4101 163.98 93.6601C166.84 91.3001 170.13 89.3701 173.84 88.1801C175.69 87.5701 177.66 87.1501 179.8 87.0901C180.89 87.0901 181.99 87.1301 183.17 87.4101C183.74 87.5201 184.36 87.7501 184.96 87.9701C185.57 88.2501 186.18 88.5401 186.78 88.9901C187.97 89.8301 189.04 91.1401 189.6 92.6301C190.13 94.1001 190.22 95.5601 190.13 96.8701Z" fill="#E9408F" stroke="black" stroke-miterlimit="10" stroke-linecap="round" stroke-linejoin="round"/>
<path d="M237.21 187.05C237.01 186.96 236.78 187.06 236.69 187.26C234.64 192.05 232.44 196.73 229.71 200.98C229 202.01 228.32 203.08 227.57 204.08C226.8 205.06 226.08 206.07 225.23 206.96C223.65 208.85 221.86 210.49 219.98 211.94C219.22 212.52 218.44 213.05 217.63 213.54C214.44 215.49 210.96 216.7 207.37 217.02C204.6 217.32 201.78 217.06 199.07 216.35C198.16 218.79 196.94 221.17 195.35 223.45C199.47 224.54 203.81 224.81 208.03 224.16C208.13 224.15 208.23 224.13 208.33 224.12C212.13 223.46 215.74 222.03 218.93 220.02C220.65 218.94 222.26 217.69 223.69 216.3C227.83 212.4 230.77 207.63 232.98 202.74C235.11 197.79 236.57 192.67 237.43 187.48C237.49 187.31 237.39 187.12 237.21 187.05Z" fill="#E9408F" stroke="black" stroke-miterlimit="10" stroke-linecap="round" stroke-linejoin="round"/>
<path d="M214.18 163.74C212.94 166.02 211.21 167.87 209.31 169.47C208.46 170.18 207.58 170.85 206.67 171.46C203.48 173.62 199.91 175.2 196.17 176.2C195.76 176.31 195.36 176.4 194.95 176.5C192.92 176.96 190.85 177.24 188.75 177.32L186.87 177.33L185.01 177.25C183.93 177.21 182.86 177.21 181.85 177.38C181.84 177.38 181.84 177.38 181.83 177.38C179.82 177.7 178.06 178.55 177.06 179.96C176.02 181.33 175.68 183.23 176.04 185.09C176.28 186.53 176.9 187.92 177.8 189.12C179.08 187.19 180.68 185.54 182.39 184.18C182.88 183.78 183.4 183.4 183.92 183.06C184.67 185.36 185.39 187.91 186.03 190.67C185.28 191.46 184.64 192.31 184.12 193.19C184.52 193.29 184.92 193.36 185.33 193.4C185.53 193.43 185.74 193.45 185.94 193.46C186.08 193.47 186.21 193.48 186.35 193.49C186.42 193.49 186.49 193.5 186.56 193.5H186.64C187.58 193.53 188.56 193.45 189.54 193.29C190 193.2 190.47 193.12 190.93 193.04C191.31 192.98 191.68 192.91 192.05 192.84C192.14 192.82 192.23 192.8 192.31 192.79C192.5 192.75 192.68 192.72 192.87 192.68C193.93 192.39 195.05 192.19 196.05 191.81C197.35 191.4 198.61 190.89 199.66 190.27C200.27 189.92 200.82 189.53 201.26 189.11C201.85 188.55 202.25 187.96 202.42 187.44C202.5 187.18 202.55 186.92 202.53 186.67C202.54 186.54 202.5 186.42 202.49 186.31C202.48 186.25 202.45 186.2 202.45 186.16C202.45 186.15 202.45 186.14 202.45 186.14L202.43 186.1L202.39 186.03C202.38 186.02 202.37 185.99 202.35 185.98C202.32 185.94 202.28 185.88 202.24 185.82C202.17 185.71 202.05 185.59 201.95 185.48C201.72 185.27 201.46 185.07 201.16 184.93C200.56 184.61 199.76 184.48 198.85 184.48C198.59 184.49 198.31 184.51 198.04 184.54C197.3 182.26 196.5 180.14 195.7 178.23C196.75 178.07 197.85 177.98 199 178.01C200.69 178.09 202.5 178.44 204.19 179.4C205.03 179.87 205.81 180.48 206.48 181.21C206.82 181.57 207.13 181.95 207.4 182.38C207.54 182.59 207.67 182.81 207.8 183.05C207.86 183.16 207.92 183.28 207.99 183.42C208.06 183.57 208.1 183.67 208.21 183.94L208.24 184.01L208.3 184.21C208.34 184.33 208.39 184.48 208.41 184.6C208.46 184.84 208.52 185.09 208.55 185.32C208.62 185.79 208.66 186.26 208.64 186.73C208.63 187.67 208.43 188.59 208.12 189.46C207.47 191.18 206.35 192.51 205.18 193.54C203.76 194.72 202.29 195.54 200.79 196.15C199.77 196.57 198.73 196.91 197.72 197.2C196.47 197.61 195.22 197.8 193.98 198.08C193.55 198.16 193.12 198.23 192.69 198.29L187.54 198.79C187.1 198.79 186.65 198.77 186.21 198.75C185.03 198.63 183.84 198.46 182.68 198.12C182.65 198.81 182.69 199.51 182.79 200.2C183.07 202.13 183.83 204.11 184.92 206.02L185.31 206.73L185.79 207.43L186.25 208.13C186.41 208.37 186.56 208.62 186.71 208.78C186.96 209.13 187.26 209.48 187.58 209.81C186.95 213.55 185.68 216.19 184.37 218.01C184.03 217.76 183.71 217.49 183.39 217.22C182.24 216.18 181.11 215.11 180.12 213.78C179.85 213.45 179.65 213.14 179.45 212.84L178.83 211.91L178.23 210.98L177.7 209.98C176.27 207.34 175.13 204.37 174.82 201.12C174.78 200.3 174.75 199.48 174.73 198.67C174.8 197.84 174.87 197.02 174.97 196.2C175.16 195.41 175.31 194.61 175.54 193.83C175.38 193.67 175.24 193.51 175.1 193.35C173.26 191.21 171.98 188.58 171.62 185.72C171.44 184.3 171.47 182.83 171.82 181.38C172.17 179.93 172.84 178.53 173.81 177.36C174.77 176.19 176 175.23 177.32 174.65C178.27 174.23 179.26 173.9 180.24 173.72C180.62 173.64 181 173.59 181.37 173.56C182.73 173.4 184.04 173.47 185.34 173.6L187.04 173.76L188.72 173.83C190.34 173.85 191.96 173.73 193.57 173.49C194.21 173.4 194.83 173.29 195.46 173.15C198.92 172.42 202.3 171.11 205.35 169.27C206.21 168.76 207.04 168.19 207.83 167.59C209.64 166.22 211.3 164.6 212.43 162.74C212.98 161.82 213.36 160.81 213.35 159.9C213.31 159.46 213.22 159.04 212.97 158.7C212.73 158.39 212.34 158.01 211.9 157.76C211.04 157.22 210 157 208.93 157.06C207.85 157.12 206.76 157.44 205.72 157.88C203.62 158.79 201.65 160.16 199.92 161.7L199.91 161.71C199.9 161.72 199.9 161.72 199.89 161.72C199.72 161.52 199.55 161.31 199.39 161.11C201.1 159.4 203 157.9 205.21 156.78C206.31 156.23 207.51 155.79 208.81 155.63C210.1 155.48 211.52 155.67 212.73 156.34C213.33 156.66 213.86 157.06 214.38 157.66C214.86 158.28 215.1 159.04 215.18 159.78C215.24 161.28 214.77 162.6 214.18 163.74Z" fill="#E9408F" stroke="black" stroke-miterlimit="10" stroke-linecap="round" stroke-linejoin="round"/>
<path d="M16.3201 188.96C16.3201 188.96 17.1001 190.24 17.0601 191.49" stroke="black" stroke-miterlimit="10" stroke-linecap="round" stroke-linejoin="round"/>
<path d="M17.8401 188.84C17.8401 188.84 18.6301 190.37 18.7101 191.74" stroke="black" stroke-miterlimit="10" stroke-linecap="round" stroke-linejoin="round"/>
<path d="M35.1401 280.93C35.1401 280.93 38.5901 284.08 43.4701 284.82" stroke="black" stroke-miterlimit="10" stroke-linecap="round" stroke-linejoin="round"/>
<path d="M39.79 276.42C39.79 276.42 42.6 279.34 47.44 279.71" stroke="black" stroke-miterlimit="10" stroke-linecap="round" stroke-linejoin="round"/>
<path d="M182.65 95.98C182.65 95.98 183.68 92.74 182.04 91.73" stroke="black" stroke-miterlimit="10" stroke-linecap="round" stroke-linejoin="round"/>
<path d="M177.8 189.13C177.8 189.13 179.67 192.47 184.12 193.2" stroke="black" stroke-miterlimit="10" stroke-linecap="round" stroke-linejoin="round"/>
<path d="M175.52 193.85C175.52 193.85 178.32 196.98 182.66 198.14" stroke="black" stroke-miterlimit="10" stroke-linecap="round" stroke-linejoin="round"/>
</svg>
