<svg width="251" height="270" viewBox="0 0 251 270" fill="none" xmlns="http://www.w3.org/2000/svg">
<path d="M110.684 143.262C110.684 143.262 36.5661 127.985 33.5633 138.95C32.7579 141.878 38.1272 158.251 41.7267 168.171C45.3958 177.502 49.8206 187.82 54.0664 197.351C54.4243 198.158 54.7823 198.965 55.1402 199.762C61.2951 213.535 66.8733 225.307 68.8918 229.51H99.6465L80.794 192.501L78.6263 188.239L70.8606 172.981L58.9585 149.606L110.206 155.213L110.684 143.262Z" fill="#23B4BF" stroke="black" stroke-miterlimit="10" stroke-linecap="round" stroke-linejoin="round"/>
<path d="M205.841 182.871C205.841 182.871 261.006 245.455 248.14 264.487C238.853 278.241 182.156 257.984 182.156 257.984L182.574 246.67L229.347 247.855L192.686 193.497L205.841 182.871Z" fill="#23B4BF" stroke="black" stroke-miterlimit="10" stroke-linecap="round" stroke-linejoin="round"/>
<path d="M150.339 4.38249C151.681 4.62154 153.103 4.95023 154.605 5.34865C154.824 5.40841 155.042 5.46818 155.261 5.52794C156.504 5.87656 157.668 6.28494 158.752 6.73316C158.921 4.90043 158.613 2.41031 156.077 1.49395C155.878 1.42422 155.689 1.37442 155.51 1.33458C152.914 0.756872 151.174 2.92826 150.339 4.38249Z" fill="#4A4246" stroke="black" stroke-miterlimit="10" stroke-linecap="round" stroke-linejoin="round"/>
<path d="M128.205 100.141C128.205 100.141 122.945 99.6731 121.98 112.471L130.989 111.525L139.6 106.306L128.205 100.141Z" fill="#685461" stroke="black" stroke-miterlimit="10" stroke-linecap="round" stroke-linejoin="round"/>
<path d="M130.989 111.525L132.322 112.471L149.106 124.342L145.437 97.1733L130.253 99.3843L127.509 99.703C127.509 99.703 132.163 101.545 130.989 111.525Z" fill="#F59C3F" stroke="black" stroke-miterlimit="10" stroke-linecap="round" stroke-linejoin="round"/>
<path d="M130.989 111.525L132.322 112.471C133.226 105.938 131.496 101.555 130.253 99.3843L127.509 99.703C127.509 99.703 132.163 101.545 130.989 111.525Z" fill="#F59C3F" stroke="black" stroke-miterlimit="10" stroke-linecap="round" stroke-linejoin="round"/>
<path d="M179.701 114.034C179.771 114.124 179.841 114.214 179.91 114.303C180.149 114.602 180.855 115.419 181.511 116.046V113.019C173.218 102.641 178.816 93.4983 179.244 92.831L179.274 92.7912C179.274 92.7912 178.359 92.7513 176.977 92.6916C176.47 93.6975 175.764 95.3906 175.346 97.5617C174.521 101.745 174.789 107.72 179.701 114.034Z" fill="#F59C3F" stroke="black" stroke-miterlimit="10" stroke-linecap="round" stroke-linejoin="round"/>
<path d="M156.514 129.93L156.822 129.89L157.22 129.551C156.195 103.517 168.744 100.649 168.744 100.649C168.903 95.9085 167.402 92.4825 167.322 92.2833C166.119 92.2335 165.294 92.1936 165.194 92.1936L160.232 94.7432C152.009 102.651 156.514 129.93 156.514 129.93Z" fill="#F59C3F" stroke="black" stroke-miterlimit="10" stroke-linecap="round" stroke-linejoin="round"/>
<path d="M156.822 129.89L181.511 126.304V116.046C180.855 115.419 180.149 114.602 179.91 114.303C179.841 114.214 179.761 114.124 179.701 114.034C174.789 107.72 174.521 101.745 175.346 97.5716C175.764 95.4005 176.47 93.7074 176.977 92.7015C174.302 92.582 169.907 92.3928 167.302 92.2832C167.392 92.4824 168.883 95.9084 168.724 100.649C168.724 100.649 156.186 103.517 157.2 129.551L156.822 129.89Z" fill="#F59C3F" stroke="black" stroke-miterlimit="10" stroke-linecap="round" stroke-linejoin="round"/>
<path d="M149.116 124.342L141.43 107.66L140.177 97.9401L145.447 97.1733L149.116 124.342Z" fill="#F59C3F" stroke="black" stroke-miterlimit="10" stroke-linecap="round" stroke-linejoin="round"/>
<path d="M74.0438 150.884C74.0438 150.884 67.9188 148.952 68.0977 146.94C68.237 145.337 72.9302 144.61 72.9302 144.61C72.9302 144.61 68.2568 143.933 68.2171 142.239C68.1773 140.447 73.1092 139.481 73.1092 139.481C73.1092 139.481 68.2568 138.047 69.0722 136.334C70.5339 133.276 80.5468 135.646 80.5468 135.646L114.483 142.986L116.979 136.622C116.979 136.622 133.067 141.473 133.555 141.761C134.042 142.05 135.106 157.467 135.513 157.896C135.653 158.045 132.928 157.159 129.279 155.924L129.269 162.805L102.571 158.184C102.571 158.184 69.3307 160.106 67.9486 152.667C67.6006 150.824 74.0438 150.884 74.0438 150.884Z" fill="#685461"/>
<mask id="mask0_184_53" style="mask-type:luminance" maskUnits="userSpaceOnUse" x="109" y="133" width="69" height="29">
<path d="M171.211 145.752C171.211 145.752 177.336 147.684 177.157 149.695C177.018 151.299 172.325 152.026 172.325 152.026C172.325 152.026 176.998 152.703 177.038 154.396C177.078 156.189 172.146 157.155 172.146 157.155C172.146 157.155 176.998 158.589 176.183 160.302C174.721 163.36 164.708 160.989 164.708 160.989L130.772 153.649L128.276 160.013C128.276 160.013 112.188 155.163 111.7 154.874C111.213 154.585 110.149 139.168 109.742 138.74C109.602 138.591 112.327 139.477 115.976 140.712L115.986 133.83L142.684 138.451C142.684 138.451 175.924 136.529 177.306 143.969C177.654 145.811 171.211 145.752 171.211 145.752Z" fill="white"/>
</mask>
<g mask="url(#mask0_184_53)">
<path d="M115.22 159.276L130.046 159.276L130.046 137.366L115.22 137.366L115.22 159.276Z" fill="#685461" stroke="black" stroke-miterlimit="10" stroke-linecap="round" stroke-linejoin="round"/>
</g>
<path d="M74.0438 150.884C74.0438 150.884 67.9188 148.952 68.0977 146.94C68.237 145.337 72.9302 144.61 72.9302 144.61C72.9302 144.61 68.2568 143.933 68.2171 142.239C68.1773 140.447 73.1092 139.481 73.1092 139.481C73.1092 139.481 68.2568 138.047 69.0722 136.334C70.5339 133.276 80.5468 135.646 80.5468 135.646L114.483 142.986L116.979 136.622C116.979 136.622 133.067 141.473 133.555 141.761C134.042 142.05 135.106 157.467 135.513 157.896C135.653 158.045 132.928 157.159 129.279 155.924L129.269 162.805L102.571 158.184C102.571 158.184 69.3307 160.106 67.9486 152.667C67.6006 150.824 74.0438 150.884 74.0438 150.884Z" stroke="black" stroke-miterlimit="10" stroke-linecap="round" stroke-linejoin="round"/>
<path d="M85.578 131.951C85.578 131.951 85.3295 171.679 95.8594 173.701C104.719 175.404 115.478 158.065 122.945 143.235L111.122 137.688L99.8666 159.1L98.8424 136.473C98.8424 136.473 99.9461 134.969 101.159 133.007C103.108 129.84 105.355 125.498 103.774 124.352C102.014 123.087 100.592 126.155 99.8666 128.217C100.433 126.095 101.07 122.649 99.4589 122.092C97.3708 121.365 95.6009 125.796 95.223 126.812C95.5512 125.786 96.8239 121.355 94.7358 120.538C92.7074 119.751 91.2159 123.127 90.8281 124.093C91.1562 123.167 92.2798 119.95 92.8367 117.122C93.2841 114.901 93.3835 112.909 92.4787 112.481C91.2159 111.883 89.963 113.317 88.8593 115.429C86.8707 119.263 85.3991 125.328 85.3295 125.577V125.587L82.7144 124.352C82.7144 124.342 80.8351 129.063 85.578 131.951ZM99.8467 128.286C99.6279 129.093 99.4291 129.701 99.3794 129.85C99.4092 129.71 99.5683 129.083 99.8467 128.286Z" fill="#23B4BF" stroke="black" stroke-miterlimit="10" stroke-linecap="round" stroke-linejoin="round"/>
<path d="M116.621 127.241L111.122 137.688L122.945 143.235C124.964 139.212 126.743 135.377 128.175 132.16C130.581 126.782 132.013 123.107 132.013 123.107L121.235 118.476L116.621 127.241Z" fill="#23B4BF" stroke="black" stroke-miterlimit="10" stroke-linecap="round" stroke-linejoin="round"/>
<path d="M99.3694 129.85C99.4192 129.701 99.6184 129.093 99.8375 128.286C99.5686 129.083 99.4092 129.711 99.3694 129.85Z" fill="white" stroke="black" stroke-miterlimit="10" stroke-linecap="round" stroke-linejoin="round"/>
<path d="M120.201 93.807C122.895 102.243 140.087 106.007 157.2 99.2946C180.775 90.0424 165.413 77.0853 165.413 77.0853L164.439 57.6546L164.369 57.1367C164.866 57.4853 165.413 57.7642 166 57.9434C166.467 58.0829 166.944 58.1426 167.412 58.1526C167.402 58.1426 167.402 58.1327 167.402 58.1127C166.706 55.5532 167.69 52.8741 169.748 51.7388C170.454 51.3504 171.329 51.6093 171.717 52.3064C172.105 53.0136 171.846 53.89 171.15 54.2784C170.265 54.7664 169.848 56.081 170.196 57.3459C170.206 57.4156 170.235 57.4753 170.265 57.5451C171.468 56.9973 172.612 56.1209 173.596 54.9656C174.223 54.2485 174.78 53.4418 175.257 52.5355C175.744 51.6491 176.142 50.6632 176.45 49.6174C176.5 49.4382 176.549 49.2589 176.599 49.0796C177.822 44.2493 176.53 39.5983 173.616 37.6662C173.149 37.3575 172.652 37.1284 172.115 36.9691C170.723 36.5607 169.271 36.7201 167.889 37.3475C167.421 37.5467 166.974 37.8156 166.527 38.1144C165.95 38.5028 165.403 38.9809 164.886 39.5386C163.931 40.5445 163.096 41.7894 162.44 43.2036L161.923 46.1815L158.801 44.6577C158.801 44.6577 158.781 38.9709 157.955 37.3176C157.329 36.0329 154.445 34.6485 153.829 33.3439C153.272 32.1786 153.401 28.1949 153.401 28.1949C153.401 28.1949 151.751 27.3483 149.752 26.5416C149.633 26.5018 149.524 26.452 149.404 26.4022C149.026 26.2528 148.649 26.1034 148.251 25.974C146.541 25.3664 144.81 24.9282 143.756 25.1473C143.577 25.1872 143.398 25.237 143.21 25.3067C141.31 26.0038 139.222 28.2646 137.224 30.0772C136.687 30.5652 136.15 31.0233 135.633 31.4018C135.245 31.6807 134.817 31.9994 134.35 32.3181C131.815 34.1107 128.275 36.3715 124.516 38.0546C121.792 39.2796 118.968 40.1959 116.333 40.3851L120.111 69.0381L123.581 84.3456C123.581 84.3556 116.86 83.3796 120.201 93.807Z" fill="#23B4BF" stroke="black" stroke-miterlimit="10" stroke-linecap="round" stroke-linejoin="round"/>
<path d="M167.402 58.1135C167.402 58.1235 167.411 58.1334 167.411 58.1534C168.366 58.1932 169.331 57.9741 170.256 57.5458C170.226 57.476 170.206 57.4163 170.186 57.3466C169.838 56.0816 170.256 54.7668 171.141 54.2787C171.847 53.8903 172.095 53.0138 171.707 52.3066C171.32 51.5994 170.445 51.3504 169.738 51.7388C167.69 52.8743 166.705 55.5636 167.402 58.1135Z" fill="white" stroke="black" stroke-miterlimit="10" stroke-linecap="round" stroke-linejoin="round"/>
<path d="M110.933 39.5087C112.534 40.3054 114.384 40.5544 116.333 40.3951C118.968 40.1959 121.792 39.2896 124.516 38.0646C128.275 36.3815 131.814 34.1207 134.35 32.328C134.817 31.9994 135.235 31.6906 135.633 31.4118C136.15 31.0233 136.687 30.5752 137.224 30.0872C139.232 28.2746 141.31 26.0138 143.209 25.3166C143.398 25.2469 143.577 25.1971 143.756 25.1573C144.81 24.9382 146.55 25.3764 148.251 25.9839C148.638 26.1134 149.026 26.2628 149.404 26.4122C149.523 26.452 149.633 26.5018 149.752 26.5516C151.761 27.3583 153.401 28.2048 153.401 28.2048C153.401 28.2048 153.272 32.1886 153.829 33.3538C154.445 34.6485 157.319 36.0329 157.955 37.3276C158.781 38.9809 158.801 44.6676 158.801 44.6676L161.923 46.1914L162.44 43.2136C163.086 41.7894 163.931 40.5544 164.886 39.5485C165.403 39.0008 165.95 38.5227 166.526 38.1243C166.964 37.8156 167.421 37.5567 167.889 37.3575C166.119 35.4552 163.683 33.0849 160.71 30.7744C160.501 30.605 160.282 30.4457 160.063 30.2863C158.96 29.4498 157.786 28.6132 156.553 27.8264C154.853 26.7508 153.033 25.7449 151.124 24.8983C151.124 24.8983 151.124 24.8983 151.114 24.8884C149.812 24.3107 148.479 23.7929 147.097 23.3746H147.087C145.298 22.8268 143.438 22.4185 141.519 22.2193C141.519 22.2193 134.797 17.7973 128.712 15.3772C125.013 13.9032 121.553 13.1862 119.942 14.6303C118.451 15.9748 121.453 22.05 121.911 22.9662C121.523 22.3189 119.495 18.8331 117.118 15.8752C115.09 13.3356 112.803 11.1644 111.093 11.4234C109.651 11.6524 107.264 14.5008 105.564 18.3849C102.611 25.0876 101.646 34.8876 110.933 39.5087Z" fill="#34669A" stroke="black" stroke-miterlimit="10" stroke-linecap="round" stroke-linejoin="round"/>
<path d="M133.843 5.85612C134.121 6.04534 134.4 6.24453 134.678 6.44372C134.957 6.63294 135.225 6.83213 135.493 7.04128C135.702 7.20063 135.901 7.35002 136.11 7.51933C136.279 7.6488 136.468 7.79819 136.637 7.92766C136.915 8.15672 137.204 8.39575 137.472 8.62481C137.761 8.87379 138.049 9.11282 138.337 9.37176C138.546 9.56099 138.755 9.75022 138.964 9.93944C139.312 10.2482 139.65 10.5669 139.988 10.8856C140.018 10.9155 140.048 10.9453 140.077 10.9752C140.356 11.2342 140.624 11.5031 140.873 11.762C141.131 12.0309 141.39 12.2898 141.648 12.5488C141.907 12.8177 142.165 13.0766 142.404 13.3455C143.14 14.1423 143.846 14.9291 144.502 15.7059C145.377 16.7417 146.183 17.7476 146.898 18.6937C147.018 18.8431 147.117 18.9726 147.217 19.112C147.326 19.2614 147.425 19.3909 147.525 19.5203C147.565 19.59 147.614 19.6498 147.674 19.7195C147.783 19.8789 147.903 20.0283 148.002 20.1776C148.151 20.3868 148.31 20.5959 148.44 20.7951C148.798 21.3031 149.126 21.7711 149.424 22.2094C149.514 22.3587 149.613 22.4982 149.702 22.6276C149.931 22.9762 150.14 23.285 150.309 23.5638C150.389 23.6833 150.468 23.8128 150.538 23.9224C150.568 23.9722 150.597 24.012 150.627 24.0618C150.657 24.1116 150.697 24.1614 150.717 24.2112C150.756 24.2709 150.786 24.3307 150.816 24.3805C150.856 24.4502 150.906 24.5199 150.935 24.5797C150.945 24.5896 150.945 24.6096 150.955 24.6195C150.975 24.6593 150.995 24.6892 151.025 24.7191C151.025 24.7291 151.035 24.749 151.035 24.7589C151.055 24.7988 151.075 24.8287 151.095 24.8486C151.104 24.8585 151.104 24.8685 151.104 24.8785C151.114 24.8884 151.114 24.8884 151.114 24.8884C153.024 25.735 154.843 26.7309 156.543 27.8165C157.776 28.6032 158.95 29.4299 160.053 30.2764C162.798 19.1518 160.093 12.2699 157.518 8.5551C156.335 6.86201 155.191 5.82624 154.605 5.34819C153.103 4.94982 151.671 4.62116 150.339 4.38213C142.116 2.83844 136.995 4.04352 133.843 5.85612Z" fill="#FEEEDB" stroke="black" stroke-miterlimit="10" stroke-linecap="round" stroke-linejoin="round"/>
<path d="M160.053 30.2665C160.282 30.4258 160.501 30.5951 160.71 30.7545C163.673 33.065 166.109 35.4453 167.889 37.3376C169.261 36.7102 170.723 36.5508 172.105 36.9591C172.652 37.1185 173.149 37.3575 173.616 37.6563C173.716 36.6305 173.785 35.286 173.795 33.7124C173.795 32.9953 173.775 32.2384 173.745 31.4417C173.537 27.0994 172.642 21.6915 169.967 16.8413C169.758 16.7317 169.549 16.6222 169.331 16.5226C168.814 16.2736 168.316 16.0147 167.769 15.8055C166.735 15.3275 165.652 14.8893 164.568 14.461C163.086 13.9132 161.346 13.246 159.616 12.5388C161.197 16.5525 162.012 22.3289 160.053 30.2665Z" fill="#4A4246" stroke="black" stroke-miterlimit="10" stroke-linecap="round" stroke-linejoin="round"/>
<path d="M154.604 5.34821C155.191 5.82625 156.345 6.85207 157.518 8.55511C158.254 9.62076 158.999 10.9354 159.626 12.5488C161.346 13.2559 163.086 13.9232 164.578 14.471C165.661 14.8992 166.745 15.3374 167.779 15.8155C168.326 16.0246 168.823 16.2935 169.34 16.5325C169.549 16.6321 169.768 16.7417 169.977 16.8512C167.72 12.748 164.2 9.05308 158.761 6.73255C157.667 6.27442 156.514 5.86609 155.271 5.51751C155.042 5.46772 154.823 5.398 154.604 5.34821Z" fill="white" stroke="black" stroke-miterlimit="10" stroke-linecap="round" stroke-linejoin="round"/>
<path d="M105.564 18.365C105.614 11.6226 110.377 2.32055 122.875 4.0236C125.868 4.43193 128.812 5.74656 131.566 7.52928C140.306 13.1563 147.087 23.3547 147.087 23.3547V23.3646H147.097C148.479 23.7829 149.812 24.3008 151.114 24.8785C151.114 24.8685 151.104 24.8685 151.104 24.8486C151.094 24.8287 151.065 24.7988 151.045 24.7589C151.035 24.749 151.035 24.739 151.035 24.7191C151.015 24.6892 150.995 24.6494 150.965 24.6195C150.955 24.6095 150.955 24.5996 150.945 24.5797C150.906 24.5199 150.866 24.4602 150.826 24.3805C150.796 24.3307 150.756 24.2709 150.727 24.2112C150.697 24.1614 150.657 24.1116 150.637 24.0618C150.607 24.0219 150.577 23.9722 150.548 23.9224C150.478 23.8128 150.398 23.6933 150.319 23.5638C150.15 23.285 149.941 22.9762 149.712 22.6276C149.623 22.4982 149.523 22.3488 149.434 22.2093C149.136 21.7711 148.808 21.303 148.45 20.7951C148.31 20.5959 148.161 20.3868 148.012 20.1776C147.903 20.0283 147.783 19.8789 147.684 19.7195C147.634 19.6498 147.585 19.59 147.535 19.5203C147.435 19.3809 147.336 19.2514 147.227 19.112C147.127 18.9726 147.018 18.8331 146.908 18.6937C146.192 17.7476 145.387 16.7417 144.512 15.7059C143.856 14.9291 143.15 14.1423 142.414 13.3455C142.165 13.0866 141.917 12.8177 141.658 12.5488C141.41 12.2898 141.141 12.0309 140.883 11.762C140.624 11.4931 140.356 11.2342 140.087 10.9752C140.057 10.9453 140.028 10.9155 139.998 10.8856C139.67 10.5669 139.322 10.2482 138.974 9.93944C138.765 9.74026 138.556 9.55103 138.347 9.37176C138.069 9.12278 137.78 8.8738 137.482 8.62481C137.204 8.39575 136.925 8.15672 136.647 7.92766C136.478 7.78823 136.289 7.6488 136.12 7.51933C135.921 7.35002 135.712 7.20063 135.503 7.04128C135.235 6.84209 134.956 6.63294 134.688 6.44372C134.41 6.24453 134.141 6.04534 133.853 5.85612C128.831 2.44006 123.044 0.239048 116.929 1.24494C104.321 3.32644 104.271 12.5787 105.564 18.365Z" fill="#4A4246" stroke="black" stroke-miterlimit="10" stroke-linecap="round" stroke-linejoin="round"/>
<path d="M105.564 18.365C107.274 14.4809 109.651 11.6225 111.093 11.4034C112.803 11.1445 115.09 13.3057 117.118 15.8553C119.495 18.8231 121.523 22.299 121.911 22.9463C121.453 22.0301 118.451 15.9549 119.942 14.6103C121.543 13.1662 125.013 13.8833 128.712 15.3573C134.797 17.7774 141.519 22.1994 141.519 22.1994C143.438 22.3986 145.298 22.8069 147.087 23.3546V23.3447C147.087 23.3447 140.306 13.1463 131.566 7.5193C128.812 5.73657 125.868 4.42194 122.875 4.01361C110.387 2.32052 105.614 11.6225 105.564 18.365Z" fill="#4A4246" stroke="black" stroke-miterlimit="10" stroke-linecap="round" stroke-linejoin="round"/>
<path d="M123.124 41.5703C126.157 41.4508 131.198 40.913 131.725 50.1354C132.222 58.8697 123.094 59.288 123.094 59.288C123.094 59.288 116.044 60.5329 114.613 51.0815C113.181 41.5404 119.942 41.6998 123.124 41.5703Z" fill="white" stroke="black" stroke-miterlimit="10" stroke-linecap="round" stroke-linejoin="round"/>
<path d="M118.311 45.6537C120.101 45.5043 119.723 49.0697 119.872 50.2648C120.022 51.4898 120.817 55.0354 119.475 55.2445C117.367 55.5831 116.879 51.6392 116.76 50.2648C116.671 49.1295 116.611 45.7931 118.311 45.6537Z" fill="black" stroke="black" stroke-miterlimit="10" stroke-linecap="round" stroke-linejoin="round"/>
<path d="M117.963 47.2571C118.769 47.1874 118.58 48.791 118.59 49.3388C118.6 49.787 118.789 51.0719 118.122 51.1516C117.397 51.2413 117.337 49.3189 117.337 49.3189C117.337 49.3189 117.208 47.3168 117.963 47.2571Z" fill="white"/>
<path d="M143.07 37.7957C146.103 37.6762 151.144 37.1384 151.671 46.3608C152.169 55.0951 143.041 55.5134 143.041 55.5134C143.041 55.5134 135.991 56.7583 134.559 47.3069C133.127 37.7559 139.889 37.9152 143.07 37.7957Z" fill="white" stroke="black" stroke-miterlimit="10" stroke-linecap="round" stroke-linejoin="round"/>
<path d="M138.258 41.879C140.048 41.7296 139.67 45.2951 139.819 46.4902C139.968 47.7152 140.764 51.2607 139.421 51.4699C137.313 51.8085 136.826 47.8646 136.707 46.4902C136.627 45.3548 136.567 42.0185 138.258 41.879Z" fill="black" stroke="black" stroke-miterlimit="10" stroke-linecap="round" stroke-linejoin="round"/>
<path d="M137.91 43.4825C138.715 43.4128 138.526 45.0164 138.536 45.5643C138.546 46.0125 138.735 47.2974 138.069 47.3771C137.343 47.4667 137.283 45.5443 137.283 45.5443C137.283 45.5443 137.154 43.5423 137.91 43.4825Z" fill="white"/>
<path d="M146.57 59.5369C149.603 59.4174 154.644 58.8796 155.171 68.102C155.668 76.8363 146.54 77.2546 146.54 77.2546C146.54 77.2546 139.491 78.4995 138.059 69.0481C136.627 59.5071 143.388 59.6664 146.57 59.5369Z" fill="white" stroke="black" stroke-miterlimit="10" stroke-linecap="round" stroke-linejoin="round"/>
<path d="M141.758 63.6203C143.548 63.4709 143.17 67.0363 143.319 68.2315C143.468 69.4565 144.264 73.002 142.921 73.2111C140.813 73.5497 140.326 69.6058 140.207 68.2315C140.127 67.0961 140.067 63.7597 141.758 63.6203Z" fill="black" stroke="black" stroke-miterlimit="10" stroke-linecap="round" stroke-linejoin="round"/>
<path d="M141.41 65.2237C142.215 65.154 142.026 66.7576 142.036 67.3054C142.046 67.7537 142.235 69.0386 141.569 69.1183C140.843 69.2079 140.783 67.2855 140.783 67.2855C140.783 67.2855 140.664 65.2934 141.41 65.2237Z" fill="white"/>
<path d="M126.624 63.3812C129.657 63.2617 134.698 62.7239 135.225 71.9463C135.722 80.6806 126.594 81.0989 126.594 81.0989C126.594 81.0989 119.544 82.3438 118.113 72.8924C116.681 63.3514 123.442 63.5107 126.624 63.3812Z" fill="white" stroke="black" stroke-miterlimit="10" stroke-linecap="round" stroke-linejoin="round"/>
<path d="M121.812 67.4646C123.601 67.3152 123.224 70.8807 123.373 72.0758C123.522 73.3008 124.317 76.8463 122.975 77.0555C120.867 77.3941 120.38 73.4502 120.261 72.0758C120.181 70.9404 120.121 67.614 121.812 67.4646Z" fill="black" stroke="black" stroke-miterlimit="10" stroke-linecap="round" stroke-linejoin="round"/>
<path d="M121.464 69.0681C122.269 68.9983 122.08 70.602 122.09 71.1498C122.1 71.598 122.289 72.8829 121.623 72.9626C120.897 73.0523 120.837 71.1299 120.837 71.1299C120.837 71.1299 120.708 69.1378 121.464 69.0681Z" fill="white"/>
<path d="M136.746 76.1591C136.746 76.1591 127.27 79.3261 116.631 78.38C108.975 77.7028 106.807 70.2432 102.551 69.4365C101.169 69.1776 98.3651 69.3668 97.1421 71.6276C94.6364 76.2686 98.6933 79.3162 100.851 81.1487C108.845 87.9509 124.427 85.3914 132.481 83.4394C135.593 82.6824 137.582 82.0251 137.582 82.0251" fill="#23B4BF"/>
<path d="M136.746 76.1591C136.746 76.1591 127.27 79.3261 116.631 78.38C108.975 77.7028 106.807 70.2432 102.551 69.4365C101.169 69.1776 98.3651 69.3668 97.1421 71.6276C94.6364 76.2686 98.6933 79.3162 100.851 81.1487C108.845 87.9509 124.427 85.3914 132.481 83.4394C135.593 82.6824 137.582 82.0251 137.582 82.0251" stroke="black" stroke-miterlimit="10" stroke-linecap="round" stroke-linejoin="round"/>
<path d="M134.211 94.8727C137.741 96.0479 140.823 95.9383 143.408 94.554C148.35 91.9147 149.036 85.8595 149.106 85.1723C149.265 83.4692 148.012 81.9654 146.312 81.806C144.622 81.6467 143.12 82.8916 142.951 84.5847C142.941 84.6743 142.514 88.0206 140.475 89.0962C138.944 89.903 136.339 89.3851 133.137 87.6422C131.636 86.8255 129.756 87.3832 128.941 88.8871C128.126 90.391 128.682 92.2733 130.184 93.0899C131.586 93.8568 132.928 94.4544 134.211 94.8727Z" fill="#EA556E" stroke="black" stroke-miterlimit="10" stroke-linecap="round" stroke-linejoin="round"/>
<path d="M146.023 84.9034C146.023 84.9034 144.86 97.5617 131.665 90.381" stroke="black" stroke-miterlimit="10" stroke-linecap="round" stroke-linejoin="round"/>
<path d="M157.509 71.9562C157.509 71.9562 150.08 71.9064 149.166 73.779C148.499 75.1436 153.77 78.9684 153.77 78.9684" fill="#23B4BF"/>
<path d="M157.509 71.9562C157.509 71.9562 150.08 71.9064 149.166 73.779C148.499 75.1436 153.77 78.9684 153.77 78.9684" stroke="black" stroke-miterlimit="10" stroke-linecap="round" stroke-linejoin="round"/>
<path d="M155.232 50.1453C155.232 50.1453 147.803 50.0955 146.889 51.9681C146.222 53.3327 151.493 57.1575 151.493 57.1575" fill="#23B4BF"/>
<path d="M155.232 50.1453C155.232 50.1453 147.803 50.0955 146.889 51.9681C146.222 53.3327 151.493 57.1575 151.493 57.1575" stroke="black" stroke-miterlimit="10" stroke-linecap="round" stroke-linejoin="round"/>
<path d="M167.401 58.1128C167.401 58.1227 167.411 58.1327 167.411 58.1526C167.799 59.5469 168.625 60.742 169.758 61.5189C170.613 62.1065 171.568 62.4052 172.512 62.4052C172.91 62.4052 173.318 62.3554 173.706 62.2459C176.37 61.5189 177.862 58.4813 177.047 55.4735C176.728 54.3083 176.102 53.2825 175.257 52.5355C174.779 53.4418 174.223 54.2485 173.596 54.9656C173.904 55.3242 174.123 55.7524 174.262 56.2404C174.65 57.6746 174.054 59.1485 172.95 59.4473C172.453 59.5867 171.906 59.4672 171.399 59.1286C170.872 58.7701 170.474 58.2124 170.255 57.5451C170.225 57.4754 170.206 57.4156 170.186 57.3459C169.838 56.0811 170.255 54.7664 171.14 54.2784C171.846 53.89 172.095 53.0136 171.707 52.3065C171.319 51.5994 170.444 51.3504 169.738 51.7388C167.69 52.8742 166.705 55.5632 167.401 58.1128Z" fill="#FFCC03" stroke="black" stroke-miterlimit="10" stroke-linecap="round" stroke-linejoin="round"/>
<path d="M169.748 119.851C170.891 119.851 171.817 118.924 171.817 117.779C171.817 116.635 170.891 115.708 169.748 115.708C168.606 115.708 167.68 116.635 167.68 117.779C167.68 118.924 168.606 119.851 169.748 119.851Z" fill="white" stroke="black" stroke-miterlimit="10" stroke-linecap="round" stroke-linejoin="round"/>
<path d="M199.449 166.729L211.679 183.61C212.832 185.194 213.668 186.13 215.438 188.112C216.163 188.929 216.85 189.825 216.511 190.283C215.448 191.707 209.81 187.873 209.81 187.873C209.81 187.873 212.644 192.136 211.709 193.191C210.307 194.765 203.496 191.289 203.496 191.289C203.496 191.289 205.663 197.912 204.132 199.137C202.551 200.402 196.426 196.727 196.426 196.727C196.426 196.727 198.683 203.021 197.062 203.559C196.615 203.708 196.128 203.021 195.73 202.195C194.527 199.754 193.294 197.344 191.882 195.014L187.457 187.724L199.449 166.729Z" fill="#685461" stroke="black" stroke-miterlimit="10" stroke-linecap="round" stroke-linejoin="round"/>
<path d="M67.1134 151.023L57.3093 150.097" stroke="black" stroke-miterlimit="10" stroke-linecap="round" stroke-linejoin="round"/>
<path d="M125.331 108.915L116.969 122.998L120.837 119.98L120.231 124.342L123.741 121.255V125.567L127.618 120.528L125.331 108.915Z" fill="#685461" stroke="black" stroke-miterlimit="10" stroke-linecap="round" stroke-linejoin="round"/>
<path d="M99.8765 159.1C99.8765 159.1 99.9461 161.182 101.01 161.71Z" fill="white"/>
<path d="M99.8765 159.1C99.8765 159.1 99.9461 161.182 101.01 161.71" stroke="black" stroke-miterlimit="10" stroke-linecap="round" stroke-linejoin="round"/>
<path d="M38.5263 93.9763C38.5263 93.9763 38.8047 89.2755 34.9467 88.3095C29.8359 87.0347 12.624 83.2202 5.7134 85.7001C3.28723 86.5666 -1.39606 92.7115 1.72614 95.2013C4.84834 97.6911 8.96487 93.9863 12.4649 94.6237C16.0544 95.281 21.3741 102.91 25.5702 103.806C29.0503 104.543 32.3316 100.689 34.9467 101.914L38.5263 93.9763Z" fill="#F5C734" stroke="black" stroke-miterlimit="10" stroke-linecap="round" stroke-linejoin="round"/>
<path d="M81.8096 192.165L75.2769 204.645C74.6206 205.899 73.0098 206.278 71.8663 205.451C70.9118 204.764 70.6135 203.479 71.1802 202.444L78.4985 188.998C78.8266 188.401 79.6022 188.192 80.1491 188.59C80.4573 188.819 80.7954 189.148 81.1037 189.606C81.9091 190.831 81.8096 192.165 81.8096 192.165Z" fill="#EA7F5E" stroke="black" stroke-miterlimit="10" stroke-linecap="round" stroke-linejoin="round"/>
<path d="M70.3349 192.972L82.1476 200.372C82.9232 200.86 83.2215 201.836 82.8536 202.673L82.6945 203.031C82.2371 204.067 80.9544 204.445 80.0098 203.808L68.3562 196.05C67.4713 195.462 67.2724 194.257 67.9187 193.41C68.4855 192.663 69.5395 192.464 70.3349 192.972Z" fill="#EA7F5E" stroke="black" stroke-miterlimit="10" stroke-linecap="round" stroke-linejoin="round"/>
<path d="M171.896 47.7752C171.896 47.7752 171.25 44.3588 166.765 45.6537" stroke="black" stroke-miterlimit="10" stroke-linecap="round" stroke-linejoin="round"/>
<path d="M170.136 45.6536C170.136 45.6536 170.186 49.0701 166.765 49.7573" stroke="black" stroke-miterlimit="10" stroke-linecap="round" stroke-linejoin="round"/>
<path d="M204.888 163.692C204.888 163.692 198.733 195.85 179.105 196.099C159.467 196.348 149.862 187.405 145.397 177.535C140.932 167.666 136.806 169.179 132.252 168.841C127.698 168.502 106.379 165.464 108.577 157.786C108.577 157.786 108.497 154.41 114.642 155.167C120.797 155.923 128.374 154.071 126.435 143.604L114.971 131.872L117.248 128.077C117.248 128.077 123.482 129.342 125.59 125.289C127.698 121.235 124.834 117.012 122.637 116.046C120.449 115.08 112.276 110.011 115.309 105.967C118.341 101.924 128.394 103.438 135.364 108.925C142.334 114.413 145.556 128.256 174.988 123.446C186.025 121.643 209.521 129.949 206.489 154.848C206.22 157.069 204.888 163.692 204.888 163.692Z" fill="#F5C734" stroke="black" stroke-miterlimit="10" stroke-linecap="round" stroke-linejoin="round"/>
<path d="M162.629 137.27C162.629 137.27 151.989 138.136 143.905 133.714C135.822 129.292 134.956 127.021 134.956 127.021C134.956 127.021 129.15 123.785 132.003 134.79L131.118 147.07C131.118 147.07 130.482 156.79 122.995 158.005C115.507 159.22 112.793 155.425 111.789 159.09C110.784 162.756 124.954 165.554 132.003 165.992C139.053 166.43 143.687 165.016 151.661 176.46C159.636 187.903 175.804 196.866 166.855 179.268C166.855 179.268 167.501 174.517 170.623 168.691C173.745 162.865 185.618 146.86 176.987 141.582C168.356 136.304 166.954 141.701 166.954 141.701L162.629 137.27Z" fill="white" stroke="black" stroke-miterlimit="10" stroke-linecap="round" stroke-linejoin="round"/>
<path d="M143.408 138.614L138.307 150.984L135.503 149.888L140.753 137.359L143.408 138.614Z" fill="#4A4246" stroke="black" stroke-miterlimit="10" stroke-linecap="round" stroke-linejoin="round"/>
<path d="M148.39 139.779L142.871 153.105L146.958 154.679L152.298 141.213L148.39 139.779Z" fill="#4A4246" stroke="black" stroke-miterlimit="10" stroke-linecap="round" stroke-linejoin="round"/>
<path d="M159.785 178.651C161.329 178.651 162.58 177.398 162.58 175.852C162.58 174.307 161.329 173.053 159.785 173.053C158.242 173.053 156.991 174.307 156.991 175.852C156.991 177.398 158.242 178.651 159.785 178.651Z" fill="#4698AC" stroke="black" stroke-miterlimit="10" stroke-linecap="round" stroke-linejoin="round"/>
<path d="M155.281 172.337C156.824 172.337 158.075 171.084 158.075 169.538C158.075 167.992 156.824 166.739 155.281 166.739C153.738 166.739 152.487 167.992 152.487 169.538C152.487 171.084 153.738 172.337 155.281 172.337Z" fill="#4698AC" stroke="black" stroke-miterlimit="10" stroke-linecap="round" stroke-linejoin="round"/>
<path d="M99.8475 128.286C99.5686 129.073 99.4093 129.711 99.3794 129.85C99.4192 129.701 99.6284 129.103 99.8475 128.286Z" fill="white" stroke="black" stroke-miterlimit="10" stroke-linecap="round" stroke-linejoin="round"/>
<path d="M92.8367 117.112C92.2799 119.94 91.1563 123.157 90.8281 124.083C91.2159 123.117 92.7074 119.741 94.7358 120.528C96.8239 121.335 95.5413 125.777 95.2231 126.802C95.6109 125.777 97.3708 121.355 99.4589 122.082C101.07 122.649 100.433 126.085 99.8666 128.207C100.592 126.145 102.014 123.078 103.774 124.342C105.355 125.488 103.108 129.83 101.159 132.997L111.122 137.688L122.945 143.235L131.128 147.08C131.128 147.08 138.854 141.373 135.255 135.178L128.185 132.16L116.631 127.241L92.8367 117.112Z" fill="#F7AD39" stroke="black" stroke-miterlimit="10" stroke-linecap="round" stroke-linejoin="round"/>
<path d="M43.3986 105.868L49.4939 108.736L51.0848 109.483L53.7297 110.728C53.7397 109.881 53.8291 109.035 54.0181 108.178C54.0678 107.88 54.1573 107.591 54.2468 107.302C54.3363 107.013 54.4158 106.704 54.5252 106.475L55.1218 104.981C55.5891 104.005 56.0564 103.029 56.6431 102.123C56.7127 102.014 56.7823 101.904 56.8519 101.794L53.9286 100.54L52.5166 99.942L47.8632 97.9601C46.2623 100.022 44.9498 102.352 43.8759 104.772C43.7168 105.131 43.5577 105.499 43.3986 105.868Z" fill="#F7AD39" stroke="black" stroke-miterlimit="10" stroke-linecap="round" stroke-linejoin="round"/>
<path d="M79.6419 111.495L74.6007 109.344L71.1404 107.87L67.4316 106.286L63.9216 104.792L38.5264 93.9763L34.9468 101.904L63.9613 115.538L65.4528 116.245L69.0722 117.939L70.2157 118.476L75.3862 120.906L82.7045 124.342L85.3295 125.567C85.3892 125.318 86.8707 119.253 88.8494 115.419L79.6419 111.495Z" fill="#F7AD39" stroke="black" stroke-miterlimit="10" stroke-linecap="round" stroke-linejoin="round"/>
<path d="M166.129 111.874C167.76 111.874 169.083 110.549 169.083 108.916C169.083 107.282 167.76 105.957 166.129 105.957C164.498 105.957 163.176 107.282 163.176 108.916C163.176 110.549 164.498 111.874 166.129 111.874Z" fill="white" stroke="black" stroke-miterlimit="10" stroke-linecap="round" stroke-linejoin="round"/>
<path d="M183.082 91.4068C185.737 89.4548 188.849 87.2438 192.081 85.1225C203.287 77.7625 214.573 71.8467 221.155 78.2904C222.477 79.5851 224.049 81.8957 223.999 85.5308C223.959 88.8274 224.745 97.5617 196.108 124.701C182.883 137.23 171.289 146.173 170.762 146.661L163.842 162.855C163.842 162.855 162.867 164.976 161.883 164.279C161.147 163.751 161.883 161.959 161.883 161.959L163.971 156.202C163.971 156.202 159.765 164.11 157.587 162.905C155.41 161.69 161.296 153.902 161.296 153.902C161.296 153.902 154.664 161.889 152.765 159.927C150.866 157.965 157.757 151.621 157.757 151.621C157.757 151.621 148.708 154.151 148.867 147.637C148.867 147.637 148.788 145.536 150.249 146.044C151.711 146.552 153.063 148.374 153.063 148.374C153.063 148.374 156.374 148.016 156.166 145.297C155.957 142.578 153.56 141.781 152.377 143.325C151.204 144.869 150.339 145.396 149.593 144.859C148.847 144.321 148.45 141.99 150.766 139.979C150.766 139.979 154.644 136.503 158.771 136.762C162.887 137.021 165.482 138.176 165.482 138.176C169.927 133.943 178.439 125.697 186.94 116.704C199.827 103.069 205.803 95.052 208.577 90.5404C203.983 92.841 197.44 97.0139 190.728 101.944L183.082 91.4068Z" fill="#23B4BF" stroke="black" stroke-miterlimit="10" stroke-linecap="round" stroke-linejoin="round"/>
<path d="M181.511 113.019L198.226 100.141L193.185 99.7627L196.536 94.5142L190.311 95.5898L194.07 89.9627H187.875L190.311 83.9473L179.264 92.8111L179.234 92.8509C178.826 93.4983 173.218 102.631 181.511 113.019Z" fill="#685461" stroke="black" stroke-miterlimit="10" stroke-linecap="round" stroke-linejoin="round"/>
<path d="M152.298 144.839L146.033 144.102L145.954 144.958L152.298 146.353V144.839Z" fill="#F29699" stroke="black" stroke-miterlimit="10" stroke-linecap="round" stroke-linejoin="round"/>
</svg>
