<svg width="225" height="219" viewBox="0 0 225 219" fill="none" xmlns="http://www.w3.org/2000/svg">
<path d="M112.62 143.262C112.62 143.262 38.5028 127.985 35.5 138.95C34.6946 141.878 40.064 158.251 43.6634 168.171C47.3325 177.502 51.7573 187.82 56.0031 197.351C56.361 198.158 56.719 198.965 57.0769 199.762C63.2319 213.535 62.9815 213.797 65 218H96L82.7307 192.501L80.563 188.239L72.7973 172.981L60.8952 149.606L112.143 155.213L112.62 143.262Z" fill="#23B4BF" stroke="black" stroke-miterlimit="10" stroke-linecap="round" stroke-linejoin="round"/>
<g clip-path="url(#clip0_184_53)">
<path d="M208.086 182.871C208.086 182.871 267.664 245.455 253.768 264.487C243.738 278.241 182.506 257.984 182.506 257.984L182.957 246.67L233.472 247.855L213 221.5L193.878 193.497L208.086 182.871Z" fill="#23B4BF" stroke="black" stroke-miterlimit="10" stroke-linecap="round" stroke-linejoin="round"/>
</g>
<path d="M150.651 4.38246C151.994 4.62151 153.416 4.9502 154.917 5.34862C155.136 5.40838 155.355 5.46815 155.574 5.52791C156.817 5.87653 157.98 6.28491 159.064 6.73313C159.233 4.9004 158.925 2.41028 156.389 1.49392C156.19 1.42419 156.001 1.37439 155.822 1.33455C153.227 0.756841 151.487 2.92823 150.651 4.38246Z" fill="#4A4246" stroke="black" stroke-miterlimit="10" stroke-linecap="round" stroke-linejoin="round"/>
<path d="M128.517 100.141C128.517 100.141 123.257 99.6731 122.293 112.471L131.302 111.525L139.912 106.306L128.517 100.141Z" fill="#685461" stroke="black" stroke-miterlimit="10" stroke-linecap="round" stroke-linejoin="round"/>
<path d="M131.302 111.525L132.634 112.471L149.418 124.342L145.749 97.1733L130.566 99.3843L127.821 99.703C127.821 99.703 132.475 101.545 131.302 111.525Z" fill="#F59C3F" stroke="black" stroke-miterlimit="10" stroke-linecap="round" stroke-linejoin="round"/>
<path d="M131.302 111.525L132.634 112.471C133.539 105.938 131.809 101.555 130.566 99.3843L127.821 99.703C127.821 99.703 132.475 101.545 131.302 111.525Z" fill="#F59C3F" stroke="black" stroke-miterlimit="10" stroke-linecap="round" stroke-linejoin="round"/>
<path d="M180.014 114.034C180.083 114.124 180.153 114.214 180.223 114.303C180.461 114.602 181.167 115.419 181.823 116.046V113.019C173.531 102.641 179.129 93.4983 179.556 92.831L179.586 92.7912C179.586 92.7912 178.671 92.7513 177.289 92.6916C176.782 93.6975 176.076 95.3906 175.659 97.5617C174.833 101.745 175.102 107.72 180.014 114.034Z" fill="#F59C3F" stroke="black" stroke-miterlimit="10" stroke-linecap="round" stroke-linejoin="round"/>
<path d="M156.826 129.93L157.134 129.89L157.532 129.551C156.508 103.517 169.056 100.649 169.056 100.649C169.216 95.9084 167.714 92.4824 167.635 92.2832C166.431 92.2334 165.606 92.1936 165.507 92.1936L160.545 94.7432C152.322 102.651 156.826 129.93 156.826 129.93Z" fill="#F59C3F" stroke="black" stroke-miterlimit="10" stroke-linecap="round" stroke-linejoin="round"/>
<path d="M157.134 129.89L181.823 126.304V116.046C181.167 115.419 180.461 114.602 180.223 114.303C180.153 114.214 180.073 114.124 180.014 114.034C175.102 107.72 174.833 101.745 175.659 97.5716C176.076 95.4005 176.782 93.7074 177.289 92.7015C174.615 92.582 170.22 92.3928 167.615 92.2832C167.704 92.4824 169.196 95.9084 169.036 100.649C169.036 100.649 156.498 103.517 157.512 129.551L157.134 129.89Z" fill="#F59C3F" stroke="black" stroke-miterlimit="10" stroke-linecap="round" stroke-linejoin="round"/>
<path d="M149.428 124.342L141.742 107.66L140.489 97.9401L145.759 97.1733L149.428 124.342Z" fill="#F59C3F" stroke="black" stroke-miterlimit="10" stroke-linecap="round" stroke-linejoin="round"/>
<path d="M74.3563 150.884C74.3563 150.884 68.2312 148.952 68.4102 146.94C68.5494 145.337 73.2426 144.61 73.2426 144.61C73.2426 144.61 68.5693 143.933 68.5295 142.239C68.4897 140.447 73.4216 139.481 73.4216 139.481C73.4216 139.481 68.5693 138.047 69.3846 136.334C70.8463 133.276 80.8592 135.646 80.8592 135.646L114.796 142.986L117.291 136.622C117.291 136.622 133.38 141.473 133.867 141.761C134.354 142.05 135.418 157.467 135.826 157.896C135.965 158.045 133.241 157.159 129.591 155.924L129.581 162.805L102.884 158.184C102.884 158.184 69.6432 160.106 68.261 152.667C67.913 150.824 74.3563 150.884 74.3563 150.884Z" fill="#685461"/>
<mask id="mask0_184_53" style="mask-type:luminance" maskUnits="userSpaceOnUse" x="110" y="133" width="68" height="29">
<path d="M171.524 145.752C171.524 145.752 177.649 147.684 177.47 149.695C177.33 151.299 172.637 152.026 172.637 152.026C172.637 152.026 177.311 152.703 177.35 154.396C177.39 156.189 172.458 157.155 172.458 157.155C172.458 157.155 177.311 158.589 176.495 160.302C175.034 163.36 165.021 160.989 165.021 160.989L131.084 153.649L128.588 160.013C128.588 160.013 112.5 155.163 112.013 154.874C111.526 154.585 110.462 139.168 110.054 138.74C109.915 138.591 112.639 139.477 116.289 140.712L116.298 133.83L142.996 138.451C142.996 138.451 176.237 136.529 177.619 143.969C177.967 145.811 171.524 145.752 171.524 145.752Z" fill="white"/>
</mask>
<g mask="url(#mask0_184_53)">
<path d="M115.533 159.276L130.358 159.276L130.358 137.366L115.533 137.366L115.533 159.276Z" fill="#685461" stroke="black" stroke-miterlimit="10" stroke-linecap="round" stroke-linejoin="round"/>
</g>
<path d="M74.3563 150.884C74.3563 150.884 68.2312 148.952 68.4102 146.94C68.5494 145.337 73.2426 144.61 73.2426 144.61C73.2426 144.61 68.5693 143.933 68.5295 142.239C68.4897 140.447 73.4216 139.481 73.4216 139.481C73.4216 139.481 68.5693 138.047 69.3846 136.334C70.8463 133.276 80.8592 135.646 80.8592 135.646L114.796 142.986L117.291 136.622C117.291 136.622 133.38 141.473 133.867 141.761C134.354 142.05 135.418 157.467 135.826 157.896C135.965 158.045 133.241 157.159 129.591 155.924L129.581 162.805L102.884 158.184C102.884 158.184 69.6432 160.106 68.261 152.667C67.913 150.824 74.3563 150.884 74.3563 150.884Z" stroke="black" stroke-miterlimit="10" stroke-linecap="round" stroke-linejoin="round"/>
<path d="M85.8905 131.951C85.8905 131.951 85.6419 171.679 96.1719 173.701C105.031 175.404 115.79 158.065 123.257 143.235L111.435 137.688L100.179 159.1L99.1548 136.473C99.1548 136.473 100.259 134.969 101.472 133.007C103.421 129.84 105.668 125.498 104.087 124.352C102.327 123.087 100.905 126.155 100.179 128.217C100.746 126.095 101.382 122.649 99.7713 122.092C97.6832 121.365 95.9133 125.796 95.5355 126.812C95.8636 125.786 97.1364 121.355 95.0483 120.538C93.0198 119.751 91.5283 123.127 91.1405 124.093C91.4687 123.167 92.5923 119.95 93.1491 117.122C93.5965 114.901 93.696 112.909 92.7911 112.481C91.5283 111.883 90.2755 113.317 89.1718 115.429C87.1831 119.263 85.7115 125.328 85.6419 125.577V125.587L83.0268 124.352C83.0268 124.342 81.1475 129.063 85.8905 131.951ZM100.159 128.286C99.9404 129.093 99.7415 129.701 99.6918 129.85C99.7216 129.71 99.8807 129.083 100.159 128.286Z" fill="#23B4BF" stroke="black" stroke-miterlimit="10" stroke-linecap="round" stroke-linejoin="round"/>
<path d="M116.934 127.241L111.435 137.688L123.257 143.235C125.276 139.212 127.056 135.377 128.488 132.16C130.894 126.782 132.326 123.107 132.326 123.107L121.547 118.476L116.934 127.241Z" fill="#23B4BF" stroke="black" stroke-miterlimit="10" stroke-linecap="round" stroke-linejoin="round"/>
<path d="M99.6818 129.85C99.7316 129.701 99.9308 129.093 100.15 128.286C99.881 129.083 99.7217 129.711 99.6818 129.85Z" fill="white" stroke="black" stroke-miterlimit="10" stroke-linecap="round" stroke-linejoin="round"/>
<path d="M120.513 93.807C123.208 102.243 140.4 106.007 157.512 99.2946C181.088 90.0424 165.725 77.0853 165.725 77.0853L164.751 57.6546L164.681 57.1368C165.178 57.4853 165.725 57.7642 166.312 57.9435C166.779 58.0829 167.257 58.1426 167.724 58.1526C167.714 58.1426 167.714 58.1327 167.714 58.1128C167.018 55.5532 168.002 52.8742 170.061 51.7388C170.767 51.3504 171.642 51.6093 172.029 52.3065C172.417 53.0136 172.159 53.89 171.463 54.2784C170.578 54.7664 170.16 56.0811 170.508 57.3459C170.518 57.4156 170.548 57.4754 170.578 57.5451C171.781 56.9973 172.924 56.1209 173.909 54.9656C174.535 54.2485 175.092 53.4418 175.569 52.5355C176.056 51.6492 176.454 50.6632 176.762 49.6175C176.812 49.4382 176.862 49.2589 176.912 49.0797C178.135 44.2494 176.842 39.5984 173.929 37.6663C173.461 37.3575 172.964 37.1284 172.427 36.9691C171.035 36.5608 169.583 36.7201 168.201 37.3476C167.734 37.5467 167.286 37.8156 166.839 38.1144C166.262 38.5028 165.715 38.9809 165.198 39.5386C164.244 40.5445 163.409 41.7894 162.752 43.2036L162.235 46.1815L159.113 44.6577C159.113 44.6577 159.093 38.9709 158.268 37.3177C157.641 36.0329 154.758 34.6486 154.141 33.3439C153.585 32.1787 153.714 28.1949 153.714 28.1949C153.714 28.1949 152.063 27.3484 150.065 26.5417C149.945 26.5018 149.836 26.452 149.717 26.4022C149.339 26.2529 148.961 26.1035 148.563 25.974C146.853 25.3665 145.123 24.9283 144.069 25.1474C143.89 25.1872 143.711 25.237 143.522 25.3067C141.623 26.0039 139.535 28.2646 137.536 30.0772C136.999 30.5652 136.462 31.0234 135.945 31.4018C135.557 31.6807 135.13 31.9994 134.662 32.3181C132.127 34.1108 128.587 36.3715 124.828 38.0547C122.104 39.2797 119.28 40.1959 116.645 40.3851L120.424 69.0382L123.894 84.3457C123.894 84.3556 117.172 83.3796 120.513 93.807Z" fill="#23B4BF" stroke="black" stroke-miterlimit="10" stroke-linecap="round" stroke-linejoin="round"/>
<path d="M167.714 58.1135C167.714 58.1235 167.724 58.1334 167.724 58.1534C168.679 58.1932 169.643 57.9741 170.568 57.5458C170.538 57.476 170.518 57.4163 170.498 57.3466C170.15 56.0816 170.568 54.7668 171.453 54.2787C172.159 53.8903 172.408 53.0138 172.02 52.3066C171.632 51.5994 170.757 51.3504 170.051 51.7388C168.002 52.8743 167.018 55.5636 167.714 58.1135Z" fill="white" stroke="black" stroke-miterlimit="10" stroke-linecap="round" stroke-linejoin="round"/>
<path d="M111.246 39.5087C112.847 40.3054 114.696 40.5544 116.645 40.3951C119.28 40.1959 122.104 39.2896 124.828 38.0646C128.587 36.3815 132.127 34.1207 134.662 32.328C135.13 31.9994 135.547 31.6906 135.945 31.4118C136.462 31.0233 136.999 30.5752 137.536 30.0872C139.545 28.2746 141.623 26.0138 143.522 25.3166C143.711 25.2469 143.89 25.1971 144.069 25.1573C145.123 24.9382 146.863 25.3764 148.563 25.9839C148.951 26.1134 149.339 26.2628 149.717 26.4122C149.836 26.452 149.945 26.5018 150.065 26.5516C152.073 27.3583 153.714 28.2048 153.714 28.2048C153.714 28.2048 153.585 32.1886 154.141 33.3538C154.758 34.6485 157.631 36.0329 158.268 37.3276C159.093 38.9809 159.113 44.6676 159.113 44.6676L162.235 46.1914L162.752 43.2136C163.399 41.7894 164.244 40.5544 165.198 39.5485C165.715 39.0008 166.262 38.5227 166.839 38.1243C167.276 37.8156 167.734 37.5567 168.201 37.3575C166.431 35.4552 163.995 33.0849 161.022 30.7744C160.813 30.605 160.595 30.4457 160.376 30.2863C159.272 29.4498 158.099 28.6132 156.866 27.8264C155.166 26.7508 153.346 25.7449 151.437 24.8983C151.437 24.8983 151.437 24.8983 151.427 24.8884C150.124 24.3107 148.792 23.7929 147.41 23.3746H147.4C145.61 22.8268 143.751 22.4185 141.832 22.2193C141.832 22.2193 135.11 17.7973 129.025 15.3772C125.326 13.9032 121.865 13.1862 120.255 14.6303C118.763 15.9748 121.766 22.05 122.223 22.9662C121.836 22.3189 119.807 18.8331 117.431 15.8752C115.402 13.3356 113.115 11.1644 111.405 11.4234C109.963 11.6524 107.577 14.5008 105.877 18.3849C102.923 25.0876 101.959 34.8876 111.246 39.5087Z" fill="#34669A" stroke="black" stroke-miterlimit="10" stroke-linecap="round" stroke-linejoin="round"/>
<path d="M134.155 5.85612C134.434 6.04534 134.712 6.24453 134.991 6.44372C135.269 6.63294 135.538 6.83213 135.806 7.04128C136.015 7.20063 136.214 7.35002 136.422 7.51933C136.592 7.6488 136.78 7.79819 136.949 7.92766C137.228 8.15672 137.516 8.39575 137.785 8.62481C138.073 8.87379 138.361 9.11282 138.65 9.37176C138.859 9.56099 139.067 9.75022 139.276 9.93944C139.624 10.2482 139.962 10.5669 140.3 10.8856C140.33 10.9155 140.36 10.9453 140.39 10.9752C140.668 11.2342 140.937 11.5031 141.185 11.762C141.444 12.0309 141.702 12.2898 141.961 12.5488C142.219 12.8177 142.478 13.0766 142.717 13.3455C143.452 14.1423 144.158 14.9291 144.815 15.7059C145.69 16.7417 146.495 17.7476 147.211 18.6937C147.33 18.8431 147.43 18.9726 147.529 19.112C147.639 19.2614 147.738 19.3909 147.837 19.5203C147.877 19.59 147.927 19.6498 147.987 19.7195C148.096 19.8789 148.215 20.0283 148.315 20.1776C148.464 20.3868 148.623 20.5959 148.752 20.7951C149.11 21.3031 149.438 21.7711 149.737 22.2094C149.826 22.3587 149.925 22.4982 150.015 22.6276C150.244 22.9762 150.452 23.285 150.622 23.5638C150.701 23.6833 150.781 23.8128 150.85 23.9224C150.88 23.9722 150.91 24.012 150.94 24.0618C150.97 24.1116 151.009 24.1614 151.029 24.2112C151.069 24.2709 151.099 24.3307 151.129 24.3805C151.168 24.4502 151.218 24.5199 151.248 24.5797C151.258 24.5896 151.258 24.6096 151.268 24.6195C151.288 24.6593 151.308 24.6892 151.337 24.7191C151.337 24.7291 151.347 24.749 151.347 24.7589C151.367 24.7988 151.387 24.8287 151.407 24.8486C151.417 24.8585 151.417 24.8685 151.417 24.8785C151.427 24.8884 151.427 24.8884 151.427 24.8884C153.336 25.735 155.156 26.7309 156.856 27.8165C158.089 28.6032 159.262 29.4299 160.366 30.2764C163.11 19.1518 160.406 12.2699 157.83 8.5551C156.647 6.86201 155.504 5.82624 154.917 5.34819C153.416 4.94982 151.984 4.62116 150.651 4.38213C142.428 2.83844 137.307 4.04352 134.155 5.85612Z" fill="#FEEEDB" stroke="black" stroke-miterlimit="10" stroke-linecap="round" stroke-linejoin="round"/>
<path d="M160.366 30.2664C160.595 30.4258 160.813 30.5951 161.022 30.7544C163.985 33.065 166.421 35.4453 168.201 37.3376C169.573 36.7101 171.035 36.5508 172.417 36.9591C172.964 37.1185 173.461 37.3575 173.929 37.6563C174.028 36.6305 174.098 35.2859 174.107 33.7124C174.107 32.9953 174.088 32.2384 174.058 31.4416C173.849 27.0994 172.954 21.6914 170.279 16.8413C170.071 16.7317 169.862 16.6221 169.643 16.5226C169.126 16.2736 168.629 16.0146 168.082 15.8055C167.048 15.3274 165.964 14.8892 164.88 14.461C163.399 13.9132 161.658 13.2459 159.928 12.5388C161.509 16.5524 162.325 22.3288 160.366 30.2664Z" fill="#4A4246" stroke="black" stroke-miterlimit="10" stroke-linecap="round" stroke-linejoin="round"/>
<path d="M154.917 5.34821C155.504 5.82625 156.657 6.85207 157.83 8.55511C158.566 9.62076 159.312 10.9354 159.938 12.5488C161.659 13.2559 163.399 13.9232 164.89 14.471C165.974 14.8992 167.058 15.3374 168.092 15.8155C168.639 16.0246 169.136 16.2935 169.653 16.5325C169.862 16.6321 170.081 16.7417 170.289 16.8512C168.032 12.748 164.512 9.05308 159.073 6.73255C157.98 6.27442 156.826 5.86609 155.583 5.51751C155.355 5.46772 155.136 5.398 154.917 5.34821Z" fill="white" stroke="black" stroke-miterlimit="10" stroke-linecap="round" stroke-linejoin="round"/>
<path d="M105.877 18.365C105.926 11.6226 110.689 2.32055 123.188 4.0236C126.181 4.43193 129.124 5.74656 131.878 7.52928C140.618 13.1563 147.4 23.3547 147.4 23.3547V23.3646H147.41C148.792 23.7829 150.124 24.3008 151.427 24.8785C151.427 24.8685 151.417 24.8685 151.417 24.8486C151.407 24.8287 151.377 24.7988 151.357 24.7589C151.347 24.749 151.347 24.739 151.347 24.7191C151.327 24.6892 151.307 24.6494 151.278 24.6195C151.268 24.6095 151.268 24.5996 151.258 24.5797C151.218 24.5199 151.178 24.4602 151.138 24.3805C151.109 24.3307 151.069 24.2709 151.039 24.2112C151.009 24.1614 150.969 24.1116 150.95 24.0618C150.92 24.0219 150.89 23.9722 150.86 23.9224C150.79 23.8128 150.711 23.6933 150.631 23.5638C150.462 23.285 150.253 22.9762 150.025 22.6276C149.935 22.4982 149.836 22.3488 149.746 22.2093C149.448 21.7711 149.12 21.303 148.762 20.7951C148.623 20.5959 148.474 20.3868 148.324 20.1776C148.215 20.0283 148.096 19.8789 147.996 19.7195C147.947 19.6498 147.897 19.59 147.847 19.5203C147.748 19.3809 147.648 19.2514 147.539 19.112C147.44 18.9726 147.33 18.8331 147.221 18.6937C146.505 17.7476 145.699 16.7417 144.824 15.7059C144.168 14.9291 143.462 14.1423 142.726 13.3455C142.478 13.0866 142.229 12.8177 141.971 12.5488C141.722 12.2898 141.454 12.0309 141.195 11.762C140.937 11.4931 140.668 11.2342 140.4 10.9752C140.37 10.9453 140.34 10.9155 140.31 10.8856C139.982 10.5669 139.634 10.2482 139.286 9.93944C139.077 9.74026 138.868 9.55103 138.66 9.37176C138.381 9.12278 138.093 8.8738 137.795 8.62481C137.516 8.39575 137.238 8.15672 136.959 7.92766C136.79 7.78823 136.601 7.6488 136.432 7.51933C136.233 7.35002 136.025 7.20063 135.816 7.04128C135.547 6.84209 135.269 6.63294 135 6.44372C134.722 6.24453 134.454 6.04534 134.165 5.85612C129.144 2.44006 123.357 0.239048 117.242 1.24494C104.634 3.32644 104.584 12.5787 105.877 18.365Z" fill="#4A4246" stroke="black" stroke-miterlimit="10" stroke-linecap="round" stroke-linejoin="round"/>
<path d="M105.877 18.365C107.587 14.4809 109.963 11.6225 111.405 11.4034C113.115 11.1445 115.402 13.3057 117.431 15.8553C119.807 18.8231 121.836 22.299 122.223 22.9463C121.766 22.0301 118.763 15.9549 120.255 14.6103C121.855 13.1662 125.326 13.8833 129.025 15.3573C135.11 17.7774 141.832 22.1994 141.832 22.1994C143.751 22.3986 145.61 22.8069 147.4 23.3546V23.3447C147.4 23.3447 140.618 13.1463 131.878 7.5193C129.124 5.73657 126.181 4.42194 123.188 4.01361C110.699 2.32052 105.926 11.6225 105.877 18.365Z" fill="#4A4246" stroke="black" stroke-miterlimit="10" stroke-linecap="round" stroke-linejoin="round"/>
<path d="M123.436 41.5703C126.469 41.4508 131.51 40.913 132.037 50.1353C132.535 58.8697 123.407 59.288 123.407 59.288C123.407 59.288 116.357 60.5329 114.925 51.0815C113.493 41.5404 120.255 41.6998 123.436 41.5703Z" fill="white" stroke="black" stroke-miterlimit="10" stroke-linecap="round" stroke-linejoin="round"/>
<path d="M118.624 45.6536C120.414 45.5042 120.036 49.0697 120.185 50.2648C120.334 51.4898 121.13 55.0353 119.787 55.2444C117.679 55.5831 117.192 51.6392 117.073 50.2648C116.983 49.1294 116.924 45.793 118.624 45.6536Z" fill="black" stroke="black" stroke-miterlimit="10" stroke-linecap="round" stroke-linejoin="round"/>
<path d="M118.276 47.2571C119.081 47.1874 118.893 48.791 118.902 49.3388C118.912 49.787 119.101 51.0719 118.435 51.1516C117.709 51.2413 117.649 49.3189 117.649 49.3189C117.649 49.3189 117.52 47.3168 118.276 47.2571Z" fill="white"/>
<path d="M143.383 37.7958C146.415 37.6762 151.457 37.1384 151.984 46.3608C152.481 55.0951 143.353 55.5134 143.353 55.5134C143.353 55.5134 136.303 56.7583 134.871 47.3069C133.439 37.7559 140.201 37.9153 143.383 37.7958Z" fill="white" stroke="black" stroke-miterlimit="10" stroke-linecap="round" stroke-linejoin="round"/>
<path d="M138.57 41.8791C140.36 41.7297 139.982 45.2951 140.131 46.4902C140.28 47.7152 141.076 51.2608 139.734 51.4699C137.626 51.8085 137.138 47.8646 137.019 46.4902C136.94 45.3549 136.88 42.0185 138.57 41.8791Z" fill="black" stroke="black" stroke-miterlimit="10" stroke-linecap="round" stroke-linejoin="round"/>
<path d="M138.222 43.4826C139.028 43.4128 138.839 45.0165 138.849 45.5643C138.859 46.0125 139.047 47.2974 138.381 47.3771C137.655 47.4667 137.596 45.5444 137.596 45.5444C137.596 45.5444 137.466 43.5423 138.222 43.4826Z" fill="white"/>
<path d="M146.883 59.537C149.916 59.4175 154.957 58.8797 155.484 68.102C155.981 76.8363 146.853 77.2546 146.853 77.2546C146.853 77.2546 139.803 78.4996 138.371 69.0481C136.939 59.5071 143.701 59.6664 146.883 59.537Z" fill="white" stroke="black" stroke-miterlimit="10" stroke-linecap="round" stroke-linejoin="round"/>
<path d="M142.07 63.6203C143.86 63.4709 143.482 67.0363 143.631 68.2315C143.781 69.4565 144.576 73.002 143.234 73.2111C141.126 73.5497 140.638 69.6058 140.519 68.2315C140.44 67.0961 140.38 63.7597 142.07 63.6203Z" fill="black" stroke="black" stroke-miterlimit="10" stroke-linecap="round" stroke-linejoin="round"/>
<path d="M141.722 65.2238C142.528 65.154 142.339 66.7577 142.349 67.3055C142.359 67.7537 142.548 69.0386 141.881 69.1183C141.155 69.208 141.096 67.2856 141.096 67.2856C141.096 67.2856 140.976 65.2935 141.722 65.2238Z" fill="white"/>
<path d="M126.936 63.3812C129.969 63.2617 135.01 62.7239 135.537 71.9462C136.035 80.6806 126.907 81.0989 126.907 81.0989C126.907 81.0989 119.857 82.3438 118.425 72.8924C116.993 63.3513 123.755 63.5107 126.936 63.3812Z" fill="white" stroke="black" stroke-miterlimit="10" stroke-linecap="round" stroke-linejoin="round"/>
<path d="M122.124 67.4646C123.914 67.3152 123.536 70.8806 123.685 72.0758C123.834 73.3008 124.63 76.8463 123.287 77.0554C121.179 77.394 120.692 73.4501 120.573 72.0758C120.493 70.9404 120.434 67.614 122.124 67.4646Z" fill="black" stroke="black" stroke-miterlimit="10" stroke-linecap="round" stroke-linejoin="round"/>
<path d="M121.776 69.068C122.582 68.9983 122.393 70.6019 122.403 71.1497C122.412 71.598 122.601 72.8829 121.935 72.9626C121.209 73.0522 121.15 71.1298 121.15 71.1298C121.15 71.1298 121.02 69.1377 121.776 69.068Z" fill="white"/>
<path d="M137.059 76.1591C137.059 76.1591 127.583 79.3261 116.943 78.38C109.287 77.7028 107.119 70.2432 102.864 69.4365C101.482 69.1776 98.6776 69.3668 97.4546 71.6276C94.9488 76.2686 99.0057 79.3162 101.163 81.1487C109.158 87.9509 124.739 85.3914 132.793 83.4394C135.905 82.6824 137.894 82.0251 137.894 82.0251" fill="#23B4BF"/>
<path d="M137.059 76.1591C137.059 76.1591 127.583 79.3261 116.943 78.38C109.287 77.7028 107.119 70.2432 102.864 69.4365C101.482 69.1776 98.6776 69.3668 97.4546 71.6276C94.9488 76.2686 99.0057 79.3162 101.163 81.1487C109.158 87.9509 124.739 85.3914 132.793 83.4394C135.905 82.6824 137.894 82.0251 137.894 82.0251" stroke="black" stroke-miterlimit="10" stroke-linecap="round" stroke-linejoin="round"/>
<path d="M134.523 94.8726C138.053 96.0478 141.136 95.9383 143.721 94.5539C148.663 91.9147 149.349 85.8594 149.418 85.1722C149.578 83.4692 148.325 81.9653 146.624 81.806C144.934 81.6466 143.433 82.8915 143.264 84.5846C143.254 84.6743 142.826 88.0206 140.788 89.0962C139.256 89.9029 136.651 89.385 133.45 87.6422C131.948 86.8255 130.069 87.3832 129.253 88.8871C128.438 90.3909 128.995 92.2732 130.496 93.0899C131.898 93.8568 133.241 94.4543 134.523 94.8726Z" fill="#EA556E" stroke="black" stroke-miterlimit="10" stroke-linecap="round" stroke-linejoin="round"/>
<path d="M146.336 84.9034C146.336 84.9034 145.172 97.5617 131.978 90.381" stroke="black" stroke-miterlimit="10" stroke-linecap="round" stroke-linejoin="round"/>
<path d="M157.821 71.9562C157.821 71.9562 150.393 71.9064 149.478 73.779C148.812 75.1436 154.082 78.9684 154.082 78.9684" fill="#23B4BF"/>
<path d="M157.821 71.9562C157.821 71.9562 150.393 71.9064 149.478 73.779C148.812 75.1436 154.082 78.9684 154.082 78.9684" stroke="black" stroke-miterlimit="10" stroke-linecap="round" stroke-linejoin="round"/>
<path d="M155.544 50.1453C155.544 50.1453 148.116 50.0955 147.201 51.968C146.535 53.3326 151.805 57.1574 151.805 57.1574" fill="#23B4BF"/>
<path d="M155.544 50.1453C155.544 50.1453 148.116 50.0955 147.201 51.968C146.535 53.3326 151.805 57.1574 151.805 57.1574" stroke="black" stroke-miterlimit="10" stroke-linecap="round" stroke-linejoin="round"/>
<path d="M167.714 58.1128C167.714 58.1227 167.724 58.1327 167.724 58.1526C168.112 59.5469 168.937 60.742 170.071 61.5189C170.926 62.1065 171.88 62.4052 172.825 62.4052C173.223 62.4052 173.63 62.3554 174.018 62.2459C176.683 61.5189 178.174 58.4813 177.359 55.4735C177.041 54.3083 176.414 53.2825 175.569 52.5355C175.092 53.4418 174.535 54.2485 173.909 54.9656C174.217 55.3242 174.436 55.7524 174.575 56.2404C174.963 57.6746 174.366 59.1485 173.262 59.4473C172.765 59.5867 172.218 59.4672 171.711 59.1286C171.184 58.7701 170.786 58.2124 170.568 57.5451C170.538 57.4754 170.518 57.4156 170.498 57.3459C170.15 56.0811 170.568 54.7664 171.453 54.2784C172.159 53.89 172.407 53.0136 172.019 52.3065C171.632 51.5994 170.757 51.3504 170.051 51.7388C168.002 52.8742 167.018 55.5632 167.714 58.1128Z" fill="#FFCC03" stroke="black" stroke-miterlimit="10" stroke-linecap="round" stroke-linejoin="round"/>
<path d="M170.061 119.851C171.203 119.851 172.129 118.924 172.129 117.779C172.129 116.635 171.203 115.708 170.061 115.708C168.919 115.708 167.992 116.635 167.992 117.779C167.992 118.924 168.919 119.851 170.061 119.851Z" fill="white" stroke="black" stroke-miterlimit="10" stroke-linecap="round" stroke-linejoin="round"/>
<path d="M199.761 166.729L211.992 183.61C213.145 185.194 213.98 186.13 215.75 188.112C216.476 188.929 217.162 189.825 216.824 190.283C215.76 191.707 210.122 187.873 210.122 187.873C210.122 187.873 212.956 192.136 212.021 193.191C210.619 194.765 203.808 191.289 203.808 191.289C203.808 191.289 205.976 197.912 204.445 199.137C202.864 200.402 196.739 196.727 196.739 196.727C196.739 196.727 198.996 203.021 197.375 203.559C196.927 203.708 196.44 203.021 196.042 202.195C194.839 199.754 193.606 197.344 192.194 195.014L187.77 187.724L199.761 166.729Z" fill="#685461" stroke="black" stroke-miterlimit="10" stroke-linecap="round" stroke-linejoin="round"/>
<path d="M67.4258 151.023L57.6217 150.097" stroke="black" stroke-miterlimit="10" stroke-linecap="round" stroke-linejoin="round"/>
<path d="M125.644 108.915L117.282 122.998L121.15 119.98L120.543 124.342L124.053 121.255V125.567L127.931 120.528L125.644 108.915Z" fill="#685461" stroke="black" stroke-miterlimit="10" stroke-linecap="round" stroke-linejoin="round"/>
<path d="M100.189 159.1C100.189 159.1 100.259 161.182 101.323 161.71Z" fill="white"/>
<path d="M100.189 159.1C100.189 159.1 100.259 161.182 101.323 161.71" stroke="black" stroke-miterlimit="10" stroke-linecap="round" stroke-linejoin="round"/>
<path d="M38.8388 93.9763C38.8388 93.9763 39.1172 89.2755 35.2592 88.3095C30.1483 87.0347 12.9364 83.2202 6.02584 85.7001C3.59967 86.5666 -1.08362 92.7115 2.03858 95.2013C5.16078 97.6911 9.27731 93.9863 12.7774 94.6237C16.3669 95.281 21.6865 102.91 25.8826 103.806C29.3628 104.543 32.6441 100.689 35.2592 101.914L38.8388 93.9763Z" fill="#F5C734" stroke="black" stroke-miterlimit="10" stroke-linecap="round" stroke-linejoin="round"/>
<path d="M82.122 192.165L75.5893 204.645C74.933 205.899 73.3222 206.278 72.1787 205.451C71.2241 204.764 70.9258 203.479 71.4926 202.444L78.8109 188.998C79.139 188.401 79.9146 188.192 80.4615 188.59C80.7697 188.819 81.1078 189.148 81.416 189.606C82.2214 190.831 82.122 192.165 82.122 192.165Z" fill="#EA7F5E" stroke="black" stroke-miterlimit="10" stroke-linecap="round" stroke-linejoin="round"/>
<path d="M70.6474 192.972L82.46 200.372C83.2356 200.86 83.5339 201.836 83.166 202.673L83.0069 203.031C82.5495 204.067 81.2668 204.445 80.3222 203.808L68.6687 196.05C67.7837 195.462 67.5849 194.257 68.2312 193.41C68.7979 192.663 69.8519 192.464 70.6474 192.972Z" fill="#EA7F5E" stroke="black" stroke-miterlimit="10" stroke-linecap="round" stroke-linejoin="round"/>
<path d="M172.209 47.7752C172.209 47.7752 171.563 44.3588 167.078 45.6537" stroke="black" stroke-miterlimit="10" stroke-linecap="round" stroke-linejoin="round"/>
<path d="M170.449 45.6536C170.449 45.6536 170.499 49.0701 167.078 49.7573" stroke="black" stroke-miterlimit="10" stroke-linecap="round" stroke-linejoin="round"/>
<path d="M205.2 163.692C205.2 163.692 199.045 195.85 179.417 196.099C159.779 196.348 150.174 187.405 145.709 177.535C141.245 167.666 137.118 169.179 132.564 168.841C128.01 168.502 106.692 165.464 108.889 157.786C108.889 157.786 108.81 154.41 114.955 155.167C121.11 155.923 128.686 154.071 126.748 143.604L115.283 131.872L117.56 128.077C117.56 128.077 123.794 129.342 125.902 125.289C128.01 121.235 125.147 117.012 122.949 116.046C120.762 115.08 112.588 110.011 115.621 105.967C118.654 101.924 128.706 103.438 135.677 108.925C142.647 114.413 145.868 128.256 175.301 123.446C186.338 121.643 209.834 129.949 206.801 154.848C206.533 157.069 205.2 163.692 205.2 163.692Z" fill="#F5C734" stroke="black" stroke-miterlimit="10" stroke-linecap="round" stroke-linejoin="round"/>
<path d="M162.941 137.27C162.941 137.27 152.302 138.136 144.218 133.714C136.134 129.292 135.269 127.021 135.269 127.021C135.269 127.021 129.462 123.785 132.316 134.79L131.431 147.07C131.431 147.07 130.795 156.79 123.307 158.005C115.82 159.22 113.105 155.425 112.101 159.09C111.097 162.756 125.266 165.554 132.316 165.992C139.366 166.43 143.999 165.016 151.974 176.46C159.948 187.903 176.116 196.866 167.167 179.268C167.167 179.268 167.813 174.517 170.936 168.691C174.058 162.865 185.93 146.86 177.299 141.582C168.669 136.304 167.267 141.701 167.267 141.701L162.941 137.27Z" fill="white" stroke="black" stroke-miterlimit="10" stroke-linecap="round" stroke-linejoin="round"/>
<path d="M143.721 138.614L138.62 150.984L135.816 149.888L141.066 137.359L143.721 138.614Z" fill="#4A4246" stroke="black" stroke-miterlimit="10" stroke-linecap="round" stroke-linejoin="round"/>
<path d="M148.702 139.779L143.184 153.105L147.27 154.679L152.61 141.213L148.702 139.779Z" fill="#4A4246" stroke="black" stroke-miterlimit="10" stroke-linecap="round" stroke-linejoin="round"/>
<path d="M160.098 178.651C161.641 178.651 162.892 177.398 162.892 175.852C162.892 174.307 161.641 173.053 160.098 173.053C158.554 173.053 157.303 174.307 157.303 175.852C157.303 177.398 158.554 178.651 160.098 178.651Z" fill="#4698AC" stroke="black" stroke-miterlimit="10" stroke-linecap="round" stroke-linejoin="round"/>
<path d="M155.593 172.337C157.137 172.337 158.388 171.084 158.388 169.538C158.388 167.992 157.137 166.739 155.593 166.739C154.05 166.739 152.799 167.992 152.799 169.538C152.799 171.084 154.05 172.337 155.593 172.337Z" fill="#4698AC" stroke="black" stroke-miterlimit="10" stroke-linecap="round" stroke-linejoin="round"/>
<path d="M100.16 128.286C99.8811 129.073 99.7217 129.711 99.6918 129.85C99.7317 129.701 99.9408 129.103 100.16 128.286Z" fill="white" stroke="black" stroke-miterlimit="10" stroke-linecap="round" stroke-linejoin="round"/>
<path d="M93.1491 117.112C92.5923 119.94 91.4687 123.157 91.1406 124.083C91.5284 123.117 93.0198 119.741 95.0483 120.528C97.1364 121.335 95.8537 125.777 95.5355 126.802C95.9233 125.777 97.6833 121.355 99.7713 122.082C101.382 122.649 100.746 126.085 100.179 128.207C100.905 126.145 102.327 123.078 104.087 124.342C105.668 125.488 103.421 129.83 101.472 132.997L111.435 137.688L123.257 143.235L131.441 147.08C131.441 147.08 139.167 141.373 135.567 135.178L128.498 132.16L116.943 127.241L93.1491 117.112Z" fill="#F7AD39" stroke="black" stroke-miterlimit="10" stroke-linecap="round" stroke-linejoin="round"/>
<path d="M43.7111 105.868L49.8063 108.736L51.3972 109.483L54.0422 110.728C54.0521 109.881 54.1416 109.035 54.3305 108.178C54.3802 107.88 54.4697 107.591 54.5592 107.302C54.6487 107.013 54.7282 106.704 54.8376 106.475L55.4342 104.981C55.9015 104.005 56.3689 103.029 56.9555 102.123C57.0251 102.014 57.0948 101.904 57.1644 101.794L54.241 100.54L52.8291 99.942L48.1756 97.9601C46.5747 100.022 45.2622 102.352 44.1883 104.772C44.0292 105.131 43.8702 105.499 43.7111 105.868Z" fill="#F7AD39" stroke="black" stroke-miterlimit="10" stroke-linecap="round" stroke-linejoin="round"/>
<path d="M79.9544 111.495L74.9131 109.344L71.4529 107.87L67.744 106.286L64.234 104.792L38.8388 93.9763L35.2592 101.904L64.2738 115.538L65.7653 116.245L69.3846 117.938L70.5281 118.476L75.6986 120.906L83.0169 124.342L85.642 125.567C85.7016 125.318 87.1832 119.253 89.1619 115.419L79.9544 111.495Z" fill="#F7AD39" stroke="black" stroke-miterlimit="10" stroke-linecap="round" stroke-linejoin="round"/>
<path d="M166.442 111.874C168.073 111.874 169.395 110.549 169.395 108.916C169.395 107.282 168.073 105.957 166.442 105.957C164.81 105.957 163.488 107.282 163.488 108.916C163.488 110.549 164.81 111.874 166.442 111.874Z" fill="white" stroke="black" stroke-miterlimit="10" stroke-linecap="round" stroke-linejoin="round"/>
<path d="M183.394 91.4069C186.049 89.4548 189.162 87.2439 192.393 85.1225C203.599 77.7626 214.885 71.8467 221.467 78.2904C222.79 79.5851 224.361 81.8957 224.311 85.5309C224.271 88.8274 225.057 97.5617 196.42 124.701C183.196 137.23 171.602 146.173 171.075 146.661L164.154 162.855C164.154 162.855 163.18 164.977 162.195 164.279C161.46 163.752 162.195 161.959 162.195 161.959L164.283 156.202C164.283 156.202 160.077 164.11 157.9 162.905C155.722 161.69 161.609 153.902 161.609 153.902C161.609 153.902 154.976 161.889 153.077 159.927C151.178 157.965 158.069 151.621 158.069 151.621C158.069 151.621 149.02 154.151 149.18 147.637C149.18 147.637 149.1 145.536 150.562 146.044C152.023 146.552 153.376 148.374 153.376 148.374C153.376 148.374 156.687 148.016 156.478 145.297C156.269 142.578 153.873 141.781 152.69 143.325C151.516 144.869 150.651 145.396 149.905 144.859C149.16 144.321 148.762 141.99 151.079 139.979C151.079 139.979 154.957 136.503 159.083 136.762C163.2 137.021 165.795 138.176 165.795 138.176C170.239 133.943 178.751 125.697 187.252 116.704C200.139 103.069 206.115 95.052 208.889 90.5404C204.295 92.841 197.753 97.014 191.041 101.944L183.394 91.4069Z" fill="#23B4BF" stroke="black" stroke-miterlimit="10" stroke-linecap="round" stroke-linejoin="round"/>
<path d="M181.824 113.019L198.538 100.141L193.497 99.7627L196.848 94.5141L190.623 95.5897L194.382 89.9627H188.187L190.623 83.9473L179.576 92.8111L179.547 92.8509C179.139 93.4983 173.531 102.631 181.824 113.019Z" fill="#685461" stroke="black" stroke-miterlimit="10" stroke-linecap="round" stroke-linejoin="round"/>
<path d="M152.611 144.839L146.346 144.102L146.266 144.958L152.611 146.353V144.839Z" fill="#F29699" stroke="black" stroke-miterlimit="10" stroke-linecap="round" stroke-linejoin="round"/>
<defs>
<clipPath id="clip0_184_53">
<path d="M182 183H209V210C209 214.418 205.418 218 201 218H182V183Z" fill="white"/>
</clipPath>
</defs>
</svg>
