<svg width="224" height="232" viewBox="0 0 224 232" fill="none" xmlns="http://www.w3.org/2000/svg">
<g clip-path="url(#clip0_189_228)">
<path d="M100.699 93.3652L106.389 105.315L94.1788 113.315L86.6188 98.4952L91.4788 87.7552L100.429 89.7652L100.699 93.3652Z" fill="#AB3E82" stroke="black" stroke-miterlimit="10" stroke-linecap="round" stroke-linejoin="round"/>
<path d="M118.399 96.4852C117.359 98.6252 115.939 100.615 114.409 102.405C112.859 104.195 111.159 105.815 109.299 107.195C107.459 108.595 105.479 109.765 103.419 110.725C101.369 111.705 99.2288 112.445 97.0388 113.005C94.8588 113.595 92.5788 113.775 90.3188 113.865L88.6288 113.965C88.0688 113.995 87.4988 114.005 86.9388 114.055C85.8188 114.175 84.6788 114.235 83.5488 114.395C82.9788 114.495 82.4088 114.525 81.8288 114.595C81.2488 114.675 80.6788 114.735 80.0888 114.825C78.9188 114.945 77.7388 115.085 76.5488 115.285C75.3488 115.425 74.1388 115.615 72.8988 115.845C71.6588 116.065 70.3988 116.265 69.0888 116.655H69.0688C68.8388 116.725 68.7088 116.965 68.7788 117.195C68.8088 117.295 68.8688 117.375 68.9388 117.425C70.0388 118.215 71.1988 118.815 72.3788 119.425C73.5688 119.975 74.7788 120.425 76.0188 120.865C77.2588 121.245 78.5188 121.555 79.7988 121.835C81.0888 122.045 82.3788 122.255 83.6888 122.345C84.9988 122.405 86.3088 122.465 87.6288 122.315C88.2888 122.255 88.9388 122.185 89.5988 122.075L91.5488 121.645C94.1288 120.965 96.6388 120.075 99.0788 119.035C101.529 118.015 103.879 116.785 106.069 115.305C108.229 113.785 110.229 112.045 111.989 110.125C113.729 108.185 115.229 106.065 116.459 103.825C117.669 101.575 118.639 99.2252 119.159 96.7252C119.199 96.5052 119.069 96.2952 118.849 96.2552C118.669 96.2152 118.489 96.3152 118.409 96.4752L118.399 96.4852Z" fill="#E9408F" stroke="black" stroke-miterlimit="10" stroke-linecap="round" stroke-linejoin="round"/>
<path d="M93.7688 97.1852L95.6588 95.1952L108.629 98.1852L98.9088 85.1252L99.0988 84.5352L89.8088 78.7452L87.8988 79.2852L84.9388 80.1252C84.9588 80.1252 80.4288 92.8452 93.7688 97.1852Z" fill="#A6C721" stroke="black" stroke-miterlimit="10" stroke-linecap="round" stroke-linejoin="round"/>
<path d="M65.6488 115.265C65.9988 116.715 66.0288 118.185 65.8488 119.605C65.4888 122.455 64.2088 125.085 62.3688 127.235C62.2288 127.395 62.0888 127.555 61.9288 127.715C62.1588 128.495 62.3188 129.285 62.4988 130.085C62.5988 130.905 62.6688 131.725 62.7388 132.555C62.7188 133.365 62.6988 134.185 62.6488 135.005C62.3388 138.255 61.1988 141.225 59.7688 143.865L59.2388 144.865L58.6388 145.795L58.0188 146.725C57.8188 147.035 57.6188 147.345 57.3488 147.665C56.3588 148.995 55.2288 150.065 54.0788 151.105C51.8788 152.995 49.4488 154.435 46.8988 155.575L87.2988 147.035C87.2988 147.035 96.1988 130.925 80.2388 126.775C80.2388 126.775 90.0688 110.035 93.7488 97.1952C80.4088 92.8552 84.9288 80.1352 84.9288 80.1352L87.8888 79.2952C82.4188 74.5652 75.5988 68.6052 75.5988 68.6052C75.5988 68.6052 54.3588 75.4652 38.0888 94.9952C37.9188 95.1952 37.7488 95.4052 37.5888 95.6052C35.6788 97.9452 33.8488 100.455 32.1288 103.155C35.1788 104.995 38.5588 106.305 42.0188 107.035C44.2388 107.505 46.4988 107.735 48.7488 107.705L50.4288 107.635L52.1288 107.475C53.4288 107.355 54.7388 107.285 56.0988 107.435C57.4388 107.545 58.8288 107.925 60.1488 108.525C61.4688 109.105 62.6988 110.065 63.6588 111.235C64.6288 112.415 65.2988 113.825 65.6488 115.265Z" fill="#4B4145" stroke="black" stroke-miterlimit="10" stroke-linecap="round" stroke-linejoin="round"/>
<path d="M71.8888 183.785H30.5188L23.5188 163.285L62.3388 159.035L70.8888 181.185L71.8888 183.785Z" fill="#AB3E82" stroke="black" stroke-miterlimit="10" stroke-linecap="round" stroke-linejoin="round"/>
<path d="M146.659 149.155C147.459 149.485 148.249 149.845 149.019 150.235C150.569 151.125 152.059 152.115 153.339 153.275C155.959 155.565 158.019 158.265 159.639 161.095C162.519 166.175 164.239 171.625 165.209 177.135C172.369 169.665 176.679 162.355 174.739 156.495C172.679 150.235 159.179 148.955 146.659 149.155Z" fill="#A6C721" stroke="black" stroke-miterlimit="10" stroke-linecap="round" stroke-linejoin="round"/>
<path d="M123.089 154.725C123.499 155.075 123.909 155.435 124.309 155.795C124.489 155.955 124.649 156.105 124.819 156.265L125.319 156.745L125.909 155.005C127.589 153.145 129.529 151.405 131.929 150.005C130.179 150.165 128.659 150.325 127.459 150.465C126.939 150.525 126.479 150.575 126.069 150.625C124.939 150.765 124.299 150.855 124.299 150.855L123.089 154.725Z" fill="#FFCC03" stroke="black" stroke-miterlimit="10" stroke-linecap="round" stroke-linejoin="round"/>
<path d="M73.3488 183.455L73.3288 183.785H72.0788L73.3488 183.455Z" fill="#A6C721" stroke="black" stroke-miterlimit="10" stroke-linecap="round" stroke-linejoin="round"/>
<path d="M76.1688 183.785H72.0788L71.9088 183.825L71.8888 183.785H62.1188L70.8888 181.185L74.4188 180.145L76.1688 183.785Z" fill="#AB3E82" stroke="black" stroke-miterlimit="10" stroke-linecap="round" stroke-linejoin="round"/>
<path d="M117.809 150.655C119.339 151.705 120.819 152.825 122.249 154.015C122.529 154.245 122.809 154.485 123.089 154.725C123.499 155.075 123.909 155.435 124.309 155.795L126.079 150.625L126.289 150.005L123.629 150.205L117.809 150.655Z" fill="#AB3E82" stroke="black" stroke-miterlimit="10" stroke-linecap="round" stroke-linejoin="round"/>
<path d="M96.2188 170.745L101.969 171.255L115.569 172.455L115.929 172.495C116.749 170.265 117.679 168.055 118.739 165.895C118.559 165.665 118.389 165.445 118.199 165.225C116.269 162.805 114.139 160.515 111.839 158.365C110.929 157.515 109.999 156.695 109.029 155.895C108.169 155.235 107.399 154.615 106.519 153.945L96.2188 170.745Z" fill="#AB3E82" stroke="black" stroke-miterlimit="10" stroke-linecap="round" stroke-linejoin="round"/>
<path d="M122.249 154.015C122.529 154.245 122.809 154.485 123.089 154.725C123.499 155.075 123.909 155.435 124.309 155.795C124.489 155.955 124.649 156.105 124.819 156.265L125.319 156.745L125.909 155.005L127.449 150.465L128.119 148.495L124.159 148.735L123.619 150.205L122.249 154.015Z" fill="#AB3E82" stroke="black" stroke-miterlimit="10" stroke-linecap="round" stroke-linejoin="round"/>
<path d="M115.059 173.855L115.419 173.885C115.419 173.865 115.429 173.845 115.439 173.825C115.599 173.385 115.759 172.945 115.929 172.505C116.749 170.275 117.679 168.065 118.739 165.905C118.559 165.675 118.389 165.455 118.199 165.235L115.569 172.475L115.059 173.855Z" fill="white" stroke="black" stroke-miterlimit="10" stroke-linecap="round" stroke-linejoin="round"/>
<path d="M178.489 110.355L175.459 112.145C175.459 112.145 174.359 107.085 172.879 104.025C172.229 102.695 171.509 101.745 170.769 101.765C169.199 101.815 169.659 104.015 170.179 105.565C170.229 105.715 170.279 105.875 170.329 106.015C170.269 105.885 170.189 105.745 170.119 105.605C169.489 104.405 168.419 102.955 167.089 103.285C165.779 103.615 166.019 105.895 166.439 107.715C166.669 108.735 166.959 109.605 167.049 109.915C166.929 109.635 166.579 108.805 166.069 107.925C165.309 106.635 164.209 105.235 162.999 105.315C161.569 105.415 162.149 107.995 162.739 109.825C162.789 109.965 162.839 110.095 162.889 110.225C162.829 110.105 162.749 109.995 162.659 109.865C162.089 109.045 161.129 108.305 159.529 108.695C158.439 108.955 158.369 110.365 158.739 112.115C159.469 115.495 161.869 120.145 161.869 120.145C161.869 120.145 166.909 132.855 149.829 137.215C145.769 138.245 141.249 137.205 136.679 134.985L123.879 142.535C132.549 147.405 143.039 149.785 155.079 146.075C178.969 138.715 175.769 116.185 175.769 116.185C178.529 115.155 178.489 110.355 178.489 110.355ZM162.899 110.245C163.239 110.855 163.379 111.445 163.409 111.575C163.349 111.455 163.129 110.935 162.899 110.245ZM170.409 106.205C170.589 106.595 170.699 106.895 170.739 107.025C170.669 106.895 170.549 106.595 170.409 106.205Z" fill="#A6C721" stroke="black" stroke-miterlimit="10" stroke-linecap="round" stroke-linejoin="round"/>
<path d="M136.679 134.985L123.879 142.535C120.899 140.875 118.139 138.895 115.609 136.785C103.009 126.295 95.9988 112.125 95.9988 112.125L105.029 106.205C105.029 106.205 115.729 120.325 128.119 129.635C130.919 131.735 133.819 133.595 136.679 134.985Z" fill="#A6C721" stroke="black" stroke-miterlimit="10" stroke-linecap="round" stroke-linejoin="round"/>
<path d="M163.399 111.585C163.339 111.455 163.129 110.935 162.889 110.255C163.239 110.865 163.369 111.445 163.399 111.585Z" fill="white" stroke="black" stroke-miterlimit="10" stroke-linecap="round" stroke-linejoin="round"/>
<path d="M170.739 107.025C170.679 106.895 170.549 106.595 170.409 106.205C170.589 106.585 170.699 106.895 170.739 107.025Z" fill="white" stroke="black" stroke-miterlimit="10" stroke-linecap="round" stroke-linejoin="round"/>
<path d="M144.929 92.3552C144.929 92.3552 149.709 102.935 152.649 102.005C154.949 101.275 153.249 92.3552 153.249 92.3552C153.249 92.3552 161.839 96.7052 163.269 94.5752C164.619 92.5652 157.759 86.6152 157.759 86.6152C157.759 86.6152 165.379 88.5852 165.949 86.6152C167.139 82.4952 151.449 77.4752 151.449 77.4752L144.929 92.3552Z" fill="#63B44E" stroke="black" stroke-miterlimit="10" stroke-linecap="round" stroke-linejoin="round"/>
<path d="M155.069 64.0352C155.389 87.2752 145.549 105.315 120.819 105.315C104.869 105.315 98.6288 93.7252 96.2088 85.4952C96.4488 84.0052 96.6488 82.5452 96.7388 81.5452C97.5388 73.4852 98.7488 49.2052 98.7488 49.2052C98.7488 49.2052 128.959 50.3352 135.449 36.4952C135.449 36.4952 145.709 46.3152 154.849 47.1452C155.139 51.7252 154.979 57.3252 155.069 64.0352Z" fill="#A6C721" stroke="black" stroke-miterlimit="10" stroke-linecap="round" stroke-linejoin="round"/>
<path d="M121.809 45.5252C118.959 45.5352 114.189 45.2252 114.049 53.8952C113.919 62.1152 122.519 62.1452 122.519 62.1452C122.519 62.1452 129.199 63.0352 130.169 54.1152C131.159 45.1052 124.799 45.5152 121.809 45.5252Z" fill="white" stroke="black" stroke-miterlimit="10" stroke-linecap="round" stroke-linejoin="round"/>
<path d="M126.489 49.1752C124.799 49.1052 125.299 52.4352 125.199 53.5652C125.109 54.7152 124.499 58.0752 125.759 58.2252C127.759 58.4552 128.059 54.7352 128.109 53.4452C128.159 52.3752 128.089 49.2352 126.489 49.1752Z" fill="black" stroke="black" stroke-miterlimit="10" stroke-linecap="round" stroke-linejoin="round"/>
<path d="M126.879 50.6652C126.119 50.6352 126.359 52.1352 126.369 52.6452C126.379 53.0652 126.249 54.2752 126.879 54.3252C127.569 54.3752 127.539 52.5752 127.539 52.5752C127.539 52.5752 127.589 50.6952 126.879 50.6652Z" fill="white"/>
<path d="M110.859 57.5952C110.859 57.5952 117.839 57.2652 118.769 58.9852C119.449 60.2352 114.639 64.0352 114.639 64.0352" fill="#A6C721"/>
<path d="M110.859 57.5952C110.859 57.5952 117.839 57.2652 118.769 58.9852C119.449 60.2352 114.639 64.0352 114.639 64.0352" stroke="black" stroke-miterlimit="10" stroke-linecap="round" stroke-linejoin="round"/>
<path d="M143.689 46.8152C146.539 46.8252 151.309 46.5152 151.449 55.1852C151.579 63.4052 142.979 63.4352 142.979 63.4352C142.979 63.4352 136.299 64.3252 135.329 55.4052C134.339 46.3952 140.689 46.8152 143.689 46.8152Z" fill="white" stroke="black" stroke-miterlimit="10" stroke-linecap="round" stroke-linejoin="round"/>
<path d="M146.439 50.4652C144.749 50.3952 145.249 53.7252 145.149 54.8552C145.059 56.0052 144.449 59.3652 145.709 59.5152C147.709 59.7452 148.009 56.0252 148.059 54.7352C148.119 53.6652 148.039 50.5252 146.439 50.4652Z" fill="black" stroke="black" stroke-miterlimit="10" stroke-linecap="round" stroke-linejoin="round"/>
<path d="M146.829 51.9552C146.069 51.9252 146.309 53.4252 146.319 53.9352C146.329 54.3552 146.199 55.5652 146.829 55.6152C147.519 55.6652 147.489 53.8652 147.489 53.8652C147.489 53.8652 147.539 51.9852 146.829 51.9552Z" fill="white"/>
<path d="M153.489 58.8652C151.349 58.9052 148.169 59.1552 147.559 60.2752C146.879 61.5252 151.689 65.3252 151.689 65.3252" fill="#A6C721"/>
<path d="M153.489 58.8652C151.349 58.9052 148.169 59.1552 147.559 60.2752C146.879 61.5252 151.689 65.3252 151.689 65.3252" stroke="black" stroke-miterlimit="10" stroke-linecap="round" stroke-linejoin="round"/>
<path d="M121.809 63.4752C118.959 63.4852 114.189 63.1752 114.049 71.8452C113.919 80.0652 122.519 80.0952 122.519 80.0952C122.519 80.0952 129.199 80.9852 130.169 72.0652C131.159 63.0552 124.799 63.4652 121.809 63.4752Z" fill="white" stroke="black" stroke-miterlimit="10" stroke-linecap="round" stroke-linejoin="round"/>
<path d="M126.489 67.1152C124.799 67.0452 125.299 70.3752 125.199 71.5052C125.109 72.6552 124.499 76.0152 125.759 76.1652C127.759 76.3952 128.059 72.6752 128.109 71.3852C128.159 70.3152 128.089 67.1852 126.489 67.1152Z" fill="black" stroke="black" stroke-miterlimit="10" stroke-linecap="round" stroke-linejoin="round"/>
<path d="M126.879 68.6052C126.119 68.5752 126.359 70.0752 126.369 70.5852C126.379 71.0052 126.249 72.2152 126.879 72.2652C127.569 72.3152 127.539 70.5152 127.539 70.5152C127.539 70.5152 127.589 68.6352 126.879 68.6052Z" fill="white"/>
<path d="M110.859 75.5452C110.859 75.5452 117.839 75.2152 118.769 76.9352C119.449 78.1852 114.639 81.9852 114.639 81.9852" fill="#A6C721"/>
<path d="M110.859 75.5452C110.859 75.5452 117.839 75.2152 118.769 76.9352C119.449 78.1852 114.639 81.9852 114.639 81.9852" stroke="black" stroke-miterlimit="10" stroke-linecap="round" stroke-linejoin="round"/>
<path d="M143.689 64.7652C146.539 64.7752 151.309 64.4652 151.449 73.1352C151.579 81.3552 142.979 81.3852 142.979 81.3852C142.979 81.3852 136.299 82.2752 135.329 73.3552C134.339 64.3452 140.689 64.7552 143.689 64.7652Z" fill="white" stroke="black" stroke-miterlimit="10" stroke-linecap="round" stroke-linejoin="round"/>
<path d="M146.439 68.4052C144.749 68.3352 145.249 71.6652 145.149 72.7952C145.059 73.9452 144.449 77.3052 145.709 77.4552C147.709 77.6852 148.009 73.9652 148.059 72.6752C148.119 71.6052 148.039 68.4752 146.439 68.4052Z" fill="black" stroke="black" stroke-miterlimit="10" stroke-linecap="round" stroke-linejoin="round"/>
<path d="M146.829 69.8952C146.069 69.8652 146.309 71.3652 146.319 71.8752C146.329 72.2952 146.199 73.5052 146.829 73.5552C147.519 73.6052 147.489 71.8052 147.489 71.8052C147.489 71.8052 147.539 69.9252 146.829 69.8952Z" fill="white"/>
<path d="M134.349 74.0852C134.349 74.0852 139.789 82.2752 152.079 76.1852C153.589 75.4352 157.729 72.8752 158.769 76.8652C159.809 80.8652 152.299 87.5352 135.569 80.5152" fill="#A6C721"/>
<path d="M134.349 74.0852C134.349 74.0852 139.789 82.2752 152.079 76.1852C153.589 75.4352 157.729 72.8752 158.769 76.8652C159.809 80.8652 152.299 87.5352 135.569 80.5152" stroke="black" stroke-miterlimit="10" stroke-linecap="round" stroke-linejoin="round"/>
<path d="M140.469 91.5552C132.729 97.3852 125.019 93.4752 122.019 90.5852C120.449 89.0752 120.409 86.5852 121.909 85.0252C123.409 83.4652 125.879 83.4152 127.449 84.8952C128.119 85.5152 131.629 88.3752 135.739 85.2752C137.469 83.9652 139.939 84.3152 141.249 86.0452C142.549 87.7852 142.209 90.2452 140.469 91.5552Z" fill="#8F80BB" stroke="black" stroke-miterlimit="10" stroke-linecap="round" stroke-linejoin="round"/>
<path d="M124.749 87.7552C124.749 87.7552 131.009 93.7752 138.109 88.4152" stroke="black" stroke-miterlimit="10" stroke-linecap="round" stroke-linejoin="round"/>
<path d="M10.6688 158.025H35.3688L46.9188 155.585C49.4588 154.435 51.8988 152.995 54.0988 151.115C55.2488 150.075 56.3788 149.005 57.3688 147.675C57.6388 147.345 57.8388 147.035 58.0388 146.735L58.6588 145.805L59.2588 144.875L59.7888 143.875C61.2188 141.235 62.3588 138.265 62.6688 135.015C62.7088 134.195 62.7388 133.375 62.7588 132.565C62.6888 131.735 62.6188 130.915 62.5188 130.095C62.3288 129.305 62.1788 128.505 61.9488 127.725C62.1088 127.565 62.2488 127.405 62.3888 127.245C64.2288 125.105 65.5088 122.475 65.8688 119.615C66.0488 118.195 66.0188 116.725 65.6688 115.275C65.3188 113.825 64.6488 112.425 63.6788 111.255C62.7188 110.085 61.4888 109.125 60.1688 108.545C58.8488 107.955 57.4588 107.565 56.1188 107.455C54.7588 107.295 53.4488 107.365 52.1488 107.495L50.4488 107.655L48.7688 107.725C46.5188 107.755 44.2588 107.525 42.0388 107.055C38.5788 106.325 35.1988 105.015 32.1488 103.175C31.6888 103.885 31.2488 104.615 30.8188 105.345C24.3488 116.285 19.8288 130.125 19.8488 147.415C19.8488 149.275 19.8988 151.175 20.0088 153.115L18.5388 153.895L10.6688 158.025Z" fill="#4B4145" stroke="black" stroke-miterlimit="10" stroke-linecap="round" stroke-linejoin="round"/>
<path d="M45.3888 101.435L59.0788 107.505C59.0788 107.505 72.0688 89.6052 62.7488 85.7652C53.4288 81.9252 45.3888 101.435 45.3888 101.435Z" fill="#AB3E82" stroke="black" stroke-miterlimit="10" stroke-linecap="round" stroke-linejoin="round"/>
<path d="M101.469 140.005C102.479 141.055 103.629 142.035 104.869 142.925C105.429 143.325 105.999 143.715 106.579 144.085C107.619 144.725 108.679 145.355 109.769 145.925L106.449 139.285L101.469 140.005Z" fill="white" stroke="black" stroke-miterlimit="10" stroke-linecap="round" stroke-linejoin="round"/>
<path d="M11.0188 163.225L58.7088 175.045L50.7188 220.025C50.7188 220.025 49.2188 228.185 52.4888 230.765C55.2488 232.925 57.8188 228.905 57.8188 228.905L101.949 171.265L111.819 158.375C110.909 157.525 109.979 156.705 109.009 155.905C108.149 155.245 107.379 154.625 106.499 153.955C106.229 153.735 105.929 153.515 105.629 153.285C105.619 153.285 105.619 153.285 105.609 153.275C104.279 152.315 103.009 151.275 101.809 150.135C100.649 149.035 99.5188 147.865 98.4788 146.595C97.3788 145.255 96.3788 143.795 95.5288 142.195C95.3188 141.805 95.1388 141.385 94.9688 140.955L89.2588 141.785L58.3288 146.265L11.5088 153.045C8.52884 153.475 6.53884 156.345 7.17884 159.285C7.60884 161.215 9.09884 162.745 11.0188 163.225Z" fill="white" stroke="black" stroke-miterlimit="10" stroke-linecap="round" stroke-linejoin="round"/>
<path d="M65.0188 203.925C66.4989 203.925 67.6988 202.725 67.6988 201.245C67.6988 199.765 66.4989 198.565 65.0188 198.565C63.5387 198.565 62.3388 199.765 62.3388 201.245C62.3388 202.725 63.5387 203.925 65.0188 203.925Z" fill="#EC671B" stroke="black" stroke-miterlimit="10" stroke-linecap="round" stroke-linejoin="round"/>
<path d="M69.5488 195.605C71.029 195.605 72.2288 194.405 72.2288 192.925C72.2288 191.445 71.029 190.245 69.5488 190.245C68.0687 190.245 66.8688 191.445 66.8688 192.925C66.8688 194.405 68.0687 195.605 69.5488 195.605Z" fill="#EC671B" stroke="black" stroke-miterlimit="10" stroke-linecap="round" stroke-linejoin="round"/>
<path d="M104.869 142.925C105.429 143.325 105.999 143.715 106.579 144.085C107.619 144.725 108.679 145.355 109.769 145.925C109.879 145.985 110.009 146.045 110.119 146.115C111.329 146.755 112.779 147.565 114.099 148.305L123.879 142.545L136.689 134.995L161.879 120.155C161.879 120.155 159.469 115.515 158.749 112.125L128.129 129.645L115.609 136.785L107.519 141.415L104.869 142.925Z" fill="#F7AD39" stroke="black" stroke-miterlimit="10" stroke-linecap="round" stroke-linejoin="round"/>
<path d="M95.6288 148.215L99.4588 156.915L105.639 153.265C105.629 153.265 105.629 153.265 105.619 153.255C104.289 152.295 103.019 151.255 101.819 150.115C100.659 149.015 99.5288 147.845 98.4888 146.575L95.6288 148.215Z" fill="#F7AD39" stroke="black" stroke-miterlimit="10" stroke-linecap="round" stroke-linejoin="round"/>
<path d="M162.889 110.225C162.829 110.105 162.749 109.995 162.659 109.865L162.739 109.815C162.789 109.955 162.839 110.095 162.889 110.225Z" fill="white" stroke="black" stroke-miterlimit="10" stroke-linecap="round" stroke-linejoin="round"/>
<path d="M163.399 111.585C163.339 111.455 163.129 110.935 162.889 110.255C163.239 110.865 163.369 111.445 163.399 111.585Z" fill="white" stroke="black" stroke-miterlimit="10" stroke-linecap="round" stroke-linejoin="round"/>
<path d="M167.049 109.905C166.929 109.625 166.579 108.795 166.069 107.915L166.429 107.705C166.659 108.725 166.949 109.605 167.049 109.905Z" fill="white" stroke="black" stroke-miterlimit="10" stroke-linecap="round" stroke-linejoin="round"/>
<path d="M170.329 106.015C170.269 105.885 170.189 105.745 170.119 105.605L170.179 105.565C170.229 105.715 170.279 105.865 170.329 106.015Z" fill="white" stroke="black" stroke-miterlimit="10" stroke-linecap="round" stroke-linejoin="round"/>
<path d="M170.739 107.025C170.679 106.895 170.549 106.595 170.409 106.205C170.589 106.585 170.699 106.895 170.739 107.025Z" fill="white" stroke="black" stroke-miterlimit="10" stroke-linecap="round" stroke-linejoin="round"/>
<path d="M190.509 103.265L178.489 110.345L175.459 112.135C175.459 112.135 174.359 107.075 172.879 104.015L186.279 96.3452L190.509 103.265Z" fill="#F7AD39" stroke="black" stroke-miterlimit="10" stroke-linecap="round" stroke-linejoin="round"/>
<path d="M86.2388 151.075L92.8688 164.545L96.2088 162.185L90.1388 149.335L86.2388 151.075Z" fill="#4A4246" stroke="black" stroke-miterlimit="10" stroke-linecap="round" stroke-linejoin="round"/>
<path d="M80.4988 153.105L88.7288 166.375L84.0688 170.085L76.0288 155.075L80.4988 153.105Z" fill="#4A4246" stroke="black" stroke-miterlimit="10" stroke-linecap="round" stroke-linejoin="round"/>
<path d="M186.279 96.3552C186.279 96.3552 188.109 94.5852 188.159 92.6352C188.209 90.6752 189.399 89.9452 190.509 89.7952L215.869 85.6852C215.869 85.6852 219.049 85.9652 220.369 88.1552C221.149 89.4452 220.479 91.1452 219.059 91.6652C215.829 92.8552 209.289 95.4752 207.359 97.7552C205.259 100.235 199.799 105.255 190.499 103.265L186.279 96.3552Z" fill="white" stroke="black" stroke-miterlimit="10" stroke-linecap="round" stroke-linejoin="round"/>
<path d="M89.5188 102.045C89.5188 102.045 96.2088 110.445 89.5188 115.615C85.6488 118.605 78.2288 113.645 78.2288 113.645" fill="#4B4145"/>
<path d="M89.5188 102.045C89.5188 102.045 96.2088 110.445 89.5188 115.615C85.6488 118.605 78.2288 113.645 78.2288 113.645" stroke="black" stroke-miterlimit="10" stroke-linecap="round" stroke-linejoin="round"/>
<path d="M77.4088 97.5852C77.4088 97.5852 84.0988 105.985 77.4088 111.155C73.5388 114.145 66.1188 109.185 66.1188 109.185" fill="#4B4145"/>
<path d="M77.4088 97.5852C77.4088 97.5852 84.0988 105.985 77.4088 111.155C73.5388 114.145 66.1188 109.185 66.1188 109.185" stroke="black" stroke-miterlimit="10" stroke-linecap="round" stroke-linejoin="round"/>
<path d="M70.5888 162.855L77.5888 162.025L77.6788 162.995L70.5888 164.545V162.855Z" fill="#E83F32" stroke="black" stroke-miterlimit="10" stroke-linecap="round" stroke-linejoin="round"/>
<path d="M70.8088 77.5852C72.0988 79.4552 79.6388 76.1752 79.9688 76.0352C79.7888 76.3752 76.3288 82.7652 77.8588 84.0852C79.1288 85.1452 83.8088 81.5152 84.0588 81.3152C83.9088 81.6052 80.2988 88.5652 81.9488 90.0052C83.3588 91.2452 89.0088 87.3352 89.0088 87.3352C89.0088 87.3352 87.4388 92.9552 89.1188 93.6852C92.0388 94.9652 94.6488 91.9452 95.2188 90.1652C95.5588 89.0552 95.9288 87.2652 96.2188 85.5152C96.4588 84.0252 96.6488 82.5652 96.7488 81.5652C97.5488 73.5052 98.7588 49.2152 98.7588 49.2152C98.7588 49.2152 128.969 50.3452 135.459 36.5152C135.459 36.5152 145.719 46.3352 154.849 47.1652C157.789 47.4252 160.599 46.7652 162.929 44.5452C165.579 42.0052 169.959 36.0152 167.929 33.4052C166.909 32.0852 161.579 34.8052 161.299 34.9452C161.399 34.6952 163.419 29.4252 162.139 28.4552C160.449 27.1652 154.389 31.6252 154.099 31.8352C154.229 31.5052 156.959 25.0552 155.509 23.8652C153.429 22.1652 146.899 29.5852 146.899 29.5852C146.899 29.5852 135.819 17.2952 118.829 13.6452C116.849 13.2252 114.799 12.9152 112.669 12.7552C104.949 12.1952 96.2888 13.5952 87.0788 18.5552L84.7888 13.8252C87.3088 12.8752 89.0888 10.4452 89.0888 7.60518C89.0888 3.91518 86.1088 0.935181 82.4288 0.935181C78.7488 0.935181 75.7588 3.91518 75.7588 7.60518C75.7588 11.1752 78.5788 14.0952 82.1188 14.2552L81.1588 22.0952C81.1588 22.0952 78.3388 24.1952 76.0088 29.8952C75.6688 30.7352 75.3488 31.6452 75.0388 32.6352C74.5888 34.0652 74.1888 35.6652 73.8688 37.4452C73.4288 39.8452 73.1288 42.5952 73.0388 45.7052C72.8588 51.9652 73.5588 59.7252 75.7488 69.2652C75.7388 69.2552 69.4288 75.5852 70.8088 77.5852Z" fill="#63B44E" stroke="black" stroke-miterlimit="10" stroke-linecap="round" stroke-linejoin="round"/>
<path d="M98.7488 49.2052H92.2488" stroke="black" stroke-miterlimit="10" stroke-linecap="round" stroke-linejoin="round"/>
<path d="M91.0988 63.4652C91.0988 63.4652 88.4288 63.2552 87.9588 63.8852C87.6388 64.3052 88.2688 65.9652 88.2688 65.9652C88.2688 65.9652 86.3788 66.0352 86.0388 66.4952C85.8488 66.7552 85.7988 67.2152 85.8188 67.7452C83.1188 67.1752 80.5288 64.4552 79.4388 60.7152C78.0288 55.8652 79.6688 51.1352 83.0788 50.1452C86.5088 49.1552 90.4188 52.2652 91.8288 57.1052C91.8888 57.3252 91.9488 57.5352 91.9988 57.7552C91.0488 58.3252 90.1688 58.9652 89.9588 59.5252C89.5988 60.4852 91.0988 63.4652 91.0988 63.4652Z" fill="#A6C721" stroke="black" stroke-miterlimit="10" stroke-linecap="round" stroke-linejoin="round"/>
<path d="M82.9488 59.5252C82.9488 59.5252 82.8488 55.3952 86.6188 55.3952" stroke="black" stroke-miterlimit="10" stroke-linecap="round" stroke-linejoin="round"/>
<path d="M84.0788 56.3752C84.0788 56.3752 86.1088 57.5352 85.8088 59.9052" stroke="black" stroke-miterlimit="10" stroke-linecap="round" stroke-linejoin="round"/>
<path d="M116.299 60.2552L117.059 64.3152" stroke="black" stroke-miterlimit="10" stroke-linecap="round" stroke-linejoin="round"/>
<path d="M112.419 62.2852L115.729 65.4952" stroke="black" stroke-miterlimit="10" stroke-linecap="round" stroke-linejoin="round"/>
<path d="M110.049 65.8352L114.589 67.7952" stroke="black" stroke-miterlimit="10" stroke-linecap="round" stroke-linejoin="round"/>
<path d="M148.629 47.7852L150.639 43.8952" stroke="black" stroke-miterlimit="10" stroke-linecap="round" stroke-linejoin="round"/>
<path d="M150.039 49.2152L154.069 47.8152" stroke="black" stroke-miterlimit="10" stroke-linecap="round" stroke-linejoin="round"/>
<path d="M146.499 46.9752L146.889 43.0452" stroke="black" stroke-miterlimit="10" stroke-linecap="round" stroke-linejoin="round"/>
<path d="M148.269 65.4452L148.999 61.7652" stroke="black" stroke-miterlimit="10" stroke-linecap="round" stroke-linejoin="round"/>
<path d="M149.689 66.6852L152.059 63.5652" stroke="black" stroke-miterlimit="10" stroke-linecap="round" stroke-linejoin="round"/>
<path d="M150.589 67.8552L153.539 66.3652" stroke="black" stroke-miterlimit="10" stroke-linecap="round" stroke-linejoin="round"/>
<path d="M114.549 49.9852L112.319 48.4052" stroke="black" stroke-miterlimit="10" stroke-linecap="round" stroke-linejoin="round"/>
<path d="M114.079 51.9552L110.859 50.8752" stroke="black" stroke-miterlimit="10" stroke-linecap="round" stroke-linejoin="round"/>
<path d="M43.9088 107.375C45.5188 107.615 47.1388 107.725 48.7588 107.715L50.4388 107.645L52.1388 107.485C53.4388 107.365 54.7488 107.295 56.1088 107.445C56.4788 107.475 56.8588 107.525 57.2388 107.605C57.3588 107.345 57.4888 107.085 57.5988 106.835L46.7688 102.045C46.7688 102.045 45.5288 104.045 43.9088 107.375Z" fill="#A6C721" stroke="black" stroke-miterlimit="10" stroke-linecap="round" stroke-linejoin="round"/>
<path d="M50.8988 127.365C50.9688 127.365 51.0388 127.355 51.1088 127.355C51.2488 127.345 51.3788 127.335 51.5188 127.325C51.7188 127.305 51.9288 127.285 52.1288 127.265C52.5388 127.225 52.9388 127.155 53.3388 127.055C52.8288 126.175 52.1788 125.325 51.4288 124.535C51.4288 124.535 51.1888 125.825 50.8988 127.365Z" fill="#4A4246" stroke="black" stroke-miterlimit="10" stroke-linecap="round" stroke-linejoin="round"/>
<path d="M38.3688 150.215C39.2788 152.655 40.4988 155.035 42.0888 157.315C44.1488 160.265 46.8188 163.035 50.2388 165.535L57.6988 182.945C57.6988 182.945 58.7888 185.315 59.8888 184.535C60.7188 183.945 59.8888 181.945 59.8888 181.945L57.5688 175.545C57.8288 176.035 62.3288 184.305 64.6888 182.995C67.0588 181.675 60.8888 173.405 60.5688 172.965C60.9588 173.435 68.0188 181.795 70.0788 179.665C72.1888 177.485 64.4988 170.405 64.4988 170.405C64.4988 170.405 74.6088 173.235 74.4288 165.965C74.4288 165.965 74.5188 163.615 72.8888 164.195C71.2588 164.755 69.7488 166.785 69.7488 166.785C69.7488 166.785 66.0488 166.385 66.2788 163.355C66.5088 160.325 69.1888 159.425 70.5088 161.145C71.8288 162.875 72.7888 163.455 73.6188 162.855C74.4588 162.245 74.8988 159.655 72.2988 157.415C72.2988 157.415 67.9688 153.545 63.3688 153.825C60.0188 154.025 57.5788 154.765 56.4988 155.155C55.7088 154.665 54.4088 153.665 53.1388 151.895C51.8188 150.075 50.5488 147.435 49.9288 143.695C49.4388 140.745 49.3588 137.115 49.9588 132.665C49.7088 132.675 49.4688 132.675 49.2288 132.665C48.5688 132.615 47.8388 132.595 47.2288 132.505C46.7588 132.435 46.2988 132.375 45.8388 132.315C45.4988 132.265 45.1588 132.215 44.8188 132.165C44.3888 132.105 43.9588 132.035 43.5288 131.955C42.2888 131.675 41.0388 131.485 39.7888 131.075C38.7788 130.785 37.7388 130.445 36.7188 130.025C35.7488 136.605 35.9388 143.625 38.3688 150.215Z" fill="#A6C721" stroke="black" stroke-miterlimit="10" stroke-linecap="round" stroke-linejoin="round"/>
<path d="M140.929 171.805L151.559 166.665" stroke="black" stroke-miterlimit="10" stroke-linecap="round" stroke-linejoin="round"/>
<path d="M94.7788 56.3752C94.7788 56.3752 90.4488 58.1752 89.9488 59.5252C89.5888 60.4852 91.0988 63.4652 91.0988 63.4652C91.0988 63.4652 88.4288 63.2552 87.9588 63.8852C87.6488 64.3052 88.2688 65.9552 88.2688 65.9552C88.2688 65.9552 86.3788 66.0252 86.0488 66.4952C85.3688 67.4452 86.4288 71.1452 86.4288 71.1452" fill="#5EB673"/>
<path d="M94.7788 56.3752C94.7788 56.3752 90.4488 58.1752 89.9488 59.5252C89.5888 60.4852 91.0988 63.4652 91.0988 63.4652C91.0988 63.4652 88.4288 63.2552 87.9588 63.8852C87.6488 64.3052 88.2688 65.9552 88.2688 65.9552C88.2688 65.9552 86.3788 66.0252 86.0488 66.4952C85.3688 67.4452 86.4288 71.1452 86.4288 71.1452" stroke="black" stroke-miterlimit="10" stroke-linecap="round" stroke-linejoin="round"/>
<path d="M37.7988 124.135C38.8488 124.755 40.1088 125.265 41.4088 125.675C42.4088 126.055 43.5288 126.255 44.5888 126.545C44.7788 126.585 44.9588 126.625 45.1488 126.655C45.2388 126.675 45.3288 126.695 45.4088 126.705C45.7788 126.775 46.1588 126.835 46.5288 126.905C46.9888 126.985 47.4588 127.065 47.9188 127.155C48.9088 127.315 49.8788 127.395 50.8188 127.365H50.8988C51.1888 125.825 51.4388 124.535 51.4388 124.535C52.0788 121.775 52.7988 119.235 53.5488 116.925C54.2388 114.825 54.9388 112.925 55.6288 111.255C55.6188 111.255 55.6188 111.255 55.6088 111.255C54.5988 111.075 53.5288 111.075 52.4488 111.125L50.5888 111.205L48.7088 111.195C46.6188 111.115 44.5388 110.835 42.5088 110.375C42.2588 110.925 42.0188 111.495 41.7688 112.095H41.7588C40.9688 114.015 40.1588 116.125 39.4188 118.405C38.8188 120.225 38.2688 122.135 37.7988 124.135Z" fill="#A6C721" stroke="black" stroke-miterlimit="10" stroke-linecap="round" stroke-linejoin="round"/>
<path d="M160.369 215.155C159.629 217.965 159.259 220.855 159.449 223.675C159.619 225.065 159.849 226.475 160.449 227.705C161.009 228.915 161.979 230.055 163.039 230.595L163.149 230.645C163.449 230.795 163.589 231.155 163.459 231.465C163.329 231.795 162.949 231.955 162.629 231.825C160.919 231.145 159.819 229.885 158.979 228.475C158.139 227.065 157.749 225.495 157.439 223.945C156.969 220.805 157.139 217.635 157.669 214.615C157.899 213.075 158.279 211.595 158.629 210.095L159.869 205.715C160.669 202.965 161.179 200.115 161.439 197.245C161.849 192.755 161.699 188.215 161.039 183.785C160.929 183.045 160.809 182.305 160.669 181.565C160.579 181.065 160.469 180.565 160.369 180.065C159.169 174.485 157.139 169.055 154.119 164.515C151.149 159.985 146.979 156.445 142.349 155.725C141.789 155.585 141.189 155.585 140.609 155.525C140.049 155.505 139.689 155.585 139.209 155.615C138.309 155.845 137.389 156.125 136.469 156.755C134.629 157.895 132.879 159.755 131.369 161.885C131.199 162.135 131.029 162.385 130.849 162.625C129.139 160.535 127.289 158.565 125.329 156.735L124.819 156.255C125.179 155.835 125.539 155.405 125.919 154.995C127.599 153.135 129.539 151.395 131.939 149.995C132.119 149.895 132.309 149.785 132.499 149.685C134.139 148.735 136.129 148.125 138.169 147.825C139.179 147.765 140.319 147.735 141.249 147.835C142.159 147.965 143.069 148.055 143.949 148.315C144.889 148.515 145.789 148.805 146.669 149.155C147.469 149.485 148.259 149.845 149.019 150.235C150.579 151.125 152.069 152.115 153.349 153.285C155.969 155.565 158.029 158.265 159.649 161.105C162.529 166.185 164.249 171.635 165.219 177.135C165.339 177.805 165.449 178.475 165.549 179.145C165.769 180.685 165.929 182.235 166.029 183.785C166.349 188.455 166.149 193.145 165.409 197.755C164.919 200.815 164.159 203.855 163.089 206.785L161.579 210.955C161.149 212.355 160.689 213.745 160.369 215.155Z" fill="#E9408F" stroke="black" stroke-miterlimit="10" stroke-linecap="round" stroke-linejoin="round"/>
<path d="M0.00882023 121.355C0.86882 126.545 2.32882 131.665 4.45882 136.615C6.67882 141.505 9.60882 146.275 13.7488 150.175C15.1788 151.565 16.7888 152.815 18.5088 153.895C21.6988 155.895 25.3088 157.325 29.1088 157.995C29.2088 158.015 29.3088 158.035 29.4088 158.035C33.6388 158.675 37.9688 158.415 42.0888 157.325C40.4988 155.045 39.2788 152.665 38.3688 150.225C35.6588 150.935 32.8488 151.195 30.0688 150.895C26.4888 150.575 22.9988 149.365 19.8088 147.415C19.0088 146.925 18.2188 146.405 17.4588 145.815C15.5788 144.365 13.7888 142.725 12.2088 140.835C11.3588 139.945 10.6388 138.935 9.86882 137.955C9.11882 136.955 8.44882 135.885 7.72882 134.855C4.98882 130.605 2.79882 125.925 0.74882 121.135C0.65882 120.935 0.42882 120.835 0.22882 120.925C0.0688203 120.985 -0.0311798 121.175 0.00882023 121.355Z" fill="#E9408F" stroke="black" stroke-miterlimit="10" stroke-linecap="round" stroke-linejoin="round"/>
<path d="M23.2788 97.6052C24.5188 99.8852 26.2488 101.735 28.1488 103.335C28.9988 104.045 29.8788 104.715 30.7888 105.325C33.9788 107.485 37.5488 109.065 41.2888 110.065C41.6988 110.175 42.0988 110.265 42.5088 110.365C44.5388 110.825 46.6088 111.105 48.7088 111.185L50.5888 111.195L52.4488 111.115C53.5288 111.075 54.5988 111.075 55.6088 111.245C55.6188 111.245 55.6188 111.245 55.6288 111.245C57.6388 111.565 59.3988 112.415 60.3988 113.825C61.4388 115.195 61.7788 117.095 61.4188 118.955C61.1788 120.395 60.5588 121.785 59.6588 122.985C58.3788 121.055 56.7788 119.405 55.0688 118.045C54.5788 117.645 54.0588 117.265 53.5388 116.925C52.7888 119.225 52.0688 121.775 51.4288 124.535C52.1788 125.325 52.8188 126.175 53.3388 127.055C52.9388 127.155 52.5388 127.225 52.1288 127.265C51.9288 127.295 51.7188 127.315 51.5188 127.325C51.3788 127.335 51.2488 127.345 51.1088 127.355C51.0388 127.355 50.9688 127.365 50.8988 127.365H50.8188C49.8788 127.395 48.8988 127.315 47.9188 127.155C47.4588 127.065 46.9888 126.985 46.5288 126.905C46.1488 126.845 45.7788 126.775 45.4088 126.705C45.3188 126.685 45.2288 126.665 45.1488 126.655C44.9588 126.615 44.7788 126.585 44.5888 126.545C43.5288 126.255 42.4088 126.055 41.4088 125.675C40.1088 125.265 38.8488 124.755 37.7988 124.135C37.1888 123.785 36.6388 123.395 36.1988 122.975C35.6088 122.415 35.2088 121.825 35.0388 121.305C34.9588 121.045 34.9088 120.785 34.9288 120.535C34.9188 120.405 34.9588 120.285 34.9688 120.175C34.9788 120.115 35.0088 120.065 35.0088 120.025C35.0088 120.015 35.0088 120.005 35.0088 120.005L35.0288 119.965L35.0688 119.895C35.0788 119.885 35.0888 119.855 35.1088 119.845C35.1388 119.805 35.1788 119.745 35.2188 119.685C35.2888 119.575 35.4088 119.455 35.5088 119.345C35.7388 119.135 35.9988 118.935 36.2988 118.795C36.8988 118.475 37.6988 118.345 38.6088 118.345C38.8688 118.355 39.1488 118.375 39.4188 118.405C40.1588 116.125 40.9588 114.005 41.7588 112.095C40.7088 111.935 39.6088 111.845 38.4588 111.875C36.7688 111.955 34.9588 112.305 33.2688 113.265C32.4288 113.735 31.6488 114.345 30.9788 115.075C30.6388 115.435 30.3288 115.815 30.0588 116.245C29.9188 116.455 29.7888 116.675 29.6588 116.915C29.5988 117.025 29.5388 117.145 29.4688 117.285C29.3988 117.435 29.3588 117.535 29.2488 117.805L29.2188 117.875L29.1588 118.075C29.1188 118.195 29.0688 118.345 29.0488 118.465C28.9988 118.705 28.9388 118.955 28.9088 119.185C28.8388 119.655 28.7988 120.125 28.8188 120.595C28.8288 121.535 29.0288 122.455 29.3388 123.325C29.9888 125.045 31.1088 126.375 32.2788 127.405C33.6988 128.585 35.1688 129.405 36.6688 130.015C37.6888 130.435 38.7288 130.775 39.7388 131.065C40.9888 131.475 42.2388 131.665 43.4788 131.945C43.9088 132.025 44.3388 132.095 44.7688 132.155L49.9188 132.655C50.3588 132.655 50.8088 132.635 51.2488 132.615C52.4288 132.495 53.6188 132.325 54.7788 131.985C54.8088 132.675 54.7688 133.375 54.6688 134.065C54.3888 135.995 53.6288 137.975 52.5388 139.885L52.1488 140.595L51.6688 141.295L51.2088 141.995C51.0488 142.235 50.8988 142.485 50.7488 142.645C50.4988 142.995 50.1988 143.345 49.8788 143.675C50.5088 147.415 51.7788 150.055 53.0888 151.875C53.4288 151.625 53.7488 151.355 54.0688 151.085C55.2188 150.045 56.3488 148.975 57.3388 147.645C57.6088 147.315 57.8088 147.005 58.0088 146.705L58.6288 145.775L59.2288 144.845L59.7588 143.845C61.1888 141.205 62.3288 138.235 62.6388 134.985C62.6788 134.165 62.7088 133.345 62.7288 132.535C62.6588 131.705 62.5888 130.885 62.4888 130.065C62.2988 129.275 62.1488 128.475 61.9188 127.695C62.0788 127.535 62.2188 127.375 62.3588 127.215C64.1988 125.075 65.4788 122.445 65.8388 119.585C66.0188 118.165 65.9888 116.695 65.6388 115.245C65.2888 113.795 64.6188 112.395 63.6488 111.225C62.6888 110.055 61.4588 109.095 60.1388 108.515C59.1888 108.095 58.1988 107.765 57.2188 107.585C56.8388 107.505 56.4588 107.455 56.0888 107.425C54.7288 107.265 53.4188 107.335 52.1188 107.465L50.4188 107.625L48.7388 107.695C47.1188 107.715 45.4988 107.595 43.8888 107.355C43.2488 107.265 42.6288 107.155 41.9988 107.015C38.5388 106.285 35.1588 104.975 32.1088 103.135C31.2488 102.625 30.4188 102.055 29.6288 101.455C27.8188 100.085 26.1588 98.4652 25.0288 96.6052C24.4788 95.6852 24.0988 94.6752 24.1088 93.7652C24.1488 93.3252 24.2388 92.9052 24.4888 92.5652C24.7288 92.2552 25.1188 91.8752 25.5588 91.6252C26.4188 91.0852 27.4588 90.8652 28.5288 90.9252C29.6088 90.9852 30.6988 91.3052 31.7388 91.7452C33.8388 92.6552 35.8088 94.0252 37.5388 95.5652L37.5488 95.5752C37.5588 95.5852 37.5588 95.5852 37.5688 95.5852C37.7388 95.3852 37.9088 95.1752 38.0688 94.9752C36.3588 93.2652 34.4588 91.7652 32.2488 90.6452C31.1488 90.0952 29.9488 89.6552 28.6488 89.4952C27.3588 89.3452 25.9388 89.5352 24.7288 90.2052C24.1288 90.5252 23.5988 90.9252 23.0788 91.5252C22.5988 92.1452 22.3588 92.9052 22.2788 93.6452C22.2088 95.1452 22.6888 96.4652 23.2788 97.6052Z" fill="#E9408F" stroke="black" stroke-miterlimit="10" stroke-linecap="round" stroke-linejoin="round"/>
<path d="M59.6588 122.995C59.6588 122.995 57.7888 126.335 53.3388 127.065" stroke="black" stroke-miterlimit="10" stroke-linecap="round" stroke-linejoin="round"/>
<path d="M61.9388 127.715C61.9388 127.715 59.1388 130.845 54.7988 132.005" stroke="black" stroke-miterlimit="10" stroke-linecap="round" stroke-linejoin="round"/>
<mask id="mask0_189_228" style="mask-type:luminance" maskUnits="userSpaceOnUse" x="38" y="0" width="186" height="183">
<path d="M42.313 182.935C39.9301 182.935 38 179.741 38 175.798V8.07244C38 4.1291 39.9301 0.935181 42.313 0.935181H219.687C222.07 0.935181 224 4.1291 224 8.07244V175.798C224 179.741 222.07 182.935 219.687 182.935H42.313Z" fill="white"/>
</mask>
<g mask="url(#mask0_189_228)">
<path d="M160.71 181.715C159.9 182.455 159.06 183.205 158.21 183.935H142.44C141.72 181.695 140.89 179.515 139.97 177.365C139.37 176.015 138.71 174.685 138.01 173.385L146.37 169.345L135.92 169.765C134.41 167.325 132.72 164.985 130.89 162.775C131.07 162.535 131.24 162.285 131.41 162.035C132.92 159.905 134.67 158.045 136.51 156.905C137.43 156.275 138.35 155.995 139.25 155.765C139.73 155.735 140.09 155.655 140.65 155.675C141.23 155.735 141.83 155.735 142.39 155.875C147.02 156.595 151.19 160.135 154.16 164.665C157.18 169.205 159.21 174.635 160.41 180.215C160.51 180.715 160.62 181.215 160.71 181.715Z" fill="#A6C721" stroke="black" stroke-miterlimit="10" stroke-linecap="round" stroke-linejoin="round"/>
</g>
<mask id="mask1_189_228" style="mask-type:luminance" maskUnits="userSpaceOnUse" x="38" y="-22" width="94" height="205">
<path d="M40.1797 182.935C38.9754 182.935 38 179.355 38 174.935V-13.0648C38 -17.4848 38.9754 -21.0648 40.1797 -21.0648H129.82C131.025 -21.0648 132 -17.4848 132 -13.0648V174.935C132 179.355 131.025 182.935 129.82 182.935H40.1797Z" fill="white"/>
</mask>
<g mask="url(#mask1_189_228)">
<path d="M62.6607 183.935H59.2985L61.3392 180.315L62.1266 178.925C62.2629 180.055 62.3909 181.185 62.5081 182.345C62.5626 182.875 62.6143 183.405 62.6607 183.935Z" fill="#A6C721" stroke="black" stroke-miterlimit="10" stroke-linecap="round" stroke-linejoin="round"/>
</g>
<mask id="mask2_189_228" style="mask-type:luminance" maskUnits="userSpaceOnUse" x="38" y="0" width="103" height="183">
<path d="M40.3884 182.935C39.0688 182.935 38 179.741 38 175.798V8.07244C38 4.1291 39.0688 0.935181 40.3884 0.935181H138.612C139.931 0.935181 141 4.1291 141 8.07244V175.798C141 179.741 139.931 182.935 138.612 182.935H40.3884Z" fill="white"/>
</mask>
<g mask="url(#mask2_189_228)">
<path d="M142.44 183.935H128.51C128.34 183.405 128.15 182.875 127.95 182.345C127.52 181.185 127.05 180.055 126.55 178.925C126.05 177.815 125.51 176.725 124.94 175.635C124.01 173.815 122.97 172.055 121.84 170.335C121.61 169.985 121.38 169.645 121.14 169.305C120.85 168.855 120.55 168.425 120.23 167.995C119.96 167.595 119.68 167.205 119.38 166.825C119.18 166.565 118.98 166.295 118.77 166.045C118.6 165.815 118.42 165.595 118.24 165.375C116.3 162.955 114.18 160.655 111.87 158.515C110.96 157.665 110.03 156.845 109.07 156.045C108.21 155.385 107.43 154.765 106.56 154.095C106.29 153.875 105.99 153.655 105.69 153.425C105.68 153.425 105.68 153.425 105.67 153.415C104.34 152.455 103.07 151.415 101.86 150.275C100.71 149.165 99.58 148.005 98.54 146.735C97.43 145.395 96.44 143.935 95.59 142.335C95.38 141.945 95.2 141.525 95.03 141.095C94.87 140.685 94.72 140.285 94.55 139.885C94.31 139.005 94.05 138.125 93.93 137.225C93.73 135.405 93.75 133.495 94.41 131.805C95.56 128.375 98.03 126.015 100.56 124.255C100.78 124.105 101.1 124.095 101.33 124.275C101.62 124.485 101.68 124.895 101.46 125.185L101.44 125.215C99.68 127.585 98.29 130.145 98.17 132.615C98.03 135.055 98.95 137.255 100.62 139.165C100.9 139.505 101.19 139.835 101.51 140.155C102.52 141.205 103.67 142.185 104.91 143.075C105.47 143.475 106.04 143.865 106.62 144.235C107.66 144.875 108.72 145.505 109.81 146.075C109.92 146.135 110.05 146.195 110.16 146.255C111.37 146.895 112.82 147.705 114.14 148.445C114.19 148.475 114.24 148.495 114.29 148.525C115.51 149.235 116.69 149.995 117.86 150.805C119.38 151.855 120.87 152.975 122.3 154.165C122.58 154.395 122.86 154.635 123.13 154.875C123.55 155.225 123.96 155.575 124.35 155.935C124.53 156.095 124.7 156.245 124.86 156.405L125.37 156.885C127.33 158.715 129.18 160.685 130.89 162.775C132.72 164.985 134.41 167.325 135.92 169.765C136.66 170.955 137.36 172.155 138.01 173.385C138.71 174.685 139.37 176.015 139.97 177.365C140.89 179.515 141.72 181.695 142.44 183.935Z" fill="#E9408F" stroke="black" stroke-miterlimit="10" stroke-linecap="round" stroke-linejoin="round"/>
</g>
<path d="M112.41 185.755L123.65 180.315C123.92 179.165 124.22 178.025 124.55 176.895C124.67 176.475 124.81 176.055 124.94 175.645C124 173.825 122.96 172.065 121.83 170.345C121.6 170.005 121.37 169.655 121.13 169.315C120.84 168.875 120.54 168.445 120.22 168.005C119.95 167.605 119.66 167.215 119.37 166.835C119.17 166.575 118.96 166.305 118.76 166.045C117.7 168.205 116.77 170.415 115.95 172.645C115.78 173.085 115.62 173.525 115.46 173.965C115.45 173.985 115.44 174.005 115.44 174.025C114.16 177.855 113.11 181.745 112.41 185.755Z" fill="#E9408F" stroke="black" stroke-miterlimit="10" stroke-linecap="round" stroke-linejoin="round"/>
</g>
<defs>
<clipPath id="clip0_189_228">
<rect width="224" height="231" fill="white" transform="translate(0 0.935181)"/>
</clipPath>
</defs>
</svg>
