<svg width="2313" height="693" viewBox="0 0 2313 693" fill="none" xmlns="http://www.w3.org/2000/svg">
<path d="M647.109 66.5497C654.084 63.1606 659.88 61.4906 664.447 61.4906C664.939 61.4906 665.823 61.5397 667.149 61.6871C668.475 61.8344 669.605 61.8835 670.587 61.8835C684.536 62.8659 696.226 68.1705 705.608 77.7975C715.235 87.67 721.964 102.945 725.844 123.673C729.675 144.4 731.64 174.951 731.64 215.424C731.64 229.619 731.738 238.509 731.983 241.996C732.229 245.483 732.966 247.252 734.145 247.252H734.489C734.734 247.006 734.98 246.908 735.225 246.908C743.182 244.501 754.627 243.273 769.558 243.273C773.635 243.273 778.105 243.519 782.918 244.01C817.84 249.069 835.522 268.225 836.014 301.428C836.014 319.257 831.74 333.158 823.194 343.128C814.648 353.099 800.846 360.025 781.837 363.905C774.126 365.329 759.096 366.066 736.699 366.066C695.981 366.066 669.85 364.494 658.308 361.351C649.418 359.435 642.59 356.341 637.875 352.117C633.16 347.893 629.771 341.949 627.56 334.238C618.916 306.045 614.544 267.193 614.544 217.585C614.544 210.61 614.79 199.657 615.281 184.726C616.706 154.126 618.425 131.532 620.34 116.797C622.256 102.11 625.203 91.1082 629.181 83.7407C633.209 76.3731 639.152 70.6264 647.109 66.5497Z" fill="black" stroke="black" stroke-width="9.82343" stroke-miterlimit="10"/>
<path d="M876.732 53.1908C883.313 52.0611 893.775 51.8155 908.216 52.5031C918.776 52.9943 927.715 53.5346 934.886 54.124C956.252 55.5975 970.251 56.7272 976.881 57.5131C983.463 58.2989 990.929 59.9689 999.23 62.523C1021.09 69.3012 1035.48 76.2758 1042.35 83.3487C1044.22 85.1169 1047.12 89.341 1051.2 96.07C1054.29 102.259 1055.67 108.693 1055.37 115.422C1054.83 126.965 1049.87 137.967 1040.44 148.38C1033.07 155.993 1024.48 159.578 1014.65 159.136C1010.08 158.94 1005.03 158.203 999.574 156.975C975.457 152.014 957.284 149.215 945.004 148.674C941.861 148.527 939.945 148.576 939.209 148.773C935.083 149.313 932.48 151.13 931.35 154.176C930.711 157.024 930.417 158.842 930.367 159.578C930.22 162.231 932.136 164.048 936.065 165.08C939.994 166.111 949.621 167.241 965.044 168.42C987.147 170.433 999.721 172.103 1002.77 173.43C1006.79 175.05 1010.58 178.145 1014.11 182.614C1017.65 187.133 1020.01 191.701 1021.23 196.318C1023.89 206.584 1025.07 215.081 1024.77 221.81C1024.23 233.107 1020.1 241.948 1012.34 248.333C1006.35 253.098 1000.46 256.241 994.76 257.665C989.013 259.09 979.19 259.827 965.192 259.925C948.295 260.121 939.356 261.005 938.324 262.675C935.476 267.391 933.462 281.242 932.43 304.327L932.038 312.284L931.448 324.563C930.957 335.123 929.533 342.442 927.175 346.42C922.754 353.444 914.699 359.043 903.058 363.218C891.418 367.393 879.826 369.21 868.283 368.67C859.884 368.277 853.204 366.656 848.244 363.758C837.683 357.717 830.218 351.086 825.846 343.915C821.475 336.695 818.626 325.938 817.251 311.498C815.875 297.106 815.875 275.102 817.251 245.484C817.398 242.095 817.742 236.398 818.233 228.342C818.724 220.287 819.068 214 819.314 209.383C822.015 162.034 824.471 130.845 826.73 115.913C828.99 100.933 833.165 88.0639 839.206 77.2581C842.595 71.1676 845.297 67.0418 847.163 64.9789C849.079 62.9159 851.977 61.0986 855.906 59.576C863.421 56.4325 870.395 54.3696 876.732 53.1908Z" fill="black" stroke="black" stroke-width="9.82343" stroke-miterlimit="10"/>
<path d="M1290.94 50.0462C1297.91 45.1345 1304.4 42.1383 1310.39 40.9595C1316.38 39.8298 1325.61 39.8298 1338.09 41.0086L1339.17 41.156C1373.55 45.773 1397.42 65.2234 1410.78 99.5563C1415.35 110.853 1418 116.551 1418.69 116.649C1419.43 116.747 1420.12 114.046 1420.85 108.545C1422.96 92.7781 1428.81 80.9409 1438.39 72.9839C1443.84 68.3669 1449 65.4199 1453.81 64.0937C1458.57 62.7675 1464.91 62.6693 1472.82 63.7008C1475.22 64.0446 1480.43 64.9778 1488.49 66.5004C1502.39 69.5948 1512.46 73.7698 1518.69 79.1235C1524.88 84.4773 1529.84 93.4166 1533.48 106.089C1536.62 116.944 1538.24 128.486 1538.34 140.618C1538.39 152.799 1536.82 170.923 1533.62 195.04C1529.2 228.243 1522.87 259.04 1514.71 287.429C1506.51 315.868 1498.8 333.698 1491.53 341.016C1487.36 345.044 1481.07 348.482 1472.67 351.233C1463.78 354.18 1453.07 355.064 1440.6 353.885L1434.16 353.001C1418.64 350.938 1406.66 346.223 1398.16 338.904C1389.66 331.586 1381.71 319.159 1374.34 301.624C1368.69 289.198 1365.55 282.714 1364.91 282.125C1364.71 281.879 1364.32 282.026 1363.73 282.714C1363.34 283.647 1363.04 284.924 1362.84 286.594C1361.81 294.453 1357.79 302.607 1350.81 311.055C1343.84 319.454 1336.13 325.446 1327.63 328.933C1322.96 330.996 1316.23 332.47 1307.34 333.305C1298.45 334.189 1290.94 334.189 1284.75 333.354C1259.94 330.014 1246.14 311.3 1243.44 277.164C1242.02 256.829 1244.47 222.988 1250.81 175.737C1251.15 173.134 1251.74 169.352 1252.48 164.489C1253.26 159.627 1253.8 155.992 1254.1 153.585C1259.31 120.284 1264.51 96.2654 1269.77 81.5303C1275.02 66.8934 1282.05 56.3823 1290.94 50.0462Z" fill="black" stroke="black" stroke-width="9.82343" stroke-miterlimit="10"/>
<path d="M1830.09 53.5337C1839.43 52.7969 1850.63 53.2881 1863.79 55.0072C1878.82 56.9719 1890.61 59.7224 1899.15 63.2589C1918.21 71.5597 1934.12 83.9372 1946.8 100.391C1954.12 109.576 1960.11 121.168 1964.87 135.166C1973.71 162.279 1976.37 189.834 1972.73 217.781C1971.8 224.953 1970.52 232.075 1968.85 239.147C1963.5 261.545 1957.36 278.932 1950.38 291.408C1943.41 303.884 1934.17 314.297 1922.63 322.794C1909.52 332.273 1895.62 338.217 1880.98 340.673C1866.34 343.128 1847.29 342.981 1823.86 340.181C1804.01 337.627 1788.64 333.796 1777.64 328.688C1766.64 323.629 1757.45 315.868 1750.08 305.456C1743.5 296.123 1738.59 285.858 1735.3 274.757C1732.01 263.657 1729.6 248.774 1728.18 230.11C1727.49 218.616 1728.67 200.934 1731.81 177.014C1734.12 159.086 1736.53 146.316 1738.98 138.605C1747.73 112.523 1754.85 95.8727 1760.4 88.5542C1766.88 79.664 1776.75 71.9035 1790.02 65.2727C1803.18 58.5928 1816.59 54.6634 1830.09 53.5337ZM1860.25 163.458C1857.16 159.185 1854.8 156.925 1853.13 156.68C1851.46 156.483 1848.71 157.22 1844.83 158.89C1835.01 163.458 1829.36 171.317 1827.93 182.564C1827.3 187.329 1827.59 191.651 1828.82 195.433C1830.83 202.506 1835.3 207.074 1842.32 209.186C1843.26 209.53 1844.44 209.824 1845.86 210.021C1848.46 210.365 1851.95 208.891 1856.27 205.551C1862.22 200.983 1865.66 194.991 1866.64 187.574C1867.62 179.716 1865.51 171.66 1860.25 163.458Z" fill="black" stroke="black" stroke-width="9.82343" stroke-miterlimit="10"/>
<path d="M408.349 385.762C417.682 384.927 428.88 385.271 442.044 386.843C457.123 388.611 468.911 391.263 477.506 394.702C496.662 402.806 512.674 414.987 525.543 431.343C532.96 440.479 539.099 451.972 544.011 465.922C553.147 492.936 556.094 520.442 552.754 548.438C551.919 555.609 550.691 562.731 549.119 569.853C544.011 592.3 538.068 609.786 531.241 622.311C524.413 634.835 515.277 645.396 503.833 653.991C490.817 663.618 476.966 669.709 462.378 672.361C447.741 675.013 428.733 675.013 405.255 672.508C385.412 670.151 369.94 666.516 358.888 661.555C347.837 656.594 338.554 648.981 331.039 638.617C324.359 629.334 319.349 619.167 315.911 608.067C312.473 597.015 309.968 582.133 308.298 563.517C307.463 552.024 308.494 534.342 311.343 510.422C313.455 492.494 315.714 479.674 318.072 471.914C326.52 445.734 333.446 428.985 338.947 421.667C345.332 412.728 355.106 404.869 368.319 398.042C381.531 391.116 394.842 387.089 408.349 385.762ZM439.735 495.343C436.592 491.119 434.185 488.859 432.515 488.663C430.845 488.466 428.095 489.252 424.263 490.971C414.489 495.637 408.939 503.594 407.613 514.842C407.023 519.607 407.367 523.929 408.644 527.711C410.707 534.735 415.275 539.303 422.299 541.316C423.232 541.66 424.411 541.955 425.835 542.102C428.487 542.397 431.926 540.874 436.199 537.534C442.093 532.917 445.482 526.876 446.366 519.459C447.25 511.502 445.04 503.496 439.735 495.343Z" fill="black" stroke="black" stroke-width="9.82343" stroke-miterlimit="10"/>
<path d="M918.187 370.389C920.103 369.848 921.871 369.505 923.59 369.455C931.793 369.161 942.206 370.929 954.878 374.809C981.205 382.521 1001.78 397.992 1016.62 421.323C1024.82 434.29 1031.5 447.06 1036.66 459.634C1041.82 472.208 1048.1 490.529 1055.52 514.597C1064.36 544.411 1069.08 567.938 1069.71 585.276C1070.3 601.387 1067.5 616.22 1061.27 629.678C1057.68 637.537 1054.05 643.431 1050.36 647.409C1046.63 651.388 1041.13 655.121 1033.76 658.51C1027.62 661.85 1018.53 664.158 1006.55 665.288C1005.57 665.337 1004.14 665.435 1002.23 665.632C1000.31 665.828 998.985 665.926 998.248 665.976C991.028 666.221 985.331 665.632 981.205 664.06C977.03 662.537 972.462 659.443 967.501 654.826C957.285 645.543 950.163 632.085 946.135 614.403C944.17 606.544 941.96 602.271 939.504 601.632C938.768 601.436 938.031 601.337 937.343 601.337C936.115 601.387 934.003 605.905 930.958 614.943C928.551 622.016 924.671 629.629 919.317 637.782C913.963 645.936 909.052 651.633 904.582 654.973C890.977 665.091 876.585 670.494 861.457 671.035C847.753 671.526 835.13 668.088 823.637 660.671C812.144 653.254 803.253 642.547 796.966 628.597C793.823 621.475 791.956 610.129 791.367 594.461C790.778 578.351 792.742 557.083 797.31 530.609C805.022 485.028 813.421 454.575 822.458 439.3C834.492 419.113 847.704 403.101 862.047 391.362C876.438 379.623 890.338 373.287 903.796 372.255C911.95 371.617 916.763 370.929 918.187 370.389ZM941.469 510.127C942.501 505.755 942.943 501.138 942.746 496.325C942.402 487.189 940.339 478.987 936.606 471.816C932.824 464.595 928.207 461.108 922.657 461.304C920.742 461.354 919.17 461.697 917.991 462.189C915.142 463.515 912.736 468.279 910.771 476.531C908.806 484.782 907.922 492.789 908.217 500.5C908.315 502.907 908.659 505.559 909.248 508.408C910.378 512.927 912.637 516.905 916.026 520.245C919.415 523.634 922.755 525.255 926.144 525.108C930.712 524.96 934.052 523.781 936.115 521.669C938.178 519.606 939.946 515.726 941.469 510.127Z" fill="black" stroke="black" stroke-width="9.82343" stroke-miterlimit="10"/>
<path d="M1305.67 380.261C1316.28 379.524 1333.37 379.18 1356.95 379.18C1423.9 379.18 1462.31 380.26 1472.18 382.422C1479.64 384.092 1485.34 386.351 1489.32 389.102C1493.3 391.852 1496.74 396.125 1499.63 401.921C1502.78 408.208 1504.35 414.544 1504.35 421.077C1504.35 422.059 1504.3 423.582 1504.15 425.792C1504.01 427.953 1503.96 429.869 1503.96 431.588C1503.47 444.604 1501.8 453.15 1498.9 457.227C1494.82 462.777 1489.37 466.608 1482.64 468.77C1475.91 470.931 1464.32 472.159 1447.96 472.404L1419.08 473.141L1420.16 480.705C1421.83 492.984 1422.72 523.191 1422.72 571.375C1422.72 595.197 1422.37 609.687 1421.64 614.746C1418.25 637.143 1412.4 653.696 1404.1 664.403C1395.8 675.111 1384.65 680.465 1370.7 680.465H1369.62C1354.69 680.465 1343.39 676.388 1335.68 668.185C1327.97 659.983 1322.42 646.377 1319.08 627.369C1317.16 617.987 1315.84 595.197 1315.1 559.096C1314.61 526.826 1313.87 503.692 1312.94 489.743L1311.86 472.748H1292.7C1270.06 472.748 1254.88 469.359 1247.17 462.63C1240.44 456.589 1236.96 445.292 1236.71 428.69C1236.71 420.979 1237.35 415.134 1238.72 411.155C1240.05 407.177 1242.75 402.904 1246.83 398.336C1252.13 392.294 1258.76 388.021 1266.67 385.516C1274.63 382.962 1287.65 381.194 1305.67 380.261Z" fill="black" stroke="black" stroke-width="9.82343" stroke-miterlimit="10"/>
<path d="M1757.6 352.657C1759.02 352.412 1765.65 352.068 1777.44 351.577H1780.34C1800.82 351.577 1821.16 354.77 1841.39 361.155C1861.63 367.54 1877.74 375.89 1889.82 386.254C1894.63 390.33 1900.23 397.158 1906.62 406.686C1913 416.215 1917.62 424.565 1920.52 431.785C1923.42 439.251 1924.99 450.695 1925.23 466.118C1925.23 479.38 1924.2 488.958 1922.19 494.852C1920.13 500.746 1915.51 507.426 1908.29 514.891L1900.73 522.848L1904.36 528.988C1909.91 538.369 1915.51 549.175 1921.16 561.307C1926.81 573.488 1930.24 581.74 1931.47 586.062C1932.9 592.104 1933.63 598.096 1933.63 604.137C1933.63 617.841 1929.9 629.187 1922.44 638.077C1914.97 646.967 1904.85 652.174 1892.08 653.598C1890.66 653.844 1888.59 653.942 1885.94 653.942C1871.01 653.942 1853.33 644.413 1832.85 625.405C1823.46 616.957 1818.5 612.782 1818.01 612.782C1817.28 612.782 1816.93 614.206 1816.93 617.104C1816.93 620.248 1815.26 625.159 1811.87 631.938C1802.49 649.767 1783.58 658.657 1755.14 658.657H1751.9C1741.54 658.412 1733.68 657.331 1728.23 655.416C1722.82 653.5 1717.42 649.767 1712.16 644.217C1705.44 637.488 1701.21 631.103 1699.54 625.061C1696.64 615.434 1694.14 584.736 1691.98 532.967C1691.73 527.416 1691.39 518.133 1690.9 505.166V504.822C1689.91 484.586 1689.47 468.476 1689.47 456.442C1689.47 445.833 1690.21 434.781 1691.63 423.19C1693.55 408.013 1696.25 396.47 1699.74 388.513C1703.23 380.556 1707.99 374.908 1714.03 371.518C1717.86 369.112 1725.23 365.624 1736.08 361.057C1746.74 356.39 1753.96 353.64 1757.6 352.657ZM1812.85 450.204C1810.2 447.061 1807.8 445.489 1805.63 445.489C1801.75 445.489 1798.66 447.061 1796.25 450.204C1793.85 453.348 1792.62 457.081 1792.62 461.403C1792.62 468.377 1795.37 473.437 1800.92 476.58L1807.8 480.215L1812.51 475.156C1815.41 471.521 1816.83 467.346 1816.83 462.533C1816.83 457.67 1815.51 453.593 1812.85 450.204Z" fill="black" stroke="black" stroke-width="9.82343" stroke-miterlimit="10"/>
<path d="M2141.1 361.105C2150.44 360.27 2161.64 360.614 2174.8 362.137C2189.88 363.905 2201.67 366.508 2210.26 369.897C2229.47 377.952 2245.48 390.133 2258.35 406.44C2265.76 415.576 2271.95 427.07 2276.86 440.97C2286.1 467.984 2289.05 495.49 2285.8 523.486C2284.97 530.658 2283.79 537.78 2282.22 544.902C2277.16 567.348 2271.27 584.834 2264.44 597.359C2257.66 609.884 2248.52 620.493 2237.08 629.088C2224.06 638.715 2210.26 644.855 2195.67 647.507C2181.04 650.16 2162.03 650.258 2138.55 647.753C2118.71 645.444 2103.24 641.81 2092.18 636.898C2081.13 631.986 2071.85 624.324 2064.29 614.009C2057.61 604.726 2052.55 594.559 2049.11 583.508C2045.67 572.456 2043.12 557.574 2041.4 538.958C2040.56 527.465 2041.54 509.783 2044.34 485.863C2046.46 467.935 2048.67 455.066 2051.02 447.355C2059.42 421.175 2066.35 404.427 2071.8 397.059C2078.19 388.12 2087.96 380.212 2101.12 373.384C2114.29 366.508 2127.6 362.431 2141.1 361.105ZM2172.69 470.636C2169.54 466.412 2167.14 464.153 2165.47 463.957C2163.8 463.76 2161.05 464.546 2157.22 466.265C2147.44 470.931 2141.94 478.888 2140.61 490.136C2140.07 494.9 2140.42 499.223 2141.65 503.005C2143.71 510.028 2148.28 514.547 2155.35 516.61C2156.28 516.954 2157.46 517.199 2158.89 517.396C2161.54 517.691 2164.98 516.168 2169.25 512.779C2175.14 508.113 2178.48 502.121 2179.37 494.704C2180.25 486.796 2178.04 478.79 2172.69 470.636Z" fill="black" stroke="black" stroke-width="9.82343" stroke-miterlimit="10"/>
<path d="M461.25 82.5134C463.117 81.7767 464.836 81.3346 466.506 81.089C474.61 80.0576 485.17 80.8925 498.137 83.594C525.054 88.8986 546.911 102.455 563.807 124.312C573.139 136.444 580.949 148.576 587.236 160.61C593.523 172.692 601.431 190.375 611.009 213.656C622.502 242.537 629.329 265.573 631.54 282.764C633.602 298.776 632.129 313.757 627.119 327.755C624.27 335.909 621.176 342.098 617.885 346.42C614.545 350.742 609.388 354.917 602.364 358.994C596.568 362.874 587.727 365.968 575.89 368.228C574.957 368.375 573.483 368.572 571.617 368.965C569.701 369.308 568.424 369.554 567.687 369.652C560.516 370.585 554.819 370.438 550.545 369.308C546.272 368.179 541.41 365.477 536.056 361.351C525.004 353.051 516.704 340.28 511.104 323.04C508.403 315.378 505.849 311.35 503.344 310.908C502.607 310.761 501.87 310.712 501.134 310.81C499.955 310.957 498.236 315.672 496.025 324.956C494.306 332.225 491.114 340.133 486.546 348.777C481.929 357.373 477.557 363.513 473.431 367.196C460.808 378.542 446.957 385.173 431.927 387.089C418.322 388.857 405.453 386.548 393.371 380.212C381.288 373.876 371.464 364.053 363.9 350.693C360.118 343.915 357.22 332.716 355.207 317.195C353.144 301.183 353.193 279.817 355.354 253.097C358.89 206.976 364.49 175.934 372.152 159.873C382.27 138.654 394.009 121.562 407.271 108.545C420.532 95.5295 433.794 87.9654 447.154 85.7551C455.16 84.2816 459.875 83.2011 461.25 82.5134ZM497.106 219.599C497.744 215.13 497.744 210.513 497.155 205.748C495.976 196.662 493.177 188.705 488.805 181.877C484.385 175.05 479.473 171.956 473.972 172.692C472.056 172.938 470.534 173.38 469.404 174.019C466.702 175.59 464.738 180.551 463.51 188.999C462.282 197.398 462.184 205.454 463.166 213.067C463.461 215.474 464.05 218.077 464.885 220.876C466.408 225.297 469.011 229.03 472.695 232.075C476.379 235.12 479.866 236.447 483.206 236.004C487.725 235.415 490.966 233.991 492.833 231.682C494.699 229.325 496.124 225.297 497.106 219.599Z" fill="black" stroke="black" stroke-width="9.82343" stroke-miterlimit="10"/>
<path d="M1109.45 69.3003C1118.58 67.3847 1129.78 66.4023 1143.05 66.4023C1158.22 66.4023 1170.26 67.6303 1179.15 70.037C1199.14 75.8328 1216.48 86.0492 1231.16 100.735C1239.61 108.938 1247.08 119.645 1253.56 132.907C1265.84 158.693 1271.98 185.659 1271.98 213.803C1271.98 221.023 1271.63 228.243 1270.9 235.464C1268.49 258.352 1264.61 276.427 1259.35 289.64C1254.05 302.901 1246.24 314.444 1235.88 324.316C1224.09 335.368 1211.07 343.079 1196.88 347.451C1182.68 351.773 1163.77 354.081 1140.15 354.327C1120.16 354.327 1104.39 352.51 1092.85 348.924C1081.3 345.339 1071.19 338.806 1062.49 329.425C1054.78 320.977 1048.59 311.497 1043.88 300.888C1039.16 290.278 1034.89 275.838 1031.06 257.517C1028.9 246.22 1027.82 228.489 1027.82 204.422C1027.82 186.346 1028.55 173.379 1029.98 165.423C1035.28 138.457 1040.19 120.971 1044.81 113.064C1050.12 103.437 1058.91 94.4482 1071.19 86.1474C1083.47 77.7975 1096.19 72.1982 1109.45 69.3003ZM1153.51 174.411C1149.87 170.58 1147.22 168.615 1145.55 168.615C1143.88 168.615 1141.23 169.696 1137.59 171.857C1128.46 177.653 1123.89 186.199 1123.89 197.496C1123.89 202.309 1124.72 206.534 1126.39 210.119C1129.29 216.848 1134.35 220.827 1141.57 222.055C1142.55 222.3 1143.73 222.398 1145.21 222.398C1147.86 222.398 1151.1 220.483 1154.98 216.603C1160.29 211.298 1162.94 204.913 1162.94 197.447C1162.94 189.588 1159.79 181.877 1153.51 174.411Z" fill="black" stroke="black" stroke-width="9.82343" stroke-miterlimit="10"/>
<path d="M1571.99 51.8151C1576.9 50.096 1584.51 48.7207 1594.83 47.6892C1609.66 46.1666 1621.79 46.2648 1631.17 47.9839C1651.41 51.7168 1669.48 60.4106 1685.4 74.0651C1701.31 87.7197 1711.77 103.585 1716.73 121.709C1717.86 125.736 1718.6 129.273 1718.9 132.367C1719.78 141.257 1717.57 148.969 1712.17 155.55C1707.45 161.346 1701.61 164.588 1694.63 165.325C1686.48 166.16 1675.28 163.311 1661.08 156.729C1643.06 148.379 1632.84 144.352 1630.44 144.597C1629.94 144.646 1629.75 144.794 1629.75 145.039C1629.99 147.692 1643.11 155.158 1669.09 167.535C1686.38 175.688 1699.35 183.105 1708.04 189.736C1716.68 196.367 1724.05 204.471 1730.09 214C1738.44 227.212 1743.36 240.72 1744.73 254.62C1745.03 257.518 1745.12 259.531 1744.98 260.759C1744.58 266.604 1742.62 274.119 1739.08 283.304C1735.55 292.489 1731.76 299.955 1727.74 305.702C1717.57 320.044 1703.13 331.439 1684.37 339.887C1675.33 343.964 1661.48 346.911 1642.81 348.826L1633.48 349.76C1620.56 351.086 1610.1 350.791 1602.19 348.925C1586.62 345.683 1572.33 339.543 1559.31 330.604C1546.3 321.616 1535.88 310.761 1528.03 298.039C1519.33 283.943 1514.42 271.123 1513.24 259.581C1511.72 244.502 1516.58 232.763 1527.83 224.314C1532.3 220.974 1537.11 219.01 1542.12 218.519C1552.19 217.487 1568.06 222.301 1589.72 232.91C1599.88 237.92 1605.98 240.327 1607.89 240.13C1608.82 240.032 1609.27 239.492 1609.17 238.558C1608.87 235.661 1601.11 230.798 1585.89 223.872C1559.26 212.035 1539.32 199.117 1526.01 185.119C1512.75 171.121 1505.14 154.765 1503.22 136.051C1501.5 119.056 1506.61 102.799 1518.6 87.2776C1525.67 78.0927 1533.13 70.8725 1541.09 65.5679C1549.05 60.3614 1559.31 55.7444 1571.99 51.8151Z" fill="black" stroke="black" stroke-width="9.82343" stroke-miterlimit="10"/>
<path d="M237.767 373.876C243.907 373.385 249.31 373.385 254.123 373.925C271.805 375.939 283.937 382.521 290.421 393.719C297.297 405.655 303.289 428.2 308.348 461.403C313.407 494.606 316.305 529.037 317.091 564.745C317.189 572.26 316.649 581.543 315.372 592.546C312.916 614.059 309.429 629.924 304.861 640.042C296.069 659.64 280.45 669.119 258.003 668.53C257.266 668.432 256.431 668.382 255.449 668.432C254.467 668.432 253.73 668.432 253.288 668.382C242.531 667.154 233.15 661.113 225.193 650.258C219.741 642.596 215.762 633.951 213.258 624.373C210.703 614.746 209.181 607.133 208.591 601.485C208.002 595.836 207.118 592.938 205.939 592.84C204.957 592.742 202.796 595.984 199.357 602.615C196.263 608.312 191.45 614.206 184.819 620.248C178.188 626.289 172.638 630.022 168.07 631.446C163.846 632.429 159.229 632.625 154.17 632.036C147.244 631.25 141.989 629.531 138.403 626.977C130.643 620.739 123.717 610.031 117.725 594.805C114.679 587.437 112.469 583.655 110.996 583.508C110.013 583.41 108.442 586.602 106.28 593.135C100.043 611.554 93.7555 625.159 87.4685 633.902C84.0795 638.126 79.9536 641.417 75.091 643.775C71.4563 645.789 68.3128 646.869 65.6114 647.066C62.91 647.262 57.5071 646.869 49.4028 645.936C39.3829 644.561 32.3591 642.841 28.3315 640.828C24.3039 638.814 20.0307 634.492 15.4628 627.91C10.2564 620.542 7.45672 613.715 7.06378 607.477C6.67084 601.239 8.09524 584.147 11.2879 556.15C15.3155 520.982 19.4904 494.36 23.8618 476.334C28.2333 458.308 35.1097 439.005 44.4419 418.524C52.4971 401.038 59.6682 388.218 65.9061 380.065C72.144 371.911 79.2169 366.263 87.1247 363.021C93.2152 360.811 101.27 360.271 111.29 361.4C121.114 362.53 128.727 364.839 134.13 368.375C145.132 375.939 154.317 390.183 161.586 411.156C165.516 423.484 167.824 429.673 168.561 429.771C168.807 429.82 171.41 426.088 176.371 418.671C184.033 406.686 193.611 396.519 205.104 388.12C216.548 379.574 227.452 374.858 237.767 373.876Z" fill="black" stroke="black" stroke-width="9.82343" stroke-miterlimit="10"/>
<path d="M552.51 373.287C558.748 367.491 564.789 363.66 570.585 361.745C576.381 359.829 585.516 358.601 598.041 358.11H599.122C633.799 358.11 660.027 374.269 677.857 406.49C683.849 417.1 687.238 422.404 687.975 422.404C688.712 422.404 689.055 419.654 689.055 414.103C689.055 398.189 693.279 385.714 701.678 376.529C706.492 371.224 711.207 367.639 715.775 365.674C720.343 363.758 726.63 362.776 734.538 362.776C736.945 362.776 742.249 363.022 750.452 363.513C764.647 364.741 775.207 367.54 782.034 372.01C788.91 376.48 795.001 384.731 800.257 396.765C804.824 407.129 807.968 418.327 809.638 430.361C811.308 442.395 812.143 460.568 812.143 484.881C812.143 518.379 809.982 549.716 805.659 578.99C801.337 608.263 796.032 626.977 789.745 635.18C786.111 639.748 780.364 643.972 772.407 647.803C763.959 651.879 753.497 654.188 740.972 654.679H734.489C718.82 654.679 706.295 651.634 696.914 645.445C687.533 639.305 678.004 628.058 668.377 611.653C661.157 600.11 657.178 594.069 656.442 593.577C656.196 593.332 655.852 593.577 655.361 594.314C655.115 595.297 655.017 596.623 655.017 598.293C655.017 606.25 652.119 614.845 646.373 624.128C640.577 633.411 633.749 640.337 625.792 644.905C621.47 647.557 614.938 649.915 606.293 651.929C597.599 653.992 590.133 654.974 583.896 654.974C558.846 654.974 542.735 638.225 535.515 604.776C531.438 584.785 529.375 550.944 529.375 503.251C529.375 500.599 529.425 496.817 529.572 491.856C529.67 486.944 529.768 483.26 529.768 480.854C530.505 447.159 532.47 422.65 535.712 407.325C538.953 392.099 544.553 380.753 552.51 373.287Z" fill="black" stroke="black" stroke-width="9.82343" stroke-miterlimit="10"/>
<path d="M1133.17 314.051C1138.33 313.461 1146.04 313.805 1156.36 315.033C1171.19 316.801 1182.98 319.552 1191.77 323.285C1210.68 331.389 1226.4 343.816 1238.97 360.614C1251.5 377.412 1258.22 395.192 1259.11 413.955C1259.35 418.13 1259.26 421.716 1258.91 424.859C1257.83 433.7 1253.95 440.773 1247.27 446.029C1241.38 450.646 1234.94 452.561 1228.02 451.726C1219.86 450.744 1209.6 445.488 1197.17 436.009C1181.41 423.926 1172.32 417.737 1169.91 417.442C1169.42 417.393 1169.17 417.492 1169.13 417.737C1168.83 420.39 1179.98 430.557 1202.57 448.337C1217.65 460.076 1228.7 470.145 1235.68 478.495C1242.7 486.845 1248.11 496.374 1251.89 506.983C1257.14 521.669 1258.96 535.962 1257.29 549.813C1256.95 552.662 1256.55 554.725 1256.21 555.855C1254.54 561.454 1251 568.379 1245.55 576.582C1240.05 584.785 1234.75 591.219 1229.59 595.934C1216.52 607.722 1199.92 615.679 1179.78 619.805C1170.11 621.77 1155.91 621.672 1137.25 619.412L1127.92 618.282C1115 616.711 1104.88 614.157 1097.56 610.62C1083.07 604.039 1070.45 594.952 1059.74 583.311C1048.99 571.719 1041.22 558.851 1036.36 544.656C1030.96 528.988 1028.95 515.382 1030.37 503.889C1032.19 488.81 1039.51 478.446 1052.33 472.699C1057.43 470.391 1062.54 469.556 1067.55 470.145C1077.57 471.373 1092.01 479.527 1110.82 494.606C1119.66 501.727 1125.07 505.411 1126.98 505.657C1127.92 505.755 1128.46 505.362 1128.6 504.38C1128.95 501.531 1122.46 495.048 1109.1 484.929C1085.72 467.591 1069.07 450.597 1059.2 433.995C1049.33 417.393 1045.5 399.76 1047.71 381.145C1049.77 364.15 1058.32 349.415 1073.4 336.94C1082.29 329.523 1091.18 324.12 1100.07 320.682C1108.86 317.391 1119.91 315.131 1133.17 314.051Z" fill="black" stroke="black" stroke-width="9.82343" stroke-miterlimit="10"/>
<path d="M1533.87 377.903C1535.05 377.559 1543.15 376.577 1558.28 374.956L1575.18 373.188C1605.88 370.437 1631.76 371.174 1652.78 375.496C1660.2 376.872 1665.9 378.885 1669.92 381.489C1673.95 384.092 1678.13 388.414 1682.4 394.505C1686.67 400.35 1689.13 406.735 1689.87 413.709C1691.14 425.94 1687.71 437.679 1679.45 448.976C1676.51 453.15 1673.61 456.147 1670.76 457.866C1667.91 459.634 1663.49 460.813 1657.5 461.451C1649.84 462.286 1634.71 462.384 1612.16 461.893C1599.29 461.549 1591.04 461.599 1587.46 461.942C1584.8 462.237 1582.89 463.269 1581.61 465.086C1580.14 467.444 1579.65 470.734 1580.14 475.057L1580.73 480.803L1595.27 480.705C1603.22 480.607 1613.19 479.87 1625.18 478.642C1635.25 477.562 1642.27 477.562 1646.25 478.593C1650.47 479.625 1654.8 482.031 1659.22 485.961C1663.64 489.841 1666.78 494.016 1668.7 498.387C1672.53 507.179 1674.84 515.185 1675.57 522.357C1676.8 533.85 1674.05 543.33 1667.32 550.844C1662.36 556.444 1657.2 560.324 1651.85 562.485C1646.5 564.646 1636.48 567.102 1621.74 569.853C1604.16 572.947 1594.82 575.108 1593.74 576.434C1592.66 577.761 1592.86 580.511 1594.28 584.735C1595.36 588.026 1596.4 589.893 1597.43 590.384C1598.46 590.875 1601.36 590.875 1606.12 590.384C1611.13 589.843 1620.51 587.879 1634.22 584.49C1646.69 581.248 1656.17 579.283 1662.66 578.596C1675.57 577.22 1685.94 580.118 1693.75 587.289C1704.5 597.309 1710.79 611.062 1712.66 628.499C1713.39 635.67 1712.85 641.662 1710.94 646.476C1707.3 655.562 1699.79 662.832 1688.34 668.284C1676.95 673.736 1658.97 678.353 1634.41 682.184C1622.97 683.854 1614.37 685.033 1608.63 685.622C1571.25 689.551 1544.77 688.618 1529.16 682.773C1514.52 677.272 1504.11 666.859 1497.87 651.387C1491.63 635.965 1485.59 605.266 1479.79 559.391C1478.47 549.371 1476.8 534.39 1474.68 514.547C1472.87 497.307 1471.84 486.648 1471.64 482.523C1471.2 469.015 1471.69 454.329 1473.16 438.415C1474.63 422.501 1476.45 412.285 1478.61 407.668C1481.95 400.546 1486.57 395.389 1492.42 392.245C1498.16 389.102 1512.01 384.337 1533.87 377.903Z" fill="black" stroke="black" stroke-width="9.82343" stroke-miterlimit="10"/>
<path d="M1991.59 353.149C1997.24 352.56 2001.96 352.51 2005.79 352.953C2011.78 353.64 2018.22 355.556 2025.14 358.797C2036 363.66 2044.05 370.635 2049.31 379.721C2054.56 388.808 2057.85 401.431 2059.18 417.542C2059.92 425.891 2059.08 440.676 2056.67 461.993C2053.24 492.396 2048.08 525.108 2041.15 560.227C2034.28 595.296 2028.38 617.448 2023.47 626.584C2015.66 642.154 2001.81 649.571 1982.07 648.785L1977.74 648.294C1964.83 646.82 1953.72 641.074 1944.44 631.054C1936.68 622.655 1931.97 611.849 1930.3 598.538C1929.31 588.027 1934.18 535.374 1944.93 440.627C1948.91 405.459 1951.51 385.763 1952.74 381.539C1955.3 373.827 1960.01 367.442 1966.89 362.432C1973.81 357.324 1982.02 354.279 1991.59 353.149Z" fill="black" stroke="black" stroke-width="9.82343" stroke-miterlimit="10"/>
<path d="M667.935 31.4314C674.91 28.0423 680.706 26.3723 685.274 26.3723C685.765 26.3723 686.649 26.4214 687.975 26.5688C689.301 26.7161 690.431 26.7653 691.413 26.7653C705.363 27.7476 717.052 33.0522 726.434 42.6792C736.061 52.5518 742.79 67.8272 746.67 88.5546C750.501 109.282 752.466 139.833 752.466 180.305C752.466 194.5 752.564 203.39 752.81 206.878C753.055 210.365 753.792 212.133 754.971 212.133H755.315C755.56 211.888 755.806 211.79 756.051 211.79C764.008 209.383 775.453 208.155 790.384 208.155C794.461 208.155 798.931 208.4 803.744 208.892C838.666 213.951 856.349 233.106 856.84 266.31C856.84 284.139 852.567 298.039 844.02 308.01C835.474 317.981 821.672 324.906 802.664 328.787C794.952 330.211 779.922 330.948 757.525 330.948C716.807 330.948 690.677 329.376 679.134 326.232C670.244 324.317 663.416 321.223 658.701 316.998C653.986 312.774 650.597 306.831 648.387 299.12C639.742 270.927 635.371 232.075 635.371 182.467C635.371 175.492 635.616 164.539 636.107 149.607C637.532 119.007 639.251 96.4134 641.166 81.6782C643.082 66.9922 646.029 55.99 650.007 48.6224C654.035 41.2057 659.978 35.5081 667.935 31.4314Z" fill="white" stroke="black" stroke-width="9.82343" stroke-miterlimit="10" stroke-linecap="round" stroke-linejoin="round"/>
<path d="M897.558 18.0711C904.14 16.9414 914.602 16.6958 929.042 17.3835C939.603 17.8747 948.542 18.4149 955.713 19.0043C977.079 20.4779 991.077 21.6076 997.708 22.3934C1004.29 23.1793 1011.76 24.8493 1020.06 27.4034C1041.91 34.1815 1056.3 41.1562 1063.18 48.229C1065.05 49.9973 1067.95 54.2213 1072.02 60.9504C1075.12 67.1391 1076.49 73.5735 1076.2 80.3025C1075.66 91.8451 1070.7 102.847 1061.27 113.26C1053.9 120.873 1045.3 124.459 1035.48 124.017C1030.91 123.82 1025.85 123.084 1020.4 121.856C996.284 116.895 978.11 114.095 965.831 113.555C962.688 113.407 960.772 113.457 960.035 113.653C955.909 114.193 953.306 116.011 952.176 119.056C951.538 121.905 951.243 123.722 951.194 124.459C951.047 127.111 952.962 128.929 956.892 129.96C960.821 130.991 970.448 132.121 985.871 133.3C1007.97 135.314 1020.55 136.984 1023.59 138.31C1027.62 139.931 1031.4 143.025 1034.94 147.495C1038.48 152.014 1040.83 156.581 1042.06 161.198C1044.71 171.464 1045.89 179.961 1045.6 186.69C1045.06 197.987 1040.93 206.828 1033.17 213.214C1027.18 217.978 1021.28 221.121 1015.59 222.546C1009.84 223.97 1000.02 224.707 986.018 224.805C969.122 225.002 960.183 225.886 959.151 227.556C956.302 232.271 954.288 246.122 953.257 269.207L952.864 277.164L952.275 289.443C951.784 300.004 950.359 307.322 948.002 311.3C943.581 318.324 935.526 323.924 923.885 328.099C912.244 332.273 900.653 334.091 889.11 333.551C880.711 333.158 874.031 331.537 869.07 328.639C858.51 322.597 851.044 315.967 846.673 308.795C842.301 301.575 839.453 290.819 838.077 276.378C836.702 261.987 836.702 239.982 838.077 210.365C838.225 206.976 838.569 201.278 839.06 193.223C839.551 185.168 839.895 178.881 840.14 174.264C842.842 126.915 845.298 95.7253 847.557 80.7937C849.816 65.813 853.991 52.9443 860.033 42.1385C863.422 36.048 866.123 31.9222 867.99 29.8592C869.905 27.7963 872.803 25.979 876.733 24.4563C884.247 21.3129 891.222 19.2008 897.558 18.0711Z" fill="#73C2AF" stroke="black" stroke-width="9.82343" stroke-miterlimit="10" stroke-linecap="round" stroke-linejoin="round"/>
<path d="M1311.76 14.9279C1318.74 10.0162 1325.22 7.02004 1331.21 5.84123C1337.2 4.71153 1346.44 4.71153 1358.91 5.89035L1359.99 6.0377C1394.38 10.6547 1418.25 30.1051 1431.61 64.438C1436.18 75.7349 1438.83 81.4325 1439.52 81.5307C1440.25 81.629 1440.94 78.9275 1441.68 73.4264C1443.79 57.6598 1449.63 45.8226 1459.21 37.8656C1464.66 33.2486 1469.82 30.3016 1474.63 28.9754C1479.4 27.6492 1485.73 27.551 1493.64 28.5825C1496.05 28.9263 1501.26 29.8595 1509.31 31.3821C1523.21 34.4765 1533.28 38.6515 1539.52 44.0052C1545.71 49.359 1550.67 58.2983 1554.3 70.9706C1557.45 81.8254 1559.07 93.368 1559.16 105.5C1559.21 117.681 1557.64 135.805 1554.45 159.922C1550.03 193.125 1543.69 223.921 1535.54 252.311C1527.39 280.701 1519.63 298.579 1512.36 305.898C1508.18 309.925 1501.89 313.364 1493.49 316.114C1484.6 319.061 1473.9 319.945 1461.42 318.767L1454.99 317.882C1439.47 315.819 1427.48 311.104 1418.98 303.786C1410.49 296.467 1402.53 284.041 1395.16 266.506C1389.51 254.079 1386.37 247.596 1385.73 247.006C1385.54 246.761 1385.14 246.908 1384.55 247.596C1384.16 248.529 1383.87 249.806 1383.67 251.476C1382.64 259.335 1378.61 267.488 1371.64 275.936C1364.66 284.335 1356.95 290.328 1348.45 293.815C1343.79 295.878 1337.06 297.351 1328.17 298.186C1319.28 299.071 1311.76 299.071 1305.57 298.236C1280.77 294.896 1266.97 276.182 1264.27 242.046C1262.84 221.711 1265.3 187.869 1271.63 140.619C1271.98 138.015 1272.57 134.233 1273.3 129.371C1274.09 124.508 1274.63 120.874 1274.92 118.467C1280.13 85.1654 1285.34 61.1471 1290.59 46.412C1295.85 31.7751 1302.92 21.264 1311.76 14.9279Z" fill="#73C2AF" stroke="black" stroke-width="9.82343" stroke-miterlimit="10" stroke-linecap="round" stroke-linejoin="round"/>
<path d="M1850.92 18.4155C1860.25 17.6788 1871.45 18.1699 1884.62 19.889C1899.65 21.8537 1911.43 24.6043 1919.98 28.1407C1939.04 36.4415 1954.95 48.819 1967.62 65.2733C1974.94 74.4582 1980.93 86.0498 1985.7 100.048C1994.54 127.161 1997.19 154.716 1993.56 182.663C1992.62 189.834 1991.35 196.956 1989.68 204.029C1984.32 226.427 1978.18 243.814 1971.21 256.29C1964.24 268.766 1955 279.178 1943.46 287.676C1930.34 297.155 1916.44 303.098 1901.81 305.554C1887.17 308.01 1868.11 307.863 1844.68 305.063C1824.84 302.509 1809.47 298.678 1798.46 293.57C1787.46 288.462 1778.28 280.75 1770.91 270.337C1764.33 261.005 1759.42 250.74 1756.13 239.639C1752.84 228.539 1750.43 213.656 1749 194.992C1748.32 183.498 1749.5 165.816 1752.64 141.896C1754.95 123.968 1757.35 111.198 1759.81 103.486C1768.55 77.4052 1775.67 60.7545 1781.22 53.436C1787.71 44.5458 1797.58 36.7853 1810.84 30.1545C1824.05 23.4746 1837.41 19.5452 1850.92 18.4155ZM1881.08 128.291C1877.99 124.017 1875.63 121.758 1873.96 121.512C1872.29 121.316 1869.54 122.053 1865.66 123.723C1855.83 128.291 1850.19 136.149 1848.76 147.397C1848.12 152.161 1848.42 156.484 1849.64 160.266C1851.66 167.339 1856.13 171.907 1863.15 174.019C1864.09 174.362 1865.26 174.657 1866.69 174.854C1869.29 175.197 1872.78 173.724 1877.1 170.384C1883.04 165.816 1886.48 159.824 1887.47 152.407C1888.45 144.548 1886.34 136.542 1881.08 128.291Z" fill="#73C2AF" stroke="black" stroke-width="9.82343" stroke-miterlimit="10" stroke-linecap="round" stroke-linejoin="round"/>
<path d="M429.177 350.644C438.509 349.809 449.708 350.153 462.871 351.725C477.95 353.493 489.738 356.145 498.334 359.583C517.489 367.688 533.501 379.869 546.37 396.225C553.787 405.361 559.926 416.854 564.838 430.803C573.974 457.818 576.921 485.323 573.581 513.32C572.746 520.491 571.518 527.613 569.946 534.735C564.838 557.182 558.895 574.667 552.068 587.192C545.24 599.717 536.105 610.277 524.66 618.873C511.644 628.5 497.793 634.59 483.205 637.243C468.569 639.895 449.56 639.895 426.082 637.39C406.239 635.032 390.767 631.398 379.716 626.437C368.664 621.476 359.381 613.863 351.866 603.499C345.186 594.216 340.176 584.049 336.738 572.948C333.3 561.897 330.795 547.014 329.125 528.399C328.29 516.906 329.321 499.223 332.17 475.303C334.282 457.376 336.542 444.556 338.899 436.796C347.347 410.616 354.273 393.867 359.774 386.549C366.159 377.609 375.934 369.751 389.146 362.923C402.359 355.998 415.669 351.921 429.177 350.644ZM460.562 460.224C457.419 456 455.012 453.741 453.342 453.544C451.672 453.348 448.922 454.134 445.091 455.853C435.316 460.519 429.766 468.476 428.44 479.724C427.85 484.488 428.194 488.811 429.471 492.593C431.534 499.616 436.102 504.184 443.126 506.198C444.059 506.542 445.238 506.837 446.662 506.984C449.315 507.279 452.753 505.756 457.026 502.416C462.92 497.799 466.309 491.758 467.193 484.341C468.077 476.384 465.867 468.378 460.562 460.224Z" fill="#73C2AF" stroke="black" stroke-width="9.82343" stroke-miterlimit="10" stroke-linecap="round" stroke-linejoin="round"/>
<path d="M939.012 335.27C940.927 334.73 942.696 334.386 944.415 334.337C952.617 334.042 963.03 335.81 975.702 339.691C1002.03 347.402 1022.61 362.874 1037.44 386.205C1045.65 399.172 1052.32 411.942 1057.48 424.516C1062.64 437.09 1068.93 455.411 1076.34 479.478C1085.18 509.292 1089.9 532.819 1090.54 550.158C1091.13 566.268 1088.33 581.101 1082.09 594.56C1078.5 602.418 1074.87 608.312 1071.19 612.291C1067.45 616.269 1061.95 620.002 1054.58 623.391C1048.44 626.731 1039.36 629.04 1027.37 630.169C1026.39 630.219 1024.97 630.317 1023.05 630.513C1021.14 630.71 1019.81 630.808 1019.07 630.857C1011.85 631.103 1006.15 630.513 1002.03 628.942C997.854 627.419 993.286 624.325 988.325 619.708C978.109 610.424 970.987 596.966 966.959 579.284C964.995 571.425 962.784 567.152 960.329 566.514C959.592 566.317 958.855 566.219 958.167 566.219C956.94 566.268 954.827 570.787 951.782 579.824C949.375 586.897 945.495 594.51 940.141 602.664C934.788 610.817 929.876 616.515 925.406 619.855C911.801 629.973 897.41 635.376 882.281 635.916C868.578 636.407 855.955 632.969 844.461 625.552C832.968 618.136 824.078 607.428 817.791 593.479C814.647 586.357 812.781 575.011 812.191 559.343C811.602 543.232 813.567 521.964 818.134 495.49C825.846 449.91 834.245 419.457 843.282 404.182C855.316 383.994 868.529 367.982 882.871 356.243C897.262 344.504 911.162 338.168 924.62 337.137C932.774 336.449 937.587 335.81 939.012 335.27ZM962.293 475.008C963.325 470.637 963.767 466.02 963.57 461.207C963.227 452.071 961.164 443.868 957.431 436.697C953.649 429.477 949.032 425.99 943.481 426.186C941.566 426.235 939.994 426.579 938.815 427.07C935.966 428.396 933.56 433.161 931.595 441.412C929.63 449.664 928.746 457.67 929.041 465.382C929.139 467.788 929.483 470.441 930.072 473.289C931.202 477.808 933.462 481.787 936.851 485.127C940.24 488.516 943.58 490.137 946.969 489.989C951.537 489.842 954.877 488.663 956.94 486.551C959.002 484.488 960.771 480.608 962.293 475.008Z" fill="#73C2AF" stroke="black" stroke-width="9.82343" stroke-miterlimit="10" stroke-linecap="round" stroke-linejoin="round"/>
<path d="M1326.5 345.142C1337.11 344.405 1354.2 344.062 1377.78 344.062C1444.72 344.062 1483.13 345.142 1493 347.303C1500.47 348.973 1506.17 351.233 1510.15 353.983C1514.13 356.734 1517.56 361.007 1520.46 366.803C1523.6 373.09 1525.18 379.426 1525.18 385.959C1525.18 386.941 1525.13 388.464 1524.98 390.674C1524.83 392.835 1524.78 394.751 1524.78 396.47C1524.29 409.486 1522.62 418.032 1519.72 422.109C1515.65 427.659 1510.2 431.49 1503.47 433.651C1496.74 435.812 1485.15 437.04 1468.79 437.286L1439.91 438.023L1440.99 445.587C1442.66 457.866 1443.54 488.073 1443.54 536.257C1443.54 560.079 1443.2 574.568 1442.46 579.627C1439.07 602.025 1433.23 618.577 1424.93 629.285C1416.63 639.992 1405.48 645.346 1391.53 645.346H1390.45C1375.52 645.346 1364.22 641.269 1356.51 633.067C1348.8 624.864 1343.25 611.259 1339.91 592.251C1337.99 582.869 1336.66 560.079 1335.93 523.978C1335.44 491.708 1334.7 468.574 1333.77 454.624L1332.69 437.63H1313.53C1290.89 437.63 1275.71 434.241 1268 427.512C1261.27 421.47 1257.78 410.173 1257.54 393.572C1257.54 385.86 1258.18 380.015 1259.55 376.037C1260.88 372.058 1263.58 367.785 1267.66 363.217C1272.96 357.176 1279.59 352.903 1287.5 350.398C1295.41 347.893 1308.47 346.075 1326.5 345.142Z" fill="#73C2AF" stroke="black" stroke-width="9.82343" stroke-miterlimit="10" stroke-linecap="round" stroke-linejoin="round"/>
<path d="M1778.43 317.539C1779.85 317.293 1786.48 316.95 1798.27 316.458H1801.17C1821.65 316.458 1841.98 319.651 1862.22 326.036C1882.46 332.422 1898.57 340.771 1910.65 351.135C1915.46 355.212 1921.06 362.039 1927.45 371.568C1933.83 381.097 1938.45 389.447 1941.35 396.667C1944.24 404.133 1945.82 415.577 1946.06 431C1946.06 444.261 1945.03 453.839 1943.02 459.733C1940.95 465.627 1936.34 472.307 1929.12 479.773L1921.55 487.73L1925.19 493.87C1930.74 503.251 1936.34 514.057 1941.99 526.189C1947.63 538.37 1951.07 546.621 1952.3 550.944C1953.72 556.985 1954.46 562.977 1954.46 569.019C1954.46 582.723 1950.73 594.069 1943.26 602.959C1935.8 611.849 1925.68 617.055 1912.91 618.48C1911.48 618.725 1909.42 618.824 1906.77 618.824C1891.84 618.824 1874.15 609.295 1853.67 590.287C1844.29 581.838 1839.33 577.663 1838.84 577.663C1838.1 577.663 1837.76 579.088 1837.76 581.986C1837.76 585.129 1836.09 590.041 1832.7 596.819C1823.32 614.649 1804.41 623.539 1775.97 623.539H1772.73C1762.36 623.293 1754.51 622.213 1749.05 620.297C1743.65 618.382 1738.25 614.649 1732.99 609.098C1726.26 602.369 1722.04 595.984 1720.37 589.943C1717.47 580.316 1714.97 549.618 1712.8 497.848C1712.56 492.298 1712.22 483.015 1711.72 470.048V469.704C1710.74 449.468 1710.3 433.357 1710.3 421.324C1710.3 410.714 1711.04 399.663 1712.46 388.071C1714.38 372.894 1717.08 361.352 1720.57 353.395C1724.05 345.438 1728.82 339.789 1734.86 336.4C1738.69 333.993 1746.06 330.506 1756.91 325.938C1767.57 321.272 1774.79 318.521 1778.43 317.539ZM1833.68 415.086C1831.03 411.942 1828.62 410.37 1826.46 410.37C1822.58 410.37 1819.49 411.942 1817.08 415.086C1814.67 418.229 1813.45 421.962 1813.45 426.284C1813.45 433.259 1816.2 438.318 1821.75 441.462L1828.62 445.096L1833.34 440.037C1836.24 436.403 1837.66 432.228 1837.66 427.414C1837.66 422.551 1836.33 418.475 1833.68 415.086Z" fill="#73C2AF" stroke="black" stroke-width="9.82343" stroke-miterlimit="10" stroke-linecap="round" stroke-linejoin="round"/>
<path d="M2161.93 325.987C2171.26 325.152 2182.46 325.496 2195.63 327.018C2210.71 328.787 2222.49 331.39 2231.09 334.779C2250.29 342.834 2266.31 355.015 2279.17 371.322C2286.59 380.458 2292.78 391.951 2297.69 405.851C2306.93 432.866 2309.87 460.371 2306.63 488.368C2305.8 495.539 2304.62 502.661 2303.05 509.783C2297.99 532.23 2292.09 549.716 2285.27 562.24C2278.49 574.765 2269.35 585.375 2257.91 593.97C2244.89 603.597 2231.09 609.737 2216.5 612.389C2201.86 615.041 2182.86 615.14 2159.38 612.635C2139.53 610.326 2124.06 606.691 2113.01 601.78C2101.96 596.868 2092.68 589.206 2085.11 578.891C2078.43 569.608 2073.37 559.441 2069.94 548.389C2066.5 537.338 2063.94 522.456 2062.22 503.84C2061.39 492.347 2062.37 474.665 2065.17 450.744C2067.28 432.817 2069.49 419.948 2071.85 412.237C2080.25 386.057 2087.18 369.308 2092.63 361.941C2099.01 353.001 2108.79 345.093 2121.95 338.266C2135.11 331.39 2148.42 327.313 2161.93 325.987ZM2193.51 435.518C2190.37 431.294 2187.96 429.035 2186.29 428.838C2184.62 428.642 2181.87 429.428 2178.04 431.147C2168.27 435.813 2162.77 443.77 2161.44 455.018C2160.9 459.782 2161.24 464.104 2162.47 467.886C2164.54 474.91 2169.1 479.429 2176.18 481.492C2177.11 481.836 2178.29 482.081 2179.71 482.278C2182.36 482.572 2185.8 481.05 2190.08 477.661C2195.97 472.995 2199.31 467.002 2200.19 459.586C2201.08 451.678 2198.87 443.623 2193.51 435.518Z" fill="#73C2AF" stroke="black" stroke-width="9.82343" stroke-miterlimit="10" stroke-linecap="round" stroke-linejoin="round"/>
<path d="M482.076 47.394C483.942 46.6573 485.661 46.2152 487.331 45.9696C495.435 44.9382 505.996 45.7732 518.963 48.4746C545.879 53.7793 567.736 67.3356 584.632 89.1927C593.964 101.325 601.774 113.457 608.061 125.49C614.348 137.573 622.256 155.255 631.834 178.537C643.327 207.418 650.155 230.454 652.365 247.645C654.428 263.657 652.954 278.638 647.944 292.636C645.095 300.789 642.001 306.978 638.71 311.3C635.37 315.623 630.213 319.798 623.189 323.874C617.393 327.755 608.552 330.849 596.715 333.108C595.782 333.256 594.308 333.452 592.442 333.845C590.526 334.189 589.249 334.435 588.512 334.533C581.341 335.466 575.644 335.319 571.371 334.189C567.097 333.059 562.235 330.358 556.881 326.232C545.83 317.931 537.529 305.161 531.93 287.921C529.228 280.258 526.674 276.231 524.169 275.789C523.432 275.641 522.696 275.592 521.959 275.691C520.78 275.838 519.061 280.553 516.851 289.836C515.131 297.106 511.939 305.013 507.371 313.658C502.754 322.254 498.383 328.393 494.257 332.077C481.634 343.423 467.783 350.054 452.753 351.969C439.147 353.738 426.279 351.429 414.196 345.093C402.113 338.757 392.289 328.934 384.725 315.574C380.943 308.795 378.046 297.597 376.032 282.076C373.969 266.064 374.018 244.698 376.179 217.978C379.715 171.857 385.315 140.815 392.977 124.754C403.095 103.535 414.834 86.4422 428.096 73.4261C441.358 60.4101 454.619 52.846 467.979 50.6358C475.985 49.1622 480.7 48.0817 482.076 47.394ZM517.931 184.48C518.57 180.01 518.57 175.393 517.98 170.629C516.801 161.542 514.002 153.585 509.63 146.758C505.21 139.931 500.298 136.836 494.797 137.573C492.881 137.819 491.359 138.261 490.229 138.899C487.528 140.471 485.563 145.432 484.335 153.88C483.107 162.279 483.009 170.334 483.991 177.947C484.286 180.354 484.875 182.957 485.71 185.757C487.233 190.178 489.836 193.91 493.52 196.956C497.204 200.001 500.691 201.327 504.031 200.885C508.55 200.296 511.791 198.871 513.658 196.563C515.524 194.205 516.949 190.178 517.931 184.48Z" fill="#73C2AF" stroke="black" stroke-width="9.82343" stroke-miterlimit="10" stroke-linecap="round" stroke-linejoin="round"/>
<path d="M1130.27 34.1821C1139.41 32.2665 1150.61 31.2842 1163.87 31.2842C1179.05 31.2842 1191.08 32.5121 1199.97 34.9188C1219.96 40.7147 1237.3 50.931 1251.99 65.6171C1260.43 73.8196 1267.9 84.5272 1274.38 97.7888C1286.66 123.575 1292.8 150.541 1292.8 178.685C1292.8 185.905 1292.46 193.125 1291.72 200.345C1289.31 223.234 1285.43 241.309 1280.18 254.522C1274.87 267.783 1267.06 279.326 1256.7 289.198C1244.91 300.25 1231.9 307.961 1217.7 312.332C1203.51 316.655 1184.6 318.963 1160.97 319.209C1140.98 319.209 1125.21 317.392 1113.67 313.806C1102.13 310.22 1092.01 303.688 1083.32 294.306C1075.61 285.858 1069.42 276.379 1064.7 265.769C1059.99 255.16 1055.71 240.72 1051.88 222.399C1049.72 211.102 1048.64 193.371 1048.64 169.303C1048.64 151.228 1049.38 138.261 1050.8 130.304C1056.11 103.339 1061.02 85.8533 1065.64 77.9455C1070.94 68.3185 1079.73 59.3301 1092.01 51.0293C1104.29 42.6302 1117.06 37.0309 1130.27 34.1821ZM1174.33 139.293C1170.7 135.462 1168.04 133.497 1166.37 133.497C1164.7 133.497 1162.05 134.578 1158.42 136.739C1149.28 142.535 1144.71 151.081 1144.71 162.378C1144.71 167.191 1145.55 171.415 1147.22 175.001C1150.12 181.73 1155.18 185.708 1162.4 186.936C1163.38 187.182 1164.56 187.28 1166.03 187.28C1168.68 187.28 1171.92 185.365 1175.8 181.484C1181.11 176.18 1183.76 169.795 1183.76 162.329C1183.76 154.47 1180.62 146.759 1174.33 139.293Z" fill="white" stroke="black" stroke-width="9.82343" stroke-miterlimit="10" stroke-linecap="round" stroke-linejoin="round"/>
<path d="M1592.81 16.6465C1597.72 14.9274 1605.34 13.5521 1615.65 12.5206C1630.48 10.998 1642.61 11.0962 1652 12.8153C1672.23 16.5482 1690.31 25.242 1706.22 38.8965C1722.14 52.5511 1732.6 68.4159 1737.56 86.5402C1738.69 90.5678 1739.42 94.1042 1739.72 97.1986C1740.6 106.089 1738.39 113.8 1732.99 120.382C1728.28 126.178 1722.43 129.419 1715.46 130.156C1707.3 130.991 1696.1 128.142 1681.91 121.561C1663.88 113.211 1653.67 109.183 1651.26 109.429C1650.77 109.478 1650.57 109.625 1650.57 109.871C1650.82 112.523 1663.93 119.989 1689.91 132.366C1707.2 140.52 1720.17 147.937 1728.86 154.567C1737.51 161.198 1744.88 169.303 1750.92 178.831C1759.27 192.044 1764.18 205.551 1765.56 219.451C1765.85 222.349 1765.95 224.363 1765.8 225.591C1765.41 231.436 1763.44 238.951 1759.91 248.136C1756.37 257.32 1752.59 264.786 1748.56 270.533C1738.39 284.875 1723.95 296.27 1705.19 304.719C1696.15 308.795 1682.3 311.742 1663.64 313.658L1654.3 314.591C1641.39 315.917 1630.93 315.622 1623.02 313.756C1607.45 310.514 1593.15 304.375 1580.14 295.435C1567.12 286.447 1556.71 275.592 1548.85 262.871C1540.16 248.774 1535.24 235.954 1534.07 224.412C1532.54 209.333 1537.41 197.594 1548.65 189.146C1553.12 185.806 1557.94 183.841 1562.95 183.35C1573.02 182.319 1588.88 187.132 1610.54 197.741C1620.71 202.751 1626.8 205.158 1628.71 204.962C1629.65 204.863 1630.09 204.323 1629.99 203.39C1629.7 200.492 1621.94 195.629 1606.71 188.704C1580.09 176.867 1560.15 163.949 1546.84 149.95C1533.57 135.952 1525.96 119.596 1524.05 100.882C1522.33 83.8878 1527.44 67.6301 1539.42 52.1091C1546.49 42.9241 1553.96 35.7039 1561.92 30.3993C1569.87 25.242 1580.14 20.625 1592.81 16.6465Z" fill="white" stroke="black" stroke-width="9.82343" stroke-miterlimit="10" stroke-linecap="round" stroke-linejoin="round"/>
<path d="M258.594 338.758C264.734 338.266 270.137 338.266 274.95 338.807C292.632 340.821 304.764 347.402 311.248 358.601C318.124 370.536 324.116 393.081 329.175 426.284C334.235 459.488 337.132 493.919 337.918 529.627C338.017 537.142 337.476 546.425 336.199 557.427C333.743 578.94 330.256 594.805 325.688 604.923C316.896 624.521 301.277 634.001 278.83 633.411C278.094 633.313 277.259 633.264 276.276 633.313C275.294 633.313 274.557 633.313 274.115 633.264C263.359 632.036 253.977 625.995 246.02 615.14C240.568 607.477 236.59 598.833 234.085 589.255C231.531 579.628 230.008 572.015 229.419 566.366C228.829 560.718 227.945 557.82 226.766 557.722C225.784 557.624 223.623 560.865 220.185 567.496C217.09 573.194 212.277 579.088 205.646 585.129C199.015 591.171 193.465 594.903 188.897 596.328C184.673 597.31 180.056 597.507 174.997 596.917C168.071 596.131 162.816 594.412 159.23 591.858C151.47 585.62 144.544 574.913 138.552 559.687C135.507 552.319 133.296 548.537 131.823 548.39C130.84 548.291 129.269 551.484 127.108 558.017C120.87 576.435 114.583 590.041 108.296 598.784C104.907 603.008 100.781 606.299 95.9182 608.656C92.2835 610.67 89.14 611.751 86.4386 611.947C83.7371 612.144 78.3342 611.751 70.2299 610.817C60.21 609.442 53.1863 607.723 49.1587 605.709C45.1311 603.695 40.8579 599.373 36.29 592.791C31.0835 585.424 28.2839 578.597 27.8909 572.359C27.498 566.121 28.9224 549.028 32.115 521.031C36.1426 485.863 40.3176 459.242 44.689 441.216C49.0604 423.19 55.9368 403.887 65.2691 383.405C73.3243 365.919 80.4954 353.1 86.7333 344.946C92.9711 336.793 100.044 331.144 107.952 327.903C114.042 325.692 122.098 325.152 132.117 326.282C141.941 327.412 149.554 329.72 154.957 333.257C165.959 340.821 175.144 355.065 182.413 376.038C186.343 388.366 188.651 394.555 189.388 394.653C189.634 394.702 192.237 390.969 197.198 383.552C204.86 371.568 214.438 361.401 225.931 353.002C237.376 344.455 248.28 339.74 258.594 338.758Z" fill="white" stroke="black" stroke-width="9.82343" stroke-miterlimit="10" stroke-linecap="round" stroke-linejoin="round"/>
<path d="M573.334 338.118C579.572 332.322 585.614 328.491 591.409 326.576C597.205 324.66 606.341 323.432 618.866 322.941H619.947C654.623 322.941 680.852 339.101 698.681 371.321C704.674 381.931 708.063 387.235 708.799 387.235C709.536 387.235 709.88 384.485 709.88 378.935C709.88 363.021 714.104 350.545 722.503 341.36C727.317 336.055 732.032 332.47 736.6 330.505C741.168 328.589 747.455 327.607 755.363 327.607C757.769 327.607 763.074 327.853 771.276 328.344C785.471 329.572 796.031 332.372 802.859 336.841C809.735 341.311 815.826 349.563 821.081 361.596C825.649 371.96 828.793 383.159 830.463 395.192C832.133 407.226 832.968 425.399 832.968 449.712C832.968 483.21 830.806 514.547 826.484 543.821C822.162 573.095 816.857 591.808 810.57 600.011C806.935 604.579 801.189 608.803 793.232 612.634C784.784 616.711 774.322 619.019 761.797 619.51H755.313C739.645 619.51 727.12 616.465 717.739 610.276C708.357 604.137 698.829 592.889 689.202 576.484C681.982 564.941 678.003 558.9 677.266 558.409C677.021 558.163 676.677 558.409 676.186 559.145C675.94 560.128 675.842 561.454 675.842 563.124C675.842 571.081 672.944 579.676 667.197 588.959C661.401 598.243 654.574 605.168 646.617 609.736C642.295 612.388 635.762 614.746 627.118 616.76C618.424 618.823 610.958 619.805 604.72 619.805C579.67 619.805 563.56 603.056 556.34 569.607C552.263 549.617 550.2 515.775 550.2 468.082C550.2 465.43 550.249 461.648 550.397 456.687C550.495 451.775 550.593 448.091 550.593 445.685C551.33 411.99 553.295 387.481 556.536 372.156C559.778 356.979 565.377 345.584 573.334 338.118Z" fill="white" stroke="black" stroke-width="9.82343" stroke-miterlimit="10" stroke-linecap="round" stroke-linejoin="round"/>
<path d="M1154 278.933C1159.16 278.343 1166.87 278.687 1177.18 279.915C1192.02 281.683 1203.8 284.434 1212.6 288.167C1231.51 296.271 1247.22 308.698 1259.8 325.496C1272.32 342.294 1279.05 360.074 1279.94 378.837C1280.18 383.012 1280.08 386.597 1279.74 389.741C1278.66 398.582 1274.78 405.655 1268.1 410.91C1262.2 415.527 1255.77 417.443 1248.84 416.608C1240.69 415.626 1230.43 410.37 1218 400.89C1202.23 388.808 1193.15 382.619 1190.74 382.324C1190.25 382.275 1190 382.373 1189.95 382.619C1189.66 385.271 1200.81 395.438 1223.4 413.219C1238.48 424.958 1249.53 435.027 1256.51 443.377C1263.53 451.727 1268.93 461.255 1272.72 471.865C1277.97 486.551 1279.79 500.844 1278.12 514.695C1277.77 517.544 1277.38 519.607 1277.04 520.736C1275.37 526.336 1271.83 533.261 1266.38 541.464C1260.88 549.666 1255.57 556.101 1250.42 560.816C1237.35 572.604 1220.75 580.561 1200.61 584.687C1190.94 586.651 1176.74 586.553 1158.08 584.294L1148.74 583.164C1135.83 581.592 1125.71 579.038 1118.39 575.502C1103.9 568.92 1091.28 559.834 1080.57 548.193C1069.81 536.601 1062.05 523.732 1057.19 509.538C1051.79 493.869 1049.77 480.264 1051.2 468.77C1053.01 453.691 1060.33 443.328 1073.15 437.581C1078.26 435.272 1083.37 434.438 1088.38 435.027C1098.4 436.255 1112.84 444.408 1131.65 459.487C1140.49 466.609 1145.89 470.293 1147.81 470.539C1148.74 470.637 1149.28 470.244 1149.43 469.262C1149.78 466.413 1143.29 459.929 1129.93 449.811C1106.55 432.473 1089.9 415.478 1080.03 398.877C1070.16 382.275 1066.32 364.642 1068.54 346.027C1070.6 329.032 1079.14 314.297 1094.22 301.821C1103.11 294.405 1112 289.002 1120.89 285.563C1129.69 282.273 1140.74 280.013 1154 278.933Z" fill="white" stroke="black" stroke-width="9.82343" stroke-miterlimit="10" stroke-linecap="round" stroke-linejoin="round"/>
<path d="M1554.7 342.785C1555.88 342.441 1563.98 341.459 1579.11 339.838L1596 338.07C1626.7 335.319 1652.59 336.056 1673.61 340.378C1681.03 341.753 1686.72 343.767 1690.75 346.37C1694.78 348.974 1698.95 353.296 1703.23 359.386C1707.5 365.231 1709.96 371.617 1710.69 378.591C1711.97 390.821 1708.53 402.56 1700.28 413.857C1697.33 418.032 1694.44 421.028 1691.59 422.748C1688.74 424.516 1684.32 425.695 1678.33 426.333C1670.66 427.168 1655.53 427.266 1632.99 426.775C1620.12 426.431 1611.87 426.48 1608.28 426.824C1605.63 427.119 1603.72 428.15 1602.44 429.968C1600.97 432.325 1600.47 435.616 1600.97 439.939L1601.56 445.685L1616.09 445.587C1624.05 445.489 1634.02 444.752 1646.01 443.524C1656.08 442.444 1663.1 442.444 1667.08 443.475C1671.3 444.506 1675.62 446.913 1680.04 450.843C1684.46 454.723 1687.61 458.898 1689.52 463.269C1693.36 472.061 1695.66 480.067 1696.4 487.238C1697.63 498.732 1694.88 508.211 1688.15 515.726C1683.19 521.326 1678.03 525.206 1672.68 527.367C1667.32 529.528 1657.3 531.984 1642.57 534.735C1624.98 537.829 1615.65 539.99 1614.57 541.316C1613.49 542.643 1613.69 545.393 1615.11 549.617C1616.19 552.908 1617.22 554.774 1618.25 555.266C1619.29 555.757 1622.18 555.757 1626.95 555.266C1631.96 554.725 1641.34 552.761 1655.04 549.372C1667.52 546.13 1677 544.165 1683.48 543.477C1696.4 542.102 1706.76 545 1714.57 552.171C1725.33 562.191 1731.62 575.944 1733.48 593.381C1734.22 600.552 1733.68 606.544 1731.76 611.357C1728.13 620.444 1720.62 627.713 1709.17 633.165C1697.78 638.617 1679.8 643.234 1655.24 647.066C1643.8 648.736 1635.2 649.914 1629.45 650.504C1592.08 654.433 1565.6 653.5 1549.98 647.655C1535.35 642.154 1524.93 631.741 1518.69 616.269C1512.46 600.846 1506.42 570.148 1500.62 524.273C1499.29 514.253 1497.62 499.272 1495.51 479.429C1493.69 462.189 1492.66 451.53 1492.47 447.404C1492.02 433.897 1492.52 419.211 1493.99 403.297C1495.46 387.383 1497.28 377.167 1499.44 372.55C1502.78 365.428 1507.4 360.271 1513.24 357.127C1518.99 353.984 1532.84 349.219 1554.7 342.785Z" fill="white" stroke="black" stroke-width="9.82343" stroke-miterlimit="10" stroke-linecap="round" stroke-linejoin="round"/>
<path d="M2012.42 318.03C2018.07 317.44 2022.78 317.391 2026.61 317.833C2032.6 318.521 2039.04 320.436 2045.96 323.678C2056.82 328.541 2064.87 335.515 2070.13 344.602C2075.39 353.689 2078.68 366.312 2080 382.422C2080.74 390.772 2079.9 405.556 2077.5 426.873C2074.06 457.277 2068.9 489.989 2061.98 525.107C2055.1 560.177 2049.21 582.329 2044.29 591.465C2036.48 607.035 2022.63 614.452 2002.89 613.666L1998.57 613.174C1985.65 611.701 1974.55 605.954 1965.26 595.934C1957.5 587.535 1952.79 576.73 1951.12 563.419C1950.14 552.908 1955 500.254 1965.76 405.507C1969.73 370.339 1972.34 350.643 1973.57 346.419C1976.12 338.708 1980.83 332.323 1987.71 327.313C1994.64 322.205 2002.84 319.159 2012.42 318.03Z" fill="white" stroke="black" stroke-width="9.82343" stroke-miterlimit="10" stroke-linecap="round" stroke-linejoin="round"/>
</svg>
