<svg width="534" height="129" viewBox="0 0 534 129" fill="none" xmlns="http://www.w3.org/2000/svg">
<path d="M72.9214 112.21C75.3114 111.52 77.1715 110.65 78.4915 109.61C79.7315 108.62 81.0415 107.09 82.4115 105.05C82.9315 104.77 83.4114 104.47 83.8214 104.15C85.1314 103.11 86.5215 101.48 87.9715 99.2597C90.5015 95.4497 92.0615 91.0697 92.6315 86.1297C93.2515 80.8197 92.9615 73.4197 91.6315 63.9397C90.5515 56.2597 89.4515 50.3897 88.4715 46.3197C87.4915 42.2497 86.0514 38.0496 84.1714 33.7196C80.7414 25.9296 75.2114 20.2396 67.5614 16.6596C63.8814 14.8896 60.7915 13.8597 58.2915 13.5597C57.7715 13.4997 57.2115 13.4896 56.6115 13.5896C56.1515 13.6696 54.6615 13.6896 52.1415 13.5196C47.9915 13.2296 43.4615 14.4697 38.5315 17.3697C34.0915 19.9797 29.7815 23.6897 25.6115 28.4797C23.3315 30.5397 21.0915 32.8897 18.8915 35.5597C15.4115 39.7897 11.4314 48.6597 6.94143 62.1797C4.31143 70.0197 2.71149 76.3996 2.13149 81.3396C1.57149 86.1296 1.61147 89.6797 2.23147 91.9997C3.49147 96.5497 5.70147 100.23 8.85147 103.02C12.0015 105.81 15.6715 107.45 19.8715 107.94C24.5115 108.48 29.1415 107.52 33.7615 105.07C35.2715 104.27 37.0414 102.76 39.0514 100.53C39.6614 99.8596 40.2115 99.1997 40.7315 98.5396C41.8415 97.6897 43.0615 96.5397 44.3915 95.0697C45.6115 93.7197 46.6415 92.3997 47.5115 91.1197C47.8915 91.8097 48.1514 92.9796 48.3114 94.6596C48.7114 100.23 50.2414 104.67 52.9214 107.97C54.2214 109.62 55.4715 110.77 56.6615 111.43C57.8515 112.09 59.5615 112.55 61.7715 112.81C61.9915 112.84 62.4015 112.86 62.9915 112.9C63.5815 112.93 64.0314 112.97 64.3214 113C68.0214 113.21 70.8914 112.95 72.9214 112.21ZM51.7415 61.0996C50.7115 60.9796 49.7615 60.3297 48.8915 59.1397C48.0215 57.9597 47.4915 56.6496 47.3915 55.2096C47.3315 54.3096 47.3714 53.4897 47.4514 52.7497C47.6714 50.8697 48.1314 48.9596 48.8014 47.0396C50.2714 47.3997 51.3715 48.6497 52.1115 50.7997C52.9215 53.1697 53.1614 55.7597 52.8314 58.5597C52.7314 59.4497 52.5514 60.2997 52.3214 61.1297C52.1314 61.1197 51.9515 61.1196 51.7415 61.0996Z" fill="black" stroke="black" stroke-width="2" stroke-miterlimit="10" stroke-linecap="round" stroke-linejoin="round"/>
<path d="M185.541 78.7396C186.931 84.3297 188.401 88.7397 189.961 91.9497C191.521 95.1597 193.531 98.0196 196.001 100.53C198.771 103.33 201.961 105.22 205.561 106.2C209.161 107.19 214.031 107.57 220.191 107.35C227.451 107.02 233.251 106.1 237.571 104.61C241.901 103.12 245.821 100.6 249.331 97.0597C250.221 96.1497 251.031 95.1897 251.791 94.1997C252.781 93.4097 253.741 92.5396 254.661 91.5996C257.751 88.4596 260.021 84.7996 261.511 80.6596C262.991 76.5196 264.001 70.9196 264.471 63.8496C264.621 61.6196 264.651 59.3896 264.571 57.1696C264.261 48.4996 262.071 40.2596 258.011 32.4596C255.861 28.4496 253.441 25.2397 250.761 22.8097C246.081 18.4497 240.621 15.4896 234.411 13.9296C231.641 13.2896 227.921 13.0496 223.251 13.2096C219.171 13.3596 215.731 13.7696 212.941 14.4696C208.891 15.4896 205.031 17.3697 201.331 20.0597C198.591 22.0597 196.461 24.1696 194.911 26.3496C191.801 28.7996 189.551 31.3796 188.181 34.0896C186.861 36.5896 185.531 42.0197 184.201 50.3797C183.841 52.8397 183.761 56.8496 183.961 62.4096C184.221 69.8496 184.751 75.2796 185.541 78.7396ZM219.821 50.1297C220.341 50.1097 221.181 50.6797 222.331 51.8197C224.341 54.0497 225.391 56.3897 225.481 58.8297C225.511 59.6697 225.431 60.4796 225.231 61.2396C224.961 61.2296 224.721 61.2196 224.521 61.1696C222.281 60.8796 220.681 59.7096 219.721 57.6696C219.161 56.5796 218.861 55.2896 218.801 53.7996C218.751 52.4996 218.911 51.3197 219.261 50.2497C219.471 50.1797 219.661 50.1297 219.821 50.1297Z" fill="black" stroke="black" stroke-width="2" stroke-miterlimit="10" stroke-linecap="round" stroke-linejoin="round"/>
<path d="M313.291 123.74L316.811 122.75L320.361 124.77C322.651 126.11 325.131 126.87 327.791 127.05L328.231 127.08C335.621 127.57 340.412 125.33 342.602 120.37C345.072 119.26 346.871 117.43 347.951 114.88C349.511 111.21 350.502 104.98 351.092 96.2396C351.732 86.6196 351.411 80.1596 350.151 76.8796C349.591 75.2796 348.732 74.1096 347.592 73.3596C345.752 72.2796 342.971 71.4896 339.301 70.9696C342.091 69.8096 344.121 67.8796 345.391 65.1696C349.041 63.3696 351.261 60.0996 352.031 55.3596C352.041 55.2096 352.071 54.9896 352.131 54.6996C352.191 54.4096 352.221 54.1896 352.231 54.0396C352.441 50.8596 351.681 47.4196 349.961 43.7396C348.231 40.0596 345.961 37.0396 343.141 34.6996C340.251 32.2796 336.671 30.2596 332.391 28.6296C328.111 27.0096 323.901 26.0596 319.751 25.7796C317.381 25.6196 315.181 25.6996 313.151 26.0096C303.161 27.5796 295.051 31.0196 288.821 36.3296C286.481 38.2796 284.371 40.3996 282.491 42.6596C272.961 51.0396 267.391 62.1296 265.831 75.9696C265.681 77.0796 265.551 78.4796 265.441 80.1796C265.281 82.5496 265.451 85.6096 265.951 89.3596C267.061 97.1696 268.621 102.88 270.611 106.51C271.541 108.13 273.221 110.27 275.651 112.92C278.081 115.57 280.031 117.47 281.521 118.61C284.001 120.48 286.501 121.78 289.011 122.51C291.531 123.23 295.381 123.77 300.561 124.11C306.771 124.53 311.021 124.41 313.291 123.74ZM309.721 67.6296C312.631 65.8196 315.231 64.9796 317.531 65.1396C318.421 65.1996 319.692 66.2496 321.342 68.2896C322.322 69.4096 323.371 70.2896 324.491 70.9496C324.201 71.0296 323.921 71.1196 323.661 71.2196C321.961 71.8796 320.711 72.7896 319.861 73.8096C319.271 74.5196 318.781 75.4796 318.391 76.6596C318.371 76.6696 318.351 76.6696 318.331 76.6796C316.651 77.3896 315.381 78.2496 314.531 79.2696C313.681 80.2896 313.041 81.7896 312.611 83.7696C312.381 84.9396 312.261 85.7496 312.231 86.1996C312.231 86.2396 312.231 86.2896 312.231 86.3296C310.881 85.0396 309.811 83.5096 309.021 81.7396C308.131 79.7396 307.771 77.0796 307.991 73.7496C308.141 71.4596 308.521 69.6596 309.131 68.3596C309.211 68.1896 309.301 68.0296 309.391 67.8596C309.491 67.7796 309.601 67.6996 309.721 67.6296Z" fill="black" stroke="black" stroke-width="2" stroke-miterlimit="10" stroke-linecap="round" stroke-linejoin="round"/>
<path d="M356.141 55.8397C356.261 56.7197 356.341 57.4197 356.391 57.9397C356.731 60.8897 357.052 63.2397 357.322 65.0097C357.592 66.7697 357.842 67.9997 358.052 68.6897C358.262 69.3797 358.672 70.5897 359.282 72.3197C359.892 74.0497 360.402 75.6097 360.832 76.9797C363.162 84.4397 366.402 90.3397 370.572 94.6897C374.732 99.0397 379.982 102.04 386.322 103.69C387.762 104 390.772 104.25 395.332 104.42C397.722 104.5 399.882 104.45 401.802 104.27C403.572 104.11 405.631 103.77 407.971 103.25C413.081 102.11 417.051 100.72 419.881 99.0797C422.711 97.4397 425.532 94.9297 428.352 91.5397C428.422 91.4597 428.482 91.3797 428.542 91.2997C430.262 89.8897 431.981 88.1597 433.681 86.0897C436.241 82.9697 438.121 79.6797 439.371 76.2897C440.621 72.8997 441.602 68.1897 442.312 62.1597C442.822 57.9397 442.692 51.3997 441.842 42.5297C440.902 32.7097 439.672 25.5197 438.292 20.9497C436.902 16.3797 434.791 12.9297 431.971 10.5797C428.581 7.75974 424.522 6.56973 419.792 7.00973C418.532 7.12973 417.181 7.35969 415.721 7.71969C410.971 9.00969 407.551 11.5197 405.431 15.2397C402.951 16.7297 401.051 18.7497 399.741 21.3097L398.342 24.3397L399.441 41.1097C399.941 47.4997 400.201 52.3097 400.221 55.5597C400.141 55.4397 400.061 55.3297 399.991 55.1997C399.091 53.7197 398.081 47.4797 396.921 36.4797L394.931 19.7897L393.121 17.1597C392.021 15.6997 390.631 14.4097 388.961 13.2997C387.291 12.1897 385.662 11.4697 384.072 11.1797C381.872 10.7797 379.302 10.7297 376.342 10.9997C374.792 11.1397 373.581 11.3697 372.711 11.6697C370.041 12.5897 367.681 14.2997 365.641 16.7897C365.161 17.3797 364.712 17.9897 364.312 18.6197C362.862 19.5497 361.532 20.7497 360.312 22.2497C358.272 24.7497 356.942 27.5497 356.342 30.6597C355.162 36.4297 355.011 44.1597 355.911 53.8297C355.941 54.2997 356.021 54.9597 356.141 55.8397Z" fill="black" stroke="black" stroke-width="2" stroke-miterlimit="10" stroke-linecap="round" stroke-linejoin="round"/>
<path d="M452.782 104.9C456.982 107.86 464.802 110.22 476.252 111.96C478.012 112.23 480.661 112.55 484.211 112.94C491.821 113.72 497.541 113.74 501.371 113.01C505.201 112.28 508.002 110.7 509.802 108.27C510.232 107.68 510.591 106.99 510.901 106.21C512.661 105.37 514.081 104.24 515.141 102.81C516.081 101.53 516.732 99.7896 517.062 97.5896C517.872 92.2396 517.071 87.6497 514.651 83.8297C512.891 81.0897 510.032 79.4097 506.072 78.8097C504.592 78.5797 502.541 78.4597 499.941 78.3897C501.351 78.0397 502.802 77.3697 504.302 76.3596C505.992 75.2396 507.242 73.7296 508.052 71.8396C508.572 71.5696 509.101 71.2596 509.631 70.9096C512.211 69.1996 513.782 66.5897 514.312 63.0697C514.642 60.8697 514.581 58.3097 514.131 55.3897C513.901 53.9297 513.282 52.4497 512.272 50.9397C511.812 50.2497 511.322 49.6596 510.822 49.1596C511.512 49.1496 512.102 49.0797 512.582 48.9297C513.562 48.6297 514.661 47.9697 515.861 46.9497C517.521 45.5997 518.832 44.1196 519.812 42.5196C520.262 42.2296 520.711 41.8997 521.201 41.4897C524.541 38.7697 526.492 35.5397 527.062 31.7997C527.382 29.6697 527.122 27.5797 526.332 25.4997C525.512 23.3597 524.631 21.7297 523.641 20.6397C522.641 19.5497 521.092 18.5097 518.992 17.5097C513.062 14.5797 505.402 12.3297 496.042 10.7597L490.871 9.96964C486.251 9.26964 483.751 8.92967 483.371 8.93967C476.361 9.14967 471.861 9.49965 469.871 9.97965C467.881 10.4696 466.112 11.6397 464.552 13.5097C464.132 14.0097 463.641 14.8297 463.111 15.9297C461.691 16.5497 460.401 17.5696 459.221 18.9696C458.211 20.1696 456.871 23.0797 455.191 27.6997C453.511 32.3197 452.212 36.6696 451.302 40.7296C451.042 41.9696 450.511 45.2197 449.701 50.5097C448.771 56.5997 448.111 61.1896 447.721 64.2796C445.871 78.4096 445.281 88.0197 445.931 93.1096C446.561 98.1996 448.852 102.13 452.782 104.9Z" fill="black" stroke="black" stroke-width="2" stroke-miterlimit="10" stroke-linecap="round" stroke-linejoin="round"/>
<path d="M113.611 48.3496C112.811 49.1796 112.051 49.9996 111.321 50.8096C110.361 51.6996 109.341 52.6896 108.271 53.7996C105.481 56.6896 103.121 59.4896 101.181 62.2096C96.0814 69.3096 93.6115 76.0496 93.7715 82.4296C93.9215 88.4396 96.3415 93.4996 101.041 97.6196C107.941 103.69 120.251 106.51 137.981 106.08C138.501 106.07 139.301 106.03 140.371 105.97C141.441 105.91 142.281 105.87 142.871 105.85C148.951 105.55 153.301 105.15 155.921 104.64C158.541 104.13 161.131 103.18 163.701 101.78C167.121 99.9296 169.601 97.6696 171.161 95.0296C176.171 91.6496 178.611 87.1796 178.471 81.6196C178.321 75.2396 174.971 70.6496 168.451 67.8396C164.931 66.4396 160.391 65.8096 154.821 65.9396C153.261 65.9796 152.151 66.0496 151.481 66.1296C149.851 66.3296 148.931 66.4096 148.701 66.4196C147.881 66.4396 147.471 66.2596 147.461 65.8896C147.461 65.7696 147.571 65.5496 147.801 65.2496C149.151 63.9796 150.731 62.5196 152.561 60.8496C157.771 56.1596 161.881 52.1596 164.911 48.8496C169.331 44.5596 172.491 41.0496 174.401 38.3496C177.201 34.3896 178.551 30.2196 178.441 25.8396C178.341 21.8396 176.711 18.6096 173.641 16.0496C169.891 12.9196 163.601 10.7996 154.671 9.71959C148.711 8.99959 140.061 8.73963 128.721 9.00963C126.571 9.05963 124.981 9.17959 123.941 9.34959C123.791 9.34959 123.011 9.47961 121.611 9.73961C120.211 9.99961 119.061 10.2096 118.181 10.3796C109.181 11.9896 103.621 15.0796 101.481 19.6296C97.1714 22.1696 95.0515 25.6396 95.1615 30.0696C95.2515 33.7796 96.8614 36.8196 100.001 39.1896C103.141 41.5596 107.501 43.0496 113.081 43.6596C115.341 43.9096 116.911 44.1296 117.821 44.3096C116.541 45.4396 115.121 46.7696 113.611 48.3496Z" fill="black" stroke="black" stroke-width="2" stroke-miterlimit="10" stroke-linecap="round" stroke-linejoin="round"/>
<path d="M62.4514 51.7797C62.9714 50.4997 63.3215 49.1198 63.4915 47.6398C63.8215 44.8398 63.5715 42.2498 62.7715 39.8798C61.9615 37.5098 60.7115 36.2197 59.0215 36.0297C58.4315 35.9597 57.9414 35.9798 57.5614 36.0798C56.6314 36.3498 55.6714 37.6897 54.6814 40.1097C53.6914 42.5297 53.0615 44.9297 52.7815 47.2797C52.6915 48.0197 52.6714 48.8397 52.7214 49.7397C52.8514 51.1797 53.3514 52.4897 54.2214 53.6697C55.0914 54.8497 56.0414 55.5098 57.0714 55.6298C58.4714 55.7898 59.5415 55.5997 60.2715 55.0497C61.0215 54.5097 61.7414 53.4197 62.4514 51.7797ZM61.9314 8.13977C62.5414 8.05977 63.1015 8.04974 63.6115 8.10974C66.1115 8.39974 69.2115 9.42972 72.8815 11.2097C80.5315 14.7897 86.0715 20.4697 89.4915 28.2697C91.3815 32.5997 92.8115 36.7998 93.7915 40.8698C94.7715 44.9398 95.8314 50.8197 96.9514 58.4897C98.2414 67.9797 98.5714 75.3698 97.9514 80.6797C97.3814 85.6198 95.8215 89.9898 93.2915 93.8098C91.8415 96.0298 90.4515 97.6598 89.1415 98.6998C87.8215 99.7398 85.9714 100.61 83.5714 101.3C81.5414 102.03 78.6714 102.3 74.9614 102.09C74.6614 102.06 74.2215 102.02 73.6315 101.99C73.0415 101.96 72.6315 101.93 72.4115 101.9C70.2015 101.64 68.5014 101.18 67.3014 100.52C66.1114 99.8597 64.8614 98.6998 63.5614 97.0598C60.8814 93.7598 59.3414 89.3198 58.9514 83.7498C58.7214 81.2598 58.2415 79.8597 57.5315 79.5497C57.3215 79.4497 57.1015 79.3897 56.8815 79.3597C56.5115 79.3197 55.6514 80.5997 54.3014 83.2097C53.2414 85.2497 51.7014 87.3897 49.6914 89.6198C47.6714 91.8498 45.9115 93.3597 44.4015 94.1597C39.7815 96.6097 35.1515 97.5697 30.5115 97.0297C26.3115 96.5397 22.6315 94.8997 19.4915 92.1097C16.3415 89.3197 14.1415 85.6397 12.8715 81.0897C12.2415 78.7797 12.2115 75.2298 12.7715 70.4297C13.3415 65.4897 14.9514 59.1097 17.5814 51.2697C22.0714 37.7497 26.0515 28.8797 29.5315 24.6497C34.1415 19.0597 38.9114 14.8197 43.8414 11.9197C48.7714 9.01974 53.3114 7.73976 57.4514 8.06976C59.9814 8.20976 61.4714 8.23977 61.9314 8.13977Z" fill="#73C2AF" stroke="black" stroke-width="2.4623" stroke-miterlimit="10" stroke-linecap="round" stroke-linejoin="round"/>
<path d="M129.291 3.89978C130.321 3.72978 131.921 3.60981 134.071 3.55981C145.421 3.27981 154.071 3.51977 160.021 4.26977C168.951 5.31977 175.271 7.42979 178.991 10.5998C182.091 13.1198 183.701 16.3898 183.791 20.3898C183.901 24.7698 182.551 28.9398 179.751 32.8998C176.951 36.8598 171.451 42.5498 163.241 49.9398C156.271 56.2698 152.791 59.7698 152.811 60.4298C152.821 60.7998 153.231 60.9798 154.051 60.9598C154.271 60.9498 155.201 60.8598 156.831 60.6698C157.501 60.5798 158.611 60.5198 160.171 60.4798C165.731 60.3498 170.271 60.9798 173.801 62.3798C180.321 65.1898 183.661 69.7898 183.821 76.1598C183.971 82.4598 180.821 87.3598 174.381 90.8598C171.821 92.2598 169.221 93.2098 166.601 93.7198C163.981 94.2298 159.631 94.6298 153.551 94.9298C152.961 94.9398 152.121 94.9798 151.051 95.0498C149.981 95.1098 149.181 95.1498 148.661 95.1598C130.931 95.5898 118.621 92.7698 111.721 86.6998C107.021 82.5798 104.601 77.5198 104.451 71.5098C104.301 65.1298 106.771 58.3898 111.861 51.2898C113.801 48.5698 116.161 45.7698 118.951 42.8798C121.741 39.9898 124.151 37.8598 126.201 36.4698C128.391 34.8598 129.481 33.9398 129.471 33.7198C129.461 33.4998 127.561 33.1698 123.771 32.7398C118.191 32.1298 113.831 30.6398 110.691 28.2698C107.551 25.8998 105.941 22.8598 105.851 19.1498C105.671 11.8098 111.571 7.0598 123.541 4.9198C124.431 4.7498 125.571 4.53978 126.971 4.27978C128.371 4.02978 129.141 3.89978 129.291 3.89978Z" fill="white" stroke="black" stroke-width="2" stroke-miterlimit="10" stroke-linecap="round" stroke-linejoin="round"/>
<path d="M232.991 40.8999C231.841 39.7499 231.001 39.1899 230.481 39.2099C229.961 39.2299 229.161 39.5899 228.071 40.2999C225.321 42.1799 224.001 44.8599 224.131 48.3499C224.181 49.8299 224.491 51.1199 225.051 52.2199C226.011 54.2599 227.611 55.4299 229.851 55.7199C230.151 55.7799 230.521 55.8099 230.971 55.7899C231.781 55.7599 232.761 55.1299 233.911 53.8999C235.481 52.2099 236.231 50.2199 236.151 47.9199C236.051 45.4699 235.001 43.1299 232.991 40.8999ZM218.271 9.01985C221.071 8.32985 224.501 7.9099 228.581 7.7599C233.251 7.5899 236.971 7.82987 239.741 8.47987C245.961 10.0399 251.411 12.9999 256.091 17.3599C258.771 19.7899 261.191 23.0099 263.341 27.0099C267.411 34.8099 269.591 43.0399 269.901 51.7199C269.981 53.9399 269.951 56.1699 269.801 58.3999C269.311 65.4699 268.321 71.0699 266.841 75.2099C265.351 79.3499 263.071 82.9899 259.991 86.1499C256.481 89.6899 252.561 92.2099 248.231 93.6999C243.901 95.1899 238.111 96.0999 230.851 96.4399C224.691 96.6599 219.821 96.2799 216.221 95.2899C212.621 94.2999 209.441 92.4099 206.661 89.6199C204.191 87.1099 202.181 84.2499 200.621 81.0399C199.061 77.8299 197.581 73.4299 196.201 67.8299C195.411 64.3699 194.881 58.9298 194.611 51.5198C194.411 45.9598 194.491 41.9499 194.851 39.4899C196.181 31.1299 197.511 25.6999 198.831 23.1999C200.351 20.1799 202.961 17.3199 206.651 14.6199C210.351 11.9199 214.221 10.0598 218.271 9.01985Z" fill="#73C2AF" stroke="black" stroke-width="2.4623" stroke-miterlimit="10" stroke-linecap="round" stroke-linejoin="round"/>
<path d="M318.491 20.5599C320.521 20.2499 322.721 20.1699 325.091 20.3299C329.241 20.6099 333.451 21.5499 337.731 23.1799C342.011 24.7999 345.591 26.8299 348.481 29.2499C351.301 31.5999 353.571 34.6099 355.301 38.2899C357.021 41.9699 357.781 45.4098 357.571 48.5898C357.561 48.7398 357.531 48.9599 357.471 49.2499C357.411 49.5399 357.381 49.7598 357.371 49.9098C356.231 56.9698 351.891 60.7699 344.341 61.3099C341.801 61.4399 340.241 61.4799 339.651 61.4399C336.761 61.2499 334.211 59.8899 332.001 57.3599C330.351 55.3199 329.081 54.2698 328.191 54.2098C325.891 54.0598 323.291 54.8899 320.391 56.6999C317.481 58.5099 315.501 60.5799 314.461 62.8899C313.851 64.1899 313.471 65.9898 313.321 68.2798C313.101 71.6098 313.442 74.2698 314.352 76.2698C315.322 78.4898 316.741 80.3299 318.611 81.7899C320.481 83.2499 322.341 84.0499 324.201 84.1699C325.241 84.2399 326.101 84.1098 326.791 83.7798C327.561 83.3798 327.961 82.9298 328.001 82.4098C328.061 81.5198 327.331 80.7298 325.821 80.0298C323.731 78.9998 322.761 77.4099 322.901 75.2599C322.931 74.8199 323.061 74.0099 323.281 72.8299C323.711 70.8499 324.351 69.3499 325.201 68.3299C326.051 67.3099 327.311 66.4499 329.001 65.7399C331.281 64.9299 334.911 64.6799 339.871 65.0099C346.011 65.4199 350.371 66.3799 352.951 67.8899C354.091 68.6299 354.941 69.8098 355.511 71.4098C356.781 74.6898 357.091 81.1398 356.451 90.7698C355.871 99.5098 354.821 105.72 353.311 109.41C351.121 114.4 346.321 116.64 338.921 116.15L338.481 116.12C335.821 115.94 333.341 115.18 331.051 113.84L327.501 111.82L323.981 112.81C321.711 113.48 317.461 113.6 311.241 113.19C306.061 112.85 302.211 112.31 299.691 111.59C297.171 110.87 294.671 109.56 292.201 107.69C290.711 106.55 288.761 104.65 286.331 102C283.901 99.3499 282.221 97.2098 281.291 95.5898C279.301 91.9598 277.751 86.2499 276.631 78.4399C276.131 74.6899 275.971 71.6299 276.121 69.2599C276.231 67.5599 276.361 66.1499 276.511 65.0499C278.131 50.7299 284.021 39.3399 294.171 30.8699C300.381 25.5699 308.491 22.1299 318.491 20.5599Z" fill="white" stroke="black" stroke-width="2" stroke-miterlimit="10" stroke-linecap="round" stroke-linejoin="round"/>
<path d="M378.042 6.22977C378.912 5.92977 380.111 5.69978 381.671 5.55978C384.621 5.28978 387.201 5.34978 389.401 5.73978C390.991 6.03978 392.622 6.74977 394.292 7.85977C395.962 8.96977 397.341 10.2598 398.451 11.7198L400.262 14.3498L402.252 31.0398C403.412 42.0398 404.432 48.2698 405.322 49.7598C406.192 51.1698 407.112 51.8298 408.072 51.7398C409.102 51.6398 409.922 50.8298 410.532 49.2798C411.122 47.6598 410.981 41.2997 410.111 30.2097L409.012 13.4398L410.411 10.4098C412.491 6.33976 416.042 3.62974 421.062 2.26974C422.522 1.90974 423.871 1.67978 425.131 1.55978C429.861 1.11978 433.922 2.30979 437.312 5.12979C440.132 7.47979 442.241 10.9298 443.631 15.4998C445.021 20.0698 446.201 27.2598 447.181 37.0798C448.001 45.9498 448.151 52.4897 447.651 56.7097C446.941 62.7397 445.961 67.4498 444.711 70.8398C443.461 74.2398 441.562 77.4998 439.022 80.6398C436.202 84.0298 433.382 86.5398 430.552 88.1798C427.722 89.8198 423.751 91.2098 418.641 92.3498C416.301 92.8598 414.252 93.1998 412.472 93.3698C410.552 93.5498 408.392 93.5997 406.002 93.5197C401.442 93.3397 398.432 93.0998 396.992 92.7898C390.652 91.1398 385.402 88.1398 381.242 83.7898C377.082 79.4398 373.832 73.5398 371.502 66.0798C371.072 64.6998 370.561 63.1498 369.951 61.4198C369.341 59.6898 368.932 58.4798 368.722 57.7898C368.512 57.0998 368.262 55.8798 367.992 54.1098C367.712 52.3498 367.402 49.9898 367.062 47.0398C367.012 46.5198 366.932 45.8198 366.812 44.9398C366.692 44.0598 366.612 43.3898 366.572 42.9498C365.682 33.2698 365.822 25.5498 367.002 19.7798C367.612 16.6698 368.932 13.8698 370.972 11.3698C373.012 8.84978 375.372 7.13977 378.042 6.22977Z" fill="#73C2AF" stroke="black" stroke-width="2.4623" stroke-miterlimit="10" stroke-linecap="round" stroke-linejoin="round"/>
<path d="M488.681 3.49986C489.061 3.47986 491.561 3.81982 496.181 4.52982L501.352 5.31986C510.712 6.88986 518.372 9.13986 524.302 12.0699C526.402 13.0599 527.951 14.1099 528.951 15.1999C529.951 16.2899 530.851 17.9099 531.641 20.0599C532.451 22.1399 532.691 24.2298 532.371 26.3598C531.801 30.0998 529.852 33.3298 526.512 36.0498C525.302 37.0698 524.212 37.7298 523.231 38.0298C522.242 38.3298 520.842 38.3399 519.002 38.0599C516.652 37.6999 512.141 36.5698 505.451 34.6498C501.641 33.5498 499.192 32.9098 498.092 32.7398C497.282 32.6198 496.622 32.7798 496.102 33.2298C495.492 33.8098 495.081 34.7599 494.881 36.0799L494.611 37.8398L498.941 38.9499C501.331 39.5399 504.352 40.1098 508.022 40.6698C511.102 41.1398 513.192 41.6798 514.302 42.2998C515.482 42.9298 516.582 43.9999 517.582 45.4999C518.592 46.9999 519.211 48.4899 519.441 49.9499C519.901 52.8699 519.961 55.4299 519.621 57.6299C519.081 61.1499 517.521 63.7698 514.941 65.4698C513.021 66.7498 511.181 67.5098 509.421 67.7298C507.661 67.9498 504.481 67.8999 499.881 67.5699C494.401 67.1099 491.442 67.0398 491.022 67.3498C490.602 67.6598 490.432 68.4998 490.522 69.8598C490.582 70.9198 490.752 71.5698 491.022 71.7898C491.282 72.0198 492.151 72.2398 493.621 72.4698C495.161 72.6998 498.101 72.8498 502.451 72.9098C506.431 72.9098 509.401 73.0698 511.381 73.3699C515.341 73.9698 518.201 75.6399 519.961 78.3899C522.381 82.2099 523.191 86.7998 522.371 92.1498C522.041 94.3498 521.391 96.0899 520.451 97.3699C518.651 99.7999 515.852 101.38 512.022 102.11C508.192 102.84 502.471 102.82 494.861 102.04C491.321 101.65 488.661 101.32 486.901 101.06C475.461 99.3199 467.641 96.9699 463.431 93.9999C459.501 91.2199 457.212 87.2898 456.562 82.2098C455.912 77.1198 456.502 67.5099 458.352 53.3799C458.752 50.2899 459.412 45.6998 460.332 39.6098C461.132 34.3298 461.661 31.0699 461.931 29.8299C462.851 25.7699 464.152 21.4298 465.822 16.7998C467.502 12.1798 468.842 9.26986 469.852 8.06986C471.412 6.20986 473.181 5.02983 475.171 4.53983C477.171 4.04983 481.671 3.70986 488.681 3.49986Z" fill="white" stroke="black" stroke-width="2" stroke-miterlimit="10" stroke-linecap="round" stroke-linejoin="round"/>
</svg>
