<svg width="456" height="201" viewBox="0 0 456 201" fill="none" xmlns="http://www.w3.org/2000/svg">
<path d="M135.902 70.2601C135.882 70.0001 135.861 69.6401 135.861 69.1701C135.851 68.7101 135.841 68.3501 135.821 68.0801C135.251 61.1901 132.862 56.1701 128.632 53.0101L126.201 51.2302L127.491 48.8402C128.121 47.6702 128.672 45.8901 129.132 43.5001C129.591 41.1201 129.761 39.1401 129.632 37.5601C129.401 34.8001 128.201 31.5901 125.961 27.9501C123.991 24.7401 120.792 21.9202 116.392 19.4702C111.992 17.0202 107.502 15.5101 102.902 15.0801C99.7115 14.7801 96.4415 14.8202 93.0915 15.1002C84.3615 15.8202 78.3615 17.6901 75.0115 20.6501C73.5015 21.9901 72.3415 23.2401 71.5315 24.4201C71.0715 24.7301 70.6515 25.0601 70.2615 25.4001C67.4215 27.8801 65.8214 30.0901 65.4514 32.0401C65.3014 32.5801 65.4214 36.9001 65.8214 44.9901C66.2814 53.8101 66.4515 59.4701 66.3315 61.9901C66.3415 65.2901 66.4614 68.3201 66.6814 71.0801C67.2814 78.3601 68.1215 83.7801 69.2115 87.3201C71.6015 95.5101 76.1115 100.53 82.7415 102.36C87.7515 103.8 93.7015 104.23 100.591 103.67C104.791 103.32 108.171 102.68 110.741 101.74C117.191 99.4301 122.142 96.0001 125.652 91.4901C129.562 88.4201 132.471 84.6002 134.301 79.9802C135.181 77.8602 135.681 76.3102 135.801 75.3502C135.941 74.4002 135.972 72.7001 135.902 70.2601ZM98.6515 42.6002C99.5515 43.3602 100.042 43.9901 100.162 44.4901C99.9115 44.5501 99.6515 44.6001 99.4015 44.6201C97.8915 44.7401 96.6114 43.9902 95.5514 42.3602C95.1814 41.7502 94.9915 41.3102 94.9015 40.9802C96.2515 41.0102 97.5115 41.5302 98.6515 42.6002ZM104.601 74.1201C102.961 74.2601 101.621 74.0002 100.571 73.3602C99.1814 72.5202 98.4014 71.4202 98.1714 70.1002C98.2914 70.0902 98.4015 70.0701 98.5215 70.0501C100.232 69.9101 101.631 70.1301 102.741 70.6901C104.181 71.3901 104.981 72.5101 105.171 74.0301C104.991 74.0701 104.801 74.1101 104.601 74.1201Z" fill="black" stroke="black" stroke-width="2" stroke-miterlimit="10" stroke-linecap="round" stroke-linejoin="round"/>
<path d="M204.461 24.6903C203.611 22.8403 202.731 21.4603 201.782 20.5503C200.832 19.6503 199.401 18.8203 197.481 18.0603C192.051 15.8303 185.141 14.3003 176.751 13.4703L172.121 13.0903C167.981 12.7503 165.751 12.6002 165.421 12.6302C159.221 13.2402 155.261 13.8202 153.531 14.3702C151.801 14.9202 150.301 16.0703 149.031 17.8103C148.771 18.1703 148.491 18.7003 148.191 19.3603C146.711 19.9703 145.401 21.0203 144.281 22.5603C143.461 23.6803 142.451 26.3402 141.241 30.5302C140.031 34.7302 139.151 38.6503 138.581 42.3003C138.421 43.4103 138.151 46.3302 137.761 51.0503C137.311 56.5003 137.001 60.6003 136.841 63.3603C136.061 75.9803 136.111 84.5302 137.001 88.9902C137.881 93.4602 140.151 96.8002 143.801 99.0202C147.701 101.39 154.771 103 165.011 103.85C166.591 103.98 168.951 104.11 172.111 104.24C178.901 104.47 183.961 104.15 187.311 103.27C190.651 102.39 193.051 100.82 194.491 98.5603C194.711 98.2103 194.901 97.8202 195.071 97.4002C196.881 96.5102 198.271 95.3103 199.241 93.8103C200.001 92.6203 200.461 91.0403 200.621 89.0703C201.021 84.2803 200.031 80.2702 197.651 77.0302C195.931 74.7102 193.291 73.4003 189.751 73.1003C187.981 72.9503 185.331 73.0202 181.811 73.2402C178.351 73.4502 175.901 73.4902 174.441 73.4102C174.451 73.4102 174.461 73.4102 174.471 73.4102C178.571 73.4202 181.381 73.2703 182.931 72.9703C184.471 72.6703 186.061 71.8902 187.681 70.6402C188.891 69.7202 189.792 68.5703 190.412 67.1903C191.082 66.8303 191.751 66.4102 192.431 65.8902C194.611 64.2202 195.841 61.8102 196.101 58.6602C196.261 56.6902 196.051 54.4302 195.471 51.8702C195.181 50.5902 194.541 49.3202 193.561 48.0402C192.951 47.2502 192.312 46.6402 191.662 46.1502C192.332 46.1102 192.901 46.0003 193.351 45.8303C194.201 45.5003 195.131 44.8602 196.141 43.8802C197.191 42.9002 198.071 41.8602 198.761 40.7702C199.431 40.4002 200.131 39.8602 200.891 39.1302C203.681 36.5202 205.221 33.5403 205.501 30.1903C205.641 28.3203 205.291 26.4903 204.461 24.6903Z" fill="black" stroke="black" stroke-width="2" stroke-miterlimit="10" stroke-linecap="round" stroke-linejoin="round"/>
<path d="M277.251 20.2203C276.691 18.5403 275.921 17.2603 274.961 16.3503C273.991 15.4503 272.532 14.6202 270.572 13.8802C267.982 12.9002 257.621 11.1403 239.501 8.56029C233.111 7.65029 228.471 7.11023 225.571 6.88023C220.641 6.48023 217.051 6.42028 214.811 6.80028C212.561 7.18028 210.611 8.09024 208.941 9.51024C207.661 10.6002 206.761 11.6403 206.251 12.6703C206.211 12.7503 206.172 12.8503 206.142 12.9403C205.462 13.3203 204.801 13.7402 204.201 14.2602C202.921 15.3402 202.022 16.3903 201.512 17.4203C201.002 18.4403 200.591 20.0003 200.301 22.0903C199.731 26.6003 200.241 29.8003 201.831 31.6903C203.661 33.8103 207.632 35.3103 213.762 36.1803L218.941 36.9203L218.581 41.5603C218.301 45.3803 217.611 51.6703 216.501 60.4203C215.301 70.2303 214.791 76.4403 214.951 79.0603C215.131 84.3403 216.102 88.2402 217.882 90.7502C219.652 93.2602 222.561 94.8102 226.601 95.3802L226.892 95.4203C230.672 95.9603 233.891 94.9303 236.561 92.3503C237.401 91.5403 238.191 90.5302 238.941 89.3902C239.771 88.9102 240.561 88.3303 241.311 87.6103C243.971 85.0303 246.191 80.7703 247.961 74.8403C248.351 73.5003 249.001 69.6003 249.921 63.1503C251.341 53.1703 252.222 46.0203 252.562 41.7003L255.832 42.0803C260.272 42.6503 263.451 42.7603 265.361 42.4403C267.271 42.1103 268.881 41.2803 270.211 39.9403C270.701 39.4203 271.152 38.5403 271.562 37.3303C272.852 36.9003 274.001 36.1903 274.961 35.1903C275.911 34.2003 276.752 31.9503 277.322 28.4403C277.392 27.9903 277.472 27.4602 277.592 26.8802C277.712 26.3002 277.782 25.8802 277.822 25.6202C278.042 23.8202 277.861 22.0403 277.251 20.2203Z" fill="black" stroke="black" stroke-width="2" stroke-miterlimit="10" stroke-linecap="round" stroke-linejoin="round"/>
<path d="M348.371 78.8802C347.801 74.1702 346.011 67.8503 342.871 59.9503C340.331 53.5503 338.161 48.7203 336.471 45.4103C334.771 42.1003 332.661 38.7803 330.131 35.4403C325.551 29.4303 319.581 25.6803 312.241 24.1903C308.701 23.4303 305.812 23.1803 303.592 23.4503C303.132 23.5103 302.641 23.6103 302.141 23.8303C301.761 23.9903 300.481 24.3203 298.271 24.7003C294.631 25.3203 290.982 27.3303 287.332 30.8603C286.382 31.7803 285.462 32.7803 284.572 33.8503C283.912 34.3903 283.252 34.9703 282.582 35.6103C278.932 39.1403 275.701 43.8003 272.891 49.5803C270.771 53.9503 269.191 62.4403 268.141 75.0403C267.511 82.3503 267.461 88.1903 267.991 92.5703C268.511 96.8203 269.282 99.8802 270.302 101.74C272.342 105.4 275.012 108.11 278.312 109.87C281.612 111.62 285.122 112.27 288.852 111.82C292.972 111.32 296.761 109.53 300.231 106.45C300.971 105.8 301.752 104.83 302.552 103.6C303.382 103.03 304.191 102.41 304.981 101.7C306.121 100.7 307.322 99.0303 308.602 96.6803C309.232 95.5203 309.761 94.4103 310.191 93.3403C310.331 93.6703 310.472 94.0303 310.602 94.4303C312.102 99.1503 314.361 102.66 317.361 104.95C318.831 106.1 320.142 106.83 321.312 107.15C322.482 107.47 324.041 107.51 326.001 107.27C326.201 107.25 326.552 107.19 327.072 107.09C327.592 106.99 327.981 106.93 328.241 106.9C331.481 106.3 333.901 105.48 335.501 104.42C337.421 103.32 338.841 102.19 339.761 101.01C340.141 100.53 340.502 99.9403 340.852 99.2803C342.432 98.2702 343.691 97.3002 344.501 96.2602C345.421 95.0902 346.272 93.3903 347.062 91.1703C348.482 87.3603 348.911 83.2602 348.371 78.8802ZM305.001 64.7203C304.001 63.8803 303.271 62.8602 302.881 61.6402C302.641 60.8802 302.501 60.1602 302.421 59.5102C302.191 57.6102 302.221 55.6203 302.491 53.5503C303.301 53.9403 304.051 54.6802 304.751 55.7802C305.941 57.6602 306.691 59.8403 306.991 62.3203C307.131 63.5003 307.121 64.6402 306.981 65.7502C306.341 65.6302 305.681 65.3003 305.001 64.7203Z" fill="black" stroke="black" stroke-width="2" stroke-miterlimit="10" stroke-linecap="round" stroke-linejoin="round"/>
<path d="M91.2615 152.71C90.8915 149.7 90.4614 147.2 89.9514 145.21C87.4714 135.76 84.5114 126.78 81.0514 118.28C77.5914 109.78 74.5815 104.15 71.9915 101.42C69.5615 98.8604 65.9214 97.8804 61.0814 98.4704C59.7714 98.6304 58.3214 98.9603 56.7314 99.5003C54.0514 100.4 51.4614 102.36 48.9314 105.32C48.6614 105.63 48.4314 105.97 48.1814 106.29C46.8314 107.28 45.4914 108.53 44.1814 110.07C42.5514 111.99 41.2014 114.07 40.0914 116.28C39.7214 115.69 39.3014 115.01 38.8214 114.21C35.5514 109.1 32.2015 105.89 28.7915 104.58C27.1315 103.99 24.9515 103.85 22.2715 104.18C19.5315 104.51 17.4014 105.14 15.9414 106.14C14.4814 107.15 13.2615 108.56 12.2615 110.3C11.8815 110.48 11.5214 110.67 11.1914 110.88C9.30141 112.24 7.78148 114.2 6.63147 116.76C5.48147 119.32 4.39146 123.19 3.36146 128.35C2.17146 134.4 1.57141 139.96 1.56141 145.04C1.55141 150.12 2.13151 157.46 3.29151 167.07C4.22151 174.72 4.9314 179.36 5.4314 180.99C5.9314 182.62 7.10143 184.25 8.96143 185.88C10.5914 187.34 12.0114 188.21 13.2114 188.5C14.4014 188.79 16.3815 188.79 19.1315 188.53C21.3515 188.26 22.8115 188.02 23.5215 187.8C24.2215 187.58 24.9914 187.09 25.8314 186.33C26.9614 185.41 27.8414 184.29 28.4714 182.97C29.1114 182.72 29.8014 182.25 30.5814 181.58C31.7014 180.61 32.6215 179.51 33.2515 178.17C33.9315 176.52 34.5014 174.39 34.9414 171.8C37.2114 174.8 39.4315 176.82 41.6115 177.84C42.7315 178.3 44.2315 178.42 46.1315 178.19C47.5015 178.02 48.7215 177.68 49.7815 177.15C50.8915 176.48 52.1415 175.14 53.5215 173.11C53.6015 172.99 53.6615 172.88 53.7415 172.76C54.0115 172.65 54.2815 172.53 54.5315 172.39C55.6715 171.77 56.8915 170.38 58.2715 168.35C58.5115 168 58.7214 167.66 58.9314 167.32C59.4614 168.68 60.2614 170.36 61.3514 172.4C62.6414 174.8 64.2414 176.84 66.1714 178.53C68.9814 180.91 71.8614 181.92 74.8014 181.56C74.9314 181.54 75.1215 181.5 75.3815 181.44C75.6415 181.37 75.8614 181.33 76.0614 181.31C80.4414 180.39 83.5015 178.26 85.2715 174.95C88.6015 173.13 90.6814 170.17 91.4714 166.02C92.0514 163.03 91.9815 158.6 91.2615 152.71Z" fill="black" stroke="black" stroke-width="2" stroke-miterlimit="10" stroke-linecap="round" stroke-linejoin="round"/>
<path d="M169.031 141.24C167.291 134.58 165.721 129.52 164.441 126.03C163.161 122.54 161.461 118.98 159.351 115.36C155.531 108.84 150.071 104.4 142.951 102.03C139.531 100.84 136.691 100.25 134.461 100.25C134.001 100.25 133.501 100.3 132.981 100.45C132.581 100.57 131.271 100.74 129.031 100.85C125.341 101.02 121.471 102.58 117.421 105.64C115.221 107.3 113.111 109.32 111.081 111.67C107.631 114.6 104.391 118.4 101.371 123.08C98.7415 127.16 96.1414 135.39 93.5714 147.77C92.0514 154.95 91.3014 160.74 91.3014 165.15C91.3014 169.43 91.7015 172.56 92.4915 174.53C94.0715 178.41 96.3914 181.43 99.4514 183.57C102.511 185.71 105.921 186.78 109.671 186.78C113.821 186.78 117.801 185.46 121.621 182.83C122.811 182.01 124.141 180.58 125.601 178.57C125.861 178.41 126.111 178.25 126.371 178.08C127.621 177.22 129.021 175.71 130.571 173.54C131.441 172.32 132.161 171.15 132.771 170.02C132.991 170.58 133.191 171.29 133.381 172.17C134.301 177.04 136.111 180.8 138.811 183.43C140.131 184.75 141.341 185.64 142.461 186.1C143.581 186.56 145.131 186.79 147.101 186.79C147.301 186.79 147.661 186.77 148.191 186.74C148.721 186.71 149.111 186.69 149.381 186.69C152.671 186.49 155.171 185.96 156.891 185.11C158.931 184.25 160.481 183.3 161.531 182.25C162.251 181.53 162.971 180.54 163.691 179.33C164.731 178.75 165.621 178.16 166.281 177.5C167.331 176.45 168.391 174.87 169.441 172.76C171.281 169.14 172.211 165.12 172.211 160.71C172.191 155.96 171.181 149.46 169.031 141.24ZM130.861 141.39C129.971 140.44 129.371 139.34 129.131 138.08C128.981 137.29 128.931 136.57 128.931 135.91C128.931 134.09 129.181 132.21 129.651 130.29C130.671 130.68 131.531 131.61 132.241 133.1C133.191 135.11 133.671 137.36 133.671 139.87C133.671 140.89 133.541 141.86 133.341 142.8C132.501 142.72 131.671 142.27 130.861 141.39Z" fill="black" stroke="black" stroke-width="2" stroke-miterlimit="10" stroke-linecap="round" stroke-linejoin="round"/>
<path d="M248.681 163.11C247.881 159.78 246.481 156.25 244.481 152.51C242.191 148.19 239.191 144.23 235.481 140.63L232.801 137.97L235.251 135.1C238.641 131.07 241.051 127.61 242.481 124.72C243.911 121.83 244.661 118.96 244.741 116.12L244.691 114.84C244.511 110.43 243.141 106.91 240.591 104.28C238.041 101.65 234.761 100.42 230.751 100.59L229.471 100.64C227.701 100.85 226.061 101.51 224.561 102.62C223.261 103.59 221.461 105.35 219.161 107.89C217.711 109.1 215.761 111.09 213.311 113.87L211.021 110.89C205.311 103.48 199.791 99.8904 194.461 100.11C193.211 100.16 192.061 100.34 191.021 100.65C188.291 101.42 186.041 102.92 184.291 105.13C183.891 105.63 183.541 106.17 183.211 106.73C181.821 107.54 180.581 108.57 179.541 109.88C177.791 112.1 176.651 114.89 176.131 118.28C176.041 119.34 176.011 120.16 176.041 120.75C176.241 125.55 178.941 131.17 184.161 137.61L187.491 141.52L185.491 143.48C183.271 145.68 181.171 148.6 179.181 152.24C177.191 155.88 175.861 159.23 175.201 162.29C174.771 164.55 174.601 166.93 174.711 169.43C174.871 173.25 175.551 176.25 176.771 178.44C177.981 180.63 179.971 182.42 182.731 183.83C184.551 184.74 186.441 185.16 188.421 185.08C190.001 185.01 191.601 184.58 193.211 183.79C194.761 183 196.661 181.5 198.901 179.3C199.871 178.35 200.771 177.39 201.631 176.41C202.271 175.85 202.941 175.25 203.651 174.55C205.571 172.67 207.271 170.71 208.781 168.7C209.601 169.39 211.071 170.87 213.231 173.16C217.161 177.35 220.521 180.17 223.321 181.64C226.121 183.11 229.461 183.82 233.341 183.79L234.921 183.72C235.911 183.68 236.641 183.53 237.131 183.28C237.611 183.03 238.431 182.45 239.581 181.55C240.961 180.41 242.031 179.2 242.831 177.93C243.241 177.64 243.741 177.27 244.321 176.81C247.761 173.96 249.401 170.7 249.251 167.02C249.191 165.73 249.001 164.42 248.681 163.11Z" fill="black" stroke="black" stroke-width="2" stroke-miterlimit="10" stroke-linecap="round" stroke-linejoin="round"/>
<path d="M291.471 125.21C291.091 120.8 290.201 117.35 288.761 114.86C287.321 112.38 285.111 110.49 282.151 109.14C280.261 108.28 278.501 107.73 276.861 107.55C275.811 107.43 274.521 107.44 272.981 107.61C270.361 107.89 268.111 108.75 266.231 110.13C264.781 111.19 263.661 112.47 262.921 113.97C262.421 114.24 261.941 114.54 261.481 114.88C259.601 116.26 258.311 118 257.611 120.11C257.281 121.27 256.571 126.65 255.481 136.27C252.551 162.18 251.221 176.58 251.491 179.46C251.941 183.09 253.231 186.05 255.361 188.35C257.901 191.09 260.941 192.66 264.471 193.06L265.651 193.19C270.991 193.4 274.741 191.42 276.891 187.26C278.961 186.26 280.581 184.64 281.721 182.37C283.061 179.87 284.672 173.82 286.552 164.23C288.432 154.64 289.841 145.68 290.781 137.37C291.441 131.54 291.661 127.49 291.471 125.21Z" fill="black" stroke="black" stroke-width="2" stroke-miterlimit="10" stroke-linecap="round" stroke-linejoin="round"/>
<path d="M375.161 138.76C374.211 129.63 372.891 123.39 371.161 120.04C369.541 116.9 366.321 114.95 361.511 114.16C360.211 113.95 358.721 113.86 357.041 113.93C354.211 114.05 351.181 115.21 347.921 117.35C345.221 119.13 342.891 121.28 340.881 123.76C339.481 124.88 338.191 126.11 337.011 127.45C336.721 126.63 336.301 125.17 335.731 123.06C334.011 117.24 331.701 113.23 328.791 111.02C327.361 109.99 325.311 109.25 322.641 108.82C319.911 108.37 317.691 108.38 316.021 108.94C313.811 109.67 311.821 111.17 310.001 113.31C309.581 113.8 309.141 114.37 308.691 115C307.481 115.79 306.331 116.79 305.251 118.06C303.431 120.2 301.311 123.61 298.881 128.28C296.051 133.76 293.921 138.93 292.491 143.8C291.061 148.67 289.571 155.88 288.011 165.44C286.771 173.04 286.161 177.7 286.181 179.4C286.201 181.11 286.881 183 288.201 185.08C289.361 186.94 290.482 188.17 291.552 188.78C292.622 189.39 294.511 189.95 297.231 190.46C299.441 190.82 300.911 190.99 301.651 190.98C302.391 190.97 303.261 190.71 304.281 190.21C305.641 189.63 306.811 188.79 307.791 187.68C308.341 186.99 308.901 186.17 309.461 185.24C310.621 184.65 311.671 183.92 312.541 182.93C313.761 181.4 315.011 179.28 316.271 176.59C316.371 176.84 316.472 177.11 316.572 177.4C318.012 181.64 319.762 184.66 321.802 186.46C322.742 187.21 324.161 187.75 326.041 188.05C327.401 188.27 328.672 188.28 329.842 188.07C331.102 187.74 332.672 186.8 334.562 185.24C336.192 183.9 337.432 182.57 338.342 181.25C338.662 181.01 338.972 180.77 339.312 180.49C339.982 179.94 340.571 179.39 341.121 178.84C341.201 179.23 341.272 179.75 341.302 180.43C341.382 181.98 341.701 184.08 342.271 186.74C342.841 189.4 343.811 191.81 345.191 193.97C347.221 197.04 349.701 198.81 352.631 199.29C352.761 199.31 352.961 199.33 353.221 199.34C353.481 199.35 353.711 199.37 353.911 199.4C359.631 199.83 363.811 197.76 366.511 193.23C368.731 192.04 370.502 190.13 371.842 187.49C373.222 184.78 374.382 180.5 375.342 174.65C375.832 171.66 376.111 169.14 376.171 167.08C376.441 157.34 376.101 147.89 375.161 138.76Z" fill="black" stroke="black" stroke-width="2" stroke-miterlimit="10" stroke-linecap="round" stroke-linejoin="round"/>
<path d="M449.262 140.18C449.212 138.2 449.042 136.22 448.792 134.26C447.792 126.62 445.181 119.53 440.941 112.97C438.711 109.61 436.302 106.97 433.732 105.04C429.232 101.58 424.162 99.4103 418.542 98.5503C416.042 98.2103 412.731 98.3103 408.621 98.8503C405.031 99.3203 402.021 99.9703 399.611 100.82C396.111 102.06 392.862 104.04 389.822 106.73C388.392 108 387.191 109.28 386.191 110.57C385.821 110.87 385.442 111.15 385.072 111.48C382.032 114.17 379.971 116.91 378.871 119.71C377.911 122.03 377.192 126.94 376.712 134.44C376.602 136.65 376.862 140.2 377.502 145.09C378.352 151.62 379.272 156.38 380.262 159.37C381.952 164.2 383.622 167.96 385.272 170.67C386.922 173.38 388.932 175.74 391.322 177.75C394.002 179.99 396.972 181.4 400.242 181.97C403.502 182.54 407.842 182.47 413.262 181.77C419.652 180.87 424.691 179.58 428.391 177.9C432.091 176.22 435.341 173.67 438.151 170.25C438.211 170.17 438.272 170.08 438.332 170C439.972 168.72 441.491 167.22 442.901 165.5C445.371 162.47 447.072 159.05 448.042 155.27C449.012 151.5 449.432 146.47 449.262 140.18ZM410.522 132.52C412.482 134.32 413.601 136.3 413.881 138.46C414.001 139.39 413.942 140.28 413.742 141.13C413.732 141.13 413.722 141.13 413.712 141.13C411.712 141.06 410.201 140.16 409.171 138.43C408.581 137.51 408.212 136.4 408.042 135.09C407.862 133.69 407.972 132.42 408.342 131.26C408.832 131.31 409.542 131.72 410.522 132.52Z" fill="black" stroke="black" stroke-width="2" stroke-miterlimit="10" stroke-linecap="round" stroke-linejoin="round"/>
<path d="M112.251 61.2105C111.151 60.6405 109.741 60.4305 108.031 60.5705C106.451 60.7005 105.301 61.0604 104.551 61.6504C103.301 62.4804 102.731 63.5805 102.841 64.9605C102.961 66.4705 103.791 67.6904 105.321 68.6204C106.361 69.2604 107.711 69.5104 109.351 69.3804C110.731 69.2704 111.951 68.8705 113.021 68.1905C114.091 67.5105 114.641 66.6705 114.701 65.6705C114.691 65.5405 114.691 65.3705 114.711 65.1705C114.731 64.9705 114.731 64.8404 114.731 64.7704C114.591 63.1304 113.761 61.9405 112.251 61.2105ZM79.7815 15.9105C83.1015 12.9305 89.1314 11.0805 97.8614 10.3605C101.211 10.0805 104.481 10.0805 107.671 10.3405C112.271 10.8205 116.771 12.2805 121.161 14.7305C125.561 17.1805 128.751 20.0005 130.731 23.2105C132.951 26.8605 134.171 30.0605 134.401 32.8205C134.531 34.4005 134.361 36.3804 133.901 38.7604C133.431 41.1404 132.891 42.9205 132.261 44.1005L130.971 46.4904L133.401 48.2704C137.621 51.4304 140.021 56.4505 140.591 63.3405C140.611 63.6005 140.621 63.9705 140.631 64.4305C140.631 64.8905 140.651 65.2604 140.671 65.5204C140.741 67.9604 140.711 69.6604 140.591 70.6304C140.471 71.6004 139.971 73.1404 139.091 75.2604C135.911 83.2504 129.641 88.9204 120.271 92.2704C117.701 93.2104 114.321 93.8505 110.121 94.2005C103.231 94.7705 97.2815 94.3304 92.2715 92.8904C85.6415 91.0604 81.1314 86.0405 78.7414 77.8505C77.6614 74.3105 76.8114 68.8905 76.2114 61.6105C75.9814 58.8505 75.8714 55.8304 75.8614 52.5204C75.9814 50.0004 75.8114 44.3304 75.3514 35.5204C74.9514 27.4304 74.8214 23.1105 74.9814 22.5705C75.3414 20.6105 76.9415 18.3905 79.7815 15.9105ZM108.151 33.1005C106.861 31.8905 105.431 31.3405 103.851 31.4705C101.951 31.6305 100.611 32.6305 99.8414 34.4805C99.6214 35.0305 99.5314 35.5304 99.5714 35.9904C99.6014 36.3204 99.8414 36.8605 100.301 37.6105C101.361 39.2405 102.641 39.9904 104.151 39.8704C104.741 39.8204 105.321 39.6705 105.901 39.4305C106.861 39.0905 107.751 38.4705 108.571 37.5705C109.391 36.6805 109.771 35.8704 109.711 35.1504C109.661 34.6304 109.141 33.9505 108.151 33.1005Z" fill="#73C2AF" stroke="black" stroke-width="2" stroke-miterlimit="10" stroke-linecap="round" stroke-linejoin="round"/>
<path d="M170.162 7.89033C170.492 7.85033 172.731 8.00042 176.861 8.35042L181.491 8.73042C189.881 9.56042 196.791 11.0904 202.221 13.3204C204.141 14.0704 205.571 14.9004 206.521 15.8104C207.471 16.7204 208.361 18.0904 209.201 19.9504C210.041 21.7404 210.391 23.5803 210.231 25.4903C209.951 28.8403 208.421 31.8204 205.621 34.4304C204.611 35.4004 203.681 36.0503 202.831 36.3803C201.981 36.7103 200.731 36.8004 199.091 36.6704C196.991 36.5004 192.921 35.7604 186.881 34.4704C183.441 33.7204 181.231 33.3104 180.241 33.2304C179.521 33.1704 178.941 33.3503 178.511 33.7803C178.001 34.3303 177.701 35.2003 177.601 36.3803L177.471 37.9604L181.381 38.6804C183.531 39.0604 186.241 39.3803 189.531 39.6503C192.291 39.8803 194.171 40.2304 195.191 40.7104C196.271 41.2004 197.312 42.0704 198.292 43.3504C199.282 44.6204 199.911 45.9004 200.201 47.1804C200.781 49.7404 200.991 52.0004 200.831 53.9704C200.571 57.1204 199.342 59.5304 197.162 61.2004C195.542 62.4504 193.952 63.2304 192.412 63.5303C190.862 63.8303 188.041 63.9804 183.951 63.9704C179.071 63.9004 176.451 64.0104 176.091 64.3104C175.731 64.6104 175.641 65.3604 175.801 66.5704C175.921 67.5104 176.111 68.0703 176.361 68.2503C176.611 68.4403 177.391 68.5804 178.701 68.6904C180.081 68.8004 182.692 68.7604 186.542 68.5504C190.062 68.3104 192.711 68.2704 194.481 68.4104C198.021 68.7004 200.661 70.0104 202.381 72.3404C204.751 75.5804 205.741 79.5903 205.351 84.3803C205.191 86.3503 204.721 87.9303 203.971 89.1203C202.531 91.3803 200.132 92.9504 196.792 93.8304C193.452 94.7104 188.381 95.0304 181.591 94.8004C178.431 94.6704 176.061 94.5404 174.491 94.4104C164.251 93.5604 157.181 91.9504 153.281 89.5804C149.631 87.3604 147.361 84.0204 146.481 79.5504C145.591 75.0804 145.541 66.5404 146.321 53.9204C146.481 51.1604 146.791 47.0604 147.241 41.6104C147.631 36.8904 147.911 33.9704 148.061 32.8604C148.631 29.2104 149.511 25.2804 150.721 21.0904C151.921 16.9004 152.941 14.2403 153.761 13.1203C155.031 11.3803 156.531 10.2304 158.261 9.68037C160.011 9.08037 163.972 8.50033 170.162 7.89033Z" fill="white" stroke="black" stroke-width="2" stroke-miterlimit="10" stroke-linecap="round" stroke-linejoin="round"/>
<path d="M230.321 2.14036C233.221 2.35036 237.861 2.91041 244.251 3.82041C262.371 6.40041 272.732 8.17036 275.322 9.14036C277.282 9.88036 278.741 10.7105 279.711 11.6105C280.681 12.5105 281.441 13.8004 282.001 15.4804C282.601 17.3004 282.782 19.0804 282.532 20.8404C282.492 21.1004 282.422 21.5204 282.302 22.1004C282.182 22.6804 282.092 23.2004 282.032 23.6604C281.402 27.1604 280.611 29.4104 279.671 30.4104C278.351 31.7504 276.732 32.5904 274.822 32.9104C272.912 33.2404 269.742 33.1204 265.292 32.5504L257.441 31.6304V33.7304C257.421 37.1204 256.491 45.3303 254.631 58.3703C253.711 64.8203 253.061 68.7204 252.671 70.0604C250.891 75.9904 248.682 80.2504 246.022 82.8304C243.362 85.4104 240.141 86.4304 236.351 85.9004L236.061 85.8605C232.021 85.2905 229.111 83.7404 227.341 81.2304C225.571 78.7204 224.592 74.8204 224.412 69.5404C224.252 66.9204 224.771 60.7104 225.961 50.9004C227.071 42.1504 227.772 35.8604 228.042 32.0404L228.402 27.4004L223.221 26.6604C217.091 25.7904 213.112 24.2904 211.292 22.1704C209.702 20.2804 209.192 17.0804 209.762 12.5704C210.062 10.4804 210.461 8.93037 210.971 7.90037C211.481 6.88037 212.382 5.82034 213.662 4.74034C215.332 3.32034 217.282 2.41037 219.532 2.03037C221.812 1.68037 225.391 1.70036 230.321 2.14036Z" fill="#73C2AF" stroke="black" stroke-width="2" stroke-miterlimit="10" stroke-linecap="round" stroke-linejoin="round"/>
<path d="M316.461 56.6205C316.641 55.4005 316.661 54.1406 316.501 52.8306C316.201 50.3506 315.451 48.1706 314.261 46.2906C313.071 44.4106 311.721 43.5705 310.221 43.7505C309.701 43.8105 309.281 43.9306 308.971 44.1006C308.231 44.5206 307.682 45.8806 307.332 48.1806C306.982 50.4806 306.931 52.6705 307.191 54.7605C307.271 55.4105 307.421 56.1205 307.651 56.8905C308.061 58.1005 308.771 59.1306 309.771 59.9706C310.771 60.8106 311.721 61.1706 312.641 61.0606C313.881 60.9106 314.761 60.5205 315.281 59.8905C315.781 59.2705 316.181 58.1805 316.461 56.6205ZM306.891 19.0806C307.401 18.8906 307.882 18.7606 308.342 18.7006C310.562 18.4306 313.441 18.6706 316.991 19.4406C324.341 20.9306 330.301 24.6806 334.881 30.6906C337.411 34.0306 339.531 37.3506 341.221 40.6606C342.921 43.9706 345.051 48.8206 347.621 55.2006C350.711 63.1206 352.541 69.4305 353.121 74.1305C353.661 78.5105 353.232 82.6106 351.842 86.4306C351.052 88.6506 350.191 90.3505 349.281 91.5205C348.361 92.6905 346.941 93.8306 345.021 94.9306C343.421 95.9906 341.001 96.8106 337.761 97.4106C337.501 97.4406 337.112 97.5006 336.592 97.6006C336.072 97.7006 335.711 97.7606 335.521 97.7805C333.561 98.0205 331.992 97.9806 330.832 97.6606C329.662 97.3406 328.351 96.6006 326.881 95.4606C323.881 93.1706 321.631 89.6706 320.121 84.9406C319.401 82.8406 318.701 81.7306 318.021 81.6106C317.821 81.5706 317.621 81.5606 317.421 81.5806C317.091 81.6206 316.621 82.9106 316.001 85.4406C315.511 87.4206 314.631 89.5906 313.361 91.9306C312.091 94.2706 310.881 95.9506 309.741 96.9506C306.271 100.031 302.471 101.821 298.361 102.321C294.631 102.781 291.122 102.131 287.822 100.371C284.522 98.6205 281.852 95.9105 279.812 92.2405C278.792 90.3805 278.011 87.3206 277.501 83.0706C276.971 78.6906 277.011 72.8506 277.651 65.5406C278.701 52.9406 280.281 44.4606 282.401 40.0806C285.211 34.3006 288.442 29.6406 292.092 26.1106C295.742 22.5806 299.381 20.5306 303.031 19.9506C305.231 19.5506 306.521 19.2606 306.891 19.0806Z" fill="white" stroke="black" stroke-width="2" stroke-miterlimit="10" stroke-linecap="round" stroke-linejoin="round"/>
<path d="M61.4815 94.7505C63.0715 94.2205 64.5214 93.8805 65.8314 93.7205C70.6714 93.1305 74.3015 94.1205 76.7415 96.6705C79.3315 99.4105 82.3514 105.03 85.8014 113.53C89.2614 122.03 92.2214 131.011 94.7014 140.461C95.2114 142.461 95.6415 144.961 96.0115 147.961C96.7315 153.841 96.8015 158.28 96.2315 161.27C95.1415 167.04 91.5914 170.561 85.5714 171.821C85.3714 171.841 85.1515 171.891 84.8915 171.951C84.6315 172.011 84.4414 172.051 84.3114 172.071C81.3714 172.431 78.4914 171.42 75.6814 169.04C73.7514 167.35 72.1415 165.31 70.8615 162.91C69.5715 160.51 68.6714 158.58 68.1714 157.12C67.6614 155.66 67.2414 154.941 66.9214 154.981C66.6614 155.011 66.2815 156.02 65.7915 158C65.3415 159.71 64.4215 161.581 63.0415 163.611C61.6615 165.631 60.4114 166.98 59.3014 167.65C58.2414 168.18 57.0215 168.521 55.6515 168.691C53.7515 168.921 52.2515 168.811 51.1315 168.341C48.6715 167.181 46.1514 164.771 43.5814 161.101C42.3014 159.331 41.4714 158.47 41.0814 158.52C40.8214 158.55 40.6014 159.51 40.4314 161.38C39.9414 166.68 39.1415 170.69 38.0115 173.421C37.3815 174.76 36.4914 175.891 35.3414 176.831C34.5014 177.591 33.7315 178.091 33.0315 178.301C32.3215 178.521 30.8615 178.76 28.6415 179.03C25.8915 179.3 23.9114 179.29 22.7214 179C21.5214 178.71 20.1114 177.84 18.4714 176.38C16.6114 174.75 15.4414 173.12 14.9414 171.49C14.4414 169.86 13.7314 165.221 12.8014 157.571C11.6314 147.961 11.0514 140.62 11.0714 135.54C11.0814 130.46 11.6815 124.901 12.8715 118.851C13.9015 113.681 14.9915 109.82 16.1415 107.26C17.2915 104.7 18.8114 102.74 20.7014 101.38C22.1714 100.4 24.2815 99.7505 27.0315 99.4205C29.7115 99.0905 31.8814 99.2305 33.5514 99.8205C36.9614 101.131 40.3014 104.341 43.5814 109.451C45.4114 112.481 46.4215 113.981 46.6215 113.961C46.6815 113.951 47.1415 112.8 47.9915 110.51C49.2715 106.84 51.1714 103.521 53.6914 100.561C56.2114 97.6105 58.8115 95.6705 61.4815 94.7505Z" fill="#73C2AF" stroke="black" stroke-width="2" stroke-miterlimit="10" stroke-linecap="round" stroke-linejoin="round"/>
<path d="M142.671 134.12C143.001 132.93 143.161 131.68 143.161 130.37C143.161 127.87 142.681 125.611 141.731 123.601C140.771 121.591 139.541 120.591 138.031 120.591C137.501 120.591 137.071 120.661 136.751 120.791C135.961 121.121 135.251 122.401 134.631 124.641C134.001 126.881 133.691 129.051 133.691 131.161C133.691 131.821 133.761 132.541 133.891 133.331C134.151 134.581 134.731 135.691 135.621 136.641C136.511 137.601 137.411 138.071 138.341 138.071C139.591 138.071 140.511 137.791 141.111 137.231C141.681 136.681 142.201 135.64 142.671 134.12ZM137.731 95.7006C138.261 95.5706 138.751 95.5005 139.211 95.5005C141.451 95.5005 144.281 96.0905 147.701 97.2805C154.811 99.6505 160.281 104.101 164.101 110.611C166.211 114.231 167.901 117.791 169.191 121.281C170.471 124.771 172.011 129.84 173.781 136.49C175.891 144.72 176.941 151.211 176.941 155.951C176.941 160.361 176.021 164.38 174.171 168C173.121 170.11 172.061 171.69 171.011 172.74C169.961 173.79 168.411 174.751 166.371 175.601C164.661 176.451 162.151 176.981 158.861 177.181C158.601 177.181 158.201 177.201 157.671 177.231C157.141 177.261 156.781 177.281 156.581 177.281C154.601 177.281 153.061 177.051 151.941 176.591C150.821 176.131 149.602 175.241 148.292 173.921C145.592 171.291 143.781 167.531 142.861 162.661C142.401 160.491 141.841 159.301 141.181 159.101C140.981 159.041 140.781 159 140.591 159C140.261 159 139.631 160.221 138.711 162.661C137.991 164.571 136.851 166.611 135.301 168.781C133.751 170.951 132.351 172.471 131.101 173.321C127.281 175.951 123.301 177.271 119.151 177.271C115.401 177.271 111.991 176.201 108.931 174.061C105.871 171.921 103.551 168.911 101.971 165.021C101.181 163.051 100.781 159.921 100.781 155.641C100.781 151.231 101.541 145.43 103.051 138.26C105.621 125.88 108.221 117.651 110.851 113.571C114.341 108.171 118.111 103.94 122.161 100.88C126.211 97.8205 130.081 96.2206 133.771 96.0906C136.021 95.9606 137.331 95.8306 137.731 95.7006Z" fill="white" stroke="black" stroke-width="2" stroke-miterlimit="10" stroke-linecap="round" stroke-linejoin="round"/>
<path d="M195.771 95.9104C196.811 95.6004 197.961 95.4204 199.211 95.3704C204.541 95.1504 210.061 98.7404 215.771 106.15L218.281 109.41L222.821 104.38C225.651 101.17 227.821 99.0004 229.321 97.8804C230.821 96.7604 232.461 96.1004 234.231 95.9004L235.511 95.8505C239.521 95.6805 242.801 96.9204 245.351 99.5404C247.901 102.17 249.261 105.69 249.451 110.1L249.501 111.38C249.421 114.22 248.671 117.08 247.241 119.98C245.811 122.87 243.401 126.34 240.011 130.36L237.561 133.23L240.241 135.89C243.951 139.49 246.951 143.46 249.241 147.77C251.241 151.51 252.641 155.04 253.441 158.37C253.761 159.68 253.941 160.99 254.001 162.3C254.151 165.98 252.511 169.25 249.071 172.09C247.921 172.99 247.101 173.57 246.621 173.82C246.141 174.07 245.401 174.22 244.411 174.26L242.831 174.33C238.941 174.36 235.601 173.64 232.811 172.18C230.011 170.71 226.651 167.89 222.721 163.7C219.621 160.4 217.901 158.76 217.571 158.77C217.371 158.78 216.281 160.18 214.281 162.96C212.601 165.34 210.631 167.63 208.391 169.83C206.141 172.03 204.241 173.53 202.701 174.32C201.081 175.11 199.491 175.54 197.911 175.61C195.941 175.69 194.041 175.28 192.221 174.36C189.461 172.96 187.471 171.16 186.261 168.97C185.051 166.78 184.361 163.78 184.201 159.96C184.101 157.46 184.261 155.08 184.691 152.82C185.351 149.76 186.681 146.41 188.671 142.77C190.661 139.13 192.761 136.21 194.981 134.01L196.981 132.05L193.651 128.14C188.441 121.7 185.731 116.08 185.531 111.28C185.511 110.69 185.541 109.86 185.621 108.81C186.141 105.43 187.271 102.63 189.031 100.41C190.791 98.1804 193.031 96.6904 195.771 95.9104Z" fill="#73C2AF" stroke="black" stroke-width="2" stroke-miterlimit="10" stroke-linecap="round" stroke-linejoin="round"/>
<path d="M277.731 102.86C279.271 102.7 280.571 102.68 281.611 102.8C283.251 102.99 285.011 103.52 286.901 104.39C289.861 105.72 292.071 107.63 293.511 110.11C294.951 112.59 295.851 116.04 296.221 120.46C296.421 122.74 296.201 126.79 295.541 132.61C294.601 140.92 293.192 149.87 291.312 159.47C289.432 169.07 287.821 175.11 286.481 177.61C284.341 181.87 280.561 183.9 275.161 183.69L273.981 183.56C270.451 183.16 267.411 181.59 264.871 178.85C262.741 176.55 261.451 173.59 261.001 169.96C260.731 167.08 262.061 152.68 264.991 126.77C266.081 117.15 266.791 111.76 267.121 110.61C267.821 108.5 269.111 106.76 270.991 105.38C272.861 104 275.111 103.16 277.731 102.86Z" fill="white" stroke="black" stroke-width="2" stroke-miterlimit="10" stroke-linecap="round" stroke-linejoin="round"/>
<path d="M361.791 109.19C363.471 109.13 364.961 109.21 366.261 109.42C371.071 110.2 374.281 112.16 375.911 115.3C377.631 118.65 378.961 124.89 379.911 134.02C380.861 143.15 381.201 152.6 380.941 162.36C380.871 164.42 380.591 166.94 380.111 169.93C379.161 175.78 377.991 180.06 376.611 182.77C373.961 188.01 369.561 190.39 363.431 189.93C363.231 189.9 363.001 189.88 362.741 189.87C362.471 189.86 362.281 189.84 362.151 189.82C359.231 189.34 356.751 187.57 354.711 184.5C353.331 182.34 352.351 179.93 351.791 177.27C351.221 174.61 350.902 172.51 350.822 170.96C350.742 169.41 350.541 168.61 350.211 168.56C349.951 168.52 349.311 169.38 348.291 171.15C347.381 172.67 345.972 174.21 344.082 175.77C342.192 177.33 340.621 178.27 339.361 178.6C338.191 178.81 336.932 178.8 335.562 178.58C333.672 178.27 332.262 177.74 331.322 176.99C329.282 175.19 327.542 172.17 326.092 167.93C325.362 165.88 324.801 164.82 324.411 164.75C324.151 164.71 323.681 165.57 322.991 167.32C321.051 172.27 319.152 175.9 317.312 178.2C316.332 179.31 315.162 180.15 313.802 180.73C312.782 181.23 311.911 181.49 311.171 181.5C310.431 181.51 308.961 181.34 306.751 180.98C304.031 180.47 302.142 179.91 301.072 179.3C300.002 178.69 298.881 177.46 297.721 175.6C296.391 173.51 295.721 171.62 295.701 169.92C295.681 168.21 296.291 163.56 297.531 155.96C299.091 146.41 300.581 139.19 302.011 134.32C303.441 129.45 305.571 124.28 308.401 118.8C310.831 114.13 312.951 110.72 314.771 108.58C316.581 106.44 318.591 104.98 320.791 104.21C322.481 103.68 324.691 103.64 327.411 104.09C330.081 104.52 332.122 105.26 333.562 106.29C336.472 108.5 338.781 112.51 340.501 118.33C341.411 121.75 341.961 123.47 342.161 123.51C342.221 123.52 342.981 122.54 344.441 120.58C346.691 117.41 349.441 114.76 352.691 112.62C355.921 110.47 358.961 109.33 361.791 109.19Z" fill="#73C2AF" stroke="black" stroke-width="2" stroke-miterlimit="10" stroke-linecap="round" stroke-linejoin="round"/>
<path d="M420.022 123.03C418.902 122.11 418.121 121.68 417.661 121.74C417.201 121.8 416.521 122.19 415.621 122.9C413.341 124.79 412.412 127.27 412.812 130.34C412.982 131.65 413.361 132.76 413.941 133.68C414.961 135.41 416.472 136.31 418.482 136.38C418.752 136.41 419.082 136.4 419.472 136.35C420.192 136.26 421.001 135.62 421.911 134.44C423.161 132.82 423.651 130.99 423.391 128.97C423.101 126.81 421.982 124.83 420.022 123.03ZM404.352 96.0804C406.762 95.2404 409.761 94.5804 413.361 94.1104C417.471 93.5704 420.782 93.4803 423.282 93.8103C428.902 94.6703 433.972 96.8303 438.472 100.3C441.042 102.22 443.451 104.86 445.681 108.23C449.921 114.78 452.542 121.88 453.542 129.52C453.802 131.48 453.952 133.45 454.012 135.44C454.172 141.73 453.762 146.76 452.792 150.54C451.822 154.32 450.111 157.73 447.651 160.77C444.841 164.19 441.591 166.74 437.891 168.42C434.191 170.1 429.152 171.39 422.762 172.29C417.342 173 413.002 173.06 409.742 172.49C406.482 171.92 403.512 170.51 400.822 168.27C398.432 166.26 396.412 163.9 394.772 161.19C393.122 158.48 391.452 154.72 389.762 149.89C388.772 146.9 387.852 142.14 387.002 135.61C386.362 130.71 386.102 127.16 386.212 124.96C386.692 117.46 387.411 112.55 388.371 110.23C389.471 107.43 391.532 104.69 394.572 102C397.602 99.3003 400.862 97.3304 404.352 96.0804Z" fill="white" stroke="black" stroke-width="2" stroke-miterlimit="10" stroke-linecap="round" stroke-linejoin="round"/>
<path d="M168.331 75.9905C167.371 74.9305 165.971 73.9805 164.111 73.1605C162.641 72.5205 161.292 72.1606 160.042 72.1006C158.792 72.0406 157.771 72.1705 156.971 72.5105C156.621 72.6605 156.291 72.8405 155.951 73.0605C155.521 73.3405 155.131 73.6805 154.741 74.0805C154.731 74.0905 154.731 74.0906 154.721 74.1006C154.251 74.1706 153.831 74.2705 153.461 74.4305C153.111 74.5805 152.771 74.7606 152.441 74.9806C152.011 75.2606 151.611 75.6005 151.231 76.0005C151.011 76.2305 150.822 76.4505 150.642 76.6605C150.232 77.1205 149.921 77.5505 149.701 77.9405C149.371 78.5005 149.031 79.1905 148.681 80.0005L142.951 93.0705C142.501 94.1105 142.171 95.0406 141.981 95.8606C141.791 96.6706 141.712 97.6905 141.752 98.8905C141.792 100.1 142.271 101.241 143.211 102.321C144.161 103.401 145.541 104.33 147.351 105.12C147.571 105.22 147.792 105.31 148.002 105.4C149.042 105.8 150.012 106.081 150.912 106.211C151.402 106.281 151.871 106.321 152.321 106.311C153.781 106.281 154.972 105.871 155.882 105.091C156.192 104.821 156.461 104.571 156.721 104.311C157.771 104.161 158.672 103.781 159.382 103.171C160.302 102.381 160.991 101.631 161.461 100.941C161.931 100.241 162.401 99.3805 162.861 98.3305L168.591 85.2605C169.051 84.2105 169.371 83.2805 169.561 82.4605C169.751 81.6505 169.831 80.6305 169.801 79.4105C169.791 78.2105 169.291 77.0705 168.331 75.9905Z" fill="black" stroke="black" stroke-width="2" stroke-miterlimit="10" stroke-linecap="round" stroke-linejoin="round"/>
<path d="M163.921 100.18C163.451 100.87 162.761 101.62 161.841 102.41C160.931 103.19 159.742 103.6 158.282 103.63C157.822 103.64 157.361 103.6 156.871 103.53C155.971 103.4 154.991 103.12 153.961 102.72C153.751 102.63 153.531 102.53 153.311 102.44C151.491 101.65 150.121 100.71 149.171 99.6404C148.241 98.5604 147.751 97.4204 147.711 96.2104C147.671 95.0004 147.751 93.9904 147.941 93.1804C148.131 92.3604 148.452 91.4304 148.912 90.3904L154.642 77.3204C154.992 76.5104 155.342 75.8204 155.662 75.2604C155.882 74.8704 156.201 74.4505 156.601 73.9805C156.781 73.7705 156.971 73.5504 157.191 73.3204C157.571 72.9204 157.972 72.5804 158.402 72.3004C158.742 72.0804 159.071 71.8904 159.421 71.7504C160.211 71.4204 161.241 71.2904 162.491 71.3404C163.741 71.4104 165.091 71.7504 166.561 72.4004C168.421 73.2104 169.822 74.1605 170.782 75.2305C171.752 76.3005 172.242 77.4504 172.282 78.6604C172.312 79.8804 172.232 80.9004 172.042 81.7104C171.852 82.5304 171.531 83.4604 171.071 84.5104L165.341 97.5804C164.861 98.6204 164.401 99.4804 163.921 100.18Z" fill="white" stroke="black" stroke-width="2" stroke-miterlimit="10" stroke-linecap="round" stroke-linejoin="round"/>
</svg>
