<svg width="466" height="125" viewBox="0 0 466 125" fill="none" xmlns="http://www.w3.org/2000/svg">
<path d="M164.461 121.48C163.011 121.48 161.731 121.42 160.651 121.29C157.691 120.95 154.631 119.95 151.531 118.33C149.651 117.33 147.221 115.66 144.101 113.21C140.951 110.74 138.761 108.74 137.411 107.09C134.511 103.41 131.831 97.5999 129.201 89.2999C129.041 88.7799 128.891 88.2799 128.751 87.7799C128.121 89.7099 127.521 91.32 126.971 92.59C126.841 92.89 126.711 93.1699 126.591 93.4399C126.341 93.9699 126.081 94.4599 125.841 94.8699C125.651 95.1999 125.441 95.5499 125.211 95.8899C125.201 95.9099 125.141 95.9999 125.121 96.0099C124.901 96.3299 124.691 96.6199 124.471 96.8999C124.461 96.9099 124.411 96.97 124.401 96.98C124.171 97.27 123.921 97.56 123.661 97.84L123.651 97.85C123.401 98.12 123.131 98.3799 122.861 98.6299C122.581 98.9499 122.261 99.27 121.891 99.6C121.601 99.92 121.281 100.24 120.921 100.57C120.641 100.89 120.321 101.21 119.951 101.54C119.661 101.86 119.351 102.17 118.981 102.51C118.691 102.83 118.381 103.15 118.011 103.48C117.721 103.8 117.411 104.12 117.041 104.45C116.751 104.77 116.441 105.09 116.071 105.42C115.791 105.74 115.471 106.05 115.101 106.39C114.821 106.7 114.501 107.02 114.131 107.36C111.351 110.46 107.541 112.03 102.791 112.03C102.121 112.03 101.421 112 100.711 111.94C100.671 111.94 100.641 111.93 100.601 111.93L99.1913 111.7C94.6113 110.95 90.7014 108.69 87.5814 104.98C86.2814 103.43 85.2513 101.66 84.5013 99.6899C84.4113 99.7799 84.3213 99.8699 84.2313 99.95C83.9413 100.25 83.6013 100.59 83.2513 100.92C82.9613 101.22 82.6314 101.56 82.2814 101.89C81.9914 102.19 81.6514 102.53 81.3114 102.86C81.0214 103.16 80.6814 103.5 80.3314 103.83C80.0414 104.13 79.7112 104.47 79.3612 104.8C79.0712 105.1 78.7312 105.44 78.3912 105.77C78.1012 106.07 77.7613 106.41 77.4213 106.74C73.6413 110.67 68.6913 113.94 62.7513 116.41C59.6113 117.74 55.4114 118.76 50.2614 119.44C46.6314 119.92 43.1413 120.17 39.9113 120.17C35.6613 120.17 31.7012 119.75 28.1412 118.92C19.5612 117 13.4012 110.85 9.86121 100.64C8.32121 96.3699 6.94136 89.7299 5.77136 80.9299C5.33136 77.6099 5.00138 73.8899 4.79138 69.8799C4.78138 66.8199 4.24126 59.9899 3.16126 49.4999C1.74126 35.3499 1.8413 33.9899 1.9513 33.4999C2.3513 30.7899 4.25136 27.8099 7.77136 24.3999L7.91126 24.2699L8.0614 24.1199C8.2814 23.8899 8.50134 23.6699 8.74133 23.4299L8.89124 23.2899C9.20124 22.9799 9.45132 22.72 9.72132 22.45C9.76132 22.41 9.82122 22.3599 9.87122 22.3099L9.9513 22.23C10.1913 21.98 10.4313 21.74 10.6913 21.48L10.8414 21.35L10.9613 21.23C11.1913 20.99 11.4213 20.7599 11.6713 20.5099L11.8214 20.3799L11.9413 20.2599C12.1713 20.0199 12.4012 19.7799 12.6512 19.5399C12.7012 19.4899 12.8912 19.3099 12.8912 19.3099C13.1312 19.0599 13.3712 18.8199 13.6212 18.5599L13.7714 18.4299C14.0814 18.1099 14.3314 17.86 14.6014 17.59C14.6514 17.54 14.7013 17.5 14.7513 17.45L14.8414 17.36C15.0814 17.11 15.3214 16.87 15.5714 16.61L15.7213 16.48L15.8214 16.3799C16.0514 16.1399 16.2914 15.8899 16.5414 15.6399C16.5614 15.6199 16.6212 15.5699 16.6412 15.5499C16.9112 15.2799 17.2014 14.9699 17.5214 14.6599C19.5614 12.6299 22.5214 10.8999 26.2814 9.53992C26.7414 9.36992 27.2213 9.20993 27.7113 9.04993C28.6813 8.73993 29.7114 8.43991 30.7914 8.15991C31.8614 7.88991 33.0013 7.6299 34.1713 7.3999C35.9213 7.0499 37.8214 6.73997 39.8114 6.46997C41.8514 6.19997 43.9012 6.00991 45.9012 5.90991C46.9012 5.85991 47.9112 5.82995 48.9012 5.81995H49.5814C50.3514 5.81995 51.1212 5.82999 51.8812 5.85999C53.3512 5.93999 54.8013 6.09996 56.2413 6.32996C56.9613 6.44996 57.6812 6.57987 58.3912 6.73987C61.9512 7.50987 65.5214 8.76987 69.0214 10.4899C71.1214 11.5299 73.0513 12.66 74.7413 13.85C77.6013 15.87 79.9212 18.1499 81.6312 20.6199C82.0112 21.1799 82.3613 21.7199 82.7013 22.2599C84.5313 25.1999 85.8013 27.9899 86.4613 30.5399C86.6713 31.3399 86.8012 32.0099 86.8812 32.6299C86.9512 33.1499 87.0014 33.7099 87.0214 34.2799C87.0614 35.4099 87.0212 36.6799 86.8912 38.0699C86.8312 38.7599 86.7412 39.47 86.6312 40.22C86.5212 40.97 86.4114 41.67 86.2814 42.33C86.0914 43.33 85.8712 44.2399 85.6412 45.0199C85.4012 45.8399 85.1314 46.5699 84.8414 47.1799L83.9913 48.96L85.9313 50.2399C86.8913 50.8799 87.7912 51.6199 88.6412 52.4399C89.2112 48.8599 89.8213 45.0599 90.4813 41.0099C93.0213 25.3999 93.7314 22.3599 94.0514 21.4199C94.8514 19.3599 96.0412 17.6099 97.6212 16.1499C97.9812 15.7499 98.3213 15.4 98.6813 15.08C99.0113 14.72 99.3312 14.4 99.6512 14.11C99.9812 13.75 100.301 13.4299 100.621 13.1399C100.951 12.7699 101.271 12.4499 101.591 12.1699C101.921 11.7999 102.241 11.48 102.561 11.2C102.891 10.83 103.211 10.52 103.531 10.23C103.861 9.86998 104.181 9.54989 104.501 9.25989C104.831 8.88989 105.151 8.56992 105.471 8.28992C105.831 7.88992 106.191 7.53997 106.551 7.21997C106.931 6.80997 107.341 6.40992 107.771 6.03992C107.781 6.02992 107.861 5.96996 107.871 5.95996C108.391 5.51996 108.861 5.16987 109.321 4.86987C111.871 3.17987 114.901 2.20987 118.321 1.98987C118.981 1.95987 119.581 1.93994 120.151 1.93994C120.901 1.93994 121.611 1.96991 122.241 2.02991C122.631 2.05991 123.001 2.10992 123.341 2.16992C124.921 2.42992 126.611 2.94996 128.341 3.70996C128.911 3.95996 129.491 4.23993 130.071 4.54993C130.521 4.77993 130.971 5.02992 131.411 5.28992C134.491 7.11992 136.821 9.53997 138.341 12.47C138.981 13.71 139.521 15.14 139.951 16.71C140.501 18.75 140.881 21.12 141.061 23.73C141.111 24.38 141.141 25.05 141.161 25.73C141.231 27.5 141.071 30.0199 140.661 33.3799C141.221 32.7699 141.851 32.1299 142.561 31.4299C142.851 31.1199 143.191 30.79 143.531 30.46C143.821 30.15 144.161 29.8199 144.501 29.4899C144.791 29.1799 145.131 28.8499 145.471 28.5199C145.761 28.2099 146.101 27.8799 146.441 27.5499C146.731 27.2399 147.071 26.91 147.411 26.58C147.701 26.27 148.041 25.94 148.381 25.61C148.671 25.3 149.011 24.9699 149.351 24.6399C149.641 24.3299 149.981 23.9999 150.321 23.6699C150.611 23.3699 150.941 23.04 151.281 22.71C151.801 22.17 152.371 21.6099 153.141 20.8999C153.141 20.8999 153.511 20.55 153.611 20.46C154.201 19.93 154.811 19.4299 155.431 18.9199L155.511 18.86C155.731 18.68 155.951 18.5 156.181 18.33C156.761 17.88 157.361 17.4399 157.971 17.0099C158.301 16.7799 158.631 16.55 158.971 16.33C159.551 15.94 160.131 15.57 160.731 15.2C161.141 14.95 161.571 14.7 162.001 14.45C162.561 14.13 163.131 13.8099 163.711 13.4999C164.181 13.2499 164.661 13.0099 165.151 12.7699L165.651 12.5299C166.061 12.3299 166.481 12.1199 166.901 11.9299C167.551 11.6299 168.221 11.36 168.891 11.08L169.431 10.85C169.721 10.73 170.011 10.5999 170.301 10.4899C171.501 10.0199 172.711 9.57994 173.891 9.18994C176.111 8.45994 178.541 7.95995 181.171 7.69995C182.601 7.55995 184.081 7.48987 185.541 7.48987C185.831 7.48987 186.111 7.48988 186.401 7.49988C186.991 7.50988 187.581 7.52995 188.181 7.56995C188.771 7.59995 189.371 7.64995 189.971 7.69995C191.761 7.86995 193.611 8.13989 195.451 8.50989C198.531 9.12989 201.401 9.96991 203.961 11.0299C205.511 11.6699 206.981 12.4 208.341 13.2C211.011 14.76 213.451 16.83 215.571 19.33C215.921 19.75 216.271 20.1799 216.611 20.6199C216.951 21.0599 217.281 21.5199 217.601 21.9899C218.571 23.3899 219.391 24.8099 220.051 26.1899C220.491 27.1199 220.871 28.06 221.171 28.98C221.631 30.38 221.931 31.7899 222.071 33.1599C222.081 33.2399 222.081 33.3399 222.091 33.4399C222.101 33.6499 222.101 33.8299 222.091 34.0599C222.091 34.1999 222.081 34.3199 222.091 34.4199C222.091 34.4899 222.111 34.69 222.111 34.73C222.111 35.3 222.091 35.8599 222.051 36.3999C222.041 36.5199 222.011 36.86 222.011 36.86C221.971 37.25 221.931 37.6399 221.871 38.0199C221.841 38.1799 221.821 38.33 221.791 38.48C221.721 38.88 221.631 39.2599 221.541 39.6299C221.511 39.7599 221.481 39.8899 221.441 40.0099C221.321 40.4499 221.171 40.8799 221.011 41.2999L220.971 41.3999C220.381 42.8799 219.561 44.2199 218.531 45.3899C218.191 45.7699 217.841 46.12 217.471 46.46C217.171 46.8 216.841 47.1199 216.501 47.4299C216.191 47.7699 215.871 48.0999 215.531 48.3999C215.231 48.7399 214.901 49.0599 214.561 49.3699C214.251 49.7099 213.931 50.04 213.591 50.34C213.291 50.68 212.961 50.9999 212.621 51.3099C212.431 51.5199 212.231 51.7299 212.021 51.9299C212.881 51.9399 213.691 51.9799 214.451 52.0499L214.821 52.08C215.141 52.11 215.441 52.1499 215.731 52.1899C215.961 52.2199 216.191 52.2499 216.411 52.2899C216.651 52.3299 216.881 52.3699 217.111 52.4099C217.391 52.4599 217.661 52.52 217.931 52.59C217.931 52.59 218.321 52.68 218.441 52.71C218.871 52.83 219.281 52.96 219.671 53.1C220.981 53.67 222.061 54.5599 222.961 55.7699C223.241 56.1499 223.521 56.5799 223.771 57.0399C224.421 58.1299 225.011 59.5699 225.561 61.3999C225.771 62.0999 225.981 62.8699 226.181 63.6899C227.051 67.2899 227.781 72.0699 228.361 77.8999C228.481 79.0799 228.581 80.2099 228.671 81.3099C228.841 83.4799 228.961 85.5399 229.021 87.4099C229.161 92.1299 228.931 95.8999 228.311 98.6199C228.311 98.6199 228.301 98.6599 228.291 98.6799C228.161 99.1899 228.001 99.6899 227.771 100.27L227.651 100.57C227.421 101.12 227.181 101.61 226.911 102.08C226.901 102.1 226.871 102.15 226.851 102.17C226.601 102.61 226.261 103.1 225.891 103.56L225.881 103.57C225.511 104.03 225.121 104.46 224.701 104.86C224.361 105.26 223.971 105.66 223.521 106.06C223.231 106.39 222.901 106.72 222.551 107.03C222.251 107.36 221.931 107.69 221.581 108C221.281 108.33 220.961 108.66 220.611 108.97C220.311 109.3 219.991 109.63 219.641 109.94C219.351 110.27 219.021 110.6 218.671 110.91C218.381 111.24 218.051 111.57 217.701 111.88C217.401 112.21 217.081 112.54 216.731 112.85C216.341 113.29 215.921 113.7 215.491 114.07C212.831 116.89 208.721 118.59 203.261 119.14L202.791 119.19C202.121 119.26 201.451 119.29 200.791 119.29C198.421 119.29 196.091 118.86 193.851 118L190.351 116.71L187.371 118.11C184.921 119.3 180.371 120.21 173.491 120.89C169.921 121.3 166.901 121.48 164.461 121.48ZM179.031 56.4099C178.851 57.0499 178.741 57.8099 178.711 58.6699C178.691 59.1199 178.691 59.6099 178.711 60.1199C178.731 60.6399 178.771 61.1899 178.821 61.7699C178.861 62.1999 178.911 62.6099 178.971 63.0099C179.201 64.6599 179.561 66.0999 180.031 67.3099C180.261 67.0599 180.521 66.8099 180.801 66.5599C181.111 66.1899 181.471 65.83 181.901 65.45C182.191 65.1199 182.511 64.8 182.871 64.48C183.161 64.15 183.481 63.8299 183.841 63.5099C184.131 63.1799 184.451 62.8599 184.811 62.5399C185.101 62.2099 185.421 61.8899 185.781 61.5699C186.071 61.2399 186.391 60.92 186.751 60.6C186.941 60.38 187.151 60.1599 187.381 59.9399C186.371 59.4299 185.391 58.7799 184.451 58.0099C181.891 55.7399 181.031 55.6899 180.971 55.6799C180.381 55.7399 179.761 55.88 179.121 56.1C179.091 56.19 179.061 56.2999 179.031 56.4099Z" fill="white"/>
<path d="M120.121 3.46997C120.831 3.46997 121.482 3.49993 122.072 3.54993C122.422 3.57993 122.752 3.61992 123.072 3.66992C124.542 3.90992 126.092 4.38998 127.702 5.09998C128.242 5.33998 128.792 5.5999 129.342 5.8999C129.782 6.1199 130.201 6.34998 130.611 6.59998C133.461 8.29998 135.582 10.4899 136.972 13.1799C137.572 14.3299 138.062 15.6499 138.462 17.1199C138.992 19.0799 139.342 21.33 139.522 23.86C139.562 24.49 139.601 25.1399 139.621 25.8099C139.721 28.2999 139.311 32.5499 138.391 38.4999C139.141 37.4899 139.922 36.4899 140.762 35.5199C141.632 34.4799 142.582 33.4999 143.572 32.5399C143.892 32.2099 144.212 31.8899 144.542 31.5699C144.862 31.2399 145.182 30.92 145.512 30.6C145.832 30.27 146.152 29.9499 146.482 29.6299C146.802 29.2999 147.122 28.9799 147.452 28.6599C147.772 28.3299 148.091 28.0099 148.421 27.6899C148.742 27.3599 149.061 27.04 149.391 26.72C149.711 26.39 150.031 26.0699 150.361 25.7499C150.681 25.4199 151.002 25.0999 151.332 24.7799C151.652 24.4499 151.972 24.1299 152.302 23.8099C152.882 23.2099 153.491 22.6199 154.121 22.0499C154.271 21.9099 154.422 21.7699 154.572 21.6299C155.142 21.1199 155.732 20.6299 156.332 20.1399C156.572 19.9499 156.812 19.7499 157.052 19.5599C157.612 19.1199 158.202 18.6999 158.792 18.2799C159.112 18.0599 159.432 17.8299 159.762 17.6199C160.322 17.2499 160.892 16.8799 161.472 16.5199C161.872 16.2699 162.292 16.0299 162.702 15.7899C163.252 15.4799 163.791 15.16 164.361 14.86C164.871 14.59 165.391 14.33 165.911 14.08C166.431 13.83 166.932 13.57 167.472 13.33C168.132 13.03 168.822 12.74 169.502 12.46C169.932 12.28 170.352 12.0899 170.802 11.9199C171.942 11.4699 173.112 11.0499 174.322 10.6399C174.332 10.6399 174.342 10.6299 174.352 10.6299C176.442 9.93988 178.742 9.46997 181.282 9.21997C182.672 9.07997 184.082 9.00989 185.512 9.00989C185.792 9.00989 186.062 9.0099 186.342 9.0199C186.912 9.0299 187.492 9.04996 188.062 9.07996C188.642 9.10996 189.222 9.15996 189.802 9.20996C191.552 9.36996 193.321 9.62987 195.131 9.98987C198.131 10.5899 200.881 11.3999 203.361 12.4299C204.851 13.0499 206.252 13.7399 207.552 14.5099C210.092 15.9899 212.381 17.9299 214.401 20.3199C214.741 20.7199 215.071 21.1299 215.391 21.5499C215.711 21.9699 216.032 22.41 216.342 22.86C217.272 24.2 218.041 25.54 218.671 26.85C219.091 27.73 219.442 28.6 219.722 29.47C220.152 30.77 220.422 32.06 220.552 33.33C220.562 33.39 220.562 33.4699 220.562 33.5499C220.562 33.6899 220.562 33.8399 220.562 34.0399C220.562 34.1999 220.552 34.34 220.562 34.46C220.562 34.58 220.572 34.6799 220.582 34.7599C220.582 35.2999 220.562 35.8099 220.532 36.3199C220.522 36.4599 220.502 36.5999 220.492 36.7399C220.462 37.1099 220.411 37.4699 220.361 37.8199C220.341 37.9599 220.312 38.1099 220.282 38.2499C220.212 38.5999 220.142 38.9499 220.052 39.2799C220.022 39.3899 219.992 39.5099 219.962 39.6199C219.852 40.0199 219.722 40.4099 219.572 40.7899C219.562 40.8199 219.552 40.8599 219.532 40.8899C219.012 42.2099 218.281 43.3899 217.361 44.4199L217.352 44.4299C217.042 44.7799 216.711 45.1099 216.361 45.4199C216.061 45.7599 215.731 46.0799 215.391 46.3899C215.091 46.7299 214.761 47.05 214.421 47.36C214.121 47.7 213.792 48.02 213.452 48.33C213.152 48.67 212.822 48.9899 212.482 49.2999C212.182 49.6399 211.852 49.9599 211.512 50.2699C211.212 50.6099 210.882 50.9299 210.542 51.2399C210.242 51.5799 209.912 51.9 209.572 52.21C209.272 52.55 208.942 52.8699 208.602 53.1799C208.502 53.2899 208.402 53.4099 208.292 53.5199C209.312 53.4699 210.282 53.4399 211.202 53.4399C212.312 53.4399 213.342 53.4799 214.282 53.5599C214.402 53.5699 214.521 53.58 214.641 53.59C214.941 53.62 215.222 53.6499 215.502 53.6899C215.722 53.7199 215.931 53.7499 216.131 53.7799C216.351 53.8199 216.572 53.8499 216.782 53.8899C217.042 53.9399 217.292 53.9999 217.532 54.0499C217.682 54.0899 217.842 54.1199 217.992 54.1599C218.382 54.2699 218.742 54.3799 219.082 54.5099C220.082 54.9499 220.952 55.6699 221.702 56.6799C221.952 57.0099 222.181 57.3799 222.401 57.7799C223.001 58.7899 223.552 60.15 224.072 61.85C224.282 62.53 224.471 63.2699 224.661 64.0499C225.521 67.5999 226.232 72.2699 226.812 78.0499C226.932 79.2199 227.031 80.3399 227.111 81.4299C227.281 83.5999 227.402 85.61 227.452 87.46C227.592 92.08 227.372 95.6899 226.782 98.2899C226.782 98.2899 226.782 98.2899 226.782 98.2999C226.652 98.7999 226.492 99.2799 226.312 99.7399C226.282 99.8299 226.242 99.9199 226.212 99.9999C226.022 100.46 225.802 100.91 225.562 101.34C225.552 101.35 225.552 101.36 225.542 101.37C225.282 101.82 224.981 102.25 224.661 102.65L224.651 102.66C224.321 103.07 223.962 103.46 223.572 103.83C223.222 104.25 222.831 104.64 222.421 105C222.121 105.34 221.792 105.67 221.452 105.97C221.152 106.31 220.822 106.64 220.482 106.94C220.182 107.28 219.852 107.61 219.512 107.91C219.212 108.25 218.882 108.58 218.542 108.88C218.242 109.22 217.912 109.55 217.572 109.85C217.272 110.19 216.942 110.52 216.602 110.82C216.302 111.16 215.971 111.49 215.631 111.79C215.261 112.21 214.861 112.61 214.421 112.98C212.021 115.57 208.242 117.13 203.082 117.64L202.611 117.69C201.991 117.75 201.372 117.78 200.762 117.78C198.572 117.78 196.431 117.38 194.361 116.59L190.262 115.08L186.712 116.75C184.422 117.85 179.962 118.74 173.322 119.4C169.832 119.75 166.882 119.92 164.482 119.92C163.082 119.92 161.872 119.86 160.842 119.74C158.052 119.42 155.192 118.48 152.242 116.94C150.472 116 148.072 114.34 145.042 111.97C142.012 109.6 139.862 107.64 138.592 106.08C135.852 102.6 133.201 96.8399 130.651 88.7899C129.871 86.2499 129.301 84.0099 128.932 82.0499C127.692 86.3899 126.591 89.6899 125.611 91.9399C125.491 92.2199 125.372 92.4899 125.252 92.7399C125.012 93.2399 124.782 93.6699 124.562 94.0399C124.372 94.3799 124.172 94.6999 123.972 95.0099C123.942 95.0599 123.911 95.0999 123.871 95.1499C123.691 95.4199 123.502 95.6799 123.302 95.9299C123.282 95.9499 123.262 95.9799 123.242 95.9999C123.022 96.2699 122.802 96.5299 122.572 96.7799C122.572 96.7799 122.572 96.7899 122.562 96.7899C122.312 97.0499 122.062 97.2999 121.802 97.5399C121.492 97.8899 121.172 98.2099 120.832 98.5099C120.522 98.8599 120.191 99.18 119.861 99.48C119.551 99.83 119.221 100.15 118.891 100.45C118.581 100.8 118.252 101.12 117.922 101.42C117.612 101.77 117.282 102.09 116.952 102.39C116.642 102.74 116.312 103.06 115.982 103.36C115.672 103.71 115.342 104.03 115.012 104.33C114.702 104.68 114.372 105 114.042 105.3C113.732 105.65 113.402 105.97 113.072 106.27C110.572 109.09 107.152 110.5 102.802 110.5C102.172 110.5 101.522 110.47 100.852 110.41L99.4415 110.18C95.2115 109.49 91.6416 107.42 88.7416 103.97C87.0516 101.96 85.8815 99.5699 85.2115 96.8199C85.1915 96.8399 85.1715 96.8599 85.1515 96.8699C84.8315 97.1999 84.5115 97.52 84.1815 97.84C83.8615 98.17 83.5415 98.4899 83.2115 98.8099C82.8915 99.1399 82.5716 99.4599 82.2416 99.7799C81.9216 100.11 81.6016 100.43 81.2716 100.75C80.9516 101.08 80.6316 101.4 80.3016 101.72C79.9816 102.05 79.6617 102.37 79.3317 102.69C79.0117 103.02 78.6914 103.34 78.3614 103.66C78.0414 103.99 77.7215 104.31 77.3915 104.63C77.0715 104.96 76.7515 105.28 76.4215 105.6C72.7415 109.43 68.0115 112.56 62.2115 114.96C59.1715 116.24 55.1417 117.22 50.1017 117.89C46.5117 118.37 43.1315 118.6 39.9415 118.6C35.7915 118.6 31.9816 118.19 28.5116 117.39C20.4216 115.58 14.6816 109.81 11.3116 100.08C9.79164 95.88 8.45162 89.3999 7.29162 80.6599C6.85162 77.3499 6.53165 73.71 6.32165 69.73C6.32165 66.69 5.77151 59.8699 4.68151 49.2699C3.71151 39.5399 3.30153 34.3499 3.45153 33.6899C3.78153 31.3199 5.57167 28.5599 8.84167 25.3999C8.90167 25.3399 8.97161 25.28 9.03161 25.23C9.29161 24.97 9.54164 24.6999 9.81164 24.4299C9.87164 24.3799 9.93156 24.3299 9.98156 24.2699C10.2416 23.9999 10.5016 23.73 10.7816 23.46C10.8316 23.41 10.9015 23.3599 10.9515 23.2999C11.2115 23.0299 11.4716 22.76 11.7516 22.48C11.8016 22.43 11.8715 22.3799 11.9215 22.3199C12.1815 22.0499 12.4416 21.7799 12.7215 21.5099C12.7716 21.4599 12.8415 21.41 12.8915 21.35C13.1515 21.08 13.4115 20.8099 13.6915 20.5299C13.7415 20.4799 13.8114 20.4299 13.8614 20.3699C14.1214 20.0999 14.3815 19.8299 14.6615 19.5599C14.7115 19.5099 14.7817 19.4599 14.8317 19.3999C15.0917 19.1299 15.3515 18.86 15.6315 18.58C15.6815 18.53 15.7516 18.4799 15.8016 18.4199C16.0616 18.1499 16.3217 17.88 16.6017 17.61C16.6517 17.56 16.7216 17.51 16.7716 17.45C17.0316 17.18 17.2916 16.9099 17.5716 16.6299C17.6016 16.5999 17.6315 16.5799 17.6615 16.5499C17.9415 16.2599 18.2316 15.9599 18.5416 15.6599C20.4516 13.7599 23.1916 12.1699 26.7716 10.8699C27.2216 10.7099 27.6815 10.5499 28.1515 10.3999C29.1015 10.0899 30.0915 9.80992 31.1415 9.53992C32.1915 9.26992 33.2915 9.01992 34.4415 8.78992C36.1715 8.43992 38.0216 8.13988 39.9816 7.87988C41.9916 7.60988 43.9815 7.42996 45.9515 7.32996C46.9315 7.27996 47.9215 7.24987 48.8915 7.23987C49.1115 7.23987 49.3416 7.23987 49.5616 7.23987C50.3116 7.23987 51.0616 7.24991 51.8016 7.27991C53.1916 7.35991 54.5816 7.50998 55.9715 7.72998C56.6615 7.83998 57.3516 7.96987 58.0416 8.11987C61.4916 8.86987 64.9216 10.0799 68.3216 11.7499C70.3616 12.7599 72.2017 13.8399 73.8417 14.9899C76.5717 16.9199 78.7414 19.0499 80.3614 21.3899C80.7214 21.9199 81.0615 22.45 81.3915 22.97C83.1715 25.82 84.3515 28.44 84.9715 30.83C85.1415 31.48 85.2814 32.1299 85.3614 32.7499C85.4214 33.2199 85.4616 33.7299 85.4916 34.2599C85.5316 35.3299 85.4915 36.53 85.3715 37.85C85.3115 38.51 85.2215 39.1999 85.1215 39.9299C85.0215 40.6599 84.9016 41.34 84.7816 41.97C84.6016 42.92 84.4015 43.7699 84.1815 44.5199C83.9615 45.2699 83.7215 45.92 83.4615 46.46L82.4015 48.6699L82.0516 49.4099L85.0817 51.4099C86.8217 52.5799 88.3214 54.04 89.6114 55.73C90.3214 51.27 91.0915 46.4299 91.9515 41.1799C93.8315 29.6499 95.0015 23.2 95.4615 21.83C96.1715 20.01 97.2415 18.4499 98.6815 17.1299C99.0115 16.7599 99.3516 16.41 99.7316 16.08C100.042 15.74 100.362 15.42 100.702 15.11C101.012 14.77 101.332 14.4499 101.672 14.1399C101.981 13.7999 102.301 13.4799 102.641 13.1699C102.951 12.8299 103.271 12.51 103.611 12.2C103.921 11.86 104.242 11.54 104.582 11.23C104.892 10.89 105.212 10.5699 105.552 10.2599C105.862 9.91989 106.182 9.59992 106.522 9.28992C106.862 8.91992 107.212 8.55998 107.602 8.22998C107.952 7.83998 108.342 7.46987 108.752 7.11987C108.792 7.08987 108.831 7.0599 108.871 7.0199C109.281 6.6799 109.701 6.34993 110.161 6.04993C112.501 4.49993 115.262 3.61991 118.432 3.40991C119.002 3.48991 119.581 3.46997 120.121 3.46997ZM179.861 70.23C179.951 70.03 180.041 69.8099 180.151 69.6299C180.561 68.9199 181.151 68.25 181.881 67.6C182.191 67.22 182.562 66.8599 182.962 66.4999C183.252 66.1699 183.572 65.8399 183.932 65.5299C184.221 65.1999 184.541 64.8699 184.901 64.5599C185.191 64.2299 185.511 63.9 185.871 63.59C186.161 63.26 186.482 62.9299 186.842 62.6199C187.132 62.2899 187.452 61.9599 187.812 61.6499C188.102 61.3199 188.422 60.9899 188.782 60.6799C189.072 60.3499 189.392 60.02 189.752 59.71C189.842 59.61 189.932 59.4999 190.032 59.3999C188.442 58.9199 186.891 58.08 185.381 56.85C183.381 55.07 181.902 54.1899 180.952 54.1899C180.902 54.1899 180.852 54.19 180.812 54.2C179.872 54.29 178.901 54.55 177.921 54.97C177.781 55.33 177.662 55.6899 177.562 56.0599C177.352 56.7999 177.232 57.6599 177.192 58.6399C177.172 59.1299 177.172 59.65 177.192 60.2C177.212 60.75 177.252 61.33 177.312 61.95C177.352 62.3899 177.412 62.8299 177.462 63.2499C177.872 66.1899 178.652 68.51 179.802 70.21C179.812 70.22 179.812 70.2299 179.822 70.2399C179.852 70.2099 179.861 70.22 179.861 70.23ZM120.121 0.469971C119.531 0.469971 118.892 0.489897 118.232 0.519897C114.512 0.759897 111.242 1.80989 108.472 3.63989C108.452 3.64989 108.441 3.65992 108.422 3.66992C107.922 3.99992 107.421 4.37995 106.891 4.81995L106.752 4.93994C106.292 5.32994 105.862 5.74993 105.452 6.17993C105.082 6.50993 104.721 6.86989 104.361 7.25989C104.041 7.54989 103.721 7.86998 103.391 8.22998C103.071 8.51998 102.752 8.83995 102.422 9.19995C102.102 9.48995 101.782 9.80992 101.452 10.1699C101.132 10.4599 100.812 10.7799 100.482 11.1399C100.162 11.4299 99.8416 11.75 99.5116 12.11C99.1916 12.4 98.8716 12.72 98.5416 13.08C98.2216 13.37 97.9016 13.6999 97.5716 14.0499C97.2116 14.3799 96.8616 14.7299 96.5016 15.1299C94.7816 16.7399 93.4815 18.66 92.6315 20.85C92.6115 20.89 92.6017 20.93 92.5917 20.97C92.2317 22.04 91.4915 25.2599 88.9615 40.7999C88.4715 43.8199 87.9916 46.77 87.5416 49.6C87.2716 49.4 87.0116 49.2099 86.7316 49.0299L85.8614 48.45L86.1415 47.86C86.4715 47.16 86.7616 46.38 87.0316 45.47C87.2716 44.64 87.5015 43.6799 87.7015 42.6399C87.8315 41.9599 87.9516 41.23 88.0616 40.47C88.1716 39.69 88.2617 38.9399 88.3317 38.2399C88.4717 36.7899 88.5116 35.4399 88.4715 34.2499C88.4516 33.6199 88.4016 33.02 88.3216 32.46C88.2317 31.78 88.0814 31.0399 87.8614 30.1899C87.1614 27.4899 85.8415 24.5599 83.9215 21.4899C83.5815 20.9499 83.2217 20.3799 82.8317 19.8199C81.0117 17.1799 78.5716 14.7699 75.5616 12.6499C73.8016 11.4099 71.8115 10.2399 69.6415 9.16992C66.0315 7.38992 62.3415 6.08992 58.6715 5.28992C57.9315 5.12992 57.1815 4.98987 56.4415 4.86987C54.9615 4.62987 53.4515 4.46989 51.9615 4.38989C51.9415 4.38989 51.9215 4.38989 51.9015 4.38989C51.1315 4.35989 50.3416 4.34998 49.5616 4.34998C49.3316 4.34998 49.0914 4.34998 48.8614 4.34998C47.8514 4.35998 46.8216 4.38994 45.7916 4.43994C43.7516 4.54994 41.6617 4.73989 39.5817 5.00989C37.5617 5.27989 35.6317 5.59995 33.8517 5.94995C32.6517 6.18995 31.4915 6.44998 30.3915 6.72998C29.2815 7.00998 28.2215 7.31989 27.2215 7.63989C26.7115 7.79989 26.2216 7.9699 25.7416 8.1499C21.7716 9.5899 18.6415 11.4299 16.4215 13.6299C16.1315 13.9099 15.8516 14.1999 15.5616 14.4899C15.5316 14.5199 15.5015 14.55 15.4615 14.58C15.1815 14.85 14.9315 15.1099 14.6815 15.3699L14.6615 15.3899C14.6015 15.4399 14.5416 15.4999 14.4916 15.5499C14.2216 15.8099 13.9816 16.0599 13.7416 16.3199L13.7015 16.3699C13.6315 16.4299 13.5716 16.4799 13.5216 16.5399C13.2516 16.7999 13.0016 17.0599 12.7616 17.3199L12.7316 17.35C12.6716 17.4 12.6116 17.4599 12.5516 17.5099C12.2816 17.7699 12.0416 18.0199 11.8016 18.2699L11.7616 18.3199C11.6916 18.3799 11.6317 18.4299 11.5817 18.4899C11.3217 18.7399 11.0817 18.9999 10.8317 19.2499L10.7916 19.2999C10.7316 19.3599 10.6715 19.41 10.6215 19.46C10.3515 19.72 10.1115 19.97 9.87145 20.23L9.83166 20.2699C9.76166 20.3299 9.70148 20.3799 9.65148 20.4399C9.39148 20.6899 9.15148 20.95 8.90148 21.2L8.86144 21.2499C8.80144 21.3099 8.73151 21.3599 8.68151 21.4199C8.41151 21.6899 8.16148 21.95 7.90148 22.21L7.89147 22.22C7.83147 22.28 7.77155 22.3299 7.72155 22.3799C7.46155 22.6299 7.23158 22.87 7.00158 23.11L6.93151 23.1799C6.85151 23.2499 6.79156 23.3099 6.73156 23.3699C3.01156 26.9699 0.961579 30.2099 0.501579 33.2499C0.351579 33.9799 0.28153 35.4799 1.70153 49.6699C2.77153 60.1199 3.32165 66.9 3.32165 69.84C3.32165 69.89 3.32165 69.9399 3.32165 69.9899C3.53165 74.0399 3.87164 77.7899 4.31164 81.1599C5.51164 90.1999 6.88157 96.76 8.49157 101.21C12.2016 111.91 18.7214 118.38 27.8614 120.42C31.5114 121.27 35.5815 121.71 39.9415 121.71C43.2415 121.71 46.7916 121.46 50.4916 120.97C55.7716 120.27 60.1015 119.21 63.3815 117.83C69.4815 115.3 74.5816 111.93 78.5416 107.83C78.8716 107.51 79.2016 107.19 79.5116 106.86C79.8416 106.54 80.1716 106.22 80.4816 105.89C80.8116 105.57 81.1315 105.25 81.4515 104.92C81.7815 104.6 82.1115 104.28 82.4215 103.95C82.7515 103.63 83.0815 103.31 83.3915 102.98C83.6115 102.77 83.8316 102.55 84.0416 102.34C84.7116 103.66 85.5215 104.88 86.4515 105.99C89.8115 109.99 94.0216 112.43 98.9715 113.23L100.381 113.46C100.451 113.47 100.522 113.48 100.602 113.49C101.352 113.56 102.102 113.59 102.812 113.59C107.972 113.59 112.152 111.87 115.222 108.47C115.582 108.14 115.902 107.82 116.192 107.5C116.552 107.17 116.871 106.85 117.161 106.53C117.521 106.2 117.841 105.88 118.131 105.56C118.491 105.23 118.812 104.91 119.102 104.59C119.462 104.26 119.782 103.94 120.072 103.62C120.432 103.29 120.752 102.97 121.042 102.65C121.402 102.32 121.722 101.99 122.012 101.68C122.372 101.35 122.692 101.03 122.982 100.71C123.342 100.38 123.662 100.06 123.952 99.7399C124.232 99.4799 124.502 99.2099 124.752 98.9399C124.762 98.9299 124.772 98.9199 124.782 98.9099C125.062 98.5999 125.342 98.28 125.602 97.95L125.661 97.8799C125.901 97.5799 126.122 97.2699 126.352 96.9299C126.382 96.8899 126.422 96.8399 126.452 96.7899C126.722 96.3899 126.941 96.0199 127.151 95.6599C127.421 95.2099 127.682 94.7199 127.952 94.1299C128.082 93.8499 128.222 93.5599 128.352 93.2399C128.452 92.9999 128.561 92.7499 128.661 92.4899C131.081 99.5599 133.562 104.66 136.222 108.04C136.232 108.06 136.242 108.07 136.262 108.08C137.682 109.81 139.952 111.89 143.182 114.42C146.382 116.92 148.882 118.64 150.822 119.68C154.102 121.4 157.352 122.45 160.482 122.81C161.622 122.94 162.962 123.01 164.472 123.01C166.952 123.01 170.031 122.83 173.611 122.47C180.671 121.77 185.382 120.81 188.012 119.54L190.391 118.42L193.322 119.5C195.692 120.41 198.212 120.87 200.762 120.87C201.472 120.87 202.191 120.83 202.901 120.76L203.371 120.71C209.161 120.13 213.582 118.29 216.492 115.24C216.932 114.86 217.362 114.44 217.762 114C218.112 113.69 218.432 113.36 218.732 113.03C219.082 112.71 219.402 112.39 219.702 112.06C220.052 111.74 220.371 111.42 220.671 111.09C221.021 110.77 221.341 110.45 221.641 110.12C221.991 109.8 222.311 109.48 222.611 109.15C222.961 108.83 223.282 108.51 223.582 108.18C223.932 107.86 224.252 107.54 224.552 107.21C225.012 106.8 225.402 106.39 225.762 105.98C226.212 105.55 226.632 105.09 227.012 104.62C227.022 104.61 227.032 104.59 227.042 104.58C227.442 104.07 227.801 103.54 228.121 103.01C228.131 102.99 228.151 102.96 228.161 102.94C228.471 102.4 228.752 101.84 229.002 101.23C229.042 101.14 229.081 101.04 229.121 100.94C229.371 100.29 229.562 99.7099 229.702 99.1599C229.712 99.1099 229.732 99.0599 229.742 99.0099C230.382 96.1599 230.632 92.3699 230.482 87.45C230.422 85.56 230.301 83.4799 230.131 81.2699C230.041 80.1699 229.942 79.02 229.822 77.84C229.232 71.95 228.492 67.0999 227.602 63.4299C227.402 62.5899 227.182 61.7899 226.962 61.0599C226.382 59.1299 225.752 57.5999 225.032 56.3699C224.752 55.8699 224.451 55.4 224.131 54.97C223.081 53.55 221.792 52.49 220.312 51.84C220.262 51.82 220.221 51.7999 220.171 51.7799C219.771 51.6299 219.322 51.48 218.802 51.34C218.662 51.3 218.521 51.27 218.371 51.23L218.252 51.2C217.962 51.13 217.671 51.0599 217.361 51.0099C217.121 50.9599 216.871 50.9199 216.611 50.8799C216.371 50.8399 216.131 50.8099 215.891 50.7799C215.731 50.7599 215.571 50.74 215.401 50.72C215.471 50.65 215.532 50.5799 215.602 50.5099C215.942 50.1999 216.272 49.8699 216.572 49.5399C216.912 49.2299 217.242 48.8999 217.542 48.5699C217.882 48.2599 218.202 47.94 218.512 47.6C218.892 47.25 219.262 46.8799 219.602 46.4899C219.612 46.4799 219.621 46.47 219.621 46.46C220.771 45.16 221.682 43.6699 222.332 42.0399C222.352 41.9799 222.371 41.9299 222.391 41.8799C222.561 41.4299 222.722 40.96 222.852 40.48C222.882 40.37 222.912 40.2399 222.952 40.1199L222.962 40.0699C223.062 39.6699 223.152 39.26 223.232 38.84C223.262 38.67 223.292 38.51 223.322 38.33C223.382 37.94 223.432 37.5199 223.482 37.0599L223.492 36.9399C223.502 36.8199 223.522 36.6999 223.522 36.5699C223.562 35.9399 223.582 35.3499 223.582 34.7799C223.582 34.6899 223.572 34.5999 223.572 34.4999V34.45C223.572 34.36 223.572 34.2699 223.572 34.1699C223.582 33.8799 223.572 33.6799 223.572 33.4999C223.572 33.3399 223.562 33.1799 223.552 33.0699C223.402 31.5799 223.082 30.0699 222.582 28.5699C222.262 27.5899 221.861 26.59 221.381 25.6C220.691 24.14 219.822 22.6599 218.812 21.1899C218.472 20.6999 218.122 20.2199 217.772 19.7599C217.422 19.2999 217.051 18.8399 216.682 18.4099C214.452 15.7799 211.882 13.6 209.052 11.95C207.642 11.12 206.102 10.3599 204.492 9.68994C201.842 8.59994 198.882 7.71996 195.702 7.07996C193.802 6.69996 191.912 6.41988 190.062 6.24988C189.452 6.18988 188.822 6.14999 188.212 6.10999C187.602 6.07999 186.981 6.04992 186.381 6.03992C186.081 6.02992 185.792 6.02991 185.492 6.02991C183.972 6.02991 182.452 6.09988 180.972 6.24988C178.232 6.51988 175.691 7.03992 173.401 7.78992C173.381 7.79992 173.352 7.80994 173.332 7.80994C172.132 8.20994 170.912 8.64988 169.702 9.12988C169.392 9.24988 169.092 9.37989 168.792 9.50989C168.642 9.56989 168.492 9.63995 168.342 9.69995L168.202 9.75989C167.552 10.0299 166.882 10.31 166.212 10.61C165.772 10.81 165.341 11.0199 164.911 11.2399L164.582 11.3999L164.432 11.47C163.932 11.72 163.432 11.96 162.942 12.22C162.342 12.54 161.772 12.86 161.192 13.2C160.752 13.45 160.311 13.71 159.881 13.97C159.301 14.32 158.712 14.6999 158.072 15.1299C157.722 15.3599 157.382 15.6 157.042 15.84C156.362 16.32 155.762 16.76 155.192 17.2C154.972 17.37 154.762 17.54 154.562 17.71L154.421 17.8199C153.671 18.4299 153.072 18.9299 152.542 19.4099C152.432 19.5099 152.322 19.61 152.212 19.72L152.062 19.8699C151.282 20.5899 150.691 21.17 150.151 21.72C149.821 22.04 149.502 22.3599 149.182 22.6899C148.852 23.0099 148.522 23.3299 148.212 23.6599C147.882 23.9799 147.562 24.2999 147.242 24.6299C146.912 24.9499 146.582 25.27 146.272 25.6C145.942 25.92 145.612 26.2399 145.302 26.5699C144.972 26.8899 144.642 27.2099 144.332 27.5399C144.002 27.8599 143.681 28.1799 143.361 28.5099C143.071 28.7899 142.782 29.08 142.502 29.36C142.602 27.92 142.632 26.71 142.592 25.72C142.572 25.04 142.532 24.3399 142.492 23.6799C142.302 20.9699 141.912 18.5099 141.332 16.3699C140.882 14.6999 140.301 13.17 139.611 11.84C137.961 8.64997 135.441 6.03994 132.121 4.05994C131.661 3.78994 131.172 3.5199 130.682 3.2699C130.102 2.9699 129.491 2.66991 128.891 2.40991C127.051 1.58991 125.242 1.03989 123.522 0.759888C123.142 0.699888 122.732 0.649985 122.312 0.609985C121.672 0.499985 120.921 0.469971 120.121 0.469971ZM180.361 57.2799C180.531 57.2399 180.692 57.2099 180.852 57.1799C181.132 57.3099 181.911 57.7399 183.411 59.0599C183.441 59.0899 183.472 59.1099 183.502 59.1399C183.982 59.5299 184.462 59.89 184.962 60.22C184.882 60.31 184.802 60.39 184.722 60.48C184.372 60.8 184.042 61.1199 183.752 61.45C183.402 61.77 183.072 62.0899 182.782 62.4199C182.432 62.7399 182.102 63.0699 181.812 63.3899C181.462 63.7099 181.132 64.03 180.842 64.36C180.812 64.38 180.782 64.4099 180.762 64.4299C180.652 63.9099 180.552 63.3599 180.472 62.7699C180.422 62.3899 180.372 62 180.332 61.6C180.282 61.06 180.242 60.5299 180.222 60.0399C180.202 59.5699 180.202 59.13 180.222 58.71C180.232 58.19 180.281 57.7099 180.361 57.2799Z" fill="black"/>
<path d="M401.352 123.1C400.162 123.1 399.011 123.01 397.931 122.84C390.841 121.49 386.431 115.95 384.771 106.36C383.771 100.56 382.602 90.6901 381.302 76.9501C381.162 77.7401 381.011 78.5301 380.871 79.3201C378.691 91.1801 376.811 98.5001 375.141 101.69C374.951 102.08 374.731 102.48 374.501 102.87L374.371 103.09C374.131 103.48 373.931 103.78 373.711 104.07L373.552 104.29C373.012 105.01 372.401 105.68 371.761 106.26C371.461 106.6 371.132 106.92 370.792 107.23C370.492 107.57 370.162 107.89 369.822 108.2C369.522 108.54 369.192 108.86 368.852 109.17C368.552 109.51 368.221 109.83 367.881 110.14C367.571 110.48 367.251 110.81 366.911 111.11C366.601 111.45 366.281 111.78 365.941 112.08C365.641 112.42 365.311 112.74 364.971 113.05C364.671 113.39 364.341 113.71 364.001 114.02C363.691 114.36 363.361 114.69 363.031 114.99C360.211 118.11 356.241 119.69 351.201 119.69C350.971 119.69 350.731 119.69 350.501 119.68C350.461 119.68 350.431 119.68 350.391 119.67L348.971 119.53C344.361 119.06 340.321 117.04 336.981 113.52C335.051 111.49 333.621 109.02 332.721 106.16C332.631 106.25 332.541 106.33 332.441 106.42C332.131 106.76 331.801 107.09 331.471 107.39C331.161 107.73 330.831 108.06 330.501 108.36C330.191 108.7 329.861 109.03 329.531 109.33C329.221 109.67 328.892 110 328.562 110.3C328.252 110.64 327.922 110.97 327.592 111.27C324.922 114.18 321.392 115.9 317.092 116.38C316.602 116.46 315.851 116.51 314.891 116.51C309.521 116.51 303.462 113.3 296.352 106.7C296.022 106.41 295.711 106.12 295.411 105.86C295.361 105.91 295.311 105.95 295.261 106C294.971 106.32 294.652 106.64 294.292 106.97C294.002 107.29 293.682 107.61 293.322 107.94C293.032 108.26 292.712 108.58 292.352 108.91C292.062 109.23 291.741 109.55 291.381 109.88C291.091 110.2 290.771 110.52 290.411 110.85C290.121 111.17 289.801 111.49 289.441 111.82C285.681 115.95 279.741 118.05 271.771 118.05H270.701C267.051 117.96 264.351 117.59 262.391 116.89C260.391 116.18 258.411 114.81 256.511 112.82C254.101 110.41 252.611 108.13 251.981 105.87C250.991 102.57 250.151 92.51 249.421 75.14C249.341 73.31 249.222 70.2501 249.062 65.9601V65.79C248.742 59.19 248.582 53.7901 248.582 49.8201C248.582 46.2801 248.822 42.53 249.312 38.67C249.972 33.47 250.881 29.5901 252.111 26.8101C253.011 24.7601 254.182 23.0901 255.592 21.8501C255.902 21.5001 256.232 21.17 256.562 20.88C256.872 20.53 257.201 20.2 257.531 19.91C257.841 19.56 258.171 19.2301 258.501 18.9401C258.811 18.5901 259.141 18.2701 259.471 17.9701C259.781 17.6201 260.111 17.29 260.441 17C260.751 16.65 261.081 16.32 261.411 16.03C261.721 15.68 262.051 15.3501 262.381 15.0601C262.691 14.7101 263.022 14.3801 263.352 14.0901C263.662 13.7401 263.982 13.42 264.322 13.12C264.742 12.65 265.171 12.23 265.611 11.87C265.631 11.85 265.711 11.79 265.741 11.77C265.951 11.61 266.151 11.4501 266.361 11.3101C266.621 11.1301 266.891 10.9601 267.171 10.8101C267.971 10.3101 269.251 9.6601 271.011 8.8501C272.041 8.3801 273.232 7.86003 274.592 7.28003C275.492 6.90003 276.312 6.56 277.062 6.25C279.382 5.31 280.971 4.73009 281.931 4.47009C281.981 4.46009 282.022 4.45006 282.072 4.44006C282.102 4.44006 282.201 4.42004 282.231 4.42004C282.591 4.38004 283.231 4.33002 284.231 4.27002C284.781 4.24002 285.441 4.21004 286.201 4.17004C286.961 4.13004 287.832 4.10006 288.812 4.06006H289.822C295.832 4.06006 301.902 4.89003 307.852 6.53003C308.702 6.77003 309.561 7.02004 310.411 7.29004C317.241 9.45004 322.791 12.3301 326.901 15.8601C327.111 16.0401 327.342 16.2401 327.572 16.4601C328.882 17.7001 330.341 19.4801 331.921 21.7301C332.181 22.1001 332.441 22.49 332.711 22.89C334.331 25.3 335.632 27.53 336.582 29.5C336.912 30.17 337.201 30.8301 337.451 31.4501C337.611 31.8501 337.751 32.28 337.881 32.75C338.131 30.9 338.291 30.14 338.391 29.75C339.151 27.38 340.441 25.36 342.251 23.67C342.561 23.33 342.901 22.98 343.271 22.65C343.571 22.32 343.891 22.0001 344.241 21.6801C344.541 21.3501 344.871 21.0201 345.211 20.7101C345.511 20.3801 345.841 20.05 346.181 19.74C346.481 19.41 346.801 19.09 347.151 18.77C347.451 18.44 347.781 18.11 348.121 17.8C348.421 17.47 348.752 17.1401 349.092 16.8301C349.392 16.5001 349.722 16.1701 350.062 15.8601C350.412 15.4801 350.771 15.12 351.151 14.78C351.431 14.47 351.732 14.17 352.042 13.89L352.151 13.79C352.491 13.48 352.841 13.19 353.211 12.91C353.221 12.9 353.231 12.89 353.241 12.88C354.771 11.73 356.521 10.84 358.441 10.24C359.581 9.87999 360.792 9.62008 362.062 9.46008C362.562 9.40008 363.031 9.36008 363.471 9.33008C364.141 9.28008 364.781 9.26001 365.371 9.26001C365.571 9.26001 365.771 9.26002 365.971 9.27002C366.361 9.28002 366.732 9.31009 367.082 9.34009C367.272 9.36009 367.481 9.39005 367.681 9.43005L367.911 9.47009C369.451 9.70009 371.081 10.1601 372.761 10.8301L372.951 10.91C373.281 11.04 373.611 11.1701 373.941 11.3201C377.531 12.8801 380.341 15.18 382.281 18.13L382.391 18.3C382.481 18.44 382.581 18.5801 382.661 18.7301C383.551 20.2301 384.301 22.01 384.891 24.05C385.151 23.78 385.401 23.53 385.671 23.29C386.001 22.93 386.321 22.6101 386.641 22.3201C386.971 21.9701 387.291 21.6501 387.611 21.3501C387.931 21.0001 388.252 20.68 388.582 20.38C388.912 20.03 389.222 19.71 389.552 19.41C389.882 19.05 390.201 18.7301 390.521 18.4401C390.841 18.0901 391.161 17.7701 391.491 17.4701C391.811 17.1201 392.131 16.8 392.461 16.5C392.791 16.14 393.111 15.82 393.441 15.52C394.501 14.37 395.822 13.3001 397.352 12.3401C397.882 12.0101 398.401 11.7 398.961 11.4C398.971 11.39 399.072 11.3401 399.092 11.3301C399.642 11.0401 400.171 10.77 400.731 10.51C400.811 10.47 401.161 10.3201 401.161 10.3201C401.651 10.1001 402.141 9.88004 402.661 9.67004C402.851 9.59004 403.041 9.52007 403.241 9.45007L403.861 9.22009C404.151 9.11009 404.441 9.00001 404.751 8.89001C405.461 8.64001 406.211 8.40004 406.981 8.17004C408.781 7.64004 410.581 7.21 412.391 6.87C413.291 6.7 414.221 6.55005 415.141 6.43005C416.051 6.31005 416.991 6.21 417.921 6.13C418.971 6.04 420.021 5.98006 421.042 5.94006C421.712 5.92006 422.382 5.91003 423.042 5.91003C423.392 5.91003 423.732 5.91004 424.072 5.92004C428.502 6.00004 432.741 6.65008 436.681 7.83008C438.141 8.27008 439.401 8.71005 440.511 9.18005C442.861 10.0801 445.631 11.78 448.931 14.39C451.351 16.3 453.361 18.1 454.891 19.74C455.421 20.3 455.902 20.86 456.322 21.39C458.032 23.68 459.651 26.61 461.171 30.12C461.681 31.31 462.161 32.5301 462.621 33.8501C463.341 35.9201 463.812 37.69 464.042 39.24C464.062 39.34 464.082 39.44 464.102 39.55C464.172 39.9501 464.252 40.4501 464.312 41.0601C464.342 41.3101 464.361 41.58 464.391 41.87C464.441 42.45 464.471 43.04 464.471 43.64C464.511 47.76 463.552 52.3701 461.592 57.3601C461.302 58.0901 460.991 58.81 460.661 59.51C460.541 59.76 460.422 60.01 460.292 60.27L460.001 60.8501C459.881 61.0901 459.771 61.3301 459.641 61.5601C459.411 62.0001 459.161 62.4301 458.911 62.8601C458.911 62.8601 458.591 63.42 458.521 63.55C458.211 64.08 457.871 64.6001 457.531 65.1101L457.312 65.4501C456.932 66.0201 456.531 66.57 456.131 67.13L456.001 67.3101C455.571 67.8801 455.121 68.46 454.651 69.03C454.641 69.04 454.592 69.1001 454.582 69.1101C453.372 70.5701 452.071 71.97 450.741 73.24L450.471 73.51C450.241 73.74 450.011 73.9801 449.771 74.2001L449.491 74.4801C449.261 74.7101 449.032 74.9501 448.792 75.1801L448.542 75.4301C448.301 75.6701 448.062 75.92 447.812 76.16L447.582 76.39C447.342 76.64 447.092 76.89 446.842 77.13L446.602 77.37C446.362 77.61 446.121 77.8501 445.881 78.0901L445.631 78.3401C445.391 78.5901 445.141 78.8301 444.891 79.0701L444.651 79.3201C444.411 79.5601 444.171 79.8101 443.921 80.05L443.681 80.29C443.441 80.54 443.201 80.78 442.941 81.02L442.721 81.24C442.471 81.49 442.231 81.74 441.971 81.99C441.951 82.01 441.741 82.2301 441.741 82.2301C441.501 82.4801 441.251 82.7301 441.001 82.9701C438.221 85.6201 435.251 87.83 432.171 89.55C432.171 89.62 432.151 90.56 432.151 90.99C432.161 92.03 432.151 92.89 432.121 93.55C432.111 94.12 432.092 94.71 432.062 95.28C432.002 96.43 431.891 97.52 431.751 98.51C431.371 101.07 430.711 103.2 429.771 104.83C429.751 104.86 429.721 104.92 429.721 104.92C429.541 105.23 429.371 105.48 429.201 105.72C429.131 105.83 429.041 105.94 428.951 106.05L428.891 106.13C428.761 106.3 428.672 106.42 428.572 106.53C428.432 106.7 428.271 106.88 428.111 107.05L427.941 107.23C427.741 107.44 427.561 107.61 427.371 107.79C427.091 108.1 426.771 108.42 426.401 108.77C426.121 109.08 425.801 109.4 425.431 109.74C425.161 110.05 424.841 110.37 424.461 110.71C424.181 111.02 423.861 111.34 423.491 111.68C423.211 111.99 422.891 112.31 422.521 112.65C422.251 112.96 421.932 113.28 421.552 113.62C421.272 113.93 420.962 114.25 420.582 114.59C420.302 114.9 419.991 115.21 419.611 115.56C419.331 115.87 419.021 116.19 418.641 116.53C417.081 118.28 414.862 119.8 412.062 121.05C409.952 122.07 407.092 122.75 403.602 123.04C402.822 123.07 402.072 123.1 401.352 123.1ZM331.951 63.3301C332.701 64.6001 333.451 65.95 334.211 67.38C334.491 64.51 334.791 61.43 335.111 58.17C334.991 58.32 334.871 58.4601 334.751 58.6101C334.241 59.2201 333.662 59.85 333.052 60.49L331.342 62.28L331.951 63.3301Z" fill="white"/>
<path d="M289.792 5.58008C295.702 5.58008 301.581 6.39 307.421 8C308.261 8.23 309.091 8.47999 309.921 8.73999C316.591 10.85 321.911 13.61 325.891 17.02C326.091 17.19 326.291 17.3701 326.501 17.5701C327.741 18.7501 329.131 20.43 330.661 22.62C330.921 22.98 331.171 23.36 331.441 23.75C333.021 26.1 334.271 28.24 335.201 30.17C335.511 30.81 335.781 31.43 336.021 32.03C336.501 33.26 336.861 34.8201 337.121 36.7101C337.181 37.1801 337.242 37.6701 337.292 38.1901C337.442 39.7301 337.532 41.4501 337.562 43.3601C337.562 47.7301 337.222 50.8901 336.552 52.8301C336.042 54.2901 335.062 55.9 333.592 57.65C333.102 58.23 332.561 58.8301 331.961 59.4501L329.461 62.0701L330.062 63.0801L330.661 64.0901C332.031 66.4101 333.412 68.9901 334.802 71.8301C334.942 72.1101 335.081 72.4101 335.211 72.7001C335.821 66.1201 336.571 58.4501 337.461 49.7001C338.641 38.0801 339.422 31.57 339.802 30.17C340.472 28.07 341.641 26.27 343.281 24.75C343.591 24.4 343.932 24.06 344.292 23.74C344.592 23.4 344.921 23.08 345.261 22.77C345.561 22.43 345.891 22.11 346.231 21.8C346.531 21.46 346.861 21.1401 347.201 20.8301C347.501 20.4901 347.831 20.1701 348.171 19.8601C348.471 19.5201 348.801 19.2 349.141 18.89C349.441 18.55 349.771 18.23 350.111 17.92C350.411 17.58 350.742 17.2601 351.082 16.9501C351.422 16.5801 351.781 16.22 352.161 15.87C352.431 15.58 352.711 15.29 353.011 15.02C353.051 14.99 353.081 14.95 353.121 14.92C353.431 14.64 353.752 14.3701 354.102 14.1101C354.102 14.1101 354.111 14.1101 354.111 14.1001C355.511 13.0401 357.101 12.2401 358.861 11.6901C359.921 11.3601 361.031 11.1201 362.221 10.9701C362.681 10.9201 363.132 10.8801 363.562 10.8401C364.202 10.7901 364.792 10.77 365.352 10.77C365.542 10.77 365.731 10.77 365.911 10.78C366.261 10.79 366.601 10.8101 366.911 10.8401C367.161 10.8701 367.411 10.9201 367.671 10.9501C369.101 11.1701 370.601 11.5901 372.191 12.2201C372.561 12.3701 372.932 12.5101 373.322 12.6801C376.692 14.1401 379.251 16.2401 381.021 18.9401C381.141 19.1201 381.261 19.3001 381.371 19.4801C382.481 21.3401 383.341 23.6601 383.951 26.4301C384.001 26.6501 384.042 26.8801 384.082 27.1001C384.232 26.9101 384.361 26.72 384.521 26.54C384.891 26.12 385.301 25.7101 385.741 25.3101C386.051 24.9801 386.371 24.6501 386.721 24.3301C387.021 24.0001 387.341 23.6701 387.691 23.3601C387.991 23.0301 388.311 22.7 388.661 22.39C388.961 22.06 389.281 21.73 389.631 21.42C389.931 21.09 390.252 20.7601 390.602 20.4501C390.902 20.1201 391.222 19.7901 391.572 19.4801C391.872 19.1501 392.191 18.82 392.542 18.51C392.842 18.18 393.161 17.85 393.511 17.54C393.811 17.21 394.131 16.8801 394.481 16.5701C395.461 15.5101 396.671 14.5101 398.131 13.5901C398.141 13.5901 398.151 13.5801 398.151 13.5801C398.631 13.2801 399.131 12.9901 399.651 12.7001C399.701 12.6701 399.762 12.65 399.812 12.62C400.302 12.36 400.812 12.1001 401.342 11.8501C401.472 11.7901 401.621 11.73 401.761 11.67C402.231 11.46 402.701 11.25 403.201 11.05C403.481 10.94 403.782 10.8301 404.072 10.7201C404.452 10.5701 404.831 10.43 405.231 10.29C405.931 10.05 406.651 9.81009 407.401 9.59009C407.411 9.59009 407.421 9.58008 407.441 9.58008C409.151 9.08008 410.891 8.66008 412.661 8.33008C413.541 8.17008 414.432 8.02002 415.332 7.90002C416.232 7.78002 417.132 7.6801 418.042 7.6001C419.072 7.5101 420.082 7.45004 421.082 7.42004C421.732 7.40004 422.381 7.39001 423.021 7.39001C423.361 7.39001 423.701 7.39002 424.031 7.40002C428.401 7.48002 432.461 8.11 436.231 9.25C437.491 9.63 438.731 10.05 439.921 10.55C442.141 11.4 444.841 13.07 447.991 15.55C450.361 17.41 452.292 19.15 453.792 20.75C454.292 21.28 454.741 21.8001 455.141 22.3101C456.761 24.4901 458.312 27.2901 459.792 30.7101C460.352 31.9901 460.801 33.1901 461.201 34.3301C461.861 36.2401 462.342 37.98 462.572 39.5C462.592 39.59 462.611 39.7001 462.631 39.8101C462.701 40.1801 462.772 40.6401 462.822 41.2101C462.852 41.4501 462.871 41.71 462.891 41.99C462.941 42.53 462.961 43.09 462.971 43.65C463.011 47.59 462.091 51.9701 460.191 56.8101C459.911 57.5101 459.612 58.2 459.302 58.88C459.142 59.22 458.972 59.56 458.802 59.9C458.642 60.22 458.492 60.55 458.322 60.87C458.082 61.32 457.832 61.7601 457.572 62.2001C457.462 62.3901 457.351 62.59 457.241 62.78C456.941 63.29 456.612 63.79 456.292 64.29C456.221 64.4 456.152 64.51 456.082 64.62C455.712 65.17 455.331 65.71 454.941 66.24C454.901 66.29 454.862 66.35 454.822 66.4C454.402 66.97 453.961 67.5201 453.511 68.0701C453.501 68.0901 453.481 68.11 453.471 68.12C452.311 69.52 451.071 70.87 449.721 72.16C449.401 72.48 449.081 72.81 448.751 73.13C448.431 73.45 448.111 73.7801 447.781 74.1001C447.461 74.4201 447.142 74.7501 446.812 75.0701C446.492 75.3901 446.172 75.72 445.842 76.04C445.522 76.36 445.201 76.69 444.871 77.01C444.551 77.33 444.231 77.6601 443.901 77.9801C443.581 78.3001 443.261 78.6301 442.931 78.9501C442.611 79.2701 442.291 79.6 441.961 79.92C441.641 80.24 441.321 80.57 440.991 80.89L440.981 80.9C440.661 81.22 440.351 81.5501 440.021 81.8601C437.091 84.6501 434.001 86.9 430.751 88.63C430.741 88.98 430.731 89.3401 430.731 89.7101C430.721 90.1101 430.721 90.5201 430.711 90.9501C430.721 91.9901 430.711 92.8201 430.681 93.4601C430.671 94.0501 430.651 94.62 430.621 95.17C430.561 96.27 430.462 97.3 430.322 98.26C429.972 100.65 429.371 102.58 428.521 104.04C428.521 104.04 428.521 104.05 428.511 104.05C428.361 104.31 428.191 104.56 428.021 104.81C427.931 104.93 427.841 105.05 427.741 105.17C427.651 105.29 427.561 105.4 427.461 105.52C427.331 105.68 427.192 105.83 427.052 105.98C426.992 106.04 426.931 106.1 426.871 106.17C426.701 106.35 426.522 106.52 426.332 106.69C426.042 107.02 425.711 107.35 425.361 107.66C425.061 107.99 424.731 108.32 424.391 108.63C424.101 108.96 423.771 109.29 423.421 109.6C423.131 109.93 422.801 110.26 422.451 110.57C422.151 110.9 421.821 111.23 421.481 111.54C421.191 111.87 420.861 112.2 420.511 112.51C420.211 112.84 419.882 113.17 419.542 113.48C419.252 113.81 418.912 114.14 418.572 114.45C418.282 114.78 417.952 115.11 417.602 115.42C416.172 117.04 414.131 118.44 411.481 119.62C409.491 120.58 406.831 121.21 403.501 121.49C402.781 121.55 402.081 121.58 401.401 121.58C400.291 121.58 399.231 121.5 398.221 121.33C391.821 120.11 387.842 115.03 386.292 106.07C385.021 98.7501 383.521 85.09 381.781 65.13C381.091 69.63 380.311 74.25 379.441 79.01C377.301 90.61 375.441 97.9301 373.861 100.96C373.671 101.35 373.471 101.71 373.261 102.07C373.211 102.16 373.152 102.25 373.102 102.33C372.922 102.61 372.742 102.89 372.552 103.15C372.502 103.21 372.461 103.28 372.411 103.34C371.911 104.01 371.351 104.62 370.751 105.16C370.441 105.51 370.121 105.83 369.781 106.13C369.471 106.48 369.152 106.8 368.812 107.1C368.502 107.45 368.182 107.77 367.842 108.07C367.532 108.42 367.211 108.74 366.871 109.04C366.561 109.39 366.241 109.71 365.901 110.01C365.591 110.36 365.271 110.68 364.931 110.98C364.621 111.33 364.301 111.65 363.961 111.95C363.651 112.3 363.331 112.62 362.991 112.92C362.681 113.27 362.361 113.59 362.021 113.89C359.491 116.73 355.901 118.15 351.251 118.15C351.031 118.15 350.812 118.15 350.592 118.14L349.171 118C344.901 117.57 341.221 115.71 338.121 112.45C335.811 110.01 334.292 106.92 333.572 103.18C333.502 103.24 333.441 103.31 333.381 103.37C333.071 103.71 332.741 104.04 332.411 104.34C332.101 104.68 331.771 105.01 331.441 105.31C331.131 105.65 330.801 105.98 330.471 106.28C330.161 106.62 329.831 106.95 329.501 107.25C329.191 107.59 328.861 107.92 328.531 108.22C328.221 108.56 327.892 108.89 327.562 109.19C327.252 109.53 326.922 109.86 326.592 110.16C324.172 112.82 320.971 114.39 316.991 114.85C316.511 114.93 315.841 114.97 314.961 114.97C310.031 114.97 304.201 111.83 297.441 105.56C296.681 104.87 296.001 104.28 295.421 103.76C295.361 103.82 295.301 103.87 295.231 103.92C294.921 104.26 294.601 104.58 294.261 104.89C293.951 105.23 293.632 105.55 293.292 105.86C292.982 106.2 292.662 106.52 292.322 106.83C292.012 107.17 291.692 107.49 291.352 107.8C291.042 108.14 290.721 108.46 290.381 108.77C290.071 109.11 289.751 109.43 289.411 109.74C289.101 110.08 288.781 110.4 288.441 110.71C284.961 114.57 279.432 116.5 271.842 116.5H270.771C267.351 116.42 264.751 116.06 262.961 115.43C261.171 114.79 259.401 113.56 257.661 111.74C255.441 109.51 254.041 107.41 253.491 105.42C252.541 102.24 251.701 92.11 250.991 75.03C250.911 73.2 250.791 70.1401 250.631 65.8501V65.7301C250.311 59.0601 250.151 53.74 250.151 49.76C250.151 46.26 250.391 42.6101 250.871 38.8C251.501 33.8 252.402 29.9801 253.552 27.3601C254.382 25.4601 255.441 23.9601 256.711 22.8601C257.021 22.5101 257.341 22.18 257.681 21.89C257.991 21.54 258.311 21.21 258.651 20.92C258.961 20.57 259.281 20.2401 259.621 19.9501C259.931 19.6001 260.252 19.2701 260.592 18.9801C260.902 18.6301 261.222 18.3 261.562 18.01C261.872 17.66 262.191 17.33 262.531 17.04C262.841 16.69 263.161 16.3601 263.501 16.0701C263.811 15.7201 264.131 15.3901 264.471 15.1001C264.781 14.7501 265.101 14.43 265.441 14.13C265.811 13.7 266.211 13.3201 266.621 12.9701C266.661 12.9401 266.701 12.91 266.731 12.88C266.901 12.74 267.081 12.6101 267.261 12.4801C267.491 12.3201 267.721 12.18 267.951 12.05C268.741 11.55 269.991 10.92 271.681 10.14C272.701 9.67001 273.881 9.16009 275.221 8.59009C276.111 8.21009 276.931 7.87007 277.681 7.57007C279.911 6.66007 281.481 6.0901 282.371 5.8501C282.401 5.8501 282.461 5.84008 282.501 5.83008C282.801 5.79008 283.411 5.75007 284.371 5.70007C284.921 5.67007 285.572 5.6401 286.332 5.6001C287.092 5.5601 287.961 5.52999 288.931 5.48999H289.792M289.792 2.58008H288.842C288.802 2.58008 288.761 2.58008 288.721 2.58008C287.741 2.62008 286.871 2.66006 286.111 2.69006C285.341 2.73006 284.681 2.76004 284.131 2.79004C282.791 2.86004 282.322 2.91006 282.062 2.94006C281.952 2.95006 281.862 2.96009 281.812 2.97009C281.712 2.99009 281.611 3.01003 281.521 3.03003C280.491 3.30003 278.841 3.91 276.481 4.87C275.721 5.18 274.891 5.52003 273.991 5.91003C272.631 6.48003 271.421 7.00999 270.371 7.48999C268.581 8.30999 267.271 8.98004 266.361 9.54004C266.071 9.71004 265.781 9.89008 265.491 10.0801C265.261 10.2401 265.042 10.4101 264.822 10.5801C264.762 10.6301 264.701 10.6701 264.651 10.7101C264.171 11.1001 263.701 11.5601 263.251 12.0601C262.921 12.3601 262.591 12.69 262.281 13.03C261.951 13.33 261.622 13.66 261.312 14C260.982 14.3 260.652 14.6301 260.342 14.9701C260.012 15.2701 259.681 15.6001 259.371 15.9401C259.031 16.2401 258.711 16.57 258.401 16.91C258.071 17.21 257.741 17.54 257.431 17.88C257.091 18.18 256.771 18.5101 256.461 18.8501C256.131 19.1501 255.801 19.4801 255.491 19.8201C255.151 20.1201 254.831 20.45 254.521 20.79C252.981 22.17 251.701 24.0001 250.731 26.2201C249.451 29.1301 248.502 33.14 247.822 38.49C247.332 42.42 247.082 46.2301 247.082 49.8301C247.082 53.8001 247.242 59.2 247.562 65.87V65.92C247.562 65.96 247.562 65.99 247.562 66.03C247.722 70.31 247.841 73.4001 247.921 75.2301C248.891 98.4301 249.882 104.1 250.542 106.32C251.242 108.81 252.851 111.29 255.451 113.9C257.511 116.05 259.681 117.53 261.891 118.32C264.001 119.07 266.861 119.48 270.631 119.57C270.651 119.57 270.681 119.57 270.701 119.57H271.771C280.141 119.57 286.441 117.33 290.501 112.9C290.861 112.57 291.181 112.25 291.471 111.93C291.831 111.6 292.151 111.28 292.441 110.96C292.801 110.63 293.121 110.31 293.411 109.99C293.771 109.66 294.091 109.34 294.381 109.02C294.741 108.69 295.062 108.37 295.352 108.05C295.392 108.01 295.431 107.98 295.461 107.94C302.801 114.73 309.161 118.03 314.891 118.03C315.891 118.03 316.692 117.98 317.322 117.88C321.932 117.34 325.741 115.48 328.641 112.34C328.971 112.03 329.301 111.7 329.611 111.37C329.941 111.06 330.272 110.74 330.582 110.4C330.912 110.09 331.242 109.77 331.552 109.43C331.752 109.25 331.941 109.06 332.131 108.87C333.071 111.01 334.331 112.91 335.891 114.56C339.491 118.35 343.842 120.53 348.822 121.03L350.241 121.17C350.311 121.18 350.391 121.18 350.461 121.18C350.711 121.19 350.961 121.19 351.211 121.19C356.661 121.19 360.992 119.46 364.102 116.06C364.442 115.75 364.762 115.42 365.072 115.09C365.412 114.78 365.742 114.45 366.042 114.12C366.382 113.81 366.711 113.48 367.011 113.15C367.351 112.84 367.681 112.51 367.981 112.18C368.321 111.87 368.641 111.54 368.951 111.21C369.291 110.9 369.621 110.57 369.921 110.24C370.261 109.93 370.591 109.6 370.891 109.27C371.231 108.96 371.551 108.63 371.861 108.3C372.201 107.99 372.532 107.66 372.832 107.33C373.532 106.69 374.181 105.97 374.771 105.19C374.821 105.13 374.861 105.06 374.911 105L374.941 104.95C375.171 104.63 375.391 104.3 375.611 103.95L375.651 103.89C375.701 103.81 375.762 103.72 375.812 103.64C376.092 103.16 376.311 102.75 376.511 102.34C377.831 99.7801 379.262 94.8401 380.852 87.3201C381.752 95.8801 382.572 102.33 383.312 106.6C385.092 116.87 389.911 122.83 397.631 124.3C397.661 124.31 397.681 124.31 397.711 124.31C398.871 124.5 400.101 124.59 401.371 124.59C402.131 124.59 402.921 124.56 403.721 124.49C407.421 124.18 410.361 123.48 412.711 122.36C415.661 121.04 418.011 119.42 419.711 117.55C420.081 117.21 420.401 116.89 420.681 116.58C421.051 116.24 421.371 115.92 421.651 115.61C422.021 115.27 422.341 114.95 422.621 114.64C422.991 114.3 423.312 113.98 423.592 113.67C423.962 113.33 424.282 113.01 424.562 112.7C424.932 112.36 425.251 112.04 425.531 111.73C425.901 111.39 426.221 111.07 426.501 110.76C426.871 110.42 427.191 110.1 427.471 109.79C427.841 109.45 428.161 109.13 428.451 108.81C428.641 108.63 428.821 108.46 428.991 108.28C429.061 108.21 429.141 108.13 429.211 108.05C429.391 107.85 429.571 107.66 429.731 107.46C429.841 107.33 429.962 107.18 430.072 107.04L430.141 106.95C430.241 106.82 430.341 106.69 430.431 106.56C430.661 106.23 430.872 105.92 431.052 105.61C431.062 105.59 431.072 105.57 431.082 105.56C432.132 103.74 432.841 101.5 433.251 98.7101C433.401 97.6701 433.512 96.5401 433.582 95.3501C433.612 94.7801 433.631 94.1801 433.641 93.5601C433.671 92.8901 433.681 92.0401 433.671 90.9701C433.671 90.7801 433.681 90.59 433.681 90.41C436.601 88.69 439.412 86.55 442.062 84.04C442.322 83.79 442.582 83.53 442.832 83.27L443.062 83.04C443.332 82.78 443.572 82.54 443.812 82.29L444.052 82.05C444.302 81.8101 444.551 81.5601 444.792 81.3101L445.011 81.0801C445.261 80.8401 445.511 80.5901 445.761 80.3401L445.991 80.1101C446.241 79.8701 446.491 79.62 446.731 79.37L446.951 79.14C447.211 78.9 447.451 78.65 447.701 78.4L447.931 78.17C448.191 77.93 448.431 77.68 448.681 77.42L448.901 77.1901C449.151 76.9501 449.401 76.7001 449.641 76.4601L449.881 76.2201C450.131 75.9801 450.381 75.7301 450.621 75.4801L450.852 75.24C451.102 75 451.342 74.75 451.592 74.51L451.832 74.27C453.222 72.95 454.542 71.52 455.792 70C455.801 69.99 455.832 69.9501 455.842 69.9401C456.342 69.3301 456.801 68.75 457.241 68.16L457.332 68.03L457.361 67.99C457.821 67.36 458.222 66.79 458.582 66.26C458.632 66.19 458.691 66.1 458.741 66.01L458.802 65.91C459.112 65.44 459.472 64.88 459.822 64.29C459.902 64.15 459.982 64.01 460.062 63.87L460.171 63.67L460.231 63.5701C460.481 63.1301 460.741 62.69 460.971 62.24C461.101 61.99 461.232 61.7401 461.352 61.4801L461.491 61.2001L461.631 60.91C461.761 60.64 461.901 60.3801 462.021 60.1001C462.361 59.3601 462.681 58.62 462.971 57.89C465.001 52.7 466.011 47.9001 465.961 43.5901C465.951 42.9501 465.921 42.3201 465.871 41.7101C465.841 41.4101 465.822 41.13 465.792 40.87C465.721 40.25 465.652 39.72 465.562 39.24L465.552 39.1901C465.532 39.1101 465.521 39.0201 465.501 38.9401C465.251 37.3001 464.761 35.4601 464.011 33.3201C463.541 31.9601 463.051 30.71 462.521 29.49C460.951 25.87 459.271 22.85 457.521 20.5C457.501 20.47 457.481 20.45 457.461 20.42C457.011 19.86 456.511 19.2801 455.961 18.6801C454.371 16.9801 452.312 15.12 449.832 13.17C446.422 10.49 443.541 8.70999 441.011 7.73999C439.851 7.25999 438.572 6.81011 437.072 6.36011C433.002 5.13011 428.622 4.47 424.052 4.38C423.702 4.37 423.341 4.37 422.981 4.37C422.311 4.37 421.621 4.38003 420.931 4.41003C419.891 4.45003 418.811 4.5101 417.741 4.6001C416.781 4.6801 415.821 4.79003 414.881 4.91003C413.941 5.04003 412.992 5.19011 412.062 5.36011C410.202 5.71011 408.352 6.15005 406.552 6.68005C406.522 6.69005 406.491 6.70008 406.461 6.71008C405.691 6.94008 404.931 7.19006 404.211 7.44006C403.891 7.55006 403.581 7.67004 403.281 7.79004L402.981 7.90002L402.691 8.01001C402.471 8.09001 402.262 8.17 402.052 8.25C401.512 8.47 401.011 8.69004 400.511 8.92004L400.381 8.9801C400.271 9.0301 400.162 9.06999 400.062 9.12C399.532 9.37 399.001 9.63008 398.391 9.96008C398.331 9.99008 398.271 10.02 398.211 10.05C397.661 10.35 397.102 10.67 396.562 11.02C396.542 11.03 396.531 11.04 396.511 11.05C394.891 12.07 393.492 13.2101 392.352 14.4401C392.022 14.7401 391.701 15.07 391.371 15.42C391.041 15.72 390.721 16.04 390.401 16.39C390.071 16.69 389.751 17.0101 389.431 17.3601C389.101 17.6601 388.781 17.9801 388.461 18.3301C388.131 18.6301 387.811 18.95 387.491 19.3C387.161 19.6 386.841 19.92 386.521 20.27C386.191 20.57 385.872 20.89 385.552 21.24C385.542 21.25 385.531 21.26 385.521 21.27C385.051 20.06 384.521 18.9501 383.931 17.9501C383.831 17.7801 383.721 17.6201 383.611 17.4501L383.511 17.3C381.411 14.09 378.381 11.61 374.491 9.92004C374.171 9.77004 373.811 9.62999 373.461 9.48999L373.281 9.42004C371.491 8.71004 369.752 8.22009 368.102 7.97009L367.891 7.94006C367.661 7.90006 367.421 7.86009 367.201 7.84009C366.821 7.80009 366.411 7.77001 365.981 7.76001C365.771 7.75001 365.552 7.75 365.332 7.75C364.712 7.75 364.032 7.78008 363.322 7.83008C362.862 7.86008 362.371 7.91009 361.871 7.97009C360.481 8.15009 359.171 8.43006 357.951 8.81006C355.871 9.46006 353.972 10.4301 352.302 11.6801C352.292 11.6901 352.271 11.7001 352.261 11.7101C351.891 11.9901 351.521 12.3 351.121 12.66L351.011 12.77C350.671 13.08 350.362 13.3901 350.062 13.7101C349.682 14.0601 349.311 14.42 348.961 14.8C348.621 15.12 348.291 15.44 347.991 15.77C347.651 16.09 347.321 16.41 347.021 16.74C346.681 17.06 346.352 17.3801 346.052 17.7101C345.712 18.0301 345.382 18.3501 345.082 18.6801C344.742 19.0001 344.411 19.32 344.111 19.65C343.771 19.97 343.441 20.29 343.141 20.62C342.801 20.94 342.471 21.2601 342.171 21.5901C341.801 21.9301 341.461 22.27 341.141 22.62C339.511 24.15 338.271 25.93 337.431 27.92C336.501 26.12 335.331 24.1601 333.921 22.0601C333.641 21.6501 333.371 21.25 333.111 20.87C331.451 18.5 329.972 16.7 328.572 15.37C328.322 15.13 328.082 14.9101 327.842 14.7101C323.582 11.0501 317.862 8.0701 310.832 5.8501C309.972 5.5801 309.091 5.32008 308.221 5.08008C302.141 3.43008 295.932 2.58008 289.792 2.58008Z" fill="black"/>
<path d="M94.8417 71.8799C94.8017 71.5699 94.7616 71.13 94.7316 70.57C94.7016 70.02 94.6614 69.5799 94.6214 69.2599C93.5214 60.9899 90.3316 55.0899 85.0516 51.5399L82.0216 49.5399L83.4315 46.59C84.1215 45.14 84.6717 42.9599 85.0917 40.0599C85.5017 37.1599 85.5917 34.7599 85.3417 32.8699C84.9017 29.5599 83.2317 25.7799 80.3417 21.5099C77.7617 17.7699 73.7516 14.5499 68.3016 11.8699C62.8516 9.18988 57.3516 7.6999 51.7816 7.3899C47.9216 7.2599 43.9815 7.45988 39.9615 7.99988C29.4915 9.38988 22.3416 11.9899 18.5216 15.7799C18.2116 16.0799 17.9215 16.3799 17.6415 16.6699C17.6115 16.6999 17.5816 16.7199 17.5516 16.7499C17.2716 17.0299 17.0116 17.3 16.7516 17.57C16.6916 17.62 16.6316 17.67 16.5816 17.73C16.3016 18.01 16.0416 18.2799 15.7816 18.5399C15.7216 18.5899 15.6614 18.64 15.6114 18.7C15.3314 18.98 15.0716 19.2499 14.8116 19.5199C14.7516 19.5699 14.6915 19.6199 14.6415 19.6799C14.3615 19.9599 14.1017 20.2299 13.8417 20.4899C13.7817 20.5399 13.7215 20.5899 13.6715 20.6499C13.3915 20.9299 13.1314 21.2 12.8714 21.47C12.8114 21.52 12.7515 21.5699 12.7015 21.6299C12.4215 21.9099 12.1615 22.1799 11.9015 22.4399C11.8415 22.4899 11.7816 22.54 11.7316 22.6C11.4516 22.88 11.1915 23.1499 10.9315 23.4199C10.8715 23.4699 10.8116 23.52 10.7616 23.58C10.4816 23.86 10.2215 24.1299 9.96153 24.3899C9.90153 24.4399 9.84161 24.4899 9.79161 24.5499C9.51161 24.8199 9.26158 25.08 9.01158 25.35C8.95158 25.41 8.88164 25.4699 8.82164 25.5199C5.55164 28.6799 3.7615 31.4399 3.4315 33.8099C3.2815 34.4699 3.69148 39.6699 4.66148 49.3899C5.75148 59.9899 6.29162 66.8 6.30162 69.85C6.51162 73.83 6.83159 77.4699 7.27159 80.7799C8.43159 89.5199 9.77161 96 11.2916 100.2C14.6716 109.93 20.4016 115.7 28.4916 117.51C34.6116 118.94 41.8016 119.11 50.0716 118.01C55.1116 117.34 59.1515 116.36 62.1815 115.08C67.9815 112.68 72.7115 109.55 76.3915 105.72C76.7215 105.4 77.0514 105.08 77.3614 104.75C77.6914 104.43 78.0217 104.11 78.3316 103.78C78.6617 103.46 78.9916 103.14 79.3016 102.81C79.6316 102.49 79.9616 102.17 80.2716 101.84C80.6016 101.52 80.9316 101.2 81.2416 100.87C81.5716 100.55 81.9015 100.23 82.2115 99.8999C82.5415 99.5799 82.8715 99.2599 83.1815 98.9299C83.5115 98.6099 83.8415 98.29 84.1515 97.96C84.4815 97.64 84.8114 97.3199 85.1214 96.9899C88.9814 93.2899 91.7916 88.8799 93.5316 83.7499C94.4616 81.1399 94.9716 79.25 95.0616 78.08C95.1416 76.87 95.0717 74.8099 94.8417 71.8799Z" fill="black" stroke="black" stroke-width="2" stroke-miterlimit="10" stroke-linecap="round" stroke-linejoin="round"/>
<path d="M139.641 25.8099C139.461 20.4699 138.581 16.26 136.991 13.19C135.401 10.11 132.851 7.68992 129.361 5.90992C127.141 4.73992 125.042 3.99994 123.082 3.67994C121.832 3.47994 120.261 3.41991 118.401 3.51991C115.231 3.72991 112.471 4.60992 110.131 6.15992C109.161 6.79992 108.312 7.52997 107.582 8.32997C107.192 8.66997 106.841 9.0199 106.501 9.3899C106.151 9.6999 105.832 10.03 105.532 10.36C105.182 10.67 104.862 11 104.562 11.33C104.212 11.64 103.892 11.9699 103.592 12.2999C103.242 12.6099 102.921 12.9399 102.621 13.2699C102.271 13.5799 101.951 13.9099 101.651 14.2399C101.301 14.5499 100.981 14.88 100.681 15.21C100.331 15.52 100.011 15.8499 99.7115 16.1799C99.3415 16.5099 98.9914 16.87 98.6614 17.23C97.2214 18.55 96.1514 20.1099 95.4414 21.9299C94.9814 23.2999 93.8114 29.7499 91.9314 41.2799C86.8814 72.3299 84.4316 89.6 84.5916 93.08C84.9216 97.48 86.3015 101.12 88.7315 104.01C91.6315 107.46 95.2014 109.53 99.4314 110.22L100.842 110.45C106.132 110.92 110.202 109.54 113.062 106.31C113.402 106 113.722 105.69 114.032 105.34C114.372 105.03 114.691 104.72 115.001 104.37C115.341 104.06 115.661 103.75 115.971 103.4C116.311 103.09 116.631 102.78 116.941 102.43C117.281 102.12 117.601 101.81 117.911 101.46C118.251 101.15 118.571 100.84 118.881 100.49C119.221 100.18 119.542 99.8699 119.852 99.5199C120.192 99.2099 120.512 98.8999 120.822 98.5499C121.162 98.2399 121.482 97.93 121.792 97.58C122.842 96.63 123.762 95.47 124.542 94.09C126.302 91.16 128.601 83.9699 131.431 72.5099C134.261 61.0599 136.482 50.3599 138.102 40.3999C139.242 33.4299 139.751 28.5599 139.641 25.8099Z" fill="black" stroke="black" stroke-width="2" stroke-miterlimit="10" stroke-linecap="round" stroke-linejoin="round"/>
<path d="M226.832 78.0799C225.812 67.7999 224.342 61.0499 222.422 57.7999C221.542 56.2099 220.442 55.1199 219.102 54.5398C216.682 53.6199 213.072 53.2898 208.312 53.5398C208.422 53.4298 208.521 53.3099 208.621 53.1999C208.971 52.8899 209.292 52.5699 209.592 52.2299C209.942 51.9199 210.262 51.5998 210.562 51.2598C210.912 50.9498 211.232 50.6298 211.532 50.2898C211.882 49.9798 212.202 49.6599 212.502 49.3199C212.852 49.0099 213.172 48.6899 213.472 48.3499C213.822 48.0399 214.142 47.7198 214.442 47.3798C214.792 47.0698 215.111 46.7498 215.411 46.4098C215.761 46.0998 216.081 45.7799 216.381 45.4399C219.201 42.9199 220.622 39.3698 220.592 34.7698C220.572 34.6098 220.572 34.3699 220.582 34.0499C220.592 33.7299 220.582 33.4899 220.572 33.3299C220.232 29.9299 218.822 26.4399 216.352 22.8499C213.882 19.2599 210.952 16.4798 207.562 14.4998C204.082 12.4498 199.941 10.9498 195.141 9.9898C190.331 9.0298 185.722 8.76989 181.292 9.20989C178.762 9.45989 176.451 9.9298 174.361 10.6198C165.141 13.6798 157.802 18.0798 152.322 23.7898C151.992 24.1098 151.662 24.4298 151.352 24.7598C151.022 25.0798 150.691 25.3999 150.381 25.7299C150.051 26.0499 149.721 26.3699 149.411 26.6999C149.081 27.0199 148.752 27.3399 148.442 27.6699C148.112 27.9899 147.782 28.3098 147.472 28.6398C147.142 28.9598 146.812 29.2799 146.502 29.6099C146.172 29.9299 145.842 30.2499 145.532 30.5799C145.202 30.8999 144.872 31.2199 144.562 31.5499C144.232 31.8699 143.902 32.1898 143.592 32.5198C142.612 33.4798 141.662 34.4598 140.782 35.4998C131.552 46.2398 127.341 59.3099 128.151 74.7099C128.191 75.8999 128.302 77.4099 128.482 79.2299C128.732 81.7599 129.451 84.9599 130.631 88.8299C133.181 96.8799 135.832 102.64 138.572 106.12C139.842 107.67 141.992 109.63 145.022 112.01C148.052 114.38 150.452 116.04 152.222 116.98C155.172 118.52 158.032 119.46 160.822 119.78C163.612 120.1 167.772 119.99 173.302 119.44C179.942 118.78 184.402 117.9 186.692 116.79L190.242 115.12L194.342 116.63C196.992 117.64 199.752 118.01 202.592 117.73L203.062 117.68C208.232 117.17 212.001 115.61 214.401 113.02C214.841 112.65 215.241 112.25 215.611 111.83C215.961 111.52 216.282 111.2 216.582 110.86C216.932 110.55 217.252 110.23 217.552 109.89C217.902 109.58 218.222 109.26 218.522 108.92C218.872 108.61 219.192 108.29 219.492 107.95C219.842 107.64 220.162 107.32 220.462 106.98C220.812 106.67 221.132 106.35 221.432 106.01C221.782 105.7 222.101 105.38 222.401 105.04C222.821 104.67 223.212 104.28 223.562 103.87C225.132 102.4 226.212 100.55 226.782 98.3199C227.752 94.1499 227.762 87.3999 226.832 78.0799ZM188.802 60.6598C188.442 60.9798 188.112 61.2998 187.832 61.6298C187.472 61.9498 187.141 62.2699 186.861 62.5999C186.501 62.9199 186.171 63.2399 185.891 63.5699C185.531 63.8899 185.202 64.2098 184.922 64.5398C184.562 64.8598 184.232 65.1798 183.952 65.5098C183.592 65.8298 183.262 66.1499 182.982 66.4799C182.572 66.8299 182.211 67.1999 181.901 67.5799C181.171 68.2299 180.592 68.8999 180.172 69.6099C180.062 69.7899 179.981 70.0099 179.881 70.2099C179.871 70.1899 179.852 70.1798 179.842 70.1598C178.532 68.2198 177.702 65.4598 177.342 61.9098C177.102 59.4598 177.182 57.4898 177.592 56.0198C177.692 55.6498 177.812 55.2899 177.952 54.9299C178.942 54.5099 179.902 54.2498 180.842 54.1598C181.792 54.0698 183.312 54.9499 185.411 56.8199C186.911 58.0499 188.462 58.8898 190.062 59.3698C189.962 59.4698 189.872 59.5799 189.782 59.6799C189.412 59.9999 189.082 60.3298 188.802 60.6598Z" fill="black" stroke="black" stroke-width="2" stroke-miterlimit="10" stroke-linecap="round" stroke-linejoin="round"/>
<path d="M339.602 82.9098C339.202 81.4798 338.071 78.7598 336.201 74.7498C334.331 70.7398 332.491 67.1798 330.661 64.0898L329.471 62.0598L331.971 59.4398C334.351 56.9798 335.882 54.7698 336.562 52.8298C337.232 50.8798 337.572 47.7299 337.572 43.3599C337.492 38.2799 336.971 34.4998 336.021 32.0398C335.071 29.6598 333.541 26.8998 331.431 23.7598C329.331 20.6198 327.481 18.3798 325.891 17.0298C321.921 13.6198 316.591 10.8498 309.921 8.74976C303.251 6.63976 296.531 5.58984 289.781 5.58984H288.832C284.942 5.74984 282.751 5.86983 282.281 5.94983C281.091 6.26983 278.711 7.17982 275.131 8.68982C271.551 10.1998 269.131 11.3498 267.861 12.1398C266.931 12.6598 266.092 13.3598 265.342 14.2098C265.002 14.5098 264.681 14.8298 264.371 15.1798C264.031 15.4798 263.711 15.7998 263.401 16.1498C263.061 16.4498 262.741 16.7698 262.431 17.1198C262.091 17.4198 261.771 17.7398 261.461 18.0898C261.121 18.3898 260.801 18.7098 260.491 19.0598C260.151 19.3598 259.831 19.6798 259.521 20.0298C259.181 20.3298 258.862 20.6498 258.552 20.9998C258.212 21.2998 257.892 21.6198 257.582 21.9698C257.242 22.2698 256.921 22.5898 256.611 22.9398C255.341 24.0498 254.281 25.5398 253.451 27.4398C252.301 30.0598 251.401 33.8698 250.771 38.8798C250.291 42.6898 250.052 46.3498 250.052 49.8398C250.052 53.8098 250.211 59.1398 250.531 65.8098V65.9298C250.691 70.2198 250.811 73.2799 250.891 75.1099C251.611 92.1899 252.441 102.32 253.391 105.5C253.941 107.48 255.342 109.59 257.562 111.82C259.312 113.64 261.071 114.88 262.861 115.51C264.651 116.14 267.251 116.5 270.671 116.58H271.741C279.331 116.58 284.872 114.65 288.342 110.79C288.682 110.48 289.012 110.16 289.312 109.82C289.652 109.51 289.981 109.19 290.281 108.85C290.621 108.54 290.951 108.22 291.251 107.88C291.591 107.57 291.921 107.25 292.221 106.91C292.561 106.6 292.891 106.28 293.191 105.94C293.531 105.63 293.861 105.31 294.161 104.97C294.501 104.66 294.831 104.34 295.131 104C295.191 103.94 295.262 103.89 295.322 103.84C295.902 104.36 296.582 104.96 297.342 105.64C304.092 111.91 309.931 115.05 314.861 115.05C315.731 115.05 316.411 115.01 316.891 114.93C320.881 114.48 324.071 112.91 326.491 110.24C326.831 109.93 327.151 109.61 327.461 109.27C327.801 108.96 328.121 108.64 328.431 108.3C328.771 107.99 329.091 107.67 329.401 107.33C329.741 107.02 330.061 106.7 330.371 106.36C330.711 106.05 331.032 105.73 331.342 105.39C331.682 105.08 332.002 104.76 332.312 104.42C332.652 104.11 332.971 103.79 333.281 103.45C333.621 103.14 333.941 102.82 334.251 102.48C334.591 102.17 334.911 101.85 335.221 101.51C335.701 101.07 336.172 100.61 336.602 100.1C339.062 97.1599 340.292 93.4298 340.292 88.8998C340.312 86.8898 340.072 84.8998 339.602 82.9098Z" fill="black" stroke="black" stroke-width="2" stroke-miterlimit="10" stroke-linecap="round" stroke-linejoin="round"/>
<path d="M384.782 31.9199C384.282 26.5999 383.151 22.45 381.371 19.48C379.591 16.51 376.912 14.2399 373.322 12.6699C371.032 11.6399 368.901 11.0199 366.921 10.8199C365.661 10.6899 364.091 10.7299 362.241 10.9399C359.091 11.3399 356.391 12.3799 354.141 14.0699C353.421 14.6099 352.771 15.2099 352.201 15.8399C351.811 16.1799 351.451 16.5399 351.121 16.9199C350.781 17.2299 350.451 17.5599 350.151 17.8899C349.811 18.1999 349.481 18.53 349.181 18.86C348.841 19.17 348.511 19.4999 348.211 19.8299C347.871 20.1399 347.541 20.4699 347.241 20.7999C346.901 21.1099 346.572 21.4399 346.272 21.7699C345.932 22.0799 345.602 22.4098 345.302 22.7398C344.962 23.0498 344.632 23.3799 344.332 23.7099C343.972 24.0399 343.632 24.3699 343.322 24.7199C341.682 26.2399 340.512 28.0399 339.842 30.1399C339.462 31.5399 338.681 38.0499 337.501 49.6699C334.321 80.9699 332.922 98.3499 333.282 101.82C333.872 106.19 335.472 109.75 338.072 112.49C341.172 115.76 344.861 117.61 349.121 118.04L350.542 118.18C355.512 118.32 359.321 116.9 361.971 113.93C362.311 113.63 362.631 113.3 362.941 112.96C363.281 112.66 363.601 112.33 363.911 111.99C364.251 111.69 364.581 111.36 364.881 111.02C365.221 110.72 365.542 110.39 365.852 110.05C366.192 109.75 366.512 109.42 366.822 109.08C367.162 108.78 367.482 108.45 367.792 108.11C368.132 107.81 368.462 107.48 368.762 107.14C369.102 106.84 369.421 106.51 369.731 106.17C370.071 105.87 370.401 105.54 370.701 105.2C371.951 104.08 373.002 102.68 373.822 100.99C375.402 97.9598 377.271 90.6399 379.401 79.0399C381.541 67.4399 383.111 56.6199 384.131 46.5799C384.851 39.5499 385.062 34.6599 384.782 31.9199Z" fill="black" stroke="black" stroke-width="2" stroke-miterlimit="10" stroke-linecap="round" stroke-linejoin="round"/>
<path d="M460.212 56.77C462.382 51.25 463.281 46.31 462.911 41.95C462.821 40.84 462.712 40.0101 462.582 39.4701C462.212 37.0301 461.292 34.1 459.812 30.67C458.332 27.25 456.781 24.45 455.161 22.27C453.551 20.25 451.172 18 448.012 15.52C444.852 13.04 442.162 11.37 439.942 10.52C433.582 7.86998 426.282 6.89003 418.052 7.58003C414.412 7.89003 410.882 8.54001 407.452 9.55001C401.422 11.37 397.122 13.71 394.512 16.55C394.162 16.87 393.842 17.19 393.542 17.52C393.192 17.84 392.872 18.1599 392.572 18.4899C392.222 18.8099 391.902 19.13 391.602 19.46C391.252 19.78 390.931 20.1 390.631 20.43C390.281 20.75 389.961 21.07 389.661 21.4C389.311 21.72 388.992 22.04 388.692 22.37C388.342 22.69 388.022 23.01 387.722 23.34C387.372 23.66 387.052 23.98 386.752 24.31C386.402 24.63 386.072 24.96 385.772 25.29C385.332 25.69 384.912 26.1 384.552 26.52C381.972 29.49 380.472 33.7 380.052 39.16C379.892 41.01 380.272 47.51 381.212 58.67C383.192 82.18 384.882 97.98 386.272 106.08C387.822 115.04 391.802 120.12 398.202 121.34C399.822 121.6 401.582 121.65 403.472 121.49C406.802 121.21 409.452 120.59 411.452 119.62C414.102 118.44 416.152 117.04 417.572 115.42C417.922 115.1 418.252 114.78 418.542 114.45C418.892 114.13 419.222 113.81 419.512 113.48C419.862 113.16 420.192 112.84 420.482 112.51C420.832 112.19 421.162 111.87 421.452 111.54C421.802 111.22 422.131 110.9 422.421 110.57C422.771 110.25 423.101 109.93 423.391 109.6C423.741 109.28 424.071 108.96 424.361 108.63C424.711 108.31 425.042 107.99 425.332 107.66C425.682 107.34 426.012 107.02 426.302 106.69C427.202 105.87 427.942 104.99 428.492 104.04C429.852 101.69 430.571 98.17 430.651 93.46C430.681 92.82 430.681 91.98 430.681 90.95C430.691 90.1 430.712 89.34 430.722 88.63C433.972 86.91 437.062 84.6501 439.992 81.8601C440.322 81.5401 440.632 81.22 440.952 80.9L440.962 80.89C441.292 80.57 441.611 80.24 441.931 79.92C442.261 79.6 442.581 79.27 442.901 78.95C443.231 78.63 443.551 78.3001 443.871 77.9801C444.201 77.6601 444.522 77.33 444.842 77.01C445.172 76.69 445.492 76.36 445.812 76.04C446.142 75.72 446.462 75.39 446.782 75.07C447.112 74.75 447.432 74.4201 447.752 74.1001C448.082 73.7801 448.402 73.45 448.722 73.13C449.052 72.81 449.372 72.48 449.692 72.16C449.942 71.93 450.161 71.68 450.401 71.45C450.411 71.44 450.411 71.44 450.421 71.43C454.771 67.1 458.032 62.23 460.212 56.77Z" fill="black" stroke="black" stroke-width="2" stroke-miterlimit="10" stroke-linecap="round" stroke-linejoin="round"/>
<path d="M18.5116 15.7897C22.3316 11.9997 29.4815 9.39971 39.9515 8.00971C43.9715 7.47971 47.9116 7.26973 51.7716 7.39973C57.3416 7.69973 62.8516 9.18971 68.2916 11.8797C73.7416 14.5597 77.7516 17.7797 80.3316 21.5197C83.2216 25.7797 84.8916 29.5697 85.3316 32.8797C85.5816 34.7697 85.5016 37.1698 85.0816 40.0698C84.6616 42.9698 84.1115 45.1498 83.4215 46.5998L82.0116 49.5498L85.0416 51.5498C90.3216 55.0998 93.5114 60.9997 94.6114 69.2697C94.6514 69.5797 94.6915 70.0198 94.7215 70.5798C94.7515 71.1398 94.7916 71.5697 94.8316 71.8897C95.0616 74.8197 95.1316 76.8798 95.0516 78.0498C94.9716 79.2197 94.4516 81.1198 93.5216 83.7198C90.1816 93.5398 82.9614 100.75 71.8714 105.35C68.8314 106.63 64.8016 107.61 59.7616 108.28C51.4916 109.38 44.3015 109.21 38.1815 107.78C30.0915 105.97 24.3515 100.2 20.9815 90.4698C19.4615 86.2698 18.1215 79.7897 16.9615 71.0498C16.5215 67.7397 16.2015 64.0997 15.9915 60.1197C15.9915 57.0797 15.4417 50.2597 14.3517 39.6597C13.3817 29.9297 12.9714 24.7398 13.1214 24.0798C13.4414 21.7098 15.2416 18.9497 18.5116 15.7897ZM53.7315 34.7897C52.1015 33.3997 50.3515 32.8398 48.4615 33.0898C46.1815 33.3898 44.6216 34.6798 43.8016 36.9498C43.5716 37.6198 43.4916 38.2297 43.5616 38.7897C43.6116 39.1797 43.9416 39.8198 44.5416 40.6998C45.9116 42.5998 47.5116 43.4298 49.3216 43.1898C50.0316 43.0998 50.7215 42.8798 51.4015 42.5498C52.5415 42.0798 53.5716 41.2797 54.5116 40.1497C55.4416 39.0297 55.8516 38.0297 55.7416 37.1597C55.6416 36.5397 54.9715 35.7497 53.7315 34.7897ZM60.3614 68.4097C58.9914 67.7897 57.2915 67.6197 55.2416 67.8897C53.3516 68.1397 51.9714 68.6397 51.1114 69.3997C49.6514 70.4797 49.0316 71.8397 49.2516 73.4897C49.4916 75.2997 50.5615 76.7197 52.4615 77.7497C53.7615 78.4597 55.3914 78.6797 57.3614 78.4197C59.0114 78.1997 60.4615 77.6497 61.7115 76.7597C62.9515 75.8697 63.5816 74.8297 63.5816 73.6297C63.5616 73.4697 63.5516 73.2697 63.5616 73.0297C63.5716 72.7897 63.5716 72.6298 63.5616 72.5498C63.2916 70.5798 62.2214 69.1997 60.3614 68.4097Z" fill="#73C2AF" stroke="black" stroke-width="2" stroke-miterlimit="10" stroke-linecap="round" stroke-linejoin="round"/>
<path d="M118.391 3.51984C120.261 3.41984 121.822 3.46988 123.072 3.67988C125.032 3.99988 127.122 4.73986 129.352 5.90986C132.842 7.67986 135.391 10.1099 136.981 13.1899C138.571 16.2699 139.461 20.4699 139.631 25.8099C139.741 28.5699 139.242 33.4299 138.102 40.4099C136.482 50.3699 134.261 61.0698 131.431 72.5198C128.601 83.9698 126.302 91.1699 124.542 94.0999C121.712 99.1099 117.042 101.33 110.542 100.76L109.131 100.53C104.901 99.8399 101.331 97.7699 98.4314 94.3199C96.0014 91.4299 94.6215 87.7898 94.2915 83.3898C94.1315 79.8998 96.5814 62.6299 101.631 31.5899C103.511 20.0599 104.681 13.6098 105.141 12.2398C106.111 9.73981 107.771 7.71987 110.111 6.16987C112.461 4.60987 115.221 3.72984 118.391 3.51984Z" fill="white" stroke="black" stroke-width="2" stroke-miterlimit="10" stroke-linecap="round" stroke-linejoin="round"/>
<path d="M174.381 10.5999C176.471 9.90988 178.772 9.43984 181.312 9.18984C185.742 8.74984 190.351 9.00987 195.161 9.96987C199.972 10.9299 204.112 12.4299 207.582 14.4799C210.972 16.4599 213.901 19.2399 216.371 22.8299C218.841 26.4199 220.252 29.9098 220.592 33.3098C220.612 33.4698 220.612 33.7098 220.602 34.0298C220.592 34.3498 220.601 34.5898 220.611 34.7498C220.651 42.4098 216.741 47.1899 208.861 49.0899C206.201 49.6699 204.562 49.9998 203.932 50.0598C200.852 50.3698 197.911 49.3799 195.131 47.0999C193.031 45.2299 191.502 44.3498 190.562 44.4398C188.112 44.6798 185.512 46.0199 182.762 48.4499C180.012 50.8799 178.282 53.4098 177.592 56.0298C177.182 57.5098 177.092 59.4698 177.342 61.9198C177.692 65.4798 178.532 68.2298 179.842 70.1698C181.252 72.3498 183.082 74.0398 185.312 75.2498C187.542 76.4698 189.651 76.9698 191.631 76.7798C192.741 76.6698 193.632 76.3798 194.302 75.9198C195.042 75.3698 195.392 74.8098 195.332 74.2598C195.242 73.3098 194.332 72.5998 192.602 72.1398C190.212 71.4198 188.912 69.9098 188.682 67.6198C188.632 67.1498 188.621 66.2698 188.661 64.9898C188.761 62.8198 189.171 61.1298 189.891 59.8998C190.611 58.6698 191.792 57.5398 193.442 56.4898C195.712 55.2298 199.492 54.3298 204.792 53.8098C211.352 53.1598 216.121 53.3998 219.111 54.5398C220.451 55.1298 221.552 56.2098 222.432 57.7998C224.352 61.0398 225.822 67.7999 226.842 78.0799C227.772 87.4099 227.762 94.1498 226.822 98.3198C225.382 103.97 220.712 107.19 212.812 107.97L212.342 108.02C209.502 108.3 206.742 107.94 204.092 106.93L199.992 105.42L196.442 107.09C194.152 108.19 189.692 109.08 183.052 109.74C177.522 110.29 173.362 110.41 170.572 110.08C167.782 109.76 164.922 108.82 161.972 107.28C160.202 106.34 157.802 104.68 154.772 102.31C151.742 99.9398 149.592 97.9798 148.322 96.4198C145.582 92.9398 142.931 87.1798 140.371 79.1298C139.191 75.2598 138.472 72.0598 138.222 69.5298C138.042 67.7098 137.931 66.2098 137.891 65.0098C137.081 49.5998 141.292 36.5298 150.522 25.7998C156.152 19.0798 164.101 14.0199 174.381 10.5999Z" fill="#73C2AF" stroke="black" stroke-width="2" stroke-miterlimit="10" stroke-linecap="round" stroke-linejoin="round"/>
<path d="M282.281 5.94006C282.761 5.86006 284.942 5.74008 288.832 5.58008H289.781C296.531 5.58008 303.251 6.62999 309.921 8.73999C316.591 10.85 321.911 13.61 325.891 17.02C327.481 18.37 329.331 20.61 331.431 23.75C333.531 26.89 335.061 29.65 336.021 32.03C336.971 34.49 337.492 38.2701 337.572 43.3501C337.572 47.7201 337.232 50.8801 336.562 52.8201C335.882 54.7701 334.351 56.9701 331.971 59.4301L329.471 62.05L330.661 64.0801C332.491 67.1801 334.331 70.73 336.201 74.74C338.071 78.75 339.202 81.47 339.602 82.9C340.082 84.89 340.312 86.8701 340.312 88.8601C340.312 93.3901 339.081 97.1201 336.621 100.06C334.161 103 330.821 104.71 326.611 105.18C326.131 105.26 325.462 105.3 324.582 105.3C319.652 105.3 313.822 102.16 307.062 95.89C303.962 93.11 302.331 91.7201 302.171 91.7201C301.931 91.7201 301.812 92.2 301.812 93.15C301.812 94.18 301.251 95.81 300.141 98.04C297.041 103.92 290.801 106.86 281.431 106.86H280.361C276.941 106.78 274.342 106.42 272.552 105.79C270.762 105.15 268.991 103.92 267.251 102.1C265.031 99.8701 263.632 97.77 263.082 95.78C262.132 92.6 261.292 82.47 260.582 65.39C260.502 63.56 260.381 60.5001 260.221 56.2101V56.0901C259.901 49.4201 259.741 44.1 259.741 40.12C259.741 36.62 259.981 32.97 260.461 29.16C261.091 24.16 261.991 20.3401 263.141 17.7201C264.291 15.1001 265.862 13.23 267.852 12.12C269.122 11.33 271.541 10.17 275.121 8.67004C278.711 7.17004 281.091 6.26006 282.281 5.94006ZM300.511 38.1101C299.641 37.0801 298.841 36.5601 298.131 36.5601C296.861 36.5601 295.831 37.0801 295.031 38.1101C294.241 39.1401 293.842 40.37 293.842 41.8C293.842 44.1 294.752 45.7701 296.582 46.8L298.842 47.99L300.391 46.3201C301.341 45.1301 301.822 43.74 301.822 42.15C301.822 40.57 301.381 39.2201 300.511 38.1101Z" fill="white" stroke="black" stroke-width="2" stroke-miterlimit="10" stroke-linecap="round" stroke-linejoin="round"/>
<path d="M362.242 10.9499C364.102 10.7399 365.661 10.6999 366.921 10.8299C368.901 11.0299 371.032 11.6499 373.322 12.6799C376.912 14.2399 379.601 16.5098 381.371 19.4898C383.141 22.4698 384.282 26.6099 384.782 31.9299C385.062 34.6699 384.841 39.5599 384.131 46.5899C383.111 56.6299 381.531 67.4499 379.401 79.0499C377.261 90.6499 375.402 97.9699 373.822 101C371.302 106.17 366.772 108.67 360.242 108.48L358.822 108.34C354.552 107.91 350.872 106.05 347.772 102.79C345.172 100.05 343.582 96.4998 342.982 92.1199C342.612 88.6498 344.021 71.2599 347.201 39.9699C348.381 28.3499 349.162 21.8399 349.542 20.4399C350.362 17.8899 351.891 15.7699 354.141 14.0799C356.381 12.3899 359.092 11.3499 362.242 10.9499Z" fill="#73C2AF" stroke="black" stroke-width="2" stroke-miterlimit="10" stroke-linecap="round" stroke-linejoin="round"/>
<path d="M407.451 9.55001C410.871 8.54001 414.401 7.89003 418.051 7.58003C426.281 6.89003 433.581 7.86998 439.941 10.52C442.161 11.37 444.861 13.04 448.011 15.52C451.171 18.01 453.551 20.26 455.161 22.27C456.781 24.45 458.331 27.25 459.811 30.67C461.291 34.09 462.221 37.0301 462.581 39.4701C462.701 40.0201 462.821 40.85 462.911 41.95C463.281 46.3 462.381 51.24 460.211 56.77C457.901 62.55 454.411 67.66 449.721 72.1199C445.031 76.5799 439.931 79.68 434.421 81.42C434.111 81.53 433.761 81.64 433.371 81.75C432.121 82.09 431.371 82.6799 431.121 83.4899C430.871 84.3099 430.721 86.79 430.671 90.94C430.681 91.98 430.671 92.81 430.641 93.45C430.561 98.16 429.841 101.69 428.481 104.03C427.121 106.37 424.681 108.34 421.141 109.91C419.151 110.87 416.491 111.5 413.171 111.78C411.271 111.94 409.511 111.89 407.901 111.63C401.501 110.41 397.521 105.33 395.971 96.3699C394.571 88.28 392.881 72.47 390.911 48.96C389.971 37.8 389.581 31.3 389.751 29.45C390.171 23.99 391.671 19.78 394.251 16.81C396.831 13.85 401.231 11.43 407.451 9.55001ZM427.281 37.77C426.451 37.44 425.841 37.29 425.451 37.33C424.821 37.38 424.071 37.97 423.211 39.07C422.261 40.11 421.841 41.26 421.951 42.52C422.061 43.79 422.621 44.8201 423.641 45.6101C424.501 46.3401 425.321 46.6601 426.111 46.6001C427.221 46.5101 428.411 45.45 429.671 43.43C430.181 42.83 430.411 42.33 430.381 41.93C430.351 41.54 430.101 40.92 429.631 40.08C428.821 38.96 428.041 38.19 427.281 37.77Z" fill="white" stroke="black" stroke-width="2" stroke-miterlimit="10" stroke-linecap="round" stroke-linejoin="round"/>
</svg>
