<svg width="1922" height="775" viewBox="0 0 1922 775" fill="none" xmlns="http://www.w3.org/2000/svg">
<path d="M340.117 59.7718C341.36 59.5129 350.006 59.4093 366.005 59.4093H383.92C416.435 59.9271 443.462 63.6032 465.053 70.4376C472.664 72.7158 478.463 75.4599 482.398 78.6183C486.333 81.7766 490.216 86.7989 493.996 93.6851C497.827 100.312 499.691 107.25 499.691 114.603C499.691 127.547 494.721 139.507 484.832 150.38C481.259 154.419 477.894 157.214 474.735 158.768C471.577 160.269 466.813 161.046 460.445 161.046C452.316 161.046 436.473 159.544 412.863 156.49C399.401 154.729 390.754 153.849 386.975 153.849C384.179 153.849 382.004 154.729 380.503 156.49C378.742 158.768 377.81 162.185 377.81 166.793V172.903L393.032 174.404C401.42 175.181 411.931 175.543 424.616 175.543C435.282 175.543 442.634 176.32 446.724 177.821C451.022 179.323 455.319 182.378 459.461 186.986C463.655 191.542 466.503 196.254 468.056 201.069C471.111 210.699 472.612 219.346 472.612 226.957C472.612 239.124 468.677 248.806 460.807 255.9C454.957 261.233 449.106 264.702 443.307 266.359C437.456 268.015 426.687 269.465 410.947 270.76C392.152 272.054 382.16 273.297 380.865 274.591C379.571 275.885 379.467 278.785 380.503 283.341C381.279 286.914 382.16 288.985 383.143 289.606C384.179 290.227 387.182 290.538 392.256 290.538C397.589 290.538 407.633 289.503 422.338 287.483C435.8 285.464 445.948 284.429 452.782 284.429C466.503 284.429 477.013 288.622 484.366 297.01C494.514 308.711 499.588 323.778 499.588 342.314C499.588 349.925 498.293 356.138 495.756 360.954C490.941 370.118 482.243 376.901 469.661 381.302C457.08 385.754 437.715 388.602 411.568 389.845C399.401 390.363 390.237 390.621 384.179 390.621C344.57 390.621 316.922 386.686 301.182 378.816C286.477 371.464 276.691 359.349 271.876 342.47C267.061 325.591 264.11 292.764 263.126 244.043C262.867 233.377 262.764 217.534 262.764 196.461C262.764 178.184 262.867 166.897 263.126 162.547C264.162 148.309 266.284 132.983 269.598 116.467C272.912 99.9501 275.915 89.4395 278.711 84.8832C283.008 77.7898 288.445 72.8711 294.917 70.2305C301.44 67.5899 316.507 64.121 340.117 59.7718Z" fill="black" stroke="black" stroke-width="10.3552" stroke-miterlimit="10"/>
<path d="M798.335 47.6036C809.519 44.5488 821.169 43.0472 833.388 43.0472C834.889 43.0472 838.099 43.0991 842.915 43.2544C847.73 43.4097 851.82 43.4615 855.082 43.4615C873.1 43.9792 884.905 44.497 890.497 44.963C896.089 45.4808 902.561 46.9822 909.913 49.5193C932.746 56.8715 952.887 70.5922 970.284 90.6295C987.681 110.667 998.502 132.413 1002.85 155.764C1004.35 163.634 1005.13 172.281 1005.13 181.652C1005.13 198.893 1002.64 216.808 997.725 235.344C992.755 253.88 986.127 269.879 977.74 283.34C972.666 291.469 964.744 301.307 953.923 312.853C943.153 324.399 934.921 331.958 929.381 335.531C914.159 345.161 892.93 351.892 865.8 355.723C855.393 357.225 847.626 358.002 842.552 358.002C840.274 358.002 834.32 357.484 824.638 356.5C783.786 351.167 759.037 334.806 750.391 307.365C747.595 298.2 746.197 270.293 746.197 223.591C746.197 196.667 746.715 172.436 747.698 150.845C749.976 98.5513 753.031 70.3851 756.811 66.2948C762.144 60.1852 775.968 53.972 798.335 47.6036ZM871.443 147.739C868.906 146.496 866.991 145.823 865.748 145.823C863.729 145.823 860.519 147.998 856.221 152.295C848.351 160.165 844.416 175.542 844.416 198.376C844.416 209.818 846.125 218.672 849.542 225.04C852.959 231.409 857.619 234.567 863.418 234.567C864.661 234.567 866.317 234.308 868.389 233.791C873.204 232.755 876.828 230.322 879.261 226.387C881.695 222.452 883.507 216.187 884.802 207.54C885.319 204.744 885.578 200.447 885.578 194.596C885.578 184.189 884.232 174.352 881.591 165.084C878.847 155.816 875.482 150.017 871.443 147.739Z" fill="black" stroke="black" stroke-width="10.3552" stroke-miterlimit="10"/>
<path d="M1424.21 63.0851C1430.78 58.0628 1436.94 54.8526 1442.69 53.5064C1448.44 52.1603 1457.39 51.7978 1469.56 52.4709L1470.6 52.5745C1504.15 55.6811 1528.12 73.6474 1542.46 106.422C1547.33 117.191 1550.13 122.628 1550.85 122.731C1551.57 122.783 1552.14 120.142 1552.66 114.809C1554.06 99.4319 1559.29 87.6787 1568.25 79.6016C1573.37 74.8899 1578.24 71.8352 1582.85 70.3854C1587.46 68.9357 1593.57 68.5733 1601.28 69.2463C1603.61 69.4535 1608.74 70.1783 1616.61 71.3692C1630.22 73.8027 1640.16 77.4788 1646.43 82.3975C1652.69 87.3163 1657.82 95.8593 1661.86 107.975C1665.38 118.382 1667.4 129.514 1667.97 141.319C1668.54 153.124 1667.71 170.779 1665.53 194.338C1662.53 226.749 1657.66 256.883 1650.83 284.79C1644 312.698 1637.21 330.354 1630.43 337.706C1626.55 341.796 1620.54 345.369 1612.52 348.372C1603.97 351.582 1593.67 352.876 1581.5 352.203L1575.18 351.634C1560.01 350.236 1548.21 346.145 1539.67 339.363C1531.12 332.58 1522.94 320.827 1515.07 304.155C1509.12 292.35 1505.8 286.137 1505.13 285.619C1504.92 285.36 1504.56 285.567 1503.99 286.24C1503.68 287.172 1503.42 288.415 1503.27 290.072C1502.54 297.786 1498.97 305.863 1492.55 314.303C1486.13 322.742 1478.88 328.852 1470.75 332.58C1466.3 334.754 1459.83 336.463 1451.23 337.654C1442.64 338.845 1435.34 339.207 1429.28 338.638C1405.05 336.411 1390.91 318.756 1386.93 285.723C1384.75 265.996 1385.79 233.118 1390.03 186.934C1390.29 184.397 1390.65 180.72 1391.22 175.957C1391.79 171.194 1392.16 167.621 1392.36 165.291C1396.09 132.724 1400.18 109.218 1404.69 94.6685C1409.45 80.1194 1415.87 69.6088 1424.21 63.0851Z" fill="black" stroke="black" stroke-width="10.3552" stroke-miterlimit="10"/>
<path d="M217.82 451.769C229.833 439.446 252.562 430.851 285.958 425.881C298.747 423.965 311.328 423.136 323.703 423.395C341.514 424.12 359.169 428.625 376.721 436.909C394.274 445.245 407.218 455.289 415.657 467.146C425.08 480.66 430.62 492.672 432.174 503.182C433.054 509.188 432.899 516.851 431.708 526.171C430.517 535.439 428.86 542.429 426.737 547.14L422.388 556.667L432.174 562.932C449.208 574.012 459.667 592.755 463.602 619.109C463.757 620.093 463.913 621.491 464.016 623.303C464.171 625.063 464.275 626.461 464.43 627.497C465.31 636.868 465.621 643.444 465.414 647.172C465.207 650.952 463.654 657.009 460.806 665.345C450.606 696.877 427.876 720.28 392.669 735.502C383.038 739.748 370.198 743.061 354.095 745.443C327.741 749.326 304.753 749.171 285.129 744.873C259.19 739.489 240.55 721.315 229.315 690.405C224.241 677.047 219.684 656.44 215.542 628.532C213.989 617.97 212.746 606.372 211.918 593.635C211.763 583.901 209.692 562.155 205.705 528.346C202.132 497.332 200.579 480.712 201.045 478.589C201.873 470.926 207.517 462.02 217.82 451.769ZM331.262 510.794C325.981 506.444 320.337 504.736 314.331 505.616C307.031 506.703 302.164 510.897 299.627 518.197C298.902 520.372 298.695 522.34 298.954 524.048C299.161 525.291 300.196 527.31 302.164 530.106C306.668 536.112 311.794 538.701 317.541 537.821C319.82 537.51 321.994 536.785 324.169 535.698C327.793 534.145 331.055 531.556 334.006 527.88C336.957 524.255 338.2 521.045 337.786 518.301C337.423 516.282 335.301 513.797 331.262 510.794ZM354.044 617.918C349.643 616.003 344.206 615.537 337.682 616.52C331.676 617.401 327.275 619.109 324.583 621.543C319.975 625.063 318.059 629.464 318.836 634.694C319.716 640.493 323.185 644.946 329.295 648.156C333.488 650.382 338.718 651.003 344.983 650.071C350.264 649.295 354.872 647.431 358.807 644.583C362.742 641.684 364.658 638.318 364.606 634.487C364.554 633.969 364.502 633.348 364.502 632.571C364.502 631.794 364.502 631.277 364.451 631.018C363.519 624.701 360.05 620.352 354.044 617.918Z" fill="black" stroke="black" stroke-width="10.3552" stroke-miterlimit="10"/>
<path d="M732.683 420.962C739.259 414.853 745.627 410.814 751.737 408.795C757.846 406.775 767.477 405.481 780.68 404.963H781.819C818.373 404.963 846.021 421.998 864.816 455.963C871.132 467.146 874.705 472.738 875.482 472.738C876.258 472.738 876.621 469.839 876.621 463.988C876.621 447.213 881.073 434.062 889.927 424.379C895.001 418.788 899.972 415.008 904.787 412.937C909.602 410.918 916.229 409.882 924.565 409.882C927.102 409.882 932.694 410.141 941.341 410.659C956.304 411.953 967.436 414.904 974.633 419.616C981.882 424.328 988.302 433.026 993.842 445.711C998.657 456.636 1001.97 468.441 1003.73 481.126C1005.49 493.811 1006.37 512.968 1006.37 538.598C1006.37 573.909 1004.09 606.942 999.537 637.801C994.981 668.659 989.389 688.386 982.762 697.033C978.93 701.848 972.873 706.301 964.485 710.339C955.579 714.636 944.551 717.07 931.348 717.588H924.514C907.997 717.588 894.794 714.378 884.905 707.854C875.016 701.382 864.971 689.525 854.823 672.232C847.212 660.064 843.018 653.696 842.241 653.178C841.982 652.919 841.62 653.178 841.102 653.955C840.843 654.99 840.74 656.388 840.74 658.149C840.74 666.536 837.685 675.597 831.627 685.383C825.518 695.169 818.321 702.469 809.933 707.284C805.377 710.08 798.49 712.566 789.378 714.688C780.213 716.863 772.344 717.898 765.768 717.898C739.362 717.898 722.38 700.243 714.768 664.983C710.471 643.91 708.296 608.237 708.296 557.962C708.296 555.166 708.348 551.179 708.504 545.95C708.607 540.772 708.711 536.889 708.711 534.352C709.487 498.833 711.558 472.997 714.976 456.843C718.393 440.844 724.295 428.832 732.683 420.962Z" fill="black" stroke="black" stroke-width="10.3552" stroke-miterlimit="10"/>
<path d="M1338.26 435.719C1339.55 435.563 1348.15 435.926 1364.15 436.909L1382.01 437.997C1414.42 440.482 1441.19 445.763 1462.31 453.892C1469.77 456.636 1475.36 459.691 1479.14 463.108C1482.87 466.525 1486.44 471.755 1489.81 478.848C1493.22 485.682 1494.67 492.724 1494.26 500.076C1493.48 513.02 1487.84 524.618 1477.28 534.922C1473.5 538.753 1469.98 541.342 1466.71 542.688C1463.45 544.034 1458.64 544.5 1452.32 544.086C1444.19 543.62 1428.45 541.135 1405.1 536.63C1391.79 534.041 1383.2 532.643 1379.42 532.385C1376.62 532.229 1374.45 532.954 1372.79 534.663C1370.88 536.837 1369.79 540.203 1369.53 544.759L1369.17 550.817L1384.29 553.25C1392.62 554.493 1403.08 555.528 1415.77 556.305C1426.43 556.926 1433.73 558.169 1437.67 559.93C1441.86 561.69 1445.95 565.004 1449.84 569.819C1453.72 574.634 1456.31 579.501 1457.55 584.42C1459.98 594.257 1461.02 602.955 1460.55 610.567C1459.83 622.734 1455.32 632.105 1447.04 638.733C1440.88 643.703 1434.87 646.81 1428.92 648.104C1422.96 649.399 1412.14 650.227 1396.35 650.538C1377.5 650.693 1367.46 651.314 1366.11 652.505C1364.77 653.696 1364.46 656.596 1365.18 661.204C1365.7 664.828 1366.48 666.951 1367.46 667.624C1368.44 668.297 1371.45 668.815 1376.52 669.125C1381.85 669.436 1391.9 669.022 1406.76 667.883C1420.32 666.692 1430.52 666.278 1437.36 666.692C1451.03 667.52 1461.28 672.336 1468.16 681.137C1477.59 693.408 1481.73 708.786 1480.64 727.27C1480.18 734.881 1478.52 740.991 1475.72 745.651C1470.34 754.504 1461.28 760.717 1448.44 764.393C1435.6 768.07 1416.13 769.726 1389.93 769.416C1377.71 769.209 1368.6 768.898 1362.54 768.536C1323.04 766.154 1295.65 760.562 1280.37 751.76C1266.13 743.528 1257.07 730.843 1253.29 713.705C1249.51 696.567 1248.58 663.637 1250.5 614.916C1250.91 604.25 1251.74 588.406 1252.98 567.385C1254.07 549.16 1254.9 537.873 1255.42 533.575C1257.28 519.441 1260.39 504.27 1264.68 487.961C1268.98 471.703 1272.66 461.348 1275.71 456.947C1280.42 450.112 1286.12 445.556 1292.75 443.278C1299.17 441.155 1314.44 438.566 1338.26 435.719Z" fill="black" stroke="black" stroke-width="10.3552" stroke-miterlimit="10"/>
<path d="M187.066 64.5868C191.571 63.8101 194.884 63.3441 196.904 63.1888C209.848 62.4122 221.497 65.3634 231.956 72.0943C242.415 78.8252 249.922 88.3003 254.531 100.468C257.844 109.166 260.381 119.262 262.142 130.705C263.85 142.199 265.87 162.34 268.199 191.179C269.028 200.551 270.012 213.961 271.099 231.461C274.93 292.764 274.827 330.198 270.788 343.66C264.006 365.924 249.767 377.884 228.021 379.489C216.889 380.162 206.845 377.574 197.939 371.619C189.034 365.665 182.613 357.381 178.678 346.663C176.556 340.968 174.07 329.888 171.274 313.527L167.495 289.709L147.406 292.091C134.047 293.955 127.109 295.146 126.643 295.664C126.177 296.182 125.815 303.068 125.66 316.322C125.349 339.984 121.673 356.863 114.683 366.959C106.554 379.179 94.594 385.754 78.9058 386.738C70.0521 387.308 62.7517 386.79 57.0563 385.237C51.3609 383.683 45.7173 380.525 40.0737 375.813C30.4434 368.254 23.9713 356.138 20.6577 339.415C17.344 322.691 13.8232 284.325 10.0953 224.264L8.07607 191.594C5.69437 152.813 5.33193 129.307 7.1441 121.075C10.2507 105.645 17.1369 93.6332 27.8028 85.0902C31.686 82.0354 34.9996 80.1197 37.7438 79.343C40.4879 78.5664 46.2868 77.8415 55.1406 77.3237C67.308 76.5471 76.8865 77.6344 83.9281 80.4821C93.0407 84.2617 99.8752 90.7337 104.431 100.002C108.936 109.27 112.353 123.715 114.58 143.442L117.376 169.951L158.02 167.414L156.415 128.996C155.793 111.237 155.638 100.053 155.845 95.4454C156.052 90.8373 156.984 87.213 158.589 84.5724C165.993 73.7512 175.52 67.072 187.066 64.5868Z" fill="black" stroke="black" stroke-width="10.3552" stroke-miterlimit="10"/>
<path d="M636.017 68.4186C638.088 68.108 640.004 68.0044 641.764 68.1597C650.359 68.9364 661.025 72.1465 673.762 77.8937C700.271 89.4398 719.739 108.338 732.165 134.692C739 149.345 744.333 163.531 748.06 177.407C751.788 191.232 755.93 211.269 760.487 237.364C765.768 269.672 767.58 294.939 765.975 313.164C764.473 330.095 759.555 345.214 751.219 358.52C746.455 366.235 741.847 371.982 737.446 375.658C733.045 379.334 726.78 382.493 718.652 385.082C711.765 387.774 701.98 388.965 689.294 388.602C688.259 388.499 686.757 388.447 684.738 388.395C682.719 388.343 681.321 388.292 680.544 388.24C672.933 387.567 667.083 386.169 662.94 383.994C658.798 381.82 654.397 377.988 649.841 372.5C640.366 361.472 634.722 346.405 632.807 327.403C631.771 318.912 630.011 314.148 627.577 313.164C626.852 312.854 626.076 312.647 625.351 312.595C624.057 312.491 621.261 316.944 616.911 326.005C613.494 333.098 608.42 340.554 601.741 348.372C595.062 356.19 589.159 361.523 584.085 364.371C568.501 373.173 552.761 376.901 536.865 375.451C522.472 374.157 509.735 368.876 498.706 359.659C487.678 350.392 479.808 338.017 475.045 322.588C472.663 314.718 472.249 302.602 473.699 286.137C475.2 269.206 480.067 247.202 488.351 220.175C502.434 173.524 515.223 142.821 526.769 128.013C541.991 108.493 557.938 93.53 574.507 83.123C591.075 72.7678 606.504 67.9526 620.691 68.6775C629.338 68.8328 634.412 68.7811 636.017 68.4186ZM641.868 217.637C643.524 213.185 644.612 208.473 645.026 203.399C645.854 193.769 644.819 184.967 641.816 176.941C638.813 168.916 634.412 164.619 628.613 164.101C626.594 163.946 624.937 164.049 623.59 164.412C620.432 165.395 617.274 170.107 614.116 178.495C610.957 186.882 608.99 195.115 608.265 203.192C608.058 205.729 608.058 208.525 608.265 211.58C608.834 216.498 610.698 220.899 613.753 224.886C616.86 228.873 620.173 230.996 623.694 231.306C628.509 231.721 632.134 230.996 634.619 229.028C637.156 227.112 639.538 223.281 641.868 217.637Z" fill="black" stroke="black" stroke-width="10.3552" stroke-miterlimit="10"/>
<path d="M1277.26 45.8958C1279.13 45.4298 1280.89 45.1709 1282.55 45.1709C1290.52 45.1709 1300.56 47.2937 1312.73 51.4876C1338 59.9271 1357.41 75.7188 1370.98 98.8627C1378.49 111.755 1384.49 124.388 1389.05 136.763C1393.61 149.189 1399.04 167.207 1405.36 190.817C1412.87 220.071 1416.59 243.111 1416.59 259.99C1416.59 275.678 1413.33 289.969 1406.76 302.809C1403.03 310.317 1399.25 315.908 1395.52 319.636C1391.79 323.364 1386.25 326.781 1379 329.836C1372.89 332.891 1364.04 334.755 1352.34 335.428C1351.41 335.428 1350.01 335.48 1348.15 335.583C1346.28 335.687 1344.99 335.739 1344.26 335.739C1337.22 335.739 1331.73 334.91 1327.75 333.305C1323.76 331.648 1319.41 328.49 1314.75 323.83C1305.17 314.459 1298.7 301.152 1295.44 283.807C1293.78 276.093 1291.81 271.847 1289.48 271.174C1288.76 270.967 1288.09 270.811 1287.36 270.811C1286.17 270.811 1283.94 275.161 1280.68 283.807C1278.09 290.59 1274.05 297.838 1268.57 305.553C1263.08 313.268 1258.11 318.653 1253.65 321.707C1240.09 331.079 1225.9 335.739 1211.2 335.739C1197.84 335.739 1185.72 331.907 1174.85 324.348C1163.98 316.737 1155.75 306.019 1150.1 292.247C1147.31 285.205 1145.91 274.125 1145.91 258.903C1145.91 243.215 1148.6 222.608 1153.99 197.134C1163.1 153.124 1172.37 123.871 1181.74 109.373C1194.11 90.1643 1207.52 75.1493 1221.92 64.2763C1236.31 53.4033 1250.03 47.7079 1263.18 47.2419C1271.15 46.8277 1275.87 46.3617 1277.26 45.8958ZM1294.82 182.429C1296.01 178.236 1296.58 173.783 1296.58 169.071C1296.58 160.166 1294.87 152.192 1291.5 145.047C1288.09 137.902 1283.74 134.329 1278.35 134.329C1276.49 134.329 1274.93 134.588 1273.8 135.054C1271 136.245 1268.46 140.801 1266.24 148.723C1264.01 156.697 1262.92 164.411 1262.92 171.867C1262.92 174.197 1263.13 176.786 1263.65 179.582C1264.58 184.035 1266.65 187.969 1269.81 191.335C1272.97 194.752 1276.18 196.409 1279.44 196.409C1283.89 196.409 1287.15 195.425 1289.28 193.406C1291.3 191.49 1293.16 187.814 1294.82 182.429Z" fill="black" stroke="black" stroke-width="10.3552" stroke-miterlimit="10"/>
<path d="M1711.67 45.5326C1722.13 43.358 1732.95 42.5813 1744.13 43.2544C1745.53 43.358 1748.43 43.5651 1752.88 43.9793C1757.28 44.3417 1761.06 44.6524 1764.06 44.8077C1780.63 46.2575 1791.45 47.3965 1796.58 48.1732C1801.71 48.9498 1807.56 50.7102 1814.18 53.4543C1834.79 61.4797 1852.55 75.2521 1867.46 94.6164C1882.32 114.032 1891.12 134.588 1893.82 156.334C1894.8 163.686 1895.01 171.659 1894.49 180.306C1893.56 196.201 1890.24 212.511 1884.7 229.286C1879.11 246.062 1872.12 260.404 1863.63 272.312C1858.5 279.509 1850.69 288.104 1840.12 298.148C1829.56 308.193 1821.59 314.665 1816.25 317.616C1801.71 325.642 1781.82 330.664 1756.61 332.683C1746.93 333.512 1739.78 333.77 1735.12 333.512C1733 333.408 1727.56 332.58 1718.76 331.13C1681.43 323.985 1659.58 307.52 1653.16 281.839C1651.09 273.296 1651.35 247.511 1653.94 204.537C1655.44 179.788 1657.25 157.524 1659.37 137.694C1664.4 89.6976 1668.74 63.9649 1672.47 60.3923C1677.7 55.1112 1690.75 50.1407 1711.67 45.5326ZM1773.38 141.733C1771.11 140.438 1769.4 139.713 1768.26 139.662C1766.39 139.558 1763.34 141.37 1759.15 145.098C1751.48 151.881 1746.98 165.809 1745.74 186.83C1745.11 197.34 1746.2 205.624 1749 211.63C1751.79 217.636 1755.88 220.847 1761.27 221.157C1762.41 221.209 1763.96 221.106 1765.88 220.743C1770.38 220.07 1773.85 217.999 1776.28 214.53C1778.72 211.061 1780.74 205.366 1782.39 197.496C1783.01 194.959 1783.48 191.024 1783.79 185.639C1784.36 176.06 1783.69 166.948 1781.72 158.249C1779.8 149.603 1777.01 144.063 1773.38 141.733Z" fill="black" stroke="black" stroke-width="10.3552" stroke-miterlimit="10"/>
<path d="M594.959 420.289C596.978 419.772 598.894 419.513 600.654 419.513C609.301 419.513 620.225 421.791 633.428 426.347C660.818 435.511 681.891 452.598 696.647 477.761C704.776 491.74 711.3 505.409 716.27 518.871C721.241 532.333 727.143 551.852 733.978 577.533C742.107 609.272 746.145 634.28 746.145 652.557C746.145 669.592 742.572 685.073 735.479 699C731.389 707.129 727.35 713.239 723.312 717.277C719.221 721.316 713.267 725.044 705.397 728.306C698.77 731.619 689.14 733.639 676.454 734.415C675.419 734.415 673.917 734.467 671.898 734.622C669.879 734.726 668.481 734.829 667.704 734.829C660.093 734.829 654.139 733.949 649.79 732.137C645.492 730.377 640.781 726.908 635.707 721.834C625.3 711.685 618.31 697.188 614.789 678.445C613.029 670.058 610.854 665.501 608.317 664.724C607.54 664.466 606.815 664.362 606.039 664.362C604.744 664.362 602.363 669.074 598.79 678.445C595.994 685.797 591.593 693.667 585.639 702.055C579.685 710.443 574.248 716.294 569.433 719.556C554.729 729.704 539.351 734.778 523.352 734.778C508.907 734.778 495.756 730.636 483.951 722.403C472.146 714.171 463.188 702.521 457.131 687.558C454.076 679.947 452.574 667.883 452.574 651.366C452.574 634.384 455.474 612.016 461.324 584.368C471.214 536.63 481.258 504.892 491.406 489.152C504.868 468.338 519.417 452.028 535.002 440.223C550.587 428.418 565.498 422.257 579.737 421.739C588.383 421.273 593.457 420.807 594.959 420.289ZM614.012 568.421C615.307 563.865 615.928 559.049 615.928 553.975C615.928 544.345 614.064 535.647 610.388 527.88C606.712 520.114 601.948 516.282 596.098 516.282C594.078 516.282 592.422 516.541 591.127 517.059C588.072 518.353 585.328 523.272 582.947 531.919C580.513 540.565 579.322 548.953 579.322 557.03C579.322 559.567 579.581 562.363 580.099 565.418C581.134 570.233 583.309 574.479 586.778 578.155C590.195 581.831 593.664 583.695 597.237 583.695C602.052 583.695 605.625 582.608 607.903 580.485C610.181 578.258 612.2 574.22 614.012 568.421Z" fill="black" stroke="black" stroke-width="10.3552" stroke-miterlimit="10"/>
<path d="M1137 426.035C1143.94 425.052 1151.5 424.896 1159.58 425.569C1173.76 426.709 1188.11 430.178 1202.66 435.925C1217.2 441.672 1229.37 448.765 1239.16 457.205C1248.68 465.334 1256.3 475.792 1262.04 488.478C1267.79 501.163 1270.22 512.968 1269.34 523.841C1269.29 524.358 1269.19 525.083 1268.98 526.119C1268.77 527.103 1268.67 527.879 1268.62 528.397C1264.37 552.525 1249.36 565.313 1223.52 566.815C1214.82 567.126 1209.49 567.229 1207.47 567.074C1197.58 566.297 1188.93 561.534 1181.48 552.783C1175.94 545.742 1171.64 542.066 1168.59 541.807C1160.72 541.186 1151.81 543.878 1141.77 549.988C1131.72 556.097 1124.89 563.035 1121.16 570.853C1119.04 575.254 1117.64 581.416 1117.02 589.234C1116.09 600.625 1117.17 609.737 1120.18 616.624C1123.39 624.286 1128.15 630.655 1134.52 635.729C1140.83 640.803 1147.2 643.599 1153.52 644.117C1157.04 644.376 1160.04 644.013 1162.43 642.926C1165.07 641.631 1166.46 640.078 1166.62 638.318C1166.88 635.263 1164.39 632.519 1159.27 630.085C1152.17 626.461 1148.91 620.973 1149.53 613.62C1149.64 612.119 1150.1 609.323 1150.98 605.336C1152.54 598.605 1154.81 593.48 1157.77 590.011C1160.72 586.542 1165.07 583.642 1170.87 581.312C1178.74 578.62 1191.11 577.998 1208.09 579.345C1229.11 581.053 1243.97 584.522 1252.72 589.803C1256.61 592.392 1259.45 596.431 1261.32 601.971C1265.51 613.258 1266.29 635.367 1263.65 668.244C1261.27 698.119 1257.38 719.296 1252.05 731.877C1244.34 748.808 1227.82 756.264 1202.5 754.244L1201 754.141C1191.89 753.416 1183.45 750.672 1175.68 746.012L1163.67 738.919L1151.55 742.129C1143.73 744.303 1129.19 744.511 1107.96 742.854C1090.25 741.456 1077.1 739.437 1068.5 736.796C1059.91 734.207 1051.42 729.651 1043.03 723.075C1038.01 719.089 1031.38 712.513 1023.2 703.349C1015.02 694.132 1009.38 686.78 1006.27 681.188C999.641 668.71 994.567 649.035 991.15 622.267C989.649 609.427 989.183 598.916 989.856 590.839C990.322 585.04 990.839 580.225 991.409 576.445C997.622 527.517 1018.33 488.84 1053.44 460.311C1074.82 442.293 1102.73 430.902 1137 426.035Z" fill="black" stroke="black" stroke-width="10.3552" stroke-miterlimit="10"/>
<path d="M1529.67 424.017C1531.17 423.603 1538.06 422.412 1550.33 420.496L1553.33 420.134C1574.77 417.649 1596.46 418.581 1618.42 422.775C1640.37 427.02 1658.29 433.855 1672.16 443.226C1677.7 446.954 1684.38 453.374 1692.2 462.59C1700.02 471.806 1705.87 479.987 1709.8 487.184C1713.74 494.64 1716.74 506.445 1718.86 522.547C1720.47 536.423 1720.52 546.571 1719.12 552.992C1717.67 559.412 1713.63 566.971 1706.95 575.669L1699.96 584.886L1704.47 590.892C1711.41 600.056 1718.55 610.67 1725.96 622.734C1733.36 634.798 1737.92 643.03 1739.73 647.431C1741.96 653.541 1743.46 659.806 1744.18 666.071C1745.84 680.464 1743.3 692.735 1736.57 702.987C1729.84 713.187 1719.85 719.866 1706.64 722.921C1705.14 723.335 1703.02 723.698 1700.28 724.06C1684.64 725.872 1664.96 718.054 1641.25 700.554C1630.38 692.839 1624.73 689.059 1624.22 689.111C1623.44 689.215 1623.23 690.768 1623.6 693.771C1623.96 697.033 1622.82 702.417 1620.07 709.873C1612.41 729.652 1593.67 741.301 1563.9 744.719L1560.48 745.133C1549.61 746.116 1541.22 745.961 1535.32 744.563C1529.41 743.217 1523.36 739.955 1517.14 734.777C1509.27 728.513 1504.1 722.351 1501.61 716.242C1497.42 706.508 1491.05 674.665 1482.56 620.715C1481.62 614.967 1480.12 605.285 1478.05 591.72L1478 591.358C1474.53 570.285 1472.1 553.457 1470.65 540.824C1469.35 529.744 1468.78 518.043 1468.89 505.772C1469.1 489.669 1470.49 477.243 1473.24 468.493C1475.93 459.743 1480.23 453.271 1486.13 448.973C1489.86 445.97 1497.16 441.466 1507.93 435.356C1518.8 429.247 1526 425.467 1529.67 424.017ZM1599.31 519.492C1596.15 516.541 1593.46 515.195 1591.18 515.454C1587.14 515.92 1584.04 517.939 1581.92 521.512C1579.74 525.084 1578.96 529.123 1579.48 533.679C1580.31 540.979 1583.83 545.95 1589.99 548.591L1597.6 551.542L1601.9 545.691C1604.49 541.549 1605.47 536.993 1604.9 531.919C1604.39 526.845 1602.52 522.702 1599.31 519.492Z" fill="black" stroke="black" stroke-width="10.3552" stroke-miterlimit="10"/>
<path d="M362.07 22.7523C363.312 22.4934 371.959 22.3899 387.958 22.3899H405.873C438.388 22.9077 465.415 26.5837 487.006 33.4182C494.617 35.6963 500.416 38.4405 504.351 41.5988C508.286 44.7571 512.169 49.7795 515.949 56.6657C519.78 63.293 521.644 70.231 521.644 77.5832C521.644 90.5273 516.673 102.488 506.784 113.361C503.212 117.399 499.846 120.195 496.688 121.748C493.529 123.25 488.766 124.026 482.398 124.026C474.269 124.026 458.425 122.525 434.815 119.47C421.354 117.71 412.707 116.83 408.927 116.83C406.131 116.83 403.957 117.71 402.455 119.47C400.695 121.748 399.763 125.166 399.763 129.774V135.883L414.985 137.385C423.373 138.161 433.883 138.524 446.569 138.524C457.234 138.524 464.587 139.3 468.677 140.802C472.974 142.303 477.272 145.358 481.414 149.966C485.608 154.523 488.455 159.234 490.009 164.049C493.064 173.68 494.565 182.326 494.565 189.938C494.565 202.105 490.63 211.787 482.76 218.88C476.909 224.213 471.059 227.682 465.26 229.339C459.409 230.996 448.64 232.446 432.9 233.74C414.105 235.035 404.112 236.277 402.818 237.572C401.523 238.866 401.42 241.765 402.455 246.322C403.232 249.894 404.112 251.965 405.096 252.587C406.131 253.208 409.134 253.519 414.208 253.519C419.541 253.519 429.586 252.483 444.29 250.464C457.752 248.445 467.9 247.409 474.735 247.409C488.455 247.409 498.966 251.603 506.318 259.991C516.466 271.692 521.54 286.759 521.54 305.295C521.54 312.906 520.246 319.119 517.709 323.934C512.894 333.099 504.195 339.881 491.614 344.282C479.032 348.735 459.668 351.583 433.521 352.825C421.354 353.343 412.189 353.602 406.131 353.602C366.523 353.602 338.874 349.667 323.134 341.797C308.43 334.445 298.644 322.329 293.829 305.45C289.014 288.571 286.062 255.745 285.079 207.024C284.82 196.358 284.716 180.514 284.716 159.441C284.716 141.164 284.82 129.877 285.079 125.528C286.114 111.29 288.237 95.9638 291.551 79.4472C294.864 62.9306 297.867 52.4201 300.663 47.8638C304.961 40.7704 310.397 35.8517 316.869 33.2111C323.393 30.5705 338.46 27.1015 362.07 22.7523Z" fill="white" stroke="black" stroke-width="10.3552" stroke-miterlimit="10" stroke-linecap="round" stroke-linejoin="round"/>
<path d="M820.288 10.5842C831.472 7.52937 843.122 6.02783 855.341 6.02783C856.842 6.02783 860.053 6.07957 864.868 6.2349C869.683 6.39023 873.773 6.44205 877.035 6.44205C895.053 6.95981 906.858 7.47754 912.45 7.94352C918.042 8.46129 924.514 9.96282 931.866 12.4999C954.699 19.8521 974.84 33.5728 992.237 53.6101C1009.63 73.6475 1020.46 95.3935 1024.8 118.745C1026.31 126.615 1027.08 135.261 1027.08 144.633C1027.08 161.874 1024.6 179.789 1019.68 198.324C1014.71 216.86 1008.08 232.859 999.693 246.321C994.619 254.45 986.697 264.287 975.876 275.833C965.106 287.379 956.874 294.939 951.334 298.511C936.112 308.142 914.883 314.873 887.753 318.704C877.346 320.206 869.579 320.982 864.505 320.982C862.227 320.982 856.273 320.464 846.591 319.481C805.739 314.148 780.99 297.786 772.344 270.345C769.548 261.181 768.15 233.273 768.15 186.571C768.15 159.648 768.668 135.416 769.651 113.826C771.93 61.5318 774.984 33.3657 778.764 29.2754C784.097 23.1658 797.921 16.9526 820.288 10.5842ZM893.396 110.719C890.859 109.477 888.944 108.803 887.701 108.803C885.682 108.803 882.472 110.978 878.174 115.275C870.304 123.145 866.369 138.523 866.369 161.356C866.369 172.799 868.078 181.653 871.495 188.021C874.912 194.389 879.572 197.548 885.371 197.548C886.614 197.548 888.271 197.289 890.342 196.771C895.157 195.736 898.781 193.302 901.215 189.367C903.648 185.432 905.46 179.167 906.755 170.521C907.272 167.725 907.531 163.427 907.531 157.577C907.531 147.17 906.185 137.332 903.545 128.064C900.8 118.796 897.435 112.997 893.396 110.719Z" fill="white" stroke="black" stroke-width="10.3552" stroke-miterlimit="10" stroke-linecap="round" stroke-linejoin="round"/>
<path d="M1446.16 26.0655C1452.73 21.0432 1458.9 17.8331 1464.64 16.487C1470.39 15.1408 1479.35 14.7783 1491.51 15.4514L1492.55 15.5549C1526.1 18.6615 1550.07 36.6279 1564.42 69.4022C1569.28 80.1716 1572.08 85.6081 1572.8 85.7117C1573.53 85.7634 1574.1 83.1228 1574.62 77.7899C1576.01 62.4124 1581.24 50.6592 1590.2 42.5821C1595.33 37.8705 1600.19 34.8157 1604.8 33.366C1609.41 31.9162 1615.52 31.5538 1623.23 32.2269C1625.56 32.434 1630.69 33.1589 1638.56 34.3497C1652.18 36.7832 1662.12 40.4592 1668.38 45.378C1674.65 50.2967 1679.77 58.8398 1683.81 70.9554C1687.33 81.3624 1689.35 92.4943 1689.92 104.299C1690.49 116.104 1689.66 133.76 1687.49 157.318C1684.48 189.73 1679.62 219.864 1672.78 247.771C1665.95 275.678 1659.17 293.334 1652.38 300.686C1648.5 304.777 1642.49 308.349 1634.47 311.352C1625.93 314.562 1615.62 315.857 1603.45 315.184L1597.14 314.614C1581.97 313.216 1570.16 309.126 1561.62 302.343C1553.08 295.56 1544.9 283.807 1537.03 267.135C1531.07 255.33 1527.76 249.117 1527.08 248.599C1526.88 248.34 1526.52 248.548 1525.95 249.221C1525.63 250.153 1525.38 251.395 1525.22 253.052C1524.5 260.767 1520.92 268.844 1514.5 277.283C1508.08 285.723 1500.83 291.833 1492.71 295.56C1488.25 297.735 1481.78 299.444 1473.19 300.634C1464.59 301.825 1457.29 302.188 1451.23 301.618C1427 299.392 1412.87 281.736 1408.88 248.703C1406.71 228.976 1407.74 196.098 1411.99 149.914C1412.25 147.377 1412.61 143.701 1413.18 138.938C1413.75 134.174 1414.11 130.602 1414.32 128.272C1418.04 95.7045 1422.13 72.1981 1426.64 57.649C1431.4 43.0999 1437.82 32.5893 1446.16 26.0655Z" fill="white" stroke="black" stroke-width="10.3552" stroke-miterlimit="10" stroke-linecap="round" stroke-linejoin="round"/>
<path d="M239.775 414.749C251.787 402.427 274.517 393.832 307.912 388.861C320.701 386.946 333.283 386.117 345.657 386.376C363.468 387.101 381.124 391.605 398.676 399.89C416.228 408.225 429.172 418.27 437.612 430.127C447.035 443.64 452.575 455.652 454.128 466.163C455.009 472.169 454.853 479.832 453.662 489.152C452.472 498.42 450.815 505.409 448.692 510.121L444.343 519.648L454.128 525.913C471.163 536.993 481.621 555.736 485.556 582.09C485.712 583.074 485.867 584.471 485.971 586.284C486.126 588.044 486.23 589.442 486.385 590.478C487.265 599.849 487.576 606.425 487.369 610.153C487.161 613.932 485.608 619.99 482.761 628.326C472.561 659.858 449.831 683.26 414.623 698.483C404.993 702.728 392.152 706.042 376.05 708.424C349.696 712.307 326.707 712.152 307.084 707.854C281.144 702.469 262.505 684.296 251.269 653.385C246.195 640.027 241.639 619.42 237.497 591.513C235.944 580.951 234.701 569.353 233.873 556.616C233.717 546.882 231.646 525.136 227.659 491.326C224.087 460.312 222.534 443.692 223 441.569C223.88 433.906 229.472 425.001 239.775 414.749ZM353.217 473.774C347.936 469.425 342.292 467.716 336.286 468.596C328.985 469.684 324.118 473.878 321.581 481.178C320.857 483.353 320.649 485.32 320.908 487.029C321.115 488.271 322.151 490.291 324.118 493.087C328.623 499.093 333.749 501.682 339.496 500.801C341.774 500.491 343.949 499.766 346.123 498.679C349.748 497.125 353.01 494.536 355.961 490.86C358.912 487.236 360.155 484.026 359.74 481.282C359.378 479.262 357.255 476.777 353.217 473.774ZM375.998 580.847C371.597 578.932 366.161 578.465 359.637 579.449C353.631 580.329 349.23 582.038 346.537 584.471C341.929 587.992 340.014 592.393 340.79 597.623C341.671 603.422 345.14 607.874 351.249 611.084C355.443 613.311 360.672 613.932 366.937 613C372.218 612.224 376.827 610.36 380.762 607.512C384.697 604.612 386.612 601.247 386.56 597.415C386.509 596.898 386.457 596.276 386.457 595.5C386.457 594.723 386.457 594.205 386.405 593.947C385.473 587.682 382.004 583.332 375.998 580.847Z" fill="white" stroke="black" stroke-width="10.3552" stroke-miterlimit="10" stroke-linecap="round" stroke-linejoin="round"/>
<path d="M754.636 383.942C761.211 377.832 767.58 373.793 773.689 371.774C779.799 369.755 789.429 368.46 802.632 367.943H803.771C840.325 367.943 867.974 384.977 886.768 418.942C893.085 430.126 896.658 435.718 897.434 435.718C898.211 435.718 898.573 432.818 898.573 426.967C898.573 410.192 903.026 397.041 911.88 387.359C916.954 381.767 921.924 377.987 926.74 375.916C931.555 373.897 938.182 372.861 946.518 372.861C949.055 372.861 954.647 373.12 963.293 373.638C978.257 374.932 989.389 377.884 996.586 382.595C1003.83 387.307 1010.25 396.005 1015.79 408.691C1020.61 419.615 1023.92 431.42 1025.68 444.105C1027.44 456.791 1028.32 475.948 1028.32 501.577C1028.32 536.888 1026.05 569.921 1021.49 600.78C1016.93 631.639 1011.34 651.365 1004.71 660.012C1000.88 664.827 994.825 669.28 986.437 673.318C977.532 677.616 966.504 680.049 953.301 680.567H946.466C929.95 680.567 916.747 677.357 906.857 670.833C896.968 664.361 886.924 652.504 876.776 635.211C869.164 623.044 864.971 616.675 864.194 616.158C863.935 615.899 863.573 616.158 863.055 616.934C862.796 617.97 862.692 619.368 862.692 621.128C862.692 629.516 859.638 638.577 853.58 648.362C847.47 658.148 840.273 665.448 831.886 670.264C827.329 673.059 820.443 675.545 811.33 677.668C802.166 679.842 794.296 680.878 787.721 680.878C761.315 680.878 744.332 663.222 736.721 627.963C732.424 606.89 730.249 571.216 730.249 520.941C730.249 518.145 730.301 514.158 730.456 508.929C730.56 503.751 730.663 499.868 730.663 497.331C731.44 461.813 733.511 435.977 736.928 419.822C740.345 403.772 746.248 391.811 754.636 383.942Z" fill="white" stroke="black" stroke-width="10.3552" stroke-miterlimit="10" stroke-linecap="round" stroke-linejoin="round"/>
<path d="M1360.21 398.698C1361.5 398.542 1370.1 398.905 1386.1 399.889L1403.96 400.976C1436.37 403.461 1463.14 408.742 1484.27 416.871C1491.72 419.615 1497.31 422.67 1501.09 426.087C1504.82 429.505 1508.39 434.734 1511.76 441.827C1515.18 448.662 1516.63 455.703 1516.21 463.056C1515.44 476 1509.79 487.597 1499.23 497.901C1495.45 501.732 1491.93 504.321 1488.67 505.667C1485.41 507.013 1480.59 507.48 1474.27 507.065C1466.14 506.599 1450.4 504.114 1427.05 499.61C1413.75 497.021 1405.15 495.623 1401.37 495.364C1398.58 495.209 1396.4 495.933 1394.75 497.642C1392.83 499.817 1391.74 503.182 1391.48 507.738L1391.12 513.796L1406.24 516.23C1414.58 517.472 1425.03 518.508 1437.72 519.284C1448.39 519.906 1455.69 521.148 1459.62 522.909C1463.81 524.669 1467.9 527.983 1471.79 532.798C1475.67 537.613 1478.26 542.48 1479.5 547.399C1481.94 557.236 1482.97 565.935 1482.51 573.546C1481.78 585.713 1477.28 595.085 1468.99 601.712C1462.83 606.683 1456.82 609.789 1450.87 611.084C1444.92 612.378 1434.1 613.206 1418.3 613.517C1399.46 613.672 1389.41 614.294 1388.07 615.485C1386.72 616.675 1386.41 619.575 1387.13 624.183C1387.65 627.807 1388.43 629.93 1389.41 630.603C1390.4 631.276 1393.4 631.794 1398.47 632.105C1403.81 632.415 1413.85 632.001 1428.71 630.862C1442.28 629.671 1452.48 629.257 1459.31 629.671C1472.98 630.5 1483.23 635.315 1490.12 644.117C1499.54 656.388 1503.68 671.765 1502.6 690.249C1502.13 697.86 1500.47 703.97 1497.68 708.63C1492.29 717.484 1483.23 723.697 1470.39 727.373C1457.55 731.049 1438.08 732.706 1411.88 732.395C1399.66 732.188 1390.55 731.877 1384.49 731.515C1344.99 729.133 1317.6 723.541 1302.32 714.739C1288.09 706.507 1279.03 693.822 1275.25 676.684C1271.47 659.546 1270.53 626.616 1272.45 577.895C1272.86 567.229 1273.69 551.386 1274.94 530.365C1276.02 512.139 1276.85 500.852 1277.37 496.555C1279.23 482.42 1282.34 467.249 1286.64 450.94C1290.93 434.682 1294.61 424.327 1297.66 419.926C1302.38 413.092 1308.07 408.535 1314.7 406.257C1321.17 404.134 1336.39 401.546 1360.21 398.698Z" fill="white" stroke="black" stroke-width="10.3552" stroke-miterlimit="10" stroke-linecap="round" stroke-linejoin="round"/>
<path d="M209.019 27.5674C213.524 26.7907 216.838 26.3247 218.857 26.1694C231.801 25.3927 243.45 28.344 253.909 35.0749C264.368 41.8058 271.876 51.2808 276.484 63.4482C279.797 72.1466 282.334 82.2429 284.095 93.6855C285.803 105.18 287.823 125.321 290.153 154.16C290.981 163.532 291.965 176.942 293.052 194.442C296.883 255.745 296.78 293.179 292.741 306.641C285.959 328.905 271.72 340.865 249.974 342.47C238.842 343.143 228.798 340.554 219.892 334.6C210.987 328.646 204.567 320.361 200.632 309.644C198.509 303.948 196.024 292.868 193.228 276.507L189.448 252.69L169.359 255.072C156.001 256.936 149.063 258.127 148.597 258.644C148.131 259.162 147.768 266.048 147.613 279.303C147.302 302.965 143.626 319.844 136.636 329.94C128.507 342.159 116.547 348.735 100.859 349.719C92.0052 350.288 84.7048 349.77 79.0094 348.217C73.3141 346.664 67.6705 343.505 62.0269 338.794C52.3965 331.234 45.9245 319.119 42.6108 302.395C39.2971 285.671 35.7763 247.305 32.0485 187.245L30.0292 154.574C27.6475 115.794 27.2851 92.2875 29.0972 84.0551C32.2038 68.6258 39.09 56.6137 49.7559 48.0707C53.6391 45.0159 56.9528 43.1002 59.6969 42.3235C62.441 41.5469 68.24 40.822 77.0937 40.3043C89.2611 39.5276 98.8397 40.6149 105.881 43.4626C114.994 47.2423 121.828 53.7143 126.385 62.9822C130.889 72.2502 134.306 86.6957 136.533 106.422L139.329 132.932L179.973 130.395L178.368 91.9768C177.747 74.2176 177.591 63.034 177.798 58.4259C178.005 53.8178 178.937 50.1935 180.542 47.553C187.946 36.7317 197.473 30.0526 209.019 27.5674Z" fill="#73C2AF" stroke="black" stroke-width="10.3552" stroke-miterlimit="10" stroke-linecap="round" stroke-linejoin="round"/>
<path d="M657.97 31.3461C660.041 31.0355 661.957 30.9319 663.717 31.0872C672.312 31.8639 682.978 35.074 695.715 40.8212C722.224 52.3673 741.692 71.2656 754.118 97.6196C760.953 112.272 766.286 126.459 770.014 140.335C773.741 154.159 777.884 174.197 782.44 200.292C787.721 232.6 789.533 257.867 787.928 276.092C786.427 293.023 781.508 308.141 773.172 321.448C768.409 329.163 763.8 334.91 759.399 338.586C754.998 342.262 748.734 345.42 740.605 348.009C733.718 350.701 723.933 351.892 711.248 351.53C710.212 351.426 708.711 351.375 706.691 351.323C704.672 351.271 703.274 351.219 702.497 351.167C694.886 350.494 689.036 349.096 684.894 346.922C680.751 344.747 676.35 340.916 671.794 335.427C662.319 324.399 656.676 309.332 654.76 290.33C653.724 281.839 651.964 277.076 649.53 276.092C648.806 275.781 648.029 275.574 647.304 275.522C646.01 275.419 643.214 279.872 638.865 288.932C635.447 296.026 630.373 303.482 623.694 311.3C617.015 319.118 611.112 324.451 606.038 327.299C590.454 336.101 574.714 339.828 558.819 338.379C544.425 337.084 531.688 331.803 520.66 322.587C509.631 313.319 501.761 300.945 496.998 285.515C494.616 277.645 494.202 265.53 495.652 249.065C497.153 232.134 502.02 210.129 510.304 183.102C524.387 136.452 537.176 105.748 548.722 90.9404C563.944 71.4208 579.892 56.4575 596.46 46.0505C613.028 35.6953 628.458 30.8802 642.644 31.605C651.291 31.8121 656.365 31.7603 657.97 31.3461ZM663.821 180.617C665.477 176.164 666.565 171.452 666.979 166.378C667.807 156.748 666.772 147.946 663.769 139.921C660.766 131.895 656.365 127.598 650.566 127.08C648.547 126.925 646.89 127.028 645.544 127.391C642.385 128.375 639.227 133.086 636.069 141.474C632.91 149.862 630.943 158.094 630.218 166.171C630.011 168.708 630.011 171.504 630.218 174.559C630.787 179.478 632.651 183.879 635.706 187.865C638.813 191.852 642.126 193.975 645.647 194.286C650.462 194.7 654.087 193.975 656.572 192.008C659.161 190.04 661.491 186.26 663.821 180.617Z" fill="#73C2AF" stroke="black" stroke-width="10.3552" stroke-miterlimit="10" stroke-linecap="round" stroke-linejoin="round"/>
<path d="M1299.22 8.87635C1301.08 8.41037 1302.84 8.15149 1304.5 8.15149C1312.47 8.15149 1322.52 10.2743 1334.68 14.4682C1359.95 22.9077 1379.37 38.6994 1392.93 61.8433C1400.44 74.7356 1406.45 87.3689 1411 99.7434C1415.56 112.17 1421 130.188 1427.31 153.798C1434.82 183.051 1438.55 206.092 1438.55 222.971C1438.55 238.659 1435.29 252.949 1428.71 265.79C1424.98 273.297 1421.2 278.889 1417.47 282.617C1413.75 286.345 1408.21 289.762 1400.96 292.817C1394.85 295.872 1385.99 297.736 1374.29 298.409C1373.36 298.409 1371.96 298.46 1370.1 298.564C1368.24 298.667 1366.94 298.719 1366.22 298.719C1359.17 298.719 1353.69 297.891 1349.7 296.286C1345.71 294.629 1341.36 291.471 1336.7 286.811C1327.12 277.439 1320.65 264.133 1317.39 246.788C1315.73 239.073 1313.77 234.827 1311.44 234.154C1310.71 233.947 1310.04 233.792 1309.31 233.792C1308.12 233.792 1305.9 238.141 1302.63 246.788C1300.05 253.57 1296.01 260.819 1290.52 268.534C1285.03 276.248 1280.06 281.633 1275.61 284.688C1262.04 294.059 1247.86 298.719 1233.15 298.719C1219.79 298.719 1207.68 294.888 1196.8 287.328C1185.93 279.717 1177.7 269 1172.06 255.227C1169.26 248.186 1167.86 237.106 1167.86 221.883C1167.86 206.195 1170.55 185.588 1175.94 160.114C1185.05 116.105 1194.32 86.8512 1203.69 72.3539C1216.06 53.1449 1229.48 38.1298 1243.87 27.2568C1258.26 16.3838 1271.98 10.6885 1285.13 10.2225C1293.11 9.80829 1297.82 9.34234 1299.22 8.87635ZM1316.77 145.41C1317.96 141.216 1318.53 136.763 1318.53 132.052C1318.53 123.146 1316.82 115.173 1313.46 108.028C1310.04 100.883 1305.69 97.31 1300.3 97.31C1298.44 97.31 1296.89 97.5689 1295.75 98.0349C1292.95 99.2257 1290.42 103.782 1288.19 111.704C1285.96 119.677 1284.88 127.392 1284.88 134.848C1284.88 137.178 1285.08 139.766 1285.6 142.562C1286.53 147.015 1288.6 150.95 1291.76 154.316C1294.92 157.733 1298.13 159.39 1301.39 159.39C1305.84 159.39 1309.11 158.406 1311.23 156.387C1313.25 154.471 1315.11 150.795 1316.77 145.41Z" fill="#73C2AF" stroke="black" stroke-width="10.3552" stroke-miterlimit="10" stroke-linecap="round" stroke-linejoin="round"/>
<path d="M1733.62 8.51319C1744.08 6.33859 1754.9 5.56194 1766.08 6.23503C1767.48 6.33858 1770.38 6.54568 1774.83 6.95989C1779.23 7.32233 1783.01 7.633 1786.02 7.78833C1802.59 9.23806 1813.41 10.3772 1818.53 11.1538C1823.66 11.9305 1829.51 13.6908 1836.14 16.4349C1856.74 24.4602 1874.5 38.2327 1889.41 57.597C1904.27 77.013 1913.08 97.5682 1915.77 119.314C1916.75 126.666 1916.96 134.64 1916.44 143.287C1915.51 159.182 1912.2 175.491 1906.66 192.267C1901.06 209.042 1894.07 223.384 1885.58 235.293C1880.46 242.49 1872.64 251.085 1862.08 261.129C1851.51 271.174 1843.54 277.646 1838.21 280.597C1823.66 288.622 1803.78 293.645 1778.56 295.664C1768.88 296.492 1761.73 296.751 1757.07 296.492C1754.95 296.389 1749.51 295.56 1740.71 294.11C1703.38 286.965 1681.53 270.501 1675.11 244.82C1673.04 236.276 1673.3 210.492 1675.89 167.518C1677.39 142.769 1679.2 120.505 1681.33 100.675C1686.35 52.6783 1690.7 26.9455 1694.43 23.3729C1699.65 18.0918 1712.7 13.1213 1733.62 8.51319ZM1795.34 104.713C1793.06 103.419 1791.35 102.694 1790.21 102.642C1788.35 102.539 1785.29 104.351 1781.1 108.079C1773.44 114.861 1768.93 128.789 1767.69 149.81C1767.07 160.321 1768.15 168.605 1770.95 174.611C1773.75 180.617 1777.84 183.827 1783.22 184.138C1784.36 184.19 1785.91 184.086 1787.83 183.724C1792.33 183.051 1795.8 180.98 1798.24 177.511C1800.67 174.042 1802.69 168.346 1804.35 160.476C1804.97 157.939 1805.43 154.004 1805.74 148.619C1806.31 139.041 1805.64 129.928 1803.67 121.23C1801.76 112.583 1798.96 107.043 1795.34 104.713Z" fill="#73C2AF" stroke="black" stroke-width="10.3552" stroke-miterlimit="10" stroke-linecap="round" stroke-linejoin="round"/>
<path d="M616.912 383.269C618.931 382.751 620.847 382.492 622.607 382.492C631.254 382.492 642.179 384.77 655.381 389.326C682.771 398.491 703.844 415.577 718.6 440.74C726.729 454.72 733.253 468.389 738.223 481.85C743.194 495.312 749.096 514.832 755.931 540.513C764.06 572.252 768.098 597.259 768.098 615.536C768.098 632.571 764.526 648.052 757.432 661.98C753.342 670.108 749.303 676.218 745.265 680.257C741.174 684.295 735.22 688.023 727.35 691.285C720.723 694.599 711.093 696.618 698.407 697.394C697.372 697.394 695.87 697.446 693.851 697.602C691.832 697.705 690.434 697.809 689.657 697.809C682.046 697.809 676.092 696.929 671.743 695.116C667.445 693.356 662.734 689.887 657.66 684.813C647.253 674.665 640.263 660.167 636.742 641.424C634.982 633.037 632.807 628.48 630.27 627.704C629.493 627.445 628.768 627.341 627.992 627.341C626.697 627.341 624.316 632.053 620.743 641.424C617.947 648.777 613.546 656.647 607.592 665.034C601.638 673.422 596.201 679.273 591.386 682.535C576.682 692.683 561.304 697.757 545.305 697.757C530.86 697.757 517.709 693.615 505.904 685.383C494.099 677.15 485.141 665.5 479.084 650.537C476.029 642.926 474.527 630.862 474.527 614.346C474.527 597.363 477.427 574.996 483.278 547.347C493.167 499.61 503.211 467.871 513.359 452.131C526.821 431.317 541.37 415.007 556.955 403.202C572.54 391.397 587.451 385.236 601.69 384.718C610.336 384.252 615.41 383.735 616.912 383.269ZM635.965 531.348C637.26 526.792 637.881 521.977 637.881 516.903C637.881 507.273 636.017 498.574 632.341 490.808C628.665 483.041 623.902 479.21 618.051 479.21C616.032 479.21 614.375 479.469 613.08 479.986C610.025 481.281 607.281 486.2 604.9 494.846C602.466 503.493 601.275 511.881 601.275 519.958C601.275 522.495 601.534 525.291 602.052 528.345C603.088 533.161 605.262 537.406 608.731 541.082C612.148 544.759 615.617 546.622 619.19 546.622C624.005 546.622 627.578 545.535 629.856 543.412C632.134 541.186 634.153 537.199 635.965 531.348Z" fill="#73C2AF" stroke="black" stroke-width="10.3552" stroke-miterlimit="10" stroke-linecap="round" stroke-linejoin="round"/>
<path d="M1158.96 389.016C1165.89 388.032 1173.45 387.877 1181.53 388.55C1195.72 389.689 1210.06 393.158 1224.61 398.905C1239.16 404.652 1251.33 411.746 1261.11 420.185C1270.64 428.314 1278.25 438.773 1284 451.458C1289.74 464.143 1292.18 475.948 1291.3 486.821C1291.24 487.339 1291.14 488.064 1290.93 489.099C1290.73 490.083 1290.62 490.86 1290.57 491.378C1286.33 515.505 1271.31 528.294 1245.47 529.795C1236.78 530.106 1231.44 530.21 1229.42 530.054C1219.53 529.278 1210.89 524.514 1203.43 515.764C1197.89 508.722 1193.59 505.046 1190.54 504.788C1182.67 504.166 1173.76 506.858 1163.72 512.968C1153.68 519.026 1146.84 526.016 1143.11 533.834C1140.99 538.235 1139.59 544.396 1138.97 552.214C1138.04 563.605 1139.13 572.718 1142.13 579.604C1145.34 587.267 1150.1 593.635 1156.47 598.709C1162.79 603.783 1169.16 606.579 1175.47 607.097C1178.99 607.356 1182 606.994 1184.38 605.906C1187.02 604.612 1188.42 603.059 1188.57 601.298C1188.83 598.243 1186.35 595.499 1181.22 593.066C1174.13 589.441 1170.87 583.953 1171.49 576.601C1171.59 575.1 1172.06 572.304 1172.94 568.317C1174.49 561.586 1176.77 556.46 1179.72 552.991C1182.67 549.522 1187.02 546.623 1192.82 544.293C1200.69 541.6 1213.06 540.979 1230.05 542.325C1251.07 544.034 1265.93 547.503 1274.68 552.784C1278.56 555.373 1281.41 559.411 1283.27 564.951C1287.47 576.239 1288.24 598.347 1285.6 631.225C1283.22 661.1 1279.34 682.276 1274 694.858C1266.29 711.789 1249.77 719.244 1224.45 717.225L1222.95 717.122C1213.84 716.397 1205.4 713.653 1197.63 708.993L1185.62 701.899L1173.51 705.109C1165.69 707.284 1151.14 707.491 1129.91 705.834C1112.2 704.436 1099.05 702.417 1090.46 699.777C1081.86 697.136 1073.37 692.631 1064.98 686.056C1059.96 682.069 1053.33 675.493 1045.15 666.329C1036.97 657.113 1031.33 649.761 1028.22 644.169C1021.59 631.691 1016.52 612.016 1013.1 585.248C1011.6 572.407 1011.14 561.897 1011.81 553.82C1012.27 548.021 1012.79 543.205 1013.36 539.426C1019.58 490.497 1040.29 451.82 1075.39 423.292C1096.77 405.274 1124.68 393.883 1158.96 389.016Z" fill="#73C2AF" stroke="black" stroke-width="10.3552" stroke-miterlimit="10" stroke-linecap="round" stroke-linejoin="round"/>
<path d="M1551.63 386.996C1553.13 386.582 1560.01 385.391 1572.28 383.476L1575.34 383.113C1596.78 380.628 1618.47 381.56 1640.42 385.754C1662.38 389.999 1680.29 396.834 1694.17 406.205C1699.71 409.933 1706.39 416.353 1714.2 425.57C1722.02 434.786 1727.87 442.966 1731.81 450.163C1735.74 457.619 1738.75 469.424 1740.87 485.526C1742.47 499.402 1742.52 509.551 1741.13 515.971C1739.68 522.391 1735.64 529.95 1728.96 538.649L1721.97 547.865L1726.47 553.871C1733.41 563.035 1740.56 573.649 1747.96 585.713C1755.37 597.777 1759.92 606.009 1761.73 610.41C1763.96 616.52 1765.46 622.785 1766.19 629.05C1767.84 643.444 1765.31 655.715 1758.58 665.966C1751.84 676.166 1741.85 682.845 1728.65 685.9C1727.15 686.314 1725.02 686.677 1722.28 687.039C1706.64 688.851 1686.97 681.033 1663.26 663.533C1652.38 655.818 1646.74 652.038 1646.22 652.09C1645.44 652.194 1645.24 653.747 1645.6 656.75C1645.96 660.012 1644.82 665.397 1642.08 672.852C1634.42 692.631 1615.67 704.281 1585.9 707.698L1582.48 708.112C1571.61 709.096 1563.22 708.941 1557.32 707.543C1551.42 706.196 1545.36 702.934 1539.15 697.757C1531.28 691.492 1526.1 685.331 1523.62 679.221C1519.42 669.487 1513.05 637.645 1504.56 583.694C1503.63 577.947 1502.13 568.265 1500.06 554.699L1500.01 554.337C1496.54 533.264 1494.1 516.437 1492.65 503.803C1491.36 492.723 1490.79 481.022 1490.89 468.751C1491.1 452.649 1492.5 440.222 1495.24 431.472C1497.93 422.722 1502.23 416.25 1508.13 411.952C1511.86 408.949 1519.16 404.445 1529.93 398.335C1540.75 392.174 1547.95 388.446 1551.63 386.996ZM1621.27 482.472C1618.11 479.52 1615.41 478.174 1613.14 478.433C1609.1 478.899 1605.99 480.918 1603.87 484.491C1601.69 488.063 1600.92 492.102 1601.43 496.658C1602.26 503.959 1605.78 508.929 1611.95 511.57L1619.56 514.521L1623.85 508.67C1626.44 504.528 1627.43 499.972 1626.86 494.898C1626.34 489.772 1624.48 485.682 1621.27 482.472Z" fill="#73C2AF" stroke="black" stroke-width="10.3552" stroke-miterlimit="10" stroke-linecap="round" stroke-linejoin="round"/>
</svg>
