<svg width="547" height="126" viewBox="0 0 547 126" fill="none" xmlns="http://www.w3.org/2000/svg">
<path d="M237.701 40.5901C236.861 39.6101 236.101 39.1001 235.411 39.1001C234.191 39.1001 233.191 39.6101 232.421 40.5901C231.691 41.5601 231.311 42.6901 231.281 44.0201V44.1501C231.281 46.3701 232.151 47.9801 233.921 48.9601L234.191 49.1001L236.101 50.1001L237.591 48.5001C238.511 47.3601 238.971 46.0201 238.971 44.5001C238.971 42.9601 238.551 41.6701 237.701 40.5901Z" fill="white" stroke="black" stroke-width="2" stroke-miterlimit="10" stroke-linecap="round" stroke-linejoin="round"/>
<path d="M232.161 103.83C230.972 105.8 229.361 107.4 227.381 108.61C224.271 113.76 218.402 116.33 209.792 116.33H208.761C205.471 116.25 202.981 115.92 201.251 115.3C199.531 114.7 197.831 113.5 196.151 111.76C194.011 109.62 192.671 107.58 192.131 105.68C191.221 102.61 190.411 92.8602 189.731 76.4202C189.651 74.6702 189.541 71.7201 189.381 67.5901V67.4802C189.081 61.0602 188.921 55.9302 188.921 52.1002C188.921 48.7502 189.161 45.2202 189.601 41.5502C190.221 36.7402 191.081 33.0702 192.191 30.5402C193.301 28.0102 194.811 26.2202 196.721 25.1402C196.941 25.0002 197.201 24.8502 197.481 24.7002C198.531 22.7302 199.881 21.2802 201.501 20.3802C201.711 20.2502 201.961 20.1102 202.231 19.9502C202.061 20.2802 201.901 20.6202 201.741 20.9802C201.471 21.5802 201.231 22.2702 200.991 23.0102C200.241 25.3502 199.641 28.3302 199.161 31.9902C198.701 35.6802 198.481 39.1902 198.481 42.5502C198.481 46.3802 198.621 51.4902 198.941 57.9102V58.0402C199.081 62.1702 199.191 65.1102 199.271 66.8702C199.971 83.3102 200.761 93.0702 201.681 96.1202C202.221 98.0302 203.551 100.06 205.701 102.2C207.371 103.96 209.081 105.14 210.801 105.76C212.521 106.36 215.031 106.71 218.311 106.79H219.341C223.031 106.79 226.221 106.33 228.891 105.36C230.091 104.94 231.171 104.44 232.161 103.83Z" fill="black" stroke="black" stroke-width="2" stroke-miterlimit="10" stroke-linecap="round" stroke-linejoin="round"/>
<path d="M237.701 40.5901C236.861 39.6101 236.101 39.1001 235.411 39.1001C234.191 39.1001 233.191 39.6101 232.421 40.5901C231.691 41.5601 231.311 42.6901 231.281 44.0201C231.801 44.2101 232.361 44.6601 232.931 45.3701C233.761 46.3901 234.151 47.6401 234.191 49.1001L236.101 50.1001L237.591 48.5001C238.511 47.3601 238.971 46.0201 238.971 44.5001C238.971 42.9601 238.551 41.6701 237.701 40.5901ZM237.701 40.5901C236.861 39.6101 236.101 39.1001 235.411 39.1001C234.191 39.1001 233.191 39.6101 232.421 40.5901C231.691 41.5601 231.311 42.6901 231.281 44.0201C231.801 44.2101 232.361 44.6601 232.931 45.3701C233.761 46.3901 234.151 47.6401 234.191 49.1001L236.101 50.1001L237.591 48.5001C238.511 47.3601 238.971 46.0201 238.971 44.5001C238.971 42.9601 238.551 41.6701 237.701 40.5901Z" fill="black" stroke="black" stroke-width="2" stroke-miterlimit="10" stroke-linecap="round" stroke-linejoin="round"/>
<path d="M268.981 103.2C268.611 103.84 268.171 104.46 267.691 105.03C266.671 106.24 265.511 107.22 264.201 107.98C263.831 108.62 263.391 109.23 262.911 109.81C260.542 112.64 257.321 114.27 253.271 114.73C252.811 114.81 252.161 114.84 251.321 114.84C246.591 114.84 240.961 111.82 234.461 105.79C233.591 105.01 232.821 104.34 232.201 103.79C234.201 102.58 235.791 100.99 236.971 98.99C237.111 98.77 237.241 98.53 237.371 98.29C238.431 96.15 238.971 94.59 238.971 93.59C238.971 92.67 239.081 92.22 239.301 92.22C239.461 92.22 241.031 93.55 244.021 96.22C250.521 102.27 256.141 105.29 260.881 105.29C261.721 105.29 262.371 105.24 262.831 105.18C263.831 105.07 264.781 104.88 265.671 104.61C266.871 104.28 267.971 103.82 268.981 103.2Z" fill="black" stroke="black" stroke-width="2" stroke-miterlimit="10" stroke-linecap="round" stroke-linejoin="round"/>
<path d="M232.191 103.77C232.171 103.8 232.171 103.82 232.161 103.83C232.181 103.83 232.191 103.81 232.211 103.78C232.191 103.78 232.191 103.77 232.191 103.77Z" fill="white" stroke="black" stroke-width="2" stroke-miterlimit="10" stroke-linecap="round" stroke-linejoin="round"/>
<path d="M275.341 83.72C274.961 82.35 273.861 79.7301 272.071 75.8701C270.271 72.0101 268.501 68.58 266.731 65.59L265.591 63.65L268.001 61.1201C270.291 58.7501 271.761 56.6201 272.421 54.7501C273.071 52.8801 273.391 49.8401 273.391 45.6301C273.311 40.7401 272.821 37.1 271.901 34.73C270.991 32.43 269.521 29.7701 267.481 26.7601C265.461 23.7401 263.681 21.58 262.161 20.28C258.331 16.99 253.201 14.3401 246.781 12.3101C240.351 10.2901 233.901 9.28003 227.381 9.28003H226.471C222.721 9.42003 220.611 9.55005 220.161 9.61005C219.001 9.93005 216.711 10.8001 213.271 12.2501C209.841 13.7101 207.501 14.82 206.281 15.59C204.631 16.5 203.291 17.9601 202.231 19.9401C202.061 20.2701 201.901 20.61 201.741 20.97C201.471 21.57 201.231 22.2601 200.991 23.0001C200.241 25.3401 199.641 28.32 199.161 31.98C198.701 35.67 198.481 39.18 198.481 42.54C198.481 46.37 198.621 51.48 198.941 57.9V58.03C199.081 62.16 199.191 65.1 199.271 66.86C199.971 83.3 200.761 93.06 201.681 96.11C202.221 98.0201 203.551 100.05 205.701 102.19C207.371 103.95 209.081 105.13 210.801 105.75C212.521 106.35 215.031 106.7 218.311 106.78H219.341C223.031 106.78 226.221 106.32 228.891 105.35C230.081 104.94 231.161 104.43 232.151 103.83C232.171 103.81 232.171 103.8 232.181 103.77C232.181 103.77 232.181 103.79 232.201 103.79C234.201 102.58 235.791 100.99 236.971 98.9901C237.111 98.7701 237.241 98.53 237.371 98.29C238.431 96.15 238.971 94.59 238.971 93.59C238.971 92.67 239.081 92.22 239.301 92.22C239.461 92.22 241.031 93.55 244.021 96.22C250.521 102.27 256.141 105.29 260.881 105.29C261.721 105.29 262.371 105.24 262.831 105.18C263.831 105.07 264.781 104.88 265.671 104.61C266.861 104.28 267.961 103.82 268.971 103.2C270.291 102.44 271.451 101.45 272.451 100.25C274.831 97.4201 276.011 93.83 276.011 89.46C276.021 87.55 275.801 85.64 275.341 83.72ZM237.591 48.5001L236.101 50.1L234.191 49.1L233.921 48.96C232.161 47.98 231.281 46.37 231.281 44.15V44.02C231.311 42.69 231.691 41.56 232.421 40.59C233.181 39.61 234.181 39.1 235.411 39.1C236.091 39.1 236.861 39.61 237.701 40.59C238.541 41.67 238.971 42.9601 238.971 44.5001C238.971 46.0201 238.511 47.3601 237.591 48.5001Z" fill="#73C2AF" stroke="black" stroke-width="2" stroke-miterlimit="10" stroke-linecap="round" stroke-linejoin="round"/>
<path d="M18.8314 21.8601C18.4214 22.5301 18.0215 23.2401 17.6515 24.0201C17.4315 24.5001 17.1914 25.0001 16.9714 25.5601C15.8414 25.8501 14.8615 26.2301 14.0215 26.6701C15.2015 24.8001 16.5914 23.2901 18.2314 22.2201C18.4214 22.1001 18.6214 21.9901 18.8314 21.8601Z" fill="white" stroke="black" stroke-width="2" stroke-miterlimit="10" stroke-linecap="round" stroke-linejoin="round"/>
<path d="M35.8715 105.02C35.1215 106.39 34.1215 107.55 32.9015 108.55C32.2515 109.09 31.6315 109.52 31.0715 109.81C30.3415 111.19 29.3515 112.35 28.1215 113.34C27.1515 114.18 26.2615 114.72 25.4515 114.94C24.6415 115.18 22.9715 115.42 20.4314 115.67C17.2815 115.89 15.0315 115.83 13.6814 115.48C12.3314 115.11 10.7416 114.08 8.91155 112.38C6.83155 110.47 5.54154 108.58 5.02154 106.71C4.50154 104.84 3.81147 99.53 2.95147 90.79C1.87147 79.81 1.41144 71.44 1.55144 65.66C1.71144 59.88 2.53156 53.5601 4.04156 46.6901C5.36156 40.8401 6.69146 36.4601 8.07146 33.5701C9.44146 30.6901 11.2314 28.5001 13.4214 27.0101C13.5914 26.9001 13.7915 26.7901 13.9915 26.6801C14.8315 26.2401 15.8215 25.8501 16.9415 25.5701C15.8015 28.3801 14.6815 32.24 13.5915 37.15C12.0815 44 11.2415 50.32 11.1015 56.1C10.9415 61.88 11.4215 70.2701 12.4815 81.2501C13.3415 89.9901 14.0415 95.29 14.5615 97.15C15.0715 99.02 16.3715 100.91 18.4515 102.82C20.2615 104.54 21.8515 105.57 23.2215 105.92C24.5715 106.29 26.8315 106.35 29.9715 106.11C30.9415 106.01 31.8015 105.92 32.5115 105.82C33.6515 105.68 34.5015 105.53 34.9915 105.39C35.2915 105.31 35.5715 105.18 35.8715 105.02Z" fill="black" stroke="black" stroke-width="2" stroke-miterlimit="10" stroke-linecap="round" stroke-linejoin="round"/>
<path d="M64.9115 94.06C64.8815 94.11 64.8314 94.17 64.8014 94.22C63.1814 96.49 61.7514 98.05 60.4314 98.72C60.3314 98.77 60.2415 98.82 60.1315 98.86C60.0815 98.91 60.0515 98.96 60.0215 99C58.4015 101.27 56.9415 102.77 55.6515 103.5C54.4315 104.07 53.0314 104.44 51.4714 104.6C49.2914 104.81 47.5814 104.63 46.3214 104.08C44.5214 103.19 42.7514 101.71 40.9514 99.63C41.8214 97.55 42.5515 94.83 43.1315 91.5C43.4215 89.91 43.6715 88.18 43.8815 86.32C44.1315 84.18 44.3914 83.1 44.6914 83.06C45.1314 83.03 46.0714 84.03 47.4714 86.08C50.3014 90.32 53.1115 93.13 55.8915 94.53C57.1515 95.09 58.8615 95.24 61.0215 95.04C61.5415 94.99 62.0415 94.91 62.5115 94.8C63.3715 94.63 64.1715 94.4 64.9115 94.06Z" fill="black" stroke="black" stroke-width="2" stroke-miterlimit="10" stroke-linecap="round" stroke-linejoin="round"/>
<path d="M57.2615 21.75C55.8815 23.88 54.7314 26.15 53.8314 28.57C52.8014 31.16 52.2614 32.45 52.1814 32.46C52.0214 32.46 51.4514 31.67 50.4814 30.05C50.2314 29.64 49.9615 29.16 49.6415 28.62C50.0815 28.05 50.5515 27.49 51.0415 26.94C52.2615 25.59 53.4914 24.43 54.7114 23.48C55.5614 22.78 56.4015 22.21 57.2615 21.75Z" fill="black" stroke="black" stroke-width="2" stroke-miterlimit="10" stroke-linecap="round" stroke-linejoin="round"/>
<path d="M59.4814 18.6802C58.6914 19.6602 57.9415 20.6802 57.2615 21.7502C56.4015 22.2102 55.5614 22.7802 54.7014 23.4702C55.0714 23.0302 55.4314 22.6002 55.8114 22.1702C57.0214 20.8102 58.2414 19.6402 59.4814 18.6802Z" fill="white" stroke="black" stroke-width="2" stroke-miterlimit="10" stroke-linecap="round" stroke-linejoin="round"/>
<path d="M100.851 97.3202C99.6914 99.3402 98.1014 100.93 96.0714 102.1C93.9714 105.74 90.4315 108.03 85.4915 108.95C85.2715 108.97 85.0014 109.01 84.7114 109.08C84.4114 109.14 84.1915 109.19 84.0415 109.21C80.6715 109.54 77.4315 108.3 74.2915 105.52C72.1515 103.55 70.3714 101.18 68.9514 98.4202C67.8714 96.2802 67.0615 94.4802 66.4915 93.0002C67.4415 92.1902 68.4814 91.0002 69.5914 89.4402C70.1014 88.7302 70.5614 88.0301 70.9614 87.3401C71.8514 85.8601 72.4915 84.4502 72.8715 83.1302C73.4915 80.8702 73.9315 79.7501 74.2415 79.7101C74.6215 79.6601 75.0715 80.4902 75.6215 82.1702C76.1615 83.8502 77.1315 86.0801 78.5315 88.8401C79.9315 91.6001 81.7115 93.9701 83.8715 95.9601C87.0015 98.7401 90.2614 99.9602 93.6115 99.6302C93.7715 99.6102 93.9915 99.5801 94.2815 99.5201C94.5815 99.4401 94.8414 99.4102 95.0614 99.3802C95.9214 99.2202 96.7415 99.0101 97.5215 98.7801C98.7215 98.4001 99.8314 97.9102 100.851 97.3202Z" fill="black" stroke="black" stroke-width="2" stroke-miterlimit="10" stroke-linecap="round" stroke-linejoin="round"/>
<path d="M185.031 85.9402C184.521 86.8502 183.981 87.5902 183.441 88.2002C182.681 89.0702 181.611 89.8702 180.281 90.6602C179.761 91.5802 179.221 92.3602 178.661 92.9802C177.581 94.2002 175.961 95.3502 173.801 96.4102C171.991 97.4602 169.291 98.1902 165.711 98.6202C165.421 98.6502 165.001 98.6802 164.421 98.7602C163.851 98.8202 163.451 98.8702 163.241 98.8902C161.081 99.0202 159.381 98.8602 158.141 98.4302C156.891 98.0002 155.501 97.1102 153.981 95.7802C150.881 93.1002 148.671 89.1602 147.361 83.9602V83.9402C147.921 83.2302 148.471 82.3802 149.061 81.4602C150.031 79.9202 150.811 78.4402 151.431 77.0302C151.811 76.1902 152.111 75.3602 152.371 74.5702C153.211 71.8702 153.821 70.4902 154.181 70.4702C154.391 70.4502 154.611 70.4902 154.831 70.5302C155.541 70.7002 156.241 71.9602 156.881 74.2902C158.211 79.5502 160.421 83.5002 163.551 86.2002C165.061 87.5502 166.461 88.4402 167.701 88.8702C168.951 89.3002 170.651 89.4402 172.821 89.3102C173.031 89.2902 173.421 89.2602 174.001 89.1802C174.571 89.1202 175.002 89.0702 175.292 89.0502C177.962 88.7302 180.141 88.2202 181.821 87.5602C182.391 87.3402 182.901 87.1002 183.361 86.8302C183.951 86.5502 184.501 86.2502 185.031 85.9402Z" fill="black" stroke="black" stroke-width="2" stroke-miterlimit="10" stroke-linecap="round" stroke-linejoin="round"/>
<path d="M155.081 39.1001C155.181 40.5301 155.062 41.9101 154.792 43.2101C154.382 44.8901 153.881 46.0501 153.271 46.7001C152.671 47.3501 151.681 47.7201 150.321 47.8001H150.051C150.321 46.5601 150.401 45.2401 150.301 43.8801C150.141 41.1501 149.471 38.7201 148.301 36.6001C147.431 35.0401 146.441 34.0701 145.331 33.7201C145.351 33.6101 145.381 33.5101 145.391 33.4001C145.931 30.9201 146.611 29.4801 147.461 29.0601C147.811 28.9001 148.271 28.8101 148.841 28.7601C150.491 28.6601 151.911 29.6801 153.081 31.8101C154.251 33.9501 154.921 36.3601 155.081 39.1001Z" fill="black" stroke="black" stroke-width="2" stroke-miterlimit="10" stroke-linecap="round" stroke-linejoin="round"/>
<path d="M348.111 105.01C347.761 105.68 347.381 106.26 346.981 106.79C346.071 107.95 344.851 108.95 343.331 109.79C342.981 110.46 342.601 111.04 342.201 111.57C340.531 113.68 337.851 115.29 334.151 116.35C332.051 117.02 329.351 117.27 326.031 117.08C324.141 116.97 322.421 116.68 320.871 116.21C314.721 114.13 311.511 108.55 311.211 99.51C310.961 91.34 311.481 75.54 312.771 52.09C313.391 40.95 313.911 34.49 314.331 32.69C315.491 27.37 317.551 23.43 320.511 20.86C321.081 20.37 321.701 19.91 322.401 19.46C323.241 18.14 324.211 17.01 325.291 16.08C325.851 15.6 326.451 15.16 327.131 14.73C326.531 15.7 325.991 16.75 325.491 17.91C324.841 19.47 324.301 21.21 323.871 23.14C323.461 24.95 322.951 31.4 322.331 42.54C321.031 65.99 320.521 81.79 320.771 89.96C321.061 99.01 324.281 104.57 330.411 106.66C331.971 107.14 333.701 107.44 335.591 107.53C338.911 107.72 341.611 107.47 343.711 106.8C344.031 106.7 344.351 106.61 344.651 106.5C345.931 106.07 347.091 105.58 348.111 105.01Z" fill="black" stroke="black" stroke-width="2" stroke-miterlimit="10" stroke-linecap="round" stroke-linejoin="round"/>
<path d="M421.221 96.59C420.081 98.73 418.491 100.34 416.441 101.39C416.421 101.39 416.421 101.39 416.421 101.39C414.261 105.47 410.431 107.55 404.981 107.65L403.691 107.59C399.811 107.37 396.401 105.86 393.461 103.03C391.001 100.66 389.411 97.5201 388.691 93.5801C388.211 90.4701 388.771 74.69 390.341 46.27C390.931 35.72 391.361 29.81 391.641 28.53C392.281 26.19 393.562 24.21 395.532 22.6C396.102 22.12 396.711 21.6901 397.361 21.3301C398.061 20.0101 399.061 18.8501 400.311 17.8201C400.901 17.3401 401.521 16.9 402.171 16.53C401.761 17.29 401.421 18.1 401.201 18.98C401.151 19.15 401.121 19.42 401.071 19.79C400.781 22.01 400.391 27.65 399.881 36.72C398.311 65.14 397.771 80.9 398.241 84.03C398.951 87.95 400.541 91.1 403.011 93.47C405.951 96.3 409.351 97.82 413.221 98.03L414.522 98.11C415.702 98.09 416.811 97.9801 417.821 97.7601C419.091 97.4901 420.201 97.11 421.221 96.59Z" fill="black" stroke="black" stroke-width="2" stroke-miterlimit="10" stroke-linecap="round" stroke-linejoin="round"/>
<path d="M498.491 110.58C498.171 111.14 497.811 111.68 497.391 112.17C496.421 113.36 495.201 114.41 493.721 115.35C493.391 115.92 493.021 116.45 492.611 116.95C490.131 119.98 486.071 122.14 480.411 123.43C478.121 123.91 473.641 124.22 466.951 124.38C454.811 124.67 447.001 124.36 443.531 123.52C440.861 123 438.811 122.14 437.381 120.9C435.951 119.68 434.891 117.93 434.191 115.64C431.411 107.3 429.841 95.72 429.501 80.91C429.451 78.83 429.451 75.56 429.481 71.11C429.701 61.98 430.051 55.21 430.531 50.81C431.011 46.41 431.821 43.11 432.941 40.88C434.021 38.75 435.671 37.07 437.881 35.8C438.981 33.8 440.561 32.18 442.691 31C442.611 31.11 442.561 31.22 442.501 31.33C442.061 32.17 441.671 33.19 441.341 34.35C440.781 36.24 440.371 38.53 440.081 41.24C439.601 45.64 439.251 52.41 439.031 61.54C438.981 66 439.001 69.26 439.051 71.36C439.381 86.15 440.941 97.73 443.721 106.07C444.421 108.36 445.481 110.12 446.911 111.34C448.341 112.56 450.391 113.44 453.071 113.95C456.531 114.81 464.331 115.09 476.491 114.81C483.181 114.67 487.661 114.35 489.951 113.86C491.841 113.43 493.561 112.91 495.101 112.29C496.361 111.79 497.481 111.22 498.491 110.58Z" fill="black" stroke="black" stroke-width="2" stroke-miterlimit="10" stroke-linecap="round" stroke-linejoin="round"/>
<path d="M537.871 100.08C536.761 102.13 535.151 103.73 533.071 104.89C531.041 108.56 527.451 110.82 522.301 111.59L520.871 111.7C516.581 112.03 512.611 110.87 508.961 108.21C505.911 105.97 503.701 102.75 502.341 98.5399C501.351 95.1899 499.621 77.7799 497.151 46.3199C496.231 34.6399 495.831 28.08 495.961 26.64C496.311 23.97 497.441 21.5999 499.361 19.5399C500.271 18.5699 501.301 17.7099 502.441 16.9999C502.901 16.2199 503.491 15.4699 504.141 14.7599C505.051 13.7799 506.081 12.9199 507.251 12.1899C506.651 13.1699 506.191 14.2099 505.881 15.2999C505.721 15.8699 505.591 16.48 505.511 17.08C505.381 18.54 505.781 25.0999 506.701 36.7799C509.181 68.2199 510.891 85.6299 511.881 88.9799C513.251 93.1899 515.471 96.4099 518.521 98.6499C522.161 101.32 526.131 102.48 530.421 102.14L531.851 102.03C532.761 101.89 533.611 101.71 534.421 101.47C535.691 101.13 536.831 100.67 537.871 100.08Z" fill="black" stroke="black" stroke-width="2" stroke-miterlimit="10" stroke-linecap="round" stroke-linejoin="round"/>
<path d="M107.461 87.66C106.521 92.08 104.311 95.3201 100.851 97.3201C99.8314 97.9101 98.7214 98.4 97.5014 98.78C96.7214 99.02 95.9015 99.2201 95.0415 99.3801C94.8215 99.4101 94.5614 99.44 94.2614 99.52C93.9714 99.58 93.7514 99.6201 93.5914 99.6301C90.2414 99.9601 86.9814 98.74 83.8514 95.96C81.6914 93.97 79.9114 91.61 78.5114 88.84C77.1114 86.08 76.1414 83.8501 75.6014 82.1701C75.0414 80.4901 74.6014 79.66 74.2214 79.71C73.9214 79.74 73.4714 80.8701 72.8514 83.1301C72.4714 84.4501 71.8314 85.86 70.9414 87.34C70.5414 88.02 70.0814 88.7201 69.5714 89.4401C68.4614 91.0001 67.4314 92.1901 66.4714 93.0001C66.0314 93.4001 65.6114 93.7001 65.2014 93.9401C65.1014 93.9901 64.9915 94.0401 64.9015 94.0701C64.1515 94.4001 63.3614 94.6401 62.5014 94.8001C62.0214 94.9101 61.5314 94.9901 61.0114 95.0401C58.8514 95.2501 57.1314 95.09 55.8814 94.53C53.1014 93.13 50.2914 90.3201 47.4614 86.0801C46.0614 84.0301 45.1214 83.0301 44.6814 83.0601C44.3814 83.0901 44.1214 84.1701 43.8714 86.3201C43.6614 88.1801 43.4114 89.9101 43.1214 91.5001C42.5514 94.8401 41.8214 97.5501 40.9414 99.6301C40.8914 99.7401 40.8414 99.85 40.8014 99.96C40.0414 101.47 38.9914 102.74 37.6714 103.77C37.0214 104.33 36.4114 104.74 35.8614 105.03C35.5614 105.19 35.2714 105.32 35.0014 105.4C34.5114 105.54 33.6715 105.69 32.5215 105.83C31.8115 105.93 30.9514 106.02 29.9814 106.12C26.8314 106.36 24.5814 106.29 23.2314 105.93C21.8614 105.58 20.2814 104.55 18.4614 102.83C16.3814 100.92 15.0814 99.0301 14.5714 97.16C14.0514 95.3 13.3514 90.0001 12.4914 81.2601C11.4314 70.2801 10.9514 61.9001 11.1114 56.1101C11.2514 50.3301 12.0914 44.0101 13.6014 37.1601C14.7014 32.2501 15.8114 28.3901 16.9514 25.5801C17.1714 25.0201 17.4114 24.5201 17.6314 24.0401C18.0014 23.2601 18.3914 22.5501 18.8114 21.8801C19.9914 20.0201 21.3714 18.56 22.9714 17.46C24.6914 16.38 27.1014 15.7001 30.2314 15.3901C33.3014 15.0901 35.7715 15.2901 37.6515 16.0101C41.4915 17.6001 45.2314 21.3501 48.8214 27.2401C49.1114 27.7301 49.3814 28.2101 49.6114 28.6201C49.9314 29.1601 50.2014 29.6401 50.4514 30.0501C51.4214 31.6701 51.9915 32.46 52.1515 32.46C52.2315 32.44 52.7714 31.1601 53.8014 28.5701C54.7114 26.1601 55.8514 23.8801 57.2314 21.7501C57.9114 20.6901 58.6614 19.6701 59.4514 18.6801C59.8214 18.2401 60.1814 17.8101 60.5614 17.3801C63.5114 14.0801 66.5314 11.9301 69.6014 10.9501C71.4314 10.3901 73.0914 10.04 74.5914 9.90004C80.1214 9.36004 84.2314 10.5701 86.9314 13.5501C89.8114 16.7301 93.0914 23.2101 96.8114 32.9901C100.531 42.7601 103.661 53.07 106.231 63.9C106.751 66.19 107.181 69.0501 107.521 72.4801C108.221 79.2101 108.191 84.26 107.461 87.66Z" fill="#73C2AF" stroke="black" stroke-width="2" stroke-miterlimit="10" stroke-linecap="round" stroke-linejoin="round"/>
<path d="M193.571 64.75C193.251 59.57 191.681 52.58 188.841 43.75C186.471 36.62 184.471 31.2 182.831 27.48C181.211 23.76 179.131 20.0001 176.591 16.1901C172.011 9.34005 165.761 4.86005 157.861 2.75005C154.051 1.69005 150.921 1.22004 148.491 1.37004C147.981 1.40004 147.462 1.50005 146.892 1.69005C146.462 1.85005 145.051 2.09004 142.621 2.37004C138.601 2.75004 134.502 4.75003 130.292 8.36003C128.672 9.74003 127.111 11.3 125.621 13.05C124.841 13.92 124.091 14.86 123.381 15.85C121.781 17.98 120.252 20.3501 118.792 22.9401C116.202 27.5601 113.902 36.7 111.912 50.36C110.732 58.27 110.291 64.64 110.591 69.44C110.861 74.11 111.501 77.49 112.501 79.59C114.471 83.72 117.201 86.85 120.681 88.98C124.161 91.11 127.942 92.05 132.022 91.81C134.942 91.64 137.741 90.87 140.421 89.52C141.371 89.03 142.331 88.4601 143.261 87.8201C143.771 87.4701 144.262 87.11 144.772 86.71C145.602 86.09 146.451 85.17 147.361 83.98V83.96C147.921 83.25 148.471 82.4 149.061 81.48C150.031 79.94 150.811 78.46 151.431 77.05C151.811 76.21 152.111 75.38 152.371 74.59C153.211 71.89 153.821 70.51 154.181 70.49C154.391 70.47 154.611 70.51 154.831 70.55C155.541 70.72 156.241 71.98 156.881 74.31C158.211 79.57 160.421 83.52 163.551 86.22C165.061 87.57 166.461 88.4601 167.701 88.8901C168.951 89.3201 170.651 89.4601 172.821 89.3301C173.031 89.3101 173.421 89.2801 174.001 89.2001C174.571 89.1401 175.002 89.09 175.292 89.0701C177.962 88.7501 180.141 88.2401 181.821 87.5801C182.391 87.3601 182.901 87.12 183.361 86.85C183.961 86.55 184.522 86.25 185.042 85.94C186.392 85.15 187.451 84.3 188.231 83.43C189.311 82.21 190.341 80.41 191.361 78.04C193.111 73.98 193.861 69.55 193.571 64.75ZM154.801 43.21C154.391 44.89 153.892 46.0501 153.282 46.7001C152.682 47.3501 151.691 47.72 150.331 47.8H150.061C149.141 47.77 148.222 47.31 147.282 46.42C146.252 45.45 145.551 44.28 145.181 42.93C144.971 42.09 144.861 41.2901 144.811 40.5801C144.671 38.3901 144.861 36.1 145.331 33.73C145.351 33.62 145.382 33.52 145.392 33.41C145.932 30.93 146.611 29.4901 147.461 29.0701C147.811 28.9101 148.271 28.82 148.841 28.77C150.491 28.67 151.911 29.6901 153.081 31.8201C154.261 33.9501 154.921 36.36 155.081 39.1C155.181 40.53 155.071 41.91 154.801 43.21Z" fill="white" stroke="black" stroke-width="2" stroke-miterlimit="10" stroke-linecap="round" stroke-linejoin="round"/>
<path d="M143.261 87.8C142.101 89.47 141.021 90.68 140.001 91.47C139.491 91.85 139.001 92.2301 138.491 92.5701C138.491 92.5901 138.471 92.59 138.471 92.59C137.311 94.26 136.231 95.4701 135.211 96.2601C131.221 99.3701 126.971 101.07 122.451 101.36C118.351 101.6 114.571 100.66 111.091 98.53C107.611 96.4 104.891 93.2701 102.911 89.1401C101.931 87.0301 101.291 83.66 101.001 78.9901C100.711 74.1901 101.161 67.82 102.331 59.9C104.321 46.25 106.601 37.1201 109.211 32.5001C112.661 26.3801 116.491 21.52 120.701 17.92C120.751 17.87 120.811 17.82 120.861 17.79C122.341 16.06 123.881 14.5001 125.481 13.1401C125.511 13.1101 125.561 13.0801 125.591 13.0601C124.811 13.9301 124.061 14.87 123.351 15.86C121.751 17.99 120.221 20.3601 118.761 22.9501C116.171 27.5701 113.871 36.7101 111.881 50.3701C110.701 58.2801 110.261 64.6501 110.561 69.4501C110.831 74.1201 111.471 77.5 112.471 79.6C114.441 83.73 117.171 86.8601 120.651 88.9901C124.131 91.12 127.911 92.0601 131.991 91.8201C134.911 91.6501 137.711 90.88 140.391 89.53C141.371 89.01 142.321 88.44 143.261 87.8Z" fill="black" stroke="black" stroke-width="2" stroke-miterlimit="10" stroke-linecap="round" stroke-linejoin="round"/>
<path d="M433.561 41.1601C433.051 50.2801 432.081 60.1101 430.641 70.6901C429.181 81.2701 427.811 87.9601 426.491 90.7501C425.331 93.4301 423.571 95.3701 421.221 96.5801C420.201 97.1001 419.091 97.4901 417.851 97.7401C416.831 97.9601 415.721 98.0701 414.551 98.0901L413.251 98.0101C409.371 97.8001 405.971 96.2801 403.041 93.4501C400.581 91.0801 398.991 87.9401 398.271 84.0101C397.791 80.8801 398.331 65.1201 399.911 36.7001C400.421 27.6301 400.821 21.9901 401.101 19.7701C401.151 19.4001 401.181 19.1301 401.231 18.9601C401.451 18.0901 401.791 17.2801 402.201 16.5101C402.901 15.1901 403.881 14.0301 405.121 13.0201C407.071 11.4001 409.471 10.3501 412.301 9.86011C413.981 9.59011 415.381 9.48011 416.541 9.54011C418.321 9.65011 420.291 10.1101 422.401 10.9501C425.701 12.2101 428.231 14.1401 429.951 16.7601C431.681 19.3801 432.891 23.0801 433.561 27.8601C433.911 30.3401 433.911 34.7801 433.561 41.1601Z" fill="white" stroke="black" stroke-width="2" stroke-miterlimit="10" stroke-linecap="round" stroke-linejoin="round"/>
<path d="M505.711 94.86C505.841 100.18 504.651 104.36 502.171 107.39C501.191 108.6 499.961 109.66 498.481 110.58C497.481 111.22 496.351 111.79 495.111 112.3C493.571 112.92 491.851 113.44 489.961 113.87C487.671 114.36 483.191 114.68 476.501 114.82C464.351 115.11 456.551 114.82 453.081 113.96C450.401 113.45 448.351 112.58 446.921 111.35C445.491 110.13 444.431 108.36 443.731 106.08C440.951 97.74 439.391 86.16 439.061 71.37C439.011 69.27 439.001 66.02 439.041 61.55C439.261 52.42 439.611 45.65 440.091 41.25C440.381 38.53 440.791 36.25 441.351 34.36C441.681 33.2 442.061 32.18 442.511 31.34C442.571 31.23 442.621 31.12 442.701 31.01C443.811 28.94 445.511 27.31 447.721 26.1C449.791 25.04 451.501 24.5 452.871 24.46C453.011 24.46 453.281 24.48 453.681 24.49C454.061 24.52 454.411 24.54 454.701 24.52C458.881 24.71 462.401 26.22 465.261 29.03C468.201 31.91 470.311 36.42 471.611 42.58C472.901 48.73 473.681 57.83 473.961 69.9C474.061 74.14 474.151 76.78 474.251 77.83C474.351 78.86 474.571 79.39 474.931 79.37H475.041C475.101 79.31 475.181 79.26 475.251 79.26C477.621 78.5 481.021 78.05 485.461 77.94C486.681 77.92 488.021 77.96 489.461 78.07C499.931 79.35 505.331 84.94 505.711 94.86Z" fill="#73C2AF" stroke="black" stroke-width="2" stroke-miterlimit="10" stroke-linecap="round" stroke-linejoin="round"/>
<path d="M545.481 69.57C545.451 81.39 544.922 88.95 543.912 92.22C542.912 95.79 540.911 98.42 537.871 100.08C536.841 100.67 535.691 101.13 534.421 101.48C533.611 101.72 532.751 101.89 531.851 102.04L530.421 102.15C526.131 102.48 522.161 101.32 518.521 98.66C515.471 96.42 513.251 93.2 511.881 88.99C510.891 85.64 509.181 68.23 506.701 36.79C505.781 25.11 505.381 18.55 505.511 17.09C505.591 16.49 505.721 15.88 505.881 15.31C506.181 14.21 506.641 13.18 507.251 12.2C507.711 11.44 508.271 10.71 508.921 10.01C510.831 7.93 513.301 6.41996 516.351 5.46996C518.151 4.92996 519.671 4.59999 520.941 4.49999C522.931 4.33999 525.151 4.57998 527.601 5.17998C531.411 6.06998 534.481 7.83 536.771 10.45C539.041 13.06 540.921 16.95 542.361 22.11C543.121 24.76 543.791 29.62 544.351 36.69C545.131 46.77 545.511 57.73 545.481 69.57Z" fill="white" stroke="black" stroke-width="2" stroke-miterlimit="10" stroke-linecap="round" stroke-linejoin="round"/>
<path d="M306.542 98.65C305.442 100.78 303.861 102.37 301.771 103.43C299.751 107.29 296.151 109.4 290.951 109.78H289.651C285.771 109.78 282.281 108.45 279.201 105.79C276.611 103.57 274.851 100.5 273.911 96.6201C273.271 93.5201 272.941 77.75 272.941 49.3C272.941 38.74 273.051 32.7901 273.271 31.5101C273.761 29.1401 274.951 27.09 276.831 25.36C277.541 24.71 278.321 24.12 279.181 23.61C279.801 22.51 280.611 21.5001 281.611 20.5801C282.341 19.9101 283.131 19.33 283.991 18.8C283.451 19.78 283.051 20.8301 282.811 21.9501C282.811 21.9801 282.792 22.0301 282.792 22.0801C282.602 23.6101 282.491 29.5001 282.491 39.7501C282.491 68.2201 282.811 83.9901 283.461 87.0701C284.401 90.9601 286.161 94.01 288.751 96.2401C291.831 98.91 295.331 100.23 299.201 100.23H300.491C301.411 100.17 302.291 100.04 303.101 99.86C304.381 99.59 305.522 99.19 306.542 98.65Z" fill="black" stroke="black" stroke-width="2" stroke-miterlimit="10" stroke-linecap="round" stroke-linejoin="round"/>
<path d="M316.351 42.34C316.351 51.47 315.921 61.36 315.061 71.98C314.191 82.62 313.192 89.37 312.042 92.25C310.942 95.2 309.121 97.35 306.531 98.65C305.511 99.19 304.371 99.59 303.101 99.86C302.291 100.03 301.421 100.16 300.491 100.23H299.201C295.321 100.23 291.831 98.91 288.751 96.24C286.161 94.02 284.401 90.97 283.461 87.07C282.811 83.99 282.491 68.21 282.491 39.75C282.491 29.5 282.602 23.61 282.792 22.08C282.792 22.03 282.811 21.98 282.811 21.95C283.051 20.84 283.451 19.79 283.991 18.8C284.591 17.7 285.391 16.7 286.371 15.8C288.241 14.08 290.581 12.89 293.381 12.24C295.031 11.89 296.451 11.72 297.591 11.72C299.391 11.72 301.371 12.07 303.521 12.78C306.901 13.86 309.521 15.66 311.401 18.18C313.261 20.69 314.671 24.33 315.591 29.06C316.101 31.52 316.351 35.94 316.351 42.34Z" fill="white" stroke="black" stroke-width="2" stroke-miterlimit="10" stroke-linecap="round" stroke-linejoin="round"/>
<path d="M361.711 39.13C361.071 37.91 360.411 37.03 359.721 36.52C358.941 36.09 358.371 35.85 357.971 35.84C357.331 35.79 356.521 36.27 355.511 37.24C354.451 38.13 353.862 39.21 353.792 40.48V40.73C354.112 40.84 354.501 41.02 354.931 41.3C355.641 41.76 356.281 42.68 356.921 43.91C357.091 44.35 357.221 44.75 357.301 45.07C357.321 45.07 357.321 45.07 357.331 45.07C358.441 45.12 359.762 44.24 361.292 42.43C361.862 41.91 362.181 41.45 362.201 41.05C362.221 40.67 362.061 40.02 361.711 39.13Z" fill="white" stroke="black" stroke-width="2" stroke-miterlimit="10" stroke-linecap="round" stroke-linejoin="round"/>
<path d="M377.561 73.1101C376.911 74.0301 376.211 74.9201 375.461 75.7801C373.191 78.4601 370.541 80.9001 367.531 83.0401C363.721 85.7601 359.811 87.7401 355.771 89.0001C355.991 87.5101 356.201 86.2501 356.411 85.2401C356.711 83.6201 356.971 82.5701 357.191 82.1301C357.541 81.3501 358.371 80.8901 359.641 80.7201C360.041 80.6701 360.401 80.6101 360.721 80.5501C366.391 79.6001 371.861 77.2501 377.081 73.5001C377.241 73.3601 377.401 73.2401 377.561 73.1101Z" fill="black" stroke="black" stroke-width="2" stroke-miterlimit="10" stroke-linecap="round" stroke-linejoin="round"/>
<path d="M361.711 39.13C361.071 37.91 360.411 37.03 359.721 36.52C358.941 36.09 358.371 35.85 357.971 35.84C357.331 35.79 356.521 36.27 355.511 37.24C354.451 38.13 353.862 39.21 353.792 40.48V40.73C354.112 40.84 354.501 41.02 354.931 41.3C355.641 41.76 356.281 42.68 356.921 43.91C357.091 44.35 357.221 44.75 357.301 45.07C357.321 45.07 357.321 45.07 357.331 45.07C358.441 45.12 359.762 44.24 361.292 42.43C361.862 41.91 362.181 41.45 362.201 41.05C362.221 40.67 362.061 40.02 361.711 39.13ZM361.711 39.13C361.071 37.91 360.411 37.03 359.721 36.52C358.941 36.09 358.371 35.85 357.971 35.84C357.331 35.79 356.521 36.27 355.511 37.24C354.451 38.13 353.862 39.21 353.792 40.48V40.73C354.112 40.84 354.501 41.02 354.931 41.3C355.641 41.76 356.281 42.68 356.921 43.91C357.091 44.35 357.221 44.75 357.301 45.07C357.321 45.07 357.321 45.07 357.331 45.07C358.441 45.12 359.762 44.24 361.292 42.43C361.862 41.91 362.181 41.45 362.201 41.05C362.221 40.67 362.061 40.02 361.711 39.13ZM377.561 73.11C376.911 74.03 376.211 74.92 375.461 75.78C377.221 74.29 378.842 72.67 380.292 70.95C379.422 71.71 378.521 72.43 377.561 73.11ZM361.711 39.13C361.071 37.91 360.411 37.03 359.721 36.52C358.941 36.09 358.371 35.85 357.971 35.84C357.331 35.79 356.521 36.27 355.511 37.24C354.451 38.13 353.862 39.21 353.792 40.48V40.73C354.112 40.84 354.501 41.02 354.931 41.3C355.641 41.76 356.281 42.68 356.921 43.91C357.091 44.35 357.221 44.75 357.301 45.07C357.321 45.07 357.321 45.07 357.331 45.07C358.441 45.12 359.762 44.24 361.292 42.43C361.862 41.91 362.181 41.45 362.201 41.05C362.221 40.67 362.061 40.02 361.711 39.13Z" fill="black" stroke="black" stroke-width="2" stroke-miterlimit="10" stroke-linecap="round" stroke-linejoin="round"/>
<path d="M394.272 43.07C394.252 40.62 393.751 37.6099 392.741 34.0199C391.751 30.4499 390.611 27.48 389.321 25.11C388.021 22.9 385.981 20.3399 383.201 17.4699C380.441 14.5799 378.011 12.56 375.941 11.42C370.031 7.92995 362.982 5.95996 354.762 5.48996C351.142 5.29996 347.561 5.45994 344.051 5.96994C337.651 6.96994 332.982 8.74998 330.022 11.32C328.922 12.26 327.951 13.4 327.101 14.74C326.501 15.71 325.961 16.76 325.461 17.92C324.811 19.48 324.271 21.2199 323.841 23.1499C323.431 24.9599 322.921 31.41 322.301 42.55C321.001 66 320.491 81.7999 320.741 89.9699C321.031 99.0199 324.251 104.58 330.381 106.67C331.941 107.15 333.671 107.45 335.561 107.54C338.881 107.73 341.581 107.48 343.681 106.81C344.001 106.71 344.321 106.62 344.621 106.51C345.911 106.1 347.071 105.6 348.081 105.03C349.611 104.2 350.831 103.19 351.731 102.03C353.381 99.8999 354.571 96.53 355.321 91.89C355.431 91.27 355.541 90.4399 355.691 89.4099C355.711 89.2699 355.741 89.14 355.751 89.01C355.971 87.52 356.182 86.26 356.392 85.25C356.692 83.63 356.951 82.58 357.171 82.14C357.521 81.36 358.351 80.8999 359.621 80.7299C360.021 80.6799 360.381 80.62 360.701 80.56C366.371 79.61 371.841 77.26 377.061 73.51C377.221 73.4 377.382 73.27 377.542 73.14C378.492 72.46 379.402 71.74 380.272 70.9799C384.042 67.77 387.102 64.05 389.532 59.83C392.422 54.68 393.991 49.9299 394.231 45.5999C394.321 44.4699 394.322 43.62 394.272 43.07ZM361.301 42.43C359.781 44.24 358.461 45.11 357.341 45.07C357.321 45.07 357.321 45.07 357.311 45.07C356.551 45.01 355.772 44.56 355.042 43.75C354.212 42.89 353.801 41.88 353.801 40.7299V40.4799C353.861 39.2099 354.452 38.13 355.522 37.24C356.542 36.27 357.351 35.7899 357.981 35.8399C358.381 35.8599 358.951 36.0899 359.731 36.5199C360.411 37.0299 361.081 37.9 361.721 39.13C362.071 40.02 362.231 40.67 362.211 41.05C362.191 41.45 361.871 41.91 361.301 42.43Z" fill="#73C2AF" stroke="black" stroke-width="2" stroke-miterlimit="10" stroke-linecap="round" stroke-linejoin="round"/>
<path d="M357.311 45.07C356.551 45.01 355.772 44.56 355.042 43.75C354.212 42.89 353.801 41.88 353.801 40.73C354.121 40.84 354.511 41.02 354.941 41.3C355.651 41.76 356.291 42.68 356.931 43.91C357.101 44.36 357.231 44.75 357.311 45.07Z" fill="white" stroke="black" stroke-width="2" stroke-miterlimit="10" stroke-linecap="round" stroke-linejoin="round"/>
</svg>
