<svg width="480" height="212" viewBox="0 0 480 212" fill="none" xmlns="http://www.w3.org/2000/svg">
<path d="M288.081 99.9004C284.241 99.9004 281.101 99.4904 278.761 98.6904C274.311 97.2704 270.231 95.0204 266.671 91.9904C263.101 88.9604 260.311 85.3904 258.381 81.3804C256.241 76.9504 255.151 72.9304 255.151 69.4304C255.151 64.6604 257.052 61.0705 260.792 58.7305C261.732 57.1705 263.041 55.8504 264.711 54.8104C264.881 54.5304 265.061 54.2604 265.251 54.0004C263.671 52.5404 262.321 51.0804 261.211 49.6504C257.661 45.0504 255.871 39.8604 255.871 34.2004C255.871 28.9604 257.941 24.1204 262.031 19.8104C262.851 18.9404 263.751 18.0905 264.771 17.2205C265.141 16.7705 265.531 16.3304 265.941 15.8904C266.771 15.0104 267.661 14.1704 268.681 13.3004C269.051 12.8504 269.441 12.4105 269.861 11.9705C272.221 9.47046 274.701 7.52042 277.231 6.18042C279.741 4.85042 282.951 3.79038 286.771 3.01038C288.301 2.65038 290.561 2.47046 293.641 2.47046C298.001 2.47046 301.601 2.8704 304.331 3.6604C310.181 5.3704 315.311 8.52037 319.581 13.0004C323.881 17.5104 326.541 22.6204 327.471 28.1604C327.691 29.4004 327.801 30.5204 327.801 31.4904C327.801 34.4204 326.792 36.9204 324.792 38.9204C324.132 39.5804 323.391 40.1404 322.591 40.5704C322.131 41.4004 321.551 42.1605 320.871 42.8405C320.491 43.2205 320.091 43.5604 319.661 43.8704C320.791 44.7304 321.771 45.5504 322.591 46.3304C324.971 48.5704 326.941 51.2304 328.451 54.2504C330.531 58.4104 331.591 62.6505 331.591 66.8405C331.591 67.7605 331.551 68.4304 331.461 68.8704C331.161 70.6504 330.361 72.8205 329.011 75.4805C327.691 78.0805 326.331 80.2004 324.961 81.7904C323.991 82.9004 322.861 83.9804 321.611 85.0004L321.591 85.0304C321.411 85.2704 321.232 85.5005 321.042 85.7104C320.072 86.8204 318.951 87.9004 317.691 88.9204L317.661 88.9504C317.481 89.1804 317.301 89.4104 317.121 89.6204C313.661 93.5804 308.981 96.5604 303.211 98.4904C300.361 99.4404 296.271 99.9004 290.721 99.9004H288.081Z" fill="#73C2AF"/>
<path d="M293.651 3.98047C297.891 3.98047 301.321 4.36047 303.921 5.11047C309.531 6.75047 314.401 9.73042 318.511 14.0504C322.621 18.3604 325.121 23.1604 326.011 28.4304C326.221 29.6004 326.321 30.6204 326.321 31.5104C326.321 34.0404 325.461 36.1704 323.751 37.8804C323.051 38.5804 322.301 39.0905 321.501 39.4705C321.091 40.3205 320.531 41.1004 319.831 41.8004C319.131 42.5004 318.381 43.0104 317.581 43.3904C317.481 43.5904 317.351 43.7705 317.241 43.9604C318.991 45.2104 320.441 46.3704 321.581 47.4404C323.841 49.5604 325.691 52.0604 327.131 54.9404C329.121 58.9104 330.111 62.8805 330.111 66.8605C330.111 67.6805 330.071 68.2605 330.011 68.6105C329.731 70.2505 328.971 72.3304 327.701 74.8204C326.431 77.3204 325.151 79.3204 323.851 80.8304C322.861 81.9704 321.751 83.0005 320.561 83.9604C320.351 84.2304 320.151 84.5004 319.941 84.7404C318.951 85.8804 317.841 86.9104 316.651 87.8704C316.441 88.1404 316.241 88.4104 316.031 88.6504C312.741 92.4204 308.331 95.2204 302.781 97.0704C300.111 97.9604 296.101 98.4104 290.761 98.4104H288.091C284.391 98.4104 281.451 98.0304 279.261 97.2804C274.951 95.9104 271.081 93.7705 267.651 90.8605C264.221 87.9505 261.591 84.5804 259.741 80.7404C257.691 76.5004 256.661 72.7304 256.661 69.4404C256.661 65.1304 258.372 61.9404 261.792 59.8904C261.832 59.8704 261.861 59.8504 261.901 59.8304C262.761 58.2704 264.021 56.9805 265.711 55.9705C265.751 55.9505 265.781 55.9304 265.821 55.9104C266.231 55.1604 266.731 54.4805 267.331 53.8605C265.391 52.1705 263.731 50.4704 262.401 48.7404C259.051 44.3904 257.371 39.5504 257.371 34.2104C257.371 29.3504 259.291 24.9005 263.121 20.8605C264.021 19.9105 264.931 19.0704 265.841 18.3004C266.221 17.8404 266.611 17.3904 267.031 16.9404C267.931 15.9904 268.841 15.1504 269.751 14.3804C270.131 13.9204 270.521 13.4704 270.941 13.0204C273.201 10.6204 275.531 8.7904 277.921 7.5304C280.321 6.2604 283.371 5.25037 287.061 4.50037C288.521 4.15037 290.711 3.98047 293.651 3.98047ZM293.651 0.980469C290.481 0.980469 288.111 1.17042 286.431 1.56042C282.491 2.37042 279.161 3.48036 276.531 4.87036C273.851 6.28036 271.241 8.33045 268.771 10.9604C268.401 11.3504 268.031 11.7704 267.621 12.2604C266.601 13.1304 265.691 13.9904 264.851 14.8804C264.481 15.2704 264.111 15.6904 263.701 16.1804C262.681 17.0504 261.781 17.9104 260.931 18.8004C256.571 23.3904 254.361 28.5804 254.361 34.2104C254.361 40.2004 256.261 45.7104 260.021 50.5804C260.911 51.7304 261.951 52.9004 263.131 54.0704C261.731 55.0704 260.571 56.2804 259.691 57.6604C255.731 60.2704 253.641 64.3304 253.641 69.4404C253.641 73.1704 254.781 77.4104 257.021 82.0504C259.041 86.2404 261.961 89.9804 265.691 93.1504C269.391 96.3004 273.631 98.6504 278.301 100.13C280.831 100.99 284.031 101.41 288.071 101.41H290.741C296.461 101.41 300.701 100.92 303.701 99.9204C309.731 97.9104 314.631 94.7804 318.261 90.6204C318.441 90.4104 318.611 90.1905 318.781 89.9705C320.051 88.9305 321.191 87.8304 322.171 86.7004C322.351 86.4904 322.521 86.2704 322.691 86.0504C323.951 85.0104 325.101 83.9104 326.081 82.7804C327.561 81.0604 328.951 78.9004 330.351 76.1504C331.761 73.3704 332.611 71.0705 332.941 69.1105C333.041 68.5605 333.091 67.8405 333.091 66.8405C333.091 62.4205 331.981 57.9604 329.801 53.5804C328.211 50.4004 326.131 47.5904 323.621 45.2404C323.131 44.7804 322.601 44.3104 322.011 43.8304C322.651 43.1804 323.211 42.4604 323.681 41.6904C324.461 41.2204 325.191 40.6604 325.851 40.0004C328.141 37.7104 329.301 34.8604 329.301 31.5104C329.301 30.4404 329.181 29.2604 328.951 27.9104C327.971 22.0804 325.181 16.7205 320.671 11.9805C316.211 7.30047 310.861 4.02047 304.761 2.23047C301.851 1.39047 298.221 0.980469 293.651 0.980469Z" fill="black"/>
<path d="M24.4213 210.05C23.7613 210.05 23.1114 210.02 22.4814 209.95C16.2214 209.1 12.1114 204.47 10.2314 196.19C8.66139 189.27 6.47137 175.58 3.72138 155.48C2.39138 145.74 1.77136 140.18 1.83136 138.48C1.95136 133.47 3.17136 129.45 5.45136 126.53C6.31136 125.43 7.44135 124.37 8.82135 123.37C8.99135 123.11 9.1814 122.85 9.3714 122.61C10.2314 121.5 11.3714 120.44 12.7514 119.44C12.9214 119.18 13.1014 118.93 13.2914 118.69C15.5814 115.77 19.4114 113.37 25.0014 111.35C27.9914 110.3 31.1314 109.54 34.3414 109.1C36.6914 108.78 39.0014 108.61 41.2014 108.61C45.7914 108.61 50.1014 109.32 54.0214 110.72C56.1014 111.39 58.5713 112.75 61.5613 114.85C64.4713 116.91 66.7314 118.83 68.2714 120.57C69.8614 122.49 71.4014 124.95 72.8714 127.92C73.0314 128.23 73.1814 128.54 73.3214 128.85C74.3214 124.77 75.2814 121.96 76.2114 120.33C77.4314 118.1 79.3213 115.95 81.8013 113.94C82.8313 112.64 84.1214 111.35 85.6314 110.11C87.2114 108.08 89.3614 106.14 92.0014 104.35C95.6314 101.89 99.4714 100.21 103.411 99.3503C106.121 98.7803 109.431 98.4902 113.281 98.4902C114.411 98.4902 115.491 98.5103 116.521 98.5603C116.361 98.2403 116.211 97.9103 116.071 97.5803C112.611 89.8603 109.961 78.7903 108.221 64.7103C107.971 62.7103 107.651 59.5604 107.271 55.3604C106.611 46.6504 106.291 40.1002 106.321 35.8702C106.351 31.4302 106.821 28.1103 107.771 25.7003C108.741 23.2203 110.421 21.1403 112.771 19.5403C112.811 19.5103 112.851 19.4903 112.881 19.4703C113.861 17.9403 115.141 16.6504 116.701 15.6104C116.741 15.5804 116.781 15.5603 116.821 15.5403C117.791 14.0503 119.061 12.7603 120.611 11.7103C122.711 10.3603 124.461 9.6203 125.991 9.4303C126.151 9.4103 126.451 9.39025 126.901 9.38025C127.231 9.37025 127.511 9.35031 127.741 9.32031C127.771 9.32031 127.811 9.3103 127.841 9.3103C128.201 9.2903 128.551 9.28027 128.901 9.28027C132.801 9.28027 136.311 10.5003 139.301 12.9003C142.591 15.5303 145.211 19.8904 147.101 25.8604C148.931 31.6304 150.581 40.3603 152.001 51.8203C152.461 55.5103 152.781 57.9202 152.981 58.9902C155.211 58.1502 158.181 57.5103 162.011 57.0403C163.201 56.8903 164.531 56.8003 165.961 56.7703C171.271 56.8803 175.491 58.2202 178.581 60.7502C178.851 56.8702 179.201 54.0203 179.661 52.0903C181.641 44.2603 183.341 39.3203 184.861 36.9703C186.021 35.1103 187.671 33.3203 189.771 31.6603C190.771 30.3703 192.051 29.1004 193.581 27.8604C195.341 25.5204 197.871 23.3603 201.081 21.4203C204.841 19.1603 208.761 17.6803 212.741 17.0403C214.581 16.7503 216.701 16.6104 219.041 16.6104C220.171 16.6104 221.391 16.6403 222.641 16.7103C227.061 16.9503 230.621 17.5004 233.231 18.3604C239.061 20.3904 244.081 23.7203 248.181 28.2903C250.541 30.8403 252.611 34.1703 254.321 38.1703C257.501 45.8603 258.881 53.9003 258.441 62.0903C258.331 64.1803 258.111 66.3002 257.791 68.3802C256.741 74.9502 255.321 80.2002 253.571 83.9902C251.781 87.8502 249.231 91.2102 245.991 93.9902C245.871 94.1002 245.751 94.1903 245.631 94.2803L245.551 94.3403C244.401 95.7303 243.261 96.9003 242.071 97.9103C241.941 98.0203 241.811 98.1203 241.681 98.2303L241.601 98.2903C240.461 99.6603 239.331 100.82 238.161 101.82C234.471 104.93 230.421 107.04 226.121 108.11C222.821 108.93 218.681 109.34 213.811 109.34C212.441 109.34 210.981 109.31 209.491 109.24C203.671 108.93 199.031 108.14 195.681 106.89C192.221 105.6 189.211 103.43 186.731 100.44C184.571 97.8103 182.861 94.8503 181.631 91.6302C181.201 90.4902 180.781 89.1902 180.391 87.7502C179.701 88.4602 178.911 89.1303 178.041 89.7703C177.071 91.1803 175.751 92.5103 174.121 93.6903C171.861 96.9903 167.961 99.5803 162.531 101.4C160.281 102.12 156.041 102.85 149.571 103.66C143.801 104.37 139.001 104.85 135.231 105.09C136.721 106.18 138.131 107.38 139.441 108.7C141.931 111.12 144.181 114.34 146.101 118.24C149.681 125.75 151.491 133.71 151.491 141.91C151.491 144 151.381 146.12 151.171 148.22C150.471 154.84 149.341 160.15 147.781 164.03C146.201 167.98 143.831 171.48 140.751 174.42C140.291 174.86 139.781 175.3 139.211 175.77C138.401 176.75 137.621 177.59 136.831 178.34C136.371 178.78 135.861 179.22 135.261 179.73C134.461 180.69 133.691 181.52 132.921 182.26C129.401 185.56 125.471 187.89 121.231 189.18C117.071 190.45 111.501 191.13 104.681 191.2C98.8613 191.2 94.1814 190.66 90.7614 189.59C87.2314 188.49 84.1114 186.48 81.4814 183.63C79.1914 181.12 77.3213 178.26 75.9213 175.11C74.5513 172.01 73.2913 167.77 72.1813 162.49C71.9413 161.24 71.7514 159.74 71.6014 157.99C70.0314 160.77 68.1014 163.37 65.8314 165.77C64.9314 166.73 63.9714 167.65 62.9814 168.51C62.6314 168.91 62.2813 169.3 61.9213 169.69C61.0113 170.65 60.0513 171.57 59.0613 172.43C58.7113 172.83 58.3614 173.22 58.0014 173.61C55.7314 176.01 53.2514 178.05 50.6314 179.7C50.6514 180.32 50.6714 180.99 50.7014 181.74C50.7514 182.63 50.7814 183.38 50.7914 183.94C50.9414 188.27 50.4314 191.52 49.2414 193.86C48.3514 195.6 46.8814 197.17 44.8714 198.53C43.9614 199.98 42.6614 201.29 40.9814 202.43C39.7014 204.48 37.5914 206.26 34.7014 207.73C32.9214 208.71 30.4613 209.43 27.4413 209.85C26.3713 209.98 25.3713 210.05 24.4213 210.05Z" fill="#73C2AF"/>
<path d="M128.881 10.8003C132.451 10.8003 135.611 11.9003 138.351 14.0903C141.411 16.5403 143.851 20.6203 145.661 26.3303C147.471 32.0403 149.081 40.6003 150.501 52.0203C151.001 56.0303 151.341 58.5202 151.531 59.5002C151.711 60.4402 151.961 60.9103 152.281 60.9103C152.291 60.9103 152.311 60.9103 152.321 60.9103L152.421 60.9003C152.481 60.8203 152.541 60.7803 152.611 60.7703C154.771 59.8103 157.951 59.0703 162.171 58.5503C163.321 58.4103 164.591 58.3203 165.971 58.2903C172.391 58.4203 177.011 60.4403 179.851 64.3203C179.861 64.0503 179.871 63.7903 179.891 63.5103C180.161 58.3803 180.571 54.7003 181.101 52.4703C183.011 44.8903 184.681 40.0103 186.101 37.8203C187.221 36.0203 188.801 34.3302 190.821 32.7502C191.831 31.4202 193.121 30.1503 194.641 28.9403C196.301 26.6903 198.691 24.6202 201.831 22.7402C205.441 20.5702 209.151 19.1703 212.961 18.5503C214.721 18.2803 216.741 18.1403 219.021 18.1403C220.131 18.1403 221.311 18.1702 222.541 18.2402C226.851 18.4702 230.251 19.0003 232.741 19.8103C238.331 21.7503 243.101 24.9203 247.041 29.3203C249.311 31.7703 251.271 34.9303 252.911 38.7903C256.011 46.2903 257.341 54.0403 256.921 62.0403C256.811 64.0903 256.601 66.1403 256.281 68.1803C255.251 74.6403 253.881 79.7103 252.181 83.3903C250.471 87.0703 248.081 90.2302 244.991 92.8802C244.821 93.0202 244.641 93.1603 244.471 93.3003C243.441 94.5503 242.331 95.7303 241.071 96.8003C240.891 96.9603 240.701 97.1002 240.521 97.2502C239.501 98.4802 238.401 99.6603 237.161 100.72C233.641 103.69 229.831 105.68 225.731 106.69C222.541 107.48 218.561 107.88 213.781 107.88C212.421 107.88 211.001 107.85 209.521 107.78C203.841 107.48 199.391 106.73 196.171 105.53C192.951 104.33 190.171 102.33 187.851 99.5303C185.791 97.0203 184.171 94.2303 183.001 91.1503C182.291 89.3003 181.661 87.0503 181.081 84.4203C180.991 84.5703 180.911 84.7302 180.811 84.8802C179.861 86.3203 178.551 87.6103 176.911 88.7603C176.901 88.7703 176.901 88.7803 176.891 88.8003C175.941 90.2403 174.631 91.5303 172.991 92.6803C172.981 92.6903 172.981 92.7003 172.971 92.7203C170.911 95.8403 167.261 98.2703 162.021 100.03C159.901 100.71 155.671 101.44 149.351 102.22C140.761 103.28 134.441 103.81 130.391 103.81C130.351 103.81 130.311 103.81 130.271 103.81C133.211 105.38 135.911 107.37 138.351 109.81C140.751 112.14 142.871 115.19 144.721 118.95C148.211 126.28 149.961 133.95 149.961 141.96C149.961 144.01 149.861 146.07 149.651 148.12C148.971 154.63 147.871 159.76 146.361 163.53C144.851 167.3 142.631 170.58 139.681 173.39C139.171 173.87 138.641 174.33 138.111 174.76C137.381 175.65 136.611 176.5 135.761 177.3C135.231 177.8 134.701 178.26 134.151 178.71C133.431 179.58 132.671 180.42 131.841 181.22C128.481 184.37 124.791 186.56 120.751 187.79C116.711 189.02 111.341 189.67 104.631 189.74C98.9514 189.74 94.4613 189.23 91.1713 188.2C87.8813 187.17 85.0115 185.32 82.5415 182.65C80.3515 180.25 78.5814 177.55 77.2514 174.54C75.9114 171.53 74.7014 167.42 73.6014 162.21C73.1414 159.79 72.8514 156.35 72.7314 151.89C70.9914 156.64 68.3214 160.94 64.6914 164.77C63.7714 165.74 62.8314 166.64 61.8614 167.48C61.5014 167.89 61.1514 168.29 60.7714 168.69C59.8514 169.66 58.9114 170.56 57.9414 171.4C57.5814 171.81 57.2314 172.21 56.8514 172.61C54.4214 175.18 51.8214 177.26 49.0514 178.9C49.0614 179.74 49.0914 180.71 49.1414 181.83C49.1914 182.72 49.2214 183.44 49.2314 184C49.3714 188.06 48.9114 191.13 47.8514 193.21C47.0314 194.81 45.6514 196.24 43.7014 197.5C42.8714 198.94 41.5814 200.25 39.8014 201.4C38.6914 203.33 36.7514 205.01 33.9614 206.43C32.2914 207.35 30.0314 208 27.1814 208.4C26.2214 208.53 25.2915 208.6 24.4115 208.6C23.8015 208.6 23.2114 208.57 22.6414 208.51C17.0714 207.75 13.4214 203.55 11.6914 195.91C10.1214 189.01 7.96138 175.48 5.20138 155.33C3.89138 145.76 3.26137 140.18 3.32137 138.59C3.44137 133.88 4.54142 130.18 6.62142 127.51C7.46142 126.44 8.56146 125.44 9.91146 124.49C10.1115 124.18 10.3215 123.88 10.5415 123.59C11.3815 122.52 12.4914 121.51 13.8414 120.56C14.0414 120.26 14.2414 119.96 14.4614 119.68C16.5514 117.01 20.2314 114.73 25.5014 112.83C28.4014 111.81 31.4115 111.09 34.5315 110.66C36.8315 110.35 39.0514 110.19 41.1914 110.19C45.6314 110.19 49.7314 110.86 53.5114 112.21C55.4614 112.84 57.8514 114.16 60.6914 116.15C63.5214 118.15 65.6714 119.98 67.1414 121.64C68.6314 123.44 70.0914 125.78 71.5214 128.66C72.4914 130.62 73.2114 132.38 73.7214 133.97C75.0714 127.49 76.3314 123.2 77.5114 121.15C78.6914 119.01 80.4814 116.98 82.8814 115.07C83.9114 113.75 85.1914 112.47 86.7114 111.23C88.2114 109.27 90.2514 107.41 92.8414 105.66C96.3314 103.3 99.9614 101.71 103.731 100.88C106.331 100.33 109.511 100.06 113.281 100.06C115.611 100.06 117.661 100.16 119.471 100.36C118.681 99.4704 118.001 98.3803 117.451 97.0703C114.021 89.4203 111.441 78.6003 109.701 64.6003C109.461 62.6303 109.141 59.5303 108.751 55.3003C108.091 46.6203 107.771 40.1703 107.801 35.9603C107.831 31.7503 108.281 28.5403 109.141 26.3203C110.001 24.1103 111.491 22.2903 113.591 20.8503C113.711 20.7703 113.821 20.7203 113.941 20.6403C114.811 19.2003 115.981 17.9403 117.511 16.9303C117.641 16.8503 117.751 16.7903 117.871 16.7103C118.741 15.2803 119.921 14.0403 121.421 13.0103C123.271 11.8203 124.841 11.1403 126.131 10.9803C126.271 10.9603 126.521 10.9503 126.901 10.9403C127.281 10.9303 127.601 10.9002 127.871 10.8702C128.231 10.8002 128.551 10.8003 128.881 10.8003ZM218.261 61.8503C218.011 60.1803 217.271 58.5202 216.031 56.8702C215.691 56.4602 215.381 56.1502 215.101 55.8802C215.111 56.9502 215.291 57.9203 215.631 58.7803C216.161 60.2103 217.041 61.2303 218.261 61.8503ZM110.961 143.63C110.651 141.9 109.811 140.21 108.431 138.56C108.231 138.35 108.051 138.18 107.881 138.01C107.951 139.09 108.171 140.05 108.571 140.9C109.101 142.14 109.901 143.05 110.961 143.63ZM128.881 7.80029C128.501 7.80029 128.131 7.81032 127.741 7.83032C127.671 7.83032 127.601 7.84034 127.531 7.85034C127.341 7.87034 127.101 7.89027 126.841 7.90027C126.311 7.92027 126.011 7.94034 125.781 7.97034C124.031 8.19034 122.071 9.00033 119.811 10.4603C119.791 10.4703 119.771 10.4902 119.741 10.5002C118.121 11.6102 116.771 12.9402 115.721 14.4902C114.141 15.5602 112.821 16.8803 111.781 18.4303C109.251 20.1903 107.421 22.4703 106.361 25.2003C105.351 27.7803 104.841 31.2803 104.811 35.9103C104.781 40.1803 105.101 46.7702 105.771 55.5002C106.161 59.7702 106.481 62.9303 106.731 64.9403C108.401 78.4403 110.911 89.2303 114.181 97.0403C113.881 97.0403 113.591 97.0303 113.281 97.0303C109.331 97.0303 105.911 97.3303 103.111 97.9203C98.9714 98.8203 94.9515 100.58 91.1615 103.15C88.4415 104.99 86.2214 106.99 84.5514 109.1C83.0614 110.33 81.7814 111.62 80.7314 112.92C78.1714 115.01 76.2114 117.28 74.9015 119.65C74.2215 120.84 73.5514 122.52 72.8814 124.77C71.7614 122.8 70.6214 121.1 69.4614 119.69C69.4414 119.66 69.4214 119.64 69.4015 119.61C67.7615 117.76 65.4814 115.81 62.4314 113.66C59.3414 111.48 56.7414 110.06 54.4914 109.33C50.4214 107.88 45.9514 107.15 41.2114 107.15C38.9414 107.15 36.5614 107.32 34.1414 107.65C30.8314 108.1 27.6014 108.88 24.5214 109.96C18.6314 112.08 14.5814 114.64 12.1214 117.79C11.9614 118 11.8113 118.21 11.6713 118.4C10.2713 119.43 9.11138 120.54 8.20138 121.7C8.03138 121.91 7.88142 122.13 7.74142 122.33C6.34142 123.36 5.18145 124.47 4.28145 125.62C1.80145 128.8 0.471391 133.12 0.341391 138.47C0.301391 139.58 0.451416 142.61 2.24142 155.7C5.00142 175.84 7.20145 189.58 8.78145 196.54C10.1815 202.69 13.6514 210.27 22.2514 211.45C22.2814 211.45 22.3014 211.46 22.3314 211.46C23.0114 211.53 23.7114 211.57 24.4314 211.57C25.4514 211.57 26.5214 211.49 27.6114 211.34C30.8314 210.9 33.3814 210.15 35.3914 209.06C38.3814 207.53 40.6215 205.66 42.0415 203.5C43.6715 202.35 44.9714 201.04 45.9314 199.6C48.0214 198.13 49.5715 196.44 50.5415 194.55C51.8515 191.99 52.4114 188.5 52.2514 183.9C52.2414 183.29 52.2115 182.54 52.1615 181.66C52.1415 181.26 52.1314 180.88 52.1214 180.51C54.5814 178.88 56.9114 176.92 59.0614 174.65C59.4214 174.27 59.7614 173.89 60.0914 173.51C61.0914 172.64 62.0614 171.7 62.9714 170.74C63.3314 170.36 63.6814 169.97 64.0114 169.59C65.0114 168.71 65.9814 167.78 66.8914 166.82C68.2414 165.39 69.4814 163.89 70.5914 162.33C70.6214 162.48 70.6413 162.62 70.6713 162.77C70.6713 162.79 70.6814 162.8 70.6814 162.82C71.8114 168.2 73.1014 172.55 74.5214 175.75C75.9814 179.05 77.9414 182.05 80.3414 184.67C83.1614 187.73 86.5115 189.87 90.2915 191.05C93.9015 192.18 98.6014 192.73 104.641 192.73C111.731 192.66 117.281 191.98 121.641 190.65C126.101 189.29 130.231 186.85 133.911 183.39C134.721 182.62 135.501 181.78 136.301 180.83C136.881 180.35 137.371 179.91 137.841 179.47C138.641 178.71 139.441 177.86 140.261 176.88C140.811 176.42 141.301 175.99 141.751 175.57C145.011 172.46 147.501 168.79 149.161 164.64C150.761 160.63 151.931 155.18 152.641 148.43C152.861 146.27 152.971 144.09 152.971 141.95C152.971 133.53 151.111 125.35 147.441 117.65C145.431 113.56 143.091 110.21 140.451 107.65C140.001 107.2 139.541 106.77 139.071 106.34C142.121 106.07 145.661 105.69 149.731 105.18C156.291 104.37 160.611 103.61 162.941 102.87C168.611 100.97 172.711 98.2603 175.181 94.7903C176.771 93.6103 178.081 92.3002 179.101 90.8702C179.271 90.7402 179.431 90.6202 179.601 90.4902C179.801 91.0902 180.001 91.6703 180.201 92.2103C181.481 95.5803 183.281 98.6803 185.541 101.43C188.201 104.63 191.421 106.95 195.131 108.33C198.681 109.65 203.341 110.45 209.371 110.77C210.921 110.84 212.401 110.87 213.791 110.87C218.781 110.87 223.041 110.44 226.461 109.6C230.991 108.48 235.241 106.26 239.101 103.01C240.321 101.96 241.471 100.79 242.641 99.4003C242.771 99.3003 242.901 99.1903 243.031 99.0903C244.251 98.0503 245.421 96.8603 246.601 95.4603C246.721 95.3703 246.831 95.2803 246.951 95.1803C250.371 92.2503 253.051 88.7103 254.931 84.6603C256.741 80.7403 258.201 75.3603 259.271 68.6603C259.601 66.5103 259.831 64.3503 259.941 62.2103C260.391 53.8003 258.971 45.5403 255.711 37.6503C253.921 33.4603 251.761 29.9903 249.271 27.2903C245.031 22.5703 239.791 19.0902 233.751 16.9902C233.731 16.9802 233.721 16.9803 233.701 16.9703C230.921 16.0603 227.331 15.5002 222.721 15.2502C221.441 15.1802 220.201 15.1503 219.041 15.1503C216.621 15.1503 214.431 15.3003 212.521 15.6003C208.331 16.2803 204.231 17.8203 200.311 20.1803C197.001 22.1703 194.371 24.4203 192.501 26.8503C191.001 28.0803 189.721 29.3502 188.701 30.6302C186.541 32.3602 184.821 34.2403 183.591 36.2203C181.961 38.7503 180.251 43.6902 178.221 51.7402C177.851 53.3002 177.541 55.3903 177.301 58.0703C174.271 56.3203 170.521 55.3903 166.071 55.3003C166.051 55.3003 166.031 55.3003 166.011 55.3003C165.991 55.3003 165.961 55.3003 165.941 55.3003C164.471 55.3403 163.091 55.4303 161.851 55.5903C158.821 55.9703 156.291 56.4503 154.221 57.0503C154.061 55.9203 153.841 54.2203 153.521 51.6803C152.091 40.1403 150.421 31.3103 148.561 25.4503C146.581 19.1903 143.781 14.5903 140.261 11.7803C136.951 9.12027 133.131 7.80029 128.881 7.80029Z" fill="black"/>
<path d="M192.811 203.42C190.331 203.42 186.632 203.18 181.792 202.71C170.042 201.56 162.701 200.39 159.351 199.13C156.711 198.29 154.641 197.08 153.251 195.57C151.851 194.04 150.911 191.99 150.461 189.48C148.771 181.19 148.611 169.81 149.981 155.69C150.171 153.69 150.551 150.55 151.101 146.36C152.361 137.72 153.481 131.26 154.431 127.14C155.431 122.82 156.621 119.67 158.071 117.53C159.031 116.1 160.282 114.88 161.792 113.91C161.862 113.8 161.921 113.7 161.981 113.61C162.971 112.15 164.221 110.92 165.731 109.96C165.791 109.87 165.842 109.78 165.902 109.69C167.392 107.48 169.481 105.82 172.121 104.77C174.121 104.03 175.751 103.68 177.141 103.68C177.391 103.68 177.631 103.69 177.861 103.71C178.021 103.73 178.321 103.77 178.761 103.86C179.081 103.92 179.361 103.96 179.591 103.99C179.631 103.99 179.661 104 179.691 104C183.971 104.72 187.471 106.74 190.091 110.01C192.721 113.29 194.331 118.12 194.871 124.36C195.391 130.39 195.091 139.27 193.971 150.76C193.611 154.48 193.401 156.9 193.351 157.97C194.451 157.82 195.711 157.74 197.101 157.74C198.711 157.74 200.551 157.84 202.581 158.04C203.781 158.16 205.091 158.36 206.491 158.64C217.071 161.24 221.981 167.73 221.141 177.95C220.611 183.36 218.852 187.52 215.902 190.36C215.342 190.9 214.711 191.4 213.971 191.9C213.371 192.79 212.701 193.58 211.991 194.27C211.431 194.81 210.792 195.32 210.042 195.82C209.442 196.71 208.781 197.5 208.071 198.19C205.141 201.01 200.712 202.74 194.902 203.34C194.332 203.39 193.621 203.42 192.811 203.42Z" fill="#73C2AF"/>
<path d="M177.151 105.18C177.351 105.18 177.541 105.19 177.721 105.21C177.861 105.22 178.111 105.27 178.481 105.34C178.851 105.41 179.171 105.46 179.451 105.49C183.371 106.15 186.531 107.97 188.931 110.96C191.381 114.02 192.871 118.53 193.391 124.5C193.911 130.47 193.611 139.18 192.491 150.63C192.101 154.65 191.891 157.16 191.861 158.15C191.831 159.15 191.991 159.66 192.331 159.69L192.431 159.7C192.501 159.65 192.561 159.62 192.621 159.62C192.631 159.62 192.631 159.62 192.641 159.62C193.871 159.38 195.361 159.25 197.121 159.25C198.691 159.25 200.461 159.35 202.461 159.54C203.621 159.65 204.871 159.84 206.221 160.11C215.961 162.51 220.441 168.41 219.661 177.83C219.171 182.87 217.571 186.69 214.881 189.28C214.291 189.85 213.621 190.35 212.901 190.82C212.331 191.7 211.691 192.49 210.961 193.19C210.371 193.76 209.701 194.27 208.971 194.74C208.401 195.62 207.771 196.41 207.041 197.11C204.341 199.7 200.251 201.28 194.761 201.85C194.221 201.9 193.571 201.92 192.801 201.92C190.361 201.92 186.741 201.69 181.931 201.22C170.411 200.1 163.061 198.93 159.881 197.73C157.411 196.94 155.571 195.88 154.361 194.56C153.151 193.24 152.341 191.46 151.941 189.22C150.261 181.01 150.111 169.88 151.481 155.84C151.671 153.86 152.041 150.77 152.591 146.56C153.841 137.95 154.941 131.59 155.901 127.48C156.851 123.38 157.991 120.34 159.321 118.37C160.251 116.99 161.461 115.87 162.901 115C163.011 114.81 163.121 114.63 163.241 114.46C164.181 113.07 165.381 111.93 166.841 111.06C166.951 110.88 167.051 110.71 167.161 110.54C168.491 108.57 170.331 107.12 172.691 106.18C174.461 105.51 175.951 105.18 177.151 105.18ZM177.151 102.18C175.581 102.18 173.771 102.56 171.641 103.34C171.611 103.35 171.591 103.36 171.571 103.37C168.651 104.53 166.321 106.38 164.661 108.84C164.651 108.85 164.651 108.86 164.641 108.87C163.091 109.91 161.781 111.22 160.741 112.76C160.731 112.78 160.711 112.8 160.701 112.82C159.141 113.87 157.841 115.16 156.821 116.67C155.271 118.97 154.011 122.28 152.971 126.78C152.011 130.94 150.881 137.44 149.621 146.1C149.071 150.35 148.691 153.51 148.491 155.52C147.101 169.77 147.271 181.29 148.991 189.76C149.491 192.54 150.551 194.83 152.151 196.57C153.701 198.26 155.971 199.6 158.901 200.55C162.401 201.85 169.851 203.04 181.651 204.19C186.601 204.67 190.261 204.91 192.821 204.91C193.691 204.91 194.421 204.88 195.051 204.83C201.241 204.19 205.971 202.32 209.141 199.27C209.861 198.57 210.541 197.78 211.151 196.9C211.871 196.4 212.491 195.89 213.061 195.35C213.791 194.65 214.461 193.85 215.081 192.98C215.791 192.48 216.421 191.98 216.981 191.44C220.191 188.35 222.111 183.86 222.671 178.12C223.581 167.17 218.141 159.94 206.961 157.19C206.921 157.18 206.871 157.17 206.831 157.16C205.391 156.87 204.021 156.66 202.771 156.54C200.691 156.34 198.801 156.23 197.141 156.23C196.381 156.23 195.671 156.25 195.001 156.29C195.091 155.15 195.241 153.44 195.491 150.89C196.621 139.31 196.921 130.34 196.391 124.21C195.821 117.67 194.101 112.57 191.291 109.05C188.431 105.49 184.621 103.28 179.971 102.5C179.901 102.49 179.831 102.48 179.761 102.47C179.631 102.46 179.401 102.43 179.071 102.37C178.561 102.27 178.261 102.23 178.031 102.2C177.741 102.19 177.451 102.18 177.151 102.18Z" fill="black"/>
<path d="M278.412 209.34C276.652 209.34 275.012 209.15 273.532 208.78C267.442 207.08 264.002 201.94 263.262 193.49C263.201 192.76 263.141 191.96 263.081 191.08C262.121 192.56 260.861 193.79 259.311 194.74C258.321 196.35 257.001 197.66 255.381 198.67C253.371 201.94 250.031 203.98 245.431 204.72C245.391 204.73 245.361 204.73 245.321 204.73L244.091 204.84C243.591 204.88 243.091 204.91 242.591 204.91C239.121 204.91 235.831 203.81 232.821 201.65C229.931 199.57 227.801 196.54 226.501 192.65C225.581 189.6 223.971 174.84 221.571 147.47C220.381 133.89 220.332 131.17 220.402 130.31C220.722 127.65 221.812 125.31 223.652 123.29C224.412 122.46 225.301 121.69 226.301 121.02C226.711 120.4 227.131 119.86 227.571 119.37C228.341 118.52 229.241 117.75 230.241 117.08C230.641 116.47 231.051 115.94 231.491 115.46C233.291 113.48 235.641 112.01 238.491 111.08C240.151 110.57 241.582 110.26 242.772 110.15C243.202 110.11 243.651 110.09 244.101 110.09C245.601 110.09 247.231 110.3 248.971 110.71C252.541 111.51 255.472 113.17 257.662 115.63C259.782 118.02 261.541 121.57 262.881 126.19C263.221 127.32 263.531 128.85 263.831 130.8C264.791 127.92 266.181 125.58 267.991 123.82C268.571 123.25 269.262 122.7 270.022 122.19C270.612 121.32 271.242 120.56 271.912 119.91C272.502 119.34 273.181 118.79 273.941 118.27C274.521 117.41 275.161 116.64 275.831 115.99C278.491 113.4 282.611 111.55 288.431 110.31C291.541 109.67 294.751 109.35 297.991 109.35C305.321 109.35 311.812 110.79 317.272 113.63C319.232 114.57 321.501 116.25 324.181 118.74C326.791 121.17 328.761 123.39 330.051 125.32C331.321 127.36 332.471 129.9 333.501 132.9C334.431 130.97 335.272 129.55 336.032 128.6C337.012 127.33 338.251 126.12 339.711 125.01C339.791 124.9 339.861 124.79 339.931 124.7C340.941 123.42 342.171 122.22 343.601 121.13C343.691 121 343.781 120.88 343.861 120.77C345.891 118.14 348.961 115.83 352.981 113.94C356.951 112.07 361.002 110.99 365.022 110.75C365.582 110.72 366.151 110.71 366.741 110.71C369.111 110.71 371.862 110.95 374.912 111.42C379.282 112.1 382.772 113.01 385.282 114.12C390.882 116.72 395.542 120.55 399.162 125.5C399.212 125.57 399.261 125.63 399.311 125.7C399.861 124.61 400.511 123.53 401.241 122.48C402.921 120.07 404.791 118.02 406.801 116.39C408.031 114.89 409.362 113.56 410.762 112.43C412.262 110.61 413.862 109.06 415.522 107.85C417.812 106.17 420.831 104.64 424.501 103.31C425.962 102.73 428.171 102.22 431.221 101.77C433.931 101.37 436.371 101.17 438.481 101.17C439.741 101.17 440.911 101.24 441.971 101.39C448.011 102.23 453.541 104.59 458.431 108.4C463.351 112.24 466.721 116.9 468.461 122.25C468.861 123.44 469.132 124.54 469.272 125.5C469.702 128.4 469.061 131.02 467.382 133.29C466.521 134.45 465.471 135.35 464.251 135.98C464.021 136.4 463.751 136.81 463.461 137.21C463.101 137.69 462.712 138.13 462.282 138.53C463.842 139.36 465.182 140.16 466.292 140.93C468.972 142.79 471.311 145.14 473.251 147.91C475.921 151.72 477.581 155.76 478.191 159.9C478.331 160.83 478.381 161.47 478.361 161.93C478.331 163.73 477.852 166 476.912 168.82C475.992 171.59 474.951 173.89 473.821 175.66C472.291 178.04 470.331 180.22 467.991 182.16C466.821 183.58 465.511 184.89 464.101 186.05C461.401 189.34 457.842 192.11 453.522 194.3C450.842 195.66 446.861 196.71 441.371 197.53L438.731 197.92C436.621 198.23 434.702 198.39 433.012 198.39C431.661 198.39 430.421 198.29 429.331 198.09C424.721 197.34 420.352 195.71 416.392 193.24C412.412 190.76 409.132 187.64 406.642 183.96C404.392 180.66 402.881 177.53 402.111 174.61C401.101 177.3 400.032 179.6 398.912 181.5C397.202 184.39 394.981 186.97 392.331 189.16C391.111 190.63 389.771 191.96 388.371 193.12C386.631 195.22 384.672 197.04 382.532 198.53C378.542 201.25 374.302 202.95 369.912 203.58C368.242 203.82 366.371 203.94 364.351 203.94C361.131 203.94 357.401 203.64 353.251 203.03C347.491 202.14 342.961 200.88 339.741 199.3C336.421 197.67 333.651 195.21 331.481 191.99C329.601 189.16 328.192 186.04 327.292 182.71C326.412 179.44 325.822 175.05 325.532 169.66C325.492 168.6 325.511 167.37 325.591 165.96C324.711 166.89 323.781 167.78 322.801 168.64C321.591 170.03 320.261 171.36 318.831 172.6C317.251 174.42 315.502 176.1 313.632 177.6C310.682 179.97 307.561 181.83 304.341 183.14L304.301 183.53C304.231 184.42 304.161 185.16 304.091 185.72C303.651 190.03 302.711 193.18 301.211 195.33C300.371 196.54 299.201 197.61 297.741 198.53C297.591 198.8 297.442 199.04 297.292 199.25C296.452 200.46 295.281 201.53 293.831 202.45C293.671 202.72 293.532 202.95 293.382 203.17C291.871 205.34 289.351 207.05 285.921 208.25C283.991 208.96 281.452 209.34 278.412 209.34ZM406.532 153.7C406.462 155.88 406.251 158.05 405.921 160.17C405.871 160.47 405.822 160.77 405.772 161.07C405.802 161.05 405.831 161.02 405.861 161C406.231 160.7 406.621 160.42 407.081 160.15C407.781 159.01 408.692 157.98 409.782 157.09C410.012 156.91 410.241 156.73 410.471 156.57C409.031 155.62 407.712 154.67 406.532 153.7Z" fill="#73C2AF"/>
<path d="M438.431 102.67C439.631 102.67 440.731 102.74 441.721 102.87C447.511 103.67 452.761 105.91 457.461 109.58C462.161 113.25 465.331 117.62 466.981 122.71C467.351 123.83 467.611 124.83 467.741 125.71C468.111 128.22 467.571 130.44 466.131 132.39C465.281 133.53 464.261 134.33 463.101 134.84C462.861 135.35 462.561 135.83 462.211 136.31C461.391 137.42 460.402 138.2 459.282 138.71C461.782 139.92 463.821 141.07 465.391 142.16C467.941 143.93 470.131 146.13 471.971 148.77C474.511 152.41 476.082 156.19 476.662 160.12C476.782 160.93 476.831 161.51 476.811 161.86C476.781 163.53 476.321 165.69 475.431 168.35C474.541 171.01 473.571 173.18 472.501 174.86C471.011 177.18 469.131 179.25 466.871 181.09C465.731 182.48 464.441 183.79 462.981 184.99C460.401 188.16 457.022 190.82 452.792 192.97C450.282 194.24 446.381 195.27 441.101 196.05L438.461 196.44C436.411 196.74 434.581 196.89 432.961 196.89C431.691 196.89 430.551 196.8 429.551 196.61C425.081 195.89 420.941 194.33 417.131 191.96C413.321 189.58 410.211 186.63 407.831 183.11C405.181 179.21 403.611 175.64 403.131 172.38C402.501 168.11 403.721 164.71 406.811 162.18C407.251 161.82 407.711 161.53 408.171 161.27C408.801 160.16 409.641 159.16 410.731 158.26C411.181 157.89 411.641 157.58 412.111 157.32C412.321 156.95 412.551 156.6 412.811 156.25C410.051 154.61 407.691 152.88 405.801 151.05C405.541 150.8 405.301 150.53 405.051 150.27C405.141 153.48 404.951 156.71 404.451 159.95C404.131 161.98 403.721 163.99 403.201 165.99C401.531 172.31 399.651 177.22 397.591 180.71C395.901 183.56 393.771 186 391.241 188.07C390.051 189.51 388.742 190.84 387.282 192.03C385.662 194.01 383.801 195.78 381.652 197.27C377.852 199.87 373.861 201.46 369.681 202.06C368.081 202.29 366.291 202.4 364.331 202.4C361.171 202.4 357.541 202.1 353.451 201.51C347.831 200.64 343.481 199.44 340.391 197.92C337.301 196.4 334.741 194.13 332.721 191.12C330.921 188.42 329.591 185.47 328.741 182.29C327.881 179.11 327.312 174.86 327.032 169.55C326.962 167.49 327.121 164.74 327.511 161.3C325.861 163.57 323.931 165.65 321.741 167.55C320.531 168.95 319.212 170.27 317.771 171.51C316.261 173.26 314.571 174.9 312.691 176.41C309.571 178.91 306.321 180.79 302.941 182.06C302.901 182.47 302.851 182.9 302.811 183.36C302.741 184.25 302.671 184.97 302.601 185.52C302.191 189.56 301.321 192.54 299.981 194.46C299.191 195.6 298.061 196.59 296.631 197.44C296.451 197.77 296.271 198.09 296.071 198.38C295.281 199.52 294.151 200.51 292.721 201.36C292.541 201.69 292.362 202.01 292.162 202.3C290.822 204.22 288.581 205.72 285.431 206.82C283.651 207.5 281.321 207.85 278.451 207.85C276.811 207.85 275.301 207.68 273.931 207.34C268.521 205.83 265.472 201.18 264.792 193.37C264.532 190.45 264.331 186.37 264.181 181.16C263.981 183.75 263.701 185.66 263.331 186.87C262.501 189.92 260.801 192.18 258.241 193.65C257.301 195.3 255.991 196.61 254.311 197.58C252.561 200.64 249.541 202.54 245.211 203.24L243.981 203.35C243.521 203.39 243.071 203.41 242.621 203.41C239.451 203.41 236.491 202.42 233.731 200.43C231.091 198.53 229.161 195.78 227.951 192.17C227.081 189.29 225.461 174.35 223.091 147.33C222.211 137.3 221.821 131.67 221.921 130.42C222.201 128.13 223.152 126.09 224.792 124.29C225.552 123.45 226.441 122.72 227.421 122.09C227.801 121.5 228.211 120.92 228.711 120.37C229.481 119.52 230.371 118.78 231.361 118.14C231.731 117.56 232.141 116.99 232.631 116.45C234.261 114.66 236.381 113.34 238.981 112.49C240.521 112.01 241.831 111.72 242.931 111.63C243.321 111.6 243.721 111.58 244.131 111.58C245.521 111.58 247.022 111.77 248.652 112.16C251.952 112.9 254.581 114.39 256.571 116.62C258.551 118.85 260.181 122.18 261.471 126.6C262.151 128.88 262.762 133.05 263.292 139.12C263.532 141.84 263.721 144.65 263.891 147.52C263.931 140.75 264.062 136.71 264.292 135.41C265.042 130.75 266.641 127.24 269.071 124.88C269.671 124.3 270.361 123.76 271.131 123.25C271.681 122.4 272.301 121.63 272.981 120.96C273.581 120.38 274.271 119.84 275.051 119.33C275.601 118.48 276.212 117.71 276.902 117.05C279.332 114.69 283.281 112.93 288.761 111.76C291.771 111.14 294.851 110.84 298.011 110.84C305.131 110.84 311.331 112.21 316.601 114.95C318.451 115.84 320.641 117.47 323.171 119.83C325.701 122.19 327.591 124.3 328.821 126.15C330.051 128.14 331.181 130.65 332.211 133.7C332.641 134.96 332.971 136.13 333.241 137.23C334.801 133.48 336.131 130.9 337.221 129.54C338.181 128.29 339.381 127.14 340.831 126.06C340.931 125.91 341.041 125.75 341.141 125.62C342.101 124.39 343.291 123.24 344.721 122.18C344.831 122.02 344.951 121.84 345.061 121.71C346.971 119.24 349.831 117.1 353.641 115.3C357.451 113.5 361.281 112.49 365.131 112.25C365.651 112.22 366.201 112.21 366.761 112.21C369.061 112.21 371.711 112.44 374.701 112.91C378.961 113.57 382.291 114.44 384.691 115.5C390.051 118 394.481 121.63 397.971 126.4C398.551 127.17 399.091 128.01 399.601 128.89C400.251 127.03 401.211 125.19 402.491 123.36C404.171 120.96 405.971 119.01 407.891 117.48C409.151 115.93 410.471 114.62 411.851 113.52C413.301 111.74 414.821 110.26 416.441 109.07C418.631 107.47 421.492 106.02 425.042 104.73C426.412 104.18 428.551 103.69 431.471 103.26C434.041 102.86 436.391 102.67 438.431 102.67ZM366.711 156.25C366.551 154.71 366.002 153.14 365.032 151.54C364.402 150.61 363.871 150.01 363.441 149.74C363.361 150.77 363.441 151.71 363.691 152.57C364.151 154.32 365.171 155.52 366.711 156.25ZM438.431 99.6704C436.251 99.6704 433.731 99.8804 430.961 100.29C427.821 100.75 425.512 101.29 423.912 101.92C420.132 103.3 417.001 104.88 414.601 106.64C412.881 107.91 411.222 109.49 409.662 111.36C408.262 112.5 406.931 113.83 405.701 115.33C403.631 117.03 401.701 119.15 399.971 121.63C399.661 122.08 399.361 122.53 399.071 122.99C395.511 118.63 391.081 115.19 385.902 112.77C385.882 112.76 385.871 112.75 385.851 112.75C383.181 111.57 379.661 110.65 375.101 109.94C371.981 109.45 369.151 109.21 366.701 109.21C366.091 109.21 365.482 109.23 364.912 109.26C360.682 109.52 356.441 110.64 352.301 112.59C348.081 114.58 344.831 117.03 342.631 119.86C342.581 119.93 342.521 120 342.461 120.08C341.011 121.21 339.751 122.45 338.711 123.77C338.661 123.83 338.621 123.89 338.571 123.96C337.091 125.11 335.822 126.36 334.792 127.69C334.442 128.13 334.071 128.67 333.691 129.29C332.941 127.5 332.141 125.92 331.301 124.57C331.281 124.54 331.261 124.51 331.251 124.49C329.881 122.43 327.882 120.19 325.152 117.65C322.382 115.07 320.001 113.32 317.871 112.28C312.201 109.34 305.491 107.85 297.941 107.85C294.601 107.85 291.291 108.18 288.091 108.84C281.971 110.14 277.611 112.13 274.741 114.92C274.061 115.58 273.421 116.34 272.821 117.2C272.081 117.72 271.411 118.27 270.821 118.84C270.141 119.5 269.492 120.27 268.902 121.12C268.162 121.64 267.492 122.18 266.912 122.76C265.952 123.7 265.091 124.78 264.351 126C264.331 125.92 264.312 125.84 264.282 125.77C262.862 120.89 261.051 117.24 258.751 114.65C256.351 111.95 253.151 110.13 249.251 109.25C247.441 108.82 245.681 108.6 244.071 108.6C243.571 108.6 243.081 108.62 242.611 108.66C241.301 108.78 239.802 109.1 238.042 109.64C234.902 110.66 232.331 112.27 230.351 114.45C229.921 114.92 229.521 115.43 229.131 116.01C228.131 116.71 227.221 117.5 226.431 118.37C226.001 118.85 225.591 119.37 225.191 119.95C224.191 120.65 223.292 121.44 222.522 122.29C220.472 124.54 219.252 127.16 218.902 130.07C218.892 130.11 218.891 130.16 218.891 130.2C218.811 131.19 218.881 134.06 220.061 147.61C223.271 184.2 224.442 191.07 225.032 193.05C225.042 193.08 225.051 193.11 225.061 193.13C226.471 197.33 228.781 200.6 231.931 202.87C235.201 205.22 238.781 206.41 242.571 206.41C243.111 206.41 243.651 206.39 244.201 206.34L245.431 206.23C245.501 206.22 245.582 206.21 245.652 206.2C250.562 205.4 254.191 203.24 256.451 199.76C258.041 198.73 259.361 197.41 260.381 195.83C260.911 195.49 261.401 195.12 261.871 194.72C262.601 200.81 265.201 208.03 273.081 210.22C273.111 210.23 273.132 210.23 273.162 210.24C274.762 210.64 276.532 210.84 278.412 210.84C281.662 210.84 284.291 210.44 286.431 209.63C290.151 208.33 292.901 206.44 294.591 204.01C294.701 203.85 294.811 203.68 294.921 203.5C296.411 202.52 297.611 201.37 298.511 200.09C298.621 199.93 298.731 199.76 298.841 199.58C300.331 198.6 301.531 197.45 302.431 196.17C304.071 193.81 305.101 190.43 305.571 185.85C305.631 185.38 305.681 184.81 305.741 184.15C308.791 182.81 311.751 181 314.551 178.74C316.471 177.2 318.261 175.48 319.881 173.63C321.301 172.39 322.641 171.05 323.851 169.67C323.901 169.62 323.961 169.57 324.011 169.53C324.011 169.57 324.011 169.61 324.011 169.65C324.011 169.67 324.011 169.69 324.011 169.7C324.301 175.19 324.911 179.69 325.821 183.06C326.761 186.54 328.231 189.81 330.201 192.77C332.521 196.22 335.491 198.86 339.051 200.6C342.451 202.27 347.001 203.53 352.971 204.46C357.221 205.08 361.031 205.39 364.311 205.39C366.411 205.39 368.351 205.26 370.081 205.02C374.701 204.36 379.151 202.58 383.321 199.73C385.551 198.18 387.581 196.3 389.391 194.15C390.791 192.99 392.121 191.66 393.351 190.19C396.091 187.91 398.382 185.23 400.162 182.23C400.782 181.19 401.381 180.03 401.961 178.76C402.821 180.7 403.951 182.71 405.361 184.78C407.971 188.63 411.401 191.9 415.561 194.49C419.681 197.06 424.221 198.76 429.051 199.55C430.221 199.76 431.541 199.87 432.971 199.87C434.731 199.87 436.722 199.71 438.912 199.38L441.551 198.99C447.201 198.15 451.332 197.05 454.162 195.62C458.622 193.36 462.311 190.49 465.131 187.09C466.531 185.92 467.831 184.61 469.011 183.2C471.421 181.19 473.452 178.92 475.032 176.45C476.242 174.54 477.312 172.19 478.282 169.27C479.272 166.31 479.771 163.91 479.811 161.92C479.831 161.37 479.771 160.64 479.621 159.65C478.971 155.28 477.221 151.03 474.421 147.02C472.381 144.11 469.921 141.63 467.091 139.67C466.351 139.16 465.521 138.63 464.591 138.1C464.601 138.09 464.601 138.09 464.611 138.08C464.851 137.76 465.082 137.42 465.282 137.08C466.532 136.36 467.622 135.39 468.532 134.17C470.462 131.57 471.191 128.58 470.701 125.27C470.541 124.21 470.261 123.06 469.821 121.76C467.991 116.14 464.451 111.24 459.301 107.22C454.211 103.24 448.431 100.78 442.131 99.9104C441.011 99.7404 439.761 99.6704 438.431 99.6704ZM407.851 156.81C407.861 156.74 407.861 156.67 407.871 156.6C407.911 156.63 407.941 156.65 407.981 156.68C407.931 156.72 407.891 156.77 407.851 156.81Z" fill="black"/>
<path d="M172.961 92.6804C172.971 92.6704 172.971 92.6604 172.981 92.6404C174.611 91.4904 175.921 90.2004 176.881 88.7604C178.941 85.6404 179.701 81.5604 179.041 76.5404C177.811 67.1704 172.081 62.4004 162.051 62.1904C160.671 62.2204 159.411 62.3104 158.251 62.4504C154.041 62.9704 150.851 63.7104 148.691 64.6704C148.621 64.6804 148.561 64.7204 148.501 64.8004L148.401 64.8104C148.061 64.8504 147.791 64.3904 147.611 63.4104C147.421 62.4304 147.081 59.9404 146.581 55.9304C145.171 44.5104 143.551 35.9504 141.741 30.2404C139.931 24.5304 137.491 20.4504 134.431 18.0004C131.441 15.6104 127.961 14.5204 123.991 14.7404C123.721 14.7704 123.391 14.8004 123.021 14.8104C122.641 14.8204 122.381 14.8405 122.251 14.8505C120.961 15.0105 119.371 15.6604 117.531 16.8804C116.001 17.8904 114.831 19.1505 113.961 20.5905C113.841 20.6605 113.731 20.7204 113.611 20.8004C111.511 22.2304 110.031 24.0604 109.161 26.2704C108.291 28.4804 107.851 31.7004 107.821 35.9104C107.791 40.1204 108.111 46.5704 108.771 55.2504C109.161 59.4804 109.471 62.5804 109.721 64.5504C111.451 78.5504 114.041 89.3704 117.471 97.0204C118.351 99.1204 119.531 100.68 121.001 101.71C122.471 102.73 124.501 103.36 127.081 103.6C130.451 104.08 137.881 103.61 149.361 102.18C155.681 101.4 159.901 100.67 162.031 99.9904C167.251 98.2304 170.901 95.8004 172.961 92.6804Z" fill="black" stroke="black" stroke-width="2" stroke-miterlimit="10" stroke-linecap="round" stroke-linejoin="round"/>
<path d="M182.991 91.1105C184.161 94.1905 185.781 96.9804 187.841 99.4904C190.161 102.29 192.931 104.29 196.161 105.49C199.391 106.69 203.841 107.44 209.511 107.74C216.211 108.03 221.621 107.67 225.721 106.65C229.821 105.63 233.631 103.64 237.151 100.68C238.391 99.6105 239.491 98.4405 240.511 97.2105C240.691 97.0605 240.881 96.9204 241.061 96.7604C244.161 94.1304 246.551 90.9504 248.251 87.2704C249.951 83.5904 251.341 78.5205 252.351 72.0605C252.671 70.0205 252.881 67.9705 252.991 65.9205C253.421 57.9205 252.081 50.1705 248.981 42.6705C247.331 38.8105 245.381 35.6605 243.111 33.2005C239.161 28.8105 234.391 25.6405 228.811 23.6905C226.321 22.8705 222.921 22.3504 218.611 22.1204C214.851 21.9204 211.651 22.0105 209.031 22.4305C205.221 23.0405 201.521 24.4504 197.901 26.6204C194.821 28.4704 192.481 30.5205 190.811 32.7105C188.791 34.2905 187.201 35.9804 186.091 37.7804C184.671 39.9704 183.001 44.8505 181.091 52.4305C180.561 54.6605 180.161 58.3505 179.881 63.4705C179.521 70.3105 179.561 75.3505 180.001 78.6005C180.821 83.8705 181.811 88.0305 182.991 91.1105ZM213.861 55.1105C214.341 55.1405 215.061 55.7204 216.031 56.8704C217.691 59.0804 218.471 61.3205 218.351 63.5805C218.301 64.5705 218.071 65.4705 217.701 66.3105C217.401 66.4205 217.121 66.4905 216.871 66.4705C216.461 66.4505 216.121 66.4005 215.851 66.3105C213.821 65.8605 212.441 64.6505 211.721 62.7005C211.301 61.6505 211.121 60.4405 211.191 59.0705C211.261 57.8205 211.521 56.7005 211.971 55.7105C212.811 55.3005 213.451 55.0905 213.861 55.1105Z" fill="black" stroke="black" stroke-width="2" stroke-miterlimit="10" stroke-linecap="round" stroke-linejoin="round"/>
<path d="M261.891 59.8304C261.851 59.8504 261.821 59.8704 261.781 59.8904C258.361 61.9404 256.651 65.1304 256.651 69.4404C256.651 72.7304 257.681 76.4904 259.731 80.7404C261.581 84.5804 264.211 87.9505 267.641 90.8605C271.061 93.7705 274.931 95.9104 279.251 97.2804C281.441 98.0304 284.391 98.4104 288.081 98.4104H290.751C296.091 98.4104 300.101 97.9604 302.771 97.0704C308.321 95.2204 312.731 92.4104 316.021 88.6504C316.231 88.4104 316.441 88.1304 316.641 87.8704C317.841 86.9104 318.941 85.8704 319.931 84.7404C321.231 83.2304 322.511 81.2305 323.781 78.7305C325.051 76.2305 325.821 74.1604 326.091 72.5204C326.161 72.1804 326.191 71.6004 326.191 70.7704C326.191 66.8004 325.201 62.8305 323.211 58.8505C321.771 55.9705 319.921 53.4805 317.661 51.3505C316.431 50.2005 314.841 48.9404 312.901 47.5804C313.981 47.2204 314.991 46.6204 315.901 45.7104C316.611 45.0005 317.161 44.2204 317.571 43.3804C318.371 43.0104 319.121 42.4904 319.821 41.7904C321.531 40.0804 322.391 37.9604 322.391 35.4204C322.391 34.5304 322.291 33.5005 322.081 32.3405C321.191 27.0705 318.691 22.2704 314.581 17.9604C310.471 13.6504 305.611 10.6704 300.001 9.02039C297.401 8.27039 293.971 7.89038 289.731 7.89038C286.781 7.89038 284.591 8.06039 283.161 8.40039C279.461 9.15039 276.421 10.1604 274.021 11.4304C271.621 12.7004 269.302 14.5304 267.042 16.9204C266.622 17.3704 266.221 17.8204 265.851 18.2804C264.931 19.0504 264.021 19.8905 263.131 20.8405C259.291 24.8805 257.381 29.3304 257.381 34.1904C257.381 39.5304 259.061 44.3805 262.411 48.7205C264.011 50.8005 266.061 52.8405 268.531 54.8605C267.571 55.0405 266.631 55.3904 265.711 55.9504C264.011 56.9804 262.751 58.2704 261.891 59.8304Z" fill="black" stroke="black" stroke-width="2" stroke-miterlimit="10" stroke-linecap="round" stroke-linejoin="round"/>
<path d="M70.3915 139.97C69.8915 137.9 69.0415 135.4 67.6115 132.52C66.1815 129.64 64.7515 127.28 63.2315 125.5C61.7915 123.81 59.6115 122.01 56.7815 120.01C53.9515 118.01 51.5614 116.7 49.6014 116.07C44.0014 114.07 37.6815 113.55 30.6215 114.52C27.5015 114.95 24.4814 115.66 21.5914 116.69C16.3114 118.57 12.6414 120.87 10.5514 123.54C10.3314 123.83 10.1214 124.13 9.92139 124.44C8.57139 125.39 7.47148 126.39 6.63148 127.46C4.54148 130.13 3.44143 133.82 3.33143 138.54C3.27143 140.14 3.90143 145.72 5.21143 155.28C7.97143 175.43 10.1314 188.96 11.7014 195.86C13.4414 203.5 17.0915 207.7 22.6515 208.46C24.0515 208.61 25.5714 208.58 27.2014 208.36C30.0514 207.97 32.3115 207.31 33.9815 206.39C36.7815 204.97 38.7214 203.29 39.8214 201.36C41.7514 200.1 43.1314 198.67 43.9514 197.08C45.0114 195 45.4714 191.93 45.3314 187.87C45.3214 187.32 45.2915 186.6 45.2415 185.7C45.1515 183.56 45.1315 181.94 45.1615 180.83C49.4215 179.06 53.3315 176.31 56.8715 172.56C57.2515 172.16 57.6014 171.76 57.9614 171.35C58.9314 170.51 59.8715 169.61 60.7915 168.64C64.6215 164.59 67.4215 160.04 69.1315 154.95C70.7615 150.1 71.3015 145.81 70.7915 142.07C70.6515 141.14 70.5015 140.44 70.3915 139.97ZM37.1415 147.01C36.2415 146.35 35.6915 145.52 35.5415 144.43C35.5115 144.24 35.5215 144.06 35.5315 143.88C35.6915 143.92 35.8215 143.95 36.0115 144.01C36.6815 144.33 37.3815 144.96 38.1315 145.9C38.5715 146.6 38.8215 147.12 38.8615 147.46C38.8715 147.55 38.8714 147.65 38.8514 147.75C38.3114 147.7 37.7515 147.45 37.1415 147.01Z" fill="black" stroke="black" stroke-width="2" stroke-miterlimit="10" stroke-linecap="round" stroke-linejoin="round"/>
<path d="M134.431 113.68C130.251 109.5 125.321 106.59 119.641 104.95C117.111 104.27 113.681 103.92 109.371 103.92C105.601 103.92 102.421 104.19 99.8214 104.74C96.0514 105.55 92.4214 107.15 88.9314 109.52C86.3814 111.25 84.3715 113.08 82.8815 115.01C80.4915 116.92 78.6915 118.95 77.5115 121.09C76.2115 123.35 74.8114 128.32 73.3014 135.98C72.8914 138.24 72.6814 141.94 72.6814 147.07C72.6814 153.92 72.9915 158.95 73.6115 162.17C74.7015 167.37 75.9215 171.48 77.2615 174.5C78.5915 177.51 80.3614 180.22 82.5514 182.61C85.0114 185.28 87.8914 187.13 91.1814 188.16C94.4714 189.19 98.9515 189.7 104.641 189.7C111.351 189.63 116.721 188.98 120.771 187.75C124.811 186.52 128.511 184.33 131.861 181.18C132.691 180.39 133.451 179.54 134.171 178.67C134.711 178.22 135.251 177.76 135.781 177.26C138.731 174.47 140.951 171.17 142.461 167.4C143.961 163.63 145.081 158.5 145.751 151.99C145.961 149.94 146.061 147.88 146.061 145.83C146.061 137.82 144.311 130.15 140.821 122.82C138.951 119.06 136.831 116.01 134.431 113.68ZM106.171 136.91C106.651 136.91 107.401 137.46 108.431 138.55C110.211 140.67 111.101 142.86 111.101 145.12C111.101 146.24 110.881 147.26 110.461 148.21C110.301 148.25 110.131 148.29 109.981 148.29C109.571 148.29 109.221 148.26 108.951 148.19C106.901 147.85 105.461 146.72 104.641 144.8C104.161 143.77 103.921 142.58 103.921 141.2C103.921 139.77 104.191 138.5 104.711 137.38C105.341 137.08 105.831 136.91 106.171 136.91Z" fill="black" stroke="black" stroke-width="2" stroke-miterlimit="10" stroke-linecap="round" stroke-linejoin="round"/>
<path d="M202.301 164.02C200.951 163.75 199.702 163.56 198.542 163.45C194.312 163.04 191.041 163.06 188.731 163.53C188.661 163.52 188.592 163.55 188.522 163.61L188.421 163.6C188.081 163.57 187.921 163.05 187.951 162.06C187.981 161.07 188.191 158.56 188.581 154.54C189.701 143.09 190.001 134.38 189.481 128.41C188.961 122.44 187.472 117.93 185.022 114.87C182.632 111.89 179.472 110.06 175.542 109.4C175.272 109.37 174.941 109.33 174.571 109.25C174.201 109.18 173.941 109.14 173.811 109.12C172.521 108.99 170.822 109.28 168.762 110.07C166.392 110.98 164.551 112.46 163.231 114.43C163.121 114.6 163.002 114.79 162.892 114.97C161.452 115.85 160.241 116.96 159.311 118.34C157.981 120.31 156.842 123.35 155.892 127.45C154.942 131.55 153.841 137.92 152.581 146.53C152.031 150.74 151.661 153.84 151.471 155.81C150.101 169.85 150.251 180.98 151.931 189.19C152.331 191.43 153.141 193.21 154.351 194.53C155.561 195.85 157.401 196.91 159.871 197.7C163.061 198.9 170.411 200.07 181.921 201.19C188.261 201.81 192.542 202.02 194.762 201.82C200.252 201.25 204.342 199.67 207.042 197.08C207.772 196.38 208.401 195.59 208.971 194.71C209.701 194.24 210.371 193.73 210.961 193.16C213.651 190.57 215.291 186.75 215.741 181.71C216.601 172.33 212.051 166.42 202.301 164.02Z" fill="black" stroke="black" stroke-width="2" stroke-miterlimit="10" stroke-linecap="round" stroke-linejoin="round"/>
<path d="M259.321 143.05C258.791 136.98 258.172 132.81 257.502 130.53C256.202 126.11 254.591 122.78 252.601 120.55C250.621 118.32 247.971 116.85 244.681 116.09C242.571 115.6 240.671 115.41 238.961 115.56C237.871 115.66 236.552 115.93 235.012 116.42C232.402 117.25 230.282 118.59 228.662 120.38C228.162 120.93 227.752 121.5 227.372 122.1C226.392 122.73 225.512 123.46 224.742 124.3C223.112 126.09 222.152 128.13 221.872 130.43C221.772 131.68 222.162 137.31 223.042 147.34C225.412 174.35 227.032 189.3 227.902 192.18C229.112 195.79 231.031 198.54 233.681 200.44C236.831 202.71 240.251 203.68 243.941 203.36L245.171 203.25C249.501 202.55 252.522 200.65 254.272 197.59C256.842 196.12 258.552 193.86 259.382 190.8C260.232 187.98 260.621 181.48 260.561 171.31C260.491 161.13 260.081 151.71 259.321 143.05Z" fill="black" stroke="black" stroke-width="2" stroke-miterlimit="10" stroke-linecap="round" stroke-linejoin="round"/>
<path d="M393.991 130.31C390.501 125.54 386.081 121.91 380.711 119.41C378.311 118.35 374.981 117.48 370.721 116.82C367.001 116.24 363.811 116.01 361.151 116.17C357.301 116.39 353.471 117.42 349.661 119.22C345.852 121.02 343.011 123.17 341.081 125.63C340.981 125.76 340.871 125.92 340.771 126.07C339.331 127.14 338.121 128.3 337.161 129.55C335.532 131.58 333.381 136.27 330.711 143.62C330.481 144.27 330.261 145.07 330.031 145.99C330.011 145.76 330.001 145.55 329.981 145.38C329.761 143.27 329.261 140.67 328.231 137.62C327.201 134.57 326.111 132.04 324.841 130.07C323.641 128.2 321.721 126.12 319.191 123.75C316.661 121.39 314.471 119.76 312.621 118.87C307.351 116.13 301.151 114.76 294.031 114.76C290.881 114.76 287.802 115.06 284.792 115.68C279.312 116.82 275.361 118.61 272.931 120.97C272.241 121.64 271.631 122.41 271.081 123.26C270.301 123.77 269.611 124.31 269.021 124.89C266.591 127.25 265.001 130.76 264.241 135.42C263.971 137 263.831 142.61 263.831 152.26C263.831 172.6 264.141 186.29 264.761 193.35C265.441 201.16 268.491 205.81 273.901 207.32C275.271 207.66 276.771 207.83 278.421 207.83C281.301 207.83 283.621 207.49 285.401 206.8C288.551 205.7 290.791 204.2 292.131 202.28C292.331 201.99 292.511 201.68 292.691 201.34C294.131 200.49 295.252 199.5 296.042 198.36C297.372 196.44 298.251 193.46 298.661 189.42C298.731 188.87 298.801 188.15 298.871 187.26C299.031 185.56 299.191 184.19 299.341 183.14C304.021 182 308.471 179.76 312.671 176.38C314.551 174.87 316.231 173.23 317.751 171.48C321.541 168.2 324.541 164.4 326.711 160.03C327.211 159.03 327.641 158.05 328.031 157.08C327.261 162.53 326.921 166.68 327.021 169.51C327.301 174.82 327.871 179.07 328.731 182.25C329.591 185.43 330.911 188.38 332.711 191.08C334.731 194.1 337.291 196.37 340.381 197.88C343.471 199.4 347.821 200.6 353.441 201.47C360.081 202.43 365.491 202.61 369.671 202.02C373.851 201.42 377.841 199.82 381.641 197.23C383.791 195.73 385.651 193.97 387.271 191.99C389.831 189.92 391.971 187.46 393.661 184.6C395.721 181.11 397.611 176.21 399.271 169.88C399.791 167.88 400.211 165.87 400.521 163.84C401.751 155.92 401.201 148.08 398.881 140.3C397.631 136.31 396.001 132.98 393.991 130.31ZM298.141 148.86C297.461 148.86 296.791 148.5 296.091 147.83C295.291 147.06 294.861 146.15 294.861 145.06C294.861 145 294.881 144.94 294.881 144.88C295.161 144.96 295.481 145.09 295.871 145.28C296.491 145.69 297.101 146.41 297.721 147.44C298.001 148.05 298.161 148.52 298.211 148.86C298.191 148.86 298.171 148.86 298.141 148.86ZM360.681 150.14C361.791 149.69 362.581 149.5 363.051 149.57C363.521 149.64 364.181 150.3 365.031 151.54C366.461 153.91 367.011 156.21 366.661 158.45C366.551 159.17 366.331 159.82 366.051 160.44C365.461 160.71 364.941 160.83 364.521 160.77C364.111 160.71 363.781 160.62 363.521 160.51C361.541 159.86 360.301 158.52 359.781 156.5C359.461 155.41 359.411 154.19 359.621 152.84C359.771 151.91 360.021 151.07 360.371 150.31C360.481 150.24 360.571 150.18 360.681 150.14Z" fill="black" stroke="black" stroke-width="2" stroke-miterlimit="10" stroke-linecap="round" stroke-linejoin="round"/>
<path d="M472.751 164.02C472.171 160.09 470.611 156.31 468.061 152.67C466.221 150.04 464.021 147.83 461.481 146.06C459.911 144.97 457.881 143.82 455.381 142.61C456.491 142.1 457.481 141.32 458.301 140.21C458.651 139.74 458.951 139.25 459.191 138.74C460.351 138.23 461.371 137.43 462.221 136.29C463.661 134.35 464.201 132.12 463.831 129.61C463.701 128.73 463.451 127.73 463.071 126.61C461.421 121.52 458.241 117.15 453.551 113.48C448.861 109.81 443.611 107.58 437.811 106.77C435.131 106.41 431.681 106.53 427.481 107.15C424.571 107.58 422.421 108.07 421.051 108.62C417.501 109.91 414.641 111.35 412.451 112.96C410.821 114.15 409.281 115.65 407.821 117.45C405.901 118.99 404.101 120.93 402.421 123.33C399.221 127.89 397.971 132.57 398.681 137.38C399.461 142.66 401.831 147.21 405.781 151.02C407.851 153.01 410.441 154.89 413.531 156.66C412.551 156.97 411.611 157.49 410.721 158.21C409.631 159.1 408.791 160.11 408.161 161.22C407.701 161.48 407.241 161.77 406.801 162.13C403.711 164.66 402.491 168.06 403.121 172.33C403.601 175.58 405.171 179.16 407.821 183.06C410.211 186.58 413.311 189.53 417.121 191.91C420.931 194.29 425.071 195.84 429.541 196.56C431.821 196.98 434.791 196.93 438.441 196.39L441.081 196C446.361 195.22 450.261 194.19 452.771 192.92C457.001 190.78 460.391 188.11 462.961 184.94C465.201 183.1 467.081 181.04 468.561 178.73C469.631 177.05 470.601 174.88 471.491 172.22C472.381 169.56 472.841 167.4 472.871 165.73C472.921 165.41 472.871 164.83 472.751 164.02Z" fill="black" stroke="black" stroke-width="2" stroke-miterlimit="10" stroke-linecap="round" stroke-linejoin="round"/>
<path d="M121.441 12.9705C123.291 11.7805 124.861 11.1004 126.151 10.9404C126.291 10.9204 126.541 10.9104 126.921 10.9004C127.301 10.8904 127.621 10.8605 127.891 10.8305C131.861 10.6105 135.351 11.7005 138.331 14.0905C141.391 16.5405 143.831 20.6205 145.641 26.3305C147.451 32.0405 149.061 40.6004 150.481 52.0204C150.981 56.0304 151.321 58.5204 151.511 59.5004C151.701 60.4804 151.961 60.9504 152.301 60.9004L152.401 60.8904C152.461 60.8104 152.521 60.7704 152.591 60.7604C154.751 59.8004 157.931 59.0604 162.151 58.5404C163.301 58.4004 164.571 58.3104 165.951 58.2804C175.981 58.4904 181.641 63.2704 182.941 72.6304C183.561 77.6604 182.841 81.7305 180.781 84.8505C178.721 87.9705 175.071 90.4004 169.831 92.1604C167.711 92.8404 163.481 93.5705 157.161 94.3505C145.681 95.7705 138.251 96.2404 134.881 95.7704C132.301 95.5404 130.271 94.9104 128.801 93.8804C127.331 92.8504 126.151 91.2904 125.271 89.1904C121.841 81.5404 119.261 70.7205 117.521 56.7205C117.281 54.7505 116.961 51.6504 116.571 47.4204C115.911 38.7404 115.591 32.2905 115.621 28.0805C115.651 23.8705 116.101 20.6604 116.961 18.4404C117.861 16.2204 119.341 14.4005 121.441 12.9705Z" fill="#73C2AF" stroke="black" stroke-width="2" stroke-miterlimit="10" stroke-linecap="round" stroke-linejoin="round"/>
<path d="M223.871 49.0404C222.901 47.8904 222.181 47.3004 221.701 47.2804C221.221 47.2504 220.451 47.5205 219.391 48.0805C216.701 49.5805 215.281 51.9404 215.111 55.1504C215.041 56.5204 215.211 57.7304 215.641 58.7804C216.361 60.7404 217.731 61.9404 219.771 62.3904C220.041 62.4704 220.381 62.5305 220.791 62.5505C221.541 62.5905 222.491 62.0905 223.651 61.0605C225.231 59.6405 226.081 57.8604 226.201 55.7404C226.301 53.4904 225.531 51.2504 223.871 49.0404ZM212.941 18.5204C215.571 18.1104 218.761 18.0105 222.521 18.2105C226.831 18.4405 230.231 18.9704 232.721 19.7804C238.311 21.7204 243.081 24.8904 247.021 29.2904C249.291 31.7404 251.251 34.9004 252.891 38.7604C255.991 46.2604 257.321 54.0104 256.901 62.0104C256.791 64.0604 256.581 66.1104 256.261 68.1504C255.231 74.6104 253.861 79.6805 252.161 83.3605C250.451 87.0405 248.061 90.2105 244.971 92.8505C241.451 95.8205 237.641 97.8105 233.541 98.8205C229.441 99.8405 224.041 100.2 217.331 99.9104C211.651 99.6104 207.201 98.8604 203.981 97.6604C200.751 96.4604 197.981 94.4604 195.661 91.6604C193.601 89.1504 191.981 86.3604 190.811 83.2804C189.641 80.2004 188.641 76.0304 187.821 70.7804C187.381 67.5304 187.341 62.4904 187.701 55.6504C187.971 50.5204 188.381 46.8405 188.911 44.6105C190.821 37.0305 192.491 32.1505 193.911 29.9605C195.561 27.3105 198.191 24.8905 201.801 22.7205C205.431 20.5405 209.141 19.1404 212.941 18.5204Z" fill="white" stroke="black" stroke-width="2" stroke-miterlimit="10" stroke-linecap="round" stroke-linejoin="round"/>
<path d="M287.081 4.49036C288.521 4.15036 290.711 3.98047 293.651 3.98047C297.891 3.98047 301.321 4.36047 303.921 5.11047C309.531 6.75047 314.401 9.73041 318.511 14.0504C322.621 18.3604 325.121 23.1604 326.011 28.4304C326.221 29.6004 326.321 30.6204 326.321 31.5104C326.321 34.0404 325.461 36.1704 323.751 37.8804C322.241 39.3904 320.501 40.1404 318.511 40.1404C316.181 40.1404 313.101 39.0104 309.271 36.7504C304.411 33.8704 301.631 32.4404 300.951 32.4404C300.811 32.4404 300.741 32.4804 300.741 32.5404C300.741 33.2904 304.231 35.7904 311.221 40.0404C315.881 42.8504 319.331 45.3104 321.591 47.4404C323.851 49.5604 325.701 52.0604 327.141 54.9404C329.121 58.9104 330.121 62.8805 330.121 66.8505C330.121 67.6705 330.081 68.2505 330.021 68.6005C329.751 70.2405 328.981 72.3204 327.711 74.8104C326.441 77.3104 325.161 79.3104 323.861 80.8204C320.571 84.5904 316.161 87.3904 310.611 89.2404C307.941 90.1304 303.931 90.5804 298.591 90.5804H295.921C292.221 90.5804 289.281 90.2004 287.091 89.4504C282.781 88.0804 278.911 85.9404 275.481 83.0304C272.051 80.1204 269.421 76.7504 267.571 72.9104C265.521 68.6704 264.491 64.9005 264.491 61.6105C264.491 57.3005 266.201 54.1104 269.621 52.0604C270.991 51.2404 272.391 50.8304 273.831 50.8304C276.711 50.8304 281.051 52.6404 286.871 56.2704C289.611 57.9804 291.251 58.8405 291.801 58.8405C292.071 58.8405 292.211 58.7004 292.211 58.4304C292.211 57.6104 290.161 56.0005 286.051 53.6005C278.861 49.4905 273.591 45.2604 270.231 40.9104C266.871 36.5604 265.201 31.7204 265.201 26.3804C265.201 21.5204 267.121 17.0704 270.951 13.0304C273.211 10.6304 275.541 8.80041 277.931 7.54041C280.331 6.26041 283.381 5.25036 287.081 4.49036Z" fill="#73C2AF" stroke="black" stroke-width="2" stroke-miterlimit="10" stroke-linecap="round" stroke-linejoin="round"/>
<path d="M43.8414 136.18C43.1214 135.93 42.5815 135.83 42.2415 135.88C41.7015 135.95 41.0815 136.49 40.3915 137.48C39.6215 138.42 39.3114 139.43 39.4614 140.51C39.6114 141.6 40.1414 142.46 41.0614 143.09C41.8314 143.68 42.5615 143.92 43.2315 143.83C44.1815 143.7 45.1515 142.74 46.1515 140.94C46.5615 140.4 46.7414 139.96 46.7014 139.62C46.6514 139.28 46.4114 138.76 45.9714 138.06C45.2214 137.13 44.5114 136.5 43.8414 136.18ZM25.5015 112.77C28.4015 111.75 31.4115 111.03 34.5315 110.6C41.5915 109.63 47.9115 110.15 53.5115 112.15C55.4615 112.78 57.8514 114.1 60.6914 116.09C63.5214 118.09 65.6715 119.92 67.1415 121.58C68.6315 123.38 70.0915 125.72 71.5215 128.6C72.9515 131.48 73.8814 133.96 74.3014 136.05C74.4314 136.52 74.5714 137.22 74.7014 138.17C75.2114 141.9 74.6615 146.19 73.0415 151.05C71.3115 156.13 68.5414 160.69 64.7014 164.74C60.8714 168.79 56.6214 171.69 51.9514 173.43C51.6914 173.54 51.3914 173.65 51.0614 173.76C50.0014 174.11 49.3814 174.65 49.2114 175.36C49.0314 176.08 49.0115 178.22 49.1615 181.79C49.2115 182.68 49.2415 183.4 49.2515 183.96C49.3915 188.02 48.9315 191.09 47.8715 193.17C46.8115 195.25 44.7914 197.05 41.8214 198.56C40.1514 199.48 37.8915 200.14 35.0415 200.53C33.4115 200.75 31.9015 200.79 30.4915 200.63C24.9215 199.87 21.2715 195.67 19.5415 188.03C17.9715 181.13 15.8114 167.6 13.0514 147.45C11.7414 137.88 11.1114 132.3 11.1714 130.71C11.2914 126 12.3914 122.3 14.4714 119.63C16.5614 116.95 20.2315 114.67 25.5015 112.77Z" fill="#73C2AF" stroke="black" stroke-width="2" stroke-miterlimit="10" stroke-linecap="round" stroke-linejoin="round"/>
<path d="M116.271 130.72C115.241 129.63 114.491 129.08 114.011 129.08C113.531 129.08 112.781 129.39 111.751 130C109.151 131.64 107.851 134.07 107.851 137.29C107.851 138.66 108.091 139.86 108.571 140.89C109.391 142.81 110.831 143.94 112.881 144.28C113.151 144.35 113.501 144.38 113.911 144.38C114.661 144.38 115.591 143.83 116.681 142.74C118.191 141.23 118.941 139.42 118.941 137.3C118.941 135.03 118.051 132.84 116.271 130.72ZM103.741 100.83C106.341 100.28 109.522 100.01 113.292 100.01C117.602 100.01 121.031 100.35 123.561 101.04C129.241 102.68 134.171 105.59 138.351 109.77C140.751 112.1 142.871 115.15 144.721 118.91C148.211 126.24 149.961 133.91 149.961 141.92C149.961 143.97 149.861 146.03 149.651 148.08C148.971 154.59 147.871 159.72 146.361 163.49C144.851 167.26 142.631 170.54 139.681 173.35C136.321 176.5 132.631 178.69 128.591 179.92C124.551 181.15 119.181 181.8 112.461 181.87C106.781 181.87 102.291 181.36 99.0015 180.33C95.7115 179.3 92.8415 177.45 90.3715 174.78C88.1815 172.38 86.4114 169.68 85.0814 166.67C83.7414 163.66 82.5314 159.55 81.4314 154.34C80.8114 151.12 80.5015 146.09 80.5015 139.24C80.5015 134.1 80.7115 130.41 81.1215 128.15C82.6315 120.48 84.0314 115.52 85.3314 113.26C86.8414 110.52 89.3414 107.97 92.8314 105.61C96.3414 103.24 99.9715 101.65 103.741 100.83Z" fill="white" stroke="black" stroke-width="2" stroke-miterlimit="10" stroke-linecap="round" stroke-linejoin="round"/>
<path d="M172.681 106.16C174.751 105.4 176.431 105.08 177.731 105.21C177.871 105.22 178.121 105.27 178.491 105.34C178.861 105.41 179.181 105.46 179.461 105.49C183.381 106.15 186.551 107.97 188.941 110.96C191.391 114.02 192.881 118.53 193.401 124.5C193.921 130.47 193.621 139.18 192.501 150.63C192.111 154.65 191.901 157.16 191.871 158.15C191.841 159.15 192.001 159.66 192.341 159.69L192.441 159.7C192.511 159.64 192.591 159.61 192.651 159.62C194.971 159.16 198.241 159.13 202.461 159.54C203.621 159.65 204.871 159.84 206.221 160.11C215.961 162.51 220.441 168.41 219.661 177.83C219.171 182.87 217.571 186.69 214.881 189.28C212.181 191.87 208.091 193.45 202.601 194.02C200.381 194.22 196.101 194.01 189.761 193.39C178.241 192.27 170.891 191.1 167.711 189.9C165.241 189.11 163.401 188.05 162.191 186.73C160.981 185.41 160.171 183.63 159.771 181.39C158.091 173.18 157.941 162.05 159.311 148.01C159.501 146.03 159.871 142.94 160.421 138.73C161.671 130.12 162.771 123.76 163.731 119.65C164.681 115.55 165.821 112.51 167.151 110.54C168.471 108.55 170.321 107.1 172.681 106.16Z" fill="#73C2AF" stroke="black" stroke-width="2" stroke-miterlimit="10" stroke-linecap="round" stroke-linejoin="round"/>
<path d="M238.941 112.49C240.481 112.01 241.792 111.72 242.892 111.63C244.592 111.48 246.501 111.66 248.611 112.16C251.911 112.9 254.542 114.39 256.532 116.62C258.512 118.85 260.141 122.18 261.431 126.6C262.111 128.88 262.722 133.05 263.252 139.12C264.012 147.78 264.422 157.2 264.492 167.37C264.562 177.54 264.161 184.03 263.311 186.86C262.011 191.65 258.582 194.49 253.022 195.39L251.792 195.5C248.112 195.82 244.692 194.85 241.532 192.58C238.892 190.68 236.962 187.93 235.752 184.32C234.882 181.44 233.262 166.5 230.892 139.48C230.012 129.45 229.621 123.82 229.721 122.57C230.001 120.28 230.951 118.23 232.591 116.44C234.221 114.66 236.331 113.34 238.941 112.49Z" fill="white" stroke="black" stroke-width="2" stroke-miterlimit="10" stroke-linecap="round" stroke-linejoin="round"/>
<path d="M303.711 137.451C303.031 137.111 302.511 136.941 302.171 136.941C301.621 136.941 300.941 137.391 300.121 138.281C299.231 139.101 298.792 140.061 298.792 141.161C298.792 142.261 299.201 143.181 300.021 143.931C300.701 144.621 301.391 144.961 302.071 144.961C303.031 144.961 304.121 144.14 305.361 142.49C305.841 142.01 306.081 141.6 306.081 141.26C306.081 140.92 305.911 140.37 305.571 139.62C304.941 138.58 304.321 137.861 303.711 137.451ZM288.711 111.771C291.721 111.151 294.801 110.851 297.951 110.851C305.071 110.851 311.272 112.221 316.542 114.961C318.392 115.851 320.581 117.481 323.111 119.841C325.641 122.201 327.531 124.311 328.761 126.161C329.991 128.151 331.121 130.661 332.151 133.711C333.181 136.761 333.761 139.341 333.901 141.471C333.971 141.951 334.001 142.67 334.001 143.63C334.001 147.4 332.871 151.571 330.611 156.161C328.211 160.951 324.841 165.101 320.491 168.591C316.141 172.081 311.541 174.381 306.681 175.471C306.411 175.541 306.101 175.611 305.751 175.681C304.651 175.891 303.971 176.331 303.701 177.021C303.431 177.711 303.121 179.831 302.781 183.391C302.711 184.281 302.641 185.001 302.571 185.551C302.161 189.591 301.291 192.57 299.951 194.49C298.611 196.41 296.371 197.91 293.221 199.01C291.441 199.69 289.111 200.041 286.231 200.041C284.591 200.041 283.081 199.871 281.711 199.531C276.301 198.021 273.251 193.371 272.571 185.561C271.951 178.511 271.641 164.811 271.641 144.471C271.641 134.811 271.781 129.2 272.051 127.63C272.801 122.97 274.401 119.461 276.831 117.101C279.281 114.701 283.231 112.941 288.711 111.771Z" fill="#73C2AF" stroke="black" stroke-width="2" stroke-miterlimit="10" stroke-linecap="round" stroke-linejoin="round"/>
<path d="M372.871 143.71C372.021 142.47 371.361 141.81 370.891 141.74C370.421 141.67 369.621 141.85 368.521 142.31C365.701 143.53 364.042 145.74 363.542 148.92C363.332 150.27 363.381 151.49 363.701 152.58C364.221 154.6 365.471 155.94 367.441 156.59C367.701 156.7 368.031 156.79 368.441 156.85C369.181 156.97 370.181 156.57 371.431 155.65C373.151 154.39 374.171 152.72 374.501 150.62C374.851 148.38 374.311 146.08 372.871 143.71ZM365.081 112.25C367.731 112.11 370.921 112.33 374.651 112.9C378.911 113.56 382.241 114.43 384.641 115.49C390.001 117.99 394.431 121.62 397.921 126.39C399.931 129.06 401.561 132.4 402.811 136.4C405.141 144.18 405.681 152.02 404.451 159.94C404.131 161.97 403.721 163.98 403.201 165.98C401.531 172.3 399.651 177.21 397.591 180.7C395.521 184.19 392.821 187.1 389.481 189.42C385.681 192.02 381.691 193.61 377.511 194.21C373.331 194.81 367.921 194.63 361.281 193.66C355.661 192.79 351.311 191.59 348.221 190.07C345.131 188.55 342.571 186.28 340.551 183.27C338.751 180.57 337.421 177.62 336.571 174.44C335.711 171.26 335.141 167.01 334.861 161.7C334.741 158.43 335.211 153.41 336.261 146.64C337.051 141.57 337.821 137.94 338.571 135.77C341.241 128.42 343.381 123.73 345.021 121.7C346.931 119.23 349.791 117.09 353.601 115.29C357.401 113.5 361.231 112.48 365.081 112.25Z" fill="white" stroke="black" stroke-width="2" stroke-miterlimit="10" stroke-linecap="round" stroke-linejoin="round"/>
<path d="M424.971 104.721C426.341 104.171 428.482 103.68 431.402 103.25C435.602 102.63 439.041 102.5 441.731 102.87C447.531 103.67 452.771 105.91 457.471 109.58C462.171 113.25 465.341 117.62 466.991 122.71C467.361 123.83 467.621 124.83 467.751 125.71C468.121 128.22 467.582 130.44 466.142 132.39C464.872 134.1 463.252 135.1 461.292 135.39C458.992 135.73 455.772 135.06 451.652 133.39C446.422 131.26 443.472 130.241 442.792 130.341C442.652 130.361 442.591 130.411 442.601 130.471C442.711 131.221 446.531 133.181 454.061 136.351C459.081 138.451 462.862 140.38 465.402 142.15C467.952 143.92 470.141 146.12 471.981 148.76C474.521 152.4 476.091 156.181 476.671 160.111C476.791 160.921 476.841 161.501 476.821 161.851C476.791 163.521 476.331 165.681 475.441 168.34C474.551 171.001 473.582 173.171 472.512 174.851C469.812 179.061 465.852 182.48 460.632 185.12C458.122 186.39 454.221 187.42 448.941 188.2L446.301 188.59C442.641 189.131 439.672 189.19 437.402 188.76C432.932 188.03 428.791 186.481 424.981 184.111C421.161 181.731 418.061 178.78 415.681 175.26C413.031 171.36 411.461 167.79 410.981 164.53C410.351 160.26 411.572 156.86 414.662 154.33C415.902 153.32 417.222 152.71 418.652 152.5C421.502 152.08 426.061 153.241 432.351 155.981C435.311 157.271 437.061 157.88 437.601 157.8C437.871 157.76 437.991 157.6 437.951 157.33C437.831 156.52 435.562 155.23 431.152 153.46C423.442 150.45 417.602 147.041 413.652 143.231C409.692 139.421 407.331 134.871 406.551 129.591C405.841 124.781 407.082 120.1 410.292 115.54C412.182 112.84 414.212 110.69 416.392 109.08C418.562 107.45 421.421 106.011 424.971 104.721Z" fill="#73C2AF" stroke="black" stroke-width="2" stroke-miterlimit="10" stroke-linecap="round" stroke-linejoin="round"/>
</svg>
