<svg width="518" height="176" viewBox="0 0 518 176" fill="none" xmlns="http://www.w3.org/2000/svg">
<path d="M174.852 56.5302C173.652 56.4102 172.551 56.3502 171.531 56.3502C167.821 56.3502 164.981 56.6501 163.011 57.2501C162.951 57.2501 162.892 57.2802 162.832 57.3402H162.741C162.441 57.3402 162.261 56.9102 162.201 56.0402C162.141 55.1702 162.111 52.9802 162.111 49.4502C162.111 39.4002 161.631 31.8102 160.671 26.6602C159.711 21.5202 158.041 17.7201 155.651 15.2701C153.321 12.8801 150.421 11.5602 146.951 11.3202C146.711 11.3202 146.432 11.3102 146.102 11.2802C145.772 11.2502 145.551 11.2302 145.431 11.2302C144.291 11.2302 142.851 11.6301 141.121 12.4901C139.161 13.4701 137.721 14.8902 136.731 16.6702C135.031 17.6602 133.712 18.9602 132.822 20.6102C131.832 22.4402 131.101 25.1702 130.621 28.8202C130.141 32.4702 129.721 38.0902 129.361 45.6902C129.241 49.4002 129.181 52.1202 129.181 53.8502C129.181 66.1702 130.261 75.8302 132.411 82.8302C132.951 84.7402 133.801 86.2201 134.971 87.2701C136.141 88.3201 137.822 89.0802 140.042 89.5602C142.912 90.3402 149.401 90.7302 159.511 90.7302C165.071 90.7302 168.811 90.5502 170.721 90.1902C175.441 89.2302 178.871 87.5102 180.991 85.0302C181.381 84.5702 181.722 84.0702 182.042 83.5502C183.142 82.8502 184.092 82.0602 184.852 81.1702C186.972 78.6902 188.071 75.2302 188.031 70.8102C187.981 62.5402 183.522 57.7901 174.852 56.5302Z" fill="black" stroke="black" stroke-width="2" stroke-miterlimit="10" stroke-linecap="round" stroke-linejoin="round"/>
<path d="M243.572 105C243.222 101.17 242.131 98.0903 240.281 95.7803C238.071 93.0003 235.061 91.3903 231.261 90.9603C230.251 90.8403 229.141 90.8104 227.931 90.8504C223.751 91.1004 220.501 92.6503 218.191 95.5203L217.302 96.7304C216.182 97.4304 215.192 98.3203 214.332 99.3803L212.731 101.55L210.842 114.97C210.102 120.8 209.441 124.97 208.871 127.49C208.411 127.18 208.021 126.62 207.711 125.76C207.251 124.45 207.471 119.35 208.361 110.48L209.531 96.9804L208.541 94.6104C207.911 93.2704 207.031 92.0303 205.891 90.8803C204.761 89.7303 203.591 88.9003 202.381 88.4003C200.711 87.7203 198.692 87.2602 196.312 86.9902C195.062 86.8502 194.072 86.8303 193.342 86.9203C191.082 87.2003 188.941 88.1703 186.921 89.8003C185.741 90.7503 184.761 91.8403 183.941 93.0303C183.651 93.2403 183.352 93.4303 183.062 93.6603C181.042 95.3003 179.531 97.2903 178.541 99.6503C176.661 104.01 175.281 110.08 174.391 117.87C174.351 118.23 174.301 118.76 174.251 119.48C174.201 120.2 174.152 120.76 174.102 121.18C173.892 123.56 173.751 125.47 173.671 126.91C173.601 128.35 173.591 129.35 173.641 129.93C173.691 130.51 173.821 131.53 174.011 133C174.201 134.47 174.351 135.78 174.471 136.93C175.081 143.2 176.671 148.39 179.241 152.51C181.811 156.62 185.461 159.85 190.191 162.2C191.281 162.68 193.611 163.37 197.181 164.26C199.051 164.71 200.762 165.03 202.312 165.2C203.742 165.36 205.412 165.43 207.342 165.41C211.562 165.35 214.921 164.9 217.421 164.07C219.921 163.24 222.562 161.72 225.342 159.51C226.902 158.24 228.241 156.88 229.431 155.45C231.851 153.46 233.812 151.24 235.312 148.85C236.862 146.38 238.401 142.82 239.961 138.18C241.051 134.93 242.032 129.75 242.812 122.61C243.702 114.71 243.922 108.83 243.572 105Z" fill="black" stroke="black" stroke-width="2" stroke-miterlimit="10" stroke-linecap="round" stroke-linejoin="round"/>
<path d="M322.561 135.28C321.881 126.43 320.691 117.93 318.991 109.77C317.281 101.61 315.501 96.1003 313.631 93.2303C311.871 90.5503 308.781 89.0803 304.361 88.8203C303.171 88.7503 301.811 88.8103 300.301 89.0303C297.761 89.4003 295.121 90.7303 292.381 92.9703C290.931 94.1503 289.631 95.4702 288.461 96.8902C286.441 98.5502 284.691 100.44 283.211 102.56C282.881 101.81 282.451 100.72 281.901 99.2703C279.801 94.1703 277.341 90.7603 274.501 89.0403C273.111 88.2403 271.191 87.7702 268.741 87.6202C266.231 87.4702 264.231 87.6903 262.771 88.3503C260.841 89.2203 259.181 90.7603 257.741 92.8603C257.731 92.8703 257.731 92.8802 257.721 92.8802C256.291 93.7902 255.011 95.0603 253.871 96.7203C252.431 98.8203 250.831 102.1 249.071 106.55C247.031 111.76 245.591 116.63 244.751 121.17C243.911 125.7 243.241 132.36 242.721 141.14C242.311 148.13 242.191 152.39 242.371 153.93C242.551 155.47 243.331 157.12 244.731 158.88C245.951 160.45 247.082 161.46 248.102 161.91C249.122 162.36 250.881 162.69 253.391 162.9C255.421 163.02 256.771 163.04 257.431 162.96C258.091 162.88 258.861 162.56 259.731 162.02C260.911 161.37 261.891 160.5 262.671 159.41C262.891 159.08 263.101 158.71 263.311 158.32C263.401 158.27 263.492 158.22 263.592 158.16C264.752 157.48 265.751 156.64 266.531 155.55C267.551 153.96 268.541 151.76 269.481 148.98C269.531 149.09 269.591 149.19 269.641 149.31C271.341 153.01 273.191 155.57 275.211 157.01C276.131 157.6 277.461 157.95 279.191 158.05C280.441 158.12 281.591 158.01 282.621 157.71C283.721 157.3 285.051 156.3 286.621 154.71C287.251 154.07 287.781 153.45 288.271 152.84C288.951 152.33 289.681 151.66 290.481 150.85C291.101 150.22 291.631 149.6 292.121 148.99C292.171 149.22 292.221 149.45 292.261 149.74C292.481 151.13 292.971 153 293.731 155.35C294.491 157.7 295.591 159.79 297.051 161.61C299.171 164.19 301.581 165.56 304.271 165.72C304.391 165.73 304.571 165.72 304.811 165.71C305.051 165.69 305.261 165.69 305.441 165.7C310.121 165.57 313.492 163.73 315.592 160.2C317.812 158.93 319.471 156.92 320.541 154.14C321.531 151.56 322.181 147.59 322.501 142.21C322.681 139.46 322.691 137.15 322.561 135.28Z" fill="black" stroke="black" stroke-width="2" stroke-miterlimit="10" stroke-linecap="round" stroke-linejoin="round"/>
<path d="M144.981 8.62024C146.711 7.78024 148.152 7.36035 149.292 7.36035C149.412 7.36035 149.631 7.38028 149.961 7.41028C150.291 7.44028 150.572 7.45032 150.812 7.45032C154.282 7.69032 157.181 9.01027 159.511 11.4003C161.901 13.8503 163.581 17.6503 164.531 22.7903C165.491 27.9303 165.971 35.5303 165.971 45.5803C165.971 49.1103 166.002 51.3103 166.062 52.1703C166.122 53.0403 166.302 53.4703 166.602 53.4703H166.691C166.751 53.4103 166.811 53.3802 166.871 53.3802C168.841 52.7803 171.681 52.4803 175.391 52.4803C176.411 52.4803 177.511 52.5403 178.711 52.6603C187.381 53.9203 191.781 58.6703 191.901 66.9203C191.901 71.3503 190.841 74.8003 188.721 77.2803C186.601 79.7603 183.171 81.4803 178.451 82.4403C176.541 82.8003 172.801 82.9803 167.241 82.9803C157.131 82.9803 150.641 82.5903 147.771 81.8103C145.561 81.3303 143.871 80.5703 142.701 79.5203C141.531 78.4703 140.681 76.9903 140.141 75.0803C137.991 68.0803 136.911 58.4203 136.911 46.1003C136.911 44.3703 136.972 41.6403 137.092 37.9403C137.452 30.3503 137.872 24.7203 138.352 21.0703C138.832 17.4203 139.562 14.6904 140.552 12.8604C141.532 11.0604 143.011 9.64024 144.981 8.62024Z" fill="#73C2AF" stroke="black" stroke-width="2" stroke-miterlimit="10" stroke-linecap="round" stroke-linejoin="round"/>
<path d="M197.211 83.0501C197.941 82.9501 198.931 82.9801 200.181 83.1201C202.561 83.3901 204.581 83.8601 206.251 84.5301C207.461 85.0301 208.631 85.8501 209.761 87.0101C210.891 88.1601 211.771 89.4101 212.411 90.7401L213.401 93.1102L212.231 106.61C211.341 115.48 211.122 120.57 211.582 121.89C212.042 123.15 212.651 123.82 213.431 123.91C214.261 124 215.041 123.49 215.771 122.37C216.501 121.19 217.442 116.15 218.572 107.25L220.461 93.8301L222.062 91.6601C224.372 88.7901 227.621 87.2401 231.801 86.9901C233.011 86.9501 234.121 86.9802 235.131 87.1002C238.931 87.5302 241.941 89.1401 244.151 91.9201C245.991 94.2401 247.091 97.3101 247.441 101.14C247.781 104.97 247.541 110.84 246.701 118.75C245.891 125.88 244.942 131.07 243.852 134.32C242.302 138.96 240.751 142.52 239.201 144.99C237.651 147.46 235.622 149.73 233.102 151.79C230.322 154 227.681 155.52 225.181 156.35C222.681 157.18 219.322 157.62 215.102 157.69C213.172 157.71 211.492 157.64 210.072 157.48C208.522 157.3 206.821 156.99 204.941 156.54C201.371 155.65 199.041 154.97 197.951 154.48C193.221 152.14 189.571 148.91 187.001 144.79C184.431 140.68 182.841 135.48 182.231 129.21C182.121 128.05 181.971 126.74 181.771 125.28C181.571 123.82 181.451 122.79 181.401 122.21C181.341 121.63 181.351 120.62 181.431 119.19C181.501 117.75 181.641 115.84 181.861 113.46C181.911 113.05 181.961 112.48 182.011 111.76C182.061 111.04 182.111 110.51 182.151 110.15C183.041 102.37 184.421 96.2901 186.301 91.9301C187.291 89.5801 188.792 87.5801 190.822 85.9401C192.812 84.3001 194.951 83.3401 197.211 83.0501Z" fill="white" stroke="black" stroke-width="2" stroke-miterlimit="10" stroke-linecap="round" stroke-linejoin="round"/>
<path d="M304.171 85.1801C305.681 84.9701 307.031 84.9001 308.231 84.9701C312.651 85.2301 315.741 86.7001 317.501 89.3801C319.371 92.2501 321.151 97.7601 322.861 105.92C324.571 114.08 325.761 122.58 326.431 131.43C326.561 133.3 326.541 135.6 326.381 138.35C326.061 143.72 325.411 147.7 324.421 150.28C322.511 155.26 318.761 157.82 313.181 157.98C313.001 157.97 312.792 157.97 312.552 157.99C312.312 158.01 312.131 158.01 312.011 158C309.321 157.84 306.922 156.47 304.792 153.89C303.342 152.07 302.231 149.98 301.471 147.63C300.711 145.28 300.221 143.41 300.001 142.02C299.781 140.63 299.521 139.92 299.231 139.91C298.991 139.9 298.491 140.74 297.731 142.43C297.051 143.89 295.921 145.41 294.361 146.99C292.801 148.57 291.471 149.57 290.361 149.99C289.321 150.29 288.181 150.4 286.931 150.33C285.201 150.23 283.871 149.88 282.951 149.29C280.941 147.85 279.081 145.29 277.381 141.59C276.531 139.8 275.922 138.9 275.562 138.88C275.322 138.87 274.971 139.69 274.521 141.34C273.231 146 271.851 149.45 270.401 151.7C269.621 152.79 268.641 153.66 267.461 154.31C266.591 154.86 265.821 155.17 265.161 155.25C264.491 155.33 263.151 155.31 261.121 155.19C258.621 154.98 256.852 154.65 255.832 154.2C254.812 153.75 253.681 152.74 252.461 151.17C251.061 149.41 250.282 147.76 250.102 146.22C249.922 144.68 250.041 140.42 250.451 133.43C250.971 124.65 251.641 118 252.481 113.46C253.321 108.93 254.762 104.05 256.802 98.8401C258.562 94.3901 260.162 91.1201 261.602 89.0101C263.042 86.9101 264.721 85.41 266.631 84.5C268.111 83.87 270.102 83.6301 272.602 83.7701C275.052 83.9101 276.971 84.3901 278.361 85.1901C281.191 86.9201 283.661 90.3301 285.761 95.4201C286.901 98.4201 287.561 99.9301 287.741 99.9401C287.801 99.9401 288.391 98.9901 289.531 97.0801C291.271 94.0101 293.511 91.35 296.241 89.12C298.991 86.88 301.631 85.5701 304.171 85.1801Z" fill="#73C2AF" stroke="black" stroke-width="2" stroke-miterlimit="10" stroke-linecap="round" stroke-linejoin="round"/>
<path d="M382.651 131.17C382.621 130.92 382.582 130.58 382.562 130.15C382.532 129.72 382.501 129.37 382.471 129.13C381.581 122.65 379.061 118.03 374.921 115.27L372.542 113.71L373.641 111.39C374.171 110.25 374.601 108.54 374.921 106.27C375.241 104 375.292 102.12 375.092 100.64C374.742 98.0501 373.431 95.0801 371.141 91.7601C369.121 88.8301 365.951 86.3301 361.671 84.2401C357.391 82.1601 353.071 80.9601 348.711 80.7801C345.681 80.6601 342.591 80.8602 339.451 81.3002C331.251 82.4202 325.671 84.5002 322.671 87.4602C321.761 88.3602 320.991 89.2201 320.371 90.0301C319.801 90.4401 319.262 90.8702 318.812 91.3202C316.262 93.8102 314.861 95.9802 314.611 97.8302C314.491 98.3502 314.831 102.42 315.621 110.04C316.501 118.34 316.951 123.68 316.971 126.07C317.151 129.19 317.412 132.04 317.772 134.63C318.712 141.48 319.782 146.55 320.982 149.84C323.662 157.45 328.172 161.96 334.522 163.35C339.322 164.45 344.961 164.56 351.441 163.67C355.391 163.13 358.551 162.35 360.921 161.33C366.181 159.12 370.312 156.15 373.332 152.45C377.292 149.23 380.071 145.23 381.681 140.45C382.401 138.4 382.801 136.92 382.861 136C382.901 135.08 382.841 133.47 382.651 131.17ZM348.022 107.95C348.042 108.13 348.042 108.32 348.002 108.52C347.632 108.66 347.261 108.78 346.871 108.83C345.451 109.02 344.201 108.38 343.121 106.89C342.651 106.2 342.392 105.7 342.352 105.39C342.322 105.19 342.332 104.99 342.352 104.77C343.812 104.58 345.181 105.02 346.441 106.09C347.431 106.84 347.962 107.45 348.022 107.95ZM353.302 136.41C351.762 136.62 350.481 136.45 349.461 135.9C347.971 135.1 347.131 133.99 346.931 132.57C346.911 132.43 346.931 132.3 346.931 132.17C347.191 132.11 347.452 132.06 347.752 132.02C349.352 131.8 350.692 131.93 351.762 132.41C353.232 133.03 354.072 134.11 354.282 135.65C354.292 135.71 354.292 135.84 354.282 136.03C354.282 136.11 354.292 136.15 354.292 136.22C353.962 136.3 353.642 136.37 353.302 136.41Z" fill="black" stroke="black" stroke-width="2" stroke-miterlimit="10" stroke-linecap="round" stroke-linejoin="round"/>
<path d="M434.401 143.3C432.651 143.3 430.071 143.58 426.641 144.07C422.891 144.61 420.341 144.84 418.981 144.84C417.691 144.84 416.911 144.76 416.651 144.6C416.511 144.51 416.371 144.29 416.251 143.97C417.271 143.88 418.461 143.78 419.871 143.69C423.881 143.37 426.621 143 428.111 142.58C429.601 142.16 431.082 141.28 432.572 139.93C433.332 139.24 433.951 138.47 434.421 137.59C435.091 137.17 435.761 136.67 436.431 136.07C438.431 134.27 439.441 131.83 439.441 128.74C439.441 126.81 439.051 124.63 438.281 122.18C437.891 120.96 437.172 119.77 436.102 118.61C435.032 117.45 433.952 116.69 432.852 116.3C431.812 115.92 429.941 115.72 427.231 115.72C424.001 115.72 421.311 115.62 419.181 115.43L415.302 115.04V114.17C416.492 114.27 418.171 114.47 420.361 114.76C426.371 115.53 430.411 115.92 432.481 115.92C434.091 115.92 435.311 115.73 436.121 115.34C436.931 114.95 437.781 114.25 438.691 113.22C439.231 112.62 439.711 112.01 440.131 111.39C440.891 110.99 441.702 110.32 442.552 109.36C445.072 106.6 446.332 103.58 446.332 100.3C446.332 98.4403 445.831 96.6802 444.881 95.0002C443.901 93.2702 442.931 92.0003 441.921 91.1903C440.921 90.3903 439.451 89.7002 437.511 89.1202C432.021 87.3902 425.131 86.4503 416.861 86.3203H412.302C408.232 86.3203 406.031 86.3503 405.711 86.4203C399.701 87.5103 395.871 88.4003 394.221 89.0703C392.571 89.7403 391.202 90.9803 390.102 92.7803C390.032 92.8903 389.961 93.0303 389.891 93.1703C388.451 93.8803 387.231 95.0203 386.241 96.6403C385.531 97.8003 384.751 100.46 383.911 104.64C383.071 108.82 382.521 112.71 382.261 116.3C382.201 117.39 382.161 120.25 382.161 124.88C382.161 130.22 382.191 134.23 382.261 136.93C382.521 149.27 383.261 157.58 384.491 161.85C385.721 166.12 388.211 169.19 391.951 171.06C395.961 173.05 403.002 174.05 413.092 174.05C414.642 174.05 416.972 173.98 420.072 173.86C426.732 173.54 431.661 172.81 434.861 171.69C438.051 170.57 440.261 168.86 441.491 166.55C443.231 165.53 444.531 164.24 445.361 162.67C446.001 161.45 446.332 159.87 446.332 157.95C446.332 153.26 445.041 149.44 442.451 146.48C440.571 144.36 437.891 143.3 434.401 143.3Z" fill="black" stroke="black" stroke-width="2" stroke-miterlimit="10" stroke-linecap="round" stroke-linejoin="round"/>
<path d="M512.602 133.16C511.992 129.51 510.472 126.01 508.042 122.66C506.282 120.24 504.202 118.22 501.792 116.62C500.342 115.65 498.471 114.64 496.181 113.57C496.931 113.09 497.611 112.44 498.191 111.62C498.551 111.12 498.832 110.59 499.062 110.05C500.342 109.58 501.422 108.74 502.312 107.5C503.622 105.67 504.081 103.58 503.701 101.25C503.561 100.43 503.311 99.5002 502.941 98.4602C501.311 93.7502 498.282 89.7302 493.852 86.3902C489.412 83.0502 484.492 81.0602 479.072 80.4102C476.562 80.1202 473.361 80.2902 469.461 80.9402C466.751 81.3902 464.761 81.8802 463.491 82.4202C460.211 83.6802 457.562 85.0702 455.552 86.6102C454.102 87.7102 452.741 89.0902 451.451 90.7202C451.441 90.7202 451.441 90.7302 451.431 90.7302C449.421 92.2602 447.562 94.3002 445.852 96.8502C442.942 101.15 441.861 105.54 442.611 110.01C443.431 114.92 445.711 119.12 449.461 122.6C451.371 124.38 453.752 126.05 456.572 127.62C455.932 127.92 455.311 128.32 454.721 128.82C453.671 129.71 452.872 130.71 452.302 131.81C451.712 132.1 451.142 132.47 450.602 132.94C447.772 135.35 446.682 138.54 447.342 142.51C447.842 145.53 449.361 148.84 451.901 152.42C454.191 155.66 457.121 158.36 460.721 160.51C464.311 162.66 468.201 164.03 472.371 164.63C474.501 164.99 477.261 164.88 480.661 164.32L483.121 163.91C488.031 163.09 491.641 162.07 493.961 160.84C497.811 158.8 500.881 156.31 503.221 153.37C505.571 151.49 507.491 149.35 508.971 146.95C509.941 145.37 510.812 143.33 511.592 140.84C512.372 138.35 512.762 136.33 512.762 134.77C512.782 134.45 512.732 133.91 512.602 133.16Z" fill="black" stroke="black" stroke-width="2" stroke-miterlimit="10" stroke-linecap="round" stroke-linejoin="round"/>
<path d="M359.482 124.69C358.412 124.21 357.071 124.08 355.471 124.3C353.991 124.5 352.912 124.9 352.242 125.5C351.102 126.35 350.622 127.42 350.802 128.71C350.992 130.13 351.842 131.24 353.332 132.04C354.352 132.59 355.631 132.76 357.171 132.55C358.471 132.37 359.602 131.93 360.572 131.24C361.542 130.54 362.032 129.72 362.022 128.78C362.002 128.66 362.002 128.5 362.002 128.31C362.012 128.12 362.002 128 362.002 127.93C361.782 126.39 360.942 125.31 359.482 124.69ZM326.512 83.5801C329.502 80.6001 335.092 78.54 343.292 77.42C346.442 76.99 349.522 76.82 352.552 76.9C356.922 77.12 361.242 78.2701 365.512 80.3601C369.792 82.4501 372.942 84.95 374.982 87.88C377.262 91.21 378.581 94.17 378.931 96.76C379.131 98.24 379.072 100.12 378.762 102.39C378.442 104.66 378.022 106.37 377.482 107.51L376.381 109.83L378.762 111.39C382.912 114.15 385.432 118.77 386.312 125.25C386.342 125.5 386.371 125.84 386.401 126.27C386.431 126.71 386.462 127.05 386.492 127.29C386.682 129.59 386.741 131.2 386.681 132.12C386.621 133.04 386.222 134.52 385.502 136.57C382.912 144.28 377.282 149.95 368.602 153.59C366.232 154.61 363.061 155.39 359.121 155.93C352.641 156.82 347.001 156.71 342.201 155.61C335.851 154.22 331.341 149.71 328.661 142.1C327.461 138.81 326.381 133.74 325.451 126.89C325.101 124.3 324.831 121.45 324.651 118.33C324.641 115.94 324.192 110.6 323.302 102.3C322.512 94.68 322.172 90.6101 322.292 90.0901C322.562 88.2401 323.962 86.0701 326.512 83.5801ZM354.171 98.3601C352.891 97.2801 351.512 96.84 350.032 97.04C348.242 97.29 347.031 98.3001 346.391 100.08C346.211 100.61 346.151 101.09 346.211 101.52C346.251 101.83 346.512 102.33 346.982 103.02C348.062 104.51 349.312 105.15 350.732 104.96C351.292 104.88 351.831 104.72 352.361 104.45C353.251 104.08 354.062 103.45 354.792 102.56C355.522 101.68 355.832 100.89 355.742 100.21C355.682 99.7301 355.151 99.1101 354.171 98.3601Z" fill="white" stroke="black" stroke-width="2" stroke-miterlimit="10" stroke-linecap="round" stroke-linejoin="round"/>
<path d="M409.572 82.5602C409.892 82.5002 412.091 82.4602 416.161 82.4602H420.721C428.991 82.5902 435.881 83.5201 441.371 85.2601C443.311 85.8401 444.781 86.5302 445.781 87.3302C446.781 88.1302 447.771 89.4001 448.741 91.1401C449.711 92.8101 450.201 94.5802 450.201 96.4402C450.201 99.7202 448.941 102.74 446.421 105.5C445.511 106.53 444.662 107.23 443.852 107.62C443.042 108.01 441.831 108.2 440.211 108.2C438.141 108.2 434.102 107.81 428.092 107.04C424.662 106.59 422.471 106.37 421.501 106.37C420.791 106.37 420.242 106.6 419.852 107.04C419.402 107.62 419.171 108.49 419.171 109.64V111.18L423.052 111.57C425.182 111.76 427.862 111.86 431.102 111.86C433.812 111.86 435.691 112.05 436.721 112.44C437.821 112.83 438.901 113.6 439.971 114.75C441.041 115.91 441.761 117.1 442.151 118.32C442.931 120.76 443.312 122.95 443.312 124.88C443.312 127.97 442.312 130.41 440.302 132.21C438.812 133.56 437.332 134.44 435.842 134.86C434.352 135.28 431.612 135.65 427.602 135.97C422.822 136.29 420.261 136.61 419.941 136.93C419.611 137.25 419.582 137.99 419.842 139.15C420.032 140.05 420.261 140.58 420.521 140.74C420.781 140.9 421.552 140.98 422.852 140.98C424.212 140.98 426.761 140.72 430.511 140.21C433.941 139.7 436.521 139.44 438.271 139.44C441.761 139.44 444.442 140.5 446.322 142.62C448.902 145.58 450.201 149.4 450.201 154.09C450.201 156.02 449.871 157.59 449.231 158.81C448.001 161.12 445.792 162.84 442.592 163.97C439.392 165.09 434.462 165.82 427.802 166.14C424.702 166.27 422.372 166.33 420.822 166.33C410.742 166.33 403.691 165.33 399.691 163.34C395.941 161.48 393.451 158.41 392.221 154.13C390.991 149.86 390.251 141.55 389.991 129.21C389.931 126.51 389.891 122.5 389.891 117.16C389.891 112.53 389.921 109.67 389.991 108.58C390.251 104.98 390.801 101.09 391.641 96.9202C392.481 92.7402 393.251 90.0802 393.971 88.9202C395.071 87.1202 396.442 85.8802 398.092 85.2102C399.732 84.5402 403.552 83.6502 409.572 82.5602Z" fill="#73C2AF" stroke="black" stroke-width="2" stroke-miterlimit="10" stroke-linecap="round" stroke-linejoin="round"/>
<path d="M467.611 78.3101C468.881 77.7801 470.872 77.2801 473.582 76.8301C477.482 76.1801 480.691 76.0001 483.191 76.3001C488.601 76.9501 493.532 78.9401 497.972 82.2801C502.412 85.6201 505.442 89.6402 507.072 94.3502C507.442 95.3902 507.692 96.3201 507.832 97.1401C508.222 99.4701 507.761 101.55 506.451 103.39C505.291 105.01 503.812 105.97 501.982 106.27C499.842 106.63 496.832 106.06 492.962 104.57C488.052 102.67 485.281 101.77 484.651 101.88C484.521 101.9 484.472 101.94 484.482 102.01C484.602 102.7 488.192 104.47 495.262 107.3C499.972 109.17 503.531 110.91 505.931 112.51C508.331 114.12 510.421 116.13 512.181 118.55C514.611 121.9 516.132 125.4 516.742 129.05C516.872 129.8 516.921 130.35 516.911 130.67C516.911 132.22 516.522 134.25 515.742 136.74C514.962 139.23 514.081 141.27 513.121 142.85C510.671 146.81 507.052 150.07 502.232 152.62C499.912 153.85 496.301 154.87 491.391 155.69L488.931 156.1C485.531 156.67 482.771 156.77 480.641 156.41C476.471 155.81 472.582 154.44 468.992 152.29C465.392 150.14 462.461 147.44 460.171 144.2C457.631 140.61 456.111 137.31 455.611 134.29C454.951 130.32 456.031 127.14 458.871 124.72C460.001 123.76 461.232 123.16 462.552 122.94C465.192 122.5 469.471 123.5 475.371 125.95C478.151 127.1 479.792 127.64 480.302 127.56C480.552 127.52 480.661 127.37 480.611 127.12C480.481 126.36 478.351 125.2 474.201 123.63C466.961 120.95 461.472 117.88 457.722 114.39C453.972 110.91 451.691 106.71 450.871 101.8C450.131 97.3301 451.211 92.9501 454.111 88.6401C455.821 86.0901 457.681 84.0501 459.691 82.5201C461.681 80.9701 464.321 79.5701 467.611 78.3101Z" fill="white" stroke="black" stroke-width="2" stroke-miterlimit="10" stroke-linecap="round" stroke-linejoin="round"/>
<path d="M187.511 100.95C186.791 99.5203 185.941 98.4503 184.951 97.7703C183.961 97.0803 182.541 96.5204 180.691 96.1104C178.241 95.5604 168.702 95.3003 152.072 95.3003C146.212 95.3003 141.962 95.4103 139.332 95.5703C134.852 95.8403 131.611 96.2402 129.641 96.8702C127.671 97.5002 126.031 98.5703 124.711 100.05C124.161 100.67 123.721 101.26 123.371 101.83C122.431 102.39 121.582 103.08 120.842 103.92C119.822 105.06 119.152 106.12 118.822 107.1C118.492 108.09 118.332 109.54 118.332 111.45C118.392 115.58 119.261 118.39 120.931 119.88C122.841 121.55 126.611 122.39 132.231 122.39H136.981L137.251 126.61C137.491 130.08 137.672 135.82 137.792 143.84C137.972 152.81 138.301 158.46 138.781 160.8C139.621 165.52 140.991 168.9 142.911 170.94C144.821 172.97 147.632 173.99 151.342 173.99H151.611C155.081 173.99 157.851 172.66 159.911 170C160.191 169.63 160.471 169.23 160.731 168.81C161.871 168.16 162.891 167.28 163.781 166.14C165.841 163.48 167.291 159.37 168.131 153.8C168.311 152.54 168.401 148.96 168.401 143.03C168.401 133.03 168.251 126.15 167.961 122.38L170.822 122.31C174.892 122.25 177.761 121.95 179.431 121.41C181.101 120.87 182.451 119.92 183.471 118.54C183.701 118.22 183.892 117.78 184.052 117.24C185.372 116.68 186.482 115.84 187.332 114.67C188.062 113.66 188.532 111.53 188.592 108.3C188.602 107.88 188.601 107.4 188.631 106.87C188.661 106.33 188.681 105.94 188.681 105.7C188.681 104.09 188.291 102.51 187.511 100.95Z" fill="black" stroke="black" stroke-width="2" stroke-miterlimit="10" stroke-linecap="round" stroke-linejoin="round"/>
<path d="M143.201 91.7002C145.831 91.5202 150.081 91.4302 155.941 91.4302C172.571 91.4302 182.112 91.7001 184.562 92.2401C186.412 92.6601 187.842 93.2101 188.822 93.9001C189.812 94.5901 190.661 95.6502 191.381 97.0802C192.161 98.6402 192.552 100.22 192.552 101.84C192.552 102.08 192.531 102.47 192.501 103.01C192.471 103.55 192.461 104.03 192.461 104.44C192.341 107.67 191.921 109.79 191.201 110.81C190.181 112.19 188.841 113.14 187.161 113.68C185.491 114.22 182.612 114.52 178.552 114.58L171.371 114.76L171.641 116.64C172.061 119.69 172.271 127.2 172.271 139.16C172.271 145.08 172.181 148.67 172.001 149.93C171.161 155.49 169.711 159.6 167.651 162.27C165.591 164.93 162.822 166.26 159.352 166.26H159.082C155.372 166.26 152.561 165.24 150.651 163.21C148.731 161.18 147.361 157.8 146.521 153.07C146.041 150.74 145.711 145.09 145.531 136.11C145.411 128.1 145.231 122.35 144.991 118.88L144.721 114.66H139.971C134.351 114.66 130.581 113.82 128.671 112.15C126.991 110.66 126.132 107.84 126.072 103.72C126.072 101.81 126.232 100.36 126.562 99.3701C126.892 98.3801 127.562 97.3202 128.582 96.1902C129.902 94.7002 131.541 93.6301 133.511 93.0101C135.481 92.3801 138.711 91.9502 143.201 91.7002Z" fill="#73C2AF" stroke="black" stroke-width="2" stroke-miterlimit="10" stroke-linecap="round" stroke-linejoin="round"/>
<path d="M69.7916 152.16C69.6516 150.67 69.3617 149.19 68.8417 147.74C68.4617 146.69 67.4116 144.73 65.7316 141.85C64.0516 138.97 62.4317 136.43 60.8417 134.23L59.8116 132.79L61.5116 130.65C63.1316 128.64 64.1216 126.88 64.4916 125.38C64.8616 123.87 64.9317 121.48 64.6017 118.21C64.2217 114.4 63.5615 111.61 62.6615 109.83C61.7915 108.1 60.4415 106.14 58.6515 103.94C56.8615 101.73 55.3216 100.18 54.0316 99.27C50.8216 96.98 46.6416 95.28 41.4916 94.16C36.3416 93.04 31.2415 92.71 26.1715 93.18L25.4615 93.25C22.5515 93.64 20.9217 93.88 20.5717 93.97C19.7017 94.29 17.9715 95.14 15.4015 96.52C12.8215 97.9 11.0915 98.9301 10.1915 99.6101C9.18153 100.31 8.36155 101.29 7.72155 102.54C7.14155 102.9 6.67166 103.21 6.33166 103.47C4.92166 104.44 3.87153 105.95 3.19153 107.99C2.51153 110.03 2.10155 112.95 1.97155 116.75C1.87155 119.64 1.95153 122.4 2.19153 125.02C2.46153 128 2.95148 131.98 3.64148 136.96L3.65149 137.05C4.06149 140.26 4.36163 142.54 4.55163 143.9C6.26163 156.66 7.58159 164.19 8.51159 166.51C9.06159 167.96 10.2517 169.44 12.0717 170.96C13.5017 172.21 14.9216 173.01 16.3016 173.37C17.6816 173.72 19.6616 173.81 22.2316 173.64L23.0316 173.57C29.2816 173 33.5015 170.84 35.7115 167.12C37.6215 165.95 39.0316 164.39 39.9716 162.48C40.4216 162.81 40.9116 163.17 41.4816 163.6C46.9716 167.84 51.5616 169.79 55.2616 169.45C55.9216 169.39 56.4216 169.31 56.7716 169.22C59.8916 168.57 62.2815 167.06 63.9215 164.69C64.0815 164.45 64.2315 164.2 64.3815 163.96C65.7415 163.18 66.8816 162.14 67.7816 160.83C69.4316 158.44 70.1016 155.56 69.7916 152.16ZM31.7115 120.06C31.7115 120.04 31.7115 120.02 31.7115 119.99C31.9915 120.16 32.2817 120.38 32.6017 120.69C33.2917 121.42 33.6917 122.35 33.8317 123.45C32.5817 122.78 31.8615 121.67 31.7115 120.06Z" fill="black" stroke="black" stroke-width="2" stroke-miterlimit="10" stroke-linecap="round" stroke-linejoin="round"/>
<path d="M128.411 151.05C128.041 146.7 126.541 143.26 123.921 140.72C122.021 138.9 119.471 138.13 116.251 138.41C114.641 138.55 112.281 139.01 109.161 139.74C105.751 140.54 103.411 140.95 102.161 141.06C100.971 141.16 100.251 141.15 100.001 141.02C99.8414 140.94 99.6814 140.7 99.5214 140.35C100.331 140.21 101.241 140.06 102.281 139.9C105.951 139.28 108.451 138.73 109.791 138.22C111.131 137.72 112.431 136.78 113.691 135.41C114.171 134.9 114.561 134.34 114.881 133.75C115.791 133.22 116.671 132.49 117.551 131.55C119.251 129.72 119.981 127.38 119.741 124.52C119.591 122.73 119.051 120.74 118.151 118.53C117.691 117.43 116.932 116.38 115.852 115.4C114.782 114.41 113.711 113.79 112.671 113.51C111.681 113.24 109.941 113.2 107.441 113.42C104.461 113.68 101.981 113.8 100.001 113.79L96.3913 113.74L96.3215 112.92C97.3715 112.93 98.7313 112.98 100.421 113.06C106.021 113.3 109.781 113.34 111.691 113.17C113.181 113.04 114.281 112.77 115.001 112.35C115.711 111.93 116.451 111.21 117.201 110.18C117.541 109.73 117.841 109.27 118.121 108.82C118.401 108.72 118.651 108.61 118.861 108.49C119.571 108.07 120.311 107.35 121.061 106.32C123.161 103.56 124.081 100.66 123.821 97.62C123.671 95.89 123.071 94.3001 122.061 92.8201C121.021 91.3001 120.021 90.1901 119.031 89.5201C118.041 88.8501 116.631 88.3301 114.801 87.9501C109.601 86.7801 103.171 86.46 95.5414 86.99L91.3415 87.3501C87.5915 87.6701 85.5614 87.8801 85.2714 87.9601C79.8114 89.4501 76.3513 90.5701 74.8913 91.3301C73.4513 92.0701 72.3113 93.3 71.4413 95C71.3013 95.07 71.1414 95.1301 71.0214 95.1901C69.5514 95.9501 68.3914 97.2001 67.5214 98.9601C66.9614 100.09 66.4514 102.62 66.0114 106.56C65.5714 110.5 65.3713 114.15 65.4213 117.51C65.4513 118.53 65.6514 121.18 66.0114 125.47C66.4414 130.42 66.7915 134.14 67.0615 136.64C68.2815 148.06 69.6315 155.7 71.1015 159.57C72.5715 163.44 75.1114 166.08 78.7214 167.51C82.5714 169.04 89.1513 169.41 98.4413 168.61C99.8713 168.49 102.011 168.24 104.861 167.88C110.971 167.05 115.461 165.99 118.321 164.7C120.901 163.53 122.701 161.97 123.721 160.03C125.731 158.84 127.131 157.34 127.891 155.53C128.391 154.32 128.571 152.83 128.411 151.05Z" fill="black" stroke="black" stroke-width="2" stroke-miterlimit="10" stroke-linecap="round" stroke-linejoin="round"/>
<path d="M40.3214 112.97C39.5914 112.26 38.9613 111.92 38.4313 111.97C37.4813 112.06 36.7413 112.52 36.2113 113.34C35.6813 114.17 35.4714 115.12 35.5714 116.19C35.7314 117.92 36.5313 119.11 37.9713 119.75L39.7514 120.49L40.8014 119.13C41.4314 118.17 41.6915 117.1 41.5915 115.91C41.4815 114.73 41.0614 113.75 40.3214 112.97ZM24.4513 90.1001C24.8013 90.0101 26.4315 89.77 29.3415 89.38L30.0514 89.31C35.1114 88.85 40.2213 89.18 45.3713 90.29C50.5213 91.41 54.7013 93.11 57.9113 95.4C59.1913 96.3 60.7314 97.86 62.5314 100.07C64.3214 102.28 65.6614 104.24 66.5414 105.96C67.4214 107.74 68.0714 110.54 68.4814 114.34C68.7814 117.62 68.7412 120.01 68.3713 121.51C68.0013 123.02 67.0013 124.77 65.3913 126.78L63.6913 128.92L64.7213 130.36C66.3013 132.56 67.9312 135.1 69.6112 137.98C71.2812 140.86 72.3213 142.82 72.7213 143.87C73.2113 145.33 73.5313 146.8 73.6713 148.29C73.9813 151.69 73.3113 154.57 71.6713 156.94C70.0313 159.31 67.6414 160.82 64.5214 161.47C64.1714 161.56 63.6614 161.64 63.0114 161.7C59.3214 162.04 54.7214 160.09 49.2314 155.85C46.7214 153.98 45.4014 153.05 45.2814 153.06C45.1014 153.08 45.0512 153.44 45.1112 154.16C45.1812 154.93 44.8813 156.19 44.1913 157.94C42.2713 162.56 37.8014 165.19 30.7714 165.84L29.9713 165.91C27.4013 166.08 25.4314 165.99 24.0414 165.64C22.6614 165.29 21.2514 164.48 19.8114 163.23C17.9914 161.71 16.8014 160.23 16.2514 158.78C15.3214 156.46 14.0014 148.93 12.2914 136.17C12.1114 134.81 11.8113 132.52 11.3913 129.32L11.3813 129.23C10.6813 124.25 10.2013 120.27 9.93131 117.29C9.69131 114.67 9.62134 111.91 9.71134 109.02C9.84134 105.22 10.2513 102.3 10.9313 100.26C11.6113 98.22 12.6614 96.71 14.0714 95.74C14.9714 95.06 16.7114 94.03 19.2814 92.65C21.8514 91.27 23.5713 90.4301 24.4513 90.1001Z" fill="#73C2AF" stroke="black" stroke-width="2" stroke-miterlimit="10" stroke-linecap="round" stroke-linejoin="round"/>
<path d="M89.1213 84.0802C89.4113 84.0002 91.4413 83.7903 95.1913 83.4703L99.3913 83.1103C107.031 82.5703 113.451 82.8902 118.651 84.0702C120.481 84.4502 121.891 84.9802 122.881 85.6402C123.871 86.3102 124.881 87.4002 125.911 88.9402C126.941 90.4102 127.531 92.0102 127.671 93.7402C127.931 96.7802 127.011 99.6802 124.911 102.44C124.161 103.47 123.421 104.19 122.711 104.61C121.991 105.03 120.891 105.31 119.401 105.43C117.491 105.59 113.741 105.56 108.131 105.32C104.941 105.18 102.891 105.14 102.001 105.22C101.341 105.28 100.861 105.53 100.531 105.98C100.161 106.55 100.021 107.37 100.111 108.45L100.231 109.88L103.841 109.93C105.821 109.94 108.301 109.82 111.281 109.56C113.781 109.34 115.531 109.38 116.511 109.65C117.551 109.92 118.611 110.55 119.691 111.54C120.771 112.53 121.531 113.57 121.991 114.67C122.901 116.87 123.431 118.87 123.591 120.66C123.841 123.52 123.111 125.87 121.401 127.69C120.141 129.06 118.841 130 117.501 130.5C116.161 131.01 113.661 131.57 109.991 132.18C105.611 132.86 103.281 133.36 103.011 133.68C102.741 134 102.772 134.69 103.102 135.74C103.352 136.56 103.602 137.03 103.852 137.16C104.102 137.29 104.821 137.3 106.011 137.2C107.261 137.09 109.591 136.65 113.011 135.88C116.131 135.13 118.492 134.69 120.102 134.55C123.322 134.27 125.871 135.04 127.771 136.86C130.391 139.4 131.891 142.84 132.261 147.19C132.411 148.98 132.241 150.46 131.741 151.65C130.791 153.89 128.891 155.66 126.031 156.96C123.171 158.26 118.681 159.32 112.571 160.14C109.721 160.5 107.581 160.75 106.151 160.87C96.8513 161.67 90.2813 161.3 86.4313 159.77C82.8213 158.34 80.2815 155.69 78.8115 151.83C77.3415 147.97 75.9914 140.32 74.7714 128.9C74.5014 126.4 74.1514 122.68 73.7214 117.73C73.3514 113.44 73.1513 110.79 73.1313 109.77C73.0813 106.41 73.2814 102.76 73.7214 98.8202C74.1614 94.8802 74.6614 92.3503 75.2314 91.2203C76.1014 89.4703 77.2714 88.2102 78.7314 87.4502C80.2114 86.6902 83.6713 85.5702 89.1213 84.0802Z" fill="white" stroke="black" stroke-width="2" stroke-miterlimit="10" stroke-linecap="round" stroke-linejoin="round"/>
<path d="M248.641 25.5502C247.111 22.2202 245.322 19.5101 243.292 17.4201C239.742 13.6802 235.502 11.0302 230.572 9.46019C228.372 8.81019 225.391 8.43018 221.621 8.33018C218.331 8.25018 215.542 8.40018 213.262 8.83018C209.952 9.45018 206.751 10.7701 203.641 12.7501C201.091 14.3801 199.142 16.1501 197.752 18.0301C195.682 19.6201 194.112 21.3201 193.062 23.1201C191.872 25.0601 190.542 29.3701 189.052 36.0301C188.642 37.9901 188.382 41.2202 188.262 45.7002C188.112 51.6802 188.261 56.0801 188.731 58.9001C189.571 63.4701 190.541 67.0801 191.641 69.7401C192.741 72.4001 194.222 74.8002 196.082 76.9402C198.172 79.3302 200.641 81.0102 203.491 81.9802C206.341 82.9502 210.241 83.5001 215.201 83.6301C221.061 83.7201 225.772 83.2701 229.322 82.2901C232.882 81.3001 236.151 79.4702 239.161 76.8002C240.121 75.9302 240.972 74.9801 241.772 73.9901C242.192 73.6501 242.612 73.3002 243.022 72.9302C245.662 70.5602 247.672 67.7302 249.072 64.4702C250.472 61.2202 251.562 56.7602 252.292 51.0902C252.522 49.3002 252.651 47.5102 252.701 45.7202C252.881 38.7602 251.531 32.0302 248.641 25.5502ZM221.161 47.1002C220.801 47.0902 220.502 47.0501 220.272 46.9901C218.482 46.6401 217.252 45.6302 216.582 43.9302C216.182 43.0202 216.002 41.9701 216.032 40.7701C216.062 39.7201 216.242 38.7802 216.582 37.9302C217.072 37.7102 217.461 37.5902 217.741 37.6002C218.161 37.6102 218.801 38.1102 219.681 39.0902C221.191 40.9802 221.911 42.9201 221.861 44.8901C221.841 45.6701 221.681 46.3902 221.431 47.0702C221.341 47.0702 221.251 47.1002 221.161 47.1002Z" fill="black" stroke="black" stroke-width="2" stroke-miterlimit="10" stroke-linecap="round" stroke-linejoin="round"/>
<path d="M315.942 20.2002C313.332 15.7002 309.811 12.1801 305.381 9.63013C303.321 8.46013 300.491 7.44019 296.891 6.57019C294.391 5.97019 292.492 5.67015 291.202 5.66015C287.912 5.55015 285.112 5.78012 282.822 6.37012C280.532 6.96012 278.182 8.04023 275.772 9.61023C273.652 10.9902 271.951 12.5702 270.661 14.3502C267.311 16.8602 265.182 19.9501 264.292 23.6401C263.202 28.1801 263.632 32.6301 265.602 37.0101C266.352 38.6801 267.332 40.3801 268.562 42.1301C267.942 42.1701 267.311 42.2802 266.661 42.4802C264.191 43.2602 262.402 44.7602 261.282 46.9702C258.832 48.2002 257.232 50.3401 256.492 53.4001C255.822 56.1901 255.922 59.6001 256.802 63.6201C257.592 67.2501 259.142 70.6602 261.452 73.8302C263.762 77.0002 266.612 79.6101 269.992 81.6501C271.702 82.7401 274.122 83.6602 277.262 84.4102L279.532 84.9602C284.062 86.0502 287.562 86.4902 290.012 86.2802C295.102 85.8401 299.422 84.3602 302.982 81.8302C304.392 80.8202 305.892 79.3801 307.482 77.5101C307.512 77.4701 307.542 77.4301 307.572 77.3901C308.772 76.4301 310.022 75.1901 311.342 73.6401C312.932 71.7801 314.002 70.1702 314.572 68.8302C314.702 68.5502 314.852 68.0701 315.012 67.3701C315.822 64.0001 315.791 60.4201 314.911 56.6401C314.281 53.9001 313.222 51.4001 311.732 49.1401C311.142 48.2401 310.402 47.2602 309.512 46.1902C310.232 46.0302 310.951 45.7602 311.651 45.3302C313.021 44.4902 314.011 43.3501 314.641 41.9001C314.931 41.7701 315.222 41.6402 315.512 41.4702C317.312 40.3702 318.472 38.7402 318.992 36.5902C319.172 35.8302 319.291 34.9402 319.361 33.9102C319.691 29.2802 318.552 24.7002 315.942 20.2002Z" fill="black" stroke="black" stroke-width="2" stroke-miterlimit="10" stroke-linecap="round" stroke-linejoin="round"/>
<path d="M227.401 31.3602C226.531 30.3802 225.881 29.8901 225.461 29.8701C225.041 29.8501 224.381 30.1101 223.471 30.6301C221.161 32.0101 219.971 34.1001 219.901 36.9101C219.871 38.1101 220.051 39.1602 220.451 40.0702C221.121 41.7602 222.351 42.7801 224.141 43.1301C224.381 43.2001 224.682 43.2301 225.032 43.2401C225.692 43.2601 226.511 42.8001 227.491 41.8701C228.841 40.5901 229.542 39.0201 229.592 37.1701C229.632 35.1901 228.901 33.2502 227.401 31.3602ZM217.131 4.9802C219.411 4.5602 222.201 4.3902 225.491 4.4802C229.261 4.5802 232.241 4.95021 234.431 5.61021C239.361 7.17021 243.591 9.83017 247.151 13.5702C249.191 15.6602 250.982 18.3702 252.502 21.7002C255.382 28.1802 256.742 34.9101 256.562 41.9101C256.512 43.7001 256.381 45.4901 256.151 47.2801C255.411 52.9501 254.331 57.4001 252.931 60.6601C251.531 63.9201 249.511 66.7301 246.881 69.1201C243.881 71.7901 240.602 73.6202 237.052 74.6102C233.492 75.6002 228.791 76.0402 222.931 75.9502C217.971 75.8202 214.061 75.2701 211.221 74.3001C208.371 73.3301 205.902 71.6501 203.812 69.2601C201.952 67.1201 200.471 64.7202 199.371 62.0602C198.271 59.4002 197.301 55.7802 196.461 51.2202C195.991 48.4002 195.841 44.0001 195.991 38.0201C196.111 33.5401 196.372 30.3102 196.782 28.3502C198.272 21.6902 199.612 17.3802 200.792 15.4402C202.172 13.0802 204.412 10.9102 207.512 8.93016C210.622 6.92016 213.821 5.6102 217.131 4.9802Z" fill="white" stroke="black" stroke-width="2" stroke-miterlimit="10" stroke-linecap="round" stroke-linejoin="round"/>
<path d="M295.062 1.81023C296.352 1.81023 298.252 2.11026 300.752 2.72026C304.352 3.59026 307.182 4.6102 309.242 5.7802C313.672 8.3202 317.192 11.8503 319.802 16.3503C322.412 20.8503 323.552 25.4303 323.232 30.0903C323.172 31.1203 323.041 32.0202 322.861 32.7702C322.341 34.9202 321.181 36.5502 319.381 37.6502C317.791 38.6202 316.162 38.9002 314.472 38.5002C312.492 38.0202 310.112 36.4403 307.312 33.7303C303.772 30.3003 301.711 28.5102 301.131 28.3702C301.011 28.3402 300.952 28.3602 300.932 28.4202C300.782 29.0602 303.232 31.9002 308.302 36.9302C311.682 40.2702 314.112 43.0703 315.602 45.3302C317.092 47.5902 318.152 50.0902 318.782 52.8302C319.652 56.6102 319.691 60.1802 318.881 63.5602C318.711 64.2602 318.562 64.7502 318.442 65.0202C317.872 66.3602 316.792 67.9602 315.212 69.8302C313.622 71.6902 312.122 73.1302 310.712 74.1502C307.152 76.6802 302.832 78.1603 297.742 78.6003C295.292 78.8103 291.802 78.3702 287.262 77.2802L284.992 76.7303C281.852 75.9703 279.432 75.0503 277.722 73.9703C274.342 71.9303 271.492 69.3202 269.182 66.1502C266.862 62.9802 265.322 59.5802 264.532 55.9402C263.652 51.9202 263.552 48.5103 264.222 45.7203C265.102 42.0603 267.202 39.7002 270.532 38.6602C271.862 38.2402 273.141 38.1803 274.361 38.4703C276.801 39.0603 280.122 41.4902 284.332 45.7602C286.312 47.7702 287.532 48.8402 287.992 48.9502C288.222 49.0102 288.372 48.9202 288.422 48.6802C288.592 47.9802 287.172 46.2002 284.172 43.3202C278.902 38.3602 275.292 33.7002 273.332 29.3202C271.372 24.9402 270.932 20.4902 272.022 15.9502C273.012 11.8202 275.551 8.4302 279.631 5.7802C282.041 4.2102 284.392 3.13021 286.682 2.54021C288.972 1.93021 291.772 1.69023 295.062 1.81023Z" fill="#73C2AF" stroke="black" stroke-width="2" stroke-miterlimit="10" stroke-linecap="round" stroke-linejoin="round"/>
</svg>
