<svg width="575" height="148" viewBox="0 0 575 148" fill="none" xmlns="http://www.w3.org/2000/svg">
<path d="M526.102 145.79C523.162 145.79 519.381 145.31 514.871 144.36L511.992 143.76C507.872 142.9 504.602 141.76 502.272 140.37C497.812 137.85 493.942 134.51 490.812 130.47C487.852 126.65 485.742 122.48 484.522 118.06C484.512 118.09 484.492 118.11 484.482 118.14C482.911 121.21 480.062 123.52 476.002 125.01C472.112 126.44 466.351 127.37 458.381 127.86C454.671 128.06 451.991 128.17 450.181 128.19C449.441 128.2 448.722 128.2 448.012 128.2C437.082 128.2 429.502 127.1 424.842 124.85C420.072 122.54 416.831 118.64 415.221 113.25C414.491 110.81 413.891 107.4 413.401 102.88C412.521 103.67 411.521 104.38 410.401 105.02C409.671 106.33 408.812 107.49 407.842 108.47C404.732 111.63 399.941 113.66 393.611 114.49C392.621 114.6 391.382 114.66 389.802 114.66C387.182 114.66 383.601 114.5 379.181 114.2C366.241 113.3 358.141 112.24 354.441 110.95C354.331 110.92 354.212 110.88 354.102 110.85C353.932 111.07 353.772 111.28 353.602 111.47C352.442 112.82 350.961 114.03 349.181 115.08C348.651 116.04 348.041 116.92 347.371 117.7C346.211 119.05 344.721 120.27 342.941 121.32C342.411 122.28 341.801 123.16 341.131 123.94C338.251 127.31 333.612 129.66 327.352 130.93C324.812 131.41 320.091 131.64 312.931 131.64C299.951 131.64 291.802 131.14 288.022 130.12C285.062 129.48 282.692 128.39 281.032 126.91C280.462 126.4 279.941 125.81 279.471 125.13C278.551 125.92 277.512 126.6 276.342 127.16C276.062 127.86 275.731 128.49 275.361 129.03C273.421 131.88 270.302 133.81 266.082 134.78C263.522 135.37 260.111 135.67 255.961 135.67C253.651 135.67 251.052 135.58 248.242 135.4C244.542 135.13 241.872 134.9 240.062 134.7C228.042 133.33 219.952 131.21 215.342 128.2C210.902 125.31 208.172 121.03 207.252 115.49C206.742 112.44 206.602 107.95 206.832 101.89C205.962 104.22 205.112 106.17 204.302 107.74C202.382 111.3 200.341 113.99 198.221 115.76C197.641 116.25 196.971 116.71 196.151 117.2C194.831 119.17 193.432 120.79 191.992 122C191.402 122.49 190.731 122.96 189.891 123.45C188.561 125.44 187.172 127.05 185.762 128.23C183.612 130.03 180.832 131.33 177.512 132.1C176.952 132.24 176.161 132.37 175.211 132.48C174.621 132.54 174.041 132.58 173.461 132.58C169.841 132.58 166.451 131.3 163.381 128.78C161.421 127.14 159.351 124.64 157.191 121.36C155.101 118.18 151.512 112.12 146.542 103.34C143.522 98.0201 140.862 93.0702 138.582 88.5502C138.362 92.9902 138.061 97.5901 137.681 102.28C136.761 113.68 135.691 120.77 134.421 123.96C133.121 127.48 130.812 130.07 127.572 131.62C126.192 134.44 124.092 136.54 121.312 137.86C118.992 142.63 114.722 145.27 108.592 145.72C108.552 145.72 108.522 145.72 108.482 145.72H107.121C102.701 145.72 98.6915 144.19 95.1815 141.18C92.2315 138.64 90.2114 135.15 89.1614 130.79C88.8214 129.14 88.5614 124.72 88.3914 117.28C87.0814 118.99 85.4415 120.37 83.5115 121.38C83.2215 121.94 82.9214 122.44 82.6114 122.89C80.3314 126.2 77.0015 128.34 72.7015 129.24C72.2415 129.36 71.5414 129.47 70.6314 129.56C70.2314 129.6 69.8214 129.62 69.4014 129.62C64.5614 129.62 58.9415 127.11 52.2015 121.94L51.9715 121.77C50.7515 123.24 49.2315 124.49 47.4415 125.5C44.5115 130.91 38.6716 134.07 30.0616 134.89L29.0516 134.99C27.8716 135.07 26.8016 135.12 25.8416 135.12C23.9216 135.12 22.3616 134.96 21.0816 134.64C19.1116 134.14 17.1114 133.02 15.1314 131.31C12.6614 129.27 11.0015 127.19 10.2115 125.13C8.98148 122.09 7.28156 112.67 5.04156 96.3401C4.80156 94.6201 4.41141 91.7402 3.88141 87.7002L3.86139 87.5302C2.97139 81.3602 2.3415 76.2802 1.9815 72.5002C1.6615 69.1602 1.56144 65.5901 1.67144 61.9001C1.83144 56.9201 2.34152 53.1802 3.25152 50.4402C4.20152 47.5602 5.72153 45.3802 7.76153 43.9702C8.30153 43.5602 9.13152 43.0101 10.2515 42.3401C11.1915 40.3501 12.4515 38.8102 13.9915 37.7402C14.5415 37.3202 15.3715 36.7802 16.4815 36.1102C17.4215 34.1202 18.6815 32.5802 20.2215 31.5102C21.3715 30.6302 23.5714 29.3102 26.9114 27.5102C30.2414 25.7102 32.4316 24.6302 33.6016 24.2002C33.6516 24.1802 33.6915 24.1702 33.7415 24.1602C34.1115 24.0602 35.1516 23.8702 40.0716 23.2002L41.0316 23.1102C43.0016 22.9202 45.0015 22.8302 46.9915 22.8302C51.5415 22.8302 56.1816 23.3302 60.7816 24.3102C67.4416 25.7402 72.9414 27.9602 77.1514 30.9402C78.8914 32.1602 80.9016 34.1702 83.2816 37.0702C85.6116 39.9202 87.3816 42.5002 88.5316 44.7402C89.7516 47.1702 90.6114 50.7902 91.1614 55.8102C91.1714 55.9602 91.1915 56.1002 91.2015 56.2402C91.6415 55.7002 92.1314 55.1802 92.6614 54.6802C93.6114 53.8002 94.6816 53.0301 95.8516 52.4001C96.5816 50.9701 97.6014 49.6402 98.8914 48.4502C99.8614 47.5502 100.961 46.7702 102.161 46.1202C102.911 44.6502 103.911 43.3402 105.121 42.2202C107.261 40.2402 109.961 38.8702 113.141 38.1302C115.021 37.7202 116.561 37.5302 117.881 37.5302C119.911 37.5302 122.162 37.9402 124.572 38.7402C128.382 39.9602 131.402 42.0402 133.552 44.9202C133.932 45.4302 134.301 45.9902 134.651 46.6102C134.951 46.4302 135.252 46.2602 135.562 46.1102C136.262 44.4702 137.391 43.0102 138.921 41.7302C139.791 41.0002 140.762 40.3802 141.802 39.8702C142.512 38.2302 143.631 36.7702 145.161 35.5002C147.431 33.6202 150.092 32.4902 153.072 32.1702C153.592 32.1102 154.111 32.0901 154.621 32.0901C158.301 32.0901 161.892 33.5502 165.312 36.4202C168.082 38.7502 171.231 42.4202 174.711 47.3502C175.521 45.9902 176.411 44.7802 177.361 43.7302C179.091 41.7202 180.642 40.3102 182.072 39.4302C182.562 38.7402 183.072 38.0902 183.582 37.5102C185.402 35.4502 186.902 34.0702 188.262 33.2202C188.772 32.5102 189.292 31.8502 189.822 31.2602C191.902 28.8502 193.731 27.2802 195.371 26.4902C196.321 26.0302 197.561 25.7102 199.171 25.5302C200.141 25.4202 201.081 25.3702 201.951 25.3702C204.031 25.3702 205.851 25.6802 207.361 26.2902C209.161 27.0002 211.052 28.2101 212.982 29.9001C214.962 31.6401 216.261 33.2202 216.951 34.7202C217.431 35.8602 217.782 37.2302 218.022 38.8802C218.082 38.8002 218.141 38.7201 218.191 38.6501C219.581 36.8601 221.222 35.5602 223.072 34.7902C223.562 33.7402 224.001 32.9602 224.421 32.4202C225.811 30.6302 227.452 29.3302 229.302 28.5602C229.792 27.5102 230.231 26.7302 230.651 26.1902C232.351 23.9902 234.381 22.5402 236.691 21.8902C238.811 21.2902 243.371 20.7502 250.651 20.2602C250.681 20.2602 250.802 20.2502 250.842 20.2502C251.262 20.2502 252.522 20.3301 258.572 21.0201L263.852 21.6202C273.542 22.8802 281.602 24.9301 287.832 27.7101C288.722 28.0901 289.562 28.5101 290.332 28.9601C290.372 28.8801 290.411 28.8002 290.461 28.7202C291.841 26.1702 293.931 24.1502 296.681 22.7402C299.131 21.5602 301.122 20.9902 302.792 20.9902C302.962 20.9902 303.292 21.0102 303.772 21.0502C304.132 21.0802 304.451 21.1002 304.711 21.1002C304.741 21.1002 304.782 21.1002 304.812 21.1002C309.542 21.4302 313.552 23.2501 316.742 26.5201C319.952 29.8101 322.211 34.9002 323.471 41.6402C324.691 48.1802 325.302 57.9302 325.302 70.6102C325.302 74.9302 325.341 77.6702 325.411 78.7502C327.971 78.1202 331.341 77.8102 335.671 77.8102C336.991 77.8102 338.452 77.8902 340.002 78.0402C340.822 78.1602 341.601 78.3001 342.361 78.4601C342.361 73.9101 342.541 68.9402 342.911 63.6702C343.061 61.5002 343.382 58.0302 343.852 53.3802C344.972 43.8502 346.001 36.7101 346.931 32.1501C347.891 27.3901 349.101 23.9101 350.611 21.5201C351.941 19.4301 353.801 17.7502 356.141 16.5302C356.381 16.0602 356.612 15.6502 356.852 15.2802C358.202 13.1502 360.061 11.4702 362.391 10.2802C362.631 9.82015 362.862 9.41017 363.092 9.05017C364.652 6.60017 366.882 4.73019 369.721 3.51019C371.982 2.60019 373.831 2.17017 375.391 2.17017C375.581 2.17017 375.761 2.18019 375.931 2.19019C376.111 2.20019 376.431 2.25019 376.911 2.32019C377.271 2.38019 377.582 2.42019 377.842 2.44019C377.872 2.44019 377.911 2.4502 377.941 2.4502C382.631 3.1102 386.511 5.20019 389.461 8.69019C392.431 12.2002 394.341 17.4302 395.121 24.2402C395.881 30.8502 395.821 40.6101 394.941 53.2701C394.641 57.5901 394.482 60.3201 394.482 61.4001C396.042 61.1301 397.922 60.9902 400.072 60.9902C401.502 60.9902 403.082 61.0502 404.782 61.1702C406.092 61.2602 407.542 61.4402 409.082 61.7002C410.032 61.9102 410.952 62.1502 411.842 62.4202C411.842 61.0202 411.851 60.0302 411.881 59.4502C412.131 55.1702 412.721 50.5002 413.651 45.5502C414.621 40.3502 415.501 37.2001 416.421 35.6501C417.831 33.2601 419.671 31.5702 421.871 30.6302C421.951 30.6002 422.031 30.5602 422.121 30.5302C422.301 30.0902 422.481 29.7302 422.661 29.4202C424.071 27.0302 425.911 25.3401 428.111 24.4001C428.191 24.3701 428.271 24.3302 428.361 24.3002C428.541 23.8602 428.721 23.5002 428.901 23.1902C430.311 20.8002 432.142 19.1102 434.352 18.1702C436.372 17.3102 440.842 16.2002 448.002 14.8002C448.242 14.7502 448.691 14.6502 455.951 14.5602L461.262 14.4902C471.032 14.5202 479.282 15.5401 485.822 17.5201C488.272 18.2201 490.132 19.0802 491.482 20.1402C492.832 21.2002 494.091 22.7902 495.361 24.9902C496.631 27.1302 497.302 29.4702 497.332 31.9102C497.382 36.1202 495.821 40.0502 492.691 43.6002C491.521 44.9702 490.402 45.9102 489.272 46.4702C489.112 46.5502 488.932 46.6302 488.742 46.7002C488.092 47.8002 487.321 48.8502 486.451 49.8302C485.791 50.6002 485.142 51.2402 484.502 51.7502C484.762 51.9902 485.022 52.2501 485.282 52.5201C486.682 54.0101 487.671 55.5902 488.211 57.2202C489.191 60.2002 489.712 62.9301 489.742 65.3401C489.792 69.3801 488.491 72.6601 485.871 75.0901C484.711 76.1801 483.502 77.0602 482.282 77.7002C481.672 78.9902 480.852 80.1502 479.812 81.1602C480.862 81.0602 481.782 81.0102 482.562 81.0002H482.832C487.202 81.0002 490.661 82.3802 493.121 85.1002C494.071 86.1702 494.902 87.3601 495.602 88.6501C496.032 88.3801 496.481 88.1302 496.941 87.9102C495.971 86.4402 495.182 85.0602 494.532 83.7202C491.762 78.0002 491.002 72.0302 492.272 65.9802C493.412 60.5202 496.591 55.9002 501.721 52.2402C503.301 49.9302 505.401 47.8302 507.951 46.0102C509.621 43.5702 511.832 41.3902 514.552 39.5102C517.642 37.3602 520.742 35.8301 523.752 34.9601C526.661 34.1201 530.241 33.7002 534.371 33.7002H534.992C536.732 33.7002 539.081 34.0202 542.191 34.6702C546.871 35.6502 550.641 36.8902 553.391 38.3502C559.281 41.5002 564.071 46.0202 567.651 51.8002C571.241 57.6002 572.941 63.6702 572.701 69.8202C572.661 71.1902 572.522 72.4201 572.312 73.4601C571.662 76.5801 570.031 79.0102 567.461 80.6802C566.821 81.1002 566.151 81.4501 565.471 81.7101C564.721 83.6101 563.541 85.1902 561.921 86.4202C562.471 87.1002 562.961 87.7502 563.391 88.3602C565.441 91.2902 566.951 94.5902 567.891 98.1602C569.181 103.09 569.371 107.87 568.431 112.35C568.221 113.33 568.032 114.03 567.842 114.48C567.122 116.31 565.781 118.46 563.742 121.01C561.742 123.5 559.802 125.47 557.982 126.86C557.862 126.95 557.731 127.04 557.611 127.12L557.602 127.13C557.572 127.17 557.542 127.2 557.512 127.24C555.522 129.73 553.582 131.7 551.752 133.09C551.632 133.18 551.501 133.27 551.381 133.35L551.361 133.36L551.292 133.46C549.292 135.96 547.352 137.93 545.522 139.32C540.932 142.79 535.241 144.93 528.621 145.7C527.831 145.75 526.992 145.79 526.102 145.79ZM86.2015 75.2502C86.8215 76.1102 87.4616 77.0202 88.1016 77.9702C88.1016 75.2102 88.1214 72.9202 88.1414 71.0302C87.7814 71.5302 87.4015 72.0402 86.9815 72.5602L85.5616 74.3602L86.2015 75.2502Z" fill="white"/>
<path d="M375.371 3.66016C375.521 3.66016 375.671 3.67017 375.811 3.67017C375.961 3.68017 376.241 3.72016 376.651 3.79016C377.061 3.86016 377.411 3.90017 377.721 3.92017C382.061 4.52017 385.591 6.4302 388.311 9.6402C391.101 12.9302 392.871 17.8502 393.621 24.3902C394.371 30.9402 394.311 40.5202 393.431 53.1402C393.121 57.5702 392.971 60.3402 392.971 61.4302C392.971 62.5302 393.151 63.0902 393.531 63.1102L393.641 63.1202C393.711 63.0602 393.791 63.0201 393.861 63.0201C393.871 63.0201 393.871 63.0201 393.881 63.0201C395.501 62.6501 397.561 62.4601 400.061 62.4601C401.461 62.4601 402.991 62.5202 404.661 62.6302C405.941 62.7202 407.321 62.8901 408.811 63.1501C410.451 63.5101 411.951 63.9702 413.331 64.5102C413.311 61.9902 413.331 60.3102 413.361 59.4902C413.611 55.2702 414.191 50.7102 415.111 45.8002C416.021 40.8902 416.891 37.7502 417.701 36.3902C418.951 34.2702 420.541 32.7902 422.451 31.9802C422.681 31.8802 422.961 31.7802 423.271 31.6702C423.501 31.0402 423.721 30.5302 423.941 30.1602C425.191 28.0402 426.781 26.5602 428.691 25.7502C428.921 25.6502 429.201 25.5502 429.511 25.4402C429.741 24.8102 429.961 24.3002 430.181 23.9302C431.431 21.8102 433.021 20.3301 434.931 19.5201C436.841 18.7001 441.291 17.6102 448.281 16.2402C448.651 16.1602 451.221 16.0902 455.961 16.0302L461.271 15.9601C470.911 15.9901 478.951 16.9802 485.371 18.9302C487.641 19.5802 489.361 20.3702 490.541 21.2902C491.721 22.2202 492.891 23.6901 494.041 25.7101C495.201 27.6501 495.791 29.7201 495.821 31.9001C495.871 35.7401 494.451 39.3002 491.551 42.5802C490.511 43.8002 489.521 44.6402 488.591 45.1002C488.341 45.2302 488.041 45.3302 487.711 45.4302C487.071 46.5902 486.281 47.7202 485.321 48.8102C484.281 50.0302 483.291 50.8702 482.361 51.3302C482.191 51.4102 481.981 51.4802 481.781 51.5402C482.581 52.0302 483.381 52.6702 484.181 53.5102C485.441 54.8502 486.311 56.2302 486.781 57.6602C487.721 60.5102 488.211 63.0602 488.231 65.3202C488.281 68.9402 487.141 71.8102 484.841 73.9502C483.601 75.1102 482.361 75.9702 481.121 76.5602C480.551 77.9402 479.721 79.1502 478.611 80.1802C477.371 81.3302 476.131 82.2002 474.891 82.7902C474.821 82.9602 474.731 83.1302 474.651 83.3002C478.091 82.7602 480.741 82.4802 482.581 82.4502C482.671 82.4502 482.751 82.4502 482.831 82.4502C486.771 82.4502 489.831 83.6502 492.001 86.0602C493.271 87.4902 494.271 89.1101 495.031 90.9001C495.961 90.0801 497.051 89.4102 498.301 88.9102C498.441 88.5602 498.601 88.2201 498.761 87.9001C497.621 86.2501 496.651 84.6301 495.871 83.0302C493.241 77.5901 492.531 72.0002 493.731 66.2502C494.821 61.0602 497.841 56.7401 502.801 53.2701C504.341 50.9501 506.411 48.8702 509.031 47.0402C510.601 44.6802 512.711 42.5701 515.401 40.7101C518.371 38.6401 521.291 37.1902 524.161 36.3702C526.951 35.5702 530.361 35.1702 534.371 35.1702C534.481 35.1702 534.581 35.1702 534.691 35.1702C534.791 35.1702 534.891 35.1702 535.001 35.1702C536.611 35.1702 538.911 35.4802 541.891 36.1002C546.461 37.0602 550.061 38.2402 552.691 39.6302C558.361 42.6702 562.931 46.9702 566.381 52.5402C569.831 58.1102 571.441 63.8401 571.211 69.7101C571.171 71.0101 571.051 72.1402 570.851 73.1002C570.281 75.8302 568.881 77.9202 566.651 79.3802C565.881 79.8802 565.101 80.2402 564.311 80.4802C563.621 82.6502 562.321 84.3702 560.421 85.6102C560.181 85.7702 559.931 85.8901 559.691 86.0201C560.661 87.1501 561.501 88.2002 562.181 89.1702C564.131 91.9702 565.561 95.0702 566.461 98.4902C567.701 103.21 567.871 107.71 566.981 111.99C566.791 112.87 566.631 113.49 566.481 113.85C565.811 115.56 564.521 117.61 562.591 120.02C560.661 122.43 558.831 124.29 557.091 125.62C556.921 125.75 556.731 125.86 556.561 125.99C556.491 126.08 556.431 126.16 556.361 126.25C554.431 128.66 552.601 130.52 550.861 131.85C550.691 131.98 550.501 132.09 550.331 132.22C550.261 132.31 550.201 132.39 550.131 132.48C548.201 134.89 546.371 136.75 544.631 138.08C540.241 141.39 534.851 143.42 528.461 144.16C527.761 144.24 526.991 144.28 526.151 144.28C523.311 144.28 519.661 143.82 515.221 142.89L512.341 142.29C508.361 141.46 505.271 140.39 503.081 139.08C498.751 136.63 495.061 133.46 492.031 129.55C489.001 125.64 486.921 121.42 485.801 116.87C485.681 116.41 485.591 115.95 485.491 115.5C484.891 115.9 484.241 116.27 483.541 116.61C483.431 116.9 483.321 117.2 483.191 117.46C481.791 120.19 479.241 122.24 475.531 123.6C471.821 124.96 466.091 125.89 458.331 126.36C454.721 126.56 452.011 126.67 450.201 126.69C449.471 126.7 448.751 126.7 448.041 126.7C437.441 126.7 429.931 125.63 425.521 123.5C421.121 121.37 418.181 117.81 416.681 112.82C415.811 109.91 415.111 105.39 414.581 99.2802C414.101 99.9602 413.601 100.61 413.031 101.19C412.001 102.24 410.751 103.15 409.321 103.92C408.621 105.24 407.791 106.41 406.801 107.42C403.911 110.35 399.461 112.21 393.441 113C392.541 113.1 391.341 113.16 389.821 113.16C387.221 113.16 383.721 113.01 379.301 112.7C366.601 111.82 358.481 110.76 354.941 109.53C354.441 109.38 353.991 109.22 353.541 109.05C353.211 109.55 352.861 110.04 352.471 110.49C351.321 111.84 349.841 113 348.071 113.99C347.551 114.98 346.941 115.9 346.231 116.72C345.071 118.07 343.591 119.23 341.821 120.22C341.301 121.21 340.701 122.13 339.991 122.95C337.321 126.07 333.001 128.24 327.051 129.45C324.641 129.9 319.931 130.13 312.931 130.13C300.201 130.13 292.031 129.64 288.411 128.66C285.621 128.06 283.501 127.1 282.031 125.78C281.121 124.96 280.381 123.91 279.771 122.67C278.601 124.08 277.081 125.21 275.161 126.04C274.881 126.84 274.541 127.56 274.121 128.18C272.391 130.71 269.601 132.42 265.751 133.31C263.291 133.88 260.021 134.16 255.971 134.16C253.681 134.16 251.141 134.07 248.351 133.89C244.741 133.63 242.041 133.4 240.241 133.2C228.571 131.87 220.541 129.78 216.161 126.94C212.061 124.27 209.591 120.37 208.731 115.24C207.951 110.59 208.081 102.13 209.101 89.8802C206.891 97.7002 204.851 103.43 202.981 107.04C201.151 110.42 199.251 112.94 197.271 114.6C196.621 115.15 195.881 115.62 195.101 116.07C193.791 118.08 192.421 119.67 191.041 120.83C190.381 121.38 189.631 121.86 188.851 122.31C187.541 124.31 186.201 125.9 184.811 127.06C182.831 128.72 180.291 129.9 177.191 130.62C176.671 130.75 175.971 130.87 175.071 130.97C174.541 131.03 174.011 131.06 173.491 131.06C170.211 131.06 167.171 129.9 164.361 127.6C162.531 126.06 160.561 123.7 158.471 120.52C156.381 117.34 152.851 111.36 147.871 102.59C143.611 95.0702 140.111 88.4102 137.351 82.5802C137.141 88.8102 136.751 95.3301 136.201 102.15C135.301 113.3 134.241 120.38 133.041 123.39C131.791 126.78 129.581 129.13 126.451 130.47C125.151 133.41 123.061 135.49 120.191 136.71C118.181 141.27 114.291 143.79 108.481 144.21H107.121C103.051 144.21 99.4013 142.81 96.1613 140.03C93.4513 137.69 91.6012 134.49 90.6212 130.43C90.2512 128.67 89.9814 122.98 89.8214 113.38C89.4414 113.61 89.0513 113.83 88.6413 114.03C88.3412 114.64 88.0112 115.24 87.6212 115.8C86.2812 117.75 84.5413 119.23 82.4113 120.26C82.1113 120.87 81.7812 121.47 81.3913 122.03C79.3313 125.02 76.3313 126.94 72.4013 127.76C71.9613 127.88 71.3214 127.98 70.5014 128.05C70.1414 128.08 69.7813 128.1 69.4113 128.1C64.9513 128.1 59.5312 125.64 53.1212 120.73C52.5912 120.34 52.1113 119.99 51.6713 119.66C50.3713 121.6 48.5914 123.18 46.3314 124.38C43.7114 129.58 38.2513 132.58 29.9313 133.37L28.9213 133.47C27.8113 133.55 26.7815 133.59 25.8515 133.59C24.0715 133.59 22.6013 133.45 21.4613 133.16C19.7213 132.72 17.9412 131.72 16.1212 130.15C13.8212 128.25 12.3212 126.39 11.6212 124.56C10.4412 121.65 8.74139 112.16 6.53139 96.1002C6.29139 94.3802 5.90123 91.5102 5.37123 87.4702L5.36122 87.3602C4.46122 81.0902 3.83134 76.0802 3.48134 72.3302C3.17134 69.0302 3.06128 65.5602 3.17128 61.9202C3.32128 57.1402 3.82128 53.4602 4.67128 50.8802C5.52128 48.3002 6.84122 46.4002 8.61122 45.1702C9.23122 44.7002 10.1713 44.0902 11.4213 43.3502C12.2513 41.4302 13.3814 39.9402 14.8414 38.9302C15.4614 38.4602 16.4013 37.8502 17.6513 37.1102C18.4813 35.1902 19.6114 33.7002 21.0714 32.7002C22.2014 31.8402 24.3812 30.5302 27.6212 28.7902C30.8612 27.0502 33.0312 25.9702 34.1212 25.5602C34.5612 25.4402 36.6114 25.1402 40.2714 24.6302L41.1713 24.5402C43.1013 24.3602 45.0413 24.2602 46.9813 24.2602C51.4413 24.2602 55.9413 24.7401 60.4613 25.7101C66.9513 27.1001 72.2214 29.2301 76.2714 32.0901C77.8914 33.2201 79.8315 35.1802 82.1015 37.9502C84.3715 40.7202 86.0613 43.1902 87.1713 45.3602C88.2913 47.6002 89.1113 51.1202 89.6513 55.9102C90.0413 60.0302 90.0014 63.0502 89.5414 64.9402C89.0814 66.8402 87.8314 69.0602 85.8014 71.5901L83.6713 74.2902L84.9713 76.1002C86.4713 78.1702 88.0114 80.4902 89.5814 83.0402C89.5814 82.3002 89.5814 81.5602 89.5814 80.8002C89.5814 69.7302 89.6913 63.5102 89.9213 62.1602C90.4413 59.6702 91.6913 57.5302 93.6513 55.7202C94.6313 54.8202 95.7313 54.0502 96.9613 53.4302C97.6313 51.9702 98.6213 50.6602 99.8913 49.4902C100.891 48.5702 102.021 47.7902 103.271 47.1602C103.941 45.7302 104.861 44.4102 106.121 43.2602C108.081 41.4502 110.531 40.2102 113.461 39.5302C115.191 39.1502 116.661 38.9702 117.871 38.9702C119.751 38.9702 121.831 39.3502 124.091 40.1002C127.631 41.2302 130.381 43.1102 132.341 45.7502C132.981 46.6102 133.561 47.6102 134.101 48.7202C134.931 48.0902 135.801 47.5502 136.731 47.1402C137.311 45.5102 138.361 44.0702 139.871 42.8202C140.831 42.0202 141.861 41.4002 142.961 40.9102C143.541 39.2802 144.591 37.8401 146.101 36.5901C148.151 34.8901 150.521 33.8902 153.221 33.6002C153.681 33.5502 154.151 33.5201 154.611 33.5201C157.941 33.5201 161.181 34.8502 164.331 37.5002C167.381 40.0702 170.891 44.3002 174.851 50.1602C175.891 48.0202 177.081 46.1902 178.451 44.6802C180.201 42.6502 181.751 41.2602 183.091 40.5002C183.601 39.7702 184.131 39.0802 184.681 38.4502C186.441 36.4602 187.951 35.0602 189.281 34.2902C189.801 33.5502 190.341 32.8502 190.911 32.2202C192.861 29.9602 194.551 28.4902 195.991 27.8002C196.781 27.4102 197.891 27.1402 199.311 26.9802C200.241 26.8802 201.111 26.8302 201.931 26.8302C203.831 26.8302 205.441 27.1002 206.771 27.6402C208.431 28.2902 210.161 29.4102 211.971 30.9902C213.771 32.5702 214.971 34.0102 215.571 35.3102C216.081 36.5402 216.451 38.2102 216.681 40.3002C216.831 41.6902 216.931 43.1002 216.981 44.5402C217.901 42.0702 218.691 40.3801 219.361 39.5302C220.751 37.7302 222.361 36.5502 224.171 35.9202C224.691 34.7202 225.171 33.8302 225.591 33.2902C226.981 31.4902 228.591 30.3102 230.401 29.6802C230.921 28.4802 231.401 27.5902 231.821 27.0502C233.331 25.1002 235.091 23.8401 237.081 23.2701C239.081 22.7001 243.631 22.1802 250.731 21.7002C250.751 21.7002 250.781 21.7002 250.821 21.7002C251.411 21.7002 253.931 21.9501 258.381 22.4601L263.661 23.0602C273.221 24.3002 281.071 26.2902 287.201 29.0302C288.441 29.5602 289.481 30.1202 290.361 30.7002C290.621 30.5502 290.851 30.3802 291.121 30.2502C291.221 30.2002 291.301 30.1702 291.391 30.1302C291.511 29.8702 291.631 29.6202 291.761 29.3902C293.001 27.0902 294.871 25.3101 297.351 24.0201C299.531 22.9701 301.341 22.4402 302.771 22.4402C302.921 22.4402 303.201 22.4602 303.621 22.5002C304.031 22.5402 304.391 22.5602 304.691 22.5602C309.061 22.8602 312.711 24.5202 315.651 27.5302C318.661 30.6202 320.771 35.4002 321.981 41.8802C323.181 48.3602 323.791 57.9202 323.791 70.5802C323.791 75.0202 323.831 77.7902 323.901 78.8802C323.971 79.9702 324.201 80.5201 324.581 80.5201H324.691C324.761 80.4501 324.841 80.4102 324.921 80.4102C327.411 79.6602 330.981 79.2802 335.651 79.2802C336.931 79.2802 338.321 79.3602 339.831 79.5102C341.261 79.7202 342.601 80.0102 343.851 80.3702C343.791 75.3202 343.961 69.7902 344.381 63.7602C344.531 61.5802 344.841 58.1701 345.321 53.5201C346.431 44.0101 347.451 36.9802 348.371 32.4402C349.291 27.9002 350.451 24.5302 351.851 22.3202C353.141 20.2902 354.951 18.7501 357.231 17.6501C357.501 17.0801 357.781 16.5601 358.081 16.0901C359.371 14.0601 361.171 12.4902 363.471 11.4102C363.741 10.8502 364.021 10.3202 364.321 9.86017C365.721 7.66017 367.701 6.0002 370.271 4.8902C372.321 4.0702 374.011 3.66016 375.371 3.66016ZM270.841 91.5201C271.121 91.5201 271.391 91.5201 271.661 91.5201C272.871 91.5201 273.931 91.5502 274.861 91.6002C274.831 90.6602 274.801 89.7102 274.781 88.7402C274.391 89.1202 273.991 89.4902 273.531 89.8102C272.641 90.4502 271.771 90.9602 270.911 91.3702C270.891 91.4202 270.861 91.4701 270.841 91.5201ZM375.371 0.660156C373.611 0.660156 371.581 1.13015 369.171 2.09015C369.151 2.10015 369.121 2.11018 369.101 2.12018C365.981 3.46018 363.521 5.52016 361.801 8.23016C361.621 8.51016 361.441 8.82016 361.261 9.16016C358.901 10.4502 356.981 12.2302 355.571 14.4702C355.391 14.7602 355.201 15.0702 355.021 15.4202C352.641 16.7402 350.731 18.5201 349.341 20.7101C347.731 23.2501 346.451 26.8901 345.451 31.8401C344.521 36.4401 343.481 43.6102 342.361 53.1702C341.881 57.8602 341.561 61.3402 341.411 63.5502C341.091 68.1602 340.911 72.5402 340.871 76.6302C340.681 76.6002 340.481 76.5702 340.281 76.5402C340.241 76.5302 340.191 76.5301 340.151 76.5201C338.551 76.3601 337.041 76.2802 335.671 76.2802C332.161 76.2802 329.241 76.4801 326.851 76.9001C326.821 75.6501 326.811 73.6801 326.811 70.5901C326.811 57.8201 326.181 47.9801 324.951 41.3401C323.641 34.3001 321.241 28.9502 317.821 25.4502C314.371 21.9102 310.031 19.9302 304.921 19.5802C304.851 19.5802 304.781 19.5702 304.711 19.5702C304.481 19.5702 304.221 19.5602 303.921 19.5302C303.361 19.4802 303.041 19.4601 302.791 19.4601C300.891 19.4601 298.691 20.0701 296.061 21.3401C296.041 21.3501 296.011 21.3602 295.991 21.3802C293.351 22.7402 291.261 24.6002 289.761 26.9302C289.321 26.7102 288.871 26.5002 288.401 26.3002C282.071 23.4702 273.871 21.3802 264.061 20.1102L258.741 19.5002C251.901 18.7202 251.181 18.7202 250.841 18.7202C250.701 18.7202 250.591 18.7302 250.511 18.7302C240.711 19.3902 237.691 20.0102 236.281 20.4102C233.661 21.1602 231.371 22.7802 229.471 25.2402C229.051 25.7802 228.631 26.4702 228.191 27.3802C226.321 28.2702 224.661 29.6402 223.241 31.4702C222.821 32.0102 222.411 32.7002 221.961 33.6102C220.861 34.1302 219.831 34.8202 218.881 35.6802C218.721 35.1402 218.551 34.6302 218.351 34.1702C218.341 34.1402 218.321 34.1002 218.311 34.0702C217.531 32.3702 216.111 30.6302 213.961 28.7502C211.901 26.9402 209.861 25.6402 207.881 24.8602C206.231 24.1902 204.221 23.8401 201.941 23.8401C201.021 23.8401 200.031 23.9002 199.001 24.0102C197.221 24.2002 195.801 24.5702 194.681 25.1202C192.881 25.9802 190.901 27.6602 188.671 30.2502C188.171 30.8102 187.671 31.4202 187.191 32.0802C185.771 33.0202 184.251 34.4302 182.441 36.4802C181.951 37.0302 181.471 37.6301 181.001 38.2802C179.521 39.2402 177.941 40.7001 176.201 42.7101C175.661 43.3101 175.131 43.9602 174.631 44.6602C171.571 40.4802 168.811 37.3802 166.261 35.2302C162.571 32.1202 158.641 30.5502 154.611 30.5502C154.041 30.5502 153.471 30.5802 152.901 30.6402C149.621 31.0002 146.691 32.2302 144.191 34.3102C142.641 35.6002 141.451 37.0802 140.651 38.7402C139.691 39.2602 138.791 39.8602 137.961 40.5502C136.671 41.6202 135.631 42.8202 134.861 44.1402C134.831 44.0902 134.791 44.0402 134.761 44.0002C132.421 40.8602 129.151 38.6002 125.021 37.2802C122.501 36.4402 120.091 36.0102 117.891 36.0102C116.461 36.0102 114.811 36.2202 112.851 36.6402C109.371 37.4402 106.441 38.9402 104.111 41.1002C102.881 42.2402 101.851 43.5502 101.051 45.0102C99.9014 45.6702 98.8312 46.4502 97.8812 47.3302C96.5812 48.5302 95.5313 49.8602 94.7413 51.2902C93.8813 51.7902 93.0714 52.3602 92.3114 52.9802C91.7314 49.1002 90.9312 46.1802 89.8812 44.0602C88.6512 41.6702 86.8813 39.0702 84.4513 36.1002C81.9813 33.0902 79.8814 30.9902 78.0114 29.6802C73.6514 26.6002 67.9615 24.2902 61.1015 22.8202C56.3915 21.8102 51.6513 21.3002 46.9913 21.3002C44.9613 21.3002 42.9113 21.4001 40.8913 21.5901L39.9913 21.6802C39.9513 21.6802 39.9112 21.6902 39.8712 21.6902C34.6412 22.4102 33.7712 22.5802 33.3612 22.6902C33.2612 22.7202 33.1714 22.7402 33.0814 22.7802C32.2914 23.0702 30.7213 23.7402 26.2013 26.1802C22.8413 27.9902 20.5814 29.3402 19.3014 30.3102C17.6814 31.4502 16.3414 33.0402 15.3214 35.0402C14.3714 35.6202 13.6314 36.1102 13.0714 36.5402C11.4514 37.6802 10.1114 39.2702 9.09145 41.2802C8.14145 41.8602 7.40145 42.3502 6.84145 42.7802C4.55145 44.3801 2.86143 46.8002 1.82143 49.9702C0.871426 52.8502 0.33128 56.7402 0.17128 61.8502C0.0612796 65.6102 0.171348 69.2402 0.491348 72.6402C0.851348 76.4302 1.49124 81.5102 2.38124 87.7402V87.7802C2.38124 87.8202 2.39125 87.8602 2.39125 87.8902C2.93125 91.9302 3.31141 94.8202 3.55141 96.5402C6.55141 118.37 8.00143 123.65 8.82143 125.69C9.72143 128.01 11.4713 130.22 14.1713 132.46C16.3213 134.31 18.5213 135.54 20.7113 136.09C22.1113 136.44 23.7914 136.61 25.8414 136.61C26.8414 136.61 27.9512 136.57 29.1312 136.48C29.1512 136.48 29.1813 136.48 29.2013 136.47L30.2113 136.37C39.1513 135.52 45.3214 132.23 48.5614 126.58C49.9114 125.78 51.1213 124.84 52.1713 123.78C58.8013 128.71 64.4513 131.11 69.4113 131.11C69.8713 131.11 70.3314 131.09 70.7814 131.05C71.7314 130.96 72.4814 130.84 73.0814 130.69C77.7414 129.69 81.3612 127.35 83.8612 123.74C84.1312 123.35 84.3812 122.94 84.6312 122.49C85.4712 122.02 86.2614 121.48 87.0014 120.88C87.2214 127.95 87.4913 130.09 87.6913 131.06C87.7013 131.09 87.7013 131.12 87.7113 131.15C88.8313 135.82 91.0213 139.58 94.2113 142.33C97.9913 145.59 102.341 147.24 107.131 147.24H108.491C108.561 147.24 108.641 147.24 108.711 147.23C116.601 146.65 120.501 142.64 122.431 139C125.151 137.6 127.251 135.5 128.691 132.75C132.051 131.01 134.451 128.24 135.841 124.48C137.161 121.14 138.261 113.92 139.191 102.41C139.421 99.6102 139.621 96.8402 139.791 94.1202C141.461 97.2702 143.281 100.6 145.261 104.09C150.321 113.02 153.821 118.94 155.961 122.19C158.231 125.64 160.341 128.17 162.421 129.92C165.791 132.69 169.501 134.09 173.481 134.09C174.111 134.09 174.751 134.05 175.391 133.98C176.411 133.87 177.231 133.73 177.891 133.57C181.431 132.75 184.401 131.34 186.731 129.39C188.181 128.18 189.601 126.56 190.961 124.58C191.731 124.11 192.381 123.65 192.971 123.16C194.451 121.92 195.881 120.3 197.231 118.33C197.991 117.86 198.631 117.41 199.211 116.93C201.371 115.13 203.351 112.58 205.271 109.16C205.331 111.83 205.501 114.02 205.791 115.77C206.781 121.74 209.731 126.36 214.541 129.49C219.361 132.62 227.661 134.83 239.911 136.22C241.731 136.43 244.431 136.66 248.141 136.93C251.011 137.12 253.641 137.21 255.981 137.21C260.301 137.21 263.721 136.91 266.441 136.28C271.031 135.22 274.461 133.08 276.621 129.92C276.961 129.42 277.261 128.89 277.531 128.3C278.131 127.99 278.701 127.64 279.241 127.26C279.501 127.55 279.771 127.82 280.051 128.07C281.891 129.72 284.471 130.92 287.731 131.63C291.671 132.67 299.931 133.18 312.951 133.18C320.211 133.18 325.011 132.94 327.631 132.45C334.271 131.1 339.191 128.59 342.291 124.96C342.941 124.2 343.541 123.36 344.071 122.45C345.841 121.37 347.341 120.12 348.531 118.73C349.181 117.97 349.781 117.13 350.311 116.22C352.021 115.17 353.471 113.97 354.641 112.64C358.721 113.87 366.741 114.89 379.101 115.75C383.561 116.06 387.171 116.22 389.831 116.22C391.471 116.22 392.771 116.16 393.791 116.04C400.501 115.16 405.591 112.99 408.941 109.58C409.911 108.59 410.781 107.45 411.531 106.17C411.781 106.02 412.021 105.87 412.251 105.72C412.691 109.07 413.211 111.72 413.811 113.74C415.551 119.54 419.051 123.75 424.211 126.25C429.081 128.6 436.871 129.75 448.031 129.75C448.751 129.75 449.481 129.75 450.221 129.74C452.061 129.72 454.761 129.61 458.481 129.41C466.621 128.91 472.521 127.95 476.551 126.47C479.751 125.29 482.271 123.63 484.081 121.51C485.391 125.01 487.251 128.33 489.661 131.43C492.911 135.62 496.921 139.08 501.571 141.72C504.071 143.2 507.391 144.36 511.711 145.27L514.591 145.87C519.211 146.84 523.091 147.33 526.131 147.33C527.081 147.33 527.971 147.28 528.791 147.19C535.691 146.39 541.621 144.15 546.421 140.53C548.371 139.05 550.321 137.07 552.401 134.48C552.481 134.42 552.571 134.36 552.651 134.3C554.601 132.82 556.551 130.84 558.631 128.25C558.711 128.19 558.801 128.13 558.881 128.07C560.841 126.57 562.811 124.58 564.921 121.95C567.051 119.3 568.461 117.03 569.251 115.03C569.481 114.48 569.691 113.73 569.911 112.66C570.901 107.95 570.711 102.94 569.361 97.7802C568.371 94.0302 566.791 90.5702 564.641 87.5002C564.441 87.2202 564.231 86.9202 564.001 86.6202C565.111 85.5402 565.991 84.2802 566.631 82.8502C567.201 82.5902 567.751 82.2902 568.291 81.9302C571.201 80.0302 573.051 77.2802 573.791 73.7602C574.031 72.6202 574.171 71.3502 574.211 69.8502C574.461 63.4102 572.691 57.0702 568.931 51.0002C565.221 45.0002 560.231 40.3001 554.111 37.0201C551.191 35.4701 547.401 34.2202 542.511 33.2002C539.311 32.5302 536.851 32.2002 535.011 32.2002C534.891 32.2002 534.781 32.2002 534.671 32.2002H534.391C530.111 32.2002 526.401 32.6401 523.351 33.5201C520.181 34.4301 516.941 36.0302 513.711 38.2802C510.931 40.2001 508.631 42.4402 506.881 44.9402C504.361 46.7702 502.271 48.8602 500.651 51.1702C495.811 54.6802 492.641 59.0302 491.191 64.1302C491.031 61.8802 490.511 59.4102 489.641 56.7602C489.071 55.0402 488.081 53.3802 486.681 51.8202C486.991 51.5002 487.311 51.1602 487.621 50.7902C488.411 49.8902 489.141 48.9201 489.781 47.9001C489.841 47.8701 489.891 47.8502 489.941 47.8202C491.251 47.1702 492.521 46.1102 493.841 44.5802C497.221 40.7502 498.901 36.4801 498.841 31.9001C498.811 29.2001 498.071 26.6102 496.641 24.2202C495.301 21.8802 493.911 20.1502 492.411 18.9802C490.901 17.8002 488.881 16.8501 486.211 16.0901C479.581 14.0801 471.181 13.0402 461.291 13.0102L455.931 13.0802C448.521 13.1802 448.081 13.2702 447.661 13.3602C438.031 15.2502 435.111 16.2402 433.761 16.8102C431.261 17.8802 429.191 19.7801 427.611 22.4601C427.481 22.6801 427.361 22.9102 427.231 23.1802C424.861 24.2702 422.891 26.1202 421.381 28.6902C421.251 28.9002 421.131 29.1402 421.001 29.4102C418.631 30.5002 416.661 32.3502 415.151 34.9202C414.511 35.9902 413.511 38.2402 412.191 45.3102C411.251 50.3202 410.651 55.0502 410.401 59.3802C410.391 59.6702 410.381 60.0402 410.371 60.4902C410.081 60.4202 409.781 60.3502 409.481 60.2902C409.441 60.2802 409.391 60.2702 409.351 60.2602C407.761 59.9902 406.271 59.8001 404.901 59.7101C403.171 59.5901 401.551 59.5302 400.091 59.5302C398.611 59.5302 397.271 59.5901 396.061 59.7101C396.121 58.4601 396.241 56.4902 396.461 53.4102C397.351 40.6602 397.411 30.8102 396.641 24.1102C395.821 17.0002 393.801 11.5002 390.631 7.76019C387.431 3.99019 383.241 1.71019 378.171 1.01019C378.101 1.00019 378.031 0.990173 377.961 0.990173C377.741 0.970173 377.471 0.940198 377.171 0.890198C376.621 0.800198 376.301 0.760173 376.051 0.740173C375.811 0.670173 375.591 0.660156 375.371 0.660156ZM483.381 78.7602C484.571 78.0802 485.731 77.2101 486.861 76.1501C488.321 74.8001 489.421 73.2101 490.141 71.4001C490.111 75.0901 490.811 78.7201 492.231 82.2701C489.751 80.4301 486.651 79.4901 482.981 79.4601C483.131 79.2301 483.261 79.0002 483.381 78.7602Z" fill="black"/>
<path d="M130.511 63.4102C129.511 58.4402 128.062 54.6402 126.102 52.0002C124.142 49.3602 121.382 47.5002 117.852 46.3502C115.592 45.6102 113.521 45.2202 111.631 45.2202C110.431 45.2202 108.951 45.4002 107.221 45.7802C104.281 46.4402 101.831 47.7003 99.8813 49.5103C98.6113 50.6803 97.6214 52.0003 96.9514 53.4503C95.7314 54.0703 94.6214 54.8302 93.6414 55.7402C91.6814 57.5502 90.4414 59.6902 89.9114 62.1802C89.6814 63.5402 89.5715 69.7503 89.5715 80.8203C89.5715 110.65 89.9116 127.18 90.5916 130.42C91.5716 134.49 93.4113 137.69 96.1313 140.02C99.3713 142.81 103.022 144.2 107.092 144.2H108.451C114.261 143.77 118.141 141.26 120.161 136.7C123.301 135.36 125.521 133.01 126.781 129.61C127.981 126.6 129.041 119.52 129.941 108.37C130.841 97.2202 131.302 86.8702 131.302 77.3002C131.302 70.6002 131.031 65.9702 130.511 63.4102Z" fill="black" stroke="black" stroke-width="2" stroke-miterlimit="10" stroke-linecap="round" stroke-linejoin="round"/>
<path d="M210.461 46.5401C210.231 44.4401 209.881 42.7701 209.351 41.5501C208.781 40.2401 207.551 38.8101 205.751 37.2301C203.951 35.6501 202.211 34.5401 200.551 33.8801C198.641 33.1201 196.161 32.8801 193.091 33.2201C191.671 33.3801 190.561 33.6501 189.771 34.0401C188.331 34.7301 186.661 36.2201 184.691 38.4601C184.131 39.0901 183.601 39.7802 183.101 40.5102C181.761 41.2702 180.211 42.6601 178.461 44.6901C176.031 47.3801 174.121 51.0601 172.731 55.7201C172.211 57.4801 171.781 59.1001 171.401 60.6601C171.191 60.3301 170.981 60.0101 170.761 59.6501C165.911 52.0701 161.701 46.7802 158.111 43.7602C154.521 40.7402 150.821 39.4401 147.001 39.8601C144.301 40.1501 141.931 41.1501 139.881 42.8501C138.371 44.1001 137.321 45.5501 136.741 47.1701C135.641 47.6601 134.611 48.2802 133.651 49.0802C131.601 50.7802 130.401 52.8301 130.061 55.2101C129.761 57.3601 129.721 59.3402 129.911 61.1402C130.791 69.2302 136.781 83.0501 147.861 102.59C152.841 111.36 156.371 117.34 158.461 120.52C160.551 123.7 162.511 126.06 164.351 127.6C167.601 130.27 171.171 131.4 175.061 130.97C175.961 130.87 176.671 130.76 177.181 130.62C180.281 129.9 182.821 128.71 184.801 127.06C186.181 125.9 187.531 124.31 188.841 122.31C189.631 121.86 190.371 121.38 191.031 120.83C193.011 119.17 194.941 116.67 196.741 113.27C198.901 109.19 201.211 102.36 203.771 92.8401C206.331 83.3201 208.351 73.9301 209.841 64.6701C210.861 58.2001 211.071 52.1501 210.461 46.5401Z" fill="black" stroke="black" stroke-width="2" stroke-miterlimit="10" stroke-linecap="round" stroke-linejoin="round"/>
<path d="M333.611 85.7302C332.101 85.5802 330.711 85.5002 329.431 85.5002C324.761 85.5002 321.181 85.8802 318.701 86.6302C318.621 86.6302 318.551 86.6702 318.471 86.7402H318.361C317.981 86.7402 317.761 86.1902 317.681 85.1002C317.601 84.0102 317.572 81.2402 317.572 76.8002C317.572 64.1502 316.971 54.5802 315.761 48.1002C314.561 41.6202 312.451 36.8402 309.431 33.7502C306.491 30.7402 302.841 29.0802 298.471 28.7802C298.171 28.7802 297.811 28.7602 297.401 28.7202C296.981 28.6802 296.702 28.6602 296.552 28.6602C295.122 28.6602 293.301 29.1602 291.131 30.2402C288.631 31.4902 286.782 33.3102 285.542 35.6102C285.412 35.8402 285.291 36.1002 285.171 36.3602C285.081 36.4002 284.991 36.4302 284.901 36.4802C282.411 37.7602 280.552 39.5502 279.312 41.8502C278.072 44.1502 277.142 47.5902 276.542 52.1902C275.942 56.7902 275.411 63.8702 274.961 73.4302C274.811 78.1002 274.731 81.5301 274.731 83.7101C274.731 99.2301 276.092 111.39 278.802 120.2C279.482 122.61 280.551 124.47 282.021 125.79C283.491 127.11 285.611 128.07 288.401 128.67C292.021 129.65 300.191 130.14 312.921 130.14C319.931 130.14 324.632 129.91 327.042 129.46C332.992 128.25 337.301 126.09 339.981 122.96C340.681 122.14 341.292 121.22 341.812 120.23C343.582 119.24 345.061 118.08 346.221 116.73C348.891 113.6 350.271 109.26 350.231 103.68C350.141 93.3002 344.531 87.3202 333.611 85.7302Z" fill="black" stroke="black" stroke-width="2" stroke-miterlimit="10" stroke-linecap="round" stroke-linejoin="round"/>
<path d="M402.582 69.4001C401.092 69.1501 399.701 68.9702 398.431 68.8802C393.771 68.5602 390.181 68.6802 387.641 69.2602C387.561 69.2502 387.491 69.2901 387.411 69.3601L387.302 69.3501C386.922 69.3201 386.731 68.7601 386.741 67.6701C386.741 66.5801 386.891 63.8102 387.201 59.3802C388.081 46.7602 388.141 37.1702 387.391 30.6302C386.641 24.0802 384.872 19.1702 382.082 15.8802C379.362 12.6702 375.831 10.7601 371.491 10.1601C371.191 10.1401 370.831 10.1001 370.421 10.0301C370.011 9.96013 369.732 9.92014 369.582 9.91014C368.152 9.81014 366.302 10.1801 364.062 11.1101C361.482 12.1801 359.511 13.8702 358.111 16.0802C357.821 16.5402 357.532 17.0702 357.262 17.6402C354.982 18.7402 353.171 20.2802 351.881 22.3102C350.481 24.5202 349.321 27.8902 348.401 32.4302C347.481 36.9702 346.462 44.0002 345.352 53.5102C344.872 58.1602 344.561 61.5702 344.411 63.7502C343.331 79.2302 343.841 91.4602 345.931 100.44C346.441 102.89 347.382 104.82 348.752 106.24C350.122 107.66 352.181 108.76 354.921 109.56C358.461 110.79 366.582 111.84 379.282 112.73C386.272 113.22 390.981 113.32 393.421 113.03C399.441 112.24 403.892 110.38 406.782 107.45C407.772 106.44 408.602 105.27 409.302 103.95C410.742 103.17 411.982 102.27 413.012 101.22C415.892 98.2901 417.571 94.0401 417.921 88.4801C418.551 78.1002 413.362 71.7401 402.582 69.4001Z" fill="black" stroke="black" stroke-width="2" stroke-miterlimit="10" stroke-linecap="round" stroke-linejoin="round"/>
<path d="M485.741 92.3002C483.521 89.8402 480.381 88.6402 476.321 88.6902C474.291 88.7202 471.281 89.0801 467.291 89.7101C466.731 89.8001 466.201 89.8802 465.691 89.9502C466.271 89.8302 466.781 89.7102 467.191 89.5901C468.921 89.0801 470.632 88.0202 472.352 86.4202C473.472 85.3902 474.301 84.1802 474.871 82.8002C476.111 82.2102 477.351 81.3502 478.591 80.1902C480.891 78.0502 482.031 75.1702 481.981 71.5602C481.951 69.3002 481.471 66.7501 480.531 63.9001C480.061 62.4801 479.191 61.0902 477.931 59.7502C477.141 58.9102 476.341 58.2702 475.541 57.7902C475.741 57.7202 475.941 57.6502 476.111 57.5702C477.051 57.1102 478.031 56.2702 479.071 55.0502C480.041 53.9602 480.831 52.8302 481.461 51.6702C481.781 51.5802 482.081 51.4701 482.341 51.3401C483.281 50.8801 484.261 50.0402 485.301 48.8202C488.191 45.5402 489.621 41.9802 489.571 38.1402C489.541 35.9602 488.931 33.9002 487.791 31.9502C486.621 29.9402 485.471 28.4602 484.291 27.5302C483.111 26.6002 481.391 25.8202 479.121 25.1702C472.691 23.2202 464.661 22.2302 455.021 22.2002L449.711 22.2701C444.961 22.3301 442.401 22.4002 442.031 22.4802C435.041 23.8502 430.591 24.9402 428.681 25.7602C426.771 26.5802 425.191 28.0502 423.931 30.1702C423.711 30.5402 423.491 31.0502 423.261 31.6802C422.951 31.7902 422.681 31.8902 422.441 31.9902C420.531 32.8102 418.951 34.2801 417.691 36.4001C416.881 37.7701 416.012 40.9002 415.102 45.8102C414.182 50.7202 413.602 55.2802 413.352 59.5002C413.292 60.7802 413.301 64.1302 413.371 69.5602C413.451 75.8102 413.551 80.5202 413.661 83.6802C414.151 98.1402 415.141 107.86 416.641 112.85C418.131 117.84 421.081 121.4 425.481 123.53C430.181 125.8 438.401 126.87 450.151 126.72C451.961 126.7 454.671 126.59 458.281 126.39C466.031 125.91 471.761 124.99 475.481 123.63C479.191 122.26 481.741 120.22 483.141 117.49C483.281 117.22 483.381 116.93 483.491 116.64C486.241 115.31 488.211 113.53 489.371 111.26C490.101 109.82 490.461 107.97 490.431 105.71C490.361 100.19 488.801 95.7302 485.741 92.3002Z" fill="black" stroke="black" stroke-width="2" stroke-miterlimit="10" stroke-linecap="round" stroke-linejoin="round"/>
<path d="M113.471 39.5502C115.201 39.1702 116.671 38.9902 117.881 38.9902C119.761 38.9902 121.842 39.3702 124.102 40.1202C127.642 41.2502 130.392 43.1302 132.352 45.7702C134.312 48.4102 135.781 52.2102 136.761 57.1802C137.291 59.7402 137.552 64.3703 137.552 71.0803C137.552 80.6503 137.101 91.0002 136.191 102.15C135.291 113.3 134.231 120.38 133.031 123.39C131.151 128.51 127.121 131.3 120.941 131.75H119.582C115.512 131.75 111.861 130.36 108.621 127.57C105.911 125.23 104.062 122.03 103.082 117.97C102.402 114.73 102.062 98.2002 102.062 68.3702C102.062 57.3002 102.171 51.0802 102.401 49.7302C102.931 47.2402 104.171 45.1002 106.131 43.2902C108.091 41.4702 110.531 40.2302 113.471 39.5502Z" fill="white" stroke="black" stroke-width="2" stroke-miterlimit="10" stroke-linecap="round" stroke-linejoin="round"/>
<path d="M196.002 27.7903C196.792 27.4003 197.902 27.1303 199.322 26.9703C202.392 26.6303 204.882 26.8603 206.782 27.6303C208.442 28.2803 210.172 29.4003 211.982 30.9803C213.782 32.5603 214.982 34.0003 215.582 35.3003C216.092 36.5303 216.461 38.2003 216.691 40.2903C217.301 45.9103 217.092 51.9503 216.062 58.4303C214.572 67.6903 212.552 77.0803 209.992 86.6003C207.432 96.1303 205.092 102.93 202.962 107.03C201.132 110.41 199.232 112.93 197.252 114.59C195.272 116.24 192.731 117.43 189.631 118.15C189.111 118.28 188.412 118.4 187.512 118.5C183.622 118.93 180.052 117.8 176.802 115.12C174.962 113.58 173.001 111.22 170.911 108.04C168.821 104.86 165.292 98.8803 160.312 90.1103C149.232 70.5603 143.251 56.7403 142.361 48.6603C142.161 46.8603 142.212 44.8903 142.512 42.7303C142.852 40.3403 144.052 38.3003 146.102 36.6003C148.152 34.9003 150.522 33.9003 153.222 33.6103C157.042 33.1903 160.742 34.4903 164.332 37.5103C167.922 40.5303 172.132 45.8303 176.982 53.4003C179.822 57.8603 181.352 60.0803 181.572 60.0603C181.792 60.0403 182.112 58.3903 182.512 55.1303C182.912 51.8703 183.801 47.9003 185.191 43.2403C186.571 38.5803 188.481 34.9103 190.921 32.2103C192.871 29.9503 194.562 28.4803 196.002 27.7903Z" fill="#73C2AF" stroke="black" stroke-width="2" stroke-miterlimit="10" stroke-linecap="round" stroke-linejoin="round"/>
<path d="M297.361 24.0302C299.541 22.9802 301.351 22.4502 302.781 22.4502C302.931 22.4502 303.211 22.4702 303.631 22.5102C304.041 22.5502 304.401 22.5702 304.701 22.5702C309.071 22.8702 312.721 24.5302 315.661 27.5402C318.671 30.6302 320.781 35.4102 321.991 41.8902C323.191 48.3702 323.802 57.9301 323.802 70.5901C323.802 75.0301 323.841 77.8002 323.911 78.8902C323.981 79.9802 324.212 80.5302 324.592 80.5302H324.701C324.771 80.4602 324.851 80.4202 324.931 80.4202C327.421 79.6702 330.991 79.2902 335.661 79.2902C336.941 79.2902 338.332 79.3701 339.842 79.5201C350.762 81.1001 356.301 87.0902 356.451 97.4802C356.451 103.05 355.111 107.4 352.441 110.53C349.771 113.65 345.451 115.82 339.501 117.03C337.091 117.48 332.381 117.71 325.381 117.71C312.651 117.71 304.481 117.22 300.861 116.24C298.071 115.64 295.951 114.68 294.481 113.36C293.011 112.04 291.941 110.18 291.261 107.77C288.551 98.9601 287.191 86.7902 287.191 71.2802C287.191 69.1002 287.261 65.6702 287.421 61.0002C287.871 51.4402 288.401 44.3502 289.001 39.7602C289.601 35.1702 290.531 31.7202 291.771 29.4202C293.011 27.1002 294.881 25.3102 297.361 24.0302Z" fill="#73C2AF" stroke="black" stroke-width="2" stroke-miterlimit="10" stroke-linecap="round" stroke-linejoin="round"/>
<path d="M370.292 4.88005C372.542 3.98005 374.382 3.58004 375.812 3.68004C375.962 3.69004 376.241 3.73003 376.651 3.80003C377.061 3.87003 377.412 3.91004 377.722 3.93004C382.062 4.54004 385.592 6.44001 388.312 9.65001C391.102 12.94 392.871 17.86 393.621 24.4C394.371 30.95 394.312 40.53 393.431 53.15C393.121 57.58 392.972 60.35 392.972 61.44C392.972 62.54 393.152 63.1 393.532 63.12L393.641 63.1301C393.721 63.0601 393.801 63.03 393.871 63.03C396.401 62.45 400.001 62.32 404.661 62.65C405.941 62.74 407.322 62.91 408.812 63.17C419.592 65.51 424.701 71.86 424.131 82.24C423.741 87.8 422.112 92.05 419.222 94.98C416.332 97.91 411.881 99.77 405.861 100.56C403.421 100.84 398.712 100.74 391.722 100.26C379.022 99.3801 370.901 98.32 367.361 97.09C364.621 96.29 362.572 95.19 361.192 93.77C359.822 92.35 358.871 90.42 358.371 87.97C356.281 78.99 355.772 66.76 356.852 51.28C357.002 49.1 357.312 45.69 357.792 41.04C358.912 31.53 359.922 24.5 360.842 19.96C361.762 15.42 362.922 12.05 364.322 9.84001C365.732 7.64001 367.722 5.98005 370.292 4.88005Z" fill="white" stroke="black" stroke-width="2" stroke-miterlimit="10" stroke-linecap="round" stroke-linejoin="round"/>
<path d="M448.252 16.2402C448.622 16.1602 451.191 16.0902 455.931 16.0302L461.242 15.9602C470.882 15.9902 478.922 16.9802 485.342 18.9302C487.612 19.5802 489.332 20.3702 490.512 21.2902C491.692 22.2202 492.862 23.6902 494.012 25.7102C495.172 27.6502 495.762 29.7202 495.792 31.9002C495.842 35.7402 494.422 39.3003 491.522 42.5803C490.482 43.8003 489.492 44.6402 488.562 45.1002C487.622 45.5602 486.212 45.8103 484.332 45.8303C481.922 45.8603 477.211 45.4702 470.191 44.6602C466.191 44.1902 463.632 43.9502 462.502 43.9702C461.672 43.9802 461.032 44.2502 460.592 44.7802C460.072 45.4602 459.822 46.4802 459.842 47.8402L459.861 49.6502L464.391 50.0402C466.881 50.2302 470.002 50.3103 473.772 50.2603C476.932 50.2203 479.122 50.4202 480.332 50.8502C481.622 51.2902 482.891 52.1703 484.151 53.5103C485.411 54.8503 486.282 56.2302 486.752 57.6602C487.692 60.5102 488.181 63.0603 488.201 65.3203C488.251 68.9403 487.112 71.8103 484.812 73.9503C483.102 75.5503 481.381 76.6102 479.651 77.1202C477.921 77.6302 474.732 78.1102 470.062 78.5402C464.492 78.9902 461.521 79.4002 461.151 79.7802C460.781 80.1602 460.752 81.0303 461.072 82.3802C461.312 83.4303 461.581 84.0502 461.891 84.2302C462.191 84.4202 463.101 84.5002 464.611 84.4802C466.191 84.4602 469.162 84.1202 473.522 83.4602C477.502 82.8102 480.512 82.4702 482.552 82.4402C486.622 82.3902 489.762 83.5902 491.972 86.0502C495.032 89.4802 496.591 93.9402 496.661 99.4302C496.691 101.69 496.332 103.54 495.602 104.98C494.202 107.71 491.651 109.76 487.941 111.12C484.231 112.48 478.502 113.41 470.742 113.88C467.132 114.08 464.421 114.19 462.611 114.21C450.861 114.36 442.641 113.3 437.941 111.02C433.541 108.89 430.602 105.33 429.102 100.34C427.602 95.3502 426.611 85.6302 426.121 71.1702C426.001 68.0102 425.912 63.3002 425.832 57.0502C425.762 51.6302 425.752 48.2802 425.812 46.9902C426.062 42.7702 426.642 38.2102 427.562 33.3002C428.472 28.3902 429.341 25.2503 430.151 23.8903C431.401 21.7703 432.991 20.2902 434.901 19.4802C436.821 18.7102 441.262 17.6102 448.252 16.2402Z" fill="#73C2AF" stroke="black" stroke-width="2" stroke-miterlimit="10" stroke-linecap="round" stroke-linejoin="round"/>
<path d="M560.121 58.7802C556.671 53.2102 552.111 48.9102 546.431 45.8702C543.801 44.4702 540.201 43.2902 535.631 42.3402C532.461 41.6802 530.061 41.3702 528.441 41.4102C524.291 41.3902 520.781 41.7902 517.911 42.6102C515.041 43.4302 512.131 44.8802 509.151 46.9502C506.461 48.8102 504.351 50.9202 502.791 53.2802C497.831 56.7502 494.801 61.0702 493.721 66.2602C492.521 72.0102 493.231 77.6002 495.861 83.0402C496.741 84.8502 497.871 86.7002 499.211 88.5802C499.111 88.6102 499.011 88.6302 498.921 88.6602C495.621 89.8102 493.341 91.9802 492.051 95.1602C488.281 96.6902 485.931 99.6302 485.001 104.02C484.261 107.56 484.511 111.85 485.771 116.88C486.891 121.43 488.971 125.65 492.001 129.56C495.031 133.46 498.712 136.64 503.052 139.09C505.242 140.39 508.322 141.47 512.312 142.3L515.191 142.9C520.941 144.1 525.351 144.53 528.431 144.17C534.821 143.43 540.212 141.4 544.602 138.09C546.342 136.76 548.172 134.9 550.102 132.49C550.172 132.4 550.231 132.32 550.301 132.23C550.471 132.1 550.662 131.99 550.832 131.86C552.572 130.53 554.402 128.67 556.332 126.26C558.262 123.86 559.551 121.8 560.221 120.09C560.371 119.74 560.541 119.12 560.721 118.23C561.621 113.96 561.441 109.45 560.201 104.73C559.301 101.31 557.871 98.2002 555.921 95.4102C555.241 94.4402 554.411 93.3902 553.451 92.2702C553.691 92.1402 553.931 92.0002 554.171 91.8402C556.071 90.6002 557.372 88.8802 558.062 86.7102C558.852 86.4702 559.631 86.1102 560.401 85.6102C562.631 84.1502 564.032 82.0602 564.602 79.3302C564.802 78.3702 564.921 77.2402 564.961 75.9402C565.171 70.0702 563.571 64.3502 560.121 58.7802Z" fill="black" stroke="black" stroke-width="2" stroke-miterlimit="10" stroke-linecap="round" stroke-linejoin="round"/>
<path d="M534.671 35.1702C536.301 35.1302 538.691 35.4402 541.861 36.1002C546.431 37.0602 550.031 38.2402 552.661 39.6302C558.331 42.6702 562.902 46.9702 566.352 52.5402C569.802 58.1102 571.411 63.8402 571.181 69.7102C571.141 71.0102 571.022 72.1402 570.822 73.1002C570.252 75.8302 568.851 77.9202 566.621 79.3802C564.661 80.6602 562.612 81.0802 560.472 80.6302C557.962 80.1002 554.902 78.1902 551.282 74.9002C546.692 70.7102 544.032 68.5302 543.302 68.3802C543.152 68.3502 543.072 68.3702 543.062 68.4402C542.892 69.2502 546.091 72.7302 552.651 78.8802C557.031 82.9502 560.201 86.3902 562.151 89.1802C564.101 91.9802 565.531 95.0802 566.431 98.5002C567.671 103.22 567.841 107.72 566.951 112C566.761 112.88 566.601 113.5 566.451 113.86C565.781 115.57 564.492 117.62 562.562 120.03C560.632 122.44 558.802 124.3 557.062 125.63C552.672 128.94 547.281 130.97 540.891 131.71C537.821 132.06 533.401 131.64 527.651 130.44L524.772 129.84C520.792 129.01 517.702 127.94 515.512 126.63C511.182 124.18 507.491 121.01 504.461 117.1C501.431 113.19 499.352 108.97 498.232 104.42C496.982 99.3902 496.721 95.1002 497.461 91.5602C498.431 86.9202 500.991 83.8702 505.141 82.4302C506.801 81.8602 508.401 81.7302 509.951 82.0502C513.051 82.7002 517.322 85.6302 522.762 90.8502C525.322 93.3102 526.902 94.6002 527.492 94.7302C527.782 94.7902 527.962 94.6802 528.032 94.3802C528.222 93.5002 526.372 91.3002 522.482 87.7902C515.672 81.7502 510.942 76.0102 508.312 70.5702C505.682 65.1302 504.971 59.5402 506.171 53.7902C507.271 48.5602 510.331 44.2002 515.381 40.7102C518.351 38.6402 521.271 37.1902 524.141 36.3702C527.011 35.5502 530.521 35.1502 534.671 35.1702Z" fill="white" stroke="black" stroke-width="2" stroke-miterlimit="10" stroke-linecap="round" stroke-linejoin="round"/>
<path d="M90.0816 104.88C89.9016 103.01 89.5314 101.14 88.8714 99.3203C88.3914 98.0003 87.0515 95.5403 84.9314 91.9203C82.8114 88.3003 80.7515 85.1103 78.7415 82.3503L77.4415 80.5403L79.5716 77.8403C81.6016 75.3003 82.8416 73.0803 83.3116 71.1903C83.7716 69.2903 83.8414 66.2803 83.4214 62.1603C82.9314 57.3703 82.0815 53.8503 80.9415 51.6103C79.8415 49.4403 78.1314 46.9803 75.8714 44.2003C73.6014 41.4303 71.6616 39.4803 70.0416 38.3403C65.9816 35.4703 60.7115 33.3403 54.2315 31.9603C47.7415 30.5703 41.3115 30.1803 34.9415 30.7803L34.0416 30.8703C30.3816 31.3703 28.3314 31.6803 27.8914 31.8003C26.7914 32.2103 24.6314 33.2803 21.3914 35.0303C18.1514 36.7803 15.9716 38.0803 14.8416 38.9403C13.3816 39.9503 12.2514 41.4403 11.4214 43.3603C10.1714 44.1003 9.23138 44.7103 8.61138 45.1803C6.84138 46.4103 5.52144 48.3103 4.67144 50.8903C3.82144 53.4703 3.32144 57.1503 3.17144 61.9303C3.06144 65.5703 3.1715 69.0403 3.4815 72.3403C3.8415 76.0903 4.46138 81.1003 5.36138 87.3703L5.37139 87.4803C5.90139 91.5203 6.29155 94.3903 6.53155 96.1103C8.74155 112.17 10.4314 121.65 11.6214 124.57C12.3214 126.39 13.8214 128.26 16.1214 130.16C17.9314 131.73 19.7115 132.73 21.4615 133.17C23.2115 133.61 25.6914 133.71 28.9214 133.48L29.9315 133.38C38.2514 132.59 43.7216 129.59 46.3316 124.39C48.5916 123.18 50.3714 121.61 51.6714 119.67C52.1214 120 52.5914 120.35 53.1214 120.74C60.0514 126.06 65.8515 128.5 70.5015 128.05C71.3315 127.97 71.9614 127.87 72.4014 127.76C76.3314 126.93 79.3314 125.02 81.3914 122.03C81.7814 121.46 82.1114 120.87 82.4114 120.26C84.5414 119.23 86.2814 117.75 87.6214 115.8C89.6614 112.79 90.4916 109.16 90.0816 104.88Z" fill="black" stroke="black" stroke-width="2" stroke-miterlimit="10" stroke-linecap="round" stroke-linejoin="round"/>
<path d="M54.2015 54.3103C53.2815 53.4203 52.4916 53.0003 51.8116 53.0603C50.6116 53.1703 49.6816 53.7603 49.0216 54.8003C48.3616 55.8503 48.1015 57.0403 48.2315 58.3903C48.4415 60.5703 49.4516 62.0603 51.2716 62.8703L53.5116 63.7903L54.8216 62.0803C55.6116 60.8703 55.9416 59.5203 55.8016 58.0203C55.6616 56.5203 55.1215 55.2803 54.2015 54.3103ZM34.1114 25.5703C34.5514 25.4503 36.6016 25.1503 40.2616 24.6403L41.1615 24.5503C47.5315 23.9403 53.9615 24.3403 60.4515 25.7303C66.9415 27.1203 72.2116 29.2503 76.2616 32.1103C77.8816 33.2403 79.8216 35.2003 82.0916 37.9703C84.3616 40.7403 86.0515 43.2103 87.1615 45.3803C88.2815 47.6203 89.1014 51.1403 89.6414 55.9303C90.0314 60.0503 89.9916 63.0703 89.5316 64.9603C89.0716 66.8603 87.8216 69.0803 85.7916 71.6103L83.6615 74.3103L84.9615 76.1203C86.9615 78.8803 89.0315 82.0703 91.1515 85.6903C93.2715 89.3103 94.5816 91.7803 95.0916 93.0903C95.7216 94.9203 96.1216 96.7803 96.3016 98.6503C96.7116 102.92 95.8816 106.56 93.8216 109.55C91.7616 112.54 88.7616 114.46 84.8316 115.28C84.3916 115.4 83.7515 115.5 82.9315 115.57C78.2815 116.01 72.4916 113.57 65.5516 108.26C62.3816 105.91 60.7116 104.75 60.5616 104.76C60.3416 104.78 60.2717 105.24 60.3517 106.14C60.4417 107.11 60.0615 108.7 59.2115 110.9C56.8115 116.73 51.1916 120.06 42.3416 120.9L41.3316 121C38.1016 121.23 35.6114 121.13 33.8714 120.69C32.1314 120.25 30.3516 119.25 28.5316 117.68C26.2316 115.78 24.7316 113.92 24.0316 112.09C22.8516 109.18 21.1515 99.6903 18.9415 83.6303C18.7015 81.9103 18.3116 79.0403 17.7816 75.0003L17.7716 74.8903C16.8716 68.6203 16.2415 63.6103 15.8915 59.8603C15.5815 56.5603 15.4716 53.0903 15.5816 49.4503C15.7316 44.6703 16.2316 40.9903 17.0816 38.4103C17.9316 35.8303 19.2516 33.9303 21.0216 32.7003C22.1516 31.8403 24.3316 30.5303 27.5716 28.7903C30.8416 27.0603 33.0114 25.9803 34.1114 25.5703Z" fill="#73C2AF" stroke="black" stroke-width="2" stroke-miterlimit="10" stroke-linecap="round" stroke-linejoin="round"/>
<path d="M288.742 43.0901C287.832 40.9501 286.872 39.3301 285.822 38.2701C284.762 37.2001 283.162 36.2001 280.992 35.2801C274.862 32.5401 267.011 30.5501 257.451 29.3101L252.171 28.7101C247.451 28.1701 244.902 27.9202 244.522 27.9502C237.422 28.4302 232.861 28.9601 230.871 29.5201C228.871 30.0901 227.121 31.3501 225.611 33.3001C225.191 33.8401 224.711 34.7301 224.191 35.9301C222.381 36.5501 220.771 37.7401 219.381 39.5401C218.401 40.7901 217.151 43.8001 215.631 48.5501C214.101 53.3001 212.951 57.7601 212.181 61.9201C211.961 63.1901 211.551 66.5101 210.931 71.9001C210.221 78.1101 209.731 82.7902 209.451 85.9402C208.121 100.34 207.882 110.11 208.732 115.25C209.582 120.39 212.061 124.29 216.161 126.95C220.541 129.8 228.562 131.88 240.242 133.21C242.042 133.41 244.742 133.64 248.352 133.9C256.102 134.4 261.902 134.21 265.762 133.32C269.612 132.43 272.401 130.72 274.131 128.19C274.551 127.58 274.891 126.86 275.161 126.05C277.411 125.08 279.151 123.72 280.361 121.95C281.271 120.61 281.851 118.82 282.111 116.58C282.731 111.12 281.741 106.49 279.141 102.71C277.251 99.9901 274.292 98.4102 270.242 97.9502C268.792 97.7902 266.822 97.7302 264.332 97.7602C265.312 97.3302 266.302 96.7701 267.322 96.0301C268.982 94.8401 270.181 93.2801 270.931 91.3601C271.791 90.9501 272.662 90.4401 273.552 89.8001C276.102 87.9601 277.592 85.2601 278.002 81.6601C278.262 79.4101 278.092 76.8201 277.522 73.8701C277.232 72.4001 276.552 70.9201 275.472 69.4301C275.072 68.8801 274.652 68.4101 274.232 67.9801C274.382 67.9401 274.541 67.9201 274.681 67.8701C275.671 67.5301 276.751 66.8201 277.941 65.7401C279.491 64.3801 280.711 62.9002 281.631 61.3302C282.421 60.9402 283.271 60.3302 284.171 59.5102C287.451 56.6202 289.312 53.2701 289.752 49.4601C289.972 47.2901 289.622 45.1801 288.742 43.0901Z" fill="black" stroke="black" stroke-width="2" stroke-miterlimit="10" stroke-linecap="round" stroke-linejoin="round"/>
<path d="M250.751 21.7202C251.131 21.6902 253.681 21.9402 258.401 22.4802L263.681 23.0802C273.241 24.3202 281.091 26.3102 287.221 29.0502C289.391 29.9802 291.001 30.9802 292.051 32.0402C293.101 33.1102 294.081 34.7102 294.971 36.8602C295.871 38.9302 296.201 41.0602 295.951 43.2302C295.521 47.0502 293.661 50.4002 290.371 53.2802C289.181 54.3602 288.101 55.0702 287.111 55.4102C286.121 55.7502 284.691 55.8202 282.821 55.6102C280.421 55.3402 275.801 54.3602 268.941 52.6702C265.031 51.7002 262.521 51.1402 261.401 51.0202C260.571 50.9302 259.911 51.1202 259.401 51.5902C258.801 52.2002 258.421 53.1802 258.271 54.5302L258.071 56.3302L262.511 57.2902C264.951 57.8002 268.041 58.2602 271.791 58.6902C274.931 59.0502 277.081 59.5202 278.221 60.1002C279.441 60.6902 280.591 61.7302 281.671 63.2202C282.751 64.7102 283.441 66.1902 283.721 67.6602C284.291 70.6102 284.451 73.2002 284.201 75.4502C283.791 79.0402 282.311 81.7602 279.751 83.5902C277.851 84.9702 276.011 85.8002 274.241 86.0902C272.461 86.3802 269.231 86.4502 264.551 86.3002C258.971 86.0502 255.971 86.0802 255.551 86.4102C255.131 86.7402 255.001 87.6002 255.141 88.9802C255.251 90.0502 255.441 90.7002 255.721 90.9202C256.001 91.1402 256.881 91.3402 258.381 91.5102C259.951 91.6902 262.941 91.7302 267.351 91.6202C271.381 91.4702 274.411 91.5102 276.431 91.7402C280.471 92.2002 283.441 93.7902 285.331 96.5002C287.931 100.28 288.921 104.91 288.301 110.37C288.041 112.62 287.461 114.41 286.551 115.74C284.821 118.27 282.031 119.98 278.181 120.87C274.331 121.76 268.521 121.95 260.771 121.45C257.161 121.19 254.461 120.96 252.661 120.76C240.991 119.43 232.961 117.34 228.581 114.5C224.481 111.83 222.011 107.93 221.151 102.8C220.291 97.6602 220.531 87.8902 221.871 73.4902C222.151 70.3402 222.651 65.6602 223.351 59.4502C223.961 54.0602 224.381 50.7402 224.601 49.4702C225.381 45.3102 226.531 40.8602 228.051 36.1002C229.571 31.3502 230.821 28.3402 231.801 27.0902C233.311 25.1402 235.071 23.8802 237.061 23.3102C239.101 22.7202 243.651 22.2002 250.751 21.7202Z" fill="white" stroke="black" stroke-width="2" stroke-miterlimit="10" stroke-linecap="round" stroke-linejoin="round"/>
</svg>
