<svg width="253" height="183" viewBox="0 0 253 183" fill="none" xmlns="http://www.w3.org/2000/svg">
<path opacity="0.33" d="M248.464 151.462C250.565 134.256 197.499 113.62 129.938 105.37C62.3772 97.1209 5.90506 104.382 3.80411 121.588C1.70316 138.795 54.7689 159.43 122.33 167.68C189.891 175.929 246.363 168.668 248.464 151.462Z" fill="#3C3244"/>
<path d="M157.055 156.92L206.588 135.426L215.98 48.6838L167.879 65.8849L157.055 156.92Z" fill="#4F4131" stroke="black" stroke-miterlimit="10" stroke-linecap="round" stroke-linejoin="round"/>
<path d="M40.274 129.937L157.055 156.92L167.879 65.8849L52.5427 44.724L40.274 129.937Z" fill="#4F4131" stroke="black" stroke-miterlimit="10" stroke-linecap="round" stroke-linejoin="round"/>
<path d="M52.5426 44.724L167.879 65.8849L215.98 48.6838L204.559 46.0439L204.518 47.0999L172.603 58.7572L63.8664 36.4847L52.5426 44.724Z" fill="#4F4131" stroke="black" stroke-miterlimit="10" stroke-linecap="round" stroke-linejoin="round"/>
<path d="M172.603 58.7571L204.518 47.0999L204.629 44.4878L206.658 18.3527L177.118 26.592L175.229 40.0416L172.603 58.7571Z" fill="#4F4131" stroke="black" stroke-miterlimit="10" stroke-linecap="round" stroke-linejoin="round"/>
<path d="M64.0193 38.013L172.603 58.7571L175.229 40.0416L177.118 26.592L68.132 8.97411L64.0193 38.013Z" fill="#4A4246" stroke="black" stroke-miterlimit="10" stroke-linecap="round" stroke-linejoin="round"/>
<path d="M68.1321 8.97411L177.118 26.592L206.658 18.3527L91.6272 1.12387L68.1321 8.97411Z" fill="white" stroke="black" stroke-miterlimit="10" stroke-linecap="round" stroke-linejoin="round"/>
<path d="M68.1321 8.97411L177.118 26.592L206.658 18.3527L91.6272 1.12387L68.1321 8.97411Z" fill="#4F4131" stroke="black" stroke-miterlimit="10" stroke-linecap="round" stroke-linejoin="round"/>
<path d="M170.602 32.8027L167.531 53.4912L70.48 34.4561L73.1894 16.3381L170.602 32.8027Z" fill="#F7AD39" stroke="black" stroke-miterlimit="10" stroke-linecap="round" stroke-linejoin="round"/>
<path d="M159.82 47.086L161.724 47.2527C164.211 47.475 166.448 45.2797 166.712 42.3203C166.976 39.3886 165.169 36.8181 162.682 36.5819L160.779 36.4152C163.28 36.6375 165.086 39.208 164.822 42.1535C164.544 45.113 162.307 47.3222 159.82 47.086Z" fill="#8F80BB" stroke="black" stroke-miterlimit="10" stroke-linecap="round" stroke-linejoin="round"/>
<path d="M155.791 41.3477C155.527 44.2932 157.333 46.8637 159.82 47.086C162.321 47.3083 164.558 45.113 164.822 42.1674C165.086 39.2357 163.28 36.6653 160.779 36.4291C158.292 36.2068 156.055 38.416 155.791 41.3477Z" fill="#8F80BB" stroke="black" stroke-miterlimit="10" stroke-linecap="round" stroke-linejoin="round"/>
<path d="M146.092 44.4739L147.996 44.6406C150.483 44.8629 152.72 42.6676 152.984 39.7081C153.248 36.7765 151.442 34.206 148.955 33.9698L147.051 33.8031C149.552 34.0254 151.358 36.5958 151.094 39.5414C150.83 42.487 148.579 44.6962 146.092 44.4739Z" fill="#8F80BB" stroke="black" stroke-miterlimit="10" stroke-linecap="round" stroke-linejoin="round"/>
<path d="M142.063 38.7356C141.799 41.6811 143.605 44.2516 146.093 44.4739C148.593 44.6962 150.83 42.5009 151.094 39.5553C151.358 36.6236 149.552 34.0532 147.051 33.817C144.564 33.5947 142.327 35.79 142.063 38.7356Z" fill="#8F80BB" stroke="black" stroke-miterlimit="10" stroke-linecap="round" stroke-linejoin="round"/>
<path d="M132.365 41.8479L134.268 42.0146C136.755 42.2369 138.992 40.0416 139.256 37.0821C139.52 34.1505 137.714 31.58 135.227 31.3438L133.324 31.1771C135.825 31.3994 137.631 33.9698 137.367 36.9154C137.103 39.8749 134.866 42.0702 132.365 41.8479Z" fill="#8F80BB" stroke="black" stroke-miterlimit="10" stroke-linecap="round" stroke-linejoin="round"/>
<path d="M128.336 36.1095C128.072 39.0551 129.878 41.6255 132.365 41.8478C134.866 42.0702 137.103 39.8749 137.367 36.9293C137.631 33.9976 135.825 31.4272 133.324 31.191C130.837 30.9687 128.6 33.1778 128.336 36.1095Z" fill="#8F80BB" stroke="black" stroke-miterlimit="10" stroke-linecap="round" stroke-linejoin="round"/>
<path d="M118.637 39.2218L120.541 39.3886C123.028 39.6109 125.265 37.4156 125.529 34.4561C125.793 31.5244 123.987 28.954 121.5 28.7178L119.596 28.5511C122.097 28.7734 123.903 31.3438 123.639 34.2894C123.375 37.2489 121.138 39.458 118.637 39.2218Z" fill="#8F80BB" stroke="black" stroke-miterlimit="10" stroke-linecap="round" stroke-linejoin="round"/>
<path d="M114.608 33.4835C114.344 36.4291 116.151 38.9995 118.638 39.2218C121.139 39.4441 123.376 37.2489 123.64 34.3033C123.904 31.3716 122.097 28.8012 119.596 28.565C117.109 28.3426 114.872 30.5518 114.608 33.4835Z" fill="#8F80BB" stroke="black" stroke-miterlimit="10" stroke-linecap="round" stroke-linejoin="round"/>
<path d="M104.91 36.6097L106.813 36.7765C109.301 36.9988 111.537 34.8035 111.801 31.844C112.065 28.9123 110.259 26.3419 107.772 26.1057L105.869 25.939C108.37 26.1613 110.176 28.7317 109.912 31.6773C109.648 34.6229 107.411 36.832 104.91 36.6097Z" fill="#8F80BB" stroke="black" stroke-miterlimit="10" stroke-linecap="round" stroke-linejoin="round"/>
<path d="M100.88 30.8714C100.616 33.817 102.423 36.3874 104.91 36.6097C107.411 36.8321 109.648 34.6368 109.912 31.6912C110.176 28.7595 108.369 26.1891 105.869 25.9529C103.395 25.7306 101.144 27.9259 100.88 30.8714Z" fill="#8F80BB" stroke="black" stroke-miterlimit="10" stroke-linecap="round" stroke-linejoin="round"/>
<path d="M91.1824 33.9837L93.0859 34.1505C95.5729 34.3728 97.8099 32.1775 98.0739 29.218C98.3379 26.2863 96.5316 23.7159 94.0446 23.4797L92.1411 23.313C94.642 23.5353 96.4483 26.1057 96.1843 29.0513C95.9203 32.0107 93.6833 34.206 91.1824 33.9837Z" fill="#8F80BB" stroke="black" stroke-miterlimit="10" stroke-linecap="round" stroke-linejoin="round"/>
<path d="M87.1529 28.2454C86.8889 31.191 88.6952 33.7614 91.1823 33.9837C93.6833 34.206 95.9202 32.0107 96.1842 29.0652C96.4482 26.1335 94.642 23.563 92.141 23.3268C89.6678 23.1045 87.4169 25.3137 87.1529 28.2454Z" fill="#8F80BB" stroke="black" stroke-miterlimit="10" stroke-linecap="round" stroke-linejoin="round"/>
<path d="M77.4548 31.3716L79.3583 31.5383C81.8454 31.7607 84.0824 29.5654 84.3464 26.6059C84.6104 23.6742 82.8041 21.1038 80.317 20.8676L78.4135 20.7008C80.9145 20.9232 82.7208 23.4936 82.4568 26.4392C82.1928 29.3847 79.9558 31.5939 77.4548 31.3716Z" fill="#8F80BB" stroke="black" stroke-miterlimit="10" stroke-linecap="round" stroke-linejoin="round"/>
<path d="M73.4394 25.6194C73.1754 28.565 74.9817 31.1354 77.4688 31.3577C79.9697 31.58 82.2067 29.3847 82.4707 26.4392C82.7347 23.5075 80.9284 20.9371 78.4275 20.7009C75.9404 20.4785 73.7034 22.6877 73.4394 25.6194Z" fill="#8F80BB" stroke="black" stroke-miterlimit="10" stroke-linecap="round" stroke-linejoin="round"/>
<path d="M209.881 55.7282L201.447 131.368L162.39 147.777L172.38 69.9003L209.881 55.7282Z" fill="#2D241C" stroke="black" stroke-miterlimit="10" stroke-linecap="round" stroke-linejoin="round"/>
<path d="M157.93 76.4723L149.149 141.136C148.774 143.873 146.106 145.679 143.425 144.999L49.2635 124.296C47.0126 123.727 45.5399 121.587 45.8038 119.28L54.7934 57.7706C55.0991 55.0474 57.6973 53.1994 60.365 53.7691L154.304 71.3175C156.694 71.8455 158.264 74.0825 157.93 76.4723Z" fill="#775755" stroke="black" stroke-miterlimit="10" stroke-linecap="round" stroke-linejoin="round"/>
</svg>
